G04 #@! TF.GenerationSoftware,KiCad,Pcbnew,(5.1.6-0-10_14)*
G04 #@! TF.CreationDate,2020-09-25T20:25:35+02:00*
G04 #@! TF.ProjectId,CHAdeMO_V2.0,43484164-654d-44f5-9f56-322e302e6b69,rev?*
G04 #@! TF.SameCoordinates,Original*
G04 #@! TF.FileFunction,Paste,Top*
G04 #@! TF.FilePolarity,Positive*
%FSLAX46Y46*%
G04 Gerber Fmt 4.6, Leading zero omitted, Abs format (unit mm)*
G04 Created by KiCad (PCBNEW (5.1.6-0-10_14)) date 2020-09-25 20:25:35*
%MOMM*%
%LPD*%
G01*
G04 APERTURE LIST*
%ADD10R,0.600000X1.050000*%
%ADD11R,0.650000X1.200000*%
%ADD12R,0.600000X1.300000*%
%ADD13R,0.900000X1.350000*%
%ADD14R,1.900000X2.200000*%
%ADD15R,2.900000X5.450000*%
%ADD16R,2.150000X2.200000*%
%ADD17R,0.800000X1.000000*%
%ADD18R,1.000000X0.800000*%
%ADD19R,1.550000X1.000000*%
%ADD20R,1.000000X1.550000*%
%ADD21R,4.050000X2.300000*%
%ADD22R,0.280000X1.470000*%
%ADD23R,1.470000X0.280000*%
%ADD24R,2.350000X0.700000*%
%ADD25R,0.900000X1.200000*%
%ADD26R,1.000000X1.800000*%
%ADD27R,0.650000X1.525000*%
%ADD28R,2.200000X1.900000*%
%ADD29R,1.200000X1.400000*%
G04 APERTURE END LIST*
G04 #@! TO.C,R28*
G36*
G01*
X120883100Y-70892350D02*
X120883100Y-71804850D01*
G75*
G02*
X120639350Y-72048600I-243750J0D01*
G01*
X120151850Y-72048600D01*
G75*
G02*
X119908100Y-71804850I0J243750D01*
G01*
X119908100Y-70892350D01*
G75*
G02*
X120151850Y-70648600I243750J0D01*
G01*
X120639350Y-70648600D01*
G75*
G02*
X120883100Y-70892350I0J-243750D01*
G01*
G37*
G36*
G01*
X122758100Y-70892350D02*
X122758100Y-71804850D01*
G75*
G02*
X122514350Y-72048600I-243750J0D01*
G01*
X122026850Y-72048600D01*
G75*
G02*
X121783100Y-71804850I0J243750D01*
G01*
X121783100Y-70892350D01*
G75*
G02*
X122026850Y-70648600I243750J0D01*
G01*
X122514350Y-70648600D01*
G75*
G02*
X122758100Y-70892350I0J-243750D01*
G01*
G37*
G04 #@! TD*
G04 #@! TO.C,R27*
G36*
G01*
X127805600Y-71804850D02*
X127805600Y-70892350D01*
G75*
G02*
X128049350Y-70648600I243750J0D01*
G01*
X128536850Y-70648600D01*
G75*
G02*
X128780600Y-70892350I0J-243750D01*
G01*
X128780600Y-71804850D01*
G75*
G02*
X128536850Y-72048600I-243750J0D01*
G01*
X128049350Y-72048600D01*
G75*
G02*
X127805600Y-71804850I0J243750D01*
G01*
G37*
G36*
G01*
X125930600Y-71804850D02*
X125930600Y-70892350D01*
G75*
G02*
X126174350Y-70648600I243750J0D01*
G01*
X126661850Y-70648600D01*
G75*
G02*
X126905600Y-70892350I0J-243750D01*
G01*
X126905600Y-71804850D01*
G75*
G02*
X126661850Y-72048600I-243750J0D01*
G01*
X126174350Y-72048600D01*
G75*
G02*
X125930600Y-71804850I0J243750D01*
G01*
G37*
G04 #@! TD*
G04 #@! TO.C,R19*
G36*
G01*
X91331200Y-80720250D02*
X91331200Y-79807750D01*
G75*
G02*
X91574950Y-79564000I243750J0D01*
G01*
X92062450Y-79564000D01*
G75*
G02*
X92306200Y-79807750I0J-243750D01*
G01*
X92306200Y-80720250D01*
G75*
G02*
X92062450Y-80964000I-243750J0D01*
G01*
X91574950Y-80964000D01*
G75*
G02*
X91331200Y-80720250I0J243750D01*
G01*
G37*
G36*
G01*
X89456200Y-80720250D02*
X89456200Y-79807750D01*
G75*
G02*
X89699950Y-79564000I243750J0D01*
G01*
X90187450Y-79564000D01*
G75*
G02*
X90431200Y-79807750I0J-243750D01*
G01*
X90431200Y-80720250D01*
G75*
G02*
X90187450Y-80964000I-243750J0D01*
G01*
X89699950Y-80964000D01*
G75*
G02*
X89456200Y-80720250I0J243750D01*
G01*
G37*
G04 #@! TD*
G04 #@! TO.C,R9*
G36*
G01*
X73830600Y-65937450D02*
X73830600Y-65024950D01*
G75*
G02*
X74074350Y-64781200I243750J0D01*
G01*
X74561850Y-64781200D01*
G75*
G02*
X74805600Y-65024950I0J-243750D01*
G01*
X74805600Y-65937450D01*
G75*
G02*
X74561850Y-66181200I-243750J0D01*
G01*
X74074350Y-66181200D01*
G75*
G02*
X73830600Y-65937450I0J243750D01*
G01*
G37*
G36*
G01*
X71955600Y-65937450D02*
X71955600Y-65024950D01*
G75*
G02*
X72199350Y-64781200I243750J0D01*
G01*
X72686850Y-64781200D01*
G75*
G02*
X72930600Y-65024950I0J-243750D01*
G01*
X72930600Y-65937450D01*
G75*
G02*
X72686850Y-66181200I-243750J0D01*
G01*
X72199350Y-66181200D01*
G75*
G02*
X71955600Y-65937450I0J243750D01*
G01*
G37*
G04 #@! TD*
G04 #@! TO.C,R22*
G36*
G01*
X97663950Y-60775000D02*
X98576450Y-60775000D01*
G75*
G02*
X98820200Y-61018750I0J-243750D01*
G01*
X98820200Y-61506250D01*
G75*
G02*
X98576450Y-61750000I-243750J0D01*
G01*
X97663950Y-61750000D01*
G75*
G02*
X97420200Y-61506250I0J243750D01*
G01*
X97420200Y-61018750D01*
G75*
G02*
X97663950Y-60775000I243750J0D01*
G01*
G37*
G36*
G01*
X97663950Y-58900000D02*
X98576450Y-58900000D01*
G75*
G02*
X98820200Y-59143750I0J-243750D01*
G01*
X98820200Y-59631250D01*
G75*
G02*
X98576450Y-59875000I-243750J0D01*
G01*
X97663950Y-59875000D01*
G75*
G02*
X97420200Y-59631250I0J243750D01*
G01*
X97420200Y-59143750D01*
G75*
G02*
X97663950Y-58900000I243750J0D01*
G01*
G37*
G04 #@! TD*
G04 #@! TO.C,R21*
G36*
G01*
X99860600Y-60965300D02*
X99860600Y-61310300D01*
G75*
G02*
X99713100Y-61457800I-147500J0D01*
G01*
X99418100Y-61457800D01*
G75*
G02*
X99270600Y-61310300I0J147500D01*
G01*
X99270600Y-60965300D01*
G75*
G02*
X99418100Y-60817800I147500J0D01*
G01*
X99713100Y-60817800D01*
G75*
G02*
X99860600Y-60965300I0J-147500D01*
G01*
G37*
G36*
G01*
X100830600Y-60965300D02*
X100830600Y-61310300D01*
G75*
G02*
X100683100Y-61457800I-147500J0D01*
G01*
X100388100Y-61457800D01*
G75*
G02*
X100240600Y-61310300I0J147500D01*
G01*
X100240600Y-60965300D01*
G75*
G02*
X100388100Y-60817800I147500J0D01*
G01*
X100683100Y-60817800D01*
G75*
G02*
X100830600Y-60965300I0J-147500D01*
G01*
G37*
G04 #@! TD*
G04 #@! TO.C,R18*
G36*
G01*
X99600600Y-138761150D02*
X99600600Y-139673650D01*
G75*
G02*
X99356850Y-139917400I-243750J0D01*
G01*
X98869350Y-139917400D01*
G75*
G02*
X98625600Y-139673650I0J243750D01*
G01*
X98625600Y-138761150D01*
G75*
G02*
X98869350Y-138517400I243750J0D01*
G01*
X99356850Y-138517400D01*
G75*
G02*
X99600600Y-138761150I0J-243750D01*
G01*
G37*
G36*
G01*
X101475600Y-138761150D02*
X101475600Y-139673650D01*
G75*
G02*
X101231850Y-139917400I-243750J0D01*
G01*
X100744350Y-139917400D01*
G75*
G02*
X100500600Y-139673650I0J243750D01*
G01*
X100500600Y-138761150D01*
G75*
G02*
X100744350Y-138517400I243750J0D01*
G01*
X101231850Y-138517400D01*
G75*
G02*
X101475600Y-138761150I0J-243750D01*
G01*
G37*
G04 #@! TD*
G04 #@! TO.C,R17*
G36*
G01*
X103351650Y-138691200D02*
X102439150Y-138691200D01*
G75*
G02*
X102195400Y-138447450I0J243750D01*
G01*
X102195400Y-137959950D01*
G75*
G02*
X102439150Y-137716200I243750J0D01*
G01*
X103351650Y-137716200D01*
G75*
G02*
X103595400Y-137959950I0J-243750D01*
G01*
X103595400Y-138447450D01*
G75*
G02*
X103351650Y-138691200I-243750J0D01*
G01*
G37*
G36*
G01*
X103351650Y-140566200D02*
X102439150Y-140566200D01*
G75*
G02*
X102195400Y-140322450I0J243750D01*
G01*
X102195400Y-139834950D01*
G75*
G02*
X102439150Y-139591200I243750J0D01*
G01*
X103351650Y-139591200D01*
G75*
G02*
X103595400Y-139834950I0J-243750D01*
G01*
X103595400Y-140322450D01*
G75*
G02*
X103351650Y-140566200I-243750J0D01*
G01*
G37*
G04 #@! TD*
D10*
G04 #@! TO.C,D5*
X53247600Y-54322800D03*
X54197600Y-56522800D03*
X52297600Y-56522800D03*
G04 #@! TD*
G04 #@! TO.C,D4*
X138633200Y-58767800D03*
X139583200Y-60967800D03*
X137683200Y-60967800D03*
G04 #@! TD*
D11*
G04 #@! TO.C,Q5*
X107797600Y-64651600D03*
X106837600Y-62551600D03*
X108757600Y-62551600D03*
G04 #@! TD*
D12*
G04 #@! TO.C,Q3*
X102870000Y-63567600D03*
X103820000Y-65667600D03*
X101920000Y-65667600D03*
G04 #@! TD*
G04 #@! TO.C,Q4*
X99161600Y-65083400D03*
X98211600Y-62983400D03*
X100111600Y-62983400D03*
G04 #@! TD*
G04 #@! TO.C,Q2*
X90881200Y-76226200D03*
X91831200Y-78326200D03*
X89931200Y-78326200D03*
G04 #@! TD*
G04 #@! TO.C,Q1*
X73380600Y-61434000D03*
X74330600Y-63534000D03*
X72430600Y-63534000D03*
G04 #@! TD*
D13*
G04 #@! TO.C,L6*
X130499800Y-83831000D03*
X132999800Y-83831000D03*
X132999800Y-88381000D03*
X130499800Y-88381000D03*
G04 #@! TD*
G04 #@! TO.C,L5*
X65724600Y-75847000D03*
X68224600Y-75847000D03*
X68224600Y-80397000D03*
X65724600Y-80397000D03*
G04 #@! TD*
D14*
G04 #@! TO.C,L9*
X87839000Y-89179400D03*
X91739000Y-89179400D03*
G04 #@! TD*
G04 #@! TO.C,F2*
G36*
G01*
X106235200Y-58607800D02*
X106235200Y-59857800D01*
G75*
G02*
X105985200Y-60107800I-250000J0D01*
G01*
X105235200Y-60107800D01*
G75*
G02*
X104985200Y-59857800I0J250000D01*
G01*
X104985200Y-58607800D01*
G75*
G02*
X105235200Y-58357800I250000J0D01*
G01*
X105985200Y-58357800D01*
G75*
G02*
X106235200Y-58607800I0J-250000D01*
G01*
G37*
G36*
G01*
X109035200Y-58607800D02*
X109035200Y-59857800D01*
G75*
G02*
X108785200Y-60107800I-250000J0D01*
G01*
X108035200Y-60107800D01*
G75*
G02*
X107785200Y-59857800I0J250000D01*
G01*
X107785200Y-58607800D01*
G75*
G02*
X108035200Y-58357800I250000J0D01*
G01*
X108785200Y-58357800D01*
G75*
G02*
X109035200Y-58607800I0J-250000D01*
G01*
G37*
G04 #@! TD*
G04 #@! TO.C,F3*
G36*
G01*
X103111600Y-59832400D02*
X103111600Y-58582400D01*
G75*
G02*
X103361600Y-58332400I250000J0D01*
G01*
X104111600Y-58332400D01*
G75*
G02*
X104361600Y-58582400I0J-250000D01*
G01*
X104361600Y-59832400D01*
G75*
G02*
X104111600Y-60082400I-250000J0D01*
G01*
X103361600Y-60082400D01*
G75*
G02*
X103111600Y-59832400I0J250000D01*
G01*
G37*
G36*
G01*
X100311600Y-59832400D02*
X100311600Y-58582400D01*
G75*
G02*
X100561600Y-58332400I250000J0D01*
G01*
X101311600Y-58332400D01*
G75*
G02*
X101561600Y-58582400I0J-250000D01*
G01*
X101561600Y-59832400D01*
G75*
G02*
X101311600Y-60082400I-250000J0D01*
G01*
X100561600Y-60082400D01*
G75*
G02*
X100311600Y-59832400I0J250000D01*
G01*
G37*
G04 #@! TD*
D15*
G04 #@! TO.C,F1*
X110609900Y-74180700D03*
X116389900Y-74180700D03*
G04 #@! TD*
D16*
G04 #@! TO.C,D6*
X109169200Y-83073600D03*
X109169200Y-78673600D03*
G04 #@! TD*
G04 #@! TO.C,D3*
X79781400Y-65896600D03*
X79781400Y-61496600D03*
G04 #@! TD*
D17*
G04 #@! TO.C,U7*
X122603100Y-68744200D03*
X120063100Y-68744200D03*
X120063100Y-62244200D03*
X122603100Y-62244200D03*
G04 #@! TD*
G04 #@! TO.C,U6*
X128625600Y-68744200D03*
X126085600Y-68744200D03*
X126085600Y-62244200D03*
X128625600Y-62244200D03*
G04 #@! TD*
D18*
G04 #@! TO.C,U5*
X99594300Y-70878700D03*
X99594300Y-68338700D03*
X106094300Y-68338700D03*
X106094300Y-70878700D03*
G04 #@! TD*
D17*
G04 #@! TO.C,U4*
X82423000Y-86473400D03*
X79883000Y-86473400D03*
X79883000Y-79973400D03*
X82423000Y-79973400D03*
G04 #@! TD*
G04 #@! TO.C,U3*
X76479400Y-76465800D03*
X73939400Y-76465800D03*
X73939400Y-69965800D03*
X76479400Y-69965800D03*
G04 #@! TD*
D19*
G04 #@! TO.C,S2*
X87765800Y-143484400D03*
X82515800Y-143484400D03*
X87765800Y-140284400D03*
X82515800Y-140284400D03*
G04 #@! TD*
D20*
G04 #@! TO.C,S1*
X103301600Y-91507400D03*
X103301600Y-96757400D03*
X100101600Y-91507400D03*
X100101600Y-96757400D03*
G04 #@! TD*
D21*
G04 #@! TO.C,C44*
X104198200Y-81203800D03*
X95598200Y-81203800D03*
G04 #@! TD*
G04 #@! TO.C,R13*
G36*
G01*
X136413400Y-83636000D02*
X135163400Y-83636000D01*
G75*
G02*
X134913400Y-83386000I0J250000D01*
G01*
X134913400Y-82636000D01*
G75*
G02*
X135163400Y-82386000I250000J0D01*
G01*
X136413400Y-82386000D01*
G75*
G02*
X136663400Y-82636000I0J-250000D01*
G01*
X136663400Y-83386000D01*
G75*
G02*
X136413400Y-83636000I-250000J0D01*
G01*
G37*
G36*
G01*
X136413400Y-86436000D02*
X135163400Y-86436000D01*
G75*
G02*
X134913400Y-86186000I0J250000D01*
G01*
X134913400Y-85436000D01*
G75*
G02*
X135163400Y-85186000I250000J0D01*
G01*
X136413400Y-85186000D01*
G75*
G02*
X136663400Y-85436000I0J-250000D01*
G01*
X136663400Y-86186000D01*
G75*
G02*
X136413400Y-86436000I-250000J0D01*
G01*
G37*
G04 #@! TD*
G04 #@! TO.C,R12*
G36*
G01*
X126425800Y-85186000D02*
X127675800Y-85186000D01*
G75*
G02*
X127925800Y-85436000I0J-250000D01*
G01*
X127925800Y-86186000D01*
G75*
G02*
X127675800Y-86436000I-250000J0D01*
G01*
X126425800Y-86436000D01*
G75*
G02*
X126175800Y-86186000I0J250000D01*
G01*
X126175800Y-85436000D01*
G75*
G02*
X126425800Y-85186000I250000J0D01*
G01*
G37*
G36*
G01*
X126425800Y-82386000D02*
X127675800Y-82386000D01*
G75*
G02*
X127925800Y-82636000I0J-250000D01*
G01*
X127925800Y-83386000D01*
G75*
G02*
X127675800Y-83636000I-250000J0D01*
G01*
X126425800Y-83636000D01*
G75*
G02*
X126175800Y-83386000I0J250000D01*
G01*
X126175800Y-82636000D01*
G75*
G02*
X126425800Y-82386000I250000J0D01*
G01*
G37*
G04 #@! TD*
G04 #@! TO.C,C35*
G36*
G01*
X135142150Y-88742000D02*
X135654650Y-88742000D01*
G75*
G02*
X135873400Y-88960750I0J-218750D01*
G01*
X135873400Y-89398250D01*
G75*
G02*
X135654650Y-89617000I-218750J0D01*
G01*
X135142150Y-89617000D01*
G75*
G02*
X134923400Y-89398250I0J218750D01*
G01*
X134923400Y-88960750D01*
G75*
G02*
X135142150Y-88742000I218750J0D01*
G01*
G37*
G36*
G01*
X135142150Y-87167000D02*
X135654650Y-87167000D01*
G75*
G02*
X135873400Y-87385750I0J-218750D01*
G01*
X135873400Y-87823250D01*
G75*
G02*
X135654650Y-88042000I-218750J0D01*
G01*
X135142150Y-88042000D01*
G75*
G02*
X134923400Y-87823250I0J218750D01*
G01*
X134923400Y-87385750D01*
G75*
G02*
X135142150Y-87167000I218750J0D01*
G01*
G37*
G04 #@! TD*
D22*
G04 #@! TO.C,U2*
X105130500Y-136385000D03*
X104630500Y-136385000D03*
X104130500Y-136385000D03*
X103630500Y-136385000D03*
X103130500Y-136385000D03*
X102630500Y-136385000D03*
X102130500Y-136385000D03*
X101630500Y-136385000D03*
X101130500Y-136385000D03*
X100630500Y-136385000D03*
X100130500Y-136385000D03*
X99630500Y-136385000D03*
X99130500Y-136385000D03*
X98630500Y-136385000D03*
X98130500Y-136385000D03*
X97630500Y-136385000D03*
X97130500Y-136385000D03*
X96630500Y-136385000D03*
X96130500Y-136385000D03*
X95630500Y-136385000D03*
X95130500Y-136385000D03*
X94630500Y-136385000D03*
X94130500Y-136385000D03*
X93630500Y-136385000D03*
X93130500Y-136385000D03*
X92630500Y-136385000D03*
X92130500Y-136385000D03*
X91630500Y-136385000D03*
X91130500Y-136385000D03*
X90630500Y-136385000D03*
X90130500Y-136385000D03*
X89630500Y-136385000D03*
X89130500Y-136385000D03*
X88630500Y-136385000D03*
X88130500Y-136385000D03*
X87630500Y-136385000D03*
D23*
X85710500Y-134465000D03*
X85710500Y-133965000D03*
X85710500Y-133465000D03*
X85710500Y-132965000D03*
X85710500Y-132465000D03*
X85710500Y-131965000D03*
X85710500Y-131465000D03*
X85710500Y-130965000D03*
X85710500Y-130465000D03*
X85710500Y-129965000D03*
X85710500Y-129465000D03*
X85710500Y-128965000D03*
X85710500Y-128465000D03*
X85710500Y-127965000D03*
X85710500Y-127465000D03*
X85710500Y-126965000D03*
X85710500Y-126465000D03*
X85710500Y-125965000D03*
X85710500Y-125465000D03*
X85710500Y-124965000D03*
X85710500Y-124465000D03*
X85710500Y-123965000D03*
X85710500Y-123465000D03*
X85710500Y-122965000D03*
X85710500Y-122465000D03*
X85710500Y-121965000D03*
X85710500Y-121465000D03*
X85710500Y-120965000D03*
X85710500Y-120465000D03*
X85710500Y-119965000D03*
X85710500Y-119465000D03*
X85710500Y-118965000D03*
X85710500Y-118465000D03*
X85710500Y-117965000D03*
X85710500Y-117465000D03*
X85710500Y-116965000D03*
D22*
X87630500Y-115045000D03*
X88130500Y-115045000D03*
X88630500Y-115045000D03*
X89130500Y-115045000D03*
X89630500Y-115045000D03*
X90130500Y-115045000D03*
X90630500Y-115045000D03*
X91130500Y-115045000D03*
X91630500Y-115045000D03*
X92130500Y-115045000D03*
X92630500Y-115045000D03*
X93130500Y-115045000D03*
X93630500Y-115045000D03*
X94130500Y-115045000D03*
X94630500Y-115045000D03*
X95130500Y-115045000D03*
X95630500Y-115045000D03*
X96130500Y-115045000D03*
X96630500Y-115045000D03*
X97130500Y-115045000D03*
X97630500Y-115045000D03*
X98130500Y-115045000D03*
X98630500Y-115045000D03*
X99130500Y-115045000D03*
X99630500Y-115045000D03*
X100130500Y-115045000D03*
X100630500Y-115045000D03*
X101130500Y-115045000D03*
X101630500Y-115045000D03*
X102130500Y-115045000D03*
X102630500Y-115045000D03*
X103130500Y-115045000D03*
X103630500Y-115045000D03*
X104130500Y-115045000D03*
X104630500Y-115045000D03*
X105130500Y-115045000D03*
D23*
X107050500Y-116965000D03*
X107050500Y-117465000D03*
X107050500Y-117965000D03*
X107050500Y-118465000D03*
X107050500Y-118965000D03*
X107050500Y-119465000D03*
X107050500Y-119965000D03*
X107050500Y-120465000D03*
X107050500Y-120965000D03*
X107050500Y-121465000D03*
X107050500Y-121965000D03*
X107050500Y-122465000D03*
X107050500Y-122965000D03*
X107050500Y-123465000D03*
X107050500Y-123965000D03*
X107050500Y-124465000D03*
X107050500Y-124965000D03*
X107050500Y-125465000D03*
X107050500Y-125965000D03*
X107050500Y-126465000D03*
X107050500Y-126965000D03*
X107050500Y-127465000D03*
X107050500Y-127965000D03*
X107050500Y-128465000D03*
X107050500Y-128965000D03*
X107050500Y-129465000D03*
X107050500Y-129965000D03*
X107050500Y-130465000D03*
X107050500Y-130965000D03*
X107050500Y-131465000D03*
X107050500Y-131965000D03*
X107050500Y-132465000D03*
X107050500Y-132965000D03*
X107050500Y-133465000D03*
X107050500Y-133965000D03*
X107050500Y-134465000D03*
G04 #@! TD*
G04 #@! TO.C,R26*
G36*
G01*
X120708000Y-58116150D02*
X120708000Y-59028650D01*
G75*
G02*
X120464250Y-59272400I-243750J0D01*
G01*
X119976750Y-59272400D01*
G75*
G02*
X119733000Y-59028650I0J243750D01*
G01*
X119733000Y-58116150D01*
G75*
G02*
X119976750Y-57872400I243750J0D01*
G01*
X120464250Y-57872400D01*
G75*
G02*
X120708000Y-58116150I0J-243750D01*
G01*
G37*
G36*
G01*
X122583000Y-58116150D02*
X122583000Y-59028650D01*
G75*
G02*
X122339250Y-59272400I-243750J0D01*
G01*
X121851750Y-59272400D01*
G75*
G02*
X121608000Y-59028650I0J243750D01*
G01*
X121608000Y-58116150D01*
G75*
G02*
X121851750Y-57872400I243750J0D01*
G01*
X122339250Y-57872400D01*
G75*
G02*
X122583000Y-58116150I0J-243750D01*
G01*
G37*
G04 #@! TD*
G04 #@! TO.C,R25*
G36*
G01*
X125610200Y-58116150D02*
X125610200Y-59028650D01*
G75*
G02*
X125366450Y-59272400I-243750J0D01*
G01*
X124878950Y-59272400D01*
G75*
G02*
X124635200Y-59028650I0J243750D01*
G01*
X124635200Y-58116150D01*
G75*
G02*
X124878950Y-57872400I243750J0D01*
G01*
X125366450Y-57872400D01*
G75*
G02*
X125610200Y-58116150I0J-243750D01*
G01*
G37*
G36*
G01*
X127485200Y-58116150D02*
X127485200Y-59028650D01*
G75*
G02*
X127241450Y-59272400I-243750J0D01*
G01*
X126753950Y-59272400D01*
G75*
G02*
X126510200Y-59028650I0J243750D01*
G01*
X126510200Y-58116150D01*
G75*
G02*
X126753950Y-57872400I243750J0D01*
G01*
X127241450Y-57872400D01*
G75*
G02*
X127485200Y-58116150I0J-243750D01*
G01*
G37*
G04 #@! TD*
D24*
G04 #@! TO.C,IC2*
X65223400Y-91643200D03*
X65223400Y-89103200D03*
X65223400Y-86563200D03*
X65223400Y-84023200D03*
X74273400Y-84023200D03*
X74273400Y-86563200D03*
X74273400Y-89103200D03*
X74273400Y-91643200D03*
G04 #@! TD*
G04 #@! TO.C,R14*
G36*
G01*
X84709950Y-79799600D02*
X85622450Y-79799600D01*
G75*
G02*
X85866200Y-80043350I0J-243750D01*
G01*
X85866200Y-80530850D01*
G75*
G02*
X85622450Y-80774600I-243750J0D01*
G01*
X84709950Y-80774600D01*
G75*
G02*
X84466200Y-80530850I0J243750D01*
G01*
X84466200Y-80043350D01*
G75*
G02*
X84709950Y-79799600I243750J0D01*
G01*
G37*
G36*
G01*
X84709950Y-77924600D02*
X85622450Y-77924600D01*
G75*
G02*
X85866200Y-78168350I0J-243750D01*
G01*
X85866200Y-78655850D01*
G75*
G02*
X85622450Y-78899600I-243750J0D01*
G01*
X84709950Y-78899600D01*
G75*
G02*
X84466200Y-78655850I0J243750D01*
G01*
X84466200Y-78168350D01*
G75*
G02*
X84709950Y-77924600I243750J0D01*
G01*
G37*
G04 #@! TD*
G04 #@! TO.C,R2*
G36*
G01*
X89622950Y-111202700D02*
X88710450Y-111202700D01*
G75*
G02*
X88466700Y-110958950I0J243750D01*
G01*
X88466700Y-110471450D01*
G75*
G02*
X88710450Y-110227700I243750J0D01*
G01*
X89622950Y-110227700D01*
G75*
G02*
X89866700Y-110471450I0J-243750D01*
G01*
X89866700Y-110958950D01*
G75*
G02*
X89622950Y-111202700I-243750J0D01*
G01*
G37*
G36*
G01*
X89622950Y-113077700D02*
X88710450Y-113077700D01*
G75*
G02*
X88466700Y-112833950I0J243750D01*
G01*
X88466700Y-112346450D01*
G75*
G02*
X88710450Y-112102700I243750J0D01*
G01*
X89622950Y-112102700D01*
G75*
G02*
X89866700Y-112346450I0J-243750D01*
G01*
X89866700Y-112833950D01*
G75*
G02*
X89622950Y-113077700I-243750J0D01*
G01*
G37*
G04 #@! TD*
G04 #@! TO.C,C37*
G36*
G01*
X73520000Y-80959800D02*
X73520000Y-82209800D01*
G75*
G02*
X73270000Y-82459800I-250000J0D01*
G01*
X72520000Y-82459800D01*
G75*
G02*
X72270000Y-82209800I0J250000D01*
G01*
X72270000Y-80959800D01*
G75*
G02*
X72520000Y-80709800I250000J0D01*
G01*
X73270000Y-80709800D01*
G75*
G02*
X73520000Y-80959800I0J-250000D01*
G01*
G37*
G36*
G01*
X76320000Y-80959800D02*
X76320000Y-82209800D01*
G75*
G02*
X76070000Y-82459800I-250000J0D01*
G01*
X75320000Y-82459800D01*
G75*
G02*
X75070000Y-82209800I0J250000D01*
G01*
X75070000Y-80959800D01*
G75*
G02*
X75320000Y-80709800I250000J0D01*
G01*
X76070000Y-80709800D01*
G75*
G02*
X76320000Y-80959800I0J-250000D01*
G01*
G37*
G04 #@! TD*
G04 #@! TO.C,C36*
G36*
G01*
X123154600Y-113906000D02*
X121904600Y-113906000D01*
G75*
G02*
X121654600Y-113656000I0J250000D01*
G01*
X121654600Y-112906000D01*
G75*
G02*
X121904600Y-112656000I250000J0D01*
G01*
X123154600Y-112656000D01*
G75*
G02*
X123404600Y-112906000I0J-250000D01*
G01*
X123404600Y-113656000D01*
G75*
G02*
X123154600Y-113906000I-250000J0D01*
G01*
G37*
G36*
G01*
X123154600Y-116706000D02*
X121904600Y-116706000D01*
G75*
G02*
X121654600Y-116456000I0J250000D01*
G01*
X121654600Y-115706000D01*
G75*
G02*
X121904600Y-115456000I250000J0D01*
G01*
X123154600Y-115456000D01*
G75*
G02*
X123404600Y-115706000I0J-250000D01*
G01*
X123404600Y-116456000D01*
G75*
G02*
X123154600Y-116706000I-250000J0D01*
G01*
G37*
G04 #@! TD*
G04 #@! TO.C,C33*
G36*
G01*
X65900000Y-93405800D02*
X65900000Y-94655800D01*
G75*
G02*
X65650000Y-94905800I-250000J0D01*
G01*
X64900000Y-94905800D01*
G75*
G02*
X64650000Y-94655800I0J250000D01*
G01*
X64650000Y-93405800D01*
G75*
G02*
X64900000Y-93155800I250000J0D01*
G01*
X65650000Y-93155800D01*
G75*
G02*
X65900000Y-93405800I0J-250000D01*
G01*
G37*
G36*
G01*
X68700000Y-93405800D02*
X68700000Y-94655800D01*
G75*
G02*
X68450000Y-94905800I-250000J0D01*
G01*
X67700000Y-94905800D01*
G75*
G02*
X67450000Y-94655800I0J250000D01*
G01*
X67450000Y-93405800D01*
G75*
G02*
X67700000Y-93155800I250000J0D01*
G01*
X68450000Y-93155800D01*
G75*
G02*
X68700000Y-93405800I0J-250000D01*
G01*
G37*
G04 #@! TD*
G04 #@! TO.C,C32*
G36*
G01*
X133464600Y-114226500D02*
X133464600Y-112976500D01*
G75*
G02*
X133714600Y-112726500I250000J0D01*
G01*
X134464600Y-112726500D01*
G75*
G02*
X134714600Y-112976500I0J-250000D01*
G01*
X134714600Y-114226500D01*
G75*
G02*
X134464600Y-114476500I-250000J0D01*
G01*
X133714600Y-114476500D01*
G75*
G02*
X133464600Y-114226500I0J250000D01*
G01*
G37*
G36*
G01*
X130664600Y-114226500D02*
X130664600Y-112976500D01*
G75*
G02*
X130914600Y-112726500I250000J0D01*
G01*
X131664600Y-112726500D01*
G75*
G02*
X131914600Y-112976500I0J-250000D01*
G01*
X131914600Y-114226500D01*
G75*
G02*
X131664600Y-114476500I-250000J0D01*
G01*
X130914600Y-114476500D01*
G75*
G02*
X130664600Y-114226500I0J250000D01*
G01*
G37*
G04 #@! TD*
G04 #@! TO.C,C29*
G36*
G01*
X111265000Y-121681400D02*
X111265000Y-120431400D01*
G75*
G02*
X111515000Y-120181400I250000J0D01*
G01*
X112265000Y-120181400D01*
G75*
G02*
X112515000Y-120431400I0J-250000D01*
G01*
X112515000Y-121681400D01*
G75*
G02*
X112265000Y-121931400I-250000J0D01*
G01*
X111515000Y-121931400D01*
G75*
G02*
X111265000Y-121681400I0J250000D01*
G01*
G37*
G36*
G01*
X108465000Y-121681400D02*
X108465000Y-120431400D01*
G75*
G02*
X108715000Y-120181400I250000J0D01*
G01*
X109465000Y-120181400D01*
G75*
G02*
X109715000Y-120431400I0J-250000D01*
G01*
X109715000Y-121681400D01*
G75*
G02*
X109465000Y-121931400I-250000J0D01*
G01*
X108715000Y-121931400D01*
G75*
G02*
X108465000Y-121681400I0J250000D01*
G01*
G37*
G04 #@! TD*
G04 #@! TO.C,C26*
G36*
G01*
X82156000Y-112125600D02*
X82156000Y-113375600D01*
G75*
G02*
X81906000Y-113625600I-250000J0D01*
G01*
X81156000Y-113625600D01*
G75*
G02*
X80906000Y-113375600I0J250000D01*
G01*
X80906000Y-112125600D01*
G75*
G02*
X81156000Y-111875600I250000J0D01*
G01*
X81906000Y-111875600D01*
G75*
G02*
X82156000Y-112125600I0J-250000D01*
G01*
G37*
G36*
G01*
X84956000Y-112125600D02*
X84956000Y-113375600D01*
G75*
G02*
X84706000Y-113625600I-250000J0D01*
G01*
X83956000Y-113625600D01*
G75*
G02*
X83706000Y-113375600I0J250000D01*
G01*
X83706000Y-112125600D01*
G75*
G02*
X83956000Y-111875600I250000J0D01*
G01*
X84706000Y-111875600D01*
G75*
G02*
X84956000Y-112125600I0J-250000D01*
G01*
G37*
G04 #@! TD*
G04 #@! TO.C,C24*
G36*
G01*
X107000200Y-110477000D02*
X105750200Y-110477000D01*
G75*
G02*
X105500200Y-110227000I0J250000D01*
G01*
X105500200Y-109477000D01*
G75*
G02*
X105750200Y-109227000I250000J0D01*
G01*
X107000200Y-109227000D01*
G75*
G02*
X107250200Y-109477000I0J-250000D01*
G01*
X107250200Y-110227000D01*
G75*
G02*
X107000200Y-110477000I-250000J0D01*
G01*
G37*
G36*
G01*
X107000200Y-113277000D02*
X105750200Y-113277000D01*
G75*
G02*
X105500200Y-113027000I0J250000D01*
G01*
X105500200Y-112277000D01*
G75*
G02*
X105750200Y-112027000I250000J0D01*
G01*
X107000200Y-112027000D01*
G75*
G02*
X107250200Y-112277000I0J-250000D01*
G01*
X107250200Y-113027000D01*
G75*
G02*
X107000200Y-113277000I-250000J0D01*
G01*
G37*
G04 #@! TD*
G04 #@! TO.C,C6*
G36*
G01*
X91043600Y-140729000D02*
X92293600Y-140729000D01*
G75*
G02*
X92543600Y-140979000I0J-250000D01*
G01*
X92543600Y-141729000D01*
G75*
G02*
X92293600Y-141979000I-250000J0D01*
G01*
X91043600Y-141979000D01*
G75*
G02*
X90793600Y-141729000I0J250000D01*
G01*
X90793600Y-140979000D01*
G75*
G02*
X91043600Y-140729000I250000J0D01*
G01*
G37*
G36*
G01*
X91043600Y-137929000D02*
X92293600Y-137929000D01*
G75*
G02*
X92543600Y-138179000I0J-250000D01*
G01*
X92543600Y-138929000D01*
G75*
G02*
X92293600Y-139179000I-250000J0D01*
G01*
X91043600Y-139179000D01*
G75*
G02*
X90793600Y-138929000I0J250000D01*
G01*
X90793600Y-138179000D01*
G75*
G02*
X91043600Y-137929000I250000J0D01*
G01*
G37*
G04 #@! TD*
G04 #@! TO.C,C1*
G36*
G01*
X81597200Y-134807800D02*
X81597200Y-136057800D01*
G75*
G02*
X81347200Y-136307800I-250000J0D01*
G01*
X80597200Y-136307800D01*
G75*
G02*
X80347200Y-136057800I0J250000D01*
G01*
X80347200Y-134807800D01*
G75*
G02*
X80597200Y-134557800I250000J0D01*
G01*
X81347200Y-134557800D01*
G75*
G02*
X81597200Y-134807800I0J-250000D01*
G01*
G37*
G36*
G01*
X84397200Y-134807800D02*
X84397200Y-136057800D01*
G75*
G02*
X84147200Y-136307800I-250000J0D01*
G01*
X83397200Y-136307800D01*
G75*
G02*
X83147200Y-136057800I0J250000D01*
G01*
X83147200Y-134807800D01*
G75*
G02*
X83397200Y-134557800I250000J0D01*
G01*
X84147200Y-134557800D01*
G75*
G02*
X84397200Y-134807800I0J-250000D01*
G01*
G37*
G04 #@! TD*
G04 #@! TO.C,R10*
G36*
G01*
X63868000Y-71485600D02*
X63868000Y-72735600D01*
G75*
G02*
X63618000Y-72985600I-250000J0D01*
G01*
X62868000Y-72985600D01*
G75*
G02*
X62618000Y-72735600I0J250000D01*
G01*
X62618000Y-71485600D01*
G75*
G02*
X62868000Y-71235600I250000J0D01*
G01*
X63618000Y-71235600D01*
G75*
G02*
X63868000Y-71485600I0J-250000D01*
G01*
G37*
G36*
G01*
X66668000Y-71485600D02*
X66668000Y-72735600D01*
G75*
G02*
X66418000Y-72985600I-250000J0D01*
G01*
X65668000Y-72985600D01*
G75*
G02*
X65418000Y-72735600I0J250000D01*
G01*
X65418000Y-71485600D01*
G75*
G02*
X65668000Y-71235600I250000J0D01*
G01*
X66418000Y-71235600D01*
G75*
G02*
X66668000Y-71485600I0J-250000D01*
G01*
G37*
G04 #@! TD*
G04 #@! TO.C,R11*
G36*
G01*
X68516200Y-71485600D02*
X68516200Y-72735600D01*
G75*
G02*
X68266200Y-72985600I-250000J0D01*
G01*
X67516200Y-72985600D01*
G75*
G02*
X67266200Y-72735600I0J250000D01*
G01*
X67266200Y-71485600D01*
G75*
G02*
X67516200Y-71235600I250000J0D01*
G01*
X68266200Y-71235600D01*
G75*
G02*
X68516200Y-71485600I0J-250000D01*
G01*
G37*
G36*
G01*
X71316200Y-71485600D02*
X71316200Y-72735600D01*
G75*
G02*
X71066200Y-72985600I-250000J0D01*
G01*
X70316200Y-72985600D01*
G75*
G02*
X70066200Y-72735600I0J250000D01*
G01*
X70066200Y-71485600D01*
G75*
G02*
X70316200Y-71235600I250000J0D01*
G01*
X71066200Y-71235600D01*
G75*
G02*
X71316200Y-71485600I0J-250000D01*
G01*
G37*
G04 #@! TD*
G04 #@! TO.C,C34*
G36*
G01*
X62456350Y-77718400D02*
X62968850Y-77718400D01*
G75*
G02*
X63187600Y-77937150I0J-218750D01*
G01*
X63187600Y-78374650D01*
G75*
G02*
X62968850Y-78593400I-218750J0D01*
G01*
X62456350Y-78593400D01*
G75*
G02*
X62237600Y-78374650I0J218750D01*
G01*
X62237600Y-77937150D01*
G75*
G02*
X62456350Y-77718400I218750J0D01*
G01*
G37*
G36*
G01*
X62456350Y-76143400D02*
X62968850Y-76143400D01*
G75*
G02*
X63187600Y-76362150I0J-218750D01*
G01*
X63187600Y-76799650D01*
G75*
G02*
X62968850Y-77018400I-218750J0D01*
G01*
X62456350Y-77018400D01*
G75*
G02*
X62237600Y-76799650I0J218750D01*
G01*
X62237600Y-76362150D01*
G75*
G02*
X62456350Y-76143400I218750J0D01*
G01*
G37*
G04 #@! TD*
G04 #@! TO.C,R24*
G36*
G01*
X105575600Y-65918300D02*
X105575600Y-66263300D01*
G75*
G02*
X105428100Y-66410800I-147500J0D01*
G01*
X105133100Y-66410800D01*
G75*
G02*
X104985600Y-66263300I0J147500D01*
G01*
X104985600Y-65918300D01*
G75*
G02*
X105133100Y-65770800I147500J0D01*
G01*
X105428100Y-65770800D01*
G75*
G02*
X105575600Y-65918300I0J-147500D01*
G01*
G37*
G36*
G01*
X106545600Y-65918300D02*
X106545600Y-66263300D01*
G75*
G02*
X106398100Y-66410800I-147500J0D01*
G01*
X106103100Y-66410800D01*
G75*
G02*
X105955600Y-66263300I0J147500D01*
G01*
X105955600Y-65918300D01*
G75*
G02*
X106103100Y-65770800I147500J0D01*
G01*
X106398100Y-65770800D01*
G75*
G02*
X106545600Y-65918300I0J-147500D01*
G01*
G37*
G04 #@! TD*
G04 #@! TO.C,R23*
G36*
G01*
X107544100Y-65918300D02*
X107544100Y-66263300D01*
G75*
G02*
X107396600Y-66410800I-147500J0D01*
G01*
X107101600Y-66410800D01*
G75*
G02*
X106954100Y-66263300I0J147500D01*
G01*
X106954100Y-65918300D01*
G75*
G02*
X107101600Y-65770800I147500J0D01*
G01*
X107396600Y-65770800D01*
G75*
G02*
X107544100Y-65918300I0J-147500D01*
G01*
G37*
G36*
G01*
X108514100Y-65918300D02*
X108514100Y-66263300D01*
G75*
G02*
X108366600Y-66410800I-147500J0D01*
G01*
X108071600Y-66410800D01*
G75*
G02*
X107924100Y-66263300I0J147500D01*
G01*
X107924100Y-65918300D01*
G75*
G02*
X108071600Y-65770800I147500J0D01*
G01*
X108366600Y-65770800D01*
G75*
G02*
X108514100Y-65918300I0J-147500D01*
G01*
G37*
G04 #@! TD*
G04 #@! TO.C,R20*
G36*
G01*
X83801800Y-58141550D02*
X83801800Y-59054050D01*
G75*
G02*
X83558050Y-59297800I-243750J0D01*
G01*
X83070550Y-59297800D01*
G75*
G02*
X82826800Y-59054050I0J243750D01*
G01*
X82826800Y-58141550D01*
G75*
G02*
X83070550Y-57897800I243750J0D01*
G01*
X83558050Y-57897800D01*
G75*
G02*
X83801800Y-58141550I0J-243750D01*
G01*
G37*
G36*
G01*
X85676800Y-58141550D02*
X85676800Y-59054050D01*
G75*
G02*
X85433050Y-59297800I-243750J0D01*
G01*
X84945550Y-59297800D01*
G75*
G02*
X84701800Y-59054050I0J243750D01*
G01*
X84701800Y-58141550D01*
G75*
G02*
X84945550Y-57897800I243750J0D01*
G01*
X85433050Y-57897800D01*
G75*
G02*
X85676800Y-58141550I0J-243750D01*
G01*
G37*
G04 #@! TD*
G04 #@! TO.C,R8*
G36*
G01*
X73853700Y-59943050D02*
X73853700Y-59030550D01*
G75*
G02*
X74097450Y-58786800I243750J0D01*
G01*
X74584950Y-58786800D01*
G75*
G02*
X74828700Y-59030550I0J-243750D01*
G01*
X74828700Y-59943050D01*
G75*
G02*
X74584950Y-60186800I-243750J0D01*
G01*
X74097450Y-60186800D01*
G75*
G02*
X73853700Y-59943050I0J243750D01*
G01*
G37*
G36*
G01*
X71978700Y-59943050D02*
X71978700Y-59030550D01*
G75*
G02*
X72222450Y-58786800I243750J0D01*
G01*
X72709950Y-58786800D01*
G75*
G02*
X72953700Y-59030550I0J-243750D01*
G01*
X72953700Y-59943050D01*
G75*
G02*
X72709950Y-60186800I-243750J0D01*
G01*
X72222450Y-60186800D01*
G75*
G02*
X71978700Y-59943050I0J243750D01*
G01*
G37*
G04 #@! TD*
D25*
G04 #@! TO.C,D7*
X101903800Y-74079100D03*
X98603800Y-74079100D03*
G04 #@! TD*
G04 #@! TO.C,R16*
G36*
G01*
X82746000Y-76732450D02*
X82746000Y-75819950D01*
G75*
G02*
X82989750Y-75576200I243750J0D01*
G01*
X83477250Y-75576200D01*
G75*
G02*
X83721000Y-75819950I0J-243750D01*
G01*
X83721000Y-76732450D01*
G75*
G02*
X83477250Y-76976200I-243750J0D01*
G01*
X82989750Y-76976200D01*
G75*
G02*
X82746000Y-76732450I0J243750D01*
G01*
G37*
G36*
G01*
X80871000Y-76732450D02*
X80871000Y-75819950D01*
G75*
G02*
X81114750Y-75576200I243750J0D01*
G01*
X81602250Y-75576200D01*
G75*
G02*
X81846000Y-75819950I0J-243750D01*
G01*
X81846000Y-76732450D01*
G75*
G02*
X81602250Y-76976200I-243750J0D01*
G01*
X81114750Y-76976200D01*
G75*
G02*
X80871000Y-76732450I0J243750D01*
G01*
G37*
G04 #@! TD*
G04 #@! TO.C,R15*
G36*
G01*
X76986450Y-61462500D02*
X76073950Y-61462500D01*
G75*
G02*
X75830200Y-61218750I0J243750D01*
G01*
X75830200Y-60731250D01*
G75*
G02*
X76073950Y-60487500I243750J0D01*
G01*
X76986450Y-60487500D01*
G75*
G02*
X77230200Y-60731250I0J-243750D01*
G01*
X77230200Y-61218750D01*
G75*
G02*
X76986450Y-61462500I-243750J0D01*
G01*
G37*
G36*
G01*
X76986450Y-63337500D02*
X76073950Y-63337500D01*
G75*
G02*
X75830200Y-63093750I0J243750D01*
G01*
X75830200Y-62606250D01*
G75*
G02*
X76073950Y-62362500I243750J0D01*
G01*
X76986450Y-62362500D01*
G75*
G02*
X77230200Y-62606250I0J-243750D01*
G01*
X77230200Y-63093750D01*
G75*
G02*
X76986450Y-63337500I-243750J0D01*
G01*
G37*
G04 #@! TD*
G04 #@! TO.C,D1*
X88187800Y-76476200D03*
X84887800Y-76476200D03*
G04 #@! TD*
G04 #@! TO.C,D2*
X115315000Y-58699400D03*
X112015000Y-58699400D03*
G04 #@! TD*
G04 #@! TO.C,C46*
G36*
G01*
X97583200Y-88631000D02*
X96333200Y-88631000D01*
G75*
G02*
X96083200Y-88381000I0J250000D01*
G01*
X96083200Y-87631000D01*
G75*
G02*
X96333200Y-87381000I250000J0D01*
G01*
X97583200Y-87381000D01*
G75*
G02*
X97833200Y-87631000I0J-250000D01*
G01*
X97833200Y-88381000D01*
G75*
G02*
X97583200Y-88631000I-250000J0D01*
G01*
G37*
G36*
G01*
X97583200Y-91431000D02*
X96333200Y-91431000D01*
G75*
G02*
X96083200Y-91181000I0J250000D01*
G01*
X96083200Y-90431000D01*
G75*
G02*
X96333200Y-90181000I250000J0D01*
G01*
X97583200Y-90181000D01*
G75*
G02*
X97833200Y-90431000I0J-250000D01*
G01*
X97833200Y-91181000D01*
G75*
G02*
X97583200Y-91431000I-250000J0D01*
G01*
G37*
G04 #@! TD*
G04 #@! TO.C,C47*
G36*
G01*
X86045200Y-88607600D02*
X84795200Y-88607600D01*
G75*
G02*
X84545200Y-88357600I0J250000D01*
G01*
X84545200Y-87607600D01*
G75*
G02*
X84795200Y-87357600I250000J0D01*
G01*
X86045200Y-87357600D01*
G75*
G02*
X86295200Y-87607600I0J-250000D01*
G01*
X86295200Y-88357600D01*
G75*
G02*
X86045200Y-88607600I-250000J0D01*
G01*
G37*
G36*
G01*
X86045200Y-91407600D02*
X84795200Y-91407600D01*
G75*
G02*
X84545200Y-91157600I0J250000D01*
G01*
X84545200Y-90407600D01*
G75*
G02*
X84795200Y-90157600I250000J0D01*
G01*
X86045200Y-90157600D01*
G75*
G02*
X86295200Y-90407600I0J-250000D01*
G01*
X86295200Y-91157600D01*
G75*
G02*
X86045200Y-91407600I-250000J0D01*
G01*
G37*
G04 #@! TD*
G04 #@! TO.C,C45*
G36*
G01*
X95214600Y-88631000D02*
X93964600Y-88631000D01*
G75*
G02*
X93714600Y-88381000I0J250000D01*
G01*
X93714600Y-87631000D01*
G75*
G02*
X93964600Y-87381000I250000J0D01*
G01*
X95214600Y-87381000D01*
G75*
G02*
X95464600Y-87631000I0J-250000D01*
G01*
X95464600Y-88381000D01*
G75*
G02*
X95214600Y-88631000I-250000J0D01*
G01*
G37*
G36*
G01*
X95214600Y-91431000D02*
X93964600Y-91431000D01*
G75*
G02*
X93714600Y-91181000I0J250000D01*
G01*
X93714600Y-90431000D01*
G75*
G02*
X93964600Y-90181000I250000J0D01*
G01*
X95214600Y-90181000D01*
G75*
G02*
X95464600Y-90431000I0J-250000D01*
G01*
X95464600Y-91181000D01*
G75*
G02*
X95214600Y-91431000I-250000J0D01*
G01*
G37*
G04 #@! TD*
G04 #@! TO.C,C40*
G36*
G01*
X129139100Y-103135750D02*
X129139100Y-102223250D01*
G75*
G02*
X129382850Y-101979500I243750J0D01*
G01*
X129870350Y-101979500D01*
G75*
G02*
X130114100Y-102223250I0J-243750D01*
G01*
X130114100Y-103135750D01*
G75*
G02*
X129870350Y-103379500I-243750J0D01*
G01*
X129382850Y-103379500D01*
G75*
G02*
X129139100Y-103135750I0J243750D01*
G01*
G37*
G36*
G01*
X127264100Y-103135750D02*
X127264100Y-102223250D01*
G75*
G02*
X127507850Y-101979500I243750J0D01*
G01*
X127995350Y-101979500D01*
G75*
G02*
X128239100Y-102223250I0J-243750D01*
G01*
X128239100Y-103135750D01*
G75*
G02*
X127995350Y-103379500I-243750J0D01*
G01*
X127507850Y-103379500D01*
G75*
G02*
X127264100Y-103135750I0J243750D01*
G01*
G37*
G04 #@! TD*
G04 #@! TO.C,C42*
G36*
G01*
X131978100Y-101864000D02*
X131978100Y-103114000D01*
G75*
G02*
X131728100Y-103364000I-250000J0D01*
G01*
X130978100Y-103364000D01*
G75*
G02*
X130728100Y-103114000I0J250000D01*
G01*
X130728100Y-101864000D01*
G75*
G02*
X130978100Y-101614000I250000J0D01*
G01*
X131728100Y-101614000D01*
G75*
G02*
X131978100Y-101864000I0J-250000D01*
G01*
G37*
G36*
G01*
X134778100Y-101864000D02*
X134778100Y-103114000D01*
G75*
G02*
X134528100Y-103364000I-250000J0D01*
G01*
X133778100Y-103364000D01*
G75*
G02*
X133528100Y-103114000I0J250000D01*
G01*
X133528100Y-101864000D01*
G75*
G02*
X133778100Y-101614000I250000J0D01*
G01*
X134528100Y-101614000D01*
G75*
G02*
X134778100Y-101864000I0J-250000D01*
G01*
G37*
G04 #@! TD*
D26*
G04 #@! TO.C,Y2*
X100056000Y-104648000D03*
X97556000Y-104648000D03*
G04 #@! TD*
D27*
G04 #@! TO.C,U1*
X77279500Y-122637000D03*
X78549500Y-122637000D03*
X79819500Y-122637000D03*
X81089500Y-122637000D03*
X81089500Y-128061000D03*
X79819500Y-128061000D03*
X78549500Y-128061000D03*
X77279500Y-128061000D03*
G04 #@! TD*
G04 #@! TO.C,C23*
G36*
G01*
X104447500Y-109892800D02*
X103197500Y-109892800D01*
G75*
G02*
X102947500Y-109642800I0J250000D01*
G01*
X102947500Y-108892800D01*
G75*
G02*
X103197500Y-108642800I250000J0D01*
G01*
X104447500Y-108642800D01*
G75*
G02*
X104697500Y-108892800I0J-250000D01*
G01*
X104697500Y-109642800D01*
G75*
G02*
X104447500Y-109892800I-250000J0D01*
G01*
G37*
G36*
G01*
X104447500Y-112692800D02*
X103197500Y-112692800D01*
G75*
G02*
X102947500Y-112442800I0J250000D01*
G01*
X102947500Y-111692800D01*
G75*
G02*
X103197500Y-111442800I250000J0D01*
G01*
X104447500Y-111442800D01*
G75*
G02*
X104697500Y-111692800I0J-250000D01*
G01*
X104697500Y-112442800D01*
G75*
G02*
X104447500Y-112692800I-250000J0D01*
G01*
G37*
G04 #@! TD*
D28*
G04 #@! TO.C,L7*
X119519700Y-107054100D03*
X119519700Y-110954100D03*
G04 #@! TD*
G04 #@! TO.C,L8*
X78511400Y-97073000D03*
X78511400Y-93173000D03*
G04 #@! TD*
G04 #@! TO.C,C43*
G36*
G01*
X65494200Y-97373600D02*
X65494200Y-96123600D01*
G75*
G02*
X65744200Y-95873600I250000J0D01*
G01*
X66494200Y-95873600D01*
G75*
G02*
X66744200Y-96123600I0J-250000D01*
G01*
X66744200Y-97373600D01*
G75*
G02*
X66494200Y-97623600I-250000J0D01*
G01*
X65744200Y-97623600D01*
G75*
G02*
X65494200Y-97373600I0J250000D01*
G01*
G37*
G36*
G01*
X62694200Y-97373600D02*
X62694200Y-96123600D01*
G75*
G02*
X62944200Y-95873600I250000J0D01*
G01*
X63694200Y-95873600D01*
G75*
G02*
X63944200Y-96123600I0J-250000D01*
G01*
X63944200Y-97373600D01*
G75*
G02*
X63694200Y-97623600I-250000J0D01*
G01*
X62944200Y-97623600D01*
G75*
G02*
X62694200Y-97373600I0J250000D01*
G01*
G37*
G04 #@! TD*
G04 #@! TO.C,C17*
G36*
G01*
X112344500Y-131689000D02*
X112344500Y-130439000D01*
G75*
G02*
X112594500Y-130189000I250000J0D01*
G01*
X113344500Y-130189000D01*
G75*
G02*
X113594500Y-130439000I0J-250000D01*
G01*
X113594500Y-131689000D01*
G75*
G02*
X113344500Y-131939000I-250000J0D01*
G01*
X112594500Y-131939000D01*
G75*
G02*
X112344500Y-131689000I0J250000D01*
G01*
G37*
G36*
G01*
X109544500Y-131689000D02*
X109544500Y-130439000D01*
G75*
G02*
X109794500Y-130189000I250000J0D01*
G01*
X110544500Y-130189000D01*
G75*
G02*
X110794500Y-130439000I0J-250000D01*
G01*
X110794500Y-131689000D01*
G75*
G02*
X110544500Y-131939000I-250000J0D01*
G01*
X109794500Y-131939000D01*
G75*
G02*
X109544500Y-131689000I0J250000D01*
G01*
G37*
G04 #@! TD*
D24*
G04 #@! TO.C,IC1*
X133404600Y-92354400D03*
X133404600Y-94894400D03*
X133404600Y-97434400D03*
X133404600Y-99974400D03*
X124354600Y-99974400D03*
X124354600Y-97434400D03*
X124354600Y-94894400D03*
X124354600Y-92354400D03*
G04 #@! TD*
G04 #@! TO.C,C18*
G36*
G01*
X76707700Y-114030600D02*
X76707700Y-115280600D01*
G75*
G02*
X76457700Y-115530600I-250000J0D01*
G01*
X75707700Y-115530600D01*
G75*
G02*
X75457700Y-115280600I0J250000D01*
G01*
X75457700Y-114030600D01*
G75*
G02*
X75707700Y-113780600I250000J0D01*
G01*
X76457700Y-113780600D01*
G75*
G02*
X76707700Y-114030600I0J-250000D01*
G01*
G37*
G36*
G01*
X79507700Y-114030600D02*
X79507700Y-115280600D01*
G75*
G02*
X79257700Y-115530600I-250000J0D01*
G01*
X78507700Y-115530600D01*
G75*
G02*
X78257700Y-115280600I0J250000D01*
G01*
X78257700Y-114030600D01*
G75*
G02*
X78507700Y-113780600I250000J0D01*
G01*
X79257700Y-113780600D01*
G75*
G02*
X79507700Y-114030600I0J-250000D01*
G01*
G37*
G04 #@! TD*
G04 #@! TO.C,C13*
G36*
G01*
X102329500Y-102702650D02*
X102329500Y-103215150D01*
G75*
G02*
X102110750Y-103433900I-218750J0D01*
G01*
X101673250Y-103433900D01*
G75*
G02*
X101454500Y-103215150I0J218750D01*
G01*
X101454500Y-102702650D01*
G75*
G02*
X101673250Y-102483900I218750J0D01*
G01*
X102110750Y-102483900D01*
G75*
G02*
X102329500Y-102702650I0J-218750D01*
G01*
G37*
G36*
G01*
X103904500Y-102702650D02*
X103904500Y-103215150D01*
G75*
G02*
X103685750Y-103433900I-218750J0D01*
G01*
X103248250Y-103433900D01*
G75*
G02*
X103029500Y-103215150I0J218750D01*
G01*
X103029500Y-102702650D01*
G75*
G02*
X103248250Y-102483900I218750J0D01*
G01*
X103685750Y-102483900D01*
G75*
G02*
X103904500Y-102702650I0J-218750D01*
G01*
G37*
G04 #@! TD*
G04 #@! TO.C,C11*
G36*
G01*
X76707700Y-111617600D02*
X76707700Y-112867600D01*
G75*
G02*
X76457700Y-113117600I-250000J0D01*
G01*
X75707700Y-113117600D01*
G75*
G02*
X75457700Y-112867600I0J250000D01*
G01*
X75457700Y-111617600D01*
G75*
G02*
X75707700Y-111367600I250000J0D01*
G01*
X76457700Y-111367600D01*
G75*
G02*
X76707700Y-111617600I0J-250000D01*
G01*
G37*
G36*
G01*
X79507700Y-111617600D02*
X79507700Y-112867600D01*
G75*
G02*
X79257700Y-113117600I-250000J0D01*
G01*
X78507700Y-113117600D01*
G75*
G02*
X78257700Y-112867600I0J250000D01*
G01*
X78257700Y-111617600D01*
G75*
G02*
X78507700Y-111367600I250000J0D01*
G01*
X79257700Y-111367600D01*
G75*
G02*
X79507700Y-111617600I0J-250000D01*
G01*
G37*
G04 #@! TD*
G04 #@! TO.C,C5*
G36*
G01*
X99029000Y-106936250D02*
X99029000Y-106423750D01*
G75*
G02*
X99247750Y-106205000I218750J0D01*
G01*
X99685250Y-106205000D01*
G75*
G02*
X99904000Y-106423750I0J-218750D01*
G01*
X99904000Y-106936250D01*
G75*
G02*
X99685250Y-107155000I-218750J0D01*
G01*
X99247750Y-107155000D01*
G75*
G02*
X99029000Y-106936250I0J218750D01*
G01*
G37*
G36*
G01*
X97454000Y-106936250D02*
X97454000Y-106423750D01*
G75*
G02*
X97672750Y-106205000I218750J0D01*
G01*
X98110250Y-106205000D01*
G75*
G02*
X98329000Y-106423750I0J-218750D01*
G01*
X98329000Y-106936250D01*
G75*
G02*
X98110250Y-107155000I-218750J0D01*
G01*
X97672750Y-107155000D01*
G75*
G02*
X97454000Y-106936250I0J218750D01*
G01*
G37*
G04 #@! TD*
G04 #@! TO.C,C4*
G36*
G01*
X98329000Y-102359750D02*
X98329000Y-102872250D01*
G75*
G02*
X98110250Y-103091000I-218750J0D01*
G01*
X97672750Y-103091000D01*
G75*
G02*
X97454000Y-102872250I0J218750D01*
G01*
X97454000Y-102359750D01*
G75*
G02*
X97672750Y-102141000I218750J0D01*
G01*
X98110250Y-102141000D01*
G75*
G02*
X98329000Y-102359750I0J-218750D01*
G01*
G37*
G36*
G01*
X99904000Y-102359750D02*
X99904000Y-102872250D01*
G75*
G02*
X99685250Y-103091000I-218750J0D01*
G01*
X99247750Y-103091000D01*
G75*
G02*
X99029000Y-102872250I0J218750D01*
G01*
X99029000Y-102359750D01*
G75*
G02*
X99247750Y-102141000I218750J0D01*
G01*
X99685250Y-102141000D01*
G75*
G02*
X99904000Y-102359750I0J-218750D01*
G01*
G37*
G04 #@! TD*
G04 #@! TO.C,C3*
G36*
G01*
X115026150Y-115093000D02*
X114513650Y-115093000D01*
G75*
G02*
X114294900Y-114874250I0J218750D01*
G01*
X114294900Y-114436750D01*
G75*
G02*
X114513650Y-114218000I218750J0D01*
G01*
X115026150Y-114218000D01*
G75*
G02*
X115244900Y-114436750I0J-218750D01*
G01*
X115244900Y-114874250D01*
G75*
G02*
X115026150Y-115093000I-218750J0D01*
G01*
G37*
G36*
G01*
X115026150Y-116668000D02*
X114513650Y-116668000D01*
G75*
G02*
X114294900Y-116449250I0J218750D01*
G01*
X114294900Y-116011750D01*
G75*
G02*
X114513650Y-115793000I218750J0D01*
G01*
X115026150Y-115793000D01*
G75*
G02*
X115244900Y-116011750I0J-218750D01*
G01*
X115244900Y-116449250D01*
G75*
G02*
X115026150Y-116668000I-218750J0D01*
G01*
G37*
G04 #@! TD*
G04 #@! TO.C,C2*
G36*
G01*
X109433650Y-115158000D02*
X109946150Y-115158000D01*
G75*
G02*
X110164900Y-115376750I0J-218750D01*
G01*
X110164900Y-115814250D01*
G75*
G02*
X109946150Y-116033000I-218750J0D01*
G01*
X109433650Y-116033000D01*
G75*
G02*
X109214900Y-115814250I0J218750D01*
G01*
X109214900Y-115376750D01*
G75*
G02*
X109433650Y-115158000I218750J0D01*
G01*
G37*
G36*
G01*
X109433650Y-113583000D02*
X109946150Y-113583000D01*
G75*
G02*
X110164900Y-113801750I0J-218750D01*
G01*
X110164900Y-114239250D01*
G75*
G02*
X109946150Y-114458000I-218750J0D01*
G01*
X109433650Y-114458000D01*
G75*
G02*
X109214900Y-114239250I0J218750D01*
G01*
X109214900Y-113801750D01*
G75*
G02*
X109433650Y-113583000I218750J0D01*
G01*
G37*
G04 #@! TD*
D29*
G04 #@! TO.C,Y1*
X113079900Y-114038200D03*
X113079900Y-116238200D03*
X111379900Y-116238200D03*
X111379900Y-114038200D03*
G04 #@! TD*
G04 #@! TO.C,R5*
G36*
G01*
X82538250Y-121735000D02*
X83450750Y-121735000D01*
G75*
G02*
X83694500Y-121978750I0J-243750D01*
G01*
X83694500Y-122466250D01*
G75*
G02*
X83450750Y-122710000I-243750J0D01*
G01*
X82538250Y-122710000D01*
G75*
G02*
X82294500Y-122466250I0J243750D01*
G01*
X82294500Y-121978750D01*
G75*
G02*
X82538250Y-121735000I243750J0D01*
G01*
G37*
G36*
G01*
X82538250Y-119860000D02*
X83450750Y-119860000D01*
G75*
G02*
X83694500Y-120103750I0J-243750D01*
G01*
X83694500Y-120591250D01*
G75*
G02*
X83450750Y-120835000I-243750J0D01*
G01*
X82538250Y-120835000D01*
G75*
G02*
X82294500Y-120591250I0J243750D01*
G01*
X82294500Y-120103750D01*
G75*
G02*
X82538250Y-119860000I243750J0D01*
G01*
G37*
G04 #@! TD*
G04 #@! TO.C,R4*
G36*
G01*
X83450750Y-125661000D02*
X82538250Y-125661000D01*
G75*
G02*
X82294500Y-125417250I0J243750D01*
G01*
X82294500Y-124929750D01*
G75*
G02*
X82538250Y-124686000I243750J0D01*
G01*
X83450750Y-124686000D01*
G75*
G02*
X83694500Y-124929750I0J-243750D01*
G01*
X83694500Y-125417250D01*
G75*
G02*
X83450750Y-125661000I-243750J0D01*
G01*
G37*
G36*
G01*
X83450750Y-127536000D02*
X82538250Y-127536000D01*
G75*
G02*
X82294500Y-127292250I0J243750D01*
G01*
X82294500Y-126804750D01*
G75*
G02*
X82538250Y-126561000I243750J0D01*
G01*
X83450750Y-126561000D01*
G75*
G02*
X83694500Y-126804750I0J-243750D01*
G01*
X83694500Y-127292250D01*
G75*
G02*
X83450750Y-127536000I-243750J0D01*
G01*
G37*
G04 #@! TD*
G04 #@! TO.C,R7*
G36*
G01*
X107860800Y-105610500D02*
X107860800Y-106860500D01*
G75*
G02*
X107610800Y-107110500I-250000J0D01*
G01*
X106860800Y-107110500D01*
G75*
G02*
X106610800Y-106860500I0J250000D01*
G01*
X106610800Y-105610500D01*
G75*
G02*
X106860800Y-105360500I250000J0D01*
G01*
X107610800Y-105360500D01*
G75*
G02*
X107860800Y-105610500I0J-250000D01*
G01*
G37*
G36*
G01*
X110660800Y-105610500D02*
X110660800Y-106860500D01*
G75*
G02*
X110410800Y-107110500I-250000J0D01*
G01*
X109660800Y-107110500D01*
G75*
G02*
X109410800Y-106860500I0J250000D01*
G01*
X109410800Y-105610500D01*
G75*
G02*
X109660800Y-105360500I250000J0D01*
G01*
X110410800Y-105360500D01*
G75*
G02*
X110660800Y-105610500I0J-250000D01*
G01*
G37*
G04 #@! TD*
G04 #@! TO.C,R6*
G36*
G01*
X106590800Y-103235600D02*
X106590800Y-104485600D01*
G75*
G02*
X106340800Y-104735600I-250000J0D01*
G01*
X105590800Y-104735600D01*
G75*
G02*
X105340800Y-104485600I0J250000D01*
G01*
X105340800Y-103235600D01*
G75*
G02*
X105590800Y-102985600I250000J0D01*
G01*
X106340800Y-102985600D01*
G75*
G02*
X106590800Y-103235600I0J-250000D01*
G01*
G37*
G36*
G01*
X109390800Y-103235600D02*
X109390800Y-104485600D01*
G75*
G02*
X109140800Y-104735600I-250000J0D01*
G01*
X108390800Y-104735600D01*
G75*
G02*
X108140800Y-104485600I0J250000D01*
G01*
X108140800Y-103235600D01*
G75*
G02*
X108390800Y-102985600I250000J0D01*
G01*
X109140800Y-102985600D01*
G75*
G02*
X109390800Y-103235600I0J-250000D01*
G01*
G37*
G04 #@! TD*
G04 #@! TO.C,R3*
G36*
G01*
X94011000Y-102766150D02*
X94011000Y-103278650D01*
G75*
G02*
X93792250Y-103497400I-218750J0D01*
G01*
X93354750Y-103497400D01*
G75*
G02*
X93136000Y-103278650I0J218750D01*
G01*
X93136000Y-102766150D01*
G75*
G02*
X93354750Y-102547400I218750J0D01*
G01*
X93792250Y-102547400D01*
G75*
G02*
X94011000Y-102766150I0J-218750D01*
G01*
G37*
G36*
G01*
X95586000Y-102766150D02*
X95586000Y-103278650D01*
G75*
G02*
X95367250Y-103497400I-218750J0D01*
G01*
X94929750Y-103497400D01*
G75*
G02*
X94711000Y-103278650I0J218750D01*
G01*
X94711000Y-102766150D01*
G75*
G02*
X94929750Y-102547400I218750J0D01*
G01*
X95367250Y-102547400D01*
G75*
G02*
X95586000Y-102766150I0J-218750D01*
G01*
G37*
G04 #@! TD*
G04 #@! TO.C,R1*
G36*
G01*
X103002500Y-105193150D02*
X103002500Y-104280650D01*
G75*
G02*
X103246250Y-104036900I243750J0D01*
G01*
X103733750Y-104036900D01*
G75*
G02*
X103977500Y-104280650I0J-243750D01*
G01*
X103977500Y-105193150D01*
G75*
G02*
X103733750Y-105436900I-243750J0D01*
G01*
X103246250Y-105436900D01*
G75*
G02*
X103002500Y-105193150I0J243750D01*
G01*
G37*
G36*
G01*
X101127500Y-105193150D02*
X101127500Y-104280650D01*
G75*
G02*
X101371250Y-104036900I243750J0D01*
G01*
X101858750Y-104036900D01*
G75*
G02*
X102102500Y-104280650I0J-243750D01*
G01*
X102102500Y-105193150D01*
G75*
G02*
X101858750Y-105436900I-243750J0D01*
G01*
X101371250Y-105436900D01*
G75*
G02*
X101127500Y-105193150I0J243750D01*
G01*
G37*
G04 #@! TD*
G04 #@! TO.C,LED1*
G36*
G01*
X87644950Y-111102700D02*
X87132450Y-111102700D01*
G75*
G02*
X86913700Y-110883950I0J218750D01*
G01*
X86913700Y-110446450D01*
G75*
G02*
X87132450Y-110227700I218750J0D01*
G01*
X87644950Y-110227700D01*
G75*
G02*
X87863700Y-110446450I0J-218750D01*
G01*
X87863700Y-110883950D01*
G75*
G02*
X87644950Y-111102700I-218750J0D01*
G01*
G37*
G36*
G01*
X87644950Y-112677700D02*
X87132450Y-112677700D01*
G75*
G02*
X86913700Y-112458950I0J218750D01*
G01*
X86913700Y-112021450D01*
G75*
G02*
X87132450Y-111802700I218750J0D01*
G01*
X87644950Y-111802700D01*
G75*
G02*
X87863700Y-112021450I0J-218750D01*
G01*
X87863700Y-112458950D01*
G75*
G02*
X87644950Y-112677700I-218750J0D01*
G01*
G37*
G04 #@! TD*
G04 #@! TO.C,L3*
G36*
G01*
X106228400Y-107896950D02*
X106228400Y-108409450D01*
G75*
G02*
X106009650Y-108628200I-218750J0D01*
G01*
X105572150Y-108628200D01*
G75*
G02*
X105353400Y-108409450I0J218750D01*
G01*
X105353400Y-107896950D01*
G75*
G02*
X105572150Y-107678200I218750J0D01*
G01*
X106009650Y-107678200D01*
G75*
G02*
X106228400Y-107896950I0J-218750D01*
G01*
G37*
G36*
G01*
X107803400Y-107896950D02*
X107803400Y-108409450D01*
G75*
G02*
X107584650Y-108628200I-218750J0D01*
G01*
X107147150Y-108628200D01*
G75*
G02*
X106928400Y-108409450I0J218750D01*
G01*
X106928400Y-107896950D01*
G75*
G02*
X107147150Y-107678200I218750J0D01*
G01*
X107584650Y-107678200D01*
G75*
G02*
X107803400Y-107896950I0J-218750D01*
G01*
G37*
G04 #@! TD*
G04 #@! TO.C,L2*
G36*
G01*
X83471500Y-117286750D02*
X83471500Y-116774250D01*
G75*
G02*
X83690250Y-116555500I218750J0D01*
G01*
X84127750Y-116555500D01*
G75*
G02*
X84346500Y-116774250I0J-218750D01*
G01*
X84346500Y-117286750D01*
G75*
G02*
X84127750Y-117505500I-218750J0D01*
G01*
X83690250Y-117505500D01*
G75*
G02*
X83471500Y-117286750I0J218750D01*
G01*
G37*
G36*
G01*
X81896500Y-117286750D02*
X81896500Y-116774250D01*
G75*
G02*
X82115250Y-116555500I218750J0D01*
G01*
X82552750Y-116555500D01*
G75*
G02*
X82771500Y-116774250I0J-218750D01*
G01*
X82771500Y-117286750D01*
G75*
G02*
X82552750Y-117505500I-218750J0D01*
G01*
X82115250Y-117505500D01*
G75*
G02*
X81896500Y-117286750I0J218750D01*
G01*
G37*
G04 #@! TD*
G04 #@! TO.C,L4*
G36*
G01*
X110444800Y-122755950D02*
X110444800Y-123268450D01*
G75*
G02*
X110226050Y-123487200I-218750J0D01*
G01*
X109788550Y-123487200D01*
G75*
G02*
X109569800Y-123268450I0J218750D01*
G01*
X109569800Y-122755950D01*
G75*
G02*
X109788550Y-122537200I218750J0D01*
G01*
X110226050Y-122537200D01*
G75*
G02*
X110444800Y-122755950I0J-218750D01*
G01*
G37*
G36*
G01*
X112019800Y-122755950D02*
X112019800Y-123268450D01*
G75*
G02*
X111801050Y-123487200I-218750J0D01*
G01*
X111363550Y-123487200D01*
G75*
G02*
X111144800Y-123268450I0J218750D01*
G01*
X111144800Y-122755950D01*
G75*
G02*
X111363550Y-122537200I218750J0D01*
G01*
X111801050Y-122537200D01*
G75*
G02*
X112019800Y-122755950I0J-218750D01*
G01*
G37*
G04 #@! TD*
G04 #@! TO.C,L1*
G36*
G01*
X78594700Y-116816850D02*
X78594700Y-116304350D01*
G75*
G02*
X78813450Y-116085600I218750J0D01*
G01*
X79250950Y-116085600D01*
G75*
G02*
X79469700Y-116304350I0J-218750D01*
G01*
X79469700Y-116816850D01*
G75*
G02*
X79250950Y-117035600I-218750J0D01*
G01*
X78813450Y-117035600D01*
G75*
G02*
X78594700Y-116816850I0J218750D01*
G01*
G37*
G36*
G01*
X77019700Y-116816850D02*
X77019700Y-116304350D01*
G75*
G02*
X77238450Y-116085600I218750J0D01*
G01*
X77675950Y-116085600D01*
G75*
G02*
X77894700Y-116304350I0J-218750D01*
G01*
X77894700Y-116816850D01*
G75*
G02*
X77675950Y-117035600I-218750J0D01*
G01*
X77238450Y-117035600D01*
G75*
G02*
X77019700Y-116816850I0J218750D01*
G01*
G37*
G04 #@! TD*
G04 #@! TO.C,C25*
G36*
G01*
X81584500Y-114437000D02*
X81584500Y-115687000D01*
G75*
G02*
X81334500Y-115937000I-250000J0D01*
G01*
X80584500Y-115937000D01*
G75*
G02*
X80334500Y-115687000I0J250000D01*
G01*
X80334500Y-114437000D01*
G75*
G02*
X80584500Y-114187000I250000J0D01*
G01*
X81334500Y-114187000D01*
G75*
G02*
X81584500Y-114437000I0J-250000D01*
G01*
G37*
G36*
G01*
X84384500Y-114437000D02*
X84384500Y-115687000D01*
G75*
G02*
X84134500Y-115937000I-250000J0D01*
G01*
X83384500Y-115937000D01*
G75*
G02*
X83134500Y-115687000I0J250000D01*
G01*
X83134500Y-114437000D01*
G75*
G02*
X83384500Y-114187000I250000J0D01*
G01*
X84134500Y-114187000D01*
G75*
G02*
X84384500Y-114437000I0J-250000D01*
G01*
G37*
G04 #@! TD*
G04 #@! TO.C,C21*
G36*
G01*
X95176500Y-110794500D02*
X93926500Y-110794500D01*
G75*
G02*
X93676500Y-110544500I0J250000D01*
G01*
X93676500Y-109794500D01*
G75*
G02*
X93926500Y-109544500I250000J0D01*
G01*
X95176500Y-109544500D01*
G75*
G02*
X95426500Y-109794500I0J-250000D01*
G01*
X95426500Y-110544500D01*
G75*
G02*
X95176500Y-110794500I-250000J0D01*
G01*
G37*
G36*
G01*
X95176500Y-113594500D02*
X93926500Y-113594500D01*
G75*
G02*
X93676500Y-113344500I0J250000D01*
G01*
X93676500Y-112594500D01*
G75*
G02*
X93926500Y-112344500I250000J0D01*
G01*
X95176500Y-112344500D01*
G75*
G02*
X95426500Y-112594500I0J-250000D01*
G01*
X95426500Y-113344500D01*
G75*
G02*
X95176500Y-113594500I-250000J0D01*
G01*
G37*
G04 #@! TD*
G04 #@! TO.C,C22*
G36*
G01*
X81584500Y-129931000D02*
X81584500Y-131181000D01*
G75*
G02*
X81334500Y-131431000I-250000J0D01*
G01*
X80584500Y-131431000D01*
G75*
G02*
X80334500Y-131181000I0J250000D01*
G01*
X80334500Y-129931000D01*
G75*
G02*
X80584500Y-129681000I250000J0D01*
G01*
X81334500Y-129681000D01*
G75*
G02*
X81584500Y-129931000I0J-250000D01*
G01*
G37*
G36*
G01*
X84384500Y-129931000D02*
X84384500Y-131181000D01*
G75*
G02*
X84134500Y-131431000I-250000J0D01*
G01*
X83384500Y-131431000D01*
G75*
G02*
X83134500Y-131181000I0J250000D01*
G01*
X83134500Y-129931000D01*
G75*
G02*
X83384500Y-129681000I250000J0D01*
G01*
X84134500Y-129681000D01*
G75*
G02*
X84384500Y-129931000I0J-250000D01*
G01*
G37*
G04 #@! TD*
G04 #@! TO.C,C19*
G36*
G01*
X98097500Y-109892800D02*
X96847500Y-109892800D01*
G75*
G02*
X96597500Y-109642800I0J250000D01*
G01*
X96597500Y-108892800D01*
G75*
G02*
X96847500Y-108642800I250000J0D01*
G01*
X98097500Y-108642800D01*
G75*
G02*
X98347500Y-108892800I0J-250000D01*
G01*
X98347500Y-109642800D01*
G75*
G02*
X98097500Y-109892800I-250000J0D01*
G01*
G37*
G36*
G01*
X98097500Y-112692800D02*
X96847500Y-112692800D01*
G75*
G02*
X96597500Y-112442800I0J250000D01*
G01*
X96597500Y-111692800D01*
G75*
G02*
X96847500Y-111442800I250000J0D01*
G01*
X98097500Y-111442800D01*
G75*
G02*
X98347500Y-111692800I0J-250000D01*
G01*
X98347500Y-112442800D01*
G75*
G02*
X98097500Y-112692800I-250000J0D01*
G01*
G37*
G04 #@! TD*
G04 #@! TO.C,C20*
G36*
G01*
X101526500Y-109892800D02*
X100276500Y-109892800D01*
G75*
G02*
X100026500Y-109642800I0J250000D01*
G01*
X100026500Y-108892800D01*
G75*
G02*
X100276500Y-108642800I250000J0D01*
G01*
X101526500Y-108642800D01*
G75*
G02*
X101776500Y-108892800I0J-250000D01*
G01*
X101776500Y-109642800D01*
G75*
G02*
X101526500Y-109892800I-250000J0D01*
G01*
G37*
G36*
G01*
X101526500Y-112692800D02*
X100276500Y-112692800D01*
G75*
G02*
X100026500Y-112442800I0J250000D01*
G01*
X100026500Y-111692800D01*
G75*
G02*
X100276500Y-111442800I250000J0D01*
G01*
X101526500Y-111442800D01*
G75*
G02*
X101776500Y-111692800I0J-250000D01*
G01*
X101776500Y-112442800D01*
G75*
G02*
X101526500Y-112692800I-250000J0D01*
G01*
G37*
G04 #@! TD*
G04 #@! TO.C,C16*
G36*
G01*
X91938000Y-110794500D02*
X90688000Y-110794500D01*
G75*
G02*
X90438000Y-110544500I0J250000D01*
G01*
X90438000Y-109794500D01*
G75*
G02*
X90688000Y-109544500I250000J0D01*
G01*
X91938000Y-109544500D01*
G75*
G02*
X92188000Y-109794500I0J-250000D01*
G01*
X92188000Y-110544500D01*
G75*
G02*
X91938000Y-110794500I-250000J0D01*
G01*
G37*
G36*
G01*
X91938000Y-113594500D02*
X90688000Y-113594500D01*
G75*
G02*
X90438000Y-113344500I0J250000D01*
G01*
X90438000Y-112594500D01*
G75*
G02*
X90688000Y-112344500I250000J0D01*
G01*
X91938000Y-112344500D01*
G75*
G02*
X92188000Y-112594500I0J-250000D01*
G01*
X92188000Y-113344500D01*
G75*
G02*
X91938000Y-113594500I-250000J0D01*
G01*
G37*
G04 #@! TD*
G04 #@! TO.C,C14*
G36*
G01*
X112319100Y-129276000D02*
X112319100Y-128026000D01*
G75*
G02*
X112569100Y-127776000I250000J0D01*
G01*
X113319100Y-127776000D01*
G75*
G02*
X113569100Y-128026000I0J-250000D01*
G01*
X113569100Y-129276000D01*
G75*
G02*
X113319100Y-129526000I-250000J0D01*
G01*
X112569100Y-129526000D01*
G75*
G02*
X112319100Y-129276000I0J250000D01*
G01*
G37*
G36*
G01*
X109519100Y-129276000D02*
X109519100Y-128026000D01*
G75*
G02*
X109769100Y-127776000I250000J0D01*
G01*
X110519100Y-127776000D01*
G75*
G02*
X110769100Y-128026000I0J-250000D01*
G01*
X110769100Y-129276000D01*
G75*
G02*
X110519100Y-129526000I-250000J0D01*
G01*
X109769100Y-129526000D01*
G75*
G02*
X109519100Y-129276000I0J250000D01*
G01*
G37*
G04 #@! TD*
G04 #@! TO.C,C15*
G36*
G01*
X93545500Y-140729000D02*
X94795500Y-140729000D01*
G75*
G02*
X95045500Y-140979000I0J-250000D01*
G01*
X95045500Y-141729000D01*
G75*
G02*
X94795500Y-141979000I-250000J0D01*
G01*
X93545500Y-141979000D01*
G75*
G02*
X93295500Y-141729000I0J250000D01*
G01*
X93295500Y-140979000D01*
G75*
G02*
X93545500Y-140729000I250000J0D01*
G01*
G37*
G36*
G01*
X93545500Y-137929000D02*
X94795500Y-137929000D01*
G75*
G02*
X95045500Y-138179000I0J-250000D01*
G01*
X95045500Y-138929000D01*
G75*
G02*
X94795500Y-139179000I-250000J0D01*
G01*
X93545500Y-139179000D01*
G75*
G02*
X93295500Y-138929000I0J250000D01*
G01*
X93295500Y-138179000D01*
G75*
G02*
X93545500Y-137929000I250000J0D01*
G01*
G37*
G04 #@! TD*
G04 #@! TO.C,C9*
G36*
G01*
X95907700Y-140729000D02*
X97157700Y-140729000D01*
G75*
G02*
X97407700Y-140979000I0J-250000D01*
G01*
X97407700Y-141729000D01*
G75*
G02*
X97157700Y-141979000I-250000J0D01*
G01*
X95907700Y-141979000D01*
G75*
G02*
X95657700Y-141729000I0J250000D01*
G01*
X95657700Y-140979000D01*
G75*
G02*
X95907700Y-140729000I250000J0D01*
G01*
G37*
G36*
G01*
X95907700Y-137929000D02*
X97157700Y-137929000D01*
G75*
G02*
X97407700Y-138179000I0J-250000D01*
G01*
X97407700Y-138929000D01*
G75*
G02*
X97157700Y-139179000I-250000J0D01*
G01*
X95907700Y-139179000D01*
G75*
G02*
X95657700Y-138929000I0J250000D01*
G01*
X95657700Y-138179000D01*
G75*
G02*
X95907700Y-137929000I250000J0D01*
G01*
G37*
G04 #@! TD*
G04 #@! TO.C,C10*
G36*
G01*
X95430500Y-105422400D02*
X94180500Y-105422400D01*
G75*
G02*
X93930500Y-105172400I0J250000D01*
G01*
X93930500Y-104422400D01*
G75*
G02*
X94180500Y-104172400I250000J0D01*
G01*
X95430500Y-104172400D01*
G75*
G02*
X95680500Y-104422400I0J-250000D01*
G01*
X95680500Y-105172400D01*
G75*
G02*
X95430500Y-105422400I-250000J0D01*
G01*
G37*
G36*
G01*
X95430500Y-108222400D02*
X94180500Y-108222400D01*
G75*
G02*
X93930500Y-107972400I0J250000D01*
G01*
X93930500Y-107222400D01*
G75*
G02*
X94180500Y-106972400I250000J0D01*
G01*
X95430500Y-106972400D01*
G75*
G02*
X95680500Y-107222400I0J-250000D01*
G01*
X95680500Y-107972400D01*
G75*
G02*
X95430500Y-108222400I-250000J0D01*
G01*
G37*
G04 #@! TD*
G04 #@! TO.C,C7*
G36*
G01*
X81076500Y-132407500D02*
X81076500Y-133657500D01*
G75*
G02*
X80826500Y-133907500I-250000J0D01*
G01*
X80076500Y-133907500D01*
G75*
G02*
X79826500Y-133657500I0J250000D01*
G01*
X79826500Y-132407500D01*
G75*
G02*
X80076500Y-132157500I250000J0D01*
G01*
X80826500Y-132157500D01*
G75*
G02*
X81076500Y-132407500I0J-250000D01*
G01*
G37*
G36*
G01*
X83876500Y-132407500D02*
X83876500Y-133657500D01*
G75*
G02*
X83626500Y-133907500I-250000J0D01*
G01*
X82876500Y-133907500D01*
G75*
G02*
X82626500Y-133657500I0J250000D01*
G01*
X82626500Y-132407500D01*
G75*
G02*
X82876500Y-132157500I250000J0D01*
G01*
X83626500Y-132157500D01*
G75*
G02*
X83876500Y-132407500I0J-250000D01*
G01*
G37*
G04 #@! TD*
G04 #@! TO.C,C8*
G36*
G01*
X93081000Y-105422400D02*
X91831000Y-105422400D01*
G75*
G02*
X91581000Y-105172400I0J250000D01*
G01*
X91581000Y-104422400D01*
G75*
G02*
X91831000Y-104172400I250000J0D01*
G01*
X93081000Y-104172400D01*
G75*
G02*
X93331000Y-104422400I0J-250000D01*
G01*
X93331000Y-105172400D01*
G75*
G02*
X93081000Y-105422400I-250000J0D01*
G01*
G37*
G36*
G01*
X93081000Y-108222400D02*
X91831000Y-108222400D01*
G75*
G02*
X91581000Y-107972400I0J250000D01*
G01*
X91581000Y-107222400D01*
G75*
G02*
X91831000Y-106972400I250000J0D01*
G01*
X93081000Y-106972400D01*
G75*
G02*
X93331000Y-107222400I0J-250000D01*
G01*
X93331000Y-107972400D01*
G75*
G02*
X93081000Y-108222400I-250000J0D01*
G01*
G37*
G04 #@! TD*
G04 #@! TO.C,C41*
G36*
G01*
X71406600Y-93472950D02*
X71406600Y-94385450D01*
G75*
G02*
X71162850Y-94629200I-243750J0D01*
G01*
X70675350Y-94629200D01*
G75*
G02*
X70431600Y-94385450I0J243750D01*
G01*
X70431600Y-93472950D01*
G75*
G02*
X70675350Y-93229200I243750J0D01*
G01*
X71162850Y-93229200D01*
G75*
G02*
X71406600Y-93472950I0J-243750D01*
G01*
G37*
G36*
G01*
X73281600Y-93472950D02*
X73281600Y-94385450D01*
G75*
G02*
X73037850Y-94629200I-243750J0D01*
G01*
X72550350Y-94629200D01*
G75*
G02*
X72306600Y-94385450I0J243750D01*
G01*
X72306600Y-93472950D01*
G75*
G02*
X72550350Y-93229200I243750J0D01*
G01*
X73037850Y-93229200D01*
G75*
G02*
X73281600Y-93472950I0J-243750D01*
G01*
G37*
G04 #@! TD*
G04 #@! TO.C,C38*
G36*
G01*
X128175600Y-113145250D02*
X128175600Y-114057750D01*
G75*
G02*
X127931850Y-114301500I-243750J0D01*
G01*
X127444350Y-114301500D01*
G75*
G02*
X127200600Y-114057750I0J243750D01*
G01*
X127200600Y-113145250D01*
G75*
G02*
X127444350Y-112901500I243750J0D01*
G01*
X127931850Y-112901500D01*
G75*
G02*
X128175600Y-113145250I0J-243750D01*
G01*
G37*
G36*
G01*
X130050600Y-113145250D02*
X130050600Y-114057750D01*
G75*
G02*
X129806850Y-114301500I-243750J0D01*
G01*
X129319350Y-114301500D01*
G75*
G02*
X129075600Y-114057750I0J243750D01*
G01*
X129075600Y-113145250D01*
G75*
G02*
X129319350Y-112901500I243750J0D01*
G01*
X129806850Y-112901500D01*
G75*
G02*
X130050600Y-113145250I0J-243750D01*
G01*
G37*
G04 #@! TD*
G04 #@! TO.C,C39*
G36*
G01*
X72205000Y-97230250D02*
X72205000Y-96317750D01*
G75*
G02*
X72448750Y-96074000I243750J0D01*
G01*
X72936250Y-96074000D01*
G75*
G02*
X73180000Y-96317750I0J-243750D01*
G01*
X73180000Y-97230250D01*
G75*
G02*
X72936250Y-97474000I-243750J0D01*
G01*
X72448750Y-97474000D01*
G75*
G02*
X72205000Y-97230250I0J243750D01*
G01*
G37*
G36*
G01*
X70330000Y-97230250D02*
X70330000Y-96317750D01*
G75*
G02*
X70573750Y-96074000I243750J0D01*
G01*
X71061250Y-96074000D01*
G75*
G02*
X71305000Y-96317750I0J-243750D01*
G01*
X71305000Y-97230250D01*
G75*
G02*
X71061250Y-97474000I-243750J0D01*
G01*
X70573750Y-97474000D01*
G75*
G02*
X70330000Y-97230250I0J243750D01*
G01*
G37*
G04 #@! TD*
G04 #@! TO.C,C12*
G36*
G01*
X76326700Y-117967600D02*
X76326700Y-119217600D01*
G75*
G02*
X76076700Y-119467600I-250000J0D01*
G01*
X75326700Y-119467600D01*
G75*
G02*
X75076700Y-119217600I0J250000D01*
G01*
X75076700Y-117967600D01*
G75*
G02*
X75326700Y-117717600I250000J0D01*
G01*
X76076700Y-117717600D01*
G75*
G02*
X76326700Y-117967600I0J-250000D01*
G01*
G37*
G36*
G01*
X79126700Y-117967600D02*
X79126700Y-119217600D01*
G75*
G02*
X78876700Y-119467600I-250000J0D01*
G01*
X78126700Y-119467600D01*
G75*
G02*
X77876700Y-119217600I0J250000D01*
G01*
X77876700Y-117967600D01*
G75*
G02*
X78126700Y-117717600I250000J0D01*
G01*
X78876700Y-117717600D01*
G75*
G02*
X79126700Y-117967600I0J-250000D01*
G01*
G37*
G04 #@! TD*
G04 #@! TO.C,C27*
G36*
G01*
X103340200Y-101082000D02*
X103340200Y-99832000D01*
G75*
G02*
X103590200Y-99582000I250000J0D01*
G01*
X104340200Y-99582000D01*
G75*
G02*
X104590200Y-99832000I0J-250000D01*
G01*
X104590200Y-101082000D01*
G75*
G02*
X104340200Y-101332000I-250000J0D01*
G01*
X103590200Y-101332000D01*
G75*
G02*
X103340200Y-101082000I0J250000D01*
G01*
G37*
G36*
G01*
X100540200Y-101082000D02*
X100540200Y-99832000D01*
G75*
G02*
X100790200Y-99582000I250000J0D01*
G01*
X101540200Y-99582000D01*
G75*
G02*
X101790200Y-99832000I0J-250000D01*
G01*
X101790200Y-101082000D01*
G75*
G02*
X101540200Y-101332000I-250000J0D01*
G01*
X100790200Y-101332000D01*
G75*
G02*
X100540200Y-101082000I0J250000D01*
G01*
G37*
G04 #@! TD*
G04 #@! TO.C,C31*
G36*
G01*
X74178000Y-96202800D02*
X75428000Y-96202800D01*
G75*
G02*
X75678000Y-96452800I0J-250000D01*
G01*
X75678000Y-97202800D01*
G75*
G02*
X75428000Y-97452800I-250000J0D01*
G01*
X74178000Y-97452800D01*
G75*
G02*
X73928000Y-97202800I0J250000D01*
G01*
X73928000Y-96452800D01*
G75*
G02*
X74178000Y-96202800I250000J0D01*
G01*
G37*
G36*
G01*
X74178000Y-93402800D02*
X75428000Y-93402800D01*
G75*
G02*
X75678000Y-93652800I0J-250000D01*
G01*
X75678000Y-94402800D01*
G75*
G02*
X75428000Y-94652800I-250000J0D01*
G01*
X74178000Y-94652800D01*
G75*
G02*
X73928000Y-94402800I0J250000D01*
G01*
X73928000Y-93652800D01*
G75*
G02*
X74178000Y-93402800I250000J0D01*
G01*
G37*
G04 #@! TD*
G04 #@! TO.C,C30*
G36*
G01*
X126797100Y-116639500D02*
X126797100Y-115389500D01*
G75*
G02*
X127047100Y-115139500I250000J0D01*
G01*
X127797100Y-115139500D01*
G75*
G02*
X128047100Y-115389500I0J-250000D01*
G01*
X128047100Y-116639500D01*
G75*
G02*
X127797100Y-116889500I-250000J0D01*
G01*
X127047100Y-116889500D01*
G75*
G02*
X126797100Y-116639500I0J250000D01*
G01*
G37*
G36*
G01*
X123997100Y-116639500D02*
X123997100Y-115389500D01*
G75*
G02*
X124247100Y-115139500I250000J0D01*
G01*
X124997100Y-115139500D01*
G75*
G02*
X125247100Y-115389500I0J-250000D01*
G01*
X125247100Y-116639500D01*
G75*
G02*
X124997100Y-116889500I-250000J0D01*
G01*
X124247100Y-116889500D01*
G75*
G02*
X123997100Y-116639500I0J250000D01*
G01*
G37*
G04 #@! TD*
G04 #@! TO.C,C28*
G36*
G01*
X111265000Y-119370000D02*
X111265000Y-118120000D01*
G75*
G02*
X111515000Y-117870000I250000J0D01*
G01*
X112265000Y-117870000D01*
G75*
G02*
X112515000Y-118120000I0J-250000D01*
G01*
X112515000Y-119370000D01*
G75*
G02*
X112265000Y-119620000I-250000J0D01*
G01*
X111515000Y-119620000D01*
G75*
G02*
X111265000Y-119370000I0J250000D01*
G01*
G37*
G36*
G01*
X108465000Y-119370000D02*
X108465000Y-118120000D01*
G75*
G02*
X108715000Y-117870000I250000J0D01*
G01*
X109465000Y-117870000D01*
G75*
G02*
X109715000Y-118120000I0J-250000D01*
G01*
X109715000Y-119370000D01*
G75*
G02*
X109465000Y-119620000I-250000J0D01*
G01*
X108715000Y-119620000D01*
G75*
G02*
X108465000Y-119370000I0J250000D01*
G01*
G37*
G04 #@! TD*
M02*
