M48
METRIC,TZ
T1C0.400
T2C0.778
T3C0.850
T4C0.860
T5C0.880
T6C0.920
T7C1.250
T8C1.270
T9C1.450
T10C2.300
T11C3.050
%
G90
G05
T1
X51816Y-62484
X53264Y-55829
X54674Y-52451
X60008Y-69850
X60008Y-83418
X60008Y-96986
X60008Y-110554
X60008Y-121602
X60008Y-132651
X60008Y-143701
X63310Y-148019
X64110Y-78359
X68263Y-68834
X69291Y-88900
X71120Y-61468
X72593Y-68174
X72593Y-92405
X73889Y-73533
X74270Y-85014
X74346Y-81585
X76086Y-116561
X77102Y-118593
X77394Y-148019
X77495Y-77318
X78130Y-91567
X78562Y-126365
X78892Y-110642
X78969Y-91567
X79185Y-124206
X79949Y-126414
X81204Y-117043
X81610Y-120345
X81915Y-132994
X82220Y-130556
X82271Y-114706
X82296Y-135433
X83007Y-128803
X83287Y-88494
X84938Y-141630
X85420Y-89230
X86208Y-111379
X87122Y-133477
X87186Y-117475
X87376Y-113462
X88773Y-44577
X88773Y-55943
X88837Y-118999
X89281Y-131318
X89941Y-81966
X90678Y-111608
X91338Y-131318
X91478Y-148019
X91821Y-81966
X91948Y-111557
X92481Y-102997
X93650Y-106172
X94158Y-140056
X94285Y-120904
X94564Y-108915
X94564Y-111608
X94615Y-116484
X96190Y-135026
X96495Y-62992
X96520Y-139954
X97001Y-116380
X97001Y-126619
X97092Y-44577
X97092Y-55943
X97511Y-107950
X97511Y-110693
X98781Y-104546
X99416Y-134036
X100389Y-116369
X100568Y-133848
X100584Y-94691
X100914Y-110541
X101448Y-61163
X101473Y-140640
X101625Y-106197
X101856Y-116550
X102413Y-100457
X102426Y-124155
X103099Y-67208
X103530Y-106147
X103810Y-110490
X103856Y-113474
X104318Y-62535
X105461Y-62535
X105562Y-148019
X105601Y-118491
X105689Y-128930
X105982Y-43498
X106172Y-54991
X107569Y-111303
X108153Y-67208
X108204Y-86081
X108306Y-108966
X108814Y-128524
X108902Y-52007
X109677Y-116738
X109918Y-46228
X110617Y-118745
X111455Y-130200
X111506Y-124155
X113081Y-112624
X114554Y-129870
X117577Y-59893
X119532Y-109322
X119647Y-148019
X121222Y-96203
X121336Y-110973
X121641Y-66802
X122174Y-78359
X124155Y-71349
X124308Y-98806
X124485Y-93345
X124777Y-78359
X127381Y-74994
X127724Y-105524
X131763Y-62484
X133731Y-148019
X135382Y-90424
X138633Y-60191
X140081Y-43498
X140081Y-69850
X140081Y-83418
X140081Y-96986
X140081Y-110554
X140462Y-121602
X140462Y-132651
X140462Y-143701
X147828Y-49721
X147828Y-62484
T2
X86868Y-66142
X94368Y-72742
T3
X86563Y-95707
X89103Y-95707
X91643Y-95707
T4
X52256Y-48828
X54256Y-48828
T5
X67945Y-101092
X70485Y-101092
X73025Y-101092
X75565Y-101092
X125070Y-109525
X127610Y-109525
X130150Y-109525
X132690Y-109525
T6
X110769Y-92532
X110769Y-95032
X113969Y-92532
X113969Y-95032
T7
X85868Y-62542
X93868Y-62542
X93868Y-65542
T8
X66620Y-50000
X66620Y-54000
X70120Y-50000
X70120Y-54000
X73620Y-50000
X73620Y-54000
X77120Y-50000
X77120Y-54000
X80620Y-50000
X80620Y-54000
X84120Y-50000
X84120Y-54000
X108890Y-50000
X108890Y-54000
X112390Y-50000
X112390Y-54000
X115890Y-50000
X115890Y-54000
X119390Y-50000
X119390Y-54000
X122890Y-50000
X122890Y-54000
X126390Y-50000
X126390Y-54000
X129890Y-50000
X129890Y-54000
X133390Y-50000
X133390Y-54000
X136890Y-50000
X136890Y-54000
X140390Y-50000
X140390Y-54000
T9
X113030Y-62840
X113030Y-68340
T10
X113479Y-87762
X113479Y-99802
T11
X100000Y-50000
T0
M30
