G04 #@! TF.GenerationSoftware,KiCad,Pcbnew,(5.1.6-0-10_14)*
G04 #@! TF.CreationDate,2020-09-25T20:25:35+02:00*
G04 #@! TF.ProjectId,CHAdeMO_V2.0,43484164-654d-44f5-9f56-322e302e6b69,rev?*
G04 #@! TF.SameCoordinates,Original*
G04 #@! TF.FileFunction,Copper,L3,Inr*
G04 #@! TF.FilePolarity,Positive*
%FSLAX46Y46*%
G04 Gerber Fmt 4.6, Leading zero omitted, Abs format (unit mm)*
G04 Created by KiCad (PCBNEW (5.1.6-0-10_14)) date 2020-09-25 20:25:35*
%MOMM*%
%LPD*%
G01*
G04 APERTURE LIST*
G04 #@! TA.AperFunction,ViaPad*
%ADD10C,1.875000*%
G04 #@! TD*
G04 #@! TA.AperFunction,ViaPad*
%ADD11C,1.333000*%
G04 #@! TD*
G04 #@! TA.AperFunction,ViaPad*
%ADD12C,1.350000*%
G04 #@! TD*
G04 #@! TA.AperFunction,ViaPad*
%ADD13C,4.575000*%
G04 #@! TD*
G04 #@! TA.AperFunction,ViaPad*
%ADD14C,1.905000*%
G04 #@! TD*
G04 #@! TA.AperFunction,ViaPad*
%ADD15C,1.270000*%
G04 #@! TD*
G04 #@! TA.AperFunction,ViaPad*
%ADD16C,1.368000*%
G04 #@! TD*
G04 #@! TA.AperFunction,ViaPad*
%ADD17R,1.368000X1.368000*%
G04 #@! TD*
G04 #@! TA.AperFunction,ViaPad*
%ADD18C,2.175000*%
G04 #@! TD*
G04 #@! TA.AperFunction,ViaPad*
%ADD19R,2.175000X2.175000*%
G04 #@! TD*
G04 #@! TA.AperFunction,ViaPad*
%ADD20C,1.430000*%
G04 #@! TD*
G04 #@! TA.AperFunction,ViaPad*
%ADD21C,3.450000*%
G04 #@! TD*
G04 #@! TA.AperFunction,ViaPad*
%ADD22C,1.431000*%
G04 #@! TD*
G04 #@! TA.AperFunction,ViaPad*
%ADD23C,0.800000*%
G04 #@! TD*
G04 #@! TA.AperFunction,Conductor*
%ADD24C,0.254000*%
G04 #@! TD*
G04 APERTURE END LIST*
D10*
G04 #@! TO.N,/CHAdeMO_contactors_GND*
G04 #@! TO.C,K1*
X93868000Y-65541600D03*
G04 #@! TO.N,/CHAdeMO-CHARGE-START2_IN2*
X85868000Y-62541600D03*
G04 #@! TO.N,Net-(K1-Pad3)*
X93868000Y-62541600D03*
D11*
G04 #@! TO.N,/Relay_CHAdeMO_contactors_GND*
X94368000Y-72741600D03*
G04 #@! TO.N,+12V*
X86868000Y-66141600D03*
G04 #@! TD*
D12*
G04 #@! TO.N,+3V3*
G04 #@! TO.C,PS3*
X86563200Y-95707200D03*
G04 #@! TO.N,Earth*
X89103200Y-95707200D03*
G04 #@! TO.N,Net-(L9-Pad2)*
X91643200Y-95707200D03*
G04 #@! TD*
D13*
G04 #@! TO.N,Net-(J2-PadMH1)*
G04 #@! TO.C,J2*
X100000000Y-50000000D03*
D14*
G04 #@! TO.N,/CAN0_N*
X108890000Y-50000000D03*
G04 #@! TO.N,Earth*
X112390000Y-50000000D03*
G04 #@! TO.N,/CHAdeMO_contactor2-feedbackIN*
X115890000Y-50000000D03*
G04 #@! TO.N,/ACTIVE-LOW-WAKEUP*
X119390000Y-50000000D03*
G04 #@! TO.N,/CHAdeMO_contactor1-feedbackIN*
X122890000Y-50000000D03*
G04 #@! TO.N,+5V_USB*
X126390000Y-50000000D03*
G04 #@! TO.N,Earth*
X129890000Y-50000000D03*
D15*
G04 #@! TO.N,Net-(J2-PadA13)*
X133390000Y-50000000D03*
D14*
G04 #@! TO.N,/CAN0_N*
X136890000Y-50000000D03*
G04 #@! TO.N,/CAN0_P*
X140390000Y-50000000D03*
X108890000Y-54000000D03*
G04 #@! TO.N,/CHAdeMO-CHARGE-START1_IN1*
X112390000Y-54000000D03*
G04 #@! TO.N,/CAR-12V_always-on*
X115890000Y-54000000D03*
G04 #@! TO.N,Net-(F2-Pad1)*
X119390000Y-54000000D03*
G04 #@! TO.N,/CHAdeMO_contactors_GND*
X122890000Y-54000000D03*
G04 #@! TO.N,/USB_D+*
X126390000Y-54000000D03*
G04 #@! TO.N,/USB_D-*
X129890000Y-54000000D03*
D15*
G04 #@! TO.N,Net-(J2-PadA3)*
X133390000Y-54000000D03*
D14*
G04 #@! TO.N,Earth*
X136890000Y-54000000D03*
D15*
G04 #@! TO.N,Net-(J2-PadA1)*
X140390000Y-54000000D03*
D14*
G04 #@! TO.N,Net-(J2-PadB12)*
X66620000Y-50000000D03*
G04 #@! TO.N,Net-(J2-PadB11)*
X70120000Y-50000000D03*
G04 #@! TO.N,/CHAdeMO-CHARGE-START2_IN2*
X73620000Y-50000000D03*
G04 #@! TO.N,/CAN1_N*
X77120000Y-50000000D03*
G04 #@! TO.N,/CAN1_P*
X80620000Y-50000000D03*
G04 #@! TO.N,/CHAdeMO_PROXIMITY*
X84120000Y-50000000D03*
G04 #@! TO.N,Net-(J2-PadB6)*
X66620000Y-54000000D03*
G04 #@! TO.N,Net-(J2-PadB5)*
X70120000Y-54000000D03*
G04 #@! TO.N,/CHAdeMO_charge_enable*
X73620000Y-54000000D03*
G04 #@! TO.N,Net-(J2-PadB3)*
X77120000Y-54000000D03*
G04 #@! TO.N,/CHAdeMO-CHARGE-START1_IN1*
X80620000Y-54000000D03*
G04 #@! TO.N,Earth*
X84120000Y-54000000D03*
G04 #@! TD*
D16*
G04 #@! TO.N,/CAN1_N*
G04 #@! TO.C,J4*
X54255700Y-48827600D03*
D17*
G04 #@! TO.N,/CAN1_P*
X52255700Y-48827600D03*
G04 #@! TD*
D18*
G04 #@! TO.N,Earth*
G04 #@! TO.C,J3*
X113030000Y-68339600D03*
D19*
G04 #@! TO.N,/CAR-12V_always-on*
X113030000Y-62839600D03*
G04 #@! TD*
D20*
G04 #@! TO.N,+5V_0*
G04 #@! TO.C,PS1*
X132689600Y-109524800D03*
G04 #@! TO.N,GND_CAN0*
X130149600Y-109524800D03*
G04 #@! TO.N,Net-(C38-Pad2)*
X127609600Y-109524800D03*
G04 #@! TO.N,Earth*
X125069600Y-109524800D03*
G04 #@! TD*
G04 #@! TO.N,+5V_1*
G04 #@! TO.C,PS2*
X67945000Y-101092000D03*
G04 #@! TO.N,GND_CAN1*
X70485000Y-101092000D03*
G04 #@! TO.N,Net-(C39-Pad2)*
X73025000Y-101092000D03*
G04 #@! TO.N,Earth*
X75565000Y-101092000D03*
G04 #@! TD*
D21*
G04 #@! TO.N,Earth*
G04 #@! TO.C,J1*
X113479400Y-87762200D03*
X113479400Y-99802200D03*
D22*
X113969400Y-92532200D03*
G04 #@! TO.N,/USB_D+*
X113969400Y-95032200D03*
G04 #@! TO.N,/USB_D-*
X110769400Y-95032200D03*
G04 #@! TO.N,+5V_USB*
X110769400Y-92532200D03*
G04 #@! TD*
D23*
G04 #@! TO.N,Earth*
X121221500Y-96202500D03*
X71120000Y-61468000D03*
X124777500Y-78359000D03*
X122174000Y-78359000D03*
X89281000Y-131318000D03*
X88836500Y-118999000D03*
X105600500Y-118491000D03*
X79184500Y-124206000D03*
X78562200Y-126365000D03*
X87185500Y-117475000D03*
X76085700Y-116560600D03*
X101855510Y-116550200D03*
X100388847Y-116369000D03*
X94615000Y-116484400D03*
X94564200Y-108915200D03*
X97510600Y-107950000D03*
X91948000Y-111556800D03*
X87376000Y-113461800D03*
X98780600Y-104546400D03*
X93649800Y-106172000D03*
X100914200Y-110540800D03*
X103809800Y-110490000D03*
X107569000Y-111302800D03*
X82270600Y-114706400D03*
X82219800Y-130556000D03*
X82296000Y-135432800D03*
X124307600Y-98806000D03*
X105689400Y-128930400D03*
X96189800Y-135026400D03*
X94157800Y-140055600D03*
X113080800Y-112623600D03*
X87122000Y-133477000D03*
X109677200Y-116738400D03*
X110617000Y-118745000D03*
X97001500Y-116380002D03*
X127723900Y-105524300D03*
X121640600Y-66802000D03*
X103098600Y-67208400D03*
X96494600Y-62992000D03*
X72593200Y-92405200D03*
X74269600Y-85013800D03*
X85420200Y-89230200D03*
X73888600Y-73533000D03*
X108204000Y-86080600D03*
X91821000Y-81965800D03*
X101625400Y-106197400D03*
X114554000Y-129870200D03*
X100584000Y-94691200D03*
X63309500Y-148018500D03*
X77393800Y-148018500D03*
X91478100Y-148018500D03*
X105562400Y-148018500D03*
X60007500Y-132651500D03*
X60007500Y-121602500D03*
X60007500Y-110553500D03*
X133731000Y-148018500D03*
X119646700Y-148018500D03*
X60007500Y-143700500D03*
X140462000Y-143700500D03*
X140462000Y-132651500D03*
X140462000Y-121602500D03*
X97091500Y-44577000D03*
X88773000Y-44577000D03*
X88773000Y-55943500D03*
X131762500Y-62484000D03*
X97001500Y-126619000D03*
X102425500Y-124155200D03*
X97091500Y-55943500D03*
G04 #@! TO.N,+3V3*
X74345800Y-81584800D03*
X79949000Y-126413500D03*
X81610200Y-120345200D03*
X77101700Y-118592600D03*
X97510600Y-110693200D03*
X90678000Y-111607600D03*
X94564200Y-111607600D03*
X108305600Y-108966000D03*
X81203800Y-117043200D03*
X81915000Y-132994400D03*
X108813600Y-128524000D03*
X96520000Y-139954000D03*
X92481400Y-102997000D03*
X78892400Y-110642400D03*
X101473000Y-140639800D03*
X108153200Y-67208400D03*
X119532400Y-109321600D03*
X121335800Y-110972600D03*
X124485400Y-93345000D03*
X78968600Y-91567000D03*
X78130400Y-91567000D03*
X102412800Y-100457000D03*
X124155200Y-71348600D03*
X84937600Y-141630400D03*
G04 #@! TO.N,/CAN1-TX*
X91338400Y-131318000D03*
X86207600Y-111379000D03*
G04 #@! TO.N,+12V*
X105460800Y-62534800D03*
X104317800Y-62534800D03*
G04 #@! TO.N,/VDD_OUT*
X111455200Y-130200400D03*
X111506000Y-124155200D03*
G04 #@! TO.N,/CHAdeMO-charge-enable-signal_D48*
X72593200Y-68173600D03*
X83007200Y-128803400D03*
G04 #@! TO.N,/relay-CHAdeMO-contactors-signal_D49*
X94284800Y-120904000D03*
X89941400Y-81965800D03*
G04 #@! TO.N,/CHAdeMO-charge-start1_3.3Vsignal_IN1_D6*
X77495400Y-77317600D03*
X100568219Y-133848381D03*
G04 #@! TO.N,/CHAdeMO-charge-start2_3.3Vsignal_IN2_D7*
X83286600Y-88493600D03*
X99415600Y-134035800D03*
G04 #@! TO.N,GND_CAN1*
X68262500Y-68834000D03*
X54673500Y-52451000D03*
X64109600Y-78359000D03*
X53263800Y-55829200D03*
X69291200Y-88900000D03*
X60007500Y-96985666D03*
X60007500Y-83417833D03*
X60007500Y-69850000D03*
X51816000Y-62484000D03*
G04 #@! TO.N,GND_CAN0*
X105981500Y-43497500D03*
X108902500Y-52006500D03*
X109918500Y-46228000D03*
X106172000Y-54991000D03*
X127381000Y-74993500D03*
X138633200Y-60190854D03*
X135382000Y-90424000D03*
X140081000Y-110553500D03*
X140081000Y-96985666D03*
X140081000Y-83417833D03*
X140081000Y-69850000D03*
X147828000Y-62484000D03*
X147828000Y-49720500D03*
X140081000Y-43497500D03*
G04 #@! TO.N,+5V_USB*
X101447600Y-61163200D03*
G04 #@! TO.N,Net-(C13-Pad1)*
X103530400Y-106146600D03*
X103855500Y-113474500D03*
G04 #@! TO.N,/CHAdeMO_contactor2-feedbackIN*
X117576600Y-59893200D03*
G04 #@! TD*
D24*
G04 #@! TO.N,+3V3*
G36*
X125095000Y-77370237D02*
G01*
X125079398Y-77363774D01*
X124879439Y-77324000D01*
X124675561Y-77324000D01*
X124475602Y-77363774D01*
X124287244Y-77441795D01*
X124117726Y-77555063D01*
X123973563Y-77699226D01*
X123860295Y-77868744D01*
X123782274Y-78057102D01*
X123742500Y-78257061D01*
X123742500Y-78460939D01*
X123782274Y-78660898D01*
X123860295Y-78849256D01*
X123973563Y-79018774D01*
X124117726Y-79162937D01*
X124287244Y-79276205D01*
X124475602Y-79354226D01*
X124675561Y-79394000D01*
X124879439Y-79394000D01*
X125079398Y-79354226D01*
X125095000Y-79347763D01*
X125095000Y-98129689D01*
X124967374Y-98002063D01*
X124797856Y-97888795D01*
X124609498Y-97810774D01*
X124409539Y-97771000D01*
X124205661Y-97771000D01*
X124005702Y-97810774D01*
X123817344Y-97888795D01*
X123647826Y-98002063D01*
X123503663Y-98146226D01*
X123390395Y-98315744D01*
X123312374Y-98504102D01*
X123272600Y-98704061D01*
X123272600Y-98907939D01*
X123312374Y-99107898D01*
X123390395Y-99296256D01*
X123503663Y-99465774D01*
X123647826Y-99609937D01*
X123817344Y-99723205D01*
X124005702Y-99801226D01*
X124205661Y-99841000D01*
X124409539Y-99841000D01*
X124609498Y-99801226D01*
X124797856Y-99723205D01*
X124967374Y-99609937D01*
X125095000Y-99482311D01*
X125095000Y-108174800D01*
X124936637Y-108174800D01*
X124675820Y-108226680D01*
X124430135Y-108328446D01*
X124209025Y-108476187D01*
X124020987Y-108664225D01*
X123873246Y-108885335D01*
X123771480Y-109131020D01*
X123719600Y-109391837D01*
X123719600Y-109657763D01*
X123771480Y-109918580D01*
X123873246Y-110164265D01*
X124020987Y-110385375D01*
X124209025Y-110573413D01*
X124430135Y-110721154D01*
X124675820Y-110822920D01*
X124936637Y-110874800D01*
X125095000Y-110874800D01*
X125095000Y-116001800D01*
X125097440Y-116026576D01*
X125104667Y-116050401D01*
X125116403Y-116072357D01*
X125132197Y-116091603D01*
X125151443Y-116107397D01*
X125173399Y-116119133D01*
X125197224Y-116126360D01*
X125223024Y-116128796D01*
X141865000Y-115994587D01*
X141865000Y-148984500D01*
X134103455Y-148984500D01*
X134221256Y-148935705D01*
X134390774Y-148822437D01*
X134534937Y-148678274D01*
X134648205Y-148508756D01*
X134726226Y-148320398D01*
X134766000Y-148120439D01*
X134766000Y-147916561D01*
X134726226Y-147716602D01*
X134657518Y-147550727D01*
X139339000Y-147550727D01*
X139339000Y-147789273D01*
X139385538Y-148023236D01*
X139476825Y-148243624D01*
X139609354Y-148441968D01*
X139778032Y-148610646D01*
X139976376Y-148743175D01*
X140196764Y-148834462D01*
X140430727Y-148881000D01*
X140669273Y-148881000D01*
X140903236Y-148834462D01*
X141123624Y-148743175D01*
X141321968Y-148610646D01*
X141490646Y-148441968D01*
X141623175Y-148243624D01*
X141714462Y-148023236D01*
X141761000Y-147789273D01*
X141761000Y-147550727D01*
X141714462Y-147316764D01*
X141623175Y-147096376D01*
X141490646Y-146898032D01*
X141321968Y-146729354D01*
X141123624Y-146596825D01*
X140903236Y-146505538D01*
X140669273Y-146459000D01*
X140430727Y-146459000D01*
X140196764Y-146505538D01*
X139976376Y-146596825D01*
X139778032Y-146729354D01*
X139609354Y-146898032D01*
X139476825Y-147096376D01*
X139385538Y-147316764D01*
X139339000Y-147550727D01*
X134657518Y-147550727D01*
X134648205Y-147528244D01*
X134534937Y-147358726D01*
X134390774Y-147214563D01*
X134221256Y-147101295D01*
X134032898Y-147023274D01*
X133832939Y-146983500D01*
X133629061Y-146983500D01*
X133429102Y-147023274D01*
X133240744Y-147101295D01*
X133071226Y-147214563D01*
X132927063Y-147358726D01*
X132813795Y-147528244D01*
X132735774Y-147716602D01*
X132696000Y-147916561D01*
X132696000Y-148120439D01*
X132735774Y-148320398D01*
X132813795Y-148508756D01*
X132927063Y-148678274D01*
X133071226Y-148822437D01*
X133240744Y-148935705D01*
X133358545Y-148984500D01*
X120019155Y-148984500D01*
X120136956Y-148935705D01*
X120306474Y-148822437D01*
X120450637Y-148678274D01*
X120563905Y-148508756D01*
X120641926Y-148320398D01*
X120681700Y-148120439D01*
X120681700Y-147916561D01*
X120641926Y-147716602D01*
X120563905Y-147528244D01*
X120450637Y-147358726D01*
X120306474Y-147214563D01*
X120136956Y-147101295D01*
X119948598Y-147023274D01*
X119748639Y-146983500D01*
X119544761Y-146983500D01*
X119344802Y-147023274D01*
X119156444Y-147101295D01*
X118986926Y-147214563D01*
X118842763Y-147358726D01*
X118729495Y-147528244D01*
X118651474Y-147716602D01*
X118611700Y-147916561D01*
X118611700Y-148120439D01*
X118651474Y-148320398D01*
X118729495Y-148508756D01*
X118842763Y-148678274D01*
X118986926Y-148822437D01*
X119156444Y-148935705D01*
X119274245Y-148984500D01*
X105934855Y-148984500D01*
X106052656Y-148935705D01*
X106222174Y-148822437D01*
X106366337Y-148678274D01*
X106479605Y-148508756D01*
X106557626Y-148320398D01*
X106597400Y-148120439D01*
X106597400Y-147916561D01*
X106557626Y-147716602D01*
X106479605Y-147528244D01*
X106366337Y-147358726D01*
X106222174Y-147214563D01*
X106052656Y-147101295D01*
X105864298Y-147023274D01*
X105664339Y-146983500D01*
X105460461Y-146983500D01*
X105260502Y-147023274D01*
X105072144Y-147101295D01*
X104902626Y-147214563D01*
X104758463Y-147358726D01*
X104645195Y-147528244D01*
X104567174Y-147716602D01*
X104527400Y-147916561D01*
X104527400Y-148120439D01*
X104567174Y-148320398D01*
X104645195Y-148508756D01*
X104758463Y-148678274D01*
X104902626Y-148822437D01*
X105072144Y-148935705D01*
X105189945Y-148984500D01*
X91850555Y-148984500D01*
X91968356Y-148935705D01*
X92137874Y-148822437D01*
X92282037Y-148678274D01*
X92395305Y-148508756D01*
X92473326Y-148320398D01*
X92513100Y-148120439D01*
X92513100Y-147916561D01*
X92473326Y-147716602D01*
X92395305Y-147528244D01*
X92282037Y-147358726D01*
X92137874Y-147214563D01*
X91968356Y-147101295D01*
X91779998Y-147023274D01*
X91580039Y-146983500D01*
X91376161Y-146983500D01*
X91176202Y-147023274D01*
X90987844Y-147101295D01*
X90818326Y-147214563D01*
X90674163Y-147358726D01*
X90560895Y-147528244D01*
X90482874Y-147716602D01*
X90443100Y-147916561D01*
X90443100Y-148120439D01*
X90482874Y-148320398D01*
X90560895Y-148508756D01*
X90674163Y-148678274D01*
X90818326Y-148822437D01*
X90987844Y-148935705D01*
X91105645Y-148984500D01*
X77766255Y-148984500D01*
X77884056Y-148935705D01*
X78053574Y-148822437D01*
X78197737Y-148678274D01*
X78311005Y-148508756D01*
X78389026Y-148320398D01*
X78428800Y-148120439D01*
X78428800Y-147916561D01*
X78389026Y-147716602D01*
X78311005Y-147528244D01*
X78197737Y-147358726D01*
X78053574Y-147214563D01*
X77884056Y-147101295D01*
X77695698Y-147023274D01*
X77495739Y-146983500D01*
X77291861Y-146983500D01*
X77091902Y-147023274D01*
X76903544Y-147101295D01*
X76734026Y-147214563D01*
X76589863Y-147358726D01*
X76476595Y-147528244D01*
X76398574Y-147716602D01*
X76358800Y-147916561D01*
X76358800Y-148120439D01*
X76398574Y-148320398D01*
X76476595Y-148508756D01*
X76589863Y-148678274D01*
X76734026Y-148822437D01*
X76903544Y-148935705D01*
X77021345Y-148984500D01*
X73025000Y-148984500D01*
X73025000Y-143598561D01*
X139427000Y-143598561D01*
X139427000Y-143802439D01*
X139466774Y-144002398D01*
X139544795Y-144190756D01*
X139658063Y-144360274D01*
X139802226Y-144504437D01*
X139971744Y-144617705D01*
X140160102Y-144695726D01*
X140360061Y-144735500D01*
X140563939Y-144735500D01*
X140763898Y-144695726D01*
X140952256Y-144617705D01*
X141121774Y-144504437D01*
X141265937Y-144360274D01*
X141379205Y-144190756D01*
X141457226Y-144002398D01*
X141497000Y-143802439D01*
X141497000Y-143598561D01*
X141457226Y-143398602D01*
X141379205Y-143210244D01*
X141265937Y-143040726D01*
X141121774Y-142896563D01*
X140952256Y-142783295D01*
X140763898Y-142705274D01*
X140563939Y-142665500D01*
X140360061Y-142665500D01*
X140160102Y-142705274D01*
X139971744Y-142783295D01*
X139802226Y-142896563D01*
X139658063Y-143040726D01*
X139544795Y-143210244D01*
X139466774Y-143398602D01*
X139427000Y-143598561D01*
X73025000Y-143598561D01*
X73025000Y-139953661D01*
X93122800Y-139953661D01*
X93122800Y-140157539D01*
X93162574Y-140357498D01*
X93240595Y-140545856D01*
X93353863Y-140715374D01*
X93498026Y-140859537D01*
X93667544Y-140972805D01*
X93855902Y-141050826D01*
X94055861Y-141090600D01*
X94259739Y-141090600D01*
X94459698Y-141050826D01*
X94648056Y-140972805D01*
X94817574Y-140859537D01*
X94961737Y-140715374D01*
X95075005Y-140545856D01*
X95153026Y-140357498D01*
X95192800Y-140157539D01*
X95192800Y-139953661D01*
X95153026Y-139753702D01*
X95075005Y-139565344D01*
X94961737Y-139395826D01*
X94817574Y-139251663D01*
X94648056Y-139138395D01*
X94459698Y-139060374D01*
X94259739Y-139020600D01*
X94055861Y-139020600D01*
X93855902Y-139060374D01*
X93667544Y-139138395D01*
X93498026Y-139251663D01*
X93353863Y-139395826D01*
X93240595Y-139565344D01*
X93162574Y-139753702D01*
X93122800Y-139953661D01*
X73025000Y-139953661D01*
X73025000Y-135330861D01*
X81261000Y-135330861D01*
X81261000Y-135534739D01*
X81300774Y-135734698D01*
X81378795Y-135923056D01*
X81492063Y-136092574D01*
X81636226Y-136236737D01*
X81805744Y-136350005D01*
X81994102Y-136428026D01*
X82194061Y-136467800D01*
X82397939Y-136467800D01*
X82597898Y-136428026D01*
X82786256Y-136350005D01*
X82955774Y-136236737D01*
X83099937Y-136092574D01*
X83213205Y-135923056D01*
X83291226Y-135734698D01*
X83331000Y-135534739D01*
X83331000Y-135330861D01*
X83291226Y-135130902D01*
X83213205Y-134942544D01*
X83201123Y-134924461D01*
X95154800Y-134924461D01*
X95154800Y-135128339D01*
X95194574Y-135328298D01*
X95272595Y-135516656D01*
X95385863Y-135686174D01*
X95530026Y-135830337D01*
X95699544Y-135943605D01*
X95887902Y-136021626D01*
X96087861Y-136061400D01*
X96291739Y-136061400D01*
X96491698Y-136021626D01*
X96680056Y-135943605D01*
X96849574Y-135830337D01*
X96993737Y-135686174D01*
X97107005Y-135516656D01*
X97185026Y-135328298D01*
X97224800Y-135128339D01*
X97224800Y-134924461D01*
X97185026Y-134724502D01*
X97107005Y-134536144D01*
X96993737Y-134366626D01*
X96849574Y-134222463D01*
X96680056Y-134109195D01*
X96491698Y-134031174D01*
X96291739Y-133991400D01*
X96087861Y-133991400D01*
X95887902Y-134031174D01*
X95699544Y-134109195D01*
X95530026Y-134222463D01*
X95385863Y-134366626D01*
X95272595Y-134536144D01*
X95194574Y-134724502D01*
X95154800Y-134924461D01*
X83201123Y-134924461D01*
X83099937Y-134773026D01*
X82955774Y-134628863D01*
X82786256Y-134515595D01*
X82597898Y-134437574D01*
X82397939Y-134397800D01*
X82194061Y-134397800D01*
X81994102Y-134437574D01*
X81805744Y-134515595D01*
X81636226Y-134628863D01*
X81492063Y-134773026D01*
X81378795Y-134942544D01*
X81300774Y-135130902D01*
X81261000Y-135330861D01*
X73025000Y-135330861D01*
X73025000Y-133375061D01*
X86087000Y-133375061D01*
X86087000Y-133578939D01*
X86126774Y-133778898D01*
X86204795Y-133967256D01*
X86318063Y-134136774D01*
X86462226Y-134280937D01*
X86631744Y-134394205D01*
X86820102Y-134472226D01*
X87020061Y-134512000D01*
X87223939Y-134512000D01*
X87423898Y-134472226D01*
X87612256Y-134394205D01*
X87781774Y-134280937D01*
X87925937Y-134136774D01*
X88039205Y-133967256D01*
X88053037Y-133933861D01*
X98380600Y-133933861D01*
X98380600Y-134137739D01*
X98420374Y-134337698D01*
X98498395Y-134526056D01*
X98611663Y-134695574D01*
X98755826Y-134839737D01*
X98925344Y-134953005D01*
X99113702Y-135031026D01*
X99313661Y-135070800D01*
X99517539Y-135070800D01*
X99717498Y-135031026D01*
X99905856Y-134953005D01*
X100075374Y-134839737D01*
X100128565Y-134786546D01*
X100266321Y-134843607D01*
X100466280Y-134883381D01*
X100670158Y-134883381D01*
X100870117Y-134843607D01*
X101058475Y-134765586D01*
X101227993Y-134652318D01*
X101372156Y-134508155D01*
X101485424Y-134338637D01*
X101563445Y-134150279D01*
X101603219Y-133950320D01*
X101603219Y-133746442D01*
X101563445Y-133546483D01*
X101485424Y-133358125D01*
X101372156Y-133188607D01*
X101227993Y-133044444D01*
X101058475Y-132931176D01*
X100870117Y-132853155D01*
X100670158Y-132813381D01*
X100466280Y-132813381D01*
X100266321Y-132853155D01*
X100077963Y-132931176D01*
X99908445Y-133044444D01*
X99855254Y-133097635D01*
X99717498Y-133040574D01*
X99517539Y-133000800D01*
X99313661Y-133000800D01*
X99113702Y-133040574D01*
X98925344Y-133118595D01*
X98755826Y-133231863D01*
X98611663Y-133376026D01*
X98498395Y-133545544D01*
X98420374Y-133733902D01*
X98380600Y-133933861D01*
X88053037Y-133933861D01*
X88117226Y-133778898D01*
X88157000Y-133578939D01*
X88157000Y-133375061D01*
X88117226Y-133175102D01*
X88039205Y-132986744D01*
X87925937Y-132817226D01*
X87781774Y-132673063D01*
X87612256Y-132559795D01*
X87587550Y-132549561D01*
X139427000Y-132549561D01*
X139427000Y-132753439D01*
X139466774Y-132953398D01*
X139544795Y-133141756D01*
X139658063Y-133311274D01*
X139802226Y-133455437D01*
X139971744Y-133568705D01*
X140160102Y-133646726D01*
X140360061Y-133686500D01*
X140563939Y-133686500D01*
X140763898Y-133646726D01*
X140952256Y-133568705D01*
X141121774Y-133455437D01*
X141265937Y-133311274D01*
X141379205Y-133141756D01*
X141457226Y-132953398D01*
X141497000Y-132753439D01*
X141497000Y-132549561D01*
X141457226Y-132349602D01*
X141379205Y-132161244D01*
X141265937Y-131991726D01*
X141121774Y-131847563D01*
X140952256Y-131734295D01*
X140763898Y-131656274D01*
X140563939Y-131616500D01*
X140360061Y-131616500D01*
X140160102Y-131656274D01*
X139971744Y-131734295D01*
X139802226Y-131847563D01*
X139658063Y-131991726D01*
X139544795Y-132161244D01*
X139466774Y-132349602D01*
X139427000Y-132549561D01*
X87587550Y-132549561D01*
X87423898Y-132481774D01*
X87223939Y-132442000D01*
X87020061Y-132442000D01*
X86820102Y-132481774D01*
X86631744Y-132559795D01*
X86462226Y-132673063D01*
X86318063Y-132817226D01*
X86204795Y-132986744D01*
X86126774Y-133175102D01*
X86087000Y-133375061D01*
X73025000Y-133375061D01*
X73025000Y-130454061D01*
X81184800Y-130454061D01*
X81184800Y-130657939D01*
X81224574Y-130857898D01*
X81302595Y-131046256D01*
X81415863Y-131215774D01*
X81560026Y-131359937D01*
X81729544Y-131473205D01*
X81917902Y-131551226D01*
X82117861Y-131591000D01*
X82321739Y-131591000D01*
X82521698Y-131551226D01*
X82710056Y-131473205D01*
X82879574Y-131359937D01*
X83023450Y-131216061D01*
X88246000Y-131216061D01*
X88246000Y-131419939D01*
X88285774Y-131619898D01*
X88363795Y-131808256D01*
X88477063Y-131977774D01*
X88621226Y-132121937D01*
X88790744Y-132235205D01*
X88979102Y-132313226D01*
X89179061Y-132353000D01*
X89382939Y-132353000D01*
X89582898Y-132313226D01*
X89771256Y-132235205D01*
X89940774Y-132121937D01*
X90084937Y-131977774D01*
X90198205Y-131808256D01*
X90276226Y-131619898D01*
X90309700Y-131451611D01*
X90343174Y-131619898D01*
X90421195Y-131808256D01*
X90534463Y-131977774D01*
X90678626Y-132121937D01*
X90848144Y-132235205D01*
X91036502Y-132313226D01*
X91236461Y-132353000D01*
X91440339Y-132353000D01*
X91640298Y-132313226D01*
X91828656Y-132235205D01*
X91998174Y-132121937D01*
X92142337Y-131977774D01*
X92255605Y-131808256D01*
X92333626Y-131619898D01*
X92373400Y-131419939D01*
X92373400Y-131216061D01*
X92333626Y-131016102D01*
X92255605Y-130827744D01*
X92142337Y-130658226D01*
X91998174Y-130514063D01*
X91828656Y-130400795D01*
X91640298Y-130322774D01*
X91440339Y-130283000D01*
X91236461Y-130283000D01*
X91036502Y-130322774D01*
X90848144Y-130400795D01*
X90678626Y-130514063D01*
X90534463Y-130658226D01*
X90421195Y-130827744D01*
X90343174Y-131016102D01*
X90309700Y-131184389D01*
X90276226Y-131016102D01*
X90198205Y-130827744D01*
X90084937Y-130658226D01*
X89940774Y-130514063D01*
X89771256Y-130400795D01*
X89582898Y-130322774D01*
X89382939Y-130283000D01*
X89179061Y-130283000D01*
X88979102Y-130322774D01*
X88790744Y-130400795D01*
X88621226Y-130514063D01*
X88477063Y-130658226D01*
X88363795Y-130827744D01*
X88285774Y-131016102D01*
X88246000Y-131216061D01*
X83023450Y-131216061D01*
X83023737Y-131215774D01*
X83137005Y-131046256D01*
X83215026Y-130857898D01*
X83254800Y-130657939D01*
X83254800Y-130454061D01*
X83215026Y-130254102D01*
X83150557Y-130098461D01*
X110420200Y-130098461D01*
X110420200Y-130302339D01*
X110459974Y-130502298D01*
X110537995Y-130690656D01*
X110651263Y-130860174D01*
X110795426Y-131004337D01*
X110964944Y-131117605D01*
X111153302Y-131195626D01*
X111353261Y-131235400D01*
X111557139Y-131235400D01*
X111757098Y-131195626D01*
X111945456Y-131117605D01*
X112114974Y-131004337D01*
X112259137Y-130860174D01*
X112372405Y-130690656D01*
X112450426Y-130502298D01*
X112490200Y-130302339D01*
X112490200Y-130098461D01*
X112450426Y-129898502D01*
X112396479Y-129768261D01*
X113519000Y-129768261D01*
X113519000Y-129972139D01*
X113558774Y-130172098D01*
X113636795Y-130360456D01*
X113750063Y-130529974D01*
X113894226Y-130674137D01*
X114063744Y-130787405D01*
X114252102Y-130865426D01*
X114452061Y-130905200D01*
X114655939Y-130905200D01*
X114855898Y-130865426D01*
X115044256Y-130787405D01*
X115213774Y-130674137D01*
X115357937Y-130529974D01*
X115471205Y-130360456D01*
X115549226Y-130172098D01*
X115589000Y-129972139D01*
X115589000Y-129768261D01*
X115549226Y-129568302D01*
X115471205Y-129379944D01*
X115357937Y-129210426D01*
X115213774Y-129066263D01*
X115044256Y-128952995D01*
X114855898Y-128874974D01*
X114655939Y-128835200D01*
X114452061Y-128835200D01*
X114252102Y-128874974D01*
X114063744Y-128952995D01*
X113894226Y-129066263D01*
X113750063Y-129210426D01*
X113636795Y-129379944D01*
X113558774Y-129568302D01*
X113519000Y-129768261D01*
X112396479Y-129768261D01*
X112372405Y-129710144D01*
X112259137Y-129540626D01*
X112114974Y-129396463D01*
X111945456Y-129283195D01*
X111757098Y-129205174D01*
X111557139Y-129165400D01*
X111353261Y-129165400D01*
X111153302Y-129205174D01*
X110964944Y-129283195D01*
X110795426Y-129396463D01*
X110651263Y-129540626D01*
X110537995Y-129710144D01*
X110459974Y-129898502D01*
X110420200Y-130098461D01*
X83150557Y-130098461D01*
X83137005Y-130065744D01*
X83023737Y-129896226D01*
X82965911Y-129838400D01*
X83109139Y-129838400D01*
X83309098Y-129798626D01*
X83497456Y-129720605D01*
X83666974Y-129607337D01*
X83811137Y-129463174D01*
X83924405Y-129293656D01*
X84002426Y-129105298D01*
X84042200Y-128905339D01*
X84042200Y-128828461D01*
X104654400Y-128828461D01*
X104654400Y-129032339D01*
X104694174Y-129232298D01*
X104772195Y-129420656D01*
X104885463Y-129590174D01*
X105029626Y-129734337D01*
X105199144Y-129847605D01*
X105387502Y-129925626D01*
X105587461Y-129965400D01*
X105791339Y-129965400D01*
X105991298Y-129925626D01*
X106179656Y-129847605D01*
X106349174Y-129734337D01*
X106493337Y-129590174D01*
X106606605Y-129420656D01*
X106684626Y-129232298D01*
X106724400Y-129032339D01*
X106724400Y-128828461D01*
X106684626Y-128628502D01*
X106606605Y-128440144D01*
X106493337Y-128270626D01*
X106349174Y-128126463D01*
X106179656Y-128013195D01*
X105991298Y-127935174D01*
X105791339Y-127895400D01*
X105587461Y-127895400D01*
X105387502Y-127935174D01*
X105199144Y-128013195D01*
X105029626Y-128126463D01*
X104885463Y-128270626D01*
X104772195Y-128440144D01*
X104694174Y-128628502D01*
X104654400Y-128828461D01*
X84042200Y-128828461D01*
X84042200Y-128701461D01*
X84002426Y-128501502D01*
X83924405Y-128313144D01*
X83811137Y-128143626D01*
X83666974Y-127999463D01*
X83497456Y-127886195D01*
X83309098Y-127808174D01*
X83109139Y-127768400D01*
X82905261Y-127768400D01*
X82705302Y-127808174D01*
X82516944Y-127886195D01*
X82347426Y-127999463D01*
X82203263Y-128143626D01*
X82089995Y-128313144D01*
X82011974Y-128501502D01*
X81972200Y-128701461D01*
X81972200Y-128905339D01*
X82011974Y-129105298D01*
X82089995Y-129293656D01*
X82203263Y-129463174D01*
X82261089Y-129521000D01*
X82117861Y-129521000D01*
X81917902Y-129560774D01*
X81729544Y-129638795D01*
X81560026Y-129752063D01*
X81415863Y-129896226D01*
X81302595Y-130065744D01*
X81224574Y-130254102D01*
X81184800Y-130454061D01*
X73025000Y-130454061D01*
X73025000Y-126263061D01*
X77527200Y-126263061D01*
X77527200Y-126466939D01*
X77566974Y-126666898D01*
X77644995Y-126855256D01*
X77758263Y-127024774D01*
X77902426Y-127168937D01*
X78071944Y-127282205D01*
X78260302Y-127360226D01*
X78460261Y-127400000D01*
X78664139Y-127400000D01*
X78864098Y-127360226D01*
X79052456Y-127282205D01*
X79221974Y-127168937D01*
X79366137Y-127024774D01*
X79479405Y-126855256D01*
X79557426Y-126666898D01*
X79587230Y-126517061D01*
X95966500Y-126517061D01*
X95966500Y-126720939D01*
X96006274Y-126920898D01*
X96084295Y-127109256D01*
X96197563Y-127278774D01*
X96341726Y-127422937D01*
X96511244Y-127536205D01*
X96699602Y-127614226D01*
X96899561Y-127654000D01*
X97103439Y-127654000D01*
X97303398Y-127614226D01*
X97491756Y-127536205D01*
X97661274Y-127422937D01*
X97805437Y-127278774D01*
X97918705Y-127109256D01*
X97996726Y-126920898D01*
X98036500Y-126720939D01*
X98036500Y-126517061D01*
X97996726Y-126317102D01*
X97918705Y-126128744D01*
X97805437Y-125959226D01*
X97661274Y-125815063D01*
X97491756Y-125701795D01*
X97303398Y-125623774D01*
X97103439Y-125584000D01*
X96899561Y-125584000D01*
X96699602Y-125623774D01*
X96511244Y-125701795D01*
X96341726Y-125815063D01*
X96197563Y-125959226D01*
X96084295Y-126128744D01*
X96006274Y-126317102D01*
X95966500Y-126517061D01*
X79587230Y-126517061D01*
X79597200Y-126466939D01*
X79597200Y-126263061D01*
X79557426Y-126063102D01*
X79479405Y-125874744D01*
X79366137Y-125705226D01*
X79221974Y-125561063D01*
X79052456Y-125447795D01*
X78864098Y-125369774D01*
X78664139Y-125330000D01*
X78460261Y-125330000D01*
X78260302Y-125369774D01*
X78071944Y-125447795D01*
X77902426Y-125561063D01*
X77758263Y-125705226D01*
X77644995Y-125874744D01*
X77566974Y-126063102D01*
X77527200Y-126263061D01*
X73025000Y-126263061D01*
X73025000Y-124104061D01*
X78149500Y-124104061D01*
X78149500Y-124307939D01*
X78189274Y-124507898D01*
X78267295Y-124696256D01*
X78380563Y-124865774D01*
X78524726Y-125009937D01*
X78694244Y-125123205D01*
X78882602Y-125201226D01*
X79082561Y-125241000D01*
X79286439Y-125241000D01*
X79486398Y-125201226D01*
X79674756Y-125123205D01*
X79844274Y-125009937D01*
X79988437Y-124865774D01*
X80101705Y-124696256D01*
X80179726Y-124507898D01*
X80219500Y-124307939D01*
X80219500Y-124104061D01*
X80209396Y-124053261D01*
X101390500Y-124053261D01*
X101390500Y-124257139D01*
X101430274Y-124457098D01*
X101508295Y-124645456D01*
X101621563Y-124814974D01*
X101765726Y-124959137D01*
X101935244Y-125072405D01*
X102123602Y-125150426D01*
X102323561Y-125190200D01*
X102527439Y-125190200D01*
X102727398Y-125150426D01*
X102915756Y-125072405D01*
X103085274Y-124959137D01*
X103229437Y-124814974D01*
X103342705Y-124645456D01*
X103420726Y-124457098D01*
X103460500Y-124257139D01*
X103460500Y-124053261D01*
X110471000Y-124053261D01*
X110471000Y-124257139D01*
X110510774Y-124457098D01*
X110588795Y-124645456D01*
X110702063Y-124814974D01*
X110846226Y-124959137D01*
X111015744Y-125072405D01*
X111204102Y-125150426D01*
X111404061Y-125190200D01*
X111607939Y-125190200D01*
X111807898Y-125150426D01*
X111996256Y-125072405D01*
X112165774Y-124959137D01*
X112309937Y-124814974D01*
X112423205Y-124645456D01*
X112501226Y-124457098D01*
X112541000Y-124257139D01*
X112541000Y-124053261D01*
X112501226Y-123853302D01*
X112423205Y-123664944D01*
X112309937Y-123495426D01*
X112165774Y-123351263D01*
X111996256Y-123237995D01*
X111807898Y-123159974D01*
X111607939Y-123120200D01*
X111404061Y-123120200D01*
X111204102Y-123159974D01*
X111015744Y-123237995D01*
X110846226Y-123351263D01*
X110702063Y-123495426D01*
X110588795Y-123664944D01*
X110510774Y-123853302D01*
X110471000Y-124053261D01*
X103460500Y-124053261D01*
X103420726Y-123853302D01*
X103342705Y-123664944D01*
X103229437Y-123495426D01*
X103085274Y-123351263D01*
X102915756Y-123237995D01*
X102727398Y-123159974D01*
X102527439Y-123120200D01*
X102323561Y-123120200D01*
X102123602Y-123159974D01*
X101935244Y-123237995D01*
X101765726Y-123351263D01*
X101621563Y-123495426D01*
X101508295Y-123664944D01*
X101430274Y-123853302D01*
X101390500Y-124053261D01*
X80209396Y-124053261D01*
X80179726Y-123904102D01*
X80101705Y-123715744D01*
X79988437Y-123546226D01*
X79844274Y-123402063D01*
X79674756Y-123288795D01*
X79486398Y-123210774D01*
X79286439Y-123171000D01*
X79082561Y-123171000D01*
X78882602Y-123210774D01*
X78694244Y-123288795D01*
X78524726Y-123402063D01*
X78380563Y-123546226D01*
X78267295Y-123715744D01*
X78189274Y-123904102D01*
X78149500Y-124104061D01*
X73025000Y-124104061D01*
X73025000Y-120802061D01*
X93249800Y-120802061D01*
X93249800Y-121005939D01*
X93289574Y-121205898D01*
X93367595Y-121394256D01*
X93480863Y-121563774D01*
X93625026Y-121707937D01*
X93794544Y-121821205D01*
X93982902Y-121899226D01*
X94182861Y-121939000D01*
X94386739Y-121939000D01*
X94586698Y-121899226D01*
X94775056Y-121821205D01*
X94944574Y-121707937D01*
X95088737Y-121563774D01*
X95130974Y-121500561D01*
X139427000Y-121500561D01*
X139427000Y-121704439D01*
X139466774Y-121904398D01*
X139544795Y-122092756D01*
X139658063Y-122262274D01*
X139802226Y-122406437D01*
X139971744Y-122519705D01*
X140160102Y-122597726D01*
X140360061Y-122637500D01*
X140563939Y-122637500D01*
X140763898Y-122597726D01*
X140952256Y-122519705D01*
X141121774Y-122406437D01*
X141265937Y-122262274D01*
X141379205Y-122092756D01*
X141457226Y-121904398D01*
X141497000Y-121704439D01*
X141497000Y-121500561D01*
X141457226Y-121300602D01*
X141379205Y-121112244D01*
X141265937Y-120942726D01*
X141121774Y-120798563D01*
X140952256Y-120685295D01*
X140763898Y-120607274D01*
X140563939Y-120567500D01*
X140360061Y-120567500D01*
X140160102Y-120607274D01*
X139971744Y-120685295D01*
X139802226Y-120798563D01*
X139658063Y-120942726D01*
X139544795Y-121112244D01*
X139466774Y-121300602D01*
X139427000Y-121500561D01*
X95130974Y-121500561D01*
X95202005Y-121394256D01*
X95280026Y-121205898D01*
X95319800Y-121005939D01*
X95319800Y-120802061D01*
X95280026Y-120602102D01*
X95202005Y-120413744D01*
X95088737Y-120244226D01*
X94944574Y-120100063D01*
X94775056Y-119986795D01*
X94586698Y-119908774D01*
X94386739Y-119869000D01*
X94182861Y-119869000D01*
X93982902Y-119908774D01*
X93794544Y-119986795D01*
X93625026Y-120100063D01*
X93480863Y-120244226D01*
X93367595Y-120413744D01*
X93289574Y-120602102D01*
X93249800Y-120802061D01*
X73025000Y-120802061D01*
X73025000Y-118897061D01*
X87801500Y-118897061D01*
X87801500Y-119100939D01*
X87841274Y-119300898D01*
X87919295Y-119489256D01*
X88032563Y-119658774D01*
X88176726Y-119802937D01*
X88346244Y-119916205D01*
X88534602Y-119994226D01*
X88734561Y-120034000D01*
X88938439Y-120034000D01*
X89138398Y-119994226D01*
X89326756Y-119916205D01*
X89496274Y-119802937D01*
X89640437Y-119658774D01*
X89753705Y-119489256D01*
X89831726Y-119300898D01*
X89871500Y-119100939D01*
X89871500Y-118897061D01*
X89831726Y-118697102D01*
X89753705Y-118508744D01*
X89673736Y-118389061D01*
X104565500Y-118389061D01*
X104565500Y-118592939D01*
X104605274Y-118792898D01*
X104683295Y-118981256D01*
X104796563Y-119150774D01*
X104940726Y-119294937D01*
X105110244Y-119408205D01*
X105298602Y-119486226D01*
X105498561Y-119526000D01*
X105702439Y-119526000D01*
X105902398Y-119486226D01*
X106090756Y-119408205D01*
X106260274Y-119294937D01*
X106404437Y-119150774D01*
X106517705Y-118981256D01*
X106595726Y-118792898D01*
X106625530Y-118643061D01*
X109582000Y-118643061D01*
X109582000Y-118846939D01*
X109621774Y-119046898D01*
X109699795Y-119235256D01*
X109813063Y-119404774D01*
X109957226Y-119548937D01*
X110126744Y-119662205D01*
X110315102Y-119740226D01*
X110515061Y-119780000D01*
X110718939Y-119780000D01*
X110918898Y-119740226D01*
X111107256Y-119662205D01*
X111276774Y-119548937D01*
X111420937Y-119404774D01*
X111534205Y-119235256D01*
X111612226Y-119046898D01*
X111652000Y-118846939D01*
X111652000Y-118643061D01*
X111612226Y-118443102D01*
X111534205Y-118254744D01*
X111420937Y-118085226D01*
X111276774Y-117941063D01*
X111107256Y-117827795D01*
X110918898Y-117749774D01*
X110718939Y-117710000D01*
X110515061Y-117710000D01*
X110315102Y-117749774D01*
X110126744Y-117827795D01*
X109957226Y-117941063D01*
X109813063Y-118085226D01*
X109699795Y-118254744D01*
X109621774Y-118443102D01*
X109582000Y-118643061D01*
X106625530Y-118643061D01*
X106635500Y-118592939D01*
X106635500Y-118389061D01*
X106595726Y-118189102D01*
X106517705Y-118000744D01*
X106404437Y-117831226D01*
X106260274Y-117687063D01*
X106090756Y-117573795D01*
X105902398Y-117495774D01*
X105702439Y-117456000D01*
X105498561Y-117456000D01*
X105298602Y-117495774D01*
X105110244Y-117573795D01*
X104940726Y-117687063D01*
X104796563Y-117831226D01*
X104683295Y-118000744D01*
X104605274Y-118189102D01*
X104565500Y-118389061D01*
X89673736Y-118389061D01*
X89640437Y-118339226D01*
X89496274Y-118195063D01*
X89326756Y-118081795D01*
X89138398Y-118003774D01*
X88938439Y-117964000D01*
X88734561Y-117964000D01*
X88534602Y-118003774D01*
X88346244Y-118081795D01*
X88176726Y-118195063D01*
X88032563Y-118339226D01*
X87919295Y-118508744D01*
X87841274Y-118697102D01*
X87801500Y-118897061D01*
X73025000Y-118897061D01*
X73025000Y-116458661D01*
X75050700Y-116458661D01*
X75050700Y-116662539D01*
X75090474Y-116862498D01*
X75168495Y-117050856D01*
X75281763Y-117220374D01*
X75425926Y-117364537D01*
X75595444Y-117477805D01*
X75783802Y-117555826D01*
X75983761Y-117595600D01*
X76187639Y-117595600D01*
X76387598Y-117555826D01*
X76575956Y-117477805D01*
X76732716Y-117373061D01*
X86150500Y-117373061D01*
X86150500Y-117576939D01*
X86190274Y-117776898D01*
X86268295Y-117965256D01*
X86381563Y-118134774D01*
X86525726Y-118278937D01*
X86695244Y-118392205D01*
X86883602Y-118470226D01*
X87083561Y-118510000D01*
X87287439Y-118510000D01*
X87487398Y-118470226D01*
X87675756Y-118392205D01*
X87845274Y-118278937D01*
X87989437Y-118134774D01*
X88102705Y-117965256D01*
X88180726Y-117776898D01*
X88220500Y-117576939D01*
X88220500Y-117373061D01*
X88180726Y-117173102D01*
X88102705Y-116984744D01*
X87989437Y-116815226D01*
X87845274Y-116671063D01*
X87675756Y-116557795D01*
X87487398Y-116479774D01*
X87287439Y-116440000D01*
X87083561Y-116440000D01*
X86883602Y-116479774D01*
X86695244Y-116557795D01*
X86525726Y-116671063D01*
X86381563Y-116815226D01*
X86268295Y-116984744D01*
X86190274Y-117173102D01*
X86150500Y-117373061D01*
X76732716Y-117373061D01*
X76745474Y-117364537D01*
X76889637Y-117220374D01*
X77002905Y-117050856D01*
X77080926Y-116862498D01*
X77120700Y-116662539D01*
X77120700Y-116458661D01*
X77105543Y-116382461D01*
X93580000Y-116382461D01*
X93580000Y-116586339D01*
X93619774Y-116786298D01*
X93697795Y-116974656D01*
X93811063Y-117144174D01*
X93955226Y-117288337D01*
X94124744Y-117401605D01*
X94313102Y-117479626D01*
X94513061Y-117519400D01*
X94716939Y-117519400D01*
X94916898Y-117479626D01*
X95105256Y-117401605D01*
X95274774Y-117288337D01*
X95418937Y-117144174D01*
X95532205Y-116974656D01*
X95610226Y-116786298D01*
X95650000Y-116586339D01*
X95650000Y-116382461D01*
X95629235Y-116278063D01*
X95966500Y-116278063D01*
X95966500Y-116481941D01*
X96006274Y-116681900D01*
X96084295Y-116870258D01*
X96197563Y-117039776D01*
X96341726Y-117183939D01*
X96511244Y-117297207D01*
X96699602Y-117375228D01*
X96899561Y-117415002D01*
X97103439Y-117415002D01*
X97303398Y-117375228D01*
X97491756Y-117297207D01*
X97661274Y-117183939D01*
X97805437Y-117039776D01*
X97918705Y-116870258D01*
X97996726Y-116681900D01*
X98036500Y-116481941D01*
X98036500Y-116278063D01*
X98034312Y-116267061D01*
X99353847Y-116267061D01*
X99353847Y-116470939D01*
X99393621Y-116670898D01*
X99471642Y-116859256D01*
X99584910Y-117028774D01*
X99729073Y-117172937D01*
X99898591Y-117286205D01*
X100086949Y-117364226D01*
X100286908Y-117404000D01*
X100490786Y-117404000D01*
X100690745Y-117364226D01*
X100879103Y-117286205D01*
X101033553Y-117183005D01*
X101051573Y-117209974D01*
X101195736Y-117354137D01*
X101365254Y-117467405D01*
X101553612Y-117545426D01*
X101753571Y-117585200D01*
X101957449Y-117585200D01*
X102157408Y-117545426D01*
X102345766Y-117467405D01*
X102515284Y-117354137D01*
X102659447Y-117209974D01*
X102772715Y-117040456D01*
X102850736Y-116852098D01*
X102890510Y-116652139D01*
X102890510Y-116636461D01*
X108642200Y-116636461D01*
X108642200Y-116840339D01*
X108681974Y-117040298D01*
X108759995Y-117228656D01*
X108873263Y-117398174D01*
X109017426Y-117542337D01*
X109186944Y-117655605D01*
X109375302Y-117733626D01*
X109575261Y-117773400D01*
X109779139Y-117773400D01*
X109979098Y-117733626D01*
X110167456Y-117655605D01*
X110336974Y-117542337D01*
X110481137Y-117398174D01*
X110594405Y-117228656D01*
X110672426Y-117040298D01*
X110712200Y-116840339D01*
X110712200Y-116636461D01*
X110672426Y-116436502D01*
X110594405Y-116248144D01*
X110481137Y-116078626D01*
X110336974Y-115934463D01*
X110167456Y-115821195D01*
X109979098Y-115743174D01*
X109779139Y-115703400D01*
X109575261Y-115703400D01*
X109375302Y-115743174D01*
X109186944Y-115821195D01*
X109017426Y-115934463D01*
X108873263Y-116078626D01*
X108759995Y-116248144D01*
X108681974Y-116436502D01*
X108642200Y-116636461D01*
X102890510Y-116636461D01*
X102890510Y-116448261D01*
X102850736Y-116248302D01*
X102772715Y-116059944D01*
X102659447Y-115890426D01*
X102515284Y-115746263D01*
X102345766Y-115632995D01*
X102157408Y-115554974D01*
X101957449Y-115515200D01*
X101753571Y-115515200D01*
X101553612Y-115554974D01*
X101365254Y-115632995D01*
X101210804Y-115736195D01*
X101192784Y-115709226D01*
X101048621Y-115565063D01*
X100879103Y-115451795D01*
X100690745Y-115373774D01*
X100490786Y-115334000D01*
X100286908Y-115334000D01*
X100086949Y-115373774D01*
X99898591Y-115451795D01*
X99729073Y-115565063D01*
X99584910Y-115709226D01*
X99471642Y-115878744D01*
X99393621Y-116067102D01*
X99353847Y-116267061D01*
X98034312Y-116267061D01*
X97996726Y-116078104D01*
X97918705Y-115889746D01*
X97805437Y-115720228D01*
X97661274Y-115576065D01*
X97491756Y-115462797D01*
X97303398Y-115384776D01*
X97103439Y-115345002D01*
X96899561Y-115345002D01*
X96699602Y-115384776D01*
X96511244Y-115462797D01*
X96341726Y-115576065D01*
X96197563Y-115720228D01*
X96084295Y-115889746D01*
X96006274Y-116078104D01*
X95966500Y-116278063D01*
X95629235Y-116278063D01*
X95610226Y-116182502D01*
X95532205Y-115994144D01*
X95418937Y-115824626D01*
X95274774Y-115680463D01*
X95105256Y-115567195D01*
X94916898Y-115489174D01*
X94716939Y-115449400D01*
X94513061Y-115449400D01*
X94313102Y-115489174D01*
X94124744Y-115567195D01*
X93955226Y-115680463D01*
X93811063Y-115824626D01*
X93697795Y-115994144D01*
X93619774Y-116182502D01*
X93580000Y-116382461D01*
X77105543Y-116382461D01*
X77080926Y-116258702D01*
X77002905Y-116070344D01*
X76889637Y-115900826D01*
X76745474Y-115756663D01*
X76575956Y-115643395D01*
X76387598Y-115565374D01*
X76187639Y-115525600D01*
X75983761Y-115525600D01*
X75783802Y-115565374D01*
X75595444Y-115643395D01*
X75425926Y-115756663D01*
X75281763Y-115900826D01*
X75168495Y-116070344D01*
X75090474Y-116258702D01*
X75050700Y-116458661D01*
X73025000Y-116458661D01*
X73025000Y-114604461D01*
X81235600Y-114604461D01*
X81235600Y-114808339D01*
X81275374Y-115008298D01*
X81353395Y-115196656D01*
X81466663Y-115366174D01*
X81610826Y-115510337D01*
X81780344Y-115623605D01*
X81968702Y-115701626D01*
X82168661Y-115741400D01*
X82372539Y-115741400D01*
X82572498Y-115701626D01*
X82760856Y-115623605D01*
X82930374Y-115510337D01*
X83074537Y-115366174D01*
X83187805Y-115196656D01*
X83265826Y-115008298D01*
X83305600Y-114808339D01*
X83305600Y-114604461D01*
X83265826Y-114404502D01*
X83187805Y-114216144D01*
X83074537Y-114046626D01*
X82930374Y-113902463D01*
X82760856Y-113789195D01*
X82572498Y-113711174D01*
X82372539Y-113671400D01*
X82168661Y-113671400D01*
X81968702Y-113711174D01*
X81780344Y-113789195D01*
X81610826Y-113902463D01*
X81466663Y-114046626D01*
X81353395Y-114216144D01*
X81275374Y-114404502D01*
X81235600Y-114604461D01*
X73025000Y-114604461D01*
X73025000Y-113359861D01*
X86341000Y-113359861D01*
X86341000Y-113563739D01*
X86380774Y-113763698D01*
X86458795Y-113952056D01*
X86572063Y-114121574D01*
X86716226Y-114265737D01*
X86885744Y-114379005D01*
X87074102Y-114457026D01*
X87274061Y-114496800D01*
X87477939Y-114496800D01*
X87677898Y-114457026D01*
X87866256Y-114379005D01*
X88035774Y-114265737D01*
X88179937Y-114121574D01*
X88293205Y-113952056D01*
X88371226Y-113763698D01*
X88411000Y-113563739D01*
X88411000Y-113372561D01*
X102820500Y-113372561D01*
X102820500Y-113576439D01*
X102860274Y-113776398D01*
X102938295Y-113964756D01*
X103051563Y-114134274D01*
X103195726Y-114278437D01*
X103365244Y-114391705D01*
X103553602Y-114469726D01*
X103753561Y-114509500D01*
X103957439Y-114509500D01*
X104157398Y-114469726D01*
X104345756Y-114391705D01*
X104515274Y-114278437D01*
X104659437Y-114134274D01*
X104772705Y-113964756D01*
X104850726Y-113776398D01*
X104890500Y-113576439D01*
X104890500Y-113372561D01*
X104850726Y-113172602D01*
X104772705Y-112984244D01*
X104659437Y-112814726D01*
X104515274Y-112670563D01*
X104345756Y-112557295D01*
X104259729Y-112521661D01*
X112045800Y-112521661D01*
X112045800Y-112725539D01*
X112085574Y-112925498D01*
X112163595Y-113113856D01*
X112276863Y-113283374D01*
X112421026Y-113427537D01*
X112590544Y-113540805D01*
X112778902Y-113618826D01*
X112978861Y-113658600D01*
X113182739Y-113658600D01*
X113382698Y-113618826D01*
X113571056Y-113540805D01*
X113740574Y-113427537D01*
X113884737Y-113283374D01*
X113998005Y-113113856D01*
X114076026Y-112925498D01*
X114115800Y-112725539D01*
X114115800Y-112521661D01*
X114076026Y-112321702D01*
X113998005Y-112133344D01*
X113884737Y-111963826D01*
X113740574Y-111819663D01*
X113571056Y-111706395D01*
X113382698Y-111628374D01*
X113182739Y-111588600D01*
X112978861Y-111588600D01*
X112778902Y-111628374D01*
X112590544Y-111706395D01*
X112421026Y-111819663D01*
X112276863Y-111963826D01*
X112163595Y-112133344D01*
X112085574Y-112321702D01*
X112045800Y-112521661D01*
X104259729Y-112521661D01*
X104157398Y-112479274D01*
X103957439Y-112439500D01*
X103753561Y-112439500D01*
X103553602Y-112479274D01*
X103365244Y-112557295D01*
X103195726Y-112670563D01*
X103051563Y-112814726D01*
X102938295Y-112984244D01*
X102860274Y-113172602D01*
X102820500Y-113372561D01*
X88411000Y-113372561D01*
X88411000Y-113359861D01*
X88371226Y-113159902D01*
X88293205Y-112971544D01*
X88179937Y-112802026D01*
X88035774Y-112657863D01*
X87866256Y-112544595D01*
X87677898Y-112466574D01*
X87477939Y-112426800D01*
X87274061Y-112426800D01*
X87074102Y-112466574D01*
X86885744Y-112544595D01*
X86716226Y-112657863D01*
X86572063Y-112802026D01*
X86458795Y-112971544D01*
X86380774Y-113159902D01*
X86341000Y-113359861D01*
X73025000Y-113359861D01*
X73025000Y-111277061D01*
X85172600Y-111277061D01*
X85172600Y-111480939D01*
X85212374Y-111680898D01*
X85290395Y-111869256D01*
X85403663Y-112038774D01*
X85547826Y-112182937D01*
X85717344Y-112296205D01*
X85905702Y-112374226D01*
X86105661Y-112414000D01*
X86309539Y-112414000D01*
X86509498Y-112374226D01*
X86697856Y-112296205D01*
X86867374Y-112182937D01*
X87011537Y-112038774D01*
X87124805Y-111869256D01*
X87202826Y-111680898D01*
X87242600Y-111480939D01*
X87242600Y-111454861D01*
X90913000Y-111454861D01*
X90913000Y-111658739D01*
X90952774Y-111858698D01*
X91030795Y-112047056D01*
X91144063Y-112216574D01*
X91288226Y-112360737D01*
X91457744Y-112474005D01*
X91646102Y-112552026D01*
X91846061Y-112591800D01*
X92049939Y-112591800D01*
X92249898Y-112552026D01*
X92438256Y-112474005D01*
X92607774Y-112360737D01*
X92751937Y-112216574D01*
X92865205Y-112047056D01*
X92943226Y-111858698D01*
X92983000Y-111658739D01*
X92983000Y-111454861D01*
X92943226Y-111254902D01*
X92865205Y-111066544D01*
X92751937Y-110897026D01*
X92607774Y-110752863D01*
X92438256Y-110639595D01*
X92249898Y-110561574D01*
X92049939Y-110521800D01*
X91846061Y-110521800D01*
X91646102Y-110561574D01*
X91457744Y-110639595D01*
X91288226Y-110752863D01*
X91144063Y-110897026D01*
X91030795Y-111066544D01*
X90952774Y-111254902D01*
X90913000Y-111454861D01*
X87242600Y-111454861D01*
X87242600Y-111277061D01*
X87202826Y-111077102D01*
X87124805Y-110888744D01*
X87011537Y-110719226D01*
X86867374Y-110575063D01*
X86697856Y-110461795D01*
X86642489Y-110438861D01*
X99879200Y-110438861D01*
X99879200Y-110642739D01*
X99918974Y-110842698D01*
X99996995Y-111031056D01*
X100110263Y-111200574D01*
X100254426Y-111344737D01*
X100423944Y-111458005D01*
X100612302Y-111536026D01*
X100812261Y-111575800D01*
X101016139Y-111575800D01*
X101216098Y-111536026D01*
X101404456Y-111458005D01*
X101573974Y-111344737D01*
X101718137Y-111200574D01*
X101831405Y-111031056D01*
X101909426Y-110842698D01*
X101949200Y-110642739D01*
X101949200Y-110438861D01*
X101939096Y-110388061D01*
X102774800Y-110388061D01*
X102774800Y-110591939D01*
X102814574Y-110791898D01*
X102892595Y-110980256D01*
X103005863Y-111149774D01*
X103150026Y-111293937D01*
X103319544Y-111407205D01*
X103507902Y-111485226D01*
X103707861Y-111525000D01*
X103911739Y-111525000D01*
X104111698Y-111485226D01*
X104300056Y-111407205D01*
X104469574Y-111293937D01*
X104562650Y-111200861D01*
X106534000Y-111200861D01*
X106534000Y-111404739D01*
X106573774Y-111604698D01*
X106651795Y-111793056D01*
X106765063Y-111962574D01*
X106909226Y-112106737D01*
X107078744Y-112220005D01*
X107267102Y-112298026D01*
X107467061Y-112337800D01*
X107670939Y-112337800D01*
X107870898Y-112298026D01*
X108059256Y-112220005D01*
X108228774Y-112106737D01*
X108372937Y-111962574D01*
X108486205Y-111793056D01*
X108564226Y-111604698D01*
X108604000Y-111404739D01*
X108604000Y-111200861D01*
X108564226Y-111000902D01*
X108486205Y-110812544D01*
X108372937Y-110643026D01*
X108228774Y-110498863D01*
X108059256Y-110385595D01*
X107870898Y-110307574D01*
X107670939Y-110267800D01*
X107467061Y-110267800D01*
X107267102Y-110307574D01*
X107078744Y-110385595D01*
X106909226Y-110498863D01*
X106765063Y-110643026D01*
X106651795Y-110812544D01*
X106573774Y-111000902D01*
X106534000Y-111200861D01*
X104562650Y-111200861D01*
X104613737Y-111149774D01*
X104727005Y-110980256D01*
X104805026Y-110791898D01*
X104844800Y-110591939D01*
X104844800Y-110388061D01*
X104805026Y-110188102D01*
X104727005Y-109999744D01*
X104613737Y-109830226D01*
X104469574Y-109686063D01*
X104300056Y-109572795D01*
X104111698Y-109494774D01*
X103911739Y-109455000D01*
X103707861Y-109455000D01*
X103507902Y-109494774D01*
X103319544Y-109572795D01*
X103150026Y-109686063D01*
X103005863Y-109830226D01*
X102892595Y-109999744D01*
X102814574Y-110188102D01*
X102774800Y-110388061D01*
X101939096Y-110388061D01*
X101909426Y-110238902D01*
X101831405Y-110050544D01*
X101718137Y-109881026D01*
X101573974Y-109736863D01*
X101404456Y-109623595D01*
X101216098Y-109545574D01*
X101016139Y-109505800D01*
X100812261Y-109505800D01*
X100612302Y-109545574D01*
X100423944Y-109623595D01*
X100254426Y-109736863D01*
X100110263Y-109881026D01*
X99996995Y-110050544D01*
X99918974Y-110238902D01*
X99879200Y-110438861D01*
X86642489Y-110438861D01*
X86509498Y-110383774D01*
X86309539Y-110344000D01*
X86105661Y-110344000D01*
X85905702Y-110383774D01*
X85717344Y-110461795D01*
X85547826Y-110575063D01*
X85403663Y-110719226D01*
X85290395Y-110888744D01*
X85212374Y-111077102D01*
X85172600Y-111277061D01*
X73025000Y-111277061D01*
X73025000Y-108813261D01*
X93529200Y-108813261D01*
X93529200Y-109017139D01*
X93568974Y-109217098D01*
X93646995Y-109405456D01*
X93760263Y-109574974D01*
X93904426Y-109719137D01*
X94073944Y-109832405D01*
X94262302Y-109910426D01*
X94462261Y-109950200D01*
X94666139Y-109950200D01*
X94866098Y-109910426D01*
X95054456Y-109832405D01*
X95223974Y-109719137D01*
X95368137Y-109574974D01*
X95481405Y-109405456D01*
X95559426Y-109217098D01*
X95599200Y-109017139D01*
X95599200Y-108813261D01*
X95559426Y-108613302D01*
X95481405Y-108424944D01*
X95368137Y-108255426D01*
X95223974Y-108111263D01*
X95054456Y-107997995D01*
X94866098Y-107919974D01*
X94666139Y-107880200D01*
X94462261Y-107880200D01*
X94262302Y-107919974D01*
X94073944Y-107997995D01*
X93904426Y-108111263D01*
X93760263Y-108255426D01*
X93646995Y-108424944D01*
X93568974Y-108613302D01*
X93529200Y-108813261D01*
X73025000Y-108813261D01*
X73025000Y-107848061D01*
X96475600Y-107848061D01*
X96475600Y-108051939D01*
X96515374Y-108251898D01*
X96593395Y-108440256D01*
X96706663Y-108609774D01*
X96850826Y-108753937D01*
X97020344Y-108867205D01*
X97208702Y-108945226D01*
X97408661Y-108985000D01*
X97612539Y-108985000D01*
X97812498Y-108945226D01*
X98000856Y-108867205D01*
X98170374Y-108753937D01*
X98314537Y-108609774D01*
X98427805Y-108440256D01*
X98505826Y-108251898D01*
X98545600Y-108051939D01*
X98545600Y-107848061D01*
X98505826Y-107648102D01*
X98427805Y-107459744D01*
X98314537Y-107290226D01*
X98170374Y-107146063D01*
X98000856Y-107032795D01*
X97812498Y-106954774D01*
X97612539Y-106915000D01*
X97408661Y-106915000D01*
X97208702Y-106954774D01*
X97020344Y-107032795D01*
X96850826Y-107146063D01*
X96706663Y-107290226D01*
X96593395Y-107459744D01*
X96515374Y-107648102D01*
X96475600Y-107848061D01*
X73025000Y-107848061D01*
X73025000Y-106070061D01*
X92614800Y-106070061D01*
X92614800Y-106273939D01*
X92654574Y-106473898D01*
X92732595Y-106662256D01*
X92845863Y-106831774D01*
X92990026Y-106975937D01*
X93159544Y-107089205D01*
X93347902Y-107167226D01*
X93547861Y-107207000D01*
X93751739Y-107207000D01*
X93951698Y-107167226D01*
X94140056Y-107089205D01*
X94309574Y-106975937D01*
X94453737Y-106831774D01*
X94567005Y-106662256D01*
X94645026Y-106473898D01*
X94684800Y-106273939D01*
X94684800Y-106095461D01*
X100590400Y-106095461D01*
X100590400Y-106299339D01*
X100630174Y-106499298D01*
X100708195Y-106687656D01*
X100821463Y-106857174D01*
X100965626Y-107001337D01*
X101135144Y-107114605D01*
X101323502Y-107192626D01*
X101523461Y-107232400D01*
X101727339Y-107232400D01*
X101927298Y-107192626D01*
X102115656Y-107114605D01*
X102285174Y-107001337D01*
X102429337Y-106857174D01*
X102542605Y-106687656D01*
X102588421Y-106577047D01*
X102613195Y-106636856D01*
X102726463Y-106806374D01*
X102870626Y-106950537D01*
X103040144Y-107063805D01*
X103228502Y-107141826D01*
X103428461Y-107181600D01*
X103632339Y-107181600D01*
X103832298Y-107141826D01*
X104020656Y-107063805D01*
X104190174Y-106950537D01*
X104334337Y-106806374D01*
X104447605Y-106636856D01*
X104525626Y-106448498D01*
X104565400Y-106248539D01*
X104565400Y-106044661D01*
X104525626Y-105844702D01*
X104447605Y-105656344D01*
X104334337Y-105486826D01*
X104190174Y-105342663D01*
X104020656Y-105229395D01*
X103832298Y-105151374D01*
X103632339Y-105111600D01*
X103428461Y-105111600D01*
X103228502Y-105151374D01*
X103040144Y-105229395D01*
X102870626Y-105342663D01*
X102726463Y-105486826D01*
X102613195Y-105656344D01*
X102567379Y-105766953D01*
X102542605Y-105707144D01*
X102429337Y-105537626D01*
X102285174Y-105393463D01*
X102115656Y-105280195D01*
X101927298Y-105202174D01*
X101727339Y-105162400D01*
X101523461Y-105162400D01*
X101323502Y-105202174D01*
X101135144Y-105280195D01*
X100965626Y-105393463D01*
X100821463Y-105537626D01*
X100708195Y-105707144D01*
X100630174Y-105895502D01*
X100590400Y-106095461D01*
X94684800Y-106095461D01*
X94684800Y-106070061D01*
X94645026Y-105870102D01*
X94567005Y-105681744D01*
X94453737Y-105512226D01*
X94309574Y-105368063D01*
X94140056Y-105254795D01*
X93951698Y-105176774D01*
X93751739Y-105137000D01*
X93547861Y-105137000D01*
X93347902Y-105176774D01*
X93159544Y-105254795D01*
X92990026Y-105368063D01*
X92845863Y-105512226D01*
X92732595Y-105681744D01*
X92654574Y-105870102D01*
X92614800Y-106070061D01*
X73025000Y-106070061D01*
X73025000Y-104444461D01*
X97745600Y-104444461D01*
X97745600Y-104648339D01*
X97785374Y-104848298D01*
X97863395Y-105036656D01*
X97976663Y-105206174D01*
X98120826Y-105350337D01*
X98290344Y-105463605D01*
X98478702Y-105541626D01*
X98678661Y-105581400D01*
X98882539Y-105581400D01*
X99082498Y-105541626D01*
X99270856Y-105463605D01*
X99440374Y-105350337D01*
X99584537Y-105206174D01*
X99697805Y-105036656D01*
X99775826Y-104848298D01*
X99815600Y-104648339D01*
X99815600Y-104444461D01*
X99775826Y-104244502D01*
X99697805Y-104056144D01*
X99584537Y-103886626D01*
X99440374Y-103742463D01*
X99270856Y-103629195D01*
X99082498Y-103551174D01*
X98882539Y-103511400D01*
X98678661Y-103511400D01*
X98478702Y-103551174D01*
X98290344Y-103629195D01*
X98120826Y-103742463D01*
X97976663Y-103886626D01*
X97863395Y-104056144D01*
X97785374Y-104244502D01*
X97745600Y-104444461D01*
X73025000Y-104444461D01*
X73025000Y-102442000D01*
X73157963Y-102442000D01*
X73418780Y-102390120D01*
X73664465Y-102288354D01*
X73885575Y-102140613D01*
X74073613Y-101952575D01*
X74221354Y-101731465D01*
X74295000Y-101553668D01*
X74368646Y-101731465D01*
X74516387Y-101952575D01*
X74704425Y-102140613D01*
X74925535Y-102288354D01*
X75171220Y-102390120D01*
X75432037Y-102442000D01*
X75697963Y-102442000D01*
X75958780Y-102390120D01*
X76204465Y-102288354D01*
X76425575Y-102140613D01*
X76613613Y-101952575D01*
X76761354Y-101731465D01*
X76863120Y-101485780D01*
X76915000Y-101224963D01*
X76915000Y-100959037D01*
X76863120Y-100698220D01*
X76761354Y-100452535D01*
X76613613Y-100231425D01*
X76425575Y-100043387D01*
X76204465Y-99895646D01*
X75958780Y-99793880D01*
X75697963Y-99742000D01*
X75432037Y-99742000D01*
X75171220Y-99793880D01*
X74925535Y-99895646D01*
X74704425Y-100043387D01*
X74516387Y-100231425D01*
X74368646Y-100452535D01*
X74295000Y-100630332D01*
X74221354Y-100452535D01*
X74073613Y-100231425D01*
X73885575Y-100043387D01*
X73664465Y-99895646D01*
X73418780Y-99793880D01*
X73157963Y-99742000D01*
X73025000Y-99742000D01*
X73025000Y-99569760D01*
X111119400Y-99569760D01*
X111119400Y-100034640D01*
X111210094Y-100490587D01*
X111387995Y-100920079D01*
X111646268Y-101306612D01*
X111974988Y-101635332D01*
X112361521Y-101893605D01*
X112791013Y-102071506D01*
X113246960Y-102162200D01*
X113711840Y-102162200D01*
X114167787Y-102071506D01*
X114597279Y-101893605D01*
X114983812Y-101635332D01*
X115312532Y-101306612D01*
X115570805Y-100920079D01*
X115748706Y-100490587D01*
X115839400Y-100034640D01*
X115839400Y-99569760D01*
X115748706Y-99113813D01*
X115570805Y-98684321D01*
X115312532Y-98297788D01*
X114983812Y-97969068D01*
X114597279Y-97710795D01*
X114167787Y-97532894D01*
X113711840Y-97442200D01*
X113246960Y-97442200D01*
X112791013Y-97532894D01*
X112361521Y-97710795D01*
X111974988Y-97969068D01*
X111646268Y-98297788D01*
X111387995Y-98684321D01*
X111210094Y-99113813D01*
X111119400Y-99569760D01*
X73025000Y-99569760D01*
X73025000Y-96610600D01*
X85839405Y-96610600D01*
X85895830Y-96841821D01*
X86130008Y-96950217D01*
X86380833Y-97010845D01*
X86638665Y-97021374D01*
X86893598Y-96981400D01*
X87135833Y-96892459D01*
X87230570Y-96841821D01*
X87286995Y-96610600D01*
X86563200Y-95886805D01*
X85839405Y-96610600D01*
X73025000Y-96610600D01*
X73025000Y-95782665D01*
X85249026Y-95782665D01*
X85289000Y-96037598D01*
X85377941Y-96279833D01*
X85428579Y-96374570D01*
X85659800Y-96430995D01*
X86383595Y-95707200D01*
X86742805Y-95707200D01*
X87466600Y-96430995D01*
X87697821Y-96374570D01*
X87806217Y-96140392D01*
X87832266Y-96032624D01*
X87843542Y-96089313D01*
X87942293Y-96327718D01*
X88085656Y-96542277D01*
X88268123Y-96724744D01*
X88482682Y-96868107D01*
X88721087Y-96966858D01*
X88974176Y-97017200D01*
X89232224Y-97017200D01*
X89485313Y-96966858D01*
X89723718Y-96868107D01*
X89938277Y-96724744D01*
X90120744Y-96542277D01*
X90264107Y-96327718D01*
X90362858Y-96089313D01*
X90373200Y-96037320D01*
X90383542Y-96089313D01*
X90482293Y-96327718D01*
X90625656Y-96542277D01*
X90808123Y-96724744D01*
X91022682Y-96868107D01*
X91261087Y-96966858D01*
X91514176Y-97017200D01*
X91772224Y-97017200D01*
X92025313Y-96966858D01*
X92263718Y-96868107D01*
X92478277Y-96724744D01*
X92660744Y-96542277D01*
X92804107Y-96327718D01*
X92902858Y-96089313D01*
X92953200Y-95836224D01*
X92953200Y-95578176D01*
X92902858Y-95325087D01*
X92804107Y-95086682D01*
X92660744Y-94872123D01*
X92478277Y-94689656D01*
X92328025Y-94589261D01*
X99549000Y-94589261D01*
X99549000Y-94793139D01*
X99588774Y-94993098D01*
X99666795Y-95181456D01*
X99780063Y-95350974D01*
X99924226Y-95495137D01*
X100093744Y-95608405D01*
X100282102Y-95686426D01*
X100482061Y-95726200D01*
X100685939Y-95726200D01*
X100885898Y-95686426D01*
X101074256Y-95608405D01*
X101243774Y-95495137D01*
X101387937Y-95350974D01*
X101501205Y-95181456D01*
X101579226Y-94993098D01*
X101619000Y-94793139D01*
X101619000Y-94589261D01*
X101579226Y-94389302D01*
X101501205Y-94200944D01*
X101387937Y-94031426D01*
X101243774Y-93887263D01*
X101074256Y-93773995D01*
X100885898Y-93695974D01*
X100685939Y-93656200D01*
X100482061Y-93656200D01*
X100282102Y-93695974D01*
X100093744Y-93773995D01*
X99924226Y-93887263D01*
X99780063Y-94031426D01*
X99666795Y-94200944D01*
X99588774Y-94389302D01*
X99549000Y-94589261D01*
X92328025Y-94589261D01*
X92263718Y-94546293D01*
X92025313Y-94447542D01*
X91772224Y-94397200D01*
X91514176Y-94397200D01*
X91261087Y-94447542D01*
X91022682Y-94546293D01*
X90808123Y-94689656D01*
X90625656Y-94872123D01*
X90482293Y-95086682D01*
X90383542Y-95325087D01*
X90373200Y-95377080D01*
X90362858Y-95325087D01*
X90264107Y-95086682D01*
X90120744Y-94872123D01*
X89938277Y-94689656D01*
X89723718Y-94546293D01*
X89485313Y-94447542D01*
X89232224Y-94397200D01*
X88974176Y-94397200D01*
X88721087Y-94447542D01*
X88482682Y-94546293D01*
X88268123Y-94689656D01*
X88085656Y-94872123D01*
X87942293Y-95086682D01*
X87843542Y-95325087D01*
X87834712Y-95369480D01*
X87748459Y-95134567D01*
X87697821Y-95039830D01*
X87466600Y-94983405D01*
X86742805Y-95707200D01*
X86383595Y-95707200D01*
X85659800Y-94983405D01*
X85428579Y-95039830D01*
X85320183Y-95274008D01*
X85259555Y-95524833D01*
X85249026Y-95782665D01*
X73025000Y-95782665D01*
X73025000Y-94803800D01*
X85839405Y-94803800D01*
X86563200Y-95527595D01*
X87286995Y-94803800D01*
X87230570Y-94572579D01*
X86996392Y-94464183D01*
X86745567Y-94403555D01*
X86487735Y-94393026D01*
X86232802Y-94433000D01*
X85990567Y-94521941D01*
X85895830Y-94572579D01*
X85839405Y-94803800D01*
X73025000Y-94803800D01*
X73025000Y-93346618D01*
X73083456Y-93322405D01*
X73252974Y-93209137D01*
X73397137Y-93064974D01*
X73510405Y-92895456D01*
X73588426Y-92707098D01*
X73628200Y-92507139D01*
X73628200Y-92399187D01*
X109418900Y-92399187D01*
X109418900Y-92665213D01*
X109470799Y-92926126D01*
X109572603Y-93171901D01*
X109720399Y-93393093D01*
X109908507Y-93581201D01*
X110129699Y-93728997D01*
X110258142Y-93782200D01*
X110129699Y-93835403D01*
X109908507Y-93983199D01*
X109720399Y-94171307D01*
X109572603Y-94392499D01*
X109470799Y-94638274D01*
X109418900Y-94899187D01*
X109418900Y-95165213D01*
X109470799Y-95426126D01*
X109572603Y-95671901D01*
X109720399Y-95893093D01*
X109908507Y-96081201D01*
X110129699Y-96228997D01*
X110375474Y-96330801D01*
X110636387Y-96382700D01*
X110902413Y-96382700D01*
X111163326Y-96330801D01*
X111409101Y-96228997D01*
X111630293Y-96081201D01*
X111818401Y-95893093D01*
X111966197Y-95671901D01*
X112068001Y-95426126D01*
X112119900Y-95165213D01*
X112119900Y-94899187D01*
X112068001Y-94638274D01*
X111966197Y-94392499D01*
X111818401Y-94171307D01*
X111630293Y-93983199D01*
X111409101Y-93835403D01*
X111280658Y-93782200D01*
X111409101Y-93728997D01*
X111630293Y-93581201D01*
X111818401Y-93393093D01*
X111966197Y-93171901D01*
X112068001Y-92926126D01*
X112119900Y-92665213D01*
X112119900Y-92399187D01*
X112618900Y-92399187D01*
X112618900Y-92665213D01*
X112670799Y-92926126D01*
X112772603Y-93171901D01*
X112920399Y-93393093D01*
X113108507Y-93581201D01*
X113329699Y-93728997D01*
X113458142Y-93782200D01*
X113329699Y-93835403D01*
X113108507Y-93983199D01*
X112920399Y-94171307D01*
X112772603Y-94392499D01*
X112670799Y-94638274D01*
X112618900Y-94899187D01*
X112618900Y-95165213D01*
X112670799Y-95426126D01*
X112772603Y-95671901D01*
X112920399Y-95893093D01*
X113108507Y-96081201D01*
X113329699Y-96228997D01*
X113575474Y-96330801D01*
X113836387Y-96382700D01*
X114102413Y-96382700D01*
X114363326Y-96330801D01*
X114609101Y-96228997D01*
X114801318Y-96100561D01*
X120186500Y-96100561D01*
X120186500Y-96304439D01*
X120226274Y-96504398D01*
X120304295Y-96692756D01*
X120417563Y-96862274D01*
X120561726Y-97006437D01*
X120731244Y-97119705D01*
X120919602Y-97197726D01*
X121119561Y-97237500D01*
X121323439Y-97237500D01*
X121523398Y-97197726D01*
X121711756Y-97119705D01*
X121881274Y-97006437D01*
X122025437Y-96862274D01*
X122138705Y-96692756D01*
X122216726Y-96504398D01*
X122256500Y-96304439D01*
X122256500Y-96100561D01*
X122216726Y-95900602D01*
X122138705Y-95712244D01*
X122025437Y-95542726D01*
X121881274Y-95398563D01*
X121711756Y-95285295D01*
X121523398Y-95207274D01*
X121323439Y-95167500D01*
X121119561Y-95167500D01*
X120919602Y-95207274D01*
X120731244Y-95285295D01*
X120561726Y-95398563D01*
X120417563Y-95542726D01*
X120304295Y-95712244D01*
X120226274Y-95900602D01*
X120186500Y-96100561D01*
X114801318Y-96100561D01*
X114830293Y-96081201D01*
X115018401Y-95893093D01*
X115166197Y-95671901D01*
X115268001Y-95426126D01*
X115319900Y-95165213D01*
X115319900Y-94899187D01*
X115268001Y-94638274D01*
X115166197Y-94392499D01*
X115018401Y-94171307D01*
X114830293Y-93983199D01*
X114609101Y-93835403D01*
X114480658Y-93782200D01*
X114609101Y-93728997D01*
X114830293Y-93581201D01*
X115018401Y-93393093D01*
X115166197Y-93171901D01*
X115268001Y-92926126D01*
X115319900Y-92665213D01*
X115319900Y-92399187D01*
X115268001Y-92138274D01*
X115166197Y-91892499D01*
X115018401Y-91671307D01*
X114830293Y-91483199D01*
X114609101Y-91335403D01*
X114363326Y-91233599D01*
X114102413Y-91181700D01*
X113836387Y-91181700D01*
X113575474Y-91233599D01*
X113329699Y-91335403D01*
X113108507Y-91483199D01*
X112920399Y-91671307D01*
X112772603Y-91892499D01*
X112670799Y-92138274D01*
X112618900Y-92399187D01*
X112119900Y-92399187D01*
X112068001Y-92138274D01*
X111966197Y-91892499D01*
X111818401Y-91671307D01*
X111630293Y-91483199D01*
X111409101Y-91335403D01*
X111163326Y-91233599D01*
X110902413Y-91181700D01*
X110636387Y-91181700D01*
X110375474Y-91233599D01*
X110129699Y-91335403D01*
X109908507Y-91483199D01*
X109720399Y-91671307D01*
X109572603Y-91892499D01*
X109470799Y-92138274D01*
X109418900Y-92399187D01*
X73628200Y-92399187D01*
X73628200Y-92303261D01*
X73588426Y-92103302D01*
X73510405Y-91914944D01*
X73397137Y-91745426D01*
X73252974Y-91601263D01*
X73083456Y-91487995D01*
X73025000Y-91463782D01*
X73025000Y-88391661D01*
X82251600Y-88391661D01*
X82251600Y-88595539D01*
X82291374Y-88795498D01*
X82369395Y-88983856D01*
X82482663Y-89153374D01*
X82626826Y-89297537D01*
X82796344Y-89410805D01*
X82984702Y-89488826D01*
X83184661Y-89528600D01*
X83388539Y-89528600D01*
X83588498Y-89488826D01*
X83776856Y-89410805D01*
X83946374Y-89297537D01*
X84090537Y-89153374D01*
X84107316Y-89128261D01*
X84385200Y-89128261D01*
X84385200Y-89332139D01*
X84424974Y-89532098D01*
X84502995Y-89720456D01*
X84616263Y-89889974D01*
X84760426Y-90034137D01*
X84929944Y-90147405D01*
X85118302Y-90225426D01*
X85318261Y-90265200D01*
X85522139Y-90265200D01*
X85722098Y-90225426D01*
X85910456Y-90147405D01*
X86079974Y-90034137D01*
X86224137Y-89889974D01*
X86337405Y-89720456D01*
X86415426Y-89532098D01*
X86455200Y-89332139D01*
X86455200Y-89128261D01*
X86415426Y-88928302D01*
X86337405Y-88739944D01*
X86224137Y-88570426D01*
X86079974Y-88426263D01*
X85910456Y-88312995D01*
X85722098Y-88234974D01*
X85522139Y-88195200D01*
X85318261Y-88195200D01*
X85118302Y-88234974D01*
X84929944Y-88312995D01*
X84760426Y-88426263D01*
X84616263Y-88570426D01*
X84502995Y-88739944D01*
X84424974Y-88928302D01*
X84385200Y-89128261D01*
X84107316Y-89128261D01*
X84203805Y-88983856D01*
X84281826Y-88795498D01*
X84321600Y-88595539D01*
X84321600Y-88391661D01*
X84281826Y-88191702D01*
X84203805Y-88003344D01*
X84090537Y-87833826D01*
X83946374Y-87689663D01*
X83776856Y-87576395D01*
X83664270Y-87529760D01*
X111119400Y-87529760D01*
X111119400Y-87994640D01*
X111210094Y-88450587D01*
X111387995Y-88880079D01*
X111646268Y-89266612D01*
X111974988Y-89595332D01*
X112361521Y-89853605D01*
X112791013Y-90031506D01*
X113246960Y-90122200D01*
X113711840Y-90122200D01*
X114167787Y-90031506D01*
X114597279Y-89853605D01*
X114983812Y-89595332D01*
X115312532Y-89266612D01*
X115570805Y-88880079D01*
X115748706Y-88450587D01*
X115839400Y-87994640D01*
X115839400Y-87529760D01*
X115748706Y-87073813D01*
X115570805Y-86644321D01*
X115312532Y-86257788D01*
X114983812Y-85929068D01*
X114597279Y-85670795D01*
X114167787Y-85492894D01*
X113711840Y-85402200D01*
X113246960Y-85402200D01*
X112791013Y-85492894D01*
X112361521Y-85670795D01*
X111974988Y-85929068D01*
X111646268Y-86257788D01*
X111387995Y-86644321D01*
X111210094Y-87073813D01*
X111119400Y-87529760D01*
X83664270Y-87529760D01*
X83588498Y-87498374D01*
X83388539Y-87458600D01*
X83184661Y-87458600D01*
X82984702Y-87498374D01*
X82796344Y-87576395D01*
X82626826Y-87689663D01*
X82482663Y-87833826D01*
X82369395Y-88003344D01*
X82291374Y-88191702D01*
X82251600Y-88391661D01*
X73025000Y-88391661D01*
X73025000Y-84911861D01*
X73234600Y-84911861D01*
X73234600Y-85115739D01*
X73274374Y-85315698D01*
X73352395Y-85504056D01*
X73465663Y-85673574D01*
X73609826Y-85817737D01*
X73779344Y-85931005D01*
X73967702Y-86009026D01*
X74167661Y-86048800D01*
X74371539Y-86048800D01*
X74571498Y-86009026D01*
X74644805Y-85978661D01*
X107169000Y-85978661D01*
X107169000Y-86182539D01*
X107208774Y-86382498D01*
X107286795Y-86570856D01*
X107400063Y-86740374D01*
X107544226Y-86884537D01*
X107713744Y-86997805D01*
X107902102Y-87075826D01*
X108102061Y-87115600D01*
X108305939Y-87115600D01*
X108505898Y-87075826D01*
X108694256Y-86997805D01*
X108863774Y-86884537D01*
X109007937Y-86740374D01*
X109121205Y-86570856D01*
X109199226Y-86382498D01*
X109239000Y-86182539D01*
X109239000Y-85978661D01*
X109199226Y-85778702D01*
X109121205Y-85590344D01*
X109007937Y-85420826D01*
X108863774Y-85276663D01*
X108694256Y-85163395D01*
X108505898Y-85085374D01*
X108305939Y-85045600D01*
X108102061Y-85045600D01*
X107902102Y-85085374D01*
X107713744Y-85163395D01*
X107544226Y-85276663D01*
X107400063Y-85420826D01*
X107286795Y-85590344D01*
X107208774Y-85778702D01*
X107169000Y-85978661D01*
X74644805Y-85978661D01*
X74759856Y-85931005D01*
X74929374Y-85817737D01*
X75073537Y-85673574D01*
X75186805Y-85504056D01*
X75264826Y-85315698D01*
X75304600Y-85115739D01*
X75304600Y-84911861D01*
X75264826Y-84711902D01*
X75186805Y-84523544D01*
X75073537Y-84354026D01*
X74929374Y-84209863D01*
X74759856Y-84096595D01*
X74571498Y-84018574D01*
X74371539Y-83978800D01*
X74167661Y-83978800D01*
X73967702Y-84018574D01*
X73779344Y-84096595D01*
X73609826Y-84209863D01*
X73465663Y-84354026D01*
X73352395Y-84523544D01*
X73274374Y-84711902D01*
X73234600Y-84911861D01*
X73025000Y-84911861D01*
X73025000Y-81863861D01*
X88906400Y-81863861D01*
X88906400Y-82067739D01*
X88946174Y-82267698D01*
X89024195Y-82456056D01*
X89137463Y-82625574D01*
X89281626Y-82769737D01*
X89451144Y-82883005D01*
X89639502Y-82961026D01*
X89839461Y-83000800D01*
X90043339Y-83000800D01*
X90243298Y-82961026D01*
X90431656Y-82883005D01*
X90601174Y-82769737D01*
X90745337Y-82625574D01*
X90858605Y-82456056D01*
X90881200Y-82401507D01*
X90903795Y-82456056D01*
X91017063Y-82625574D01*
X91161226Y-82769737D01*
X91330744Y-82883005D01*
X91519102Y-82961026D01*
X91719061Y-83000800D01*
X91922939Y-83000800D01*
X92122898Y-82961026D01*
X92311256Y-82883005D01*
X92480774Y-82769737D01*
X92624937Y-82625574D01*
X92738205Y-82456056D01*
X92816226Y-82267698D01*
X92856000Y-82067739D01*
X92856000Y-81863861D01*
X92816226Y-81663902D01*
X92738205Y-81475544D01*
X92624937Y-81306026D01*
X92480774Y-81161863D01*
X92311256Y-81048595D01*
X92122898Y-80970574D01*
X91922939Y-80930800D01*
X91719061Y-80930800D01*
X91519102Y-80970574D01*
X91330744Y-81048595D01*
X91161226Y-81161863D01*
X91017063Y-81306026D01*
X90903795Y-81475544D01*
X90881200Y-81530093D01*
X90858605Y-81475544D01*
X90745337Y-81306026D01*
X90601174Y-81161863D01*
X90431656Y-81048595D01*
X90243298Y-80970574D01*
X90043339Y-80930800D01*
X89839461Y-80930800D01*
X89639502Y-80970574D01*
X89451144Y-81048595D01*
X89281626Y-81161863D01*
X89137463Y-81306026D01*
X89024195Y-81475544D01*
X88946174Y-81663902D01*
X88906400Y-81863861D01*
X73025000Y-81863861D01*
X73025000Y-77215661D01*
X76460400Y-77215661D01*
X76460400Y-77419539D01*
X76500174Y-77619498D01*
X76578195Y-77807856D01*
X76691463Y-77977374D01*
X76835626Y-78121537D01*
X77005144Y-78234805D01*
X77193502Y-78312826D01*
X77393461Y-78352600D01*
X77597339Y-78352600D01*
X77797298Y-78312826D01*
X77931925Y-78257061D01*
X121139000Y-78257061D01*
X121139000Y-78460939D01*
X121178774Y-78660898D01*
X121256795Y-78849256D01*
X121370063Y-79018774D01*
X121514226Y-79162937D01*
X121683744Y-79276205D01*
X121872102Y-79354226D01*
X122072061Y-79394000D01*
X122275939Y-79394000D01*
X122475898Y-79354226D01*
X122664256Y-79276205D01*
X122833774Y-79162937D01*
X122977937Y-79018774D01*
X123091205Y-78849256D01*
X123169226Y-78660898D01*
X123209000Y-78460939D01*
X123209000Y-78257061D01*
X123169226Y-78057102D01*
X123091205Y-77868744D01*
X122977937Y-77699226D01*
X122833774Y-77555063D01*
X122664256Y-77441795D01*
X122475898Y-77363774D01*
X122275939Y-77324000D01*
X122072061Y-77324000D01*
X121872102Y-77363774D01*
X121683744Y-77441795D01*
X121514226Y-77555063D01*
X121370063Y-77699226D01*
X121256795Y-77868744D01*
X121178774Y-78057102D01*
X121139000Y-78257061D01*
X77931925Y-78257061D01*
X77985656Y-78234805D01*
X78155174Y-78121537D01*
X78299337Y-77977374D01*
X78412605Y-77807856D01*
X78490626Y-77619498D01*
X78530400Y-77419539D01*
X78530400Y-77215661D01*
X78490626Y-77015702D01*
X78412605Y-76827344D01*
X78299337Y-76657826D01*
X78155174Y-76513663D01*
X77985656Y-76400395D01*
X77797298Y-76322374D01*
X77597339Y-76282600D01*
X77393461Y-76282600D01*
X77193502Y-76322374D01*
X77005144Y-76400395D01*
X76835626Y-76513663D01*
X76691463Y-76657826D01*
X76578195Y-76827344D01*
X76500174Y-77015702D01*
X76460400Y-77215661D01*
X73025000Y-77215661D01*
X73025000Y-74103482D01*
X73084663Y-74192774D01*
X73228826Y-74336937D01*
X73398344Y-74450205D01*
X73586702Y-74528226D01*
X73786661Y-74568000D01*
X73990539Y-74568000D01*
X74190498Y-74528226D01*
X74378856Y-74450205D01*
X74548374Y-74336937D01*
X74692537Y-74192774D01*
X74805805Y-74023256D01*
X74883826Y-73834898D01*
X74923600Y-73634939D01*
X74923600Y-73431061D01*
X74883826Y-73231102D01*
X74805805Y-73042744D01*
X74692537Y-72873226D01*
X74548374Y-72729063D01*
X74378856Y-72615795D01*
X74373106Y-72613413D01*
X93066500Y-72613413D01*
X93066500Y-72869787D01*
X93116516Y-73121233D01*
X93214626Y-73358091D01*
X93357059Y-73571258D01*
X93538342Y-73752541D01*
X93751509Y-73894974D01*
X93988367Y-73993084D01*
X94239813Y-74043100D01*
X94496187Y-74043100D01*
X94747633Y-73993084D01*
X94984491Y-73894974D01*
X95197658Y-73752541D01*
X95378941Y-73571258D01*
X95521374Y-73358091D01*
X95619484Y-73121233D01*
X95669500Y-72869787D01*
X95669500Y-72613413D01*
X95619484Y-72361967D01*
X95521374Y-72125109D01*
X95378941Y-71911942D01*
X95197658Y-71730659D01*
X94984491Y-71588226D01*
X94747633Y-71490116D01*
X94496187Y-71440100D01*
X94239813Y-71440100D01*
X93988367Y-71490116D01*
X93751509Y-71588226D01*
X93538342Y-71730659D01*
X93357059Y-71911942D01*
X93214626Y-72125109D01*
X93116516Y-72361967D01*
X93066500Y-72613413D01*
X74373106Y-72613413D01*
X74190498Y-72537774D01*
X73990539Y-72498000D01*
X73786661Y-72498000D01*
X73586702Y-72537774D01*
X73398344Y-72615795D01*
X73228826Y-72729063D01*
X73084663Y-72873226D01*
X73025000Y-72962518D01*
X73025000Y-69115018D01*
X73083456Y-69090805D01*
X73252974Y-68977537D01*
X73397137Y-68833374D01*
X73510405Y-68663856D01*
X73588426Y-68475498D01*
X73628200Y-68275539D01*
X73628200Y-68071661D01*
X73588426Y-67871702D01*
X73510405Y-67683344D01*
X73397137Y-67513826D01*
X73252974Y-67369663D01*
X73083456Y-67256395D01*
X73025000Y-67232182D01*
X73025000Y-66013413D01*
X85566500Y-66013413D01*
X85566500Y-66269787D01*
X85616516Y-66521233D01*
X85714626Y-66758091D01*
X85857059Y-66971258D01*
X86038342Y-67152541D01*
X86251509Y-67294974D01*
X86488367Y-67393084D01*
X86739813Y-67443100D01*
X86996187Y-67443100D01*
X87247633Y-67393084D01*
X87484491Y-67294974D01*
X87697658Y-67152541D01*
X87878941Y-66971258D01*
X88021374Y-66758091D01*
X88119484Y-66521233D01*
X88169500Y-66269787D01*
X88169500Y-66013413D01*
X88119484Y-65761967D01*
X88021374Y-65525109D01*
X87878941Y-65311942D01*
X87697658Y-65130659D01*
X87484491Y-64988226D01*
X87247633Y-64890116D01*
X86996187Y-64840100D01*
X86739813Y-64840100D01*
X86488367Y-64890116D01*
X86251509Y-64988226D01*
X86038342Y-65130659D01*
X85857059Y-65311942D01*
X85714626Y-65525109D01*
X85616516Y-65761967D01*
X85566500Y-66013413D01*
X73025000Y-66013413D01*
X73025000Y-62386722D01*
X84295500Y-62386722D01*
X84295500Y-62696478D01*
X84355930Y-63000281D01*
X84474468Y-63286458D01*
X84646559Y-63544011D01*
X84865589Y-63763041D01*
X85123142Y-63935132D01*
X85409319Y-64053670D01*
X85713122Y-64114100D01*
X86022878Y-64114100D01*
X86326681Y-64053670D01*
X86612858Y-63935132D01*
X86870411Y-63763041D01*
X87089441Y-63544011D01*
X87261532Y-63286458D01*
X87380070Y-63000281D01*
X87440500Y-62696478D01*
X87440500Y-62386722D01*
X92295500Y-62386722D01*
X92295500Y-62696478D01*
X92355930Y-63000281D01*
X92474468Y-63286458D01*
X92646559Y-63544011D01*
X92865589Y-63763041D01*
X93123142Y-63935132D01*
X93380179Y-64041600D01*
X93123142Y-64148068D01*
X92865589Y-64320159D01*
X92646559Y-64539189D01*
X92474468Y-64796742D01*
X92355930Y-65082919D01*
X92295500Y-65386722D01*
X92295500Y-65696478D01*
X92355930Y-66000281D01*
X92474468Y-66286458D01*
X92646559Y-66544011D01*
X92865589Y-66763041D01*
X93123142Y-66935132D01*
X93409319Y-67053670D01*
X93713122Y-67114100D01*
X94022878Y-67114100D01*
X94061281Y-67106461D01*
X102063600Y-67106461D01*
X102063600Y-67310339D01*
X102103374Y-67510298D01*
X102181395Y-67698656D01*
X102294663Y-67868174D01*
X102438826Y-68012337D01*
X102608344Y-68125605D01*
X102796702Y-68203626D01*
X102996661Y-68243400D01*
X103200539Y-68243400D01*
X103400498Y-68203626D01*
X103481800Y-68169949D01*
X111307500Y-68169949D01*
X111307500Y-68509251D01*
X111373695Y-68842035D01*
X111503541Y-69155509D01*
X111692047Y-69437629D01*
X111931971Y-69677553D01*
X112214091Y-69866059D01*
X112527565Y-69995905D01*
X112860349Y-70062100D01*
X113199651Y-70062100D01*
X113532435Y-69995905D01*
X113845909Y-69866059D01*
X114128029Y-69677553D01*
X114367953Y-69437629D01*
X114556459Y-69155509D01*
X114686305Y-68842035D01*
X114752500Y-68509251D01*
X114752500Y-68169949D01*
X114686305Y-67837165D01*
X114556459Y-67523691D01*
X114367953Y-67241571D01*
X114128029Y-67001647D01*
X113845909Y-66813141D01*
X113572912Y-66700061D01*
X120605600Y-66700061D01*
X120605600Y-66903939D01*
X120645374Y-67103898D01*
X120723395Y-67292256D01*
X120836663Y-67461774D01*
X120980826Y-67605937D01*
X121150344Y-67719205D01*
X121338702Y-67797226D01*
X121538661Y-67837000D01*
X121742539Y-67837000D01*
X121942498Y-67797226D01*
X122130856Y-67719205D01*
X122300374Y-67605937D01*
X122444537Y-67461774D01*
X122557805Y-67292256D01*
X122635826Y-67103898D01*
X122675600Y-66903939D01*
X122675600Y-66700061D01*
X122635826Y-66500102D01*
X122557805Y-66311744D01*
X122444537Y-66142226D01*
X122300374Y-65998063D01*
X122130856Y-65884795D01*
X121942498Y-65806774D01*
X121742539Y-65767000D01*
X121538661Y-65767000D01*
X121338702Y-65806774D01*
X121150344Y-65884795D01*
X120980826Y-65998063D01*
X120836663Y-66142226D01*
X120723395Y-66311744D01*
X120645374Y-66500102D01*
X120605600Y-66700061D01*
X113572912Y-66700061D01*
X113532435Y-66683295D01*
X113199651Y-66617100D01*
X112860349Y-66617100D01*
X112527565Y-66683295D01*
X112214091Y-66813141D01*
X111931971Y-67001647D01*
X111692047Y-67241571D01*
X111503541Y-67523691D01*
X111373695Y-67837165D01*
X111307500Y-68169949D01*
X103481800Y-68169949D01*
X103588856Y-68125605D01*
X103758374Y-68012337D01*
X103902537Y-67868174D01*
X104015805Y-67698656D01*
X104093826Y-67510298D01*
X104133600Y-67310339D01*
X104133600Y-67106461D01*
X104093826Y-66906502D01*
X104015805Y-66718144D01*
X103902537Y-66548626D01*
X103758374Y-66404463D01*
X103588856Y-66291195D01*
X103400498Y-66213174D01*
X103200539Y-66173400D01*
X102996661Y-66173400D01*
X102796702Y-66213174D01*
X102608344Y-66291195D01*
X102438826Y-66404463D01*
X102294663Y-66548626D01*
X102181395Y-66718144D01*
X102103374Y-66906502D01*
X102063600Y-67106461D01*
X94061281Y-67106461D01*
X94326681Y-67053670D01*
X94612858Y-66935132D01*
X94870411Y-66763041D01*
X95089441Y-66544011D01*
X95261532Y-66286458D01*
X95380070Y-66000281D01*
X95440500Y-65696478D01*
X95440500Y-65386722D01*
X95380070Y-65082919D01*
X95261532Y-64796742D01*
X95089441Y-64539189D01*
X94870411Y-64320159D01*
X94612858Y-64148068D01*
X94355821Y-64041600D01*
X94612858Y-63935132D01*
X94870411Y-63763041D01*
X95089441Y-63544011D01*
X95261532Y-63286458D01*
X95380070Y-63000281D01*
X95401994Y-62890061D01*
X95459600Y-62890061D01*
X95459600Y-63093939D01*
X95499374Y-63293898D01*
X95577395Y-63482256D01*
X95690663Y-63651774D01*
X95834826Y-63795937D01*
X96004344Y-63909205D01*
X96192702Y-63987226D01*
X96392661Y-64027000D01*
X96596539Y-64027000D01*
X96796498Y-63987226D01*
X96984856Y-63909205D01*
X97154374Y-63795937D01*
X97298537Y-63651774D01*
X97411805Y-63482256D01*
X97489826Y-63293898D01*
X97529600Y-63093939D01*
X97529600Y-62890061D01*
X97489826Y-62690102D01*
X97411805Y-62501744D01*
X97365779Y-62432861D01*
X103282800Y-62432861D01*
X103282800Y-62636739D01*
X103322574Y-62836698D01*
X103400595Y-63025056D01*
X103513863Y-63194574D01*
X103658026Y-63338737D01*
X103827544Y-63452005D01*
X104015902Y-63530026D01*
X104215861Y-63569800D01*
X104419739Y-63569800D01*
X104619698Y-63530026D01*
X104808056Y-63452005D01*
X104889300Y-63397720D01*
X104970544Y-63452005D01*
X105158902Y-63530026D01*
X105358861Y-63569800D01*
X105562739Y-63569800D01*
X105762698Y-63530026D01*
X105951056Y-63452005D01*
X106120574Y-63338737D01*
X106264737Y-63194574D01*
X106378005Y-63025056D01*
X106456026Y-62836698D01*
X106495800Y-62636739D01*
X106495800Y-62432861D01*
X106456026Y-62232902D01*
X106378005Y-62044544D01*
X106264737Y-61875026D01*
X106141811Y-61752100D01*
X111304428Y-61752100D01*
X111304428Y-63927100D01*
X111316688Y-64051582D01*
X111352998Y-64171280D01*
X111411963Y-64281594D01*
X111491315Y-64378285D01*
X111588006Y-64457637D01*
X111698320Y-64516602D01*
X111818018Y-64552912D01*
X111942500Y-64565172D01*
X114117500Y-64565172D01*
X114241982Y-64552912D01*
X114361680Y-64516602D01*
X114471994Y-64457637D01*
X114568685Y-64378285D01*
X114648037Y-64281594D01*
X114707002Y-64171280D01*
X114743312Y-64051582D01*
X114755572Y-63927100D01*
X114755572Y-61752100D01*
X114743312Y-61627618D01*
X114707002Y-61507920D01*
X114648037Y-61397606D01*
X114568685Y-61300915D01*
X114471994Y-61221563D01*
X114361680Y-61162598D01*
X114241982Y-61126288D01*
X114117500Y-61114028D01*
X111942500Y-61114028D01*
X111818018Y-61126288D01*
X111698320Y-61162598D01*
X111588006Y-61221563D01*
X111491315Y-61300915D01*
X111411963Y-61397606D01*
X111352998Y-61507920D01*
X111316688Y-61627618D01*
X111304428Y-61752100D01*
X106141811Y-61752100D01*
X106120574Y-61730863D01*
X105951056Y-61617595D01*
X105762698Y-61539574D01*
X105562739Y-61499800D01*
X105358861Y-61499800D01*
X105158902Y-61539574D01*
X104970544Y-61617595D01*
X104889300Y-61671880D01*
X104808056Y-61617595D01*
X104619698Y-61539574D01*
X104419739Y-61499800D01*
X104215861Y-61499800D01*
X104015902Y-61539574D01*
X103827544Y-61617595D01*
X103658026Y-61730863D01*
X103513863Y-61875026D01*
X103400595Y-62044544D01*
X103322574Y-62232902D01*
X103282800Y-62432861D01*
X97365779Y-62432861D01*
X97298537Y-62332226D01*
X97154374Y-62188063D01*
X96984856Y-62074795D01*
X96796498Y-61996774D01*
X96596539Y-61957000D01*
X96392661Y-61957000D01*
X96192702Y-61996774D01*
X96004344Y-62074795D01*
X95834826Y-62188063D01*
X95690663Y-62332226D01*
X95577395Y-62501744D01*
X95499374Y-62690102D01*
X95459600Y-62890061D01*
X95401994Y-62890061D01*
X95440500Y-62696478D01*
X95440500Y-62386722D01*
X95380070Y-62082919D01*
X95261532Y-61796742D01*
X95089441Y-61539189D01*
X94870411Y-61320159D01*
X94612858Y-61148068D01*
X94403287Y-61061261D01*
X100412600Y-61061261D01*
X100412600Y-61265139D01*
X100452374Y-61465098D01*
X100530395Y-61653456D01*
X100643663Y-61822974D01*
X100787826Y-61967137D01*
X100957344Y-62080405D01*
X101145702Y-62158426D01*
X101345661Y-62198200D01*
X101549539Y-62198200D01*
X101749498Y-62158426D01*
X101937856Y-62080405D01*
X102107374Y-61967137D01*
X102251537Y-61822974D01*
X102364805Y-61653456D01*
X102442826Y-61465098D01*
X102482600Y-61265139D01*
X102482600Y-61061261D01*
X102442826Y-60861302D01*
X102364805Y-60672944D01*
X102251537Y-60503426D01*
X102107374Y-60359263D01*
X101937856Y-60245995D01*
X101749498Y-60167974D01*
X101549539Y-60128200D01*
X101345661Y-60128200D01*
X101145702Y-60167974D01*
X100957344Y-60245995D01*
X100787826Y-60359263D01*
X100643663Y-60503426D01*
X100530395Y-60672944D01*
X100452374Y-60861302D01*
X100412600Y-61061261D01*
X94403287Y-61061261D01*
X94326681Y-61029530D01*
X94022878Y-60969100D01*
X93713122Y-60969100D01*
X93409319Y-61029530D01*
X93123142Y-61148068D01*
X92865589Y-61320159D01*
X92646559Y-61539189D01*
X92474468Y-61796742D01*
X92355930Y-62082919D01*
X92295500Y-62386722D01*
X87440500Y-62386722D01*
X87380070Y-62082919D01*
X87261532Y-61796742D01*
X87089441Y-61539189D01*
X86870411Y-61320159D01*
X86612858Y-61148068D01*
X86326681Y-61029530D01*
X86022878Y-60969100D01*
X85713122Y-60969100D01*
X85409319Y-61029530D01*
X85123142Y-61148068D01*
X84865589Y-61320159D01*
X84646559Y-61539189D01*
X84474468Y-61796742D01*
X84355930Y-62082919D01*
X84295500Y-62386722D01*
X73025000Y-62386722D01*
X73025000Y-59791261D01*
X116541600Y-59791261D01*
X116541600Y-59995139D01*
X116581374Y-60195098D01*
X116659395Y-60383456D01*
X116772663Y-60552974D01*
X116916826Y-60697137D01*
X117086344Y-60810405D01*
X117274702Y-60888426D01*
X117474661Y-60928200D01*
X117678539Y-60928200D01*
X117878498Y-60888426D01*
X118066856Y-60810405D01*
X118236374Y-60697137D01*
X118380537Y-60552974D01*
X118493805Y-60383456D01*
X118571826Y-60195098D01*
X118611600Y-59995139D01*
X118611600Y-59791261D01*
X118571826Y-59591302D01*
X118493805Y-59402944D01*
X118380537Y-59233426D01*
X118236374Y-59089263D01*
X118066856Y-58975995D01*
X117878498Y-58897974D01*
X117678539Y-58858200D01*
X117474661Y-58858200D01*
X117274702Y-58897974D01*
X117086344Y-58975995D01*
X116916826Y-59089263D01*
X116772663Y-59233426D01*
X116659395Y-59402944D01*
X116581374Y-59591302D01*
X116541600Y-59791261D01*
X73025000Y-59791261D01*
X73025000Y-57277000D01*
X125095000Y-57277000D01*
X125095000Y-77370237D01*
G37*
X125095000Y-77370237D02*
X125079398Y-77363774D01*
X124879439Y-77324000D01*
X124675561Y-77324000D01*
X124475602Y-77363774D01*
X124287244Y-77441795D01*
X124117726Y-77555063D01*
X123973563Y-77699226D01*
X123860295Y-77868744D01*
X123782274Y-78057102D01*
X123742500Y-78257061D01*
X123742500Y-78460939D01*
X123782274Y-78660898D01*
X123860295Y-78849256D01*
X123973563Y-79018774D01*
X124117726Y-79162937D01*
X124287244Y-79276205D01*
X124475602Y-79354226D01*
X124675561Y-79394000D01*
X124879439Y-79394000D01*
X125079398Y-79354226D01*
X125095000Y-79347763D01*
X125095000Y-98129689D01*
X124967374Y-98002063D01*
X124797856Y-97888795D01*
X124609498Y-97810774D01*
X124409539Y-97771000D01*
X124205661Y-97771000D01*
X124005702Y-97810774D01*
X123817344Y-97888795D01*
X123647826Y-98002063D01*
X123503663Y-98146226D01*
X123390395Y-98315744D01*
X123312374Y-98504102D01*
X123272600Y-98704061D01*
X123272600Y-98907939D01*
X123312374Y-99107898D01*
X123390395Y-99296256D01*
X123503663Y-99465774D01*
X123647826Y-99609937D01*
X123817344Y-99723205D01*
X124005702Y-99801226D01*
X124205661Y-99841000D01*
X124409539Y-99841000D01*
X124609498Y-99801226D01*
X124797856Y-99723205D01*
X124967374Y-99609937D01*
X125095000Y-99482311D01*
X125095000Y-108174800D01*
X124936637Y-108174800D01*
X124675820Y-108226680D01*
X124430135Y-108328446D01*
X124209025Y-108476187D01*
X124020987Y-108664225D01*
X123873246Y-108885335D01*
X123771480Y-109131020D01*
X123719600Y-109391837D01*
X123719600Y-109657763D01*
X123771480Y-109918580D01*
X123873246Y-110164265D01*
X124020987Y-110385375D01*
X124209025Y-110573413D01*
X124430135Y-110721154D01*
X124675820Y-110822920D01*
X124936637Y-110874800D01*
X125095000Y-110874800D01*
X125095000Y-116001800D01*
X125097440Y-116026576D01*
X125104667Y-116050401D01*
X125116403Y-116072357D01*
X125132197Y-116091603D01*
X125151443Y-116107397D01*
X125173399Y-116119133D01*
X125197224Y-116126360D01*
X125223024Y-116128796D01*
X141865000Y-115994587D01*
X141865000Y-148984500D01*
X134103455Y-148984500D01*
X134221256Y-148935705D01*
X134390774Y-148822437D01*
X134534937Y-148678274D01*
X134648205Y-148508756D01*
X134726226Y-148320398D01*
X134766000Y-148120439D01*
X134766000Y-147916561D01*
X134726226Y-147716602D01*
X134657518Y-147550727D01*
X139339000Y-147550727D01*
X139339000Y-147789273D01*
X139385538Y-148023236D01*
X139476825Y-148243624D01*
X139609354Y-148441968D01*
X139778032Y-148610646D01*
X139976376Y-148743175D01*
X140196764Y-148834462D01*
X140430727Y-148881000D01*
X140669273Y-148881000D01*
X140903236Y-148834462D01*
X141123624Y-148743175D01*
X141321968Y-148610646D01*
X141490646Y-148441968D01*
X141623175Y-148243624D01*
X141714462Y-148023236D01*
X141761000Y-147789273D01*
X141761000Y-147550727D01*
X141714462Y-147316764D01*
X141623175Y-147096376D01*
X141490646Y-146898032D01*
X141321968Y-146729354D01*
X141123624Y-146596825D01*
X140903236Y-146505538D01*
X140669273Y-146459000D01*
X140430727Y-146459000D01*
X140196764Y-146505538D01*
X139976376Y-146596825D01*
X139778032Y-146729354D01*
X139609354Y-146898032D01*
X139476825Y-147096376D01*
X139385538Y-147316764D01*
X139339000Y-147550727D01*
X134657518Y-147550727D01*
X134648205Y-147528244D01*
X134534937Y-147358726D01*
X134390774Y-147214563D01*
X134221256Y-147101295D01*
X134032898Y-147023274D01*
X133832939Y-146983500D01*
X133629061Y-146983500D01*
X133429102Y-147023274D01*
X133240744Y-147101295D01*
X133071226Y-147214563D01*
X132927063Y-147358726D01*
X132813795Y-147528244D01*
X132735774Y-147716602D01*
X132696000Y-147916561D01*
X132696000Y-148120439D01*
X132735774Y-148320398D01*
X132813795Y-148508756D01*
X132927063Y-148678274D01*
X133071226Y-148822437D01*
X133240744Y-148935705D01*
X133358545Y-148984500D01*
X120019155Y-148984500D01*
X120136956Y-148935705D01*
X120306474Y-148822437D01*
X120450637Y-148678274D01*
X120563905Y-148508756D01*
X120641926Y-148320398D01*
X120681700Y-148120439D01*
X120681700Y-147916561D01*
X120641926Y-147716602D01*
X120563905Y-147528244D01*
X120450637Y-147358726D01*
X120306474Y-147214563D01*
X120136956Y-147101295D01*
X119948598Y-147023274D01*
X119748639Y-146983500D01*
X119544761Y-146983500D01*
X119344802Y-147023274D01*
X119156444Y-147101295D01*
X118986926Y-147214563D01*
X118842763Y-147358726D01*
X118729495Y-147528244D01*
X118651474Y-147716602D01*
X118611700Y-147916561D01*
X118611700Y-148120439D01*
X118651474Y-148320398D01*
X118729495Y-148508756D01*
X118842763Y-148678274D01*
X118986926Y-148822437D01*
X119156444Y-148935705D01*
X119274245Y-148984500D01*
X105934855Y-148984500D01*
X106052656Y-148935705D01*
X106222174Y-148822437D01*
X106366337Y-148678274D01*
X106479605Y-148508756D01*
X106557626Y-148320398D01*
X106597400Y-148120439D01*
X106597400Y-147916561D01*
X106557626Y-147716602D01*
X106479605Y-147528244D01*
X106366337Y-147358726D01*
X106222174Y-147214563D01*
X106052656Y-147101295D01*
X105864298Y-147023274D01*
X105664339Y-146983500D01*
X105460461Y-146983500D01*
X105260502Y-147023274D01*
X105072144Y-147101295D01*
X104902626Y-147214563D01*
X104758463Y-147358726D01*
X104645195Y-147528244D01*
X104567174Y-147716602D01*
X104527400Y-147916561D01*
X104527400Y-148120439D01*
X104567174Y-148320398D01*
X104645195Y-148508756D01*
X104758463Y-148678274D01*
X104902626Y-148822437D01*
X105072144Y-148935705D01*
X105189945Y-148984500D01*
X91850555Y-148984500D01*
X91968356Y-148935705D01*
X92137874Y-148822437D01*
X92282037Y-148678274D01*
X92395305Y-148508756D01*
X92473326Y-148320398D01*
X92513100Y-148120439D01*
X92513100Y-147916561D01*
X92473326Y-147716602D01*
X92395305Y-147528244D01*
X92282037Y-147358726D01*
X92137874Y-147214563D01*
X91968356Y-147101295D01*
X91779998Y-147023274D01*
X91580039Y-146983500D01*
X91376161Y-146983500D01*
X91176202Y-147023274D01*
X90987844Y-147101295D01*
X90818326Y-147214563D01*
X90674163Y-147358726D01*
X90560895Y-147528244D01*
X90482874Y-147716602D01*
X90443100Y-147916561D01*
X90443100Y-148120439D01*
X90482874Y-148320398D01*
X90560895Y-148508756D01*
X90674163Y-148678274D01*
X90818326Y-148822437D01*
X90987844Y-148935705D01*
X91105645Y-148984500D01*
X77766255Y-148984500D01*
X77884056Y-148935705D01*
X78053574Y-148822437D01*
X78197737Y-148678274D01*
X78311005Y-148508756D01*
X78389026Y-148320398D01*
X78428800Y-148120439D01*
X78428800Y-147916561D01*
X78389026Y-147716602D01*
X78311005Y-147528244D01*
X78197737Y-147358726D01*
X78053574Y-147214563D01*
X77884056Y-147101295D01*
X77695698Y-147023274D01*
X77495739Y-146983500D01*
X77291861Y-146983500D01*
X77091902Y-147023274D01*
X76903544Y-147101295D01*
X76734026Y-147214563D01*
X76589863Y-147358726D01*
X76476595Y-147528244D01*
X76398574Y-147716602D01*
X76358800Y-147916561D01*
X76358800Y-148120439D01*
X76398574Y-148320398D01*
X76476595Y-148508756D01*
X76589863Y-148678274D01*
X76734026Y-148822437D01*
X76903544Y-148935705D01*
X77021345Y-148984500D01*
X73025000Y-148984500D01*
X73025000Y-143598561D01*
X139427000Y-143598561D01*
X139427000Y-143802439D01*
X139466774Y-144002398D01*
X139544795Y-144190756D01*
X139658063Y-144360274D01*
X139802226Y-144504437D01*
X139971744Y-144617705D01*
X140160102Y-144695726D01*
X140360061Y-144735500D01*
X140563939Y-144735500D01*
X140763898Y-144695726D01*
X140952256Y-144617705D01*
X141121774Y-144504437D01*
X141265937Y-144360274D01*
X141379205Y-144190756D01*
X141457226Y-144002398D01*
X141497000Y-143802439D01*
X141497000Y-143598561D01*
X141457226Y-143398602D01*
X141379205Y-143210244D01*
X141265937Y-143040726D01*
X141121774Y-142896563D01*
X140952256Y-142783295D01*
X140763898Y-142705274D01*
X140563939Y-142665500D01*
X140360061Y-142665500D01*
X140160102Y-142705274D01*
X139971744Y-142783295D01*
X139802226Y-142896563D01*
X139658063Y-143040726D01*
X139544795Y-143210244D01*
X139466774Y-143398602D01*
X139427000Y-143598561D01*
X73025000Y-143598561D01*
X73025000Y-139953661D01*
X93122800Y-139953661D01*
X93122800Y-140157539D01*
X93162574Y-140357498D01*
X93240595Y-140545856D01*
X93353863Y-140715374D01*
X93498026Y-140859537D01*
X93667544Y-140972805D01*
X93855902Y-141050826D01*
X94055861Y-141090600D01*
X94259739Y-141090600D01*
X94459698Y-141050826D01*
X94648056Y-140972805D01*
X94817574Y-140859537D01*
X94961737Y-140715374D01*
X95075005Y-140545856D01*
X95153026Y-140357498D01*
X95192800Y-140157539D01*
X95192800Y-139953661D01*
X95153026Y-139753702D01*
X95075005Y-139565344D01*
X94961737Y-139395826D01*
X94817574Y-139251663D01*
X94648056Y-139138395D01*
X94459698Y-139060374D01*
X94259739Y-139020600D01*
X94055861Y-139020600D01*
X93855902Y-139060374D01*
X93667544Y-139138395D01*
X93498026Y-139251663D01*
X93353863Y-139395826D01*
X93240595Y-139565344D01*
X93162574Y-139753702D01*
X93122800Y-139953661D01*
X73025000Y-139953661D01*
X73025000Y-135330861D01*
X81261000Y-135330861D01*
X81261000Y-135534739D01*
X81300774Y-135734698D01*
X81378795Y-135923056D01*
X81492063Y-136092574D01*
X81636226Y-136236737D01*
X81805744Y-136350005D01*
X81994102Y-136428026D01*
X82194061Y-136467800D01*
X82397939Y-136467800D01*
X82597898Y-136428026D01*
X82786256Y-136350005D01*
X82955774Y-136236737D01*
X83099937Y-136092574D01*
X83213205Y-135923056D01*
X83291226Y-135734698D01*
X83331000Y-135534739D01*
X83331000Y-135330861D01*
X83291226Y-135130902D01*
X83213205Y-134942544D01*
X83201123Y-134924461D01*
X95154800Y-134924461D01*
X95154800Y-135128339D01*
X95194574Y-135328298D01*
X95272595Y-135516656D01*
X95385863Y-135686174D01*
X95530026Y-135830337D01*
X95699544Y-135943605D01*
X95887902Y-136021626D01*
X96087861Y-136061400D01*
X96291739Y-136061400D01*
X96491698Y-136021626D01*
X96680056Y-135943605D01*
X96849574Y-135830337D01*
X96993737Y-135686174D01*
X97107005Y-135516656D01*
X97185026Y-135328298D01*
X97224800Y-135128339D01*
X97224800Y-134924461D01*
X97185026Y-134724502D01*
X97107005Y-134536144D01*
X96993737Y-134366626D01*
X96849574Y-134222463D01*
X96680056Y-134109195D01*
X96491698Y-134031174D01*
X96291739Y-133991400D01*
X96087861Y-133991400D01*
X95887902Y-134031174D01*
X95699544Y-134109195D01*
X95530026Y-134222463D01*
X95385863Y-134366626D01*
X95272595Y-134536144D01*
X95194574Y-134724502D01*
X95154800Y-134924461D01*
X83201123Y-134924461D01*
X83099937Y-134773026D01*
X82955774Y-134628863D01*
X82786256Y-134515595D01*
X82597898Y-134437574D01*
X82397939Y-134397800D01*
X82194061Y-134397800D01*
X81994102Y-134437574D01*
X81805744Y-134515595D01*
X81636226Y-134628863D01*
X81492063Y-134773026D01*
X81378795Y-134942544D01*
X81300774Y-135130902D01*
X81261000Y-135330861D01*
X73025000Y-135330861D01*
X73025000Y-133375061D01*
X86087000Y-133375061D01*
X86087000Y-133578939D01*
X86126774Y-133778898D01*
X86204795Y-133967256D01*
X86318063Y-134136774D01*
X86462226Y-134280937D01*
X86631744Y-134394205D01*
X86820102Y-134472226D01*
X87020061Y-134512000D01*
X87223939Y-134512000D01*
X87423898Y-134472226D01*
X87612256Y-134394205D01*
X87781774Y-134280937D01*
X87925937Y-134136774D01*
X88039205Y-133967256D01*
X88053037Y-133933861D01*
X98380600Y-133933861D01*
X98380600Y-134137739D01*
X98420374Y-134337698D01*
X98498395Y-134526056D01*
X98611663Y-134695574D01*
X98755826Y-134839737D01*
X98925344Y-134953005D01*
X99113702Y-135031026D01*
X99313661Y-135070800D01*
X99517539Y-135070800D01*
X99717498Y-135031026D01*
X99905856Y-134953005D01*
X100075374Y-134839737D01*
X100128565Y-134786546D01*
X100266321Y-134843607D01*
X100466280Y-134883381D01*
X100670158Y-134883381D01*
X100870117Y-134843607D01*
X101058475Y-134765586D01*
X101227993Y-134652318D01*
X101372156Y-134508155D01*
X101485424Y-134338637D01*
X101563445Y-134150279D01*
X101603219Y-133950320D01*
X101603219Y-133746442D01*
X101563445Y-133546483D01*
X101485424Y-133358125D01*
X101372156Y-133188607D01*
X101227993Y-133044444D01*
X101058475Y-132931176D01*
X100870117Y-132853155D01*
X100670158Y-132813381D01*
X100466280Y-132813381D01*
X100266321Y-132853155D01*
X100077963Y-132931176D01*
X99908445Y-133044444D01*
X99855254Y-133097635D01*
X99717498Y-133040574D01*
X99517539Y-133000800D01*
X99313661Y-133000800D01*
X99113702Y-133040574D01*
X98925344Y-133118595D01*
X98755826Y-133231863D01*
X98611663Y-133376026D01*
X98498395Y-133545544D01*
X98420374Y-133733902D01*
X98380600Y-133933861D01*
X88053037Y-133933861D01*
X88117226Y-133778898D01*
X88157000Y-133578939D01*
X88157000Y-133375061D01*
X88117226Y-133175102D01*
X88039205Y-132986744D01*
X87925937Y-132817226D01*
X87781774Y-132673063D01*
X87612256Y-132559795D01*
X87587550Y-132549561D01*
X139427000Y-132549561D01*
X139427000Y-132753439D01*
X139466774Y-132953398D01*
X139544795Y-133141756D01*
X139658063Y-133311274D01*
X139802226Y-133455437D01*
X139971744Y-133568705D01*
X140160102Y-133646726D01*
X140360061Y-133686500D01*
X140563939Y-133686500D01*
X140763898Y-133646726D01*
X140952256Y-133568705D01*
X141121774Y-133455437D01*
X141265937Y-133311274D01*
X141379205Y-133141756D01*
X141457226Y-132953398D01*
X141497000Y-132753439D01*
X141497000Y-132549561D01*
X141457226Y-132349602D01*
X141379205Y-132161244D01*
X141265937Y-131991726D01*
X141121774Y-131847563D01*
X140952256Y-131734295D01*
X140763898Y-131656274D01*
X140563939Y-131616500D01*
X140360061Y-131616500D01*
X140160102Y-131656274D01*
X139971744Y-131734295D01*
X139802226Y-131847563D01*
X139658063Y-131991726D01*
X139544795Y-132161244D01*
X139466774Y-132349602D01*
X139427000Y-132549561D01*
X87587550Y-132549561D01*
X87423898Y-132481774D01*
X87223939Y-132442000D01*
X87020061Y-132442000D01*
X86820102Y-132481774D01*
X86631744Y-132559795D01*
X86462226Y-132673063D01*
X86318063Y-132817226D01*
X86204795Y-132986744D01*
X86126774Y-133175102D01*
X86087000Y-133375061D01*
X73025000Y-133375061D01*
X73025000Y-130454061D01*
X81184800Y-130454061D01*
X81184800Y-130657939D01*
X81224574Y-130857898D01*
X81302595Y-131046256D01*
X81415863Y-131215774D01*
X81560026Y-131359937D01*
X81729544Y-131473205D01*
X81917902Y-131551226D01*
X82117861Y-131591000D01*
X82321739Y-131591000D01*
X82521698Y-131551226D01*
X82710056Y-131473205D01*
X82879574Y-131359937D01*
X83023450Y-131216061D01*
X88246000Y-131216061D01*
X88246000Y-131419939D01*
X88285774Y-131619898D01*
X88363795Y-131808256D01*
X88477063Y-131977774D01*
X88621226Y-132121937D01*
X88790744Y-132235205D01*
X88979102Y-132313226D01*
X89179061Y-132353000D01*
X89382939Y-132353000D01*
X89582898Y-132313226D01*
X89771256Y-132235205D01*
X89940774Y-132121937D01*
X90084937Y-131977774D01*
X90198205Y-131808256D01*
X90276226Y-131619898D01*
X90309700Y-131451611D01*
X90343174Y-131619898D01*
X90421195Y-131808256D01*
X90534463Y-131977774D01*
X90678626Y-132121937D01*
X90848144Y-132235205D01*
X91036502Y-132313226D01*
X91236461Y-132353000D01*
X91440339Y-132353000D01*
X91640298Y-132313226D01*
X91828656Y-132235205D01*
X91998174Y-132121937D01*
X92142337Y-131977774D01*
X92255605Y-131808256D01*
X92333626Y-131619898D01*
X92373400Y-131419939D01*
X92373400Y-131216061D01*
X92333626Y-131016102D01*
X92255605Y-130827744D01*
X92142337Y-130658226D01*
X91998174Y-130514063D01*
X91828656Y-130400795D01*
X91640298Y-130322774D01*
X91440339Y-130283000D01*
X91236461Y-130283000D01*
X91036502Y-130322774D01*
X90848144Y-130400795D01*
X90678626Y-130514063D01*
X90534463Y-130658226D01*
X90421195Y-130827744D01*
X90343174Y-131016102D01*
X90309700Y-131184389D01*
X90276226Y-131016102D01*
X90198205Y-130827744D01*
X90084937Y-130658226D01*
X89940774Y-130514063D01*
X89771256Y-130400795D01*
X89582898Y-130322774D01*
X89382939Y-130283000D01*
X89179061Y-130283000D01*
X88979102Y-130322774D01*
X88790744Y-130400795D01*
X88621226Y-130514063D01*
X88477063Y-130658226D01*
X88363795Y-130827744D01*
X88285774Y-131016102D01*
X88246000Y-131216061D01*
X83023450Y-131216061D01*
X83023737Y-131215774D01*
X83137005Y-131046256D01*
X83215026Y-130857898D01*
X83254800Y-130657939D01*
X83254800Y-130454061D01*
X83215026Y-130254102D01*
X83150557Y-130098461D01*
X110420200Y-130098461D01*
X110420200Y-130302339D01*
X110459974Y-130502298D01*
X110537995Y-130690656D01*
X110651263Y-130860174D01*
X110795426Y-131004337D01*
X110964944Y-131117605D01*
X111153302Y-131195626D01*
X111353261Y-131235400D01*
X111557139Y-131235400D01*
X111757098Y-131195626D01*
X111945456Y-131117605D01*
X112114974Y-131004337D01*
X112259137Y-130860174D01*
X112372405Y-130690656D01*
X112450426Y-130502298D01*
X112490200Y-130302339D01*
X112490200Y-130098461D01*
X112450426Y-129898502D01*
X112396479Y-129768261D01*
X113519000Y-129768261D01*
X113519000Y-129972139D01*
X113558774Y-130172098D01*
X113636795Y-130360456D01*
X113750063Y-130529974D01*
X113894226Y-130674137D01*
X114063744Y-130787405D01*
X114252102Y-130865426D01*
X114452061Y-130905200D01*
X114655939Y-130905200D01*
X114855898Y-130865426D01*
X115044256Y-130787405D01*
X115213774Y-130674137D01*
X115357937Y-130529974D01*
X115471205Y-130360456D01*
X115549226Y-130172098D01*
X115589000Y-129972139D01*
X115589000Y-129768261D01*
X115549226Y-129568302D01*
X115471205Y-129379944D01*
X115357937Y-129210426D01*
X115213774Y-129066263D01*
X115044256Y-128952995D01*
X114855898Y-128874974D01*
X114655939Y-128835200D01*
X114452061Y-128835200D01*
X114252102Y-128874974D01*
X114063744Y-128952995D01*
X113894226Y-129066263D01*
X113750063Y-129210426D01*
X113636795Y-129379944D01*
X113558774Y-129568302D01*
X113519000Y-129768261D01*
X112396479Y-129768261D01*
X112372405Y-129710144D01*
X112259137Y-129540626D01*
X112114974Y-129396463D01*
X111945456Y-129283195D01*
X111757098Y-129205174D01*
X111557139Y-129165400D01*
X111353261Y-129165400D01*
X111153302Y-129205174D01*
X110964944Y-129283195D01*
X110795426Y-129396463D01*
X110651263Y-129540626D01*
X110537995Y-129710144D01*
X110459974Y-129898502D01*
X110420200Y-130098461D01*
X83150557Y-130098461D01*
X83137005Y-130065744D01*
X83023737Y-129896226D01*
X82965911Y-129838400D01*
X83109139Y-129838400D01*
X83309098Y-129798626D01*
X83497456Y-129720605D01*
X83666974Y-129607337D01*
X83811137Y-129463174D01*
X83924405Y-129293656D01*
X84002426Y-129105298D01*
X84042200Y-128905339D01*
X84042200Y-128828461D01*
X104654400Y-128828461D01*
X104654400Y-129032339D01*
X104694174Y-129232298D01*
X104772195Y-129420656D01*
X104885463Y-129590174D01*
X105029626Y-129734337D01*
X105199144Y-129847605D01*
X105387502Y-129925626D01*
X105587461Y-129965400D01*
X105791339Y-129965400D01*
X105991298Y-129925626D01*
X106179656Y-129847605D01*
X106349174Y-129734337D01*
X106493337Y-129590174D01*
X106606605Y-129420656D01*
X106684626Y-129232298D01*
X106724400Y-129032339D01*
X106724400Y-128828461D01*
X106684626Y-128628502D01*
X106606605Y-128440144D01*
X106493337Y-128270626D01*
X106349174Y-128126463D01*
X106179656Y-128013195D01*
X105991298Y-127935174D01*
X105791339Y-127895400D01*
X105587461Y-127895400D01*
X105387502Y-127935174D01*
X105199144Y-128013195D01*
X105029626Y-128126463D01*
X104885463Y-128270626D01*
X104772195Y-128440144D01*
X104694174Y-128628502D01*
X104654400Y-128828461D01*
X84042200Y-128828461D01*
X84042200Y-128701461D01*
X84002426Y-128501502D01*
X83924405Y-128313144D01*
X83811137Y-128143626D01*
X83666974Y-127999463D01*
X83497456Y-127886195D01*
X83309098Y-127808174D01*
X83109139Y-127768400D01*
X82905261Y-127768400D01*
X82705302Y-127808174D01*
X82516944Y-127886195D01*
X82347426Y-127999463D01*
X82203263Y-128143626D01*
X82089995Y-128313144D01*
X82011974Y-128501502D01*
X81972200Y-128701461D01*
X81972200Y-128905339D01*
X82011974Y-129105298D01*
X82089995Y-129293656D01*
X82203263Y-129463174D01*
X82261089Y-129521000D01*
X82117861Y-129521000D01*
X81917902Y-129560774D01*
X81729544Y-129638795D01*
X81560026Y-129752063D01*
X81415863Y-129896226D01*
X81302595Y-130065744D01*
X81224574Y-130254102D01*
X81184800Y-130454061D01*
X73025000Y-130454061D01*
X73025000Y-126263061D01*
X77527200Y-126263061D01*
X77527200Y-126466939D01*
X77566974Y-126666898D01*
X77644995Y-126855256D01*
X77758263Y-127024774D01*
X77902426Y-127168937D01*
X78071944Y-127282205D01*
X78260302Y-127360226D01*
X78460261Y-127400000D01*
X78664139Y-127400000D01*
X78864098Y-127360226D01*
X79052456Y-127282205D01*
X79221974Y-127168937D01*
X79366137Y-127024774D01*
X79479405Y-126855256D01*
X79557426Y-126666898D01*
X79587230Y-126517061D01*
X95966500Y-126517061D01*
X95966500Y-126720939D01*
X96006274Y-126920898D01*
X96084295Y-127109256D01*
X96197563Y-127278774D01*
X96341726Y-127422937D01*
X96511244Y-127536205D01*
X96699602Y-127614226D01*
X96899561Y-127654000D01*
X97103439Y-127654000D01*
X97303398Y-127614226D01*
X97491756Y-127536205D01*
X97661274Y-127422937D01*
X97805437Y-127278774D01*
X97918705Y-127109256D01*
X97996726Y-126920898D01*
X98036500Y-126720939D01*
X98036500Y-126517061D01*
X97996726Y-126317102D01*
X97918705Y-126128744D01*
X97805437Y-125959226D01*
X97661274Y-125815063D01*
X97491756Y-125701795D01*
X97303398Y-125623774D01*
X97103439Y-125584000D01*
X96899561Y-125584000D01*
X96699602Y-125623774D01*
X96511244Y-125701795D01*
X96341726Y-125815063D01*
X96197563Y-125959226D01*
X96084295Y-126128744D01*
X96006274Y-126317102D01*
X95966500Y-126517061D01*
X79587230Y-126517061D01*
X79597200Y-126466939D01*
X79597200Y-126263061D01*
X79557426Y-126063102D01*
X79479405Y-125874744D01*
X79366137Y-125705226D01*
X79221974Y-125561063D01*
X79052456Y-125447795D01*
X78864098Y-125369774D01*
X78664139Y-125330000D01*
X78460261Y-125330000D01*
X78260302Y-125369774D01*
X78071944Y-125447795D01*
X77902426Y-125561063D01*
X77758263Y-125705226D01*
X77644995Y-125874744D01*
X77566974Y-126063102D01*
X77527200Y-126263061D01*
X73025000Y-126263061D01*
X73025000Y-124104061D01*
X78149500Y-124104061D01*
X78149500Y-124307939D01*
X78189274Y-124507898D01*
X78267295Y-124696256D01*
X78380563Y-124865774D01*
X78524726Y-125009937D01*
X78694244Y-125123205D01*
X78882602Y-125201226D01*
X79082561Y-125241000D01*
X79286439Y-125241000D01*
X79486398Y-125201226D01*
X79674756Y-125123205D01*
X79844274Y-125009937D01*
X79988437Y-124865774D01*
X80101705Y-124696256D01*
X80179726Y-124507898D01*
X80219500Y-124307939D01*
X80219500Y-124104061D01*
X80209396Y-124053261D01*
X101390500Y-124053261D01*
X101390500Y-124257139D01*
X101430274Y-124457098D01*
X101508295Y-124645456D01*
X101621563Y-124814974D01*
X101765726Y-124959137D01*
X101935244Y-125072405D01*
X102123602Y-125150426D01*
X102323561Y-125190200D01*
X102527439Y-125190200D01*
X102727398Y-125150426D01*
X102915756Y-125072405D01*
X103085274Y-124959137D01*
X103229437Y-124814974D01*
X103342705Y-124645456D01*
X103420726Y-124457098D01*
X103460500Y-124257139D01*
X103460500Y-124053261D01*
X110471000Y-124053261D01*
X110471000Y-124257139D01*
X110510774Y-124457098D01*
X110588795Y-124645456D01*
X110702063Y-124814974D01*
X110846226Y-124959137D01*
X111015744Y-125072405D01*
X111204102Y-125150426D01*
X111404061Y-125190200D01*
X111607939Y-125190200D01*
X111807898Y-125150426D01*
X111996256Y-125072405D01*
X112165774Y-124959137D01*
X112309937Y-124814974D01*
X112423205Y-124645456D01*
X112501226Y-124457098D01*
X112541000Y-124257139D01*
X112541000Y-124053261D01*
X112501226Y-123853302D01*
X112423205Y-123664944D01*
X112309937Y-123495426D01*
X112165774Y-123351263D01*
X111996256Y-123237995D01*
X111807898Y-123159974D01*
X111607939Y-123120200D01*
X111404061Y-123120200D01*
X111204102Y-123159974D01*
X111015744Y-123237995D01*
X110846226Y-123351263D01*
X110702063Y-123495426D01*
X110588795Y-123664944D01*
X110510774Y-123853302D01*
X110471000Y-124053261D01*
X103460500Y-124053261D01*
X103420726Y-123853302D01*
X103342705Y-123664944D01*
X103229437Y-123495426D01*
X103085274Y-123351263D01*
X102915756Y-123237995D01*
X102727398Y-123159974D01*
X102527439Y-123120200D01*
X102323561Y-123120200D01*
X102123602Y-123159974D01*
X101935244Y-123237995D01*
X101765726Y-123351263D01*
X101621563Y-123495426D01*
X101508295Y-123664944D01*
X101430274Y-123853302D01*
X101390500Y-124053261D01*
X80209396Y-124053261D01*
X80179726Y-123904102D01*
X80101705Y-123715744D01*
X79988437Y-123546226D01*
X79844274Y-123402063D01*
X79674756Y-123288795D01*
X79486398Y-123210774D01*
X79286439Y-123171000D01*
X79082561Y-123171000D01*
X78882602Y-123210774D01*
X78694244Y-123288795D01*
X78524726Y-123402063D01*
X78380563Y-123546226D01*
X78267295Y-123715744D01*
X78189274Y-123904102D01*
X78149500Y-124104061D01*
X73025000Y-124104061D01*
X73025000Y-120802061D01*
X93249800Y-120802061D01*
X93249800Y-121005939D01*
X93289574Y-121205898D01*
X93367595Y-121394256D01*
X93480863Y-121563774D01*
X93625026Y-121707937D01*
X93794544Y-121821205D01*
X93982902Y-121899226D01*
X94182861Y-121939000D01*
X94386739Y-121939000D01*
X94586698Y-121899226D01*
X94775056Y-121821205D01*
X94944574Y-121707937D01*
X95088737Y-121563774D01*
X95130974Y-121500561D01*
X139427000Y-121500561D01*
X139427000Y-121704439D01*
X139466774Y-121904398D01*
X139544795Y-122092756D01*
X139658063Y-122262274D01*
X139802226Y-122406437D01*
X139971744Y-122519705D01*
X140160102Y-122597726D01*
X140360061Y-122637500D01*
X140563939Y-122637500D01*
X140763898Y-122597726D01*
X140952256Y-122519705D01*
X141121774Y-122406437D01*
X141265937Y-122262274D01*
X141379205Y-122092756D01*
X141457226Y-121904398D01*
X141497000Y-121704439D01*
X141497000Y-121500561D01*
X141457226Y-121300602D01*
X141379205Y-121112244D01*
X141265937Y-120942726D01*
X141121774Y-120798563D01*
X140952256Y-120685295D01*
X140763898Y-120607274D01*
X140563939Y-120567500D01*
X140360061Y-120567500D01*
X140160102Y-120607274D01*
X139971744Y-120685295D01*
X139802226Y-120798563D01*
X139658063Y-120942726D01*
X139544795Y-121112244D01*
X139466774Y-121300602D01*
X139427000Y-121500561D01*
X95130974Y-121500561D01*
X95202005Y-121394256D01*
X95280026Y-121205898D01*
X95319800Y-121005939D01*
X95319800Y-120802061D01*
X95280026Y-120602102D01*
X95202005Y-120413744D01*
X95088737Y-120244226D01*
X94944574Y-120100063D01*
X94775056Y-119986795D01*
X94586698Y-119908774D01*
X94386739Y-119869000D01*
X94182861Y-119869000D01*
X93982902Y-119908774D01*
X93794544Y-119986795D01*
X93625026Y-120100063D01*
X93480863Y-120244226D01*
X93367595Y-120413744D01*
X93289574Y-120602102D01*
X93249800Y-120802061D01*
X73025000Y-120802061D01*
X73025000Y-118897061D01*
X87801500Y-118897061D01*
X87801500Y-119100939D01*
X87841274Y-119300898D01*
X87919295Y-119489256D01*
X88032563Y-119658774D01*
X88176726Y-119802937D01*
X88346244Y-119916205D01*
X88534602Y-119994226D01*
X88734561Y-120034000D01*
X88938439Y-120034000D01*
X89138398Y-119994226D01*
X89326756Y-119916205D01*
X89496274Y-119802937D01*
X89640437Y-119658774D01*
X89753705Y-119489256D01*
X89831726Y-119300898D01*
X89871500Y-119100939D01*
X89871500Y-118897061D01*
X89831726Y-118697102D01*
X89753705Y-118508744D01*
X89673736Y-118389061D01*
X104565500Y-118389061D01*
X104565500Y-118592939D01*
X104605274Y-118792898D01*
X104683295Y-118981256D01*
X104796563Y-119150774D01*
X104940726Y-119294937D01*
X105110244Y-119408205D01*
X105298602Y-119486226D01*
X105498561Y-119526000D01*
X105702439Y-119526000D01*
X105902398Y-119486226D01*
X106090756Y-119408205D01*
X106260274Y-119294937D01*
X106404437Y-119150774D01*
X106517705Y-118981256D01*
X106595726Y-118792898D01*
X106625530Y-118643061D01*
X109582000Y-118643061D01*
X109582000Y-118846939D01*
X109621774Y-119046898D01*
X109699795Y-119235256D01*
X109813063Y-119404774D01*
X109957226Y-119548937D01*
X110126744Y-119662205D01*
X110315102Y-119740226D01*
X110515061Y-119780000D01*
X110718939Y-119780000D01*
X110918898Y-119740226D01*
X111107256Y-119662205D01*
X111276774Y-119548937D01*
X111420937Y-119404774D01*
X111534205Y-119235256D01*
X111612226Y-119046898D01*
X111652000Y-118846939D01*
X111652000Y-118643061D01*
X111612226Y-118443102D01*
X111534205Y-118254744D01*
X111420937Y-118085226D01*
X111276774Y-117941063D01*
X111107256Y-117827795D01*
X110918898Y-117749774D01*
X110718939Y-117710000D01*
X110515061Y-117710000D01*
X110315102Y-117749774D01*
X110126744Y-117827795D01*
X109957226Y-117941063D01*
X109813063Y-118085226D01*
X109699795Y-118254744D01*
X109621774Y-118443102D01*
X109582000Y-118643061D01*
X106625530Y-118643061D01*
X106635500Y-118592939D01*
X106635500Y-118389061D01*
X106595726Y-118189102D01*
X106517705Y-118000744D01*
X106404437Y-117831226D01*
X106260274Y-117687063D01*
X106090756Y-117573795D01*
X105902398Y-117495774D01*
X105702439Y-117456000D01*
X105498561Y-117456000D01*
X105298602Y-117495774D01*
X105110244Y-117573795D01*
X104940726Y-117687063D01*
X104796563Y-117831226D01*
X104683295Y-118000744D01*
X104605274Y-118189102D01*
X104565500Y-118389061D01*
X89673736Y-118389061D01*
X89640437Y-118339226D01*
X89496274Y-118195063D01*
X89326756Y-118081795D01*
X89138398Y-118003774D01*
X88938439Y-117964000D01*
X88734561Y-117964000D01*
X88534602Y-118003774D01*
X88346244Y-118081795D01*
X88176726Y-118195063D01*
X88032563Y-118339226D01*
X87919295Y-118508744D01*
X87841274Y-118697102D01*
X87801500Y-118897061D01*
X73025000Y-118897061D01*
X73025000Y-116458661D01*
X75050700Y-116458661D01*
X75050700Y-116662539D01*
X75090474Y-116862498D01*
X75168495Y-117050856D01*
X75281763Y-117220374D01*
X75425926Y-117364537D01*
X75595444Y-117477805D01*
X75783802Y-117555826D01*
X75983761Y-117595600D01*
X76187639Y-117595600D01*
X76387598Y-117555826D01*
X76575956Y-117477805D01*
X76732716Y-117373061D01*
X86150500Y-117373061D01*
X86150500Y-117576939D01*
X86190274Y-117776898D01*
X86268295Y-117965256D01*
X86381563Y-118134774D01*
X86525726Y-118278937D01*
X86695244Y-118392205D01*
X86883602Y-118470226D01*
X87083561Y-118510000D01*
X87287439Y-118510000D01*
X87487398Y-118470226D01*
X87675756Y-118392205D01*
X87845274Y-118278937D01*
X87989437Y-118134774D01*
X88102705Y-117965256D01*
X88180726Y-117776898D01*
X88220500Y-117576939D01*
X88220500Y-117373061D01*
X88180726Y-117173102D01*
X88102705Y-116984744D01*
X87989437Y-116815226D01*
X87845274Y-116671063D01*
X87675756Y-116557795D01*
X87487398Y-116479774D01*
X87287439Y-116440000D01*
X87083561Y-116440000D01*
X86883602Y-116479774D01*
X86695244Y-116557795D01*
X86525726Y-116671063D01*
X86381563Y-116815226D01*
X86268295Y-116984744D01*
X86190274Y-117173102D01*
X86150500Y-117373061D01*
X76732716Y-117373061D01*
X76745474Y-117364537D01*
X76889637Y-117220374D01*
X77002905Y-117050856D01*
X77080926Y-116862498D01*
X77120700Y-116662539D01*
X77120700Y-116458661D01*
X77105543Y-116382461D01*
X93580000Y-116382461D01*
X93580000Y-116586339D01*
X93619774Y-116786298D01*
X93697795Y-116974656D01*
X93811063Y-117144174D01*
X93955226Y-117288337D01*
X94124744Y-117401605D01*
X94313102Y-117479626D01*
X94513061Y-117519400D01*
X94716939Y-117519400D01*
X94916898Y-117479626D01*
X95105256Y-117401605D01*
X95274774Y-117288337D01*
X95418937Y-117144174D01*
X95532205Y-116974656D01*
X95610226Y-116786298D01*
X95650000Y-116586339D01*
X95650000Y-116382461D01*
X95629235Y-116278063D01*
X95966500Y-116278063D01*
X95966500Y-116481941D01*
X96006274Y-116681900D01*
X96084295Y-116870258D01*
X96197563Y-117039776D01*
X96341726Y-117183939D01*
X96511244Y-117297207D01*
X96699602Y-117375228D01*
X96899561Y-117415002D01*
X97103439Y-117415002D01*
X97303398Y-117375228D01*
X97491756Y-117297207D01*
X97661274Y-117183939D01*
X97805437Y-117039776D01*
X97918705Y-116870258D01*
X97996726Y-116681900D01*
X98036500Y-116481941D01*
X98036500Y-116278063D01*
X98034312Y-116267061D01*
X99353847Y-116267061D01*
X99353847Y-116470939D01*
X99393621Y-116670898D01*
X99471642Y-116859256D01*
X99584910Y-117028774D01*
X99729073Y-117172937D01*
X99898591Y-117286205D01*
X100086949Y-117364226D01*
X100286908Y-117404000D01*
X100490786Y-117404000D01*
X100690745Y-117364226D01*
X100879103Y-117286205D01*
X101033553Y-117183005D01*
X101051573Y-117209974D01*
X101195736Y-117354137D01*
X101365254Y-117467405D01*
X101553612Y-117545426D01*
X101753571Y-117585200D01*
X101957449Y-117585200D01*
X102157408Y-117545426D01*
X102345766Y-117467405D01*
X102515284Y-117354137D01*
X102659447Y-117209974D01*
X102772715Y-117040456D01*
X102850736Y-116852098D01*
X102890510Y-116652139D01*
X102890510Y-116636461D01*
X108642200Y-116636461D01*
X108642200Y-116840339D01*
X108681974Y-117040298D01*
X108759995Y-117228656D01*
X108873263Y-117398174D01*
X109017426Y-117542337D01*
X109186944Y-117655605D01*
X109375302Y-117733626D01*
X109575261Y-117773400D01*
X109779139Y-117773400D01*
X109979098Y-117733626D01*
X110167456Y-117655605D01*
X110336974Y-117542337D01*
X110481137Y-117398174D01*
X110594405Y-117228656D01*
X110672426Y-117040298D01*
X110712200Y-116840339D01*
X110712200Y-116636461D01*
X110672426Y-116436502D01*
X110594405Y-116248144D01*
X110481137Y-116078626D01*
X110336974Y-115934463D01*
X110167456Y-115821195D01*
X109979098Y-115743174D01*
X109779139Y-115703400D01*
X109575261Y-115703400D01*
X109375302Y-115743174D01*
X109186944Y-115821195D01*
X109017426Y-115934463D01*
X108873263Y-116078626D01*
X108759995Y-116248144D01*
X108681974Y-116436502D01*
X108642200Y-116636461D01*
X102890510Y-116636461D01*
X102890510Y-116448261D01*
X102850736Y-116248302D01*
X102772715Y-116059944D01*
X102659447Y-115890426D01*
X102515284Y-115746263D01*
X102345766Y-115632995D01*
X102157408Y-115554974D01*
X101957449Y-115515200D01*
X101753571Y-115515200D01*
X101553612Y-115554974D01*
X101365254Y-115632995D01*
X101210804Y-115736195D01*
X101192784Y-115709226D01*
X101048621Y-115565063D01*
X100879103Y-115451795D01*
X100690745Y-115373774D01*
X100490786Y-115334000D01*
X100286908Y-115334000D01*
X100086949Y-115373774D01*
X99898591Y-115451795D01*
X99729073Y-115565063D01*
X99584910Y-115709226D01*
X99471642Y-115878744D01*
X99393621Y-116067102D01*
X99353847Y-116267061D01*
X98034312Y-116267061D01*
X97996726Y-116078104D01*
X97918705Y-115889746D01*
X97805437Y-115720228D01*
X97661274Y-115576065D01*
X97491756Y-115462797D01*
X97303398Y-115384776D01*
X97103439Y-115345002D01*
X96899561Y-115345002D01*
X96699602Y-115384776D01*
X96511244Y-115462797D01*
X96341726Y-115576065D01*
X96197563Y-115720228D01*
X96084295Y-115889746D01*
X96006274Y-116078104D01*
X95966500Y-116278063D01*
X95629235Y-116278063D01*
X95610226Y-116182502D01*
X95532205Y-115994144D01*
X95418937Y-115824626D01*
X95274774Y-115680463D01*
X95105256Y-115567195D01*
X94916898Y-115489174D01*
X94716939Y-115449400D01*
X94513061Y-115449400D01*
X94313102Y-115489174D01*
X94124744Y-115567195D01*
X93955226Y-115680463D01*
X93811063Y-115824626D01*
X93697795Y-115994144D01*
X93619774Y-116182502D01*
X93580000Y-116382461D01*
X77105543Y-116382461D01*
X77080926Y-116258702D01*
X77002905Y-116070344D01*
X76889637Y-115900826D01*
X76745474Y-115756663D01*
X76575956Y-115643395D01*
X76387598Y-115565374D01*
X76187639Y-115525600D01*
X75983761Y-115525600D01*
X75783802Y-115565374D01*
X75595444Y-115643395D01*
X75425926Y-115756663D01*
X75281763Y-115900826D01*
X75168495Y-116070344D01*
X75090474Y-116258702D01*
X75050700Y-116458661D01*
X73025000Y-116458661D01*
X73025000Y-114604461D01*
X81235600Y-114604461D01*
X81235600Y-114808339D01*
X81275374Y-115008298D01*
X81353395Y-115196656D01*
X81466663Y-115366174D01*
X81610826Y-115510337D01*
X81780344Y-115623605D01*
X81968702Y-115701626D01*
X82168661Y-115741400D01*
X82372539Y-115741400D01*
X82572498Y-115701626D01*
X82760856Y-115623605D01*
X82930374Y-115510337D01*
X83074537Y-115366174D01*
X83187805Y-115196656D01*
X83265826Y-115008298D01*
X83305600Y-114808339D01*
X83305600Y-114604461D01*
X83265826Y-114404502D01*
X83187805Y-114216144D01*
X83074537Y-114046626D01*
X82930374Y-113902463D01*
X82760856Y-113789195D01*
X82572498Y-113711174D01*
X82372539Y-113671400D01*
X82168661Y-113671400D01*
X81968702Y-113711174D01*
X81780344Y-113789195D01*
X81610826Y-113902463D01*
X81466663Y-114046626D01*
X81353395Y-114216144D01*
X81275374Y-114404502D01*
X81235600Y-114604461D01*
X73025000Y-114604461D01*
X73025000Y-113359861D01*
X86341000Y-113359861D01*
X86341000Y-113563739D01*
X86380774Y-113763698D01*
X86458795Y-113952056D01*
X86572063Y-114121574D01*
X86716226Y-114265737D01*
X86885744Y-114379005D01*
X87074102Y-114457026D01*
X87274061Y-114496800D01*
X87477939Y-114496800D01*
X87677898Y-114457026D01*
X87866256Y-114379005D01*
X88035774Y-114265737D01*
X88179937Y-114121574D01*
X88293205Y-113952056D01*
X88371226Y-113763698D01*
X88411000Y-113563739D01*
X88411000Y-113372561D01*
X102820500Y-113372561D01*
X102820500Y-113576439D01*
X102860274Y-113776398D01*
X102938295Y-113964756D01*
X103051563Y-114134274D01*
X103195726Y-114278437D01*
X103365244Y-114391705D01*
X103553602Y-114469726D01*
X103753561Y-114509500D01*
X103957439Y-114509500D01*
X104157398Y-114469726D01*
X104345756Y-114391705D01*
X104515274Y-114278437D01*
X104659437Y-114134274D01*
X104772705Y-113964756D01*
X104850726Y-113776398D01*
X104890500Y-113576439D01*
X104890500Y-113372561D01*
X104850726Y-113172602D01*
X104772705Y-112984244D01*
X104659437Y-112814726D01*
X104515274Y-112670563D01*
X104345756Y-112557295D01*
X104259729Y-112521661D01*
X112045800Y-112521661D01*
X112045800Y-112725539D01*
X112085574Y-112925498D01*
X112163595Y-113113856D01*
X112276863Y-113283374D01*
X112421026Y-113427537D01*
X112590544Y-113540805D01*
X112778902Y-113618826D01*
X112978861Y-113658600D01*
X113182739Y-113658600D01*
X113382698Y-113618826D01*
X113571056Y-113540805D01*
X113740574Y-113427537D01*
X113884737Y-113283374D01*
X113998005Y-113113856D01*
X114076026Y-112925498D01*
X114115800Y-112725539D01*
X114115800Y-112521661D01*
X114076026Y-112321702D01*
X113998005Y-112133344D01*
X113884737Y-111963826D01*
X113740574Y-111819663D01*
X113571056Y-111706395D01*
X113382698Y-111628374D01*
X113182739Y-111588600D01*
X112978861Y-111588600D01*
X112778902Y-111628374D01*
X112590544Y-111706395D01*
X112421026Y-111819663D01*
X112276863Y-111963826D01*
X112163595Y-112133344D01*
X112085574Y-112321702D01*
X112045800Y-112521661D01*
X104259729Y-112521661D01*
X104157398Y-112479274D01*
X103957439Y-112439500D01*
X103753561Y-112439500D01*
X103553602Y-112479274D01*
X103365244Y-112557295D01*
X103195726Y-112670563D01*
X103051563Y-112814726D01*
X102938295Y-112984244D01*
X102860274Y-113172602D01*
X102820500Y-113372561D01*
X88411000Y-113372561D01*
X88411000Y-113359861D01*
X88371226Y-113159902D01*
X88293205Y-112971544D01*
X88179937Y-112802026D01*
X88035774Y-112657863D01*
X87866256Y-112544595D01*
X87677898Y-112466574D01*
X87477939Y-112426800D01*
X87274061Y-112426800D01*
X87074102Y-112466574D01*
X86885744Y-112544595D01*
X86716226Y-112657863D01*
X86572063Y-112802026D01*
X86458795Y-112971544D01*
X86380774Y-113159902D01*
X86341000Y-113359861D01*
X73025000Y-113359861D01*
X73025000Y-111277061D01*
X85172600Y-111277061D01*
X85172600Y-111480939D01*
X85212374Y-111680898D01*
X85290395Y-111869256D01*
X85403663Y-112038774D01*
X85547826Y-112182937D01*
X85717344Y-112296205D01*
X85905702Y-112374226D01*
X86105661Y-112414000D01*
X86309539Y-112414000D01*
X86509498Y-112374226D01*
X86697856Y-112296205D01*
X86867374Y-112182937D01*
X87011537Y-112038774D01*
X87124805Y-111869256D01*
X87202826Y-111680898D01*
X87242600Y-111480939D01*
X87242600Y-111454861D01*
X90913000Y-111454861D01*
X90913000Y-111658739D01*
X90952774Y-111858698D01*
X91030795Y-112047056D01*
X91144063Y-112216574D01*
X91288226Y-112360737D01*
X91457744Y-112474005D01*
X91646102Y-112552026D01*
X91846061Y-112591800D01*
X92049939Y-112591800D01*
X92249898Y-112552026D01*
X92438256Y-112474005D01*
X92607774Y-112360737D01*
X92751937Y-112216574D01*
X92865205Y-112047056D01*
X92943226Y-111858698D01*
X92983000Y-111658739D01*
X92983000Y-111454861D01*
X92943226Y-111254902D01*
X92865205Y-111066544D01*
X92751937Y-110897026D01*
X92607774Y-110752863D01*
X92438256Y-110639595D01*
X92249898Y-110561574D01*
X92049939Y-110521800D01*
X91846061Y-110521800D01*
X91646102Y-110561574D01*
X91457744Y-110639595D01*
X91288226Y-110752863D01*
X91144063Y-110897026D01*
X91030795Y-111066544D01*
X90952774Y-111254902D01*
X90913000Y-111454861D01*
X87242600Y-111454861D01*
X87242600Y-111277061D01*
X87202826Y-111077102D01*
X87124805Y-110888744D01*
X87011537Y-110719226D01*
X86867374Y-110575063D01*
X86697856Y-110461795D01*
X86642489Y-110438861D01*
X99879200Y-110438861D01*
X99879200Y-110642739D01*
X99918974Y-110842698D01*
X99996995Y-111031056D01*
X100110263Y-111200574D01*
X100254426Y-111344737D01*
X100423944Y-111458005D01*
X100612302Y-111536026D01*
X100812261Y-111575800D01*
X101016139Y-111575800D01*
X101216098Y-111536026D01*
X101404456Y-111458005D01*
X101573974Y-111344737D01*
X101718137Y-111200574D01*
X101831405Y-111031056D01*
X101909426Y-110842698D01*
X101949200Y-110642739D01*
X101949200Y-110438861D01*
X101939096Y-110388061D01*
X102774800Y-110388061D01*
X102774800Y-110591939D01*
X102814574Y-110791898D01*
X102892595Y-110980256D01*
X103005863Y-111149774D01*
X103150026Y-111293937D01*
X103319544Y-111407205D01*
X103507902Y-111485226D01*
X103707861Y-111525000D01*
X103911739Y-111525000D01*
X104111698Y-111485226D01*
X104300056Y-111407205D01*
X104469574Y-111293937D01*
X104562650Y-111200861D01*
X106534000Y-111200861D01*
X106534000Y-111404739D01*
X106573774Y-111604698D01*
X106651795Y-111793056D01*
X106765063Y-111962574D01*
X106909226Y-112106737D01*
X107078744Y-112220005D01*
X107267102Y-112298026D01*
X107467061Y-112337800D01*
X107670939Y-112337800D01*
X107870898Y-112298026D01*
X108059256Y-112220005D01*
X108228774Y-112106737D01*
X108372937Y-111962574D01*
X108486205Y-111793056D01*
X108564226Y-111604698D01*
X108604000Y-111404739D01*
X108604000Y-111200861D01*
X108564226Y-111000902D01*
X108486205Y-110812544D01*
X108372937Y-110643026D01*
X108228774Y-110498863D01*
X108059256Y-110385595D01*
X107870898Y-110307574D01*
X107670939Y-110267800D01*
X107467061Y-110267800D01*
X107267102Y-110307574D01*
X107078744Y-110385595D01*
X106909226Y-110498863D01*
X106765063Y-110643026D01*
X106651795Y-110812544D01*
X106573774Y-111000902D01*
X106534000Y-111200861D01*
X104562650Y-111200861D01*
X104613737Y-111149774D01*
X104727005Y-110980256D01*
X104805026Y-110791898D01*
X104844800Y-110591939D01*
X104844800Y-110388061D01*
X104805026Y-110188102D01*
X104727005Y-109999744D01*
X104613737Y-109830226D01*
X104469574Y-109686063D01*
X104300056Y-109572795D01*
X104111698Y-109494774D01*
X103911739Y-109455000D01*
X103707861Y-109455000D01*
X103507902Y-109494774D01*
X103319544Y-109572795D01*
X103150026Y-109686063D01*
X103005863Y-109830226D01*
X102892595Y-109999744D01*
X102814574Y-110188102D01*
X102774800Y-110388061D01*
X101939096Y-110388061D01*
X101909426Y-110238902D01*
X101831405Y-110050544D01*
X101718137Y-109881026D01*
X101573974Y-109736863D01*
X101404456Y-109623595D01*
X101216098Y-109545574D01*
X101016139Y-109505800D01*
X100812261Y-109505800D01*
X100612302Y-109545574D01*
X100423944Y-109623595D01*
X100254426Y-109736863D01*
X100110263Y-109881026D01*
X99996995Y-110050544D01*
X99918974Y-110238902D01*
X99879200Y-110438861D01*
X86642489Y-110438861D01*
X86509498Y-110383774D01*
X86309539Y-110344000D01*
X86105661Y-110344000D01*
X85905702Y-110383774D01*
X85717344Y-110461795D01*
X85547826Y-110575063D01*
X85403663Y-110719226D01*
X85290395Y-110888744D01*
X85212374Y-111077102D01*
X85172600Y-111277061D01*
X73025000Y-111277061D01*
X73025000Y-108813261D01*
X93529200Y-108813261D01*
X93529200Y-109017139D01*
X93568974Y-109217098D01*
X93646995Y-109405456D01*
X93760263Y-109574974D01*
X93904426Y-109719137D01*
X94073944Y-109832405D01*
X94262302Y-109910426D01*
X94462261Y-109950200D01*
X94666139Y-109950200D01*
X94866098Y-109910426D01*
X95054456Y-109832405D01*
X95223974Y-109719137D01*
X95368137Y-109574974D01*
X95481405Y-109405456D01*
X95559426Y-109217098D01*
X95599200Y-109017139D01*
X95599200Y-108813261D01*
X95559426Y-108613302D01*
X95481405Y-108424944D01*
X95368137Y-108255426D01*
X95223974Y-108111263D01*
X95054456Y-107997995D01*
X94866098Y-107919974D01*
X94666139Y-107880200D01*
X94462261Y-107880200D01*
X94262302Y-107919974D01*
X94073944Y-107997995D01*
X93904426Y-108111263D01*
X93760263Y-108255426D01*
X93646995Y-108424944D01*
X93568974Y-108613302D01*
X93529200Y-108813261D01*
X73025000Y-108813261D01*
X73025000Y-107848061D01*
X96475600Y-107848061D01*
X96475600Y-108051939D01*
X96515374Y-108251898D01*
X96593395Y-108440256D01*
X96706663Y-108609774D01*
X96850826Y-108753937D01*
X97020344Y-108867205D01*
X97208702Y-108945226D01*
X97408661Y-108985000D01*
X97612539Y-108985000D01*
X97812498Y-108945226D01*
X98000856Y-108867205D01*
X98170374Y-108753937D01*
X98314537Y-108609774D01*
X98427805Y-108440256D01*
X98505826Y-108251898D01*
X98545600Y-108051939D01*
X98545600Y-107848061D01*
X98505826Y-107648102D01*
X98427805Y-107459744D01*
X98314537Y-107290226D01*
X98170374Y-107146063D01*
X98000856Y-107032795D01*
X97812498Y-106954774D01*
X97612539Y-106915000D01*
X97408661Y-106915000D01*
X97208702Y-106954774D01*
X97020344Y-107032795D01*
X96850826Y-107146063D01*
X96706663Y-107290226D01*
X96593395Y-107459744D01*
X96515374Y-107648102D01*
X96475600Y-107848061D01*
X73025000Y-107848061D01*
X73025000Y-106070061D01*
X92614800Y-106070061D01*
X92614800Y-106273939D01*
X92654574Y-106473898D01*
X92732595Y-106662256D01*
X92845863Y-106831774D01*
X92990026Y-106975937D01*
X93159544Y-107089205D01*
X93347902Y-107167226D01*
X93547861Y-107207000D01*
X93751739Y-107207000D01*
X93951698Y-107167226D01*
X94140056Y-107089205D01*
X94309574Y-106975937D01*
X94453737Y-106831774D01*
X94567005Y-106662256D01*
X94645026Y-106473898D01*
X94684800Y-106273939D01*
X94684800Y-106095461D01*
X100590400Y-106095461D01*
X100590400Y-106299339D01*
X100630174Y-106499298D01*
X100708195Y-106687656D01*
X100821463Y-106857174D01*
X100965626Y-107001337D01*
X101135144Y-107114605D01*
X101323502Y-107192626D01*
X101523461Y-107232400D01*
X101727339Y-107232400D01*
X101927298Y-107192626D01*
X102115656Y-107114605D01*
X102285174Y-107001337D01*
X102429337Y-106857174D01*
X102542605Y-106687656D01*
X102588421Y-106577047D01*
X102613195Y-106636856D01*
X102726463Y-106806374D01*
X102870626Y-106950537D01*
X103040144Y-107063805D01*
X103228502Y-107141826D01*
X103428461Y-107181600D01*
X103632339Y-107181600D01*
X103832298Y-107141826D01*
X104020656Y-107063805D01*
X104190174Y-106950537D01*
X104334337Y-106806374D01*
X104447605Y-106636856D01*
X104525626Y-106448498D01*
X104565400Y-106248539D01*
X104565400Y-106044661D01*
X104525626Y-105844702D01*
X104447605Y-105656344D01*
X104334337Y-105486826D01*
X104190174Y-105342663D01*
X104020656Y-105229395D01*
X103832298Y-105151374D01*
X103632339Y-105111600D01*
X103428461Y-105111600D01*
X103228502Y-105151374D01*
X103040144Y-105229395D01*
X102870626Y-105342663D01*
X102726463Y-105486826D01*
X102613195Y-105656344D01*
X102567379Y-105766953D01*
X102542605Y-105707144D01*
X102429337Y-105537626D01*
X102285174Y-105393463D01*
X102115656Y-105280195D01*
X101927298Y-105202174D01*
X101727339Y-105162400D01*
X101523461Y-105162400D01*
X101323502Y-105202174D01*
X101135144Y-105280195D01*
X100965626Y-105393463D01*
X100821463Y-105537626D01*
X100708195Y-105707144D01*
X100630174Y-105895502D01*
X100590400Y-106095461D01*
X94684800Y-106095461D01*
X94684800Y-106070061D01*
X94645026Y-105870102D01*
X94567005Y-105681744D01*
X94453737Y-105512226D01*
X94309574Y-105368063D01*
X94140056Y-105254795D01*
X93951698Y-105176774D01*
X93751739Y-105137000D01*
X93547861Y-105137000D01*
X93347902Y-105176774D01*
X93159544Y-105254795D01*
X92990026Y-105368063D01*
X92845863Y-105512226D01*
X92732595Y-105681744D01*
X92654574Y-105870102D01*
X92614800Y-106070061D01*
X73025000Y-106070061D01*
X73025000Y-104444461D01*
X97745600Y-104444461D01*
X97745600Y-104648339D01*
X97785374Y-104848298D01*
X97863395Y-105036656D01*
X97976663Y-105206174D01*
X98120826Y-105350337D01*
X98290344Y-105463605D01*
X98478702Y-105541626D01*
X98678661Y-105581400D01*
X98882539Y-105581400D01*
X99082498Y-105541626D01*
X99270856Y-105463605D01*
X99440374Y-105350337D01*
X99584537Y-105206174D01*
X99697805Y-105036656D01*
X99775826Y-104848298D01*
X99815600Y-104648339D01*
X99815600Y-104444461D01*
X99775826Y-104244502D01*
X99697805Y-104056144D01*
X99584537Y-103886626D01*
X99440374Y-103742463D01*
X99270856Y-103629195D01*
X99082498Y-103551174D01*
X98882539Y-103511400D01*
X98678661Y-103511400D01*
X98478702Y-103551174D01*
X98290344Y-103629195D01*
X98120826Y-103742463D01*
X97976663Y-103886626D01*
X97863395Y-104056144D01*
X97785374Y-104244502D01*
X97745600Y-104444461D01*
X73025000Y-104444461D01*
X73025000Y-102442000D01*
X73157963Y-102442000D01*
X73418780Y-102390120D01*
X73664465Y-102288354D01*
X73885575Y-102140613D01*
X74073613Y-101952575D01*
X74221354Y-101731465D01*
X74295000Y-101553668D01*
X74368646Y-101731465D01*
X74516387Y-101952575D01*
X74704425Y-102140613D01*
X74925535Y-102288354D01*
X75171220Y-102390120D01*
X75432037Y-102442000D01*
X75697963Y-102442000D01*
X75958780Y-102390120D01*
X76204465Y-102288354D01*
X76425575Y-102140613D01*
X76613613Y-101952575D01*
X76761354Y-101731465D01*
X76863120Y-101485780D01*
X76915000Y-101224963D01*
X76915000Y-100959037D01*
X76863120Y-100698220D01*
X76761354Y-100452535D01*
X76613613Y-100231425D01*
X76425575Y-100043387D01*
X76204465Y-99895646D01*
X75958780Y-99793880D01*
X75697963Y-99742000D01*
X75432037Y-99742000D01*
X75171220Y-99793880D01*
X74925535Y-99895646D01*
X74704425Y-100043387D01*
X74516387Y-100231425D01*
X74368646Y-100452535D01*
X74295000Y-100630332D01*
X74221354Y-100452535D01*
X74073613Y-100231425D01*
X73885575Y-100043387D01*
X73664465Y-99895646D01*
X73418780Y-99793880D01*
X73157963Y-99742000D01*
X73025000Y-99742000D01*
X73025000Y-99569760D01*
X111119400Y-99569760D01*
X111119400Y-100034640D01*
X111210094Y-100490587D01*
X111387995Y-100920079D01*
X111646268Y-101306612D01*
X111974988Y-101635332D01*
X112361521Y-101893605D01*
X112791013Y-102071506D01*
X113246960Y-102162200D01*
X113711840Y-102162200D01*
X114167787Y-102071506D01*
X114597279Y-101893605D01*
X114983812Y-101635332D01*
X115312532Y-101306612D01*
X115570805Y-100920079D01*
X115748706Y-100490587D01*
X115839400Y-100034640D01*
X115839400Y-99569760D01*
X115748706Y-99113813D01*
X115570805Y-98684321D01*
X115312532Y-98297788D01*
X114983812Y-97969068D01*
X114597279Y-97710795D01*
X114167787Y-97532894D01*
X113711840Y-97442200D01*
X113246960Y-97442200D01*
X112791013Y-97532894D01*
X112361521Y-97710795D01*
X111974988Y-97969068D01*
X111646268Y-98297788D01*
X111387995Y-98684321D01*
X111210094Y-99113813D01*
X111119400Y-99569760D01*
X73025000Y-99569760D01*
X73025000Y-96610600D01*
X85839405Y-96610600D01*
X85895830Y-96841821D01*
X86130008Y-96950217D01*
X86380833Y-97010845D01*
X86638665Y-97021374D01*
X86893598Y-96981400D01*
X87135833Y-96892459D01*
X87230570Y-96841821D01*
X87286995Y-96610600D01*
X86563200Y-95886805D01*
X85839405Y-96610600D01*
X73025000Y-96610600D01*
X73025000Y-95782665D01*
X85249026Y-95782665D01*
X85289000Y-96037598D01*
X85377941Y-96279833D01*
X85428579Y-96374570D01*
X85659800Y-96430995D01*
X86383595Y-95707200D01*
X86742805Y-95707200D01*
X87466600Y-96430995D01*
X87697821Y-96374570D01*
X87806217Y-96140392D01*
X87832266Y-96032624D01*
X87843542Y-96089313D01*
X87942293Y-96327718D01*
X88085656Y-96542277D01*
X88268123Y-96724744D01*
X88482682Y-96868107D01*
X88721087Y-96966858D01*
X88974176Y-97017200D01*
X89232224Y-97017200D01*
X89485313Y-96966858D01*
X89723718Y-96868107D01*
X89938277Y-96724744D01*
X90120744Y-96542277D01*
X90264107Y-96327718D01*
X90362858Y-96089313D01*
X90373200Y-96037320D01*
X90383542Y-96089313D01*
X90482293Y-96327718D01*
X90625656Y-96542277D01*
X90808123Y-96724744D01*
X91022682Y-96868107D01*
X91261087Y-96966858D01*
X91514176Y-97017200D01*
X91772224Y-97017200D01*
X92025313Y-96966858D01*
X92263718Y-96868107D01*
X92478277Y-96724744D01*
X92660744Y-96542277D01*
X92804107Y-96327718D01*
X92902858Y-96089313D01*
X92953200Y-95836224D01*
X92953200Y-95578176D01*
X92902858Y-95325087D01*
X92804107Y-95086682D01*
X92660744Y-94872123D01*
X92478277Y-94689656D01*
X92328025Y-94589261D01*
X99549000Y-94589261D01*
X99549000Y-94793139D01*
X99588774Y-94993098D01*
X99666795Y-95181456D01*
X99780063Y-95350974D01*
X99924226Y-95495137D01*
X100093744Y-95608405D01*
X100282102Y-95686426D01*
X100482061Y-95726200D01*
X100685939Y-95726200D01*
X100885898Y-95686426D01*
X101074256Y-95608405D01*
X101243774Y-95495137D01*
X101387937Y-95350974D01*
X101501205Y-95181456D01*
X101579226Y-94993098D01*
X101619000Y-94793139D01*
X101619000Y-94589261D01*
X101579226Y-94389302D01*
X101501205Y-94200944D01*
X101387937Y-94031426D01*
X101243774Y-93887263D01*
X101074256Y-93773995D01*
X100885898Y-93695974D01*
X100685939Y-93656200D01*
X100482061Y-93656200D01*
X100282102Y-93695974D01*
X100093744Y-93773995D01*
X99924226Y-93887263D01*
X99780063Y-94031426D01*
X99666795Y-94200944D01*
X99588774Y-94389302D01*
X99549000Y-94589261D01*
X92328025Y-94589261D01*
X92263718Y-94546293D01*
X92025313Y-94447542D01*
X91772224Y-94397200D01*
X91514176Y-94397200D01*
X91261087Y-94447542D01*
X91022682Y-94546293D01*
X90808123Y-94689656D01*
X90625656Y-94872123D01*
X90482293Y-95086682D01*
X90383542Y-95325087D01*
X90373200Y-95377080D01*
X90362858Y-95325087D01*
X90264107Y-95086682D01*
X90120744Y-94872123D01*
X89938277Y-94689656D01*
X89723718Y-94546293D01*
X89485313Y-94447542D01*
X89232224Y-94397200D01*
X88974176Y-94397200D01*
X88721087Y-94447542D01*
X88482682Y-94546293D01*
X88268123Y-94689656D01*
X88085656Y-94872123D01*
X87942293Y-95086682D01*
X87843542Y-95325087D01*
X87834712Y-95369480D01*
X87748459Y-95134567D01*
X87697821Y-95039830D01*
X87466600Y-94983405D01*
X86742805Y-95707200D01*
X86383595Y-95707200D01*
X85659800Y-94983405D01*
X85428579Y-95039830D01*
X85320183Y-95274008D01*
X85259555Y-95524833D01*
X85249026Y-95782665D01*
X73025000Y-95782665D01*
X73025000Y-94803800D01*
X85839405Y-94803800D01*
X86563200Y-95527595D01*
X87286995Y-94803800D01*
X87230570Y-94572579D01*
X86996392Y-94464183D01*
X86745567Y-94403555D01*
X86487735Y-94393026D01*
X86232802Y-94433000D01*
X85990567Y-94521941D01*
X85895830Y-94572579D01*
X85839405Y-94803800D01*
X73025000Y-94803800D01*
X73025000Y-93346618D01*
X73083456Y-93322405D01*
X73252974Y-93209137D01*
X73397137Y-93064974D01*
X73510405Y-92895456D01*
X73588426Y-92707098D01*
X73628200Y-92507139D01*
X73628200Y-92399187D01*
X109418900Y-92399187D01*
X109418900Y-92665213D01*
X109470799Y-92926126D01*
X109572603Y-93171901D01*
X109720399Y-93393093D01*
X109908507Y-93581201D01*
X110129699Y-93728997D01*
X110258142Y-93782200D01*
X110129699Y-93835403D01*
X109908507Y-93983199D01*
X109720399Y-94171307D01*
X109572603Y-94392499D01*
X109470799Y-94638274D01*
X109418900Y-94899187D01*
X109418900Y-95165213D01*
X109470799Y-95426126D01*
X109572603Y-95671901D01*
X109720399Y-95893093D01*
X109908507Y-96081201D01*
X110129699Y-96228997D01*
X110375474Y-96330801D01*
X110636387Y-96382700D01*
X110902413Y-96382700D01*
X111163326Y-96330801D01*
X111409101Y-96228997D01*
X111630293Y-96081201D01*
X111818401Y-95893093D01*
X111966197Y-95671901D01*
X112068001Y-95426126D01*
X112119900Y-95165213D01*
X112119900Y-94899187D01*
X112068001Y-94638274D01*
X111966197Y-94392499D01*
X111818401Y-94171307D01*
X111630293Y-93983199D01*
X111409101Y-93835403D01*
X111280658Y-93782200D01*
X111409101Y-93728997D01*
X111630293Y-93581201D01*
X111818401Y-93393093D01*
X111966197Y-93171901D01*
X112068001Y-92926126D01*
X112119900Y-92665213D01*
X112119900Y-92399187D01*
X112618900Y-92399187D01*
X112618900Y-92665213D01*
X112670799Y-92926126D01*
X112772603Y-93171901D01*
X112920399Y-93393093D01*
X113108507Y-93581201D01*
X113329699Y-93728997D01*
X113458142Y-93782200D01*
X113329699Y-93835403D01*
X113108507Y-93983199D01*
X112920399Y-94171307D01*
X112772603Y-94392499D01*
X112670799Y-94638274D01*
X112618900Y-94899187D01*
X112618900Y-95165213D01*
X112670799Y-95426126D01*
X112772603Y-95671901D01*
X112920399Y-95893093D01*
X113108507Y-96081201D01*
X113329699Y-96228997D01*
X113575474Y-96330801D01*
X113836387Y-96382700D01*
X114102413Y-96382700D01*
X114363326Y-96330801D01*
X114609101Y-96228997D01*
X114801318Y-96100561D01*
X120186500Y-96100561D01*
X120186500Y-96304439D01*
X120226274Y-96504398D01*
X120304295Y-96692756D01*
X120417563Y-96862274D01*
X120561726Y-97006437D01*
X120731244Y-97119705D01*
X120919602Y-97197726D01*
X121119561Y-97237500D01*
X121323439Y-97237500D01*
X121523398Y-97197726D01*
X121711756Y-97119705D01*
X121881274Y-97006437D01*
X122025437Y-96862274D01*
X122138705Y-96692756D01*
X122216726Y-96504398D01*
X122256500Y-96304439D01*
X122256500Y-96100561D01*
X122216726Y-95900602D01*
X122138705Y-95712244D01*
X122025437Y-95542726D01*
X121881274Y-95398563D01*
X121711756Y-95285295D01*
X121523398Y-95207274D01*
X121323439Y-95167500D01*
X121119561Y-95167500D01*
X120919602Y-95207274D01*
X120731244Y-95285295D01*
X120561726Y-95398563D01*
X120417563Y-95542726D01*
X120304295Y-95712244D01*
X120226274Y-95900602D01*
X120186500Y-96100561D01*
X114801318Y-96100561D01*
X114830293Y-96081201D01*
X115018401Y-95893093D01*
X115166197Y-95671901D01*
X115268001Y-95426126D01*
X115319900Y-95165213D01*
X115319900Y-94899187D01*
X115268001Y-94638274D01*
X115166197Y-94392499D01*
X115018401Y-94171307D01*
X114830293Y-93983199D01*
X114609101Y-93835403D01*
X114480658Y-93782200D01*
X114609101Y-93728997D01*
X114830293Y-93581201D01*
X115018401Y-93393093D01*
X115166197Y-93171901D01*
X115268001Y-92926126D01*
X115319900Y-92665213D01*
X115319900Y-92399187D01*
X115268001Y-92138274D01*
X115166197Y-91892499D01*
X115018401Y-91671307D01*
X114830293Y-91483199D01*
X114609101Y-91335403D01*
X114363326Y-91233599D01*
X114102413Y-91181700D01*
X113836387Y-91181700D01*
X113575474Y-91233599D01*
X113329699Y-91335403D01*
X113108507Y-91483199D01*
X112920399Y-91671307D01*
X112772603Y-91892499D01*
X112670799Y-92138274D01*
X112618900Y-92399187D01*
X112119900Y-92399187D01*
X112068001Y-92138274D01*
X111966197Y-91892499D01*
X111818401Y-91671307D01*
X111630293Y-91483199D01*
X111409101Y-91335403D01*
X111163326Y-91233599D01*
X110902413Y-91181700D01*
X110636387Y-91181700D01*
X110375474Y-91233599D01*
X110129699Y-91335403D01*
X109908507Y-91483199D01*
X109720399Y-91671307D01*
X109572603Y-91892499D01*
X109470799Y-92138274D01*
X109418900Y-92399187D01*
X73628200Y-92399187D01*
X73628200Y-92303261D01*
X73588426Y-92103302D01*
X73510405Y-91914944D01*
X73397137Y-91745426D01*
X73252974Y-91601263D01*
X73083456Y-91487995D01*
X73025000Y-91463782D01*
X73025000Y-88391661D01*
X82251600Y-88391661D01*
X82251600Y-88595539D01*
X82291374Y-88795498D01*
X82369395Y-88983856D01*
X82482663Y-89153374D01*
X82626826Y-89297537D01*
X82796344Y-89410805D01*
X82984702Y-89488826D01*
X83184661Y-89528600D01*
X83388539Y-89528600D01*
X83588498Y-89488826D01*
X83776856Y-89410805D01*
X83946374Y-89297537D01*
X84090537Y-89153374D01*
X84107316Y-89128261D01*
X84385200Y-89128261D01*
X84385200Y-89332139D01*
X84424974Y-89532098D01*
X84502995Y-89720456D01*
X84616263Y-89889974D01*
X84760426Y-90034137D01*
X84929944Y-90147405D01*
X85118302Y-90225426D01*
X85318261Y-90265200D01*
X85522139Y-90265200D01*
X85722098Y-90225426D01*
X85910456Y-90147405D01*
X86079974Y-90034137D01*
X86224137Y-89889974D01*
X86337405Y-89720456D01*
X86415426Y-89532098D01*
X86455200Y-89332139D01*
X86455200Y-89128261D01*
X86415426Y-88928302D01*
X86337405Y-88739944D01*
X86224137Y-88570426D01*
X86079974Y-88426263D01*
X85910456Y-88312995D01*
X85722098Y-88234974D01*
X85522139Y-88195200D01*
X85318261Y-88195200D01*
X85118302Y-88234974D01*
X84929944Y-88312995D01*
X84760426Y-88426263D01*
X84616263Y-88570426D01*
X84502995Y-88739944D01*
X84424974Y-88928302D01*
X84385200Y-89128261D01*
X84107316Y-89128261D01*
X84203805Y-88983856D01*
X84281826Y-88795498D01*
X84321600Y-88595539D01*
X84321600Y-88391661D01*
X84281826Y-88191702D01*
X84203805Y-88003344D01*
X84090537Y-87833826D01*
X83946374Y-87689663D01*
X83776856Y-87576395D01*
X83664270Y-87529760D01*
X111119400Y-87529760D01*
X111119400Y-87994640D01*
X111210094Y-88450587D01*
X111387995Y-88880079D01*
X111646268Y-89266612D01*
X111974988Y-89595332D01*
X112361521Y-89853605D01*
X112791013Y-90031506D01*
X113246960Y-90122200D01*
X113711840Y-90122200D01*
X114167787Y-90031506D01*
X114597279Y-89853605D01*
X114983812Y-89595332D01*
X115312532Y-89266612D01*
X115570805Y-88880079D01*
X115748706Y-88450587D01*
X115839400Y-87994640D01*
X115839400Y-87529760D01*
X115748706Y-87073813D01*
X115570805Y-86644321D01*
X115312532Y-86257788D01*
X114983812Y-85929068D01*
X114597279Y-85670795D01*
X114167787Y-85492894D01*
X113711840Y-85402200D01*
X113246960Y-85402200D01*
X112791013Y-85492894D01*
X112361521Y-85670795D01*
X111974988Y-85929068D01*
X111646268Y-86257788D01*
X111387995Y-86644321D01*
X111210094Y-87073813D01*
X111119400Y-87529760D01*
X83664270Y-87529760D01*
X83588498Y-87498374D01*
X83388539Y-87458600D01*
X83184661Y-87458600D01*
X82984702Y-87498374D01*
X82796344Y-87576395D01*
X82626826Y-87689663D01*
X82482663Y-87833826D01*
X82369395Y-88003344D01*
X82291374Y-88191702D01*
X82251600Y-88391661D01*
X73025000Y-88391661D01*
X73025000Y-84911861D01*
X73234600Y-84911861D01*
X73234600Y-85115739D01*
X73274374Y-85315698D01*
X73352395Y-85504056D01*
X73465663Y-85673574D01*
X73609826Y-85817737D01*
X73779344Y-85931005D01*
X73967702Y-86009026D01*
X74167661Y-86048800D01*
X74371539Y-86048800D01*
X74571498Y-86009026D01*
X74644805Y-85978661D01*
X107169000Y-85978661D01*
X107169000Y-86182539D01*
X107208774Y-86382498D01*
X107286795Y-86570856D01*
X107400063Y-86740374D01*
X107544226Y-86884537D01*
X107713744Y-86997805D01*
X107902102Y-87075826D01*
X108102061Y-87115600D01*
X108305939Y-87115600D01*
X108505898Y-87075826D01*
X108694256Y-86997805D01*
X108863774Y-86884537D01*
X109007937Y-86740374D01*
X109121205Y-86570856D01*
X109199226Y-86382498D01*
X109239000Y-86182539D01*
X109239000Y-85978661D01*
X109199226Y-85778702D01*
X109121205Y-85590344D01*
X109007937Y-85420826D01*
X108863774Y-85276663D01*
X108694256Y-85163395D01*
X108505898Y-85085374D01*
X108305939Y-85045600D01*
X108102061Y-85045600D01*
X107902102Y-85085374D01*
X107713744Y-85163395D01*
X107544226Y-85276663D01*
X107400063Y-85420826D01*
X107286795Y-85590344D01*
X107208774Y-85778702D01*
X107169000Y-85978661D01*
X74644805Y-85978661D01*
X74759856Y-85931005D01*
X74929374Y-85817737D01*
X75073537Y-85673574D01*
X75186805Y-85504056D01*
X75264826Y-85315698D01*
X75304600Y-85115739D01*
X75304600Y-84911861D01*
X75264826Y-84711902D01*
X75186805Y-84523544D01*
X75073537Y-84354026D01*
X74929374Y-84209863D01*
X74759856Y-84096595D01*
X74571498Y-84018574D01*
X74371539Y-83978800D01*
X74167661Y-83978800D01*
X73967702Y-84018574D01*
X73779344Y-84096595D01*
X73609826Y-84209863D01*
X73465663Y-84354026D01*
X73352395Y-84523544D01*
X73274374Y-84711902D01*
X73234600Y-84911861D01*
X73025000Y-84911861D01*
X73025000Y-81863861D01*
X88906400Y-81863861D01*
X88906400Y-82067739D01*
X88946174Y-82267698D01*
X89024195Y-82456056D01*
X89137463Y-82625574D01*
X89281626Y-82769737D01*
X89451144Y-82883005D01*
X89639502Y-82961026D01*
X89839461Y-83000800D01*
X90043339Y-83000800D01*
X90243298Y-82961026D01*
X90431656Y-82883005D01*
X90601174Y-82769737D01*
X90745337Y-82625574D01*
X90858605Y-82456056D01*
X90881200Y-82401507D01*
X90903795Y-82456056D01*
X91017063Y-82625574D01*
X91161226Y-82769737D01*
X91330744Y-82883005D01*
X91519102Y-82961026D01*
X91719061Y-83000800D01*
X91922939Y-83000800D01*
X92122898Y-82961026D01*
X92311256Y-82883005D01*
X92480774Y-82769737D01*
X92624937Y-82625574D01*
X92738205Y-82456056D01*
X92816226Y-82267698D01*
X92856000Y-82067739D01*
X92856000Y-81863861D01*
X92816226Y-81663902D01*
X92738205Y-81475544D01*
X92624937Y-81306026D01*
X92480774Y-81161863D01*
X92311256Y-81048595D01*
X92122898Y-80970574D01*
X91922939Y-80930800D01*
X91719061Y-80930800D01*
X91519102Y-80970574D01*
X91330744Y-81048595D01*
X91161226Y-81161863D01*
X91017063Y-81306026D01*
X90903795Y-81475544D01*
X90881200Y-81530093D01*
X90858605Y-81475544D01*
X90745337Y-81306026D01*
X90601174Y-81161863D01*
X90431656Y-81048595D01*
X90243298Y-80970574D01*
X90043339Y-80930800D01*
X89839461Y-80930800D01*
X89639502Y-80970574D01*
X89451144Y-81048595D01*
X89281626Y-81161863D01*
X89137463Y-81306026D01*
X89024195Y-81475544D01*
X88946174Y-81663902D01*
X88906400Y-81863861D01*
X73025000Y-81863861D01*
X73025000Y-77215661D01*
X76460400Y-77215661D01*
X76460400Y-77419539D01*
X76500174Y-77619498D01*
X76578195Y-77807856D01*
X76691463Y-77977374D01*
X76835626Y-78121537D01*
X77005144Y-78234805D01*
X77193502Y-78312826D01*
X77393461Y-78352600D01*
X77597339Y-78352600D01*
X77797298Y-78312826D01*
X77931925Y-78257061D01*
X121139000Y-78257061D01*
X121139000Y-78460939D01*
X121178774Y-78660898D01*
X121256795Y-78849256D01*
X121370063Y-79018774D01*
X121514226Y-79162937D01*
X121683744Y-79276205D01*
X121872102Y-79354226D01*
X122072061Y-79394000D01*
X122275939Y-79394000D01*
X122475898Y-79354226D01*
X122664256Y-79276205D01*
X122833774Y-79162937D01*
X122977937Y-79018774D01*
X123091205Y-78849256D01*
X123169226Y-78660898D01*
X123209000Y-78460939D01*
X123209000Y-78257061D01*
X123169226Y-78057102D01*
X123091205Y-77868744D01*
X122977937Y-77699226D01*
X122833774Y-77555063D01*
X122664256Y-77441795D01*
X122475898Y-77363774D01*
X122275939Y-77324000D01*
X122072061Y-77324000D01*
X121872102Y-77363774D01*
X121683744Y-77441795D01*
X121514226Y-77555063D01*
X121370063Y-77699226D01*
X121256795Y-77868744D01*
X121178774Y-78057102D01*
X121139000Y-78257061D01*
X77931925Y-78257061D01*
X77985656Y-78234805D01*
X78155174Y-78121537D01*
X78299337Y-77977374D01*
X78412605Y-77807856D01*
X78490626Y-77619498D01*
X78530400Y-77419539D01*
X78530400Y-77215661D01*
X78490626Y-77015702D01*
X78412605Y-76827344D01*
X78299337Y-76657826D01*
X78155174Y-76513663D01*
X77985656Y-76400395D01*
X77797298Y-76322374D01*
X77597339Y-76282600D01*
X77393461Y-76282600D01*
X77193502Y-76322374D01*
X77005144Y-76400395D01*
X76835626Y-76513663D01*
X76691463Y-76657826D01*
X76578195Y-76827344D01*
X76500174Y-77015702D01*
X76460400Y-77215661D01*
X73025000Y-77215661D01*
X73025000Y-74103482D01*
X73084663Y-74192774D01*
X73228826Y-74336937D01*
X73398344Y-74450205D01*
X73586702Y-74528226D01*
X73786661Y-74568000D01*
X73990539Y-74568000D01*
X74190498Y-74528226D01*
X74378856Y-74450205D01*
X74548374Y-74336937D01*
X74692537Y-74192774D01*
X74805805Y-74023256D01*
X74883826Y-73834898D01*
X74923600Y-73634939D01*
X74923600Y-73431061D01*
X74883826Y-73231102D01*
X74805805Y-73042744D01*
X74692537Y-72873226D01*
X74548374Y-72729063D01*
X74378856Y-72615795D01*
X74373106Y-72613413D01*
X93066500Y-72613413D01*
X93066500Y-72869787D01*
X93116516Y-73121233D01*
X93214626Y-73358091D01*
X93357059Y-73571258D01*
X93538342Y-73752541D01*
X93751509Y-73894974D01*
X93988367Y-73993084D01*
X94239813Y-74043100D01*
X94496187Y-74043100D01*
X94747633Y-73993084D01*
X94984491Y-73894974D01*
X95197658Y-73752541D01*
X95378941Y-73571258D01*
X95521374Y-73358091D01*
X95619484Y-73121233D01*
X95669500Y-72869787D01*
X95669500Y-72613413D01*
X95619484Y-72361967D01*
X95521374Y-72125109D01*
X95378941Y-71911942D01*
X95197658Y-71730659D01*
X94984491Y-71588226D01*
X94747633Y-71490116D01*
X94496187Y-71440100D01*
X94239813Y-71440100D01*
X93988367Y-71490116D01*
X93751509Y-71588226D01*
X93538342Y-71730659D01*
X93357059Y-71911942D01*
X93214626Y-72125109D01*
X93116516Y-72361967D01*
X93066500Y-72613413D01*
X74373106Y-72613413D01*
X74190498Y-72537774D01*
X73990539Y-72498000D01*
X73786661Y-72498000D01*
X73586702Y-72537774D01*
X73398344Y-72615795D01*
X73228826Y-72729063D01*
X73084663Y-72873226D01*
X73025000Y-72962518D01*
X73025000Y-69115018D01*
X73083456Y-69090805D01*
X73252974Y-68977537D01*
X73397137Y-68833374D01*
X73510405Y-68663856D01*
X73588426Y-68475498D01*
X73628200Y-68275539D01*
X73628200Y-68071661D01*
X73588426Y-67871702D01*
X73510405Y-67683344D01*
X73397137Y-67513826D01*
X73252974Y-67369663D01*
X73083456Y-67256395D01*
X73025000Y-67232182D01*
X73025000Y-66013413D01*
X85566500Y-66013413D01*
X85566500Y-66269787D01*
X85616516Y-66521233D01*
X85714626Y-66758091D01*
X85857059Y-66971258D01*
X86038342Y-67152541D01*
X86251509Y-67294974D01*
X86488367Y-67393084D01*
X86739813Y-67443100D01*
X86996187Y-67443100D01*
X87247633Y-67393084D01*
X87484491Y-67294974D01*
X87697658Y-67152541D01*
X87878941Y-66971258D01*
X88021374Y-66758091D01*
X88119484Y-66521233D01*
X88169500Y-66269787D01*
X88169500Y-66013413D01*
X88119484Y-65761967D01*
X88021374Y-65525109D01*
X87878941Y-65311942D01*
X87697658Y-65130659D01*
X87484491Y-64988226D01*
X87247633Y-64890116D01*
X86996187Y-64840100D01*
X86739813Y-64840100D01*
X86488367Y-64890116D01*
X86251509Y-64988226D01*
X86038342Y-65130659D01*
X85857059Y-65311942D01*
X85714626Y-65525109D01*
X85616516Y-65761967D01*
X85566500Y-66013413D01*
X73025000Y-66013413D01*
X73025000Y-62386722D01*
X84295500Y-62386722D01*
X84295500Y-62696478D01*
X84355930Y-63000281D01*
X84474468Y-63286458D01*
X84646559Y-63544011D01*
X84865589Y-63763041D01*
X85123142Y-63935132D01*
X85409319Y-64053670D01*
X85713122Y-64114100D01*
X86022878Y-64114100D01*
X86326681Y-64053670D01*
X86612858Y-63935132D01*
X86870411Y-63763041D01*
X87089441Y-63544011D01*
X87261532Y-63286458D01*
X87380070Y-63000281D01*
X87440500Y-62696478D01*
X87440500Y-62386722D01*
X92295500Y-62386722D01*
X92295500Y-62696478D01*
X92355930Y-63000281D01*
X92474468Y-63286458D01*
X92646559Y-63544011D01*
X92865589Y-63763041D01*
X93123142Y-63935132D01*
X93380179Y-64041600D01*
X93123142Y-64148068D01*
X92865589Y-64320159D01*
X92646559Y-64539189D01*
X92474468Y-64796742D01*
X92355930Y-65082919D01*
X92295500Y-65386722D01*
X92295500Y-65696478D01*
X92355930Y-66000281D01*
X92474468Y-66286458D01*
X92646559Y-66544011D01*
X92865589Y-66763041D01*
X93123142Y-66935132D01*
X93409319Y-67053670D01*
X93713122Y-67114100D01*
X94022878Y-67114100D01*
X94061281Y-67106461D01*
X102063600Y-67106461D01*
X102063600Y-67310339D01*
X102103374Y-67510298D01*
X102181395Y-67698656D01*
X102294663Y-67868174D01*
X102438826Y-68012337D01*
X102608344Y-68125605D01*
X102796702Y-68203626D01*
X102996661Y-68243400D01*
X103200539Y-68243400D01*
X103400498Y-68203626D01*
X103481800Y-68169949D01*
X111307500Y-68169949D01*
X111307500Y-68509251D01*
X111373695Y-68842035D01*
X111503541Y-69155509D01*
X111692047Y-69437629D01*
X111931971Y-69677553D01*
X112214091Y-69866059D01*
X112527565Y-69995905D01*
X112860349Y-70062100D01*
X113199651Y-70062100D01*
X113532435Y-69995905D01*
X113845909Y-69866059D01*
X114128029Y-69677553D01*
X114367953Y-69437629D01*
X114556459Y-69155509D01*
X114686305Y-68842035D01*
X114752500Y-68509251D01*
X114752500Y-68169949D01*
X114686305Y-67837165D01*
X114556459Y-67523691D01*
X114367953Y-67241571D01*
X114128029Y-67001647D01*
X113845909Y-66813141D01*
X113572912Y-66700061D01*
X120605600Y-66700061D01*
X120605600Y-66903939D01*
X120645374Y-67103898D01*
X120723395Y-67292256D01*
X120836663Y-67461774D01*
X120980826Y-67605937D01*
X121150344Y-67719205D01*
X121338702Y-67797226D01*
X121538661Y-67837000D01*
X121742539Y-67837000D01*
X121942498Y-67797226D01*
X122130856Y-67719205D01*
X122300374Y-67605937D01*
X122444537Y-67461774D01*
X122557805Y-67292256D01*
X122635826Y-67103898D01*
X122675600Y-66903939D01*
X122675600Y-66700061D01*
X122635826Y-66500102D01*
X122557805Y-66311744D01*
X122444537Y-66142226D01*
X122300374Y-65998063D01*
X122130856Y-65884795D01*
X121942498Y-65806774D01*
X121742539Y-65767000D01*
X121538661Y-65767000D01*
X121338702Y-65806774D01*
X121150344Y-65884795D01*
X120980826Y-65998063D01*
X120836663Y-66142226D01*
X120723395Y-66311744D01*
X120645374Y-66500102D01*
X120605600Y-66700061D01*
X113572912Y-66700061D01*
X113532435Y-66683295D01*
X113199651Y-66617100D01*
X112860349Y-66617100D01*
X112527565Y-66683295D01*
X112214091Y-66813141D01*
X111931971Y-67001647D01*
X111692047Y-67241571D01*
X111503541Y-67523691D01*
X111373695Y-67837165D01*
X111307500Y-68169949D01*
X103481800Y-68169949D01*
X103588856Y-68125605D01*
X103758374Y-68012337D01*
X103902537Y-67868174D01*
X104015805Y-67698656D01*
X104093826Y-67510298D01*
X104133600Y-67310339D01*
X104133600Y-67106461D01*
X104093826Y-66906502D01*
X104015805Y-66718144D01*
X103902537Y-66548626D01*
X103758374Y-66404463D01*
X103588856Y-66291195D01*
X103400498Y-66213174D01*
X103200539Y-66173400D01*
X102996661Y-66173400D01*
X102796702Y-66213174D01*
X102608344Y-66291195D01*
X102438826Y-66404463D01*
X102294663Y-66548626D01*
X102181395Y-66718144D01*
X102103374Y-66906502D01*
X102063600Y-67106461D01*
X94061281Y-67106461D01*
X94326681Y-67053670D01*
X94612858Y-66935132D01*
X94870411Y-66763041D01*
X95089441Y-66544011D01*
X95261532Y-66286458D01*
X95380070Y-66000281D01*
X95440500Y-65696478D01*
X95440500Y-65386722D01*
X95380070Y-65082919D01*
X95261532Y-64796742D01*
X95089441Y-64539189D01*
X94870411Y-64320159D01*
X94612858Y-64148068D01*
X94355821Y-64041600D01*
X94612858Y-63935132D01*
X94870411Y-63763041D01*
X95089441Y-63544011D01*
X95261532Y-63286458D01*
X95380070Y-63000281D01*
X95401994Y-62890061D01*
X95459600Y-62890061D01*
X95459600Y-63093939D01*
X95499374Y-63293898D01*
X95577395Y-63482256D01*
X95690663Y-63651774D01*
X95834826Y-63795937D01*
X96004344Y-63909205D01*
X96192702Y-63987226D01*
X96392661Y-64027000D01*
X96596539Y-64027000D01*
X96796498Y-63987226D01*
X96984856Y-63909205D01*
X97154374Y-63795937D01*
X97298537Y-63651774D01*
X97411805Y-63482256D01*
X97489826Y-63293898D01*
X97529600Y-63093939D01*
X97529600Y-62890061D01*
X97489826Y-62690102D01*
X97411805Y-62501744D01*
X97365779Y-62432861D01*
X103282800Y-62432861D01*
X103282800Y-62636739D01*
X103322574Y-62836698D01*
X103400595Y-63025056D01*
X103513863Y-63194574D01*
X103658026Y-63338737D01*
X103827544Y-63452005D01*
X104015902Y-63530026D01*
X104215861Y-63569800D01*
X104419739Y-63569800D01*
X104619698Y-63530026D01*
X104808056Y-63452005D01*
X104889300Y-63397720D01*
X104970544Y-63452005D01*
X105158902Y-63530026D01*
X105358861Y-63569800D01*
X105562739Y-63569800D01*
X105762698Y-63530026D01*
X105951056Y-63452005D01*
X106120574Y-63338737D01*
X106264737Y-63194574D01*
X106378005Y-63025056D01*
X106456026Y-62836698D01*
X106495800Y-62636739D01*
X106495800Y-62432861D01*
X106456026Y-62232902D01*
X106378005Y-62044544D01*
X106264737Y-61875026D01*
X106141811Y-61752100D01*
X111304428Y-61752100D01*
X111304428Y-63927100D01*
X111316688Y-64051582D01*
X111352998Y-64171280D01*
X111411963Y-64281594D01*
X111491315Y-64378285D01*
X111588006Y-64457637D01*
X111698320Y-64516602D01*
X111818018Y-64552912D01*
X111942500Y-64565172D01*
X114117500Y-64565172D01*
X114241982Y-64552912D01*
X114361680Y-64516602D01*
X114471994Y-64457637D01*
X114568685Y-64378285D01*
X114648037Y-64281594D01*
X114707002Y-64171280D01*
X114743312Y-64051582D01*
X114755572Y-63927100D01*
X114755572Y-61752100D01*
X114743312Y-61627618D01*
X114707002Y-61507920D01*
X114648037Y-61397606D01*
X114568685Y-61300915D01*
X114471994Y-61221563D01*
X114361680Y-61162598D01*
X114241982Y-61126288D01*
X114117500Y-61114028D01*
X111942500Y-61114028D01*
X111818018Y-61126288D01*
X111698320Y-61162598D01*
X111588006Y-61221563D01*
X111491315Y-61300915D01*
X111411963Y-61397606D01*
X111352998Y-61507920D01*
X111316688Y-61627618D01*
X111304428Y-61752100D01*
X106141811Y-61752100D01*
X106120574Y-61730863D01*
X105951056Y-61617595D01*
X105762698Y-61539574D01*
X105562739Y-61499800D01*
X105358861Y-61499800D01*
X105158902Y-61539574D01*
X104970544Y-61617595D01*
X104889300Y-61671880D01*
X104808056Y-61617595D01*
X104619698Y-61539574D01*
X104419739Y-61499800D01*
X104215861Y-61499800D01*
X104015902Y-61539574D01*
X103827544Y-61617595D01*
X103658026Y-61730863D01*
X103513863Y-61875026D01*
X103400595Y-62044544D01*
X103322574Y-62232902D01*
X103282800Y-62432861D01*
X97365779Y-62432861D01*
X97298537Y-62332226D01*
X97154374Y-62188063D01*
X96984856Y-62074795D01*
X96796498Y-61996774D01*
X96596539Y-61957000D01*
X96392661Y-61957000D01*
X96192702Y-61996774D01*
X96004344Y-62074795D01*
X95834826Y-62188063D01*
X95690663Y-62332226D01*
X95577395Y-62501744D01*
X95499374Y-62690102D01*
X95459600Y-62890061D01*
X95401994Y-62890061D01*
X95440500Y-62696478D01*
X95440500Y-62386722D01*
X95380070Y-62082919D01*
X95261532Y-61796742D01*
X95089441Y-61539189D01*
X94870411Y-61320159D01*
X94612858Y-61148068D01*
X94403287Y-61061261D01*
X100412600Y-61061261D01*
X100412600Y-61265139D01*
X100452374Y-61465098D01*
X100530395Y-61653456D01*
X100643663Y-61822974D01*
X100787826Y-61967137D01*
X100957344Y-62080405D01*
X101145702Y-62158426D01*
X101345661Y-62198200D01*
X101549539Y-62198200D01*
X101749498Y-62158426D01*
X101937856Y-62080405D01*
X102107374Y-61967137D01*
X102251537Y-61822974D01*
X102364805Y-61653456D01*
X102442826Y-61465098D01*
X102482600Y-61265139D01*
X102482600Y-61061261D01*
X102442826Y-60861302D01*
X102364805Y-60672944D01*
X102251537Y-60503426D01*
X102107374Y-60359263D01*
X101937856Y-60245995D01*
X101749498Y-60167974D01*
X101549539Y-60128200D01*
X101345661Y-60128200D01*
X101145702Y-60167974D01*
X100957344Y-60245995D01*
X100787826Y-60359263D01*
X100643663Y-60503426D01*
X100530395Y-60672944D01*
X100452374Y-60861302D01*
X100412600Y-61061261D01*
X94403287Y-61061261D01*
X94326681Y-61029530D01*
X94022878Y-60969100D01*
X93713122Y-60969100D01*
X93409319Y-61029530D01*
X93123142Y-61148068D01*
X92865589Y-61320159D01*
X92646559Y-61539189D01*
X92474468Y-61796742D01*
X92355930Y-62082919D01*
X92295500Y-62386722D01*
X87440500Y-62386722D01*
X87380070Y-62082919D01*
X87261532Y-61796742D01*
X87089441Y-61539189D01*
X86870411Y-61320159D01*
X86612858Y-61148068D01*
X86326681Y-61029530D01*
X86022878Y-60969100D01*
X85713122Y-60969100D01*
X85409319Y-61029530D01*
X85123142Y-61148068D01*
X84865589Y-61320159D01*
X84646559Y-61539189D01*
X84474468Y-61796742D01*
X84355930Y-62082919D01*
X84295500Y-62386722D01*
X73025000Y-62386722D01*
X73025000Y-59791261D01*
X116541600Y-59791261D01*
X116541600Y-59995139D01*
X116581374Y-60195098D01*
X116659395Y-60383456D01*
X116772663Y-60552974D01*
X116916826Y-60697137D01*
X117086344Y-60810405D01*
X117274702Y-60888426D01*
X117474661Y-60928200D01*
X117678539Y-60928200D01*
X117878498Y-60888426D01*
X118066856Y-60810405D01*
X118236374Y-60697137D01*
X118380537Y-60552974D01*
X118493805Y-60383456D01*
X118571826Y-60195098D01*
X118611600Y-59995139D01*
X118611600Y-59791261D01*
X118571826Y-59591302D01*
X118493805Y-59402944D01*
X118380537Y-59233426D01*
X118236374Y-59089263D01*
X118066856Y-58975995D01*
X117878498Y-58897974D01*
X117678539Y-58858200D01*
X117474661Y-58858200D01*
X117274702Y-58897974D01*
X117086344Y-58975995D01*
X116916826Y-59089263D01*
X116772663Y-59233426D01*
X116659395Y-59402944D01*
X116581374Y-59591302D01*
X116541600Y-59791261D01*
X73025000Y-59791261D01*
X73025000Y-57277000D01*
X125095000Y-57277000D01*
X125095000Y-77370237D01*
G04 #@! TD*
M02*
