G04 #@! TF.GenerationSoftware,KiCad,Pcbnew,(5.1.6-0-10_14)*
G04 #@! TF.CreationDate,2021-12-23T16:17:06+01:00*
G04 #@! TF.ProjectId,CHAdeMO_V2.0,43484164-654d-44f5-9f56-322e302e6b69,rev?*
G04 #@! TF.SameCoordinates,Original*
G04 #@! TF.FileFunction,Copper,L4,Bot*
G04 #@! TF.FilePolarity,Positive*
%FSLAX46Y46*%
G04 Gerber Fmt 4.6, Leading zero omitted, Abs format (unit mm)*
G04 Created by KiCad (PCBNEW (5.1.6-0-10_14)) date 2021-12-23 16:17:06*
%MOMM*%
%LPD*%
G01*
G04 APERTURE LIST*
G04 #@! TA.AperFunction,ComponentPad*
%ADD10C,1.875000*%
G04 #@! TD*
G04 #@! TA.AperFunction,ComponentPad*
%ADD11C,1.333000*%
G04 #@! TD*
G04 #@! TA.AperFunction,ComponentPad*
%ADD12C,1.350000*%
G04 #@! TD*
G04 #@! TA.AperFunction,ComponentPad*
%ADD13C,4.575000*%
G04 #@! TD*
G04 #@! TA.AperFunction,ComponentPad*
%ADD14C,1.905000*%
G04 #@! TD*
G04 #@! TA.AperFunction,ComponentPad*
%ADD15C,1.270000*%
G04 #@! TD*
G04 #@! TA.AperFunction,ComponentPad*
%ADD16C,1.368000*%
G04 #@! TD*
G04 #@! TA.AperFunction,ComponentPad*
%ADD17R,1.368000X1.368000*%
G04 #@! TD*
G04 #@! TA.AperFunction,ComponentPad*
%ADD18C,2.175000*%
G04 #@! TD*
G04 #@! TA.AperFunction,ComponentPad*
%ADD19R,2.175000X2.175000*%
G04 #@! TD*
G04 #@! TA.AperFunction,ComponentPad*
%ADD20C,1.430000*%
G04 #@! TD*
G04 #@! TA.AperFunction,ComponentPad*
%ADD21C,3.450000*%
G04 #@! TD*
G04 #@! TA.AperFunction,ComponentPad*
%ADD22C,1.431000*%
G04 #@! TD*
G04 #@! TA.AperFunction,ViaPad*
%ADD23C,0.800000*%
G04 #@! TD*
G04 #@! TA.AperFunction,ViaPad*
%ADD24C,0.400000*%
G04 #@! TD*
G04 #@! TA.AperFunction,Conductor*
%ADD25C,0.300000*%
G04 #@! TD*
G04 #@! TA.AperFunction,Conductor*
%ADD26C,1.000000*%
G04 #@! TD*
G04 #@! TA.AperFunction,Conductor*
%ADD27C,0.250000*%
G04 #@! TD*
G04 #@! TA.AperFunction,Conductor*
%ADD28C,0.500000*%
G04 #@! TD*
G04 #@! TA.AperFunction,Conductor*
%ADD29C,0.200000*%
G04 #@! TD*
G04 #@! TA.AperFunction,Conductor*
%ADD30C,0.254000*%
G04 #@! TD*
G04 APERTURE END LIST*
D10*
G04 #@! TO.P,K1,5*
G04 #@! TO.N,/CHAdeMO_contactors_GND*
X93868000Y-65541600D03*
G04 #@! TO.P,K1,4*
G04 #@! TO.N,/CHAdeMO-CHARGE-START2_IN2*
X85868000Y-62541600D03*
G04 #@! TO.P,K1,3*
G04 #@! TO.N,Net-(K1-Pad3)*
X93868000Y-62541600D03*
D11*
G04 #@! TO.P,K1,2*
G04 #@! TO.N,/Relay_CHAdeMO_contactors_GND*
X94368000Y-72741600D03*
G04 #@! TO.P,K1,1*
G04 #@! TO.N,+12V*
X86868000Y-66141600D03*
G04 #@! TD*
D12*
G04 #@! TO.P,PS3,3*
G04 #@! TO.N,+3V3*
X86563200Y-95707200D03*
G04 #@! TO.P,PS3,2*
G04 #@! TO.N,Earth*
X89103200Y-95707200D03*
G04 #@! TO.P,PS3,1*
G04 #@! TO.N,Net-(L9-Pad2)*
X91643200Y-95707200D03*
G04 #@! TD*
D13*
G04 #@! TO.P,J2,MH1*
G04 #@! TO.N,Net-(J2-PadMH1)*
X100000000Y-50000000D03*
D14*
G04 #@! TO.P,J2,A20*
G04 #@! TO.N,/CAN0_N*
X108890000Y-50000000D03*
G04 #@! TO.P,J2,A19*
G04 #@! TO.N,Earth*
X112390000Y-50000000D03*
G04 #@! TO.P,J2,A18*
G04 #@! TO.N,/CHAdeMO_contactor2-feedbackIN*
X115890000Y-50000000D03*
G04 #@! TO.P,J2,A17*
G04 #@! TO.N,/ACTIVE-LOW-WAKEUP*
X119390000Y-50000000D03*
G04 #@! TO.P,J2,A16*
G04 #@! TO.N,/CHAdeMO_contactor1-feedbackIN*
X122890000Y-50000000D03*
G04 #@! TO.P,J2,A15*
G04 #@! TO.N,+5V_USB*
X126390000Y-50000000D03*
G04 #@! TO.P,J2,A14*
G04 #@! TO.N,Earth*
X129890000Y-50000000D03*
D15*
G04 #@! TO.P,J2,A13*
G04 #@! TO.N,Net-(J2-PadA13)*
X133390000Y-50000000D03*
D14*
G04 #@! TO.P,J2,A12*
G04 #@! TO.N,/CAN0_N*
X136890000Y-50000000D03*
G04 #@! TO.P,J2,A11*
G04 #@! TO.N,/CAN0_P*
X140390000Y-50000000D03*
G04 #@! TO.P,J2,A10*
X108890000Y-54000000D03*
G04 #@! TO.P,J2,A9*
G04 #@! TO.N,/CHAdeMO-CHARGE-START1_IN1*
X112390000Y-54000000D03*
G04 #@! TO.P,J2,A8*
G04 #@! TO.N,/CAR-12V_always-on*
X115890000Y-54000000D03*
G04 #@! TO.P,J2,A7*
G04 #@! TO.N,Net-(F2-Pad1)*
X119390000Y-54000000D03*
G04 #@! TO.P,J2,A6*
G04 #@! TO.N,/CHAdeMO_contactors_GND*
X122890000Y-54000000D03*
G04 #@! TO.P,J2,A5*
G04 #@! TO.N,/DHSDP*
X126390000Y-54000000D03*
G04 #@! TO.P,J2,A4*
G04 #@! TO.N,/DHSDM*
X129890000Y-54000000D03*
D15*
G04 #@! TO.P,J2,A3*
G04 #@! TO.N,Net-(J2-PadA3)*
X133390000Y-54000000D03*
D14*
G04 #@! TO.P,J2,A2*
G04 #@! TO.N,Earth*
X136890000Y-54000000D03*
D15*
G04 #@! TO.P,J2,A1*
G04 #@! TO.N,Net-(J2-PadA1)*
X140390000Y-54000000D03*
D14*
G04 #@! TO.P,J2,B12*
G04 #@! TO.N,Net-(J2-PadB12)*
X66620000Y-50000000D03*
G04 #@! TO.P,J2,B11*
G04 #@! TO.N,Net-(J2-PadB11)*
X70120000Y-50000000D03*
G04 #@! TO.P,J2,B10*
G04 #@! TO.N,/CHAdeMO-CHARGE-START2_IN2*
X73620000Y-50000000D03*
G04 #@! TO.P,J2,B9*
G04 #@! TO.N,/CAN1_N*
X77120000Y-50000000D03*
G04 #@! TO.P,J2,B8*
G04 #@! TO.N,/CAN1_P*
X80620000Y-50000000D03*
G04 #@! TO.P,J2,B7*
G04 #@! TO.N,/CHAdeMO_PROXIMITY*
X84120000Y-50000000D03*
G04 #@! TO.P,J2,B6*
G04 #@! TO.N,Net-(J2-PadB6)*
X66620000Y-54000000D03*
G04 #@! TO.P,J2,B5*
G04 #@! TO.N,Net-(J2-PadB5)*
X70120000Y-54000000D03*
G04 #@! TO.P,J2,B4*
G04 #@! TO.N,/CHAdeMO_charge_enable*
X73620000Y-54000000D03*
G04 #@! TO.P,J2,B3*
G04 #@! TO.N,Net-(J2-PadB3)*
X77120000Y-54000000D03*
G04 #@! TO.P,J2,B2*
G04 #@! TO.N,/CHAdeMO-CHARGE-START1_IN1*
X80620000Y-54000000D03*
G04 #@! TO.P,J2,B1*
G04 #@! TO.N,Earth*
X84120000Y-54000000D03*
G04 #@! TD*
D16*
G04 #@! TO.P,J4,2*
G04 #@! TO.N,/CAN1_P*
X52213000Y-48810000D03*
D17*
G04 #@! TO.P,J4,1*
G04 #@! TO.N,/CAN1_N*
X54213000Y-48810000D03*
G04 #@! TD*
D18*
G04 #@! TO.P,J3,2*
G04 #@! TO.N,Earth*
X113030000Y-68339600D03*
D19*
G04 #@! TO.P,J3,1*
G04 #@! TO.N,/CAR-12V_always-on*
X113030000Y-62839600D03*
G04 #@! TD*
D20*
G04 #@! TO.P,PS1,4*
G04 #@! TO.N,+5V_0*
X132689600Y-109524800D03*
G04 #@! TO.P,PS1,3*
G04 #@! TO.N,GND_CAN0*
X130149600Y-109524800D03*
G04 #@! TO.P,PS1,2*
G04 #@! TO.N,Net-(C38-Pad2)*
X127609600Y-109524800D03*
G04 #@! TO.P,PS1,1*
G04 #@! TO.N,Earth*
X125069600Y-109524800D03*
G04 #@! TD*
G04 #@! TO.P,PS2,4*
G04 #@! TO.N,+5V_1*
X67945000Y-101092000D03*
G04 #@! TO.P,PS2,3*
G04 #@! TO.N,GND_CAN1*
X70485000Y-101092000D03*
G04 #@! TO.P,PS2,2*
G04 #@! TO.N,Net-(C39-Pad2)*
X73025000Y-101092000D03*
G04 #@! TO.P,PS2,1*
G04 #@! TO.N,Earth*
X75565000Y-101092000D03*
G04 #@! TD*
D21*
G04 #@! TO.P,J1,6*
G04 #@! TO.N,Earth*
X113479400Y-87762200D03*
G04 #@! TO.P,J1,5*
X113479400Y-99802200D03*
D22*
G04 #@! TO.P,J1,4*
X113969400Y-92532200D03*
G04 #@! TO.P,J1,3*
G04 #@! TO.N,/DHSDP*
X113969400Y-95032200D03*
G04 #@! TO.P,J1,2*
G04 #@! TO.N,/DHSDM*
X110769400Y-95032200D03*
G04 #@! TO.P,J1,1*
G04 #@! TO.N,+5V_USB*
X110769400Y-92532200D03*
G04 #@! TD*
D23*
G04 #@! TO.N,Earth*
X104267000Y-116370100D03*
X104495600Y-66954400D03*
D24*
X93802200Y-123367800D03*
D23*
X81686400Y-126149100D03*
X75298300Y-116560600D03*
X98171000Y-110667800D03*
X87376000Y-113461800D03*
X98780600Y-104546400D03*
X93421200Y-106172000D03*
X100914200Y-110540800D03*
X103555800Y-110490000D03*
X84175600Y-114046000D03*
X104343200Y-123215400D03*
X121640600Y-66802000D03*
X72593200Y-92405200D03*
X74269600Y-85013800D03*
X91821000Y-81965800D03*
X101625400Y-106197400D03*
X104140000Y-132562600D03*
X99364800Y-121818400D03*
D24*
X97002600Y-122580400D03*
X96977200Y-120980200D03*
X94615000Y-120954800D03*
D23*
X94691200Y-110998000D03*
X91094038Y-118811562D03*
X107035600Y-111239300D03*
X83959700Y-120472200D03*
X98107500Y-66916300D03*
X72882019Y-80089481D03*
X73914000Y-74625200D03*
X124364750Y-67976750D03*
X124002800Y-72999600D03*
X121551700Y-79895700D03*
D24*
X95377000Y-121805700D03*
D23*
G04 #@! TO.N,Net-(C4-Pad1)*
X100787200Y-107188000D03*
D24*
X93805139Y-120164461D03*
D23*
G04 #@! TO.N,+3V3*
X83784400Y-126413500D03*
X85445600Y-120345200D03*
X108305600Y-108966000D03*
X84582000Y-118338600D03*
X87020400Y-131343400D03*
X100482400Y-131648200D03*
X92252800Y-102997000D03*
X79413100Y-112242600D03*
X124155200Y-71348600D03*
D24*
X92989400Y-123367800D03*
X93802200Y-124180600D03*
X94602300Y-121754900D03*
X93014800Y-120954800D03*
D23*
X96976530Y-110693200D03*
X77444600Y-73126600D03*
X93666881Y-110978087D03*
X89433400Y-114173000D03*
D24*
X92202000Y-123367800D03*
D23*
X105359200Y-129540000D03*
X119519700Y-113322100D03*
X76073000Y-91643200D03*
X75730100Y-80086200D03*
X122135900Y-92354400D03*
G04 #@! TO.N,Earth*
X100444300Y-127203200D03*
X84061300Y-125095000D03*
X88493600Y-121043700D03*
X67310000Y-58724800D03*
X88684100Y-117144800D03*
G04 #@! TO.N,/CAN0-TX*
X121894600Y-97434400D03*
D24*
X97002600Y-124180600D03*
D23*
G04 #@! TO.N,/CAN0-RX*
X121208800Y-94894400D03*
D24*
X96189800Y-124180600D03*
D23*
G04 #@! TO.N,/CAN1-RX*
X81762600Y-110591600D03*
X79349600Y-107873800D03*
D24*
G04 #@! TO.N,/EEPROM-SCL*
X91401900Y-123367800D03*
D23*
X88214200Y-125222000D03*
D24*
G04 #@! TO.N,/VDD_OUT_MI*
X96989900Y-121780300D03*
D23*
X102387400Y-116408200D03*
G04 #@! TO.N,+12V*
X106172000Y-59245500D03*
X108839000Y-59245500D03*
G04 #@! TO.N,/VDD_OUT*
X98094800Y-131572000D03*
D24*
X94615000Y-124180600D03*
X92075000Y-131368800D03*
X94589600Y-124968000D03*
X93510100Y-115214400D03*
D23*
X98094800Y-128765300D03*
D24*
X93002895Y-124195345D03*
D23*
G04 #@! TO.N,/CHAdeMO-charge-enable-signal_D48*
X72593200Y-68173600D03*
D24*
X93802200Y-125755400D03*
G04 #@! TO.N,/relay-CHAdeMO-contactors-signal_D49*
X96202500Y-123367800D03*
D23*
X97332800Y-114960400D03*
D24*
G04 #@! TO.N,/CHAdeMO-charge-start1_3.3Vsignal_IN1_D6*
X90601800Y-126542800D03*
D23*
X77495400Y-77317600D03*
G04 #@! TO.N,/CHAdeMO-charge-start2_3.3Vsignal_IN2_D7*
X83286600Y-88493600D03*
D24*
X96202500Y-124968000D03*
D23*
X90246200Y-117119400D03*
G04 #@! TO.N,GND_CAN1*
X64109600Y-78359000D03*
X53263800Y-55829200D03*
X69291200Y-88900000D03*
X73329800Y-45834300D03*
X66916300Y-67691000D03*
G04 #@! TO.N,GND_CAN0*
X135382000Y-90424000D03*
X138645900Y-60934600D03*
X129019300Y-76149200D03*
X128879600Y-84391500D03*
X131749800Y-84988400D03*
X131495800Y-93726000D03*
X133629400Y-96189800D03*
X114122200Y-44907200D03*
X130530600Y-45046900D03*
X106362500Y-54495700D03*
X106222800Y-43319700D03*
G04 #@! TO.N,+5V_USB*
X101727000Y-62230000D03*
G04 #@! TO.N,Net-(C5-Pad1)*
X95986600Y-116281200D03*
X94386400Y-118745000D03*
G04 #@! TO.N,Net-(C13-Pad1)*
X103530400Y-106146600D03*
X103855500Y-113474500D03*
G04 #@! TO.N,Net-(C18-Pad1)*
X79222600Y-114731800D03*
X89103200Y-118783810D03*
G04 #@! TO.N,/CHAdeMO_contactor2-feedbackIN*
X118872000Y-58547000D03*
D24*
G04 #@! TO.N,/CHAdeMO_contactor1-feedback_D27*
X92202000Y-120967500D03*
D23*
X115735100Y-82867500D03*
D24*
G04 #@! TO.N,Net-(IC3-PadH5)*
X93814900Y-120980200D03*
D23*
X95021400Y-115036600D03*
G04 #@! TO.N,Net-(IC3-PadG5)*
X91262200Y-111683800D03*
D24*
X93802200Y-121767600D03*
G04 #@! TO.N,/DHSDM*
X96189800Y-120180100D03*
G04 #@! TO.N,/DHSDP*
X96202500Y-120967500D03*
G04 #@! TD*
D25*
G04 #@! TO.N,Net-(C4-Pad1)*
X95948500Y-115252500D02*
X93630140Y-117570860D01*
X100787200Y-107188000D02*
X101676200Y-108077000D01*
X99451660Y-114031260D02*
X96890340Y-114031260D01*
X101676200Y-108077000D02*
X101676200Y-111806720D01*
X96890340Y-114031260D02*
X95948500Y-114973100D01*
X95948500Y-114973100D02*
X95948500Y-115252500D01*
X93630140Y-117570860D02*
X93630140Y-119989462D01*
X101676200Y-111806720D02*
X99451660Y-114031260D01*
X93630140Y-119989462D02*
X93805139Y-120164461D01*
G04 #@! TO.N,/CAN0-TX*
X97015300Y-124193300D02*
X97002600Y-124180600D01*
X102255298Y-124193300D02*
X97015300Y-124193300D01*
X121894600Y-104553998D02*
X102255298Y-124193300D01*
X121894600Y-97434400D02*
X121894600Y-104553998D01*
G04 #@! TO.N,/CAN0-RX*
X102750598Y-117322600D02*
X107463320Y-117322600D01*
X97967800Y-122105398D02*
X102750598Y-117322600D01*
X120370600Y-95732600D02*
X121208800Y-94894400D01*
X97967800Y-122415300D02*
X97967800Y-122105398D01*
X120370600Y-104415320D02*
X120370600Y-95732600D01*
X107463320Y-117322600D02*
X120370600Y-104415320D01*
X97955100Y-122415300D02*
X97967800Y-122415300D01*
X96189800Y-124180600D02*
X97955100Y-122415300D01*
G04 #@! TO.N,/CAN1-RX*
X79349600Y-108178600D02*
X79349600Y-107873800D01*
X81762600Y-110591600D02*
X79349600Y-108178600D01*
D26*
G04 #@! TO.N,/CAR-12V_always-on*
X113030000Y-56860000D02*
X115890000Y-54000000D01*
X113030000Y-62839600D02*
X113030000Y-56860000D01*
D25*
G04 #@! TO.N,/EEPROM-SCL*
X89560400Y-125222000D02*
X88214200Y-125222000D01*
X91389200Y-123393200D02*
X89560400Y-125222000D01*
G04 #@! TO.N,/VDD_OUT_MI*
X97015300Y-121780300D02*
X102387400Y-116408200D01*
X96989900Y-121780300D02*
X97015300Y-121780300D01*
D26*
G04 #@! TO.N,+12V*
X93764100Y-59245500D02*
X108839000Y-59245500D01*
X86868000Y-66141600D02*
X93764100Y-59245500D01*
D25*
G04 #@! TO.N,/VDD_OUT*
X98094800Y-127660400D02*
X98094800Y-128765300D01*
X94615000Y-124942600D02*
X94615000Y-124180600D01*
X94589600Y-124968000D02*
X94615000Y-124942600D01*
X94589600Y-126111000D02*
X94589600Y-124968000D01*
X92075000Y-128625600D02*
X94589600Y-126111000D01*
X92075000Y-131368800D02*
X92075000Y-128625600D01*
X95910400Y-125476000D02*
X95592900Y-125476000D01*
X94589600Y-124968000D02*
X95084900Y-124968000D01*
X95592900Y-125476000D02*
X95084900Y-124968000D01*
X95910400Y-125476000D02*
X98094800Y-127660400D01*
X98094800Y-128765300D02*
X98094800Y-131572000D01*
X93775550Y-124968000D02*
X93002895Y-124195345D01*
X94589600Y-124968000D02*
X93775550Y-124968000D01*
D26*
G04 #@! TO.N,/CHAdeMO-CHARGE-START1_IN1*
X112390000Y-55758000D02*
X112390000Y-54000000D01*
X110744000Y-57404000D02*
X112390000Y-55758000D01*
X84024000Y-57404000D02*
X110744000Y-57404000D01*
X80620000Y-54000000D02*
X84024000Y-57404000D01*
G04 #@! TO.N,/CHAdeMO_contactors_GND*
X122890000Y-59101000D02*
X122890000Y-54000000D01*
X116449400Y-65541600D02*
X122890000Y-59101000D01*
X93868000Y-65541600D02*
X116449400Y-65541600D01*
D25*
G04 #@! TO.N,/CHAdeMO-charge-enable-signal_D48*
X92062300Y-127495300D02*
X88023700Y-127495300D01*
X77470000Y-83616800D02*
X72593200Y-78740000D01*
X88023700Y-127495300D02*
X77470000Y-116941600D01*
X72593200Y-78740000D02*
X72593200Y-68173600D01*
X77470000Y-116941600D02*
X77470000Y-83616800D01*
X93802200Y-125755400D02*
X92062300Y-127495300D01*
D27*
G04 #@! TO.N,/relay-CHAdeMO-contactors-signal_D49*
X96215200Y-123367800D02*
X96215200Y-121819602D01*
D25*
X95067489Y-120578913D02*
X95067489Y-119206911D01*
X95067489Y-119206911D02*
X97332800Y-116941600D01*
X95605600Y-121117024D02*
X95067489Y-120578913D01*
X95605600Y-121210002D02*
X95605600Y-121117024D01*
X96215200Y-121819602D02*
X95605600Y-121210002D01*
X97332800Y-116941600D02*
X97332800Y-115526085D01*
X97332800Y-115526085D02*
X97332800Y-114960400D01*
D28*
G04 #@! TO.N,/CHAdeMO-CHARGE-START2_IN2*
X73620000Y-50760000D02*
X73620000Y-50000000D01*
X75438000Y-52578000D02*
X73620000Y-50760000D01*
X85868000Y-62541600D02*
X79206400Y-55880000D01*
X75438000Y-54864000D02*
X75438000Y-52578000D01*
X76454000Y-55880000D02*
X75438000Y-54864000D01*
X79206400Y-55880000D02*
X76454000Y-55880000D01*
D29*
G04 #@! TO.N,/CHAdeMO-charge-start1_3.3Vsignal_IN1_D6*
X90576400Y-126580900D02*
X88463098Y-126580900D01*
X90627200Y-126530100D02*
X90576400Y-126580900D01*
D25*
X78130400Y-116248202D02*
X78130400Y-78518285D01*
X77495400Y-77883285D02*
X77495400Y-77317600D01*
X78130400Y-78518285D02*
X77495400Y-77883285D01*
X88463098Y-126580900D02*
X78130400Y-116248202D01*
G04 #@! TO.N,/CHAdeMO-charge-start2_3.3Vsignal_IN2_D7*
X90246200Y-112285802D02*
X83286600Y-105326202D01*
X94993961Y-122425961D02*
X92254839Y-122425961D01*
X95529400Y-122961400D02*
X94993961Y-122425961D01*
X83286600Y-105326202D02*
X83286600Y-88493600D01*
X90246200Y-120417322D02*
X90246200Y-112285802D01*
X92254839Y-122425961D02*
X90246200Y-120417322D01*
X95529400Y-124334202D02*
X95529400Y-122961400D01*
X96163198Y-124968000D02*
X95529400Y-124334202D01*
X96202500Y-124968000D02*
X96163198Y-124968000D01*
G04 #@! TO.N,+5V_USB*
X116205000Y-90576400D02*
X112725200Y-90576400D01*
X112725200Y-90576400D02*
X110769400Y-92532200D01*
X116992400Y-67640200D02*
X116992400Y-89789000D01*
X116992400Y-89789000D02*
X116205000Y-90576400D01*
X124612400Y-60020200D02*
X116992400Y-67640200D01*
X126390000Y-50000000D02*
X124612400Y-51777600D01*
X124612400Y-51777600D02*
X124612400Y-60020200D01*
X108661200Y-62230000D02*
X101727000Y-62230000D01*
X110947200Y-64516000D02*
X108661200Y-62230000D01*
X122555000Y-51841400D02*
X121208800Y-53187600D01*
X115265200Y-64516000D02*
X110947200Y-64516000D01*
X121208800Y-58572400D02*
X115265200Y-64516000D01*
X121208800Y-53187600D02*
X121208800Y-58572400D01*
X124612400Y-51841400D02*
X122555000Y-51841400D01*
G04 #@! TO.N,Net-(C5-Pad1)*
X94386400Y-117881400D02*
X95986600Y-116281200D01*
X94386400Y-118745000D02*
X94386400Y-117881400D01*
D27*
G04 #@! TO.N,Net-(C13-Pad1)*
X104571800Y-107188000D02*
X103530400Y-106146600D01*
X104571800Y-112758200D02*
X104571800Y-107188000D01*
X103855500Y-113474500D02*
X104571800Y-112758200D01*
D25*
G04 #@! TO.N,Net-(C18-Pad1)*
X79222600Y-114731800D02*
X79889899Y-114731800D01*
X82346800Y-114731800D02*
X86398810Y-118783810D01*
X79222600Y-114731800D02*
X82346800Y-114731800D01*
X86398810Y-118783810D02*
X89103200Y-118783810D01*
D28*
G04 #@! TO.N,/CHAdeMO_contactor2-feedbackIN*
X115890000Y-50000000D02*
X117576600Y-51686600D01*
X117576600Y-57251600D02*
X118872000Y-58547000D01*
X117576600Y-51686600D02*
X117576600Y-57251600D01*
D25*
G04 #@! TO.N,/CHAdeMO_contactor1-feedback_D27*
X92202000Y-120954800D02*
X92202000Y-120218200D01*
X99695000Y-113080800D02*
X99695000Y-98450400D01*
X93065600Y-113436400D02*
X99339400Y-113436400D01*
X99339400Y-113436400D02*
X99695000Y-113080800D01*
X92456000Y-119964200D02*
X92456000Y-114046000D01*
X115277900Y-82867500D02*
X115735100Y-82867500D01*
X99695000Y-98450400D02*
X115277900Y-82867500D01*
X92456000Y-114046000D02*
X93065600Y-113436400D01*
X92202000Y-120218200D02*
X92456000Y-119964200D01*
X115735100Y-82867500D02*
X115735100Y-82867500D01*
G04 #@! TO.N,Net-(IC3-PadH5)*
X92964000Y-117094000D02*
X93317021Y-116740979D01*
X93827600Y-120929400D02*
X92964000Y-120065800D01*
X93317021Y-116740979D02*
X95021400Y-115036600D01*
X93827600Y-121005600D02*
X93827600Y-120929400D01*
X92964000Y-120065800D02*
X92964000Y-117094000D01*
G04 #@! TO.N,Net-(IC3-PadG5)*
X91844039Y-112265639D02*
X91262200Y-111683800D01*
X91668600Y-121132600D02*
X91668600Y-119347002D01*
X91844039Y-119171563D02*
X91844039Y-112265639D01*
X91668600Y-119347002D02*
X91844039Y-119171563D01*
X92303600Y-121767600D02*
X91668600Y-121132600D01*
X93802200Y-121767600D02*
X93802200Y-121767600D01*
X93802200Y-121767600D02*
X92303600Y-121767600D01*
G04 #@! TO.N,/DHSDM*
X129890000Y-60229000D02*
X129890000Y-54000000D01*
X110769400Y-95032200D02*
X112435000Y-96697800D01*
X114668300Y-96697800D02*
X120269000Y-91097100D01*
X120269000Y-69850000D02*
X129890000Y-60229000D01*
X112435000Y-96697800D02*
X114668300Y-96697800D01*
X120269000Y-91097100D02*
X120269000Y-69850000D01*
X110769400Y-113309400D02*
X110769400Y-95032200D01*
X108559600Y-115519200D02*
X110769400Y-113309400D01*
X100838000Y-115519200D02*
X108559600Y-115519200D01*
X96189800Y-120167400D02*
X100838000Y-115519200D01*
G04 #@! TO.N,/DHSDP*
X118470800Y-68861798D02*
X118470800Y-90530800D01*
X126390400Y-60942198D02*
X118470800Y-68861798D01*
X126390400Y-54000400D02*
X126390400Y-60942198D01*
X118470800Y-90530800D02*
X113969400Y-95032200D01*
X126390000Y-54000000D02*
X126390400Y-54000400D01*
X95639799Y-120404799D02*
X95618300Y-120383300D01*
X95639799Y-120444101D02*
X95639799Y-120404799D01*
X95925799Y-120730101D02*
X95639799Y-120444101D01*
X95965101Y-120730101D02*
X95925799Y-120730101D01*
X96202500Y-120967500D02*
X95965101Y-120730101D01*
X95618300Y-120383300D02*
X95618300Y-119811800D01*
X112764800Y-93827600D02*
X113969400Y-95032200D01*
X108305600Y-93827600D02*
X112764800Y-93827600D01*
X102539800Y-99593400D02*
X108305600Y-93827600D01*
X102539800Y-112877600D02*
X102539800Y-99593400D01*
X95605600Y-119811800D02*
X102539800Y-112877600D01*
G04 #@! TD*
D30*
G04 #@! TO.N,Earth*
G36*
X134493000Y-49136224D02*
G01*
X134475120Y-49109465D01*
X134280535Y-48914880D01*
X134051727Y-48761995D01*
X133797490Y-48656686D01*
X133527592Y-48603000D01*
X133252408Y-48603000D01*
X132982510Y-48656686D01*
X132728273Y-48761995D01*
X132499465Y-48914880D01*
X132304880Y-49109465D01*
X132151995Y-49338273D01*
X132046686Y-49592510D01*
X131993000Y-49862408D01*
X131993000Y-50137592D01*
X132046686Y-50407490D01*
X132151995Y-50661727D01*
X132304880Y-50890535D01*
X132499465Y-51085120D01*
X132728273Y-51238005D01*
X132982510Y-51343314D01*
X133252408Y-51397000D01*
X133527592Y-51397000D01*
X133797490Y-51343314D01*
X134051727Y-51238005D01*
X134280535Y-51085120D01*
X134475120Y-50890535D01*
X134493000Y-50863776D01*
X134493000Y-51790602D01*
X134505201Y-51914485D01*
X134541337Y-52033606D01*
X134600017Y-52143389D01*
X134678987Y-52239615D01*
X134775213Y-52318585D01*
X134884996Y-52377266D01*
X135004118Y-52413401D01*
X135128000Y-52425602D01*
X136685901Y-52425601D01*
X136515815Y-52449328D01*
X136220484Y-52552123D01*
X136058098Y-52638919D01*
X135968070Y-52898465D01*
X136890000Y-53820395D01*
X136904143Y-53806253D01*
X137083748Y-53985858D01*
X137069605Y-54000000D01*
X137083748Y-54014143D01*
X136904143Y-54193748D01*
X136890000Y-54179605D01*
X135968070Y-55101535D01*
X136058098Y-55361081D01*
X136339616Y-55497224D01*
X136642286Y-55575829D01*
X136954474Y-55593877D01*
X137264185Y-55550672D01*
X137559516Y-55447877D01*
X137642600Y-55403468D01*
X137642600Y-56751441D01*
X134116840Y-56724568D01*
X133988118Y-56736751D01*
X133868996Y-56772886D01*
X133759213Y-56831567D01*
X133662987Y-56910537D01*
X133584017Y-57006763D01*
X133525336Y-57116546D01*
X133489201Y-57235668D01*
X133477000Y-57359550D01*
X133477000Y-73025000D01*
X125730000Y-73025000D01*
X125606118Y-73037201D01*
X125486996Y-73073336D01*
X125377213Y-73132017D01*
X125280987Y-73210987D01*
X125202017Y-73307213D01*
X125143336Y-73416996D01*
X125107201Y-73536118D01*
X125095000Y-73660000D01*
X125095000Y-87274400D01*
X125107956Y-87402017D01*
X125144805Y-87520920D01*
X125204143Y-87630349D01*
X125283689Y-87726099D01*
X125380387Y-87804490D01*
X125490520Y-87862511D01*
X125609857Y-87897931D01*
X125733810Y-87909389D01*
X128270000Y-87894172D01*
X128270000Y-108342434D01*
X128249065Y-108328446D01*
X128003380Y-108226680D01*
X127742563Y-108174800D01*
X127476637Y-108174800D01*
X127215820Y-108226680D01*
X126970135Y-108328446D01*
X126749025Y-108476187D01*
X126560987Y-108664225D01*
X126413246Y-108885335D01*
X126338858Y-109064925D01*
X126292739Y-108938194D01*
X126236886Y-108833698D01*
X126001588Y-108772417D01*
X125249205Y-109524800D01*
X126001588Y-110277183D01*
X126236886Y-110215902D01*
X126341617Y-109991337D01*
X126413246Y-110164265D01*
X126560987Y-110385375D01*
X126749025Y-110573413D01*
X126970135Y-110721154D01*
X127215820Y-110822920D01*
X127476637Y-110874800D01*
X127742563Y-110874800D01*
X128003380Y-110822920D01*
X128249065Y-110721154D01*
X128270000Y-110707166D01*
X128270000Y-115309650D01*
X128282165Y-115433348D01*
X128318264Y-115552480D01*
X128376912Y-115662280D01*
X128455854Y-115758530D01*
X128552056Y-115837528D01*
X128661822Y-115896241D01*
X128780933Y-115932412D01*
X128904812Y-115944650D01*
X141865000Y-115948496D01*
X141865000Y-148984500D01*
X58135000Y-148984500D01*
X58135000Y-147550727D01*
X58239000Y-147550727D01*
X58239000Y-147789273D01*
X58285538Y-148023236D01*
X58376825Y-148243624D01*
X58509354Y-148441968D01*
X58678032Y-148610646D01*
X58876376Y-148743175D01*
X59096764Y-148834462D01*
X59330727Y-148881000D01*
X59569273Y-148881000D01*
X59803236Y-148834462D01*
X60023624Y-148743175D01*
X60221968Y-148610646D01*
X60390646Y-148441968D01*
X60523175Y-148243624D01*
X60614462Y-148023236D01*
X60661000Y-147789273D01*
X60661000Y-147550727D01*
X139339000Y-147550727D01*
X139339000Y-147789273D01*
X139385538Y-148023236D01*
X139476825Y-148243624D01*
X139609354Y-148441968D01*
X139778032Y-148610646D01*
X139976376Y-148743175D01*
X140196764Y-148834462D01*
X140430727Y-148881000D01*
X140669273Y-148881000D01*
X140903236Y-148834462D01*
X141123624Y-148743175D01*
X141321968Y-148610646D01*
X141490646Y-148441968D01*
X141623175Y-148243624D01*
X141714462Y-148023236D01*
X141761000Y-147789273D01*
X141761000Y-147550727D01*
X141714462Y-147316764D01*
X141623175Y-147096376D01*
X141490646Y-146898032D01*
X141321968Y-146729354D01*
X141123624Y-146596825D01*
X140903236Y-146505538D01*
X140669273Y-146459000D01*
X140430727Y-146459000D01*
X140196764Y-146505538D01*
X139976376Y-146596825D01*
X139778032Y-146729354D01*
X139609354Y-146898032D01*
X139476825Y-147096376D01*
X139385538Y-147316764D01*
X139339000Y-147550727D01*
X60661000Y-147550727D01*
X60614462Y-147316764D01*
X60523175Y-147096376D01*
X60390646Y-146898032D01*
X60221968Y-146729354D01*
X60023624Y-146596825D01*
X59803236Y-146505538D01*
X59569273Y-146459000D01*
X59330727Y-146459000D01*
X59096764Y-146505538D01*
X58876376Y-146596825D01*
X58678032Y-146729354D01*
X58509354Y-146898032D01*
X58376825Y-147096376D01*
X58285538Y-147316764D01*
X58239000Y-147550727D01*
X58135000Y-147550727D01*
X58135000Y-131241461D01*
X85985400Y-131241461D01*
X85985400Y-131445339D01*
X86025174Y-131645298D01*
X86103195Y-131833656D01*
X86216463Y-132003174D01*
X86360626Y-132147337D01*
X86530144Y-132260605D01*
X86718502Y-132338626D01*
X86918461Y-132378400D01*
X87122339Y-132378400D01*
X87322298Y-132338626D01*
X87510656Y-132260605D01*
X87680174Y-132147337D01*
X87824337Y-132003174D01*
X87937605Y-131833656D01*
X88015626Y-131645298D01*
X88055400Y-131445339D01*
X88055400Y-131241461D01*
X88015626Y-131041502D01*
X87937605Y-130853144D01*
X87824337Y-130683626D01*
X87680174Y-130539463D01*
X87510656Y-130426195D01*
X87322298Y-130348174D01*
X87122339Y-130308400D01*
X86918461Y-130308400D01*
X86718502Y-130348174D01*
X86530144Y-130426195D01*
X86360626Y-130539463D01*
X86216463Y-130683626D01*
X86103195Y-130853144D01*
X86025174Y-131041502D01*
X85985400Y-131241461D01*
X58135000Y-131241461D01*
X58135000Y-126311561D01*
X82749400Y-126311561D01*
X82749400Y-126515439D01*
X82789174Y-126715398D01*
X82867195Y-126903756D01*
X82980463Y-127073274D01*
X83124626Y-127217437D01*
X83294144Y-127330705D01*
X83482502Y-127408726D01*
X83682461Y-127448500D01*
X83886339Y-127448500D01*
X84086298Y-127408726D01*
X84274656Y-127330705D01*
X84444174Y-127217437D01*
X84588337Y-127073274D01*
X84701605Y-126903756D01*
X84779626Y-126715398D01*
X84819400Y-126515439D01*
X84819400Y-126311561D01*
X84779626Y-126111602D01*
X84701605Y-125923244D01*
X84588337Y-125753726D01*
X84444174Y-125609563D01*
X84274656Y-125496295D01*
X84086298Y-125418274D01*
X83886339Y-125378500D01*
X83682461Y-125378500D01*
X83482502Y-125418274D01*
X83294144Y-125496295D01*
X83124626Y-125609563D01*
X82980463Y-125753726D01*
X82867195Y-125923244D01*
X82789174Y-126111602D01*
X82749400Y-126311561D01*
X58135000Y-126311561D01*
X58135000Y-108338551D01*
X71627459Y-108350050D01*
X71751882Y-108337849D01*
X71871004Y-108301714D01*
X71980787Y-108243033D01*
X72077013Y-108164063D01*
X72155983Y-108067837D01*
X72214664Y-107958054D01*
X72250799Y-107838932D01*
X72263000Y-107715050D01*
X72263000Y-102206479D01*
X72385535Y-102288354D01*
X72631220Y-102390120D01*
X72892037Y-102442000D01*
X73157963Y-102442000D01*
X73418780Y-102390120D01*
X73664465Y-102288354D01*
X73885575Y-102140613D01*
X74002200Y-102023988D01*
X74812617Y-102023988D01*
X74873898Y-102259286D01*
X75114903Y-102371684D01*
X75373206Y-102434905D01*
X75638879Y-102446518D01*
X75901712Y-102406078D01*
X76151606Y-102315139D01*
X76256102Y-102259286D01*
X76317383Y-102023988D01*
X75565000Y-101271605D01*
X74812617Y-102023988D01*
X74002200Y-102023988D01*
X74073613Y-101952575D01*
X74221354Y-101731465D01*
X74295742Y-101551875D01*
X74341861Y-101678606D01*
X74397714Y-101783102D01*
X74633012Y-101844383D01*
X75385395Y-101092000D01*
X74633012Y-100339617D01*
X74397714Y-100400898D01*
X74292983Y-100625463D01*
X74221354Y-100452535D01*
X74073613Y-100231425D01*
X74002200Y-100160012D01*
X74812617Y-100160012D01*
X75565000Y-100912395D01*
X76317383Y-100160012D01*
X76256102Y-99924714D01*
X76015097Y-99812316D01*
X75756794Y-99749095D01*
X75491121Y-99737482D01*
X75228288Y-99777922D01*
X74978394Y-99868861D01*
X74873898Y-99924714D01*
X74812617Y-100160012D01*
X74002200Y-100160012D01*
X73885575Y-100043387D01*
X73664465Y-99895646D01*
X73418780Y-99793880D01*
X73157963Y-99742000D01*
X72892037Y-99742000D01*
X72631220Y-99793880D01*
X72385535Y-99895646D01*
X72263000Y-99977521D01*
X72263000Y-79519957D01*
X76685001Y-83941958D01*
X76685001Y-90807342D01*
X76563256Y-90725995D01*
X76374898Y-90647974D01*
X76174939Y-90608200D01*
X75971061Y-90608200D01*
X75771102Y-90647974D01*
X75582744Y-90725995D01*
X75413226Y-90839263D01*
X75269063Y-90983426D01*
X75155795Y-91152944D01*
X75077774Y-91341302D01*
X75038000Y-91541261D01*
X75038000Y-91745139D01*
X75077774Y-91945098D01*
X75155795Y-92133456D01*
X75269063Y-92302974D01*
X75413226Y-92447137D01*
X75582744Y-92560405D01*
X75771102Y-92638426D01*
X75971061Y-92678200D01*
X76174939Y-92678200D01*
X76374898Y-92638426D01*
X76563256Y-92560405D01*
X76685001Y-92479058D01*
X76685000Y-100388583D01*
X76496988Y-100339617D01*
X75744605Y-101092000D01*
X76496988Y-101844383D01*
X76685000Y-101795417D01*
X76685000Y-116903047D01*
X76681203Y-116941600D01*
X76685000Y-116980153D01*
X76685000Y-116980160D01*
X76696359Y-117095486D01*
X76741246Y-117243459D01*
X76814138Y-117379832D01*
X76912236Y-117499364D01*
X76942190Y-117523947D01*
X87441353Y-128023110D01*
X87465936Y-128053064D01*
X87585467Y-128151162D01*
X87721840Y-128224054D01*
X87869813Y-128268942D01*
X87944726Y-128276320D01*
X87985139Y-128280300D01*
X87985144Y-128280300D01*
X88023700Y-128284097D01*
X88062256Y-128280300D01*
X91369466Y-128280300D01*
X91346246Y-128323741D01*
X91301359Y-128471714D01*
X91286203Y-128625600D01*
X91290001Y-128664163D01*
X91290000Y-131081999D01*
X91272089Y-131125240D01*
X91240000Y-131286560D01*
X91240000Y-131451040D01*
X91272089Y-131612360D01*
X91335033Y-131764321D01*
X91426413Y-131901081D01*
X91542719Y-132017387D01*
X91679479Y-132108767D01*
X91831440Y-132171711D01*
X91992760Y-132203800D01*
X92157240Y-132203800D01*
X92318560Y-132171711D01*
X92470521Y-132108767D01*
X92607281Y-132017387D01*
X92723587Y-131901081D01*
X92814967Y-131764321D01*
X92877911Y-131612360D01*
X92910000Y-131451040D01*
X92910000Y-131286560D01*
X92877911Y-131125240D01*
X92860000Y-131081999D01*
X92860000Y-128950757D01*
X95117417Y-126693341D01*
X95147364Y-126668764D01*
X95245462Y-126549233D01*
X95318354Y-126412860D01*
X95363241Y-126264887D01*
X95366897Y-126227765D01*
X95404572Y-126239194D01*
X95439012Y-126249641D01*
X95453390Y-126251057D01*
X95554339Y-126261000D01*
X95554346Y-126261000D01*
X95588618Y-126264375D01*
X97309800Y-127985558D01*
X97309800Y-128086589D01*
X97290863Y-128105526D01*
X97177595Y-128275044D01*
X97099574Y-128463402D01*
X97059800Y-128663361D01*
X97059800Y-128867239D01*
X97099574Y-129067198D01*
X97177595Y-129255556D01*
X97290863Y-129425074D01*
X97309800Y-129444011D01*
X97309801Y-130893288D01*
X97290863Y-130912226D01*
X97177595Y-131081744D01*
X97099574Y-131270102D01*
X97059800Y-131470061D01*
X97059800Y-131673939D01*
X97099574Y-131873898D01*
X97177595Y-132062256D01*
X97290863Y-132231774D01*
X97435026Y-132375937D01*
X97604544Y-132489205D01*
X97792902Y-132567226D01*
X97992861Y-132607000D01*
X98196739Y-132607000D01*
X98396698Y-132567226D01*
X98585056Y-132489205D01*
X98754574Y-132375937D01*
X98898737Y-132231774D01*
X99012005Y-132062256D01*
X99090026Y-131873898D01*
X99129800Y-131673939D01*
X99129800Y-131546261D01*
X99447400Y-131546261D01*
X99447400Y-131750139D01*
X99487174Y-131950098D01*
X99565195Y-132138456D01*
X99678463Y-132307974D01*
X99822626Y-132452137D01*
X99992144Y-132565405D01*
X100180502Y-132643426D01*
X100380461Y-132683200D01*
X100584339Y-132683200D01*
X100784298Y-132643426D01*
X100972656Y-132565405D01*
X101142174Y-132452137D01*
X101286337Y-132307974D01*
X101399605Y-132138456D01*
X101477626Y-131950098D01*
X101517400Y-131750139D01*
X101517400Y-131546261D01*
X101477626Y-131346302D01*
X101399605Y-131157944D01*
X101286337Y-130988426D01*
X101142174Y-130844263D01*
X100972656Y-130730995D01*
X100784298Y-130652974D01*
X100584339Y-130613200D01*
X100380461Y-130613200D01*
X100180502Y-130652974D01*
X99992144Y-130730995D01*
X99822626Y-130844263D01*
X99678463Y-130988426D01*
X99565195Y-131157944D01*
X99487174Y-131346302D01*
X99447400Y-131546261D01*
X99129800Y-131546261D01*
X99129800Y-131470061D01*
X99090026Y-131270102D01*
X99012005Y-131081744D01*
X98898737Y-130912226D01*
X98879800Y-130893289D01*
X98879800Y-129444011D01*
X98885750Y-129438061D01*
X104324200Y-129438061D01*
X104324200Y-129641939D01*
X104363974Y-129841898D01*
X104441995Y-130030256D01*
X104555263Y-130199774D01*
X104699426Y-130343937D01*
X104868944Y-130457205D01*
X105057302Y-130535226D01*
X105257261Y-130575000D01*
X105461139Y-130575000D01*
X105661098Y-130535226D01*
X105849456Y-130457205D01*
X106018974Y-130343937D01*
X106163137Y-130199774D01*
X106276405Y-130030256D01*
X106354426Y-129841898D01*
X106394200Y-129641939D01*
X106394200Y-129438061D01*
X106354426Y-129238102D01*
X106276405Y-129049744D01*
X106163137Y-128880226D01*
X106018974Y-128736063D01*
X105849456Y-128622795D01*
X105661098Y-128544774D01*
X105461139Y-128505000D01*
X105257261Y-128505000D01*
X105057302Y-128544774D01*
X104868944Y-128622795D01*
X104699426Y-128736063D01*
X104555263Y-128880226D01*
X104441995Y-129049744D01*
X104363974Y-129238102D01*
X104324200Y-129438061D01*
X98885750Y-129438061D01*
X98898737Y-129425074D01*
X99012005Y-129255556D01*
X99090026Y-129067198D01*
X99129800Y-128867239D01*
X99129800Y-128663361D01*
X99090026Y-128463402D01*
X99012005Y-128275044D01*
X98898737Y-128105526D01*
X98879800Y-128086589D01*
X98879800Y-127698952D01*
X98883597Y-127660399D01*
X98879800Y-127621846D01*
X98879800Y-127621839D01*
X98868441Y-127506513D01*
X98823554Y-127358540D01*
X98750662Y-127222167D01*
X98652564Y-127102636D01*
X98622617Y-127078059D01*
X96928693Y-125384136D01*
X96942467Y-125363521D01*
X97005411Y-125211560D01*
X97037500Y-125050240D01*
X97037500Y-125015600D01*
X97084840Y-125015600D01*
X97246160Y-124983511D01*
X97258741Y-124978300D01*
X102216745Y-124978300D01*
X102255298Y-124982097D01*
X102293851Y-124978300D01*
X102293859Y-124978300D01*
X102409185Y-124966941D01*
X102557158Y-124922054D01*
X102693531Y-124849162D01*
X102813062Y-124751064D01*
X102837645Y-124721110D01*
X114338594Y-113220161D01*
X118484700Y-113220161D01*
X118484700Y-113424039D01*
X118524474Y-113623998D01*
X118602495Y-113812356D01*
X118715763Y-113981874D01*
X118859926Y-114126037D01*
X119029444Y-114239305D01*
X119217802Y-114317326D01*
X119417761Y-114357100D01*
X119621639Y-114357100D01*
X119821598Y-114317326D01*
X120009956Y-114239305D01*
X120179474Y-114126037D01*
X120323637Y-113981874D01*
X120436905Y-113812356D01*
X120514926Y-113623998D01*
X120554700Y-113424039D01*
X120554700Y-113220161D01*
X120514926Y-113020202D01*
X120436905Y-112831844D01*
X120323637Y-112662326D01*
X120179474Y-112518163D01*
X120009956Y-112404895D01*
X119821598Y-112326874D01*
X119621639Y-112287100D01*
X119417761Y-112287100D01*
X119217802Y-112326874D01*
X119029444Y-112404895D01*
X118859926Y-112518163D01*
X118715763Y-112662326D01*
X118602495Y-112831844D01*
X118524474Y-113020202D01*
X118484700Y-113220161D01*
X114338594Y-113220161D01*
X117101967Y-110456788D01*
X124317217Y-110456788D01*
X124378498Y-110692086D01*
X124619503Y-110804484D01*
X124877806Y-110867705D01*
X125143479Y-110879318D01*
X125406312Y-110838878D01*
X125656206Y-110747939D01*
X125760702Y-110692086D01*
X125821983Y-110456788D01*
X125069600Y-109704405D01*
X124317217Y-110456788D01*
X117101967Y-110456788D01*
X117960076Y-109598679D01*
X123715082Y-109598679D01*
X123755522Y-109861512D01*
X123846461Y-110111406D01*
X123902314Y-110215902D01*
X124137612Y-110277183D01*
X124889995Y-109524800D01*
X124137612Y-108772417D01*
X123902314Y-108833698D01*
X123789916Y-109074703D01*
X123726695Y-109333006D01*
X123715082Y-109598679D01*
X117960076Y-109598679D01*
X118965943Y-108592812D01*
X124317217Y-108592812D01*
X125069600Y-109345195D01*
X125821983Y-108592812D01*
X125760702Y-108357514D01*
X125519697Y-108245116D01*
X125261394Y-108181895D01*
X124995721Y-108170282D01*
X124732888Y-108210722D01*
X124482994Y-108301661D01*
X124378498Y-108357514D01*
X124317217Y-108592812D01*
X118965943Y-108592812D01*
X122422416Y-105136340D01*
X122452364Y-105111762D01*
X122550462Y-104992231D01*
X122623354Y-104855858D01*
X122657794Y-104742326D01*
X122668241Y-104707886D01*
X122679118Y-104597448D01*
X122679600Y-104592559D01*
X122679600Y-104592552D01*
X122683397Y-104553999D01*
X122679600Y-104515446D01*
X122679600Y-98113111D01*
X122698537Y-98094174D01*
X122811805Y-97924656D01*
X122889826Y-97736298D01*
X122929600Y-97536339D01*
X122929600Y-97332461D01*
X122889826Y-97132502D01*
X122811805Y-96944144D01*
X122698537Y-96774626D01*
X122554374Y-96630463D01*
X122384856Y-96517195D01*
X122196498Y-96439174D01*
X121996539Y-96399400D01*
X121792661Y-96399400D01*
X121592702Y-96439174D01*
X121404344Y-96517195D01*
X121234826Y-96630463D01*
X121155600Y-96709689D01*
X121155600Y-96057757D01*
X121283957Y-95929400D01*
X121310739Y-95929400D01*
X121510698Y-95889626D01*
X121699056Y-95811605D01*
X121868574Y-95698337D01*
X122012737Y-95554174D01*
X122126005Y-95384656D01*
X122204026Y-95196298D01*
X122243800Y-94996339D01*
X122243800Y-94792461D01*
X122204026Y-94592502D01*
X122126005Y-94404144D01*
X122012737Y-94234626D01*
X121868574Y-94090463D01*
X121699056Y-93977195D01*
X121510698Y-93899174D01*
X121310739Y-93859400D01*
X121106861Y-93859400D01*
X120906902Y-93899174D01*
X120718544Y-93977195D01*
X120549026Y-94090463D01*
X120404863Y-94234626D01*
X120291595Y-94404144D01*
X120213574Y-94592502D01*
X120173800Y-94792461D01*
X120173800Y-94819243D01*
X119842785Y-95150258D01*
X119812837Y-95174836D01*
X119788259Y-95204784D01*
X119788255Y-95204788D01*
X119755290Y-95244956D01*
X119714739Y-95294367D01*
X119675777Y-95367260D01*
X119641846Y-95430741D01*
X119596959Y-95578714D01*
X119581803Y-95732600D01*
X119585601Y-95771163D01*
X119585600Y-104090162D01*
X111554400Y-112121363D01*
X111554400Y-101454016D01*
X112007189Y-101454016D01*
X112190260Y-101792614D01*
X112603341Y-102005868D01*
X113050088Y-102134435D01*
X113513333Y-102173377D01*
X113975275Y-102121196D01*
X114418161Y-101979897D01*
X114768540Y-101792614D01*
X114951611Y-101454016D01*
X113479400Y-99981805D01*
X112007189Y-101454016D01*
X111554400Y-101454016D01*
X111554400Y-101126708D01*
X111827584Y-101274411D01*
X113299795Y-99802200D01*
X113659005Y-99802200D01*
X115131216Y-101274411D01*
X115469814Y-101091340D01*
X115683068Y-100678259D01*
X115811635Y-100231512D01*
X115850577Y-99768267D01*
X115798396Y-99306325D01*
X115657097Y-98863439D01*
X115469814Y-98513060D01*
X115131216Y-98329989D01*
X113659005Y-99802200D01*
X113299795Y-99802200D01*
X111827584Y-98329989D01*
X111554400Y-98477692D01*
X111554400Y-96927358D01*
X111852658Y-97225616D01*
X111877236Y-97255564D01*
X111907184Y-97280142D01*
X111907187Y-97280145D01*
X111907637Y-97280514D01*
X111996767Y-97353662D01*
X112133140Y-97426554D01*
X112281112Y-97471441D01*
X112295490Y-97472857D01*
X112396439Y-97482800D01*
X112396446Y-97482800D01*
X112434999Y-97486597D01*
X112473552Y-97482800D01*
X112987101Y-97482800D01*
X112983525Y-97483204D01*
X112540639Y-97624503D01*
X112190260Y-97811786D01*
X112007189Y-98150384D01*
X113479400Y-99622595D01*
X114951611Y-98150384D01*
X114768540Y-97811786D01*
X114355459Y-97598532D01*
X113953311Y-97482800D01*
X114629747Y-97482800D01*
X114668300Y-97486597D01*
X114706853Y-97482800D01*
X114706861Y-97482800D01*
X114822187Y-97471441D01*
X114970160Y-97426554D01*
X115106533Y-97353662D01*
X115226064Y-97255564D01*
X115250647Y-97225610D01*
X120223796Y-92252461D01*
X121100900Y-92252461D01*
X121100900Y-92456339D01*
X121140674Y-92656298D01*
X121218695Y-92844656D01*
X121331963Y-93014174D01*
X121476126Y-93158337D01*
X121645644Y-93271605D01*
X121834002Y-93349626D01*
X122033961Y-93389400D01*
X122237839Y-93389400D01*
X122437798Y-93349626D01*
X122626156Y-93271605D01*
X122795674Y-93158337D01*
X122939837Y-93014174D01*
X123053105Y-92844656D01*
X123131126Y-92656298D01*
X123170900Y-92456339D01*
X123170900Y-92252461D01*
X123131126Y-92052502D01*
X123053105Y-91864144D01*
X122939837Y-91694626D01*
X122795674Y-91550463D01*
X122626156Y-91437195D01*
X122437798Y-91359174D01*
X122237839Y-91319400D01*
X122033961Y-91319400D01*
X121834002Y-91359174D01*
X121645644Y-91437195D01*
X121476126Y-91550463D01*
X121331963Y-91694626D01*
X121218695Y-91864144D01*
X121140674Y-92052502D01*
X121100900Y-92252461D01*
X120223796Y-92252461D01*
X120796817Y-91679441D01*
X120826764Y-91654864D01*
X120924862Y-91535333D01*
X120997754Y-91398960D01*
X121007996Y-91365197D01*
X121042642Y-91250987D01*
X121051726Y-91158745D01*
X121054000Y-91135661D01*
X121054000Y-91135656D01*
X121057797Y-91097100D01*
X121054000Y-91058544D01*
X121054000Y-71246661D01*
X123120200Y-71246661D01*
X123120200Y-71450539D01*
X123159974Y-71650498D01*
X123237995Y-71838856D01*
X123351263Y-72008374D01*
X123495426Y-72152537D01*
X123664944Y-72265805D01*
X123853302Y-72343826D01*
X124053261Y-72383600D01*
X124257139Y-72383600D01*
X124457098Y-72343826D01*
X124645456Y-72265805D01*
X124814974Y-72152537D01*
X124959137Y-72008374D01*
X125072405Y-71838856D01*
X125150426Y-71650498D01*
X125190200Y-71450539D01*
X125190200Y-71246661D01*
X125150426Y-71046702D01*
X125072405Y-70858344D01*
X124959137Y-70688826D01*
X124814974Y-70544663D01*
X124645456Y-70431395D01*
X124457098Y-70353374D01*
X124257139Y-70313600D01*
X124053261Y-70313600D01*
X123853302Y-70353374D01*
X123664944Y-70431395D01*
X123495426Y-70544663D01*
X123351263Y-70688826D01*
X123237995Y-70858344D01*
X123159974Y-71046702D01*
X123120200Y-71246661D01*
X121054000Y-71246661D01*
X121054000Y-70175157D01*
X130417811Y-60811346D01*
X130447764Y-60786764D01*
X130545862Y-60667233D01*
X130618754Y-60530860D01*
X130626912Y-60503966D01*
X130663642Y-60382887D01*
X130671886Y-60299176D01*
X130675000Y-60267561D01*
X130675000Y-60267556D01*
X130678797Y-60229000D01*
X130675000Y-60190444D01*
X130675000Y-55384749D01*
X130901972Y-55233092D01*
X131123092Y-55011972D01*
X131296824Y-54751963D01*
X131416493Y-54463057D01*
X131477500Y-54156355D01*
X131477500Y-53862408D01*
X131993000Y-53862408D01*
X131993000Y-54137592D01*
X132046686Y-54407490D01*
X132151995Y-54661727D01*
X132304880Y-54890535D01*
X132499465Y-55085120D01*
X132728273Y-55238005D01*
X132982510Y-55343314D01*
X133252408Y-55397000D01*
X133527592Y-55397000D01*
X133797490Y-55343314D01*
X134051727Y-55238005D01*
X134280535Y-55085120D01*
X134475120Y-54890535D01*
X134628005Y-54661727D01*
X134733314Y-54407490D01*
X134787000Y-54137592D01*
X134787000Y-54064474D01*
X135296123Y-54064474D01*
X135339328Y-54374185D01*
X135442123Y-54669516D01*
X135528919Y-54831902D01*
X135788465Y-54921930D01*
X136710395Y-54000000D01*
X135788465Y-53078070D01*
X135528919Y-53168098D01*
X135392776Y-53449616D01*
X135314171Y-53752286D01*
X135296123Y-54064474D01*
X134787000Y-54064474D01*
X134787000Y-53862408D01*
X134733314Y-53592510D01*
X134628005Y-53338273D01*
X134475120Y-53109465D01*
X134280535Y-52914880D01*
X134051727Y-52761995D01*
X133797490Y-52656686D01*
X133527592Y-52603000D01*
X133252408Y-52603000D01*
X132982510Y-52656686D01*
X132728273Y-52761995D01*
X132499465Y-52914880D01*
X132304880Y-53109465D01*
X132151995Y-53338273D01*
X132046686Y-53592510D01*
X131993000Y-53862408D01*
X131477500Y-53862408D01*
X131477500Y-53843645D01*
X131416493Y-53536943D01*
X131296824Y-53248037D01*
X131123092Y-52988028D01*
X130901972Y-52766908D01*
X130641963Y-52593176D01*
X130353057Y-52473507D01*
X130046355Y-52412500D01*
X129733645Y-52412500D01*
X129426943Y-52473507D01*
X129138037Y-52593176D01*
X128878028Y-52766908D01*
X128656908Y-52988028D01*
X128483176Y-53248037D01*
X128363507Y-53536943D01*
X128302500Y-53843645D01*
X128302500Y-54156355D01*
X128363507Y-54463057D01*
X128483176Y-54751963D01*
X128656908Y-55011972D01*
X128878028Y-55233092D01*
X129105001Y-55384750D01*
X129105000Y-59903843D01*
X119741185Y-69267658D01*
X119711237Y-69292236D01*
X119686659Y-69322184D01*
X119686655Y-69322188D01*
X119653690Y-69362356D01*
X119613139Y-69411767D01*
X119608973Y-69419562D01*
X119540246Y-69548141D01*
X119495359Y-69696114D01*
X119480203Y-69850000D01*
X119484001Y-69888563D01*
X119484000Y-90771942D01*
X115319900Y-94936043D01*
X115319900Y-94899187D01*
X115302093Y-94809664D01*
X118998616Y-91113142D01*
X119028564Y-91088564D01*
X119126662Y-90969033D01*
X119199554Y-90832660D01*
X119210905Y-90795241D01*
X119244442Y-90684687D01*
X119254969Y-90577798D01*
X119255800Y-90569361D01*
X119255800Y-90569356D01*
X119259597Y-90530800D01*
X119255800Y-90492245D01*
X119255800Y-69186955D01*
X126918210Y-61524545D01*
X126948164Y-61499962D01*
X127046262Y-61380431D01*
X127119154Y-61244058D01*
X127143865Y-61162598D01*
X127164042Y-61096085D01*
X127171752Y-61017798D01*
X127175400Y-60980759D01*
X127175400Y-60980754D01*
X127179197Y-60942198D01*
X127175400Y-60903642D01*
X127175400Y-55384482D01*
X127401972Y-55233092D01*
X127623092Y-55011972D01*
X127796824Y-54751963D01*
X127916493Y-54463057D01*
X127977500Y-54156355D01*
X127977500Y-53843645D01*
X127916493Y-53536943D01*
X127796824Y-53248037D01*
X127623092Y-52988028D01*
X127401972Y-52766908D01*
X127141963Y-52593176D01*
X126853057Y-52473507D01*
X126546355Y-52412500D01*
X126233645Y-52412500D01*
X125926943Y-52473507D01*
X125638037Y-52593176D01*
X125397400Y-52753964D01*
X125397400Y-52102757D01*
X125965913Y-51534245D01*
X126233645Y-51587500D01*
X126546355Y-51587500D01*
X126853057Y-51526493D01*
X127141963Y-51406824D01*
X127401972Y-51233092D01*
X127533529Y-51101535D01*
X128968070Y-51101535D01*
X129058098Y-51361081D01*
X129339616Y-51497224D01*
X129642286Y-51575829D01*
X129954474Y-51593877D01*
X130264185Y-51550672D01*
X130559516Y-51447877D01*
X130721902Y-51361081D01*
X130811930Y-51101535D01*
X129890000Y-50179605D01*
X128968070Y-51101535D01*
X127533529Y-51101535D01*
X127623092Y-51011972D01*
X127796824Y-50751963D01*
X127916493Y-50463057D01*
X127977500Y-50156355D01*
X127977500Y-50064474D01*
X128296123Y-50064474D01*
X128339328Y-50374185D01*
X128442123Y-50669516D01*
X128528919Y-50831902D01*
X128788465Y-50921930D01*
X129710395Y-50000000D01*
X130069605Y-50000000D01*
X130991535Y-50921930D01*
X131251081Y-50831902D01*
X131387224Y-50550384D01*
X131465829Y-50247714D01*
X131483877Y-49935526D01*
X131440672Y-49625815D01*
X131337877Y-49330484D01*
X131251081Y-49168098D01*
X130991535Y-49078070D01*
X130069605Y-50000000D01*
X129710395Y-50000000D01*
X128788465Y-49078070D01*
X128528919Y-49168098D01*
X128392776Y-49449616D01*
X128314171Y-49752286D01*
X128296123Y-50064474D01*
X127977500Y-50064474D01*
X127977500Y-49843645D01*
X127916493Y-49536943D01*
X127796824Y-49248037D01*
X127623092Y-48988028D01*
X127533529Y-48898465D01*
X128968070Y-48898465D01*
X129890000Y-49820395D01*
X130811930Y-48898465D01*
X130721902Y-48638919D01*
X130440384Y-48502776D01*
X130137714Y-48424171D01*
X129825526Y-48406123D01*
X129515815Y-48449328D01*
X129220484Y-48552123D01*
X129058098Y-48638919D01*
X128968070Y-48898465D01*
X127533529Y-48898465D01*
X127401972Y-48766908D01*
X127141963Y-48593176D01*
X126853057Y-48473507D01*
X126546355Y-48412500D01*
X126233645Y-48412500D01*
X125926943Y-48473507D01*
X125638037Y-48593176D01*
X125378028Y-48766908D01*
X125156908Y-48988028D01*
X124983176Y-49248037D01*
X124863507Y-49536943D01*
X124802500Y-49843645D01*
X124802500Y-50156355D01*
X124855755Y-50424087D01*
X124223443Y-51056400D01*
X124078664Y-51056400D01*
X124123092Y-51011972D01*
X124296824Y-50751963D01*
X124416493Y-50463057D01*
X124477500Y-50156355D01*
X124477500Y-49843645D01*
X124416493Y-49536943D01*
X124296824Y-49248037D01*
X124123092Y-48988028D01*
X123901972Y-48766908D01*
X123641963Y-48593176D01*
X123353057Y-48473507D01*
X123046355Y-48412500D01*
X122733645Y-48412500D01*
X122426943Y-48473507D01*
X122138037Y-48593176D01*
X121878028Y-48766908D01*
X121656908Y-48988028D01*
X121483176Y-49248037D01*
X121363507Y-49536943D01*
X121302500Y-49843645D01*
X121302500Y-50156355D01*
X121363507Y-50463057D01*
X121483176Y-50751963D01*
X121656908Y-51011972D01*
X121878028Y-51233092D01*
X121981808Y-51302435D01*
X121972658Y-51313584D01*
X120680990Y-52605253D01*
X120651036Y-52629836D01*
X120552938Y-52749368D01*
X120494243Y-52859179D01*
X120401972Y-52766908D01*
X120141963Y-52593176D01*
X119853057Y-52473507D01*
X119546355Y-52412500D01*
X119233645Y-52412500D01*
X118926943Y-52473507D01*
X118638037Y-52593176D01*
X118461600Y-52711067D01*
X118461600Y-51730069D01*
X118465881Y-51686600D01*
X118461600Y-51643131D01*
X118461600Y-51643123D01*
X118448795Y-51513110D01*
X118437459Y-51475740D01*
X118398189Y-51346286D01*
X118316011Y-51192541D01*
X118233132Y-51091553D01*
X118233130Y-51091551D01*
X118217765Y-51072829D01*
X118378028Y-51233092D01*
X118638037Y-51406824D01*
X118926943Y-51526493D01*
X119233645Y-51587500D01*
X119546355Y-51587500D01*
X119853057Y-51526493D01*
X120141963Y-51406824D01*
X120401972Y-51233092D01*
X120623092Y-51011972D01*
X120796824Y-50751963D01*
X120916493Y-50463057D01*
X120977500Y-50156355D01*
X120977500Y-49843645D01*
X120916493Y-49536943D01*
X120796824Y-49248037D01*
X120623092Y-48988028D01*
X120401972Y-48766908D01*
X120141963Y-48593176D01*
X119853057Y-48473507D01*
X119546355Y-48412500D01*
X119233645Y-48412500D01*
X118926943Y-48473507D01*
X118638037Y-48593176D01*
X118378028Y-48766908D01*
X118156908Y-48988028D01*
X117983176Y-49248037D01*
X117863507Y-49536943D01*
X117802500Y-49843645D01*
X117802500Y-50156355D01*
X117863507Y-50463057D01*
X117983176Y-50751963D01*
X118156908Y-51011972D01*
X118190371Y-51045435D01*
X118171650Y-51030071D01*
X117447708Y-50306129D01*
X117477500Y-50156355D01*
X117477500Y-49843645D01*
X117416493Y-49536943D01*
X117296824Y-49248037D01*
X117123092Y-48988028D01*
X116901972Y-48766908D01*
X116641963Y-48593176D01*
X116353057Y-48473507D01*
X116046355Y-48412500D01*
X115733645Y-48412500D01*
X115426943Y-48473507D01*
X115138037Y-48593176D01*
X114878028Y-48766908D01*
X114656908Y-48988028D01*
X114483176Y-49248037D01*
X114363507Y-49536943D01*
X114302500Y-49843645D01*
X114302500Y-50156355D01*
X114363507Y-50463057D01*
X114483176Y-50751963D01*
X114656908Y-51011972D01*
X114878028Y-51233092D01*
X115138037Y-51406824D01*
X115426943Y-51526493D01*
X115733645Y-51587500D01*
X116046355Y-51587500D01*
X116196129Y-51557708D01*
X116691600Y-52053179D01*
X116691600Y-52626342D01*
X116641963Y-52593176D01*
X116353057Y-52473507D01*
X116046355Y-52412500D01*
X115733645Y-52412500D01*
X115426943Y-52473507D01*
X115138037Y-52593176D01*
X114878028Y-52766908D01*
X114656908Y-52988028D01*
X114483176Y-53248037D01*
X114363507Y-53536943D01*
X114302500Y-53843645D01*
X114302500Y-53982368D01*
X113940003Y-54344866D01*
X113977500Y-54156355D01*
X113977500Y-53843645D01*
X113916493Y-53536943D01*
X113796824Y-53248037D01*
X113623092Y-52988028D01*
X113401972Y-52766908D01*
X113141963Y-52593176D01*
X112853057Y-52473507D01*
X112546355Y-52412500D01*
X112233645Y-52412500D01*
X111926943Y-52473507D01*
X111638037Y-52593176D01*
X111378028Y-52766908D01*
X111156908Y-52988028D01*
X111061500Y-53130817D01*
X111061500Y-51101535D01*
X111468070Y-51101535D01*
X111558098Y-51361081D01*
X111839616Y-51497224D01*
X112142286Y-51575829D01*
X112454474Y-51593877D01*
X112764185Y-51550672D01*
X113059516Y-51447877D01*
X113221902Y-51361081D01*
X113311930Y-51101535D01*
X112390000Y-50179605D01*
X111468070Y-51101535D01*
X111061500Y-51101535D01*
X111061500Y-50843203D01*
X111288465Y-50921930D01*
X112210395Y-50000000D01*
X112569605Y-50000000D01*
X113491535Y-50921930D01*
X113751081Y-50831902D01*
X113887224Y-50550384D01*
X113965829Y-50247714D01*
X113983877Y-49935526D01*
X113940672Y-49625815D01*
X113837877Y-49330484D01*
X113751081Y-49168098D01*
X113491535Y-49078070D01*
X112569605Y-50000000D01*
X112210395Y-50000000D01*
X111288465Y-49078070D01*
X111061500Y-49156797D01*
X111061500Y-48898465D01*
X111468070Y-48898465D01*
X112390000Y-49820395D01*
X113311930Y-48898465D01*
X113221902Y-48638919D01*
X112940384Y-48502776D01*
X112637714Y-48424171D01*
X112325526Y-48406123D01*
X112015815Y-48449328D01*
X111720484Y-48552123D01*
X111558098Y-48638919D01*
X111468070Y-48898465D01*
X111061500Y-48898465D01*
X111061500Y-47434500D01*
X134493000Y-47434500D01*
X134493000Y-49136224D01*
G37*
X134493000Y-49136224D02*
X134475120Y-49109465D01*
X134280535Y-48914880D01*
X134051727Y-48761995D01*
X133797490Y-48656686D01*
X133527592Y-48603000D01*
X133252408Y-48603000D01*
X132982510Y-48656686D01*
X132728273Y-48761995D01*
X132499465Y-48914880D01*
X132304880Y-49109465D01*
X132151995Y-49338273D01*
X132046686Y-49592510D01*
X131993000Y-49862408D01*
X131993000Y-50137592D01*
X132046686Y-50407490D01*
X132151995Y-50661727D01*
X132304880Y-50890535D01*
X132499465Y-51085120D01*
X132728273Y-51238005D01*
X132982510Y-51343314D01*
X133252408Y-51397000D01*
X133527592Y-51397000D01*
X133797490Y-51343314D01*
X134051727Y-51238005D01*
X134280535Y-51085120D01*
X134475120Y-50890535D01*
X134493000Y-50863776D01*
X134493000Y-51790602D01*
X134505201Y-51914485D01*
X134541337Y-52033606D01*
X134600017Y-52143389D01*
X134678987Y-52239615D01*
X134775213Y-52318585D01*
X134884996Y-52377266D01*
X135004118Y-52413401D01*
X135128000Y-52425602D01*
X136685901Y-52425601D01*
X136515815Y-52449328D01*
X136220484Y-52552123D01*
X136058098Y-52638919D01*
X135968070Y-52898465D01*
X136890000Y-53820395D01*
X136904143Y-53806253D01*
X137083748Y-53985858D01*
X137069605Y-54000000D01*
X137083748Y-54014143D01*
X136904143Y-54193748D01*
X136890000Y-54179605D01*
X135968070Y-55101535D01*
X136058098Y-55361081D01*
X136339616Y-55497224D01*
X136642286Y-55575829D01*
X136954474Y-55593877D01*
X137264185Y-55550672D01*
X137559516Y-55447877D01*
X137642600Y-55403468D01*
X137642600Y-56751441D01*
X134116840Y-56724568D01*
X133988118Y-56736751D01*
X133868996Y-56772886D01*
X133759213Y-56831567D01*
X133662987Y-56910537D01*
X133584017Y-57006763D01*
X133525336Y-57116546D01*
X133489201Y-57235668D01*
X133477000Y-57359550D01*
X133477000Y-73025000D01*
X125730000Y-73025000D01*
X125606118Y-73037201D01*
X125486996Y-73073336D01*
X125377213Y-73132017D01*
X125280987Y-73210987D01*
X125202017Y-73307213D01*
X125143336Y-73416996D01*
X125107201Y-73536118D01*
X125095000Y-73660000D01*
X125095000Y-87274400D01*
X125107956Y-87402017D01*
X125144805Y-87520920D01*
X125204143Y-87630349D01*
X125283689Y-87726099D01*
X125380387Y-87804490D01*
X125490520Y-87862511D01*
X125609857Y-87897931D01*
X125733810Y-87909389D01*
X128270000Y-87894172D01*
X128270000Y-108342434D01*
X128249065Y-108328446D01*
X128003380Y-108226680D01*
X127742563Y-108174800D01*
X127476637Y-108174800D01*
X127215820Y-108226680D01*
X126970135Y-108328446D01*
X126749025Y-108476187D01*
X126560987Y-108664225D01*
X126413246Y-108885335D01*
X126338858Y-109064925D01*
X126292739Y-108938194D01*
X126236886Y-108833698D01*
X126001588Y-108772417D01*
X125249205Y-109524800D01*
X126001588Y-110277183D01*
X126236886Y-110215902D01*
X126341617Y-109991337D01*
X126413246Y-110164265D01*
X126560987Y-110385375D01*
X126749025Y-110573413D01*
X126970135Y-110721154D01*
X127215820Y-110822920D01*
X127476637Y-110874800D01*
X127742563Y-110874800D01*
X128003380Y-110822920D01*
X128249065Y-110721154D01*
X128270000Y-110707166D01*
X128270000Y-115309650D01*
X128282165Y-115433348D01*
X128318264Y-115552480D01*
X128376912Y-115662280D01*
X128455854Y-115758530D01*
X128552056Y-115837528D01*
X128661822Y-115896241D01*
X128780933Y-115932412D01*
X128904812Y-115944650D01*
X141865000Y-115948496D01*
X141865000Y-148984500D01*
X58135000Y-148984500D01*
X58135000Y-147550727D01*
X58239000Y-147550727D01*
X58239000Y-147789273D01*
X58285538Y-148023236D01*
X58376825Y-148243624D01*
X58509354Y-148441968D01*
X58678032Y-148610646D01*
X58876376Y-148743175D01*
X59096764Y-148834462D01*
X59330727Y-148881000D01*
X59569273Y-148881000D01*
X59803236Y-148834462D01*
X60023624Y-148743175D01*
X60221968Y-148610646D01*
X60390646Y-148441968D01*
X60523175Y-148243624D01*
X60614462Y-148023236D01*
X60661000Y-147789273D01*
X60661000Y-147550727D01*
X139339000Y-147550727D01*
X139339000Y-147789273D01*
X139385538Y-148023236D01*
X139476825Y-148243624D01*
X139609354Y-148441968D01*
X139778032Y-148610646D01*
X139976376Y-148743175D01*
X140196764Y-148834462D01*
X140430727Y-148881000D01*
X140669273Y-148881000D01*
X140903236Y-148834462D01*
X141123624Y-148743175D01*
X141321968Y-148610646D01*
X141490646Y-148441968D01*
X141623175Y-148243624D01*
X141714462Y-148023236D01*
X141761000Y-147789273D01*
X141761000Y-147550727D01*
X141714462Y-147316764D01*
X141623175Y-147096376D01*
X141490646Y-146898032D01*
X141321968Y-146729354D01*
X141123624Y-146596825D01*
X140903236Y-146505538D01*
X140669273Y-146459000D01*
X140430727Y-146459000D01*
X140196764Y-146505538D01*
X139976376Y-146596825D01*
X139778032Y-146729354D01*
X139609354Y-146898032D01*
X139476825Y-147096376D01*
X139385538Y-147316764D01*
X139339000Y-147550727D01*
X60661000Y-147550727D01*
X60614462Y-147316764D01*
X60523175Y-147096376D01*
X60390646Y-146898032D01*
X60221968Y-146729354D01*
X60023624Y-146596825D01*
X59803236Y-146505538D01*
X59569273Y-146459000D01*
X59330727Y-146459000D01*
X59096764Y-146505538D01*
X58876376Y-146596825D01*
X58678032Y-146729354D01*
X58509354Y-146898032D01*
X58376825Y-147096376D01*
X58285538Y-147316764D01*
X58239000Y-147550727D01*
X58135000Y-147550727D01*
X58135000Y-131241461D01*
X85985400Y-131241461D01*
X85985400Y-131445339D01*
X86025174Y-131645298D01*
X86103195Y-131833656D01*
X86216463Y-132003174D01*
X86360626Y-132147337D01*
X86530144Y-132260605D01*
X86718502Y-132338626D01*
X86918461Y-132378400D01*
X87122339Y-132378400D01*
X87322298Y-132338626D01*
X87510656Y-132260605D01*
X87680174Y-132147337D01*
X87824337Y-132003174D01*
X87937605Y-131833656D01*
X88015626Y-131645298D01*
X88055400Y-131445339D01*
X88055400Y-131241461D01*
X88015626Y-131041502D01*
X87937605Y-130853144D01*
X87824337Y-130683626D01*
X87680174Y-130539463D01*
X87510656Y-130426195D01*
X87322298Y-130348174D01*
X87122339Y-130308400D01*
X86918461Y-130308400D01*
X86718502Y-130348174D01*
X86530144Y-130426195D01*
X86360626Y-130539463D01*
X86216463Y-130683626D01*
X86103195Y-130853144D01*
X86025174Y-131041502D01*
X85985400Y-131241461D01*
X58135000Y-131241461D01*
X58135000Y-126311561D01*
X82749400Y-126311561D01*
X82749400Y-126515439D01*
X82789174Y-126715398D01*
X82867195Y-126903756D01*
X82980463Y-127073274D01*
X83124626Y-127217437D01*
X83294144Y-127330705D01*
X83482502Y-127408726D01*
X83682461Y-127448500D01*
X83886339Y-127448500D01*
X84086298Y-127408726D01*
X84274656Y-127330705D01*
X84444174Y-127217437D01*
X84588337Y-127073274D01*
X84701605Y-126903756D01*
X84779626Y-126715398D01*
X84819400Y-126515439D01*
X84819400Y-126311561D01*
X84779626Y-126111602D01*
X84701605Y-125923244D01*
X84588337Y-125753726D01*
X84444174Y-125609563D01*
X84274656Y-125496295D01*
X84086298Y-125418274D01*
X83886339Y-125378500D01*
X83682461Y-125378500D01*
X83482502Y-125418274D01*
X83294144Y-125496295D01*
X83124626Y-125609563D01*
X82980463Y-125753726D01*
X82867195Y-125923244D01*
X82789174Y-126111602D01*
X82749400Y-126311561D01*
X58135000Y-126311561D01*
X58135000Y-108338551D01*
X71627459Y-108350050D01*
X71751882Y-108337849D01*
X71871004Y-108301714D01*
X71980787Y-108243033D01*
X72077013Y-108164063D01*
X72155983Y-108067837D01*
X72214664Y-107958054D01*
X72250799Y-107838932D01*
X72263000Y-107715050D01*
X72263000Y-102206479D01*
X72385535Y-102288354D01*
X72631220Y-102390120D01*
X72892037Y-102442000D01*
X73157963Y-102442000D01*
X73418780Y-102390120D01*
X73664465Y-102288354D01*
X73885575Y-102140613D01*
X74002200Y-102023988D01*
X74812617Y-102023988D01*
X74873898Y-102259286D01*
X75114903Y-102371684D01*
X75373206Y-102434905D01*
X75638879Y-102446518D01*
X75901712Y-102406078D01*
X76151606Y-102315139D01*
X76256102Y-102259286D01*
X76317383Y-102023988D01*
X75565000Y-101271605D01*
X74812617Y-102023988D01*
X74002200Y-102023988D01*
X74073613Y-101952575D01*
X74221354Y-101731465D01*
X74295742Y-101551875D01*
X74341861Y-101678606D01*
X74397714Y-101783102D01*
X74633012Y-101844383D01*
X75385395Y-101092000D01*
X74633012Y-100339617D01*
X74397714Y-100400898D01*
X74292983Y-100625463D01*
X74221354Y-100452535D01*
X74073613Y-100231425D01*
X74002200Y-100160012D01*
X74812617Y-100160012D01*
X75565000Y-100912395D01*
X76317383Y-100160012D01*
X76256102Y-99924714D01*
X76015097Y-99812316D01*
X75756794Y-99749095D01*
X75491121Y-99737482D01*
X75228288Y-99777922D01*
X74978394Y-99868861D01*
X74873898Y-99924714D01*
X74812617Y-100160012D01*
X74002200Y-100160012D01*
X73885575Y-100043387D01*
X73664465Y-99895646D01*
X73418780Y-99793880D01*
X73157963Y-99742000D01*
X72892037Y-99742000D01*
X72631220Y-99793880D01*
X72385535Y-99895646D01*
X72263000Y-99977521D01*
X72263000Y-79519957D01*
X76685001Y-83941958D01*
X76685001Y-90807342D01*
X76563256Y-90725995D01*
X76374898Y-90647974D01*
X76174939Y-90608200D01*
X75971061Y-90608200D01*
X75771102Y-90647974D01*
X75582744Y-90725995D01*
X75413226Y-90839263D01*
X75269063Y-90983426D01*
X75155795Y-91152944D01*
X75077774Y-91341302D01*
X75038000Y-91541261D01*
X75038000Y-91745139D01*
X75077774Y-91945098D01*
X75155795Y-92133456D01*
X75269063Y-92302974D01*
X75413226Y-92447137D01*
X75582744Y-92560405D01*
X75771102Y-92638426D01*
X75971061Y-92678200D01*
X76174939Y-92678200D01*
X76374898Y-92638426D01*
X76563256Y-92560405D01*
X76685001Y-92479058D01*
X76685000Y-100388583D01*
X76496988Y-100339617D01*
X75744605Y-101092000D01*
X76496988Y-101844383D01*
X76685000Y-101795417D01*
X76685000Y-116903047D01*
X76681203Y-116941600D01*
X76685000Y-116980153D01*
X76685000Y-116980160D01*
X76696359Y-117095486D01*
X76741246Y-117243459D01*
X76814138Y-117379832D01*
X76912236Y-117499364D01*
X76942190Y-117523947D01*
X87441353Y-128023110D01*
X87465936Y-128053064D01*
X87585467Y-128151162D01*
X87721840Y-128224054D01*
X87869813Y-128268942D01*
X87944726Y-128276320D01*
X87985139Y-128280300D01*
X87985144Y-128280300D01*
X88023700Y-128284097D01*
X88062256Y-128280300D01*
X91369466Y-128280300D01*
X91346246Y-128323741D01*
X91301359Y-128471714D01*
X91286203Y-128625600D01*
X91290001Y-128664163D01*
X91290000Y-131081999D01*
X91272089Y-131125240D01*
X91240000Y-131286560D01*
X91240000Y-131451040D01*
X91272089Y-131612360D01*
X91335033Y-131764321D01*
X91426413Y-131901081D01*
X91542719Y-132017387D01*
X91679479Y-132108767D01*
X91831440Y-132171711D01*
X91992760Y-132203800D01*
X92157240Y-132203800D01*
X92318560Y-132171711D01*
X92470521Y-132108767D01*
X92607281Y-132017387D01*
X92723587Y-131901081D01*
X92814967Y-131764321D01*
X92877911Y-131612360D01*
X92910000Y-131451040D01*
X92910000Y-131286560D01*
X92877911Y-131125240D01*
X92860000Y-131081999D01*
X92860000Y-128950757D01*
X95117417Y-126693341D01*
X95147364Y-126668764D01*
X95245462Y-126549233D01*
X95318354Y-126412860D01*
X95363241Y-126264887D01*
X95366897Y-126227765D01*
X95404572Y-126239194D01*
X95439012Y-126249641D01*
X95453390Y-126251057D01*
X95554339Y-126261000D01*
X95554346Y-126261000D01*
X95588618Y-126264375D01*
X97309800Y-127985558D01*
X97309800Y-128086589D01*
X97290863Y-128105526D01*
X97177595Y-128275044D01*
X97099574Y-128463402D01*
X97059800Y-128663361D01*
X97059800Y-128867239D01*
X97099574Y-129067198D01*
X97177595Y-129255556D01*
X97290863Y-129425074D01*
X97309800Y-129444011D01*
X97309801Y-130893288D01*
X97290863Y-130912226D01*
X97177595Y-131081744D01*
X97099574Y-131270102D01*
X97059800Y-131470061D01*
X97059800Y-131673939D01*
X97099574Y-131873898D01*
X97177595Y-132062256D01*
X97290863Y-132231774D01*
X97435026Y-132375937D01*
X97604544Y-132489205D01*
X97792902Y-132567226D01*
X97992861Y-132607000D01*
X98196739Y-132607000D01*
X98396698Y-132567226D01*
X98585056Y-132489205D01*
X98754574Y-132375937D01*
X98898737Y-132231774D01*
X99012005Y-132062256D01*
X99090026Y-131873898D01*
X99129800Y-131673939D01*
X99129800Y-131546261D01*
X99447400Y-131546261D01*
X99447400Y-131750139D01*
X99487174Y-131950098D01*
X99565195Y-132138456D01*
X99678463Y-132307974D01*
X99822626Y-132452137D01*
X99992144Y-132565405D01*
X100180502Y-132643426D01*
X100380461Y-132683200D01*
X100584339Y-132683200D01*
X100784298Y-132643426D01*
X100972656Y-132565405D01*
X101142174Y-132452137D01*
X101286337Y-132307974D01*
X101399605Y-132138456D01*
X101477626Y-131950098D01*
X101517400Y-131750139D01*
X101517400Y-131546261D01*
X101477626Y-131346302D01*
X101399605Y-131157944D01*
X101286337Y-130988426D01*
X101142174Y-130844263D01*
X100972656Y-130730995D01*
X100784298Y-130652974D01*
X100584339Y-130613200D01*
X100380461Y-130613200D01*
X100180502Y-130652974D01*
X99992144Y-130730995D01*
X99822626Y-130844263D01*
X99678463Y-130988426D01*
X99565195Y-131157944D01*
X99487174Y-131346302D01*
X99447400Y-131546261D01*
X99129800Y-131546261D01*
X99129800Y-131470061D01*
X99090026Y-131270102D01*
X99012005Y-131081744D01*
X98898737Y-130912226D01*
X98879800Y-130893289D01*
X98879800Y-129444011D01*
X98885750Y-129438061D01*
X104324200Y-129438061D01*
X104324200Y-129641939D01*
X104363974Y-129841898D01*
X104441995Y-130030256D01*
X104555263Y-130199774D01*
X104699426Y-130343937D01*
X104868944Y-130457205D01*
X105057302Y-130535226D01*
X105257261Y-130575000D01*
X105461139Y-130575000D01*
X105661098Y-130535226D01*
X105849456Y-130457205D01*
X106018974Y-130343937D01*
X106163137Y-130199774D01*
X106276405Y-130030256D01*
X106354426Y-129841898D01*
X106394200Y-129641939D01*
X106394200Y-129438061D01*
X106354426Y-129238102D01*
X106276405Y-129049744D01*
X106163137Y-128880226D01*
X106018974Y-128736063D01*
X105849456Y-128622795D01*
X105661098Y-128544774D01*
X105461139Y-128505000D01*
X105257261Y-128505000D01*
X105057302Y-128544774D01*
X104868944Y-128622795D01*
X104699426Y-128736063D01*
X104555263Y-128880226D01*
X104441995Y-129049744D01*
X104363974Y-129238102D01*
X104324200Y-129438061D01*
X98885750Y-129438061D01*
X98898737Y-129425074D01*
X99012005Y-129255556D01*
X99090026Y-129067198D01*
X99129800Y-128867239D01*
X99129800Y-128663361D01*
X99090026Y-128463402D01*
X99012005Y-128275044D01*
X98898737Y-128105526D01*
X98879800Y-128086589D01*
X98879800Y-127698952D01*
X98883597Y-127660399D01*
X98879800Y-127621846D01*
X98879800Y-127621839D01*
X98868441Y-127506513D01*
X98823554Y-127358540D01*
X98750662Y-127222167D01*
X98652564Y-127102636D01*
X98622617Y-127078059D01*
X96928693Y-125384136D01*
X96942467Y-125363521D01*
X97005411Y-125211560D01*
X97037500Y-125050240D01*
X97037500Y-125015600D01*
X97084840Y-125015600D01*
X97246160Y-124983511D01*
X97258741Y-124978300D01*
X102216745Y-124978300D01*
X102255298Y-124982097D01*
X102293851Y-124978300D01*
X102293859Y-124978300D01*
X102409185Y-124966941D01*
X102557158Y-124922054D01*
X102693531Y-124849162D01*
X102813062Y-124751064D01*
X102837645Y-124721110D01*
X114338594Y-113220161D01*
X118484700Y-113220161D01*
X118484700Y-113424039D01*
X118524474Y-113623998D01*
X118602495Y-113812356D01*
X118715763Y-113981874D01*
X118859926Y-114126037D01*
X119029444Y-114239305D01*
X119217802Y-114317326D01*
X119417761Y-114357100D01*
X119621639Y-114357100D01*
X119821598Y-114317326D01*
X120009956Y-114239305D01*
X120179474Y-114126037D01*
X120323637Y-113981874D01*
X120436905Y-113812356D01*
X120514926Y-113623998D01*
X120554700Y-113424039D01*
X120554700Y-113220161D01*
X120514926Y-113020202D01*
X120436905Y-112831844D01*
X120323637Y-112662326D01*
X120179474Y-112518163D01*
X120009956Y-112404895D01*
X119821598Y-112326874D01*
X119621639Y-112287100D01*
X119417761Y-112287100D01*
X119217802Y-112326874D01*
X119029444Y-112404895D01*
X118859926Y-112518163D01*
X118715763Y-112662326D01*
X118602495Y-112831844D01*
X118524474Y-113020202D01*
X118484700Y-113220161D01*
X114338594Y-113220161D01*
X117101967Y-110456788D01*
X124317217Y-110456788D01*
X124378498Y-110692086D01*
X124619503Y-110804484D01*
X124877806Y-110867705D01*
X125143479Y-110879318D01*
X125406312Y-110838878D01*
X125656206Y-110747939D01*
X125760702Y-110692086D01*
X125821983Y-110456788D01*
X125069600Y-109704405D01*
X124317217Y-110456788D01*
X117101967Y-110456788D01*
X117960076Y-109598679D01*
X123715082Y-109598679D01*
X123755522Y-109861512D01*
X123846461Y-110111406D01*
X123902314Y-110215902D01*
X124137612Y-110277183D01*
X124889995Y-109524800D01*
X124137612Y-108772417D01*
X123902314Y-108833698D01*
X123789916Y-109074703D01*
X123726695Y-109333006D01*
X123715082Y-109598679D01*
X117960076Y-109598679D01*
X118965943Y-108592812D01*
X124317217Y-108592812D01*
X125069600Y-109345195D01*
X125821983Y-108592812D01*
X125760702Y-108357514D01*
X125519697Y-108245116D01*
X125261394Y-108181895D01*
X124995721Y-108170282D01*
X124732888Y-108210722D01*
X124482994Y-108301661D01*
X124378498Y-108357514D01*
X124317217Y-108592812D01*
X118965943Y-108592812D01*
X122422416Y-105136340D01*
X122452364Y-105111762D01*
X122550462Y-104992231D01*
X122623354Y-104855858D01*
X122657794Y-104742326D01*
X122668241Y-104707886D01*
X122679118Y-104597448D01*
X122679600Y-104592559D01*
X122679600Y-104592552D01*
X122683397Y-104553999D01*
X122679600Y-104515446D01*
X122679600Y-98113111D01*
X122698537Y-98094174D01*
X122811805Y-97924656D01*
X122889826Y-97736298D01*
X122929600Y-97536339D01*
X122929600Y-97332461D01*
X122889826Y-97132502D01*
X122811805Y-96944144D01*
X122698537Y-96774626D01*
X122554374Y-96630463D01*
X122384856Y-96517195D01*
X122196498Y-96439174D01*
X121996539Y-96399400D01*
X121792661Y-96399400D01*
X121592702Y-96439174D01*
X121404344Y-96517195D01*
X121234826Y-96630463D01*
X121155600Y-96709689D01*
X121155600Y-96057757D01*
X121283957Y-95929400D01*
X121310739Y-95929400D01*
X121510698Y-95889626D01*
X121699056Y-95811605D01*
X121868574Y-95698337D01*
X122012737Y-95554174D01*
X122126005Y-95384656D01*
X122204026Y-95196298D01*
X122243800Y-94996339D01*
X122243800Y-94792461D01*
X122204026Y-94592502D01*
X122126005Y-94404144D01*
X122012737Y-94234626D01*
X121868574Y-94090463D01*
X121699056Y-93977195D01*
X121510698Y-93899174D01*
X121310739Y-93859400D01*
X121106861Y-93859400D01*
X120906902Y-93899174D01*
X120718544Y-93977195D01*
X120549026Y-94090463D01*
X120404863Y-94234626D01*
X120291595Y-94404144D01*
X120213574Y-94592502D01*
X120173800Y-94792461D01*
X120173800Y-94819243D01*
X119842785Y-95150258D01*
X119812837Y-95174836D01*
X119788259Y-95204784D01*
X119788255Y-95204788D01*
X119755290Y-95244956D01*
X119714739Y-95294367D01*
X119675777Y-95367260D01*
X119641846Y-95430741D01*
X119596959Y-95578714D01*
X119581803Y-95732600D01*
X119585601Y-95771163D01*
X119585600Y-104090162D01*
X111554400Y-112121363D01*
X111554400Y-101454016D01*
X112007189Y-101454016D01*
X112190260Y-101792614D01*
X112603341Y-102005868D01*
X113050088Y-102134435D01*
X113513333Y-102173377D01*
X113975275Y-102121196D01*
X114418161Y-101979897D01*
X114768540Y-101792614D01*
X114951611Y-101454016D01*
X113479400Y-99981805D01*
X112007189Y-101454016D01*
X111554400Y-101454016D01*
X111554400Y-101126708D01*
X111827584Y-101274411D01*
X113299795Y-99802200D01*
X113659005Y-99802200D01*
X115131216Y-101274411D01*
X115469814Y-101091340D01*
X115683068Y-100678259D01*
X115811635Y-100231512D01*
X115850577Y-99768267D01*
X115798396Y-99306325D01*
X115657097Y-98863439D01*
X115469814Y-98513060D01*
X115131216Y-98329989D01*
X113659005Y-99802200D01*
X113299795Y-99802200D01*
X111827584Y-98329989D01*
X111554400Y-98477692D01*
X111554400Y-96927358D01*
X111852658Y-97225616D01*
X111877236Y-97255564D01*
X111907184Y-97280142D01*
X111907187Y-97280145D01*
X111907637Y-97280514D01*
X111996767Y-97353662D01*
X112133140Y-97426554D01*
X112281112Y-97471441D01*
X112295490Y-97472857D01*
X112396439Y-97482800D01*
X112396446Y-97482800D01*
X112434999Y-97486597D01*
X112473552Y-97482800D01*
X112987101Y-97482800D01*
X112983525Y-97483204D01*
X112540639Y-97624503D01*
X112190260Y-97811786D01*
X112007189Y-98150384D01*
X113479400Y-99622595D01*
X114951611Y-98150384D01*
X114768540Y-97811786D01*
X114355459Y-97598532D01*
X113953311Y-97482800D01*
X114629747Y-97482800D01*
X114668300Y-97486597D01*
X114706853Y-97482800D01*
X114706861Y-97482800D01*
X114822187Y-97471441D01*
X114970160Y-97426554D01*
X115106533Y-97353662D01*
X115226064Y-97255564D01*
X115250647Y-97225610D01*
X120223796Y-92252461D01*
X121100900Y-92252461D01*
X121100900Y-92456339D01*
X121140674Y-92656298D01*
X121218695Y-92844656D01*
X121331963Y-93014174D01*
X121476126Y-93158337D01*
X121645644Y-93271605D01*
X121834002Y-93349626D01*
X122033961Y-93389400D01*
X122237839Y-93389400D01*
X122437798Y-93349626D01*
X122626156Y-93271605D01*
X122795674Y-93158337D01*
X122939837Y-93014174D01*
X123053105Y-92844656D01*
X123131126Y-92656298D01*
X123170900Y-92456339D01*
X123170900Y-92252461D01*
X123131126Y-92052502D01*
X123053105Y-91864144D01*
X122939837Y-91694626D01*
X122795674Y-91550463D01*
X122626156Y-91437195D01*
X122437798Y-91359174D01*
X122237839Y-91319400D01*
X122033961Y-91319400D01*
X121834002Y-91359174D01*
X121645644Y-91437195D01*
X121476126Y-91550463D01*
X121331963Y-91694626D01*
X121218695Y-91864144D01*
X121140674Y-92052502D01*
X121100900Y-92252461D01*
X120223796Y-92252461D01*
X120796817Y-91679441D01*
X120826764Y-91654864D01*
X120924862Y-91535333D01*
X120997754Y-91398960D01*
X121007996Y-91365197D01*
X121042642Y-91250987D01*
X121051726Y-91158745D01*
X121054000Y-91135661D01*
X121054000Y-91135656D01*
X121057797Y-91097100D01*
X121054000Y-91058544D01*
X121054000Y-71246661D01*
X123120200Y-71246661D01*
X123120200Y-71450539D01*
X123159974Y-71650498D01*
X123237995Y-71838856D01*
X123351263Y-72008374D01*
X123495426Y-72152537D01*
X123664944Y-72265805D01*
X123853302Y-72343826D01*
X124053261Y-72383600D01*
X124257139Y-72383600D01*
X124457098Y-72343826D01*
X124645456Y-72265805D01*
X124814974Y-72152537D01*
X124959137Y-72008374D01*
X125072405Y-71838856D01*
X125150426Y-71650498D01*
X125190200Y-71450539D01*
X125190200Y-71246661D01*
X125150426Y-71046702D01*
X125072405Y-70858344D01*
X124959137Y-70688826D01*
X124814974Y-70544663D01*
X124645456Y-70431395D01*
X124457098Y-70353374D01*
X124257139Y-70313600D01*
X124053261Y-70313600D01*
X123853302Y-70353374D01*
X123664944Y-70431395D01*
X123495426Y-70544663D01*
X123351263Y-70688826D01*
X123237995Y-70858344D01*
X123159974Y-71046702D01*
X123120200Y-71246661D01*
X121054000Y-71246661D01*
X121054000Y-70175157D01*
X130417811Y-60811346D01*
X130447764Y-60786764D01*
X130545862Y-60667233D01*
X130618754Y-60530860D01*
X130626912Y-60503966D01*
X130663642Y-60382887D01*
X130671886Y-60299176D01*
X130675000Y-60267561D01*
X130675000Y-60267556D01*
X130678797Y-60229000D01*
X130675000Y-60190444D01*
X130675000Y-55384749D01*
X130901972Y-55233092D01*
X131123092Y-55011972D01*
X131296824Y-54751963D01*
X131416493Y-54463057D01*
X131477500Y-54156355D01*
X131477500Y-53862408D01*
X131993000Y-53862408D01*
X131993000Y-54137592D01*
X132046686Y-54407490D01*
X132151995Y-54661727D01*
X132304880Y-54890535D01*
X132499465Y-55085120D01*
X132728273Y-55238005D01*
X132982510Y-55343314D01*
X133252408Y-55397000D01*
X133527592Y-55397000D01*
X133797490Y-55343314D01*
X134051727Y-55238005D01*
X134280535Y-55085120D01*
X134475120Y-54890535D01*
X134628005Y-54661727D01*
X134733314Y-54407490D01*
X134787000Y-54137592D01*
X134787000Y-54064474D01*
X135296123Y-54064474D01*
X135339328Y-54374185D01*
X135442123Y-54669516D01*
X135528919Y-54831902D01*
X135788465Y-54921930D01*
X136710395Y-54000000D01*
X135788465Y-53078070D01*
X135528919Y-53168098D01*
X135392776Y-53449616D01*
X135314171Y-53752286D01*
X135296123Y-54064474D01*
X134787000Y-54064474D01*
X134787000Y-53862408D01*
X134733314Y-53592510D01*
X134628005Y-53338273D01*
X134475120Y-53109465D01*
X134280535Y-52914880D01*
X134051727Y-52761995D01*
X133797490Y-52656686D01*
X133527592Y-52603000D01*
X133252408Y-52603000D01*
X132982510Y-52656686D01*
X132728273Y-52761995D01*
X132499465Y-52914880D01*
X132304880Y-53109465D01*
X132151995Y-53338273D01*
X132046686Y-53592510D01*
X131993000Y-53862408D01*
X131477500Y-53862408D01*
X131477500Y-53843645D01*
X131416493Y-53536943D01*
X131296824Y-53248037D01*
X131123092Y-52988028D01*
X130901972Y-52766908D01*
X130641963Y-52593176D01*
X130353057Y-52473507D01*
X130046355Y-52412500D01*
X129733645Y-52412500D01*
X129426943Y-52473507D01*
X129138037Y-52593176D01*
X128878028Y-52766908D01*
X128656908Y-52988028D01*
X128483176Y-53248037D01*
X128363507Y-53536943D01*
X128302500Y-53843645D01*
X128302500Y-54156355D01*
X128363507Y-54463057D01*
X128483176Y-54751963D01*
X128656908Y-55011972D01*
X128878028Y-55233092D01*
X129105001Y-55384750D01*
X129105000Y-59903843D01*
X119741185Y-69267658D01*
X119711237Y-69292236D01*
X119686659Y-69322184D01*
X119686655Y-69322188D01*
X119653690Y-69362356D01*
X119613139Y-69411767D01*
X119608973Y-69419562D01*
X119540246Y-69548141D01*
X119495359Y-69696114D01*
X119480203Y-69850000D01*
X119484001Y-69888563D01*
X119484000Y-90771942D01*
X115319900Y-94936043D01*
X115319900Y-94899187D01*
X115302093Y-94809664D01*
X118998616Y-91113142D01*
X119028564Y-91088564D01*
X119126662Y-90969033D01*
X119199554Y-90832660D01*
X119210905Y-90795241D01*
X119244442Y-90684687D01*
X119254969Y-90577798D01*
X119255800Y-90569361D01*
X119255800Y-90569356D01*
X119259597Y-90530800D01*
X119255800Y-90492245D01*
X119255800Y-69186955D01*
X126918210Y-61524545D01*
X126948164Y-61499962D01*
X127046262Y-61380431D01*
X127119154Y-61244058D01*
X127143865Y-61162598D01*
X127164042Y-61096085D01*
X127171752Y-61017798D01*
X127175400Y-60980759D01*
X127175400Y-60980754D01*
X127179197Y-60942198D01*
X127175400Y-60903642D01*
X127175400Y-55384482D01*
X127401972Y-55233092D01*
X127623092Y-55011972D01*
X127796824Y-54751963D01*
X127916493Y-54463057D01*
X127977500Y-54156355D01*
X127977500Y-53843645D01*
X127916493Y-53536943D01*
X127796824Y-53248037D01*
X127623092Y-52988028D01*
X127401972Y-52766908D01*
X127141963Y-52593176D01*
X126853057Y-52473507D01*
X126546355Y-52412500D01*
X126233645Y-52412500D01*
X125926943Y-52473507D01*
X125638037Y-52593176D01*
X125397400Y-52753964D01*
X125397400Y-52102757D01*
X125965913Y-51534245D01*
X126233645Y-51587500D01*
X126546355Y-51587500D01*
X126853057Y-51526493D01*
X127141963Y-51406824D01*
X127401972Y-51233092D01*
X127533529Y-51101535D01*
X128968070Y-51101535D01*
X129058098Y-51361081D01*
X129339616Y-51497224D01*
X129642286Y-51575829D01*
X129954474Y-51593877D01*
X130264185Y-51550672D01*
X130559516Y-51447877D01*
X130721902Y-51361081D01*
X130811930Y-51101535D01*
X129890000Y-50179605D01*
X128968070Y-51101535D01*
X127533529Y-51101535D01*
X127623092Y-51011972D01*
X127796824Y-50751963D01*
X127916493Y-50463057D01*
X127977500Y-50156355D01*
X127977500Y-50064474D01*
X128296123Y-50064474D01*
X128339328Y-50374185D01*
X128442123Y-50669516D01*
X128528919Y-50831902D01*
X128788465Y-50921930D01*
X129710395Y-50000000D01*
X130069605Y-50000000D01*
X130991535Y-50921930D01*
X131251081Y-50831902D01*
X131387224Y-50550384D01*
X131465829Y-50247714D01*
X131483877Y-49935526D01*
X131440672Y-49625815D01*
X131337877Y-49330484D01*
X131251081Y-49168098D01*
X130991535Y-49078070D01*
X130069605Y-50000000D01*
X129710395Y-50000000D01*
X128788465Y-49078070D01*
X128528919Y-49168098D01*
X128392776Y-49449616D01*
X128314171Y-49752286D01*
X128296123Y-50064474D01*
X127977500Y-50064474D01*
X127977500Y-49843645D01*
X127916493Y-49536943D01*
X127796824Y-49248037D01*
X127623092Y-48988028D01*
X127533529Y-48898465D01*
X128968070Y-48898465D01*
X129890000Y-49820395D01*
X130811930Y-48898465D01*
X130721902Y-48638919D01*
X130440384Y-48502776D01*
X130137714Y-48424171D01*
X129825526Y-48406123D01*
X129515815Y-48449328D01*
X129220484Y-48552123D01*
X129058098Y-48638919D01*
X128968070Y-48898465D01*
X127533529Y-48898465D01*
X127401972Y-48766908D01*
X127141963Y-48593176D01*
X126853057Y-48473507D01*
X126546355Y-48412500D01*
X126233645Y-48412500D01*
X125926943Y-48473507D01*
X125638037Y-48593176D01*
X125378028Y-48766908D01*
X125156908Y-48988028D01*
X124983176Y-49248037D01*
X124863507Y-49536943D01*
X124802500Y-49843645D01*
X124802500Y-50156355D01*
X124855755Y-50424087D01*
X124223443Y-51056400D01*
X124078664Y-51056400D01*
X124123092Y-51011972D01*
X124296824Y-50751963D01*
X124416493Y-50463057D01*
X124477500Y-50156355D01*
X124477500Y-49843645D01*
X124416493Y-49536943D01*
X124296824Y-49248037D01*
X124123092Y-48988028D01*
X123901972Y-48766908D01*
X123641963Y-48593176D01*
X123353057Y-48473507D01*
X123046355Y-48412500D01*
X122733645Y-48412500D01*
X122426943Y-48473507D01*
X122138037Y-48593176D01*
X121878028Y-48766908D01*
X121656908Y-48988028D01*
X121483176Y-49248037D01*
X121363507Y-49536943D01*
X121302500Y-49843645D01*
X121302500Y-50156355D01*
X121363507Y-50463057D01*
X121483176Y-50751963D01*
X121656908Y-51011972D01*
X121878028Y-51233092D01*
X121981808Y-51302435D01*
X121972658Y-51313584D01*
X120680990Y-52605253D01*
X120651036Y-52629836D01*
X120552938Y-52749368D01*
X120494243Y-52859179D01*
X120401972Y-52766908D01*
X120141963Y-52593176D01*
X119853057Y-52473507D01*
X119546355Y-52412500D01*
X119233645Y-52412500D01*
X118926943Y-52473507D01*
X118638037Y-52593176D01*
X118461600Y-52711067D01*
X118461600Y-51730069D01*
X118465881Y-51686600D01*
X118461600Y-51643131D01*
X118461600Y-51643123D01*
X118448795Y-51513110D01*
X118437459Y-51475740D01*
X118398189Y-51346286D01*
X118316011Y-51192541D01*
X118233132Y-51091553D01*
X118233130Y-51091551D01*
X118217765Y-51072829D01*
X118378028Y-51233092D01*
X118638037Y-51406824D01*
X118926943Y-51526493D01*
X119233645Y-51587500D01*
X119546355Y-51587500D01*
X119853057Y-51526493D01*
X120141963Y-51406824D01*
X120401972Y-51233092D01*
X120623092Y-51011972D01*
X120796824Y-50751963D01*
X120916493Y-50463057D01*
X120977500Y-50156355D01*
X120977500Y-49843645D01*
X120916493Y-49536943D01*
X120796824Y-49248037D01*
X120623092Y-48988028D01*
X120401972Y-48766908D01*
X120141963Y-48593176D01*
X119853057Y-48473507D01*
X119546355Y-48412500D01*
X119233645Y-48412500D01*
X118926943Y-48473507D01*
X118638037Y-48593176D01*
X118378028Y-48766908D01*
X118156908Y-48988028D01*
X117983176Y-49248037D01*
X117863507Y-49536943D01*
X117802500Y-49843645D01*
X117802500Y-50156355D01*
X117863507Y-50463057D01*
X117983176Y-50751963D01*
X118156908Y-51011972D01*
X118190371Y-51045435D01*
X118171650Y-51030071D01*
X117447708Y-50306129D01*
X117477500Y-50156355D01*
X117477500Y-49843645D01*
X117416493Y-49536943D01*
X117296824Y-49248037D01*
X117123092Y-48988028D01*
X116901972Y-48766908D01*
X116641963Y-48593176D01*
X116353057Y-48473507D01*
X116046355Y-48412500D01*
X115733645Y-48412500D01*
X115426943Y-48473507D01*
X115138037Y-48593176D01*
X114878028Y-48766908D01*
X114656908Y-48988028D01*
X114483176Y-49248037D01*
X114363507Y-49536943D01*
X114302500Y-49843645D01*
X114302500Y-50156355D01*
X114363507Y-50463057D01*
X114483176Y-50751963D01*
X114656908Y-51011972D01*
X114878028Y-51233092D01*
X115138037Y-51406824D01*
X115426943Y-51526493D01*
X115733645Y-51587500D01*
X116046355Y-51587500D01*
X116196129Y-51557708D01*
X116691600Y-52053179D01*
X116691600Y-52626342D01*
X116641963Y-52593176D01*
X116353057Y-52473507D01*
X116046355Y-52412500D01*
X115733645Y-52412500D01*
X115426943Y-52473507D01*
X115138037Y-52593176D01*
X114878028Y-52766908D01*
X114656908Y-52988028D01*
X114483176Y-53248037D01*
X114363507Y-53536943D01*
X114302500Y-53843645D01*
X114302500Y-53982368D01*
X113940003Y-54344866D01*
X113977500Y-54156355D01*
X113977500Y-53843645D01*
X113916493Y-53536943D01*
X113796824Y-53248037D01*
X113623092Y-52988028D01*
X113401972Y-52766908D01*
X113141963Y-52593176D01*
X112853057Y-52473507D01*
X112546355Y-52412500D01*
X112233645Y-52412500D01*
X111926943Y-52473507D01*
X111638037Y-52593176D01*
X111378028Y-52766908D01*
X111156908Y-52988028D01*
X111061500Y-53130817D01*
X111061500Y-51101535D01*
X111468070Y-51101535D01*
X111558098Y-51361081D01*
X111839616Y-51497224D01*
X112142286Y-51575829D01*
X112454474Y-51593877D01*
X112764185Y-51550672D01*
X113059516Y-51447877D01*
X113221902Y-51361081D01*
X113311930Y-51101535D01*
X112390000Y-50179605D01*
X111468070Y-51101535D01*
X111061500Y-51101535D01*
X111061500Y-50843203D01*
X111288465Y-50921930D01*
X112210395Y-50000000D01*
X112569605Y-50000000D01*
X113491535Y-50921930D01*
X113751081Y-50831902D01*
X113887224Y-50550384D01*
X113965829Y-50247714D01*
X113983877Y-49935526D01*
X113940672Y-49625815D01*
X113837877Y-49330484D01*
X113751081Y-49168098D01*
X113491535Y-49078070D01*
X112569605Y-50000000D01*
X112210395Y-50000000D01*
X111288465Y-49078070D01*
X111061500Y-49156797D01*
X111061500Y-48898465D01*
X111468070Y-48898465D01*
X112390000Y-49820395D01*
X113311930Y-48898465D01*
X113221902Y-48638919D01*
X112940384Y-48502776D01*
X112637714Y-48424171D01*
X112325526Y-48406123D01*
X112015815Y-48449328D01*
X111720484Y-48552123D01*
X111558098Y-48638919D01*
X111468070Y-48898465D01*
X111061500Y-48898465D01*
X111061500Y-47434500D01*
X134493000Y-47434500D01*
X134493000Y-49136224D01*
G36*
X83992530Y-117487688D02*
G01*
X83922226Y-117534663D01*
X83778063Y-117678826D01*
X83664795Y-117848344D01*
X83586774Y-118036702D01*
X83547000Y-118236661D01*
X83547000Y-118440539D01*
X83586774Y-118640498D01*
X83664795Y-118828856D01*
X83778063Y-118998374D01*
X83922226Y-119142537D01*
X84091744Y-119255805D01*
X84280102Y-119333826D01*
X84480061Y-119373600D01*
X84683939Y-119373600D01*
X84883898Y-119333826D01*
X85072256Y-119255805D01*
X85241774Y-119142537D01*
X85385937Y-118998374D01*
X85432912Y-118928070D01*
X85816468Y-119311626D01*
X85841046Y-119341574D01*
X85870994Y-119366152D01*
X85870997Y-119366155D01*
X85880029Y-119373567D01*
X85960577Y-119439672D01*
X86096950Y-119512564D01*
X86210482Y-119547004D01*
X86244922Y-119557451D01*
X86259300Y-119558867D01*
X86360249Y-119568810D01*
X86360256Y-119568810D01*
X86398809Y-119572607D01*
X86437362Y-119568810D01*
X88424489Y-119568810D01*
X88443426Y-119587747D01*
X88612944Y-119701015D01*
X88801302Y-119779036D01*
X89001261Y-119818810D01*
X89205139Y-119818810D01*
X89405098Y-119779036D01*
X89461200Y-119755798D01*
X89461200Y-120378769D01*
X89457403Y-120417322D01*
X89461200Y-120455875D01*
X89461200Y-120455882D01*
X89472559Y-120571208D01*
X89517446Y-120719181D01*
X89590338Y-120855554D01*
X89688436Y-120975086D01*
X89718390Y-120999669D01*
X91262826Y-122544105D01*
X91158340Y-122564889D01*
X91006379Y-122627833D01*
X90869619Y-122719213D01*
X90753313Y-122835519D01*
X90661933Y-122972279D01*
X90635041Y-123037202D01*
X89235243Y-124437000D01*
X88892911Y-124437000D01*
X88873974Y-124418063D01*
X88704456Y-124304795D01*
X88516098Y-124226774D01*
X88316139Y-124187000D01*
X88112261Y-124187000D01*
X87912302Y-124226774D01*
X87723944Y-124304795D01*
X87554426Y-124418063D01*
X87482422Y-124490067D01*
X83235616Y-120243261D01*
X84410600Y-120243261D01*
X84410600Y-120447139D01*
X84450374Y-120647098D01*
X84528395Y-120835456D01*
X84641663Y-121004974D01*
X84785826Y-121149137D01*
X84955344Y-121262405D01*
X85143702Y-121340426D01*
X85343661Y-121380200D01*
X85547539Y-121380200D01*
X85747498Y-121340426D01*
X85935856Y-121262405D01*
X86105374Y-121149137D01*
X86249537Y-121004974D01*
X86362805Y-120835456D01*
X86440826Y-120647098D01*
X86480600Y-120447139D01*
X86480600Y-120243261D01*
X86440826Y-120043302D01*
X86362805Y-119854944D01*
X86249537Y-119685426D01*
X86105374Y-119541263D01*
X85935856Y-119427995D01*
X85747498Y-119349974D01*
X85547539Y-119310200D01*
X85343661Y-119310200D01*
X85143702Y-119349974D01*
X84955344Y-119427995D01*
X84785826Y-119541263D01*
X84641663Y-119685426D01*
X84528395Y-119854944D01*
X84450374Y-120043302D01*
X84410600Y-120243261D01*
X83235616Y-120243261D01*
X78915400Y-115923045D01*
X78915400Y-115724830D01*
X78920702Y-115727026D01*
X79120661Y-115766800D01*
X79324539Y-115766800D01*
X79524498Y-115727026D01*
X79712856Y-115649005D01*
X79882374Y-115535737D01*
X79901311Y-115516800D01*
X82021643Y-115516800D01*
X83992530Y-117487688D01*
G37*
X83992530Y-117487688D02*
X83922226Y-117534663D01*
X83778063Y-117678826D01*
X83664795Y-117848344D01*
X83586774Y-118036702D01*
X83547000Y-118236661D01*
X83547000Y-118440539D01*
X83586774Y-118640498D01*
X83664795Y-118828856D01*
X83778063Y-118998374D01*
X83922226Y-119142537D01*
X84091744Y-119255805D01*
X84280102Y-119333826D01*
X84480061Y-119373600D01*
X84683939Y-119373600D01*
X84883898Y-119333826D01*
X85072256Y-119255805D01*
X85241774Y-119142537D01*
X85385937Y-118998374D01*
X85432912Y-118928070D01*
X85816468Y-119311626D01*
X85841046Y-119341574D01*
X85870994Y-119366152D01*
X85870997Y-119366155D01*
X85880029Y-119373567D01*
X85960577Y-119439672D01*
X86096950Y-119512564D01*
X86210482Y-119547004D01*
X86244922Y-119557451D01*
X86259300Y-119558867D01*
X86360249Y-119568810D01*
X86360256Y-119568810D01*
X86398809Y-119572607D01*
X86437362Y-119568810D01*
X88424489Y-119568810D01*
X88443426Y-119587747D01*
X88612944Y-119701015D01*
X88801302Y-119779036D01*
X89001261Y-119818810D01*
X89205139Y-119818810D01*
X89405098Y-119779036D01*
X89461200Y-119755798D01*
X89461200Y-120378769D01*
X89457403Y-120417322D01*
X89461200Y-120455875D01*
X89461200Y-120455882D01*
X89472559Y-120571208D01*
X89517446Y-120719181D01*
X89590338Y-120855554D01*
X89688436Y-120975086D01*
X89718390Y-120999669D01*
X91262826Y-122544105D01*
X91158340Y-122564889D01*
X91006379Y-122627833D01*
X90869619Y-122719213D01*
X90753313Y-122835519D01*
X90661933Y-122972279D01*
X90635041Y-123037202D01*
X89235243Y-124437000D01*
X88892911Y-124437000D01*
X88873974Y-124418063D01*
X88704456Y-124304795D01*
X88516098Y-124226774D01*
X88316139Y-124187000D01*
X88112261Y-124187000D01*
X87912302Y-124226774D01*
X87723944Y-124304795D01*
X87554426Y-124418063D01*
X87482422Y-124490067D01*
X83235616Y-120243261D01*
X84410600Y-120243261D01*
X84410600Y-120447139D01*
X84450374Y-120647098D01*
X84528395Y-120835456D01*
X84641663Y-121004974D01*
X84785826Y-121149137D01*
X84955344Y-121262405D01*
X85143702Y-121340426D01*
X85343661Y-121380200D01*
X85547539Y-121380200D01*
X85747498Y-121340426D01*
X85935856Y-121262405D01*
X86105374Y-121149137D01*
X86249537Y-121004974D01*
X86362805Y-120835456D01*
X86440826Y-120647098D01*
X86480600Y-120447139D01*
X86480600Y-120243261D01*
X86440826Y-120043302D01*
X86362805Y-119854944D01*
X86249537Y-119685426D01*
X86105374Y-119541263D01*
X85935856Y-119427995D01*
X85747498Y-119349974D01*
X85547539Y-119310200D01*
X85343661Y-119310200D01*
X85143702Y-119349974D01*
X84955344Y-119427995D01*
X84785826Y-119541263D01*
X84641663Y-119685426D01*
X84528395Y-119854944D01*
X84450374Y-120043302D01*
X84410600Y-120243261D01*
X83235616Y-120243261D01*
X78915400Y-115923045D01*
X78915400Y-115724830D01*
X78920702Y-115727026D01*
X79120661Y-115766800D01*
X79324539Y-115766800D01*
X79524498Y-115727026D01*
X79712856Y-115649005D01*
X79882374Y-115535737D01*
X79901311Y-115516800D01*
X82021643Y-115516800D01*
X83992530Y-117487688D01*
G36*
X94744401Y-123286558D02*
G01*
X94744401Y-123354981D01*
X94697240Y-123345600D01*
X94532760Y-123345600D01*
X94371440Y-123377689D01*
X94219479Y-123440633D01*
X94208600Y-123447902D01*
X94197721Y-123440633D01*
X94045760Y-123377689D01*
X93884440Y-123345600D01*
X93824400Y-123345600D01*
X93824400Y-123285560D01*
X93809561Y-123210961D01*
X94668804Y-123210961D01*
X94744401Y-123286558D01*
G37*
X94744401Y-123286558D02*
X94744401Y-123354981D01*
X94697240Y-123345600D01*
X94532760Y-123345600D01*
X94371440Y-123377689D01*
X94219479Y-123440633D01*
X94208600Y-123447902D01*
X94197721Y-123440633D01*
X94045760Y-123377689D01*
X93884440Y-123345600D01*
X93824400Y-123345600D01*
X93824400Y-123285560D01*
X93809561Y-123210961D01*
X94668804Y-123210961D01*
X94744401Y-123286558D01*
G36*
X101930141Y-123408300D02*
G01*
X98072258Y-123408300D01*
X98424788Y-123055770D01*
X98525564Y-122973064D01*
X98623662Y-122853533D01*
X98696554Y-122717160D01*
X98741441Y-122569187D01*
X98755346Y-122428009D01*
X103075755Y-118107600D01*
X107230841Y-118107600D01*
X101930141Y-123408300D01*
G37*
X101930141Y-123408300D02*
X98072258Y-123408300D01*
X98424788Y-123055770D01*
X98525564Y-122973064D01*
X98623662Y-122853533D01*
X98696554Y-122717160D01*
X98741441Y-122569187D01*
X98755346Y-122428009D01*
X103075755Y-118107600D01*
X107230841Y-118107600D01*
X101930141Y-123408300D01*
G36*
X91059039Y-118852353D02*
G01*
X91031200Y-118886275D01*
X91031200Y-117798111D01*
X91050137Y-117779174D01*
X91059039Y-117765851D01*
X91059039Y-118852353D01*
G37*
X91059039Y-118852353D02*
X91031200Y-118886275D01*
X91031200Y-117798111D01*
X91050137Y-117779174D01*
X91059039Y-117765851D01*
X91059039Y-118852353D01*
G36*
X74930000Y-49103129D02*
G01*
X74853092Y-48988028D01*
X74631972Y-48766908D01*
X74371963Y-48593176D01*
X74083057Y-48473507D01*
X73776355Y-48412500D01*
X73463645Y-48412500D01*
X73156943Y-48473507D01*
X72868037Y-48593176D01*
X72608028Y-48766908D01*
X72386908Y-48988028D01*
X72213176Y-49248037D01*
X72093507Y-49536943D01*
X72032500Y-49843645D01*
X72032500Y-50156355D01*
X72093507Y-50463057D01*
X72213176Y-50751963D01*
X72386908Y-51011972D01*
X72608028Y-51233092D01*
X72868037Y-51406824D01*
X73119339Y-51510917D01*
X74081648Y-52473227D01*
X73776355Y-52412500D01*
X73463645Y-52412500D01*
X73156943Y-52473507D01*
X72868037Y-52593176D01*
X72608028Y-52766908D01*
X72386908Y-52988028D01*
X72213176Y-53248037D01*
X72093507Y-53536943D01*
X72032500Y-53843645D01*
X72032500Y-54156355D01*
X72093507Y-54463057D01*
X72213176Y-54751963D01*
X72386908Y-55011972D01*
X72608028Y-55233092D01*
X72868037Y-55406824D01*
X73156943Y-55526493D01*
X73463645Y-55587500D01*
X73776355Y-55587500D01*
X74083057Y-55526493D01*
X74371963Y-55406824D01*
X74631841Y-55233180D01*
X74698589Y-55358058D01*
X74809183Y-55492817D01*
X74842956Y-55520534D01*
X75797470Y-56475049D01*
X75825183Y-56508817D01*
X75858951Y-56536530D01*
X75858953Y-56536532D01*
X75892970Y-56564449D01*
X75959941Y-56619411D01*
X76113687Y-56701589D01*
X76229599Y-56736751D01*
X76280509Y-56752195D01*
X76295306Y-56753652D01*
X76410523Y-56765000D01*
X76410531Y-56765000D01*
X76454000Y-56769281D01*
X76497469Y-56765000D01*
X78839822Y-56765000D01*
X84323048Y-62248227D01*
X84295500Y-62386722D01*
X84295500Y-62696478D01*
X84355930Y-63000281D01*
X84474468Y-63286458D01*
X84646559Y-63544011D01*
X84865589Y-63763041D01*
X85123142Y-63935132D01*
X85409319Y-64053670D01*
X85713122Y-64114100D01*
X86022878Y-64114100D01*
X86326681Y-64053670D01*
X86612858Y-63935132D01*
X86870411Y-63763041D01*
X87089441Y-63544011D01*
X87261532Y-63286458D01*
X87380070Y-63000281D01*
X87440500Y-62696478D01*
X87440500Y-62386722D01*
X87380070Y-62082919D01*
X87261532Y-61796742D01*
X87089441Y-61539189D01*
X86870411Y-61320159D01*
X86612858Y-61148068D01*
X86326681Y-61029530D01*
X86022878Y-60969100D01*
X85713122Y-60969100D01*
X85574627Y-60996648D01*
X80067368Y-55489390D01*
X80156943Y-55526493D01*
X80463645Y-55587500D01*
X80602369Y-55587500D01*
X83182009Y-58167141D01*
X83217551Y-58210449D01*
X83390377Y-58352284D01*
X83563952Y-58445061D01*
X83587553Y-58457676D01*
X83801501Y-58522577D01*
X84024000Y-58544491D01*
X84079751Y-58539000D01*
X92865468Y-58539000D01*
X86520805Y-64883664D01*
X86488367Y-64890116D01*
X86251509Y-64988226D01*
X86038342Y-65130659D01*
X85857059Y-65311942D01*
X85714626Y-65525109D01*
X85616516Y-65761967D01*
X85566500Y-66013413D01*
X85566500Y-66269787D01*
X85616516Y-66521233D01*
X85714626Y-66758091D01*
X85857059Y-66971258D01*
X86038342Y-67152541D01*
X86251509Y-67294974D01*
X86488367Y-67393084D01*
X86739813Y-67443100D01*
X86996187Y-67443100D01*
X87247633Y-67393084D01*
X87484491Y-67294974D01*
X87697658Y-67152541D01*
X87878941Y-66971258D01*
X88021374Y-66758091D01*
X88119484Y-66521233D01*
X88125936Y-66488795D01*
X92312258Y-62302474D01*
X92295500Y-62386722D01*
X92295500Y-62696478D01*
X92355930Y-63000281D01*
X92474468Y-63286458D01*
X92646559Y-63544011D01*
X92865589Y-63763041D01*
X93123142Y-63935132D01*
X93380179Y-64041600D01*
X93123142Y-64148068D01*
X92865589Y-64320159D01*
X92646559Y-64539189D01*
X92474468Y-64796742D01*
X92355930Y-65082919D01*
X92295500Y-65386722D01*
X92295500Y-65696478D01*
X92355930Y-66000281D01*
X92474468Y-66286458D01*
X92646559Y-66544011D01*
X92865589Y-66763041D01*
X93123142Y-66935132D01*
X93409319Y-67053670D01*
X93713122Y-67114100D01*
X94022878Y-67114100D01*
X94326681Y-67053670D01*
X94612858Y-66935132D01*
X94870411Y-66763041D01*
X94956852Y-66676600D01*
X112569883Y-66676600D01*
X112313393Y-66764081D01*
X112118129Y-66868452D01*
X112011804Y-67141799D01*
X113030000Y-68159995D01*
X114048196Y-67141799D01*
X113941871Y-66868452D01*
X113637342Y-66718822D01*
X113478851Y-66676600D01*
X116393649Y-66676600D01*
X116449400Y-66682091D01*
X116505151Y-66676600D01*
X116505152Y-66676600D01*
X116671899Y-66660177D01*
X116885847Y-66595276D01*
X116974613Y-66547830D01*
X116464590Y-67057853D01*
X116434636Y-67082436D01*
X116336538Y-67201968D01*
X116263646Y-67338341D01*
X116218759Y-67486314D01*
X116207400Y-67601640D01*
X116207400Y-67601647D01*
X116203603Y-67640200D01*
X116207400Y-67678753D01*
X116207401Y-81942858D01*
X116036998Y-81872274D01*
X115837039Y-81832500D01*
X115633161Y-81832500D01*
X115433202Y-81872274D01*
X115244844Y-81950295D01*
X115075326Y-82063563D01*
X115010639Y-82128250D01*
X114976040Y-82138746D01*
X114839667Y-82211638D01*
X114720136Y-82309736D01*
X114695553Y-82339690D01*
X99167185Y-97868058D01*
X99137237Y-97892636D01*
X99112659Y-97922584D01*
X99112655Y-97922588D01*
X99110958Y-97924656D01*
X99039139Y-98012167D01*
X99000177Y-98085060D01*
X98966246Y-98148541D01*
X98921359Y-98296514D01*
X98906203Y-98450400D01*
X98910001Y-98488963D01*
X98910000Y-112651400D01*
X93104156Y-112651400D01*
X93065600Y-112647603D01*
X93027044Y-112651400D01*
X93027039Y-112651400D01*
X92986626Y-112655380D01*
X92911713Y-112662758D01*
X92763740Y-112707646D01*
X92629039Y-112779644D01*
X92629039Y-112304195D01*
X92632836Y-112265639D01*
X92629039Y-112227083D01*
X92629039Y-112227078D01*
X92621334Y-112148846D01*
X92617681Y-112111752D01*
X92572793Y-111963779D01*
X92536186Y-111895292D01*
X92499901Y-111827406D01*
X92401803Y-111707875D01*
X92371849Y-111683292D01*
X92297200Y-111608643D01*
X92297200Y-111581861D01*
X92257426Y-111381902D01*
X92179405Y-111193544D01*
X92066137Y-111024026D01*
X91921974Y-110879863D01*
X91916415Y-110876148D01*
X92631881Y-110876148D01*
X92631881Y-111080026D01*
X92671655Y-111279985D01*
X92749676Y-111468343D01*
X92862944Y-111637861D01*
X93007107Y-111782024D01*
X93176625Y-111895292D01*
X93364983Y-111973313D01*
X93564942Y-112013087D01*
X93768820Y-112013087D01*
X93968779Y-111973313D01*
X94157137Y-111895292D01*
X94326655Y-111782024D01*
X94470818Y-111637861D01*
X94584086Y-111468343D01*
X94662107Y-111279985D01*
X94701881Y-111080026D01*
X94701881Y-110876148D01*
X94662107Y-110676189D01*
X94626929Y-110591261D01*
X95941530Y-110591261D01*
X95941530Y-110795139D01*
X95981304Y-110995098D01*
X96059325Y-111183456D01*
X96172593Y-111352974D01*
X96316756Y-111497137D01*
X96486274Y-111610405D01*
X96674632Y-111688426D01*
X96874591Y-111728200D01*
X97078469Y-111728200D01*
X97278428Y-111688426D01*
X97466786Y-111610405D01*
X97636304Y-111497137D01*
X97780467Y-111352974D01*
X97893735Y-111183456D01*
X97971756Y-110995098D01*
X98011530Y-110795139D01*
X98011530Y-110591261D01*
X97971756Y-110391302D01*
X97893735Y-110202944D01*
X97780467Y-110033426D01*
X97636304Y-109889263D01*
X97466786Y-109775995D01*
X97278428Y-109697974D01*
X97078469Y-109658200D01*
X96874591Y-109658200D01*
X96674632Y-109697974D01*
X96486274Y-109775995D01*
X96316756Y-109889263D01*
X96172593Y-110033426D01*
X96059325Y-110202944D01*
X95981304Y-110391302D01*
X95941530Y-110591261D01*
X94626929Y-110591261D01*
X94584086Y-110487831D01*
X94470818Y-110318313D01*
X94326655Y-110174150D01*
X94157137Y-110060882D01*
X93968779Y-109982861D01*
X93768820Y-109943087D01*
X93564942Y-109943087D01*
X93364983Y-109982861D01*
X93176625Y-110060882D01*
X93007107Y-110174150D01*
X92862944Y-110318313D01*
X92749676Y-110487831D01*
X92671655Y-110676189D01*
X92631881Y-110876148D01*
X91916415Y-110876148D01*
X91752456Y-110766595D01*
X91564098Y-110688574D01*
X91364139Y-110648800D01*
X91160261Y-110648800D01*
X90960302Y-110688574D01*
X90771944Y-110766595D01*
X90602426Y-110879863D01*
X90458263Y-111024026D01*
X90344995Y-111193544D01*
X90321301Y-111250746D01*
X84071600Y-105001045D01*
X84071600Y-102895061D01*
X91217800Y-102895061D01*
X91217800Y-103098939D01*
X91257574Y-103298898D01*
X91335595Y-103487256D01*
X91448863Y-103656774D01*
X91593026Y-103800937D01*
X91762544Y-103914205D01*
X91950902Y-103992226D01*
X92150861Y-104032000D01*
X92354739Y-104032000D01*
X92554698Y-103992226D01*
X92743056Y-103914205D01*
X92912574Y-103800937D01*
X93056737Y-103656774D01*
X93170005Y-103487256D01*
X93248026Y-103298898D01*
X93287800Y-103098939D01*
X93287800Y-102895061D01*
X93248026Y-102695102D01*
X93170005Y-102506744D01*
X93056737Y-102337226D01*
X92912574Y-102193063D01*
X92743056Y-102079795D01*
X92554698Y-102001774D01*
X92354739Y-101962000D01*
X92150861Y-101962000D01*
X91950902Y-102001774D01*
X91762544Y-102079795D01*
X91593026Y-102193063D01*
X91448863Y-102337226D01*
X91335595Y-102506744D01*
X91257574Y-102695102D01*
X91217800Y-102895061D01*
X84071600Y-102895061D01*
X84071600Y-95578176D01*
X85253200Y-95578176D01*
X85253200Y-95836224D01*
X85303542Y-96089313D01*
X85402293Y-96327718D01*
X85545656Y-96542277D01*
X85728123Y-96724744D01*
X85942682Y-96868107D01*
X86181087Y-96966858D01*
X86434176Y-97017200D01*
X86692224Y-97017200D01*
X86945313Y-96966858D01*
X87183718Y-96868107D01*
X87398277Y-96724744D01*
X87512421Y-96610600D01*
X88379405Y-96610600D01*
X88435830Y-96841821D01*
X88670008Y-96950217D01*
X88920833Y-97010845D01*
X89178665Y-97021374D01*
X89433598Y-96981400D01*
X89675833Y-96892459D01*
X89770570Y-96841821D01*
X89826995Y-96610600D01*
X89103200Y-95886805D01*
X88379405Y-96610600D01*
X87512421Y-96610600D01*
X87580744Y-96542277D01*
X87724107Y-96327718D01*
X87822858Y-96089313D01*
X87831688Y-96044920D01*
X87917941Y-96279833D01*
X87968579Y-96374570D01*
X88199800Y-96430995D01*
X88923595Y-95707200D01*
X89282805Y-95707200D01*
X90006600Y-96430995D01*
X90237821Y-96374570D01*
X90346217Y-96140392D01*
X90372266Y-96032624D01*
X90383542Y-96089313D01*
X90482293Y-96327718D01*
X90625656Y-96542277D01*
X90808123Y-96724744D01*
X91022682Y-96868107D01*
X91261087Y-96966858D01*
X91514176Y-97017200D01*
X91772224Y-97017200D01*
X92025313Y-96966858D01*
X92263718Y-96868107D01*
X92478277Y-96724744D01*
X92660744Y-96542277D01*
X92804107Y-96327718D01*
X92902858Y-96089313D01*
X92953200Y-95836224D01*
X92953200Y-95578176D01*
X92902858Y-95325087D01*
X92804107Y-95086682D01*
X92660744Y-94872123D01*
X92478277Y-94689656D01*
X92263718Y-94546293D01*
X92025313Y-94447542D01*
X91772224Y-94397200D01*
X91514176Y-94397200D01*
X91261087Y-94447542D01*
X91022682Y-94546293D01*
X90808123Y-94689656D01*
X90625656Y-94872123D01*
X90482293Y-95086682D01*
X90383542Y-95325087D01*
X90374712Y-95369480D01*
X90288459Y-95134567D01*
X90237821Y-95039830D01*
X90006600Y-94983405D01*
X89282805Y-95707200D01*
X88923595Y-95707200D01*
X88199800Y-94983405D01*
X87968579Y-95039830D01*
X87860183Y-95274008D01*
X87834134Y-95381776D01*
X87822858Y-95325087D01*
X87724107Y-95086682D01*
X87580744Y-94872123D01*
X87512421Y-94803800D01*
X88379405Y-94803800D01*
X89103200Y-95527595D01*
X89826995Y-94803800D01*
X89770570Y-94572579D01*
X89536392Y-94464183D01*
X89285567Y-94403555D01*
X89027735Y-94393026D01*
X88772802Y-94433000D01*
X88530567Y-94521941D01*
X88435830Y-94572579D01*
X88379405Y-94803800D01*
X87512421Y-94803800D01*
X87398277Y-94689656D01*
X87183718Y-94546293D01*
X86945313Y-94447542D01*
X86692224Y-94397200D01*
X86434176Y-94397200D01*
X86181087Y-94447542D01*
X85942682Y-94546293D01*
X85728123Y-94689656D01*
X85545656Y-94872123D01*
X85402293Y-95086682D01*
X85303542Y-95325087D01*
X85253200Y-95578176D01*
X84071600Y-95578176D01*
X84071600Y-89172311D01*
X84090537Y-89153374D01*
X84203805Y-88983856D01*
X84281826Y-88795498D01*
X84321600Y-88595539D01*
X84321600Y-88391661D01*
X84281826Y-88191702D01*
X84203805Y-88003344D01*
X84090537Y-87833826D01*
X83946374Y-87689663D01*
X83776856Y-87576395D01*
X83588498Y-87498374D01*
X83388539Y-87458600D01*
X83184661Y-87458600D01*
X82984702Y-87498374D01*
X82796344Y-87576395D01*
X82626826Y-87689663D01*
X82482663Y-87833826D01*
X82369395Y-88003344D01*
X82291374Y-88191702D01*
X82251600Y-88391661D01*
X82251600Y-88595539D01*
X82291374Y-88795498D01*
X82369395Y-88983856D01*
X82482663Y-89153374D01*
X82501601Y-89172312D01*
X82501600Y-105287649D01*
X82497803Y-105326202D01*
X82501600Y-105364755D01*
X82501600Y-105364762D01*
X82512959Y-105480088D01*
X82557846Y-105628061D01*
X82630738Y-105764434D01*
X82728836Y-105883966D01*
X82758790Y-105908549D01*
X89461201Y-112610960D01*
X89461201Y-113138000D01*
X89331461Y-113138000D01*
X89131502Y-113177774D01*
X88943144Y-113255795D01*
X88773626Y-113369063D01*
X88629463Y-113513226D01*
X88516195Y-113682744D01*
X88438174Y-113871102D01*
X88398400Y-114071061D01*
X88398400Y-114274939D01*
X88438174Y-114474898D01*
X88516195Y-114663256D01*
X88629463Y-114832774D01*
X88773626Y-114976937D01*
X88943144Y-115090205D01*
X89131502Y-115168226D01*
X89331461Y-115208000D01*
X89461201Y-115208000D01*
X89461200Y-116440689D01*
X89442263Y-116459626D01*
X89328995Y-116629144D01*
X89250974Y-116817502D01*
X89211200Y-117017461D01*
X89211200Y-117221339D01*
X89250974Y-117421298D01*
X89328995Y-117609656D01*
X89442263Y-117779174D01*
X89461200Y-117798111D01*
X89461200Y-117811823D01*
X89405098Y-117788584D01*
X89205139Y-117748810D01*
X89001261Y-117748810D01*
X88801302Y-117788584D01*
X88612944Y-117866605D01*
X88443426Y-117979873D01*
X88424489Y-117998810D01*
X86723968Y-117998810D01*
X82929147Y-114203990D01*
X82904564Y-114174036D01*
X82785033Y-114075938D01*
X82648660Y-114003046D01*
X82500687Y-113958159D01*
X82385361Y-113946800D01*
X82385353Y-113946800D01*
X82346800Y-113943003D01*
X82308247Y-113946800D01*
X79901311Y-113946800D01*
X79882374Y-113927863D01*
X79712856Y-113814595D01*
X79524498Y-113736574D01*
X79324539Y-113696800D01*
X79120661Y-113696800D01*
X78920702Y-113736574D01*
X78915400Y-113738770D01*
X78915400Y-113154831D01*
X78922844Y-113159805D01*
X79111202Y-113237826D01*
X79311161Y-113277600D01*
X79515039Y-113277600D01*
X79714998Y-113237826D01*
X79903356Y-113159805D01*
X80072874Y-113046537D01*
X80217037Y-112902374D01*
X80330305Y-112732856D01*
X80408326Y-112544498D01*
X80448100Y-112344539D01*
X80448100Y-112140661D01*
X80408326Y-111940702D01*
X80330305Y-111752344D01*
X80217037Y-111582826D01*
X80072874Y-111438663D01*
X79903356Y-111325395D01*
X79714998Y-111247374D01*
X79515039Y-111207600D01*
X79311161Y-111207600D01*
X79111202Y-111247374D01*
X78922844Y-111325395D01*
X78915400Y-111330369D01*
X78915400Y-108854557D01*
X80727600Y-110666758D01*
X80727600Y-110693539D01*
X80767374Y-110893498D01*
X80845395Y-111081856D01*
X80958663Y-111251374D01*
X81102826Y-111395537D01*
X81272344Y-111508805D01*
X81460702Y-111586826D01*
X81660661Y-111626600D01*
X81864539Y-111626600D01*
X82064498Y-111586826D01*
X82252856Y-111508805D01*
X82422374Y-111395537D01*
X82566537Y-111251374D01*
X82679805Y-111081856D01*
X82757826Y-110893498D01*
X82797600Y-110693539D01*
X82797600Y-110489661D01*
X82757826Y-110289702D01*
X82679805Y-110101344D01*
X82566537Y-109931826D01*
X82422374Y-109787663D01*
X82252856Y-109674395D01*
X82064498Y-109596374D01*
X81864539Y-109556600D01*
X81837758Y-109556600D01*
X80363413Y-108082256D01*
X80384600Y-107975739D01*
X80384600Y-107771861D01*
X80344826Y-107571902D01*
X80266805Y-107383544D01*
X80153537Y-107214026D01*
X80009374Y-107069863D01*
X79839856Y-106956595D01*
X79651498Y-106878574D01*
X79451539Y-106838800D01*
X79247661Y-106838800D01*
X79047702Y-106878574D01*
X78915400Y-106933376D01*
X78915400Y-78556841D01*
X78919197Y-78518285D01*
X78915400Y-78479729D01*
X78915400Y-78479724D01*
X78908641Y-78411097D01*
X78904042Y-78364398D01*
X78859154Y-78216425D01*
X78786262Y-78080052D01*
X78688164Y-77960521D01*
X78658210Y-77935938D01*
X78447027Y-77724755D01*
X78490626Y-77619498D01*
X78530400Y-77419539D01*
X78530400Y-77215661D01*
X78490626Y-77015702D01*
X78412605Y-76827344D01*
X78299337Y-76657826D01*
X78155174Y-76513663D01*
X77985656Y-76400395D01*
X77797298Y-76322374D01*
X77597339Y-76282600D01*
X77393461Y-76282600D01*
X77193502Y-76322374D01*
X77005144Y-76400395D01*
X76835626Y-76513663D01*
X76691463Y-76657826D01*
X76578195Y-76827344D01*
X76500174Y-77015702D01*
X76460400Y-77215661D01*
X76460400Y-77419539D01*
X76500174Y-77619498D01*
X76578195Y-77807856D01*
X76691463Y-77977374D01*
X76718536Y-78004447D01*
X76721759Y-78037171D01*
X76766646Y-78185144D01*
X76839538Y-78321517D01*
X76937636Y-78441049D01*
X76967590Y-78465632D01*
X77345401Y-78843443D01*
X77345401Y-82382044D01*
X76041038Y-81077681D01*
X76220356Y-81003405D01*
X76389874Y-80890137D01*
X76534037Y-80745974D01*
X76647305Y-80576456D01*
X76725326Y-80388098D01*
X76765100Y-80188139D01*
X76765100Y-79984261D01*
X76725326Y-79784302D01*
X76647305Y-79595944D01*
X76534037Y-79426426D01*
X76389874Y-79282263D01*
X76220356Y-79168995D01*
X76031998Y-79090974D01*
X75832039Y-79051200D01*
X75628161Y-79051200D01*
X75428202Y-79090974D01*
X75239844Y-79168995D01*
X75070326Y-79282263D01*
X74926163Y-79426426D01*
X74812895Y-79595944D01*
X74738619Y-79775262D01*
X73378200Y-78414843D01*
X73378200Y-73024661D01*
X76409600Y-73024661D01*
X76409600Y-73228539D01*
X76449374Y-73428498D01*
X76527395Y-73616856D01*
X76640663Y-73786374D01*
X76784826Y-73930537D01*
X76954344Y-74043805D01*
X77142702Y-74121826D01*
X77342661Y-74161600D01*
X77546539Y-74161600D01*
X77746498Y-74121826D01*
X77934856Y-74043805D01*
X78104374Y-73930537D01*
X78248537Y-73786374D01*
X78361805Y-73616856D01*
X78439826Y-73428498D01*
X78479600Y-73228539D01*
X78479600Y-73024661D01*
X78439826Y-72824702D01*
X78361805Y-72636344D01*
X78346484Y-72613413D01*
X93066500Y-72613413D01*
X93066500Y-72869787D01*
X93116516Y-73121233D01*
X93214626Y-73358091D01*
X93357059Y-73571258D01*
X93538342Y-73752541D01*
X93751509Y-73894974D01*
X93988367Y-73993084D01*
X94239813Y-74043100D01*
X94496187Y-74043100D01*
X94747633Y-73993084D01*
X94984491Y-73894974D01*
X95197658Y-73752541D01*
X95378941Y-73571258D01*
X95521374Y-73358091D01*
X95619484Y-73121233D01*
X95669500Y-72869787D01*
X95669500Y-72613413D01*
X95619484Y-72361967D01*
X95521374Y-72125109D01*
X95378941Y-71911942D01*
X95197658Y-71730659D01*
X94984491Y-71588226D01*
X94747633Y-71490116D01*
X94496187Y-71440100D01*
X94239813Y-71440100D01*
X93988367Y-71490116D01*
X93751509Y-71588226D01*
X93538342Y-71730659D01*
X93357059Y-71911942D01*
X93214626Y-72125109D01*
X93116516Y-72361967D01*
X93066500Y-72613413D01*
X78346484Y-72613413D01*
X78248537Y-72466826D01*
X78104374Y-72322663D01*
X77934856Y-72209395D01*
X77746498Y-72131374D01*
X77546539Y-72091600D01*
X77342661Y-72091600D01*
X77142702Y-72131374D01*
X76954344Y-72209395D01*
X76784826Y-72322663D01*
X76640663Y-72466826D01*
X76527395Y-72636344D01*
X76449374Y-72824702D01*
X76409600Y-73024661D01*
X73378200Y-73024661D01*
X73378200Y-69537401D01*
X112011804Y-69537401D01*
X112118129Y-69810748D01*
X112422658Y-69960378D01*
X112750525Y-70047722D01*
X113089134Y-70069424D01*
X113425470Y-70024649D01*
X113746607Y-69915119D01*
X113941871Y-69810748D01*
X114048196Y-69537401D01*
X113030000Y-68519205D01*
X112011804Y-69537401D01*
X73378200Y-69537401D01*
X73378200Y-68852311D01*
X73397137Y-68833374D01*
X73510405Y-68663856D01*
X73588426Y-68475498D01*
X73603695Y-68398734D01*
X111300176Y-68398734D01*
X111344951Y-68735070D01*
X111454481Y-69056207D01*
X111558852Y-69251471D01*
X111832199Y-69357796D01*
X112850395Y-68339600D01*
X113209605Y-68339600D01*
X114227801Y-69357796D01*
X114501148Y-69251471D01*
X114650778Y-68946942D01*
X114738122Y-68619075D01*
X114759824Y-68280466D01*
X114715049Y-67944130D01*
X114605519Y-67622993D01*
X114501148Y-67427729D01*
X114227801Y-67321404D01*
X113209605Y-68339600D01*
X112850395Y-68339600D01*
X111832199Y-67321404D01*
X111558852Y-67427729D01*
X111409222Y-67732258D01*
X111321878Y-68060125D01*
X111300176Y-68398734D01*
X73603695Y-68398734D01*
X73628200Y-68275539D01*
X73628200Y-68071661D01*
X73588426Y-67871702D01*
X73510405Y-67683344D01*
X73397137Y-67513826D01*
X73252974Y-67369663D01*
X73083456Y-67256395D01*
X72895098Y-67178374D01*
X72695139Y-67138600D01*
X72491261Y-67138600D01*
X72291302Y-67178374D01*
X72102944Y-67256395D01*
X71933426Y-67369663D01*
X71789263Y-67513826D01*
X71675995Y-67683344D01*
X71645795Y-67756253D01*
X71628000Y-67754500D01*
X69278500Y-67754500D01*
X69278500Y-66103500D01*
X69266299Y-65979618D01*
X69230164Y-65860496D01*
X69171483Y-65750713D01*
X69092513Y-65654487D01*
X68996287Y-65575517D01*
X68886504Y-65516836D01*
X68767382Y-65480701D01*
X68643500Y-65468500D01*
X64770000Y-65468500D01*
X64770000Y-53843645D01*
X65032500Y-53843645D01*
X65032500Y-54156355D01*
X65093507Y-54463057D01*
X65213176Y-54751963D01*
X65386908Y-55011972D01*
X65608028Y-55233092D01*
X65868037Y-55406824D01*
X66156943Y-55526493D01*
X66463645Y-55587500D01*
X66776355Y-55587500D01*
X67083057Y-55526493D01*
X67371963Y-55406824D01*
X67631972Y-55233092D01*
X67853092Y-55011972D01*
X68026824Y-54751963D01*
X68146493Y-54463057D01*
X68207500Y-54156355D01*
X68207500Y-53843645D01*
X68532500Y-53843645D01*
X68532500Y-54156355D01*
X68593507Y-54463057D01*
X68713176Y-54751963D01*
X68886908Y-55011972D01*
X69108028Y-55233092D01*
X69368037Y-55406824D01*
X69656943Y-55526493D01*
X69963645Y-55587500D01*
X70276355Y-55587500D01*
X70583057Y-55526493D01*
X70871963Y-55406824D01*
X71131972Y-55233092D01*
X71353092Y-55011972D01*
X71526824Y-54751963D01*
X71646493Y-54463057D01*
X71707500Y-54156355D01*
X71707500Y-53843645D01*
X71646493Y-53536943D01*
X71526824Y-53248037D01*
X71353092Y-52988028D01*
X71131972Y-52766908D01*
X70871963Y-52593176D01*
X70583057Y-52473507D01*
X70276355Y-52412500D01*
X69963645Y-52412500D01*
X69656943Y-52473507D01*
X69368037Y-52593176D01*
X69108028Y-52766908D01*
X68886908Y-52988028D01*
X68713176Y-53248037D01*
X68593507Y-53536943D01*
X68532500Y-53843645D01*
X68207500Y-53843645D01*
X68146493Y-53536943D01*
X68026824Y-53248037D01*
X67853092Y-52988028D01*
X67631972Y-52766908D01*
X67371963Y-52593176D01*
X67083057Y-52473507D01*
X66776355Y-52412500D01*
X66463645Y-52412500D01*
X66156943Y-52473507D01*
X65868037Y-52593176D01*
X65608028Y-52766908D01*
X65386908Y-52988028D01*
X65213176Y-53248037D01*
X65093507Y-53536943D01*
X65032500Y-53843645D01*
X64770000Y-53843645D01*
X64770000Y-49843645D01*
X65032500Y-49843645D01*
X65032500Y-50156355D01*
X65093507Y-50463057D01*
X65213176Y-50751963D01*
X65386908Y-51011972D01*
X65608028Y-51233092D01*
X65868037Y-51406824D01*
X66156943Y-51526493D01*
X66463645Y-51587500D01*
X66776355Y-51587500D01*
X67083057Y-51526493D01*
X67371963Y-51406824D01*
X67631972Y-51233092D01*
X67853092Y-51011972D01*
X68026824Y-50751963D01*
X68146493Y-50463057D01*
X68207500Y-50156355D01*
X68207500Y-49843645D01*
X68532500Y-49843645D01*
X68532500Y-50156355D01*
X68593507Y-50463057D01*
X68713176Y-50751963D01*
X68886908Y-51011972D01*
X69108028Y-51233092D01*
X69368037Y-51406824D01*
X69656943Y-51526493D01*
X69963645Y-51587500D01*
X70276355Y-51587500D01*
X70583057Y-51526493D01*
X70871963Y-51406824D01*
X71131972Y-51233092D01*
X71353092Y-51011972D01*
X71526824Y-50751963D01*
X71646493Y-50463057D01*
X71707500Y-50156355D01*
X71707500Y-49843645D01*
X71646493Y-49536943D01*
X71526824Y-49248037D01*
X71353092Y-48988028D01*
X71131972Y-48766908D01*
X70871963Y-48593176D01*
X70583057Y-48473507D01*
X70276355Y-48412500D01*
X69963645Y-48412500D01*
X69656943Y-48473507D01*
X69368037Y-48593176D01*
X69108028Y-48766908D01*
X68886908Y-48988028D01*
X68713176Y-49248037D01*
X68593507Y-49536943D01*
X68532500Y-49843645D01*
X68207500Y-49843645D01*
X68146493Y-49536943D01*
X68026824Y-49248037D01*
X67853092Y-48988028D01*
X67631972Y-48766908D01*
X67371963Y-48593176D01*
X67083057Y-48473507D01*
X66776355Y-48412500D01*
X66463645Y-48412500D01*
X66156943Y-48473507D01*
X65868037Y-48593176D01*
X65608028Y-48766908D01*
X65386908Y-48988028D01*
X65213176Y-49248037D01*
X65093507Y-49536943D01*
X65032500Y-49843645D01*
X64770000Y-49843645D01*
X64770000Y-47879000D01*
X74930000Y-47879000D01*
X74930000Y-49103129D01*
G37*
X74930000Y-49103129D02*
X74853092Y-48988028D01*
X74631972Y-48766908D01*
X74371963Y-48593176D01*
X74083057Y-48473507D01*
X73776355Y-48412500D01*
X73463645Y-48412500D01*
X73156943Y-48473507D01*
X72868037Y-48593176D01*
X72608028Y-48766908D01*
X72386908Y-48988028D01*
X72213176Y-49248037D01*
X72093507Y-49536943D01*
X72032500Y-49843645D01*
X72032500Y-50156355D01*
X72093507Y-50463057D01*
X72213176Y-50751963D01*
X72386908Y-51011972D01*
X72608028Y-51233092D01*
X72868037Y-51406824D01*
X73119339Y-51510917D01*
X74081648Y-52473227D01*
X73776355Y-52412500D01*
X73463645Y-52412500D01*
X73156943Y-52473507D01*
X72868037Y-52593176D01*
X72608028Y-52766908D01*
X72386908Y-52988028D01*
X72213176Y-53248037D01*
X72093507Y-53536943D01*
X72032500Y-53843645D01*
X72032500Y-54156355D01*
X72093507Y-54463057D01*
X72213176Y-54751963D01*
X72386908Y-55011972D01*
X72608028Y-55233092D01*
X72868037Y-55406824D01*
X73156943Y-55526493D01*
X73463645Y-55587500D01*
X73776355Y-55587500D01*
X74083057Y-55526493D01*
X74371963Y-55406824D01*
X74631841Y-55233180D01*
X74698589Y-55358058D01*
X74809183Y-55492817D01*
X74842956Y-55520534D01*
X75797470Y-56475049D01*
X75825183Y-56508817D01*
X75858951Y-56536530D01*
X75858953Y-56536532D01*
X75892970Y-56564449D01*
X75959941Y-56619411D01*
X76113687Y-56701589D01*
X76229599Y-56736751D01*
X76280509Y-56752195D01*
X76295306Y-56753652D01*
X76410523Y-56765000D01*
X76410531Y-56765000D01*
X76454000Y-56769281D01*
X76497469Y-56765000D01*
X78839822Y-56765000D01*
X84323048Y-62248227D01*
X84295500Y-62386722D01*
X84295500Y-62696478D01*
X84355930Y-63000281D01*
X84474468Y-63286458D01*
X84646559Y-63544011D01*
X84865589Y-63763041D01*
X85123142Y-63935132D01*
X85409319Y-64053670D01*
X85713122Y-64114100D01*
X86022878Y-64114100D01*
X86326681Y-64053670D01*
X86612858Y-63935132D01*
X86870411Y-63763041D01*
X87089441Y-63544011D01*
X87261532Y-63286458D01*
X87380070Y-63000281D01*
X87440500Y-62696478D01*
X87440500Y-62386722D01*
X87380070Y-62082919D01*
X87261532Y-61796742D01*
X87089441Y-61539189D01*
X86870411Y-61320159D01*
X86612858Y-61148068D01*
X86326681Y-61029530D01*
X86022878Y-60969100D01*
X85713122Y-60969100D01*
X85574627Y-60996648D01*
X80067368Y-55489390D01*
X80156943Y-55526493D01*
X80463645Y-55587500D01*
X80602369Y-55587500D01*
X83182009Y-58167141D01*
X83217551Y-58210449D01*
X83390377Y-58352284D01*
X83563952Y-58445061D01*
X83587553Y-58457676D01*
X83801501Y-58522577D01*
X84024000Y-58544491D01*
X84079751Y-58539000D01*
X92865468Y-58539000D01*
X86520805Y-64883664D01*
X86488367Y-64890116D01*
X86251509Y-64988226D01*
X86038342Y-65130659D01*
X85857059Y-65311942D01*
X85714626Y-65525109D01*
X85616516Y-65761967D01*
X85566500Y-66013413D01*
X85566500Y-66269787D01*
X85616516Y-66521233D01*
X85714626Y-66758091D01*
X85857059Y-66971258D01*
X86038342Y-67152541D01*
X86251509Y-67294974D01*
X86488367Y-67393084D01*
X86739813Y-67443100D01*
X86996187Y-67443100D01*
X87247633Y-67393084D01*
X87484491Y-67294974D01*
X87697658Y-67152541D01*
X87878941Y-66971258D01*
X88021374Y-66758091D01*
X88119484Y-66521233D01*
X88125936Y-66488795D01*
X92312258Y-62302474D01*
X92295500Y-62386722D01*
X92295500Y-62696478D01*
X92355930Y-63000281D01*
X92474468Y-63286458D01*
X92646559Y-63544011D01*
X92865589Y-63763041D01*
X93123142Y-63935132D01*
X93380179Y-64041600D01*
X93123142Y-64148068D01*
X92865589Y-64320159D01*
X92646559Y-64539189D01*
X92474468Y-64796742D01*
X92355930Y-65082919D01*
X92295500Y-65386722D01*
X92295500Y-65696478D01*
X92355930Y-66000281D01*
X92474468Y-66286458D01*
X92646559Y-66544011D01*
X92865589Y-66763041D01*
X93123142Y-66935132D01*
X93409319Y-67053670D01*
X93713122Y-67114100D01*
X94022878Y-67114100D01*
X94326681Y-67053670D01*
X94612858Y-66935132D01*
X94870411Y-66763041D01*
X94956852Y-66676600D01*
X112569883Y-66676600D01*
X112313393Y-66764081D01*
X112118129Y-66868452D01*
X112011804Y-67141799D01*
X113030000Y-68159995D01*
X114048196Y-67141799D01*
X113941871Y-66868452D01*
X113637342Y-66718822D01*
X113478851Y-66676600D01*
X116393649Y-66676600D01*
X116449400Y-66682091D01*
X116505151Y-66676600D01*
X116505152Y-66676600D01*
X116671899Y-66660177D01*
X116885847Y-66595276D01*
X116974613Y-66547830D01*
X116464590Y-67057853D01*
X116434636Y-67082436D01*
X116336538Y-67201968D01*
X116263646Y-67338341D01*
X116218759Y-67486314D01*
X116207400Y-67601640D01*
X116207400Y-67601647D01*
X116203603Y-67640200D01*
X116207400Y-67678753D01*
X116207401Y-81942858D01*
X116036998Y-81872274D01*
X115837039Y-81832500D01*
X115633161Y-81832500D01*
X115433202Y-81872274D01*
X115244844Y-81950295D01*
X115075326Y-82063563D01*
X115010639Y-82128250D01*
X114976040Y-82138746D01*
X114839667Y-82211638D01*
X114720136Y-82309736D01*
X114695553Y-82339690D01*
X99167185Y-97868058D01*
X99137237Y-97892636D01*
X99112659Y-97922584D01*
X99112655Y-97922588D01*
X99110958Y-97924656D01*
X99039139Y-98012167D01*
X99000177Y-98085060D01*
X98966246Y-98148541D01*
X98921359Y-98296514D01*
X98906203Y-98450400D01*
X98910001Y-98488963D01*
X98910000Y-112651400D01*
X93104156Y-112651400D01*
X93065600Y-112647603D01*
X93027044Y-112651400D01*
X93027039Y-112651400D01*
X92986626Y-112655380D01*
X92911713Y-112662758D01*
X92763740Y-112707646D01*
X92629039Y-112779644D01*
X92629039Y-112304195D01*
X92632836Y-112265639D01*
X92629039Y-112227083D01*
X92629039Y-112227078D01*
X92621334Y-112148846D01*
X92617681Y-112111752D01*
X92572793Y-111963779D01*
X92536186Y-111895292D01*
X92499901Y-111827406D01*
X92401803Y-111707875D01*
X92371849Y-111683292D01*
X92297200Y-111608643D01*
X92297200Y-111581861D01*
X92257426Y-111381902D01*
X92179405Y-111193544D01*
X92066137Y-111024026D01*
X91921974Y-110879863D01*
X91916415Y-110876148D01*
X92631881Y-110876148D01*
X92631881Y-111080026D01*
X92671655Y-111279985D01*
X92749676Y-111468343D01*
X92862944Y-111637861D01*
X93007107Y-111782024D01*
X93176625Y-111895292D01*
X93364983Y-111973313D01*
X93564942Y-112013087D01*
X93768820Y-112013087D01*
X93968779Y-111973313D01*
X94157137Y-111895292D01*
X94326655Y-111782024D01*
X94470818Y-111637861D01*
X94584086Y-111468343D01*
X94662107Y-111279985D01*
X94701881Y-111080026D01*
X94701881Y-110876148D01*
X94662107Y-110676189D01*
X94626929Y-110591261D01*
X95941530Y-110591261D01*
X95941530Y-110795139D01*
X95981304Y-110995098D01*
X96059325Y-111183456D01*
X96172593Y-111352974D01*
X96316756Y-111497137D01*
X96486274Y-111610405D01*
X96674632Y-111688426D01*
X96874591Y-111728200D01*
X97078469Y-111728200D01*
X97278428Y-111688426D01*
X97466786Y-111610405D01*
X97636304Y-111497137D01*
X97780467Y-111352974D01*
X97893735Y-111183456D01*
X97971756Y-110995098D01*
X98011530Y-110795139D01*
X98011530Y-110591261D01*
X97971756Y-110391302D01*
X97893735Y-110202944D01*
X97780467Y-110033426D01*
X97636304Y-109889263D01*
X97466786Y-109775995D01*
X97278428Y-109697974D01*
X97078469Y-109658200D01*
X96874591Y-109658200D01*
X96674632Y-109697974D01*
X96486274Y-109775995D01*
X96316756Y-109889263D01*
X96172593Y-110033426D01*
X96059325Y-110202944D01*
X95981304Y-110391302D01*
X95941530Y-110591261D01*
X94626929Y-110591261D01*
X94584086Y-110487831D01*
X94470818Y-110318313D01*
X94326655Y-110174150D01*
X94157137Y-110060882D01*
X93968779Y-109982861D01*
X93768820Y-109943087D01*
X93564942Y-109943087D01*
X93364983Y-109982861D01*
X93176625Y-110060882D01*
X93007107Y-110174150D01*
X92862944Y-110318313D01*
X92749676Y-110487831D01*
X92671655Y-110676189D01*
X92631881Y-110876148D01*
X91916415Y-110876148D01*
X91752456Y-110766595D01*
X91564098Y-110688574D01*
X91364139Y-110648800D01*
X91160261Y-110648800D01*
X90960302Y-110688574D01*
X90771944Y-110766595D01*
X90602426Y-110879863D01*
X90458263Y-111024026D01*
X90344995Y-111193544D01*
X90321301Y-111250746D01*
X84071600Y-105001045D01*
X84071600Y-102895061D01*
X91217800Y-102895061D01*
X91217800Y-103098939D01*
X91257574Y-103298898D01*
X91335595Y-103487256D01*
X91448863Y-103656774D01*
X91593026Y-103800937D01*
X91762544Y-103914205D01*
X91950902Y-103992226D01*
X92150861Y-104032000D01*
X92354739Y-104032000D01*
X92554698Y-103992226D01*
X92743056Y-103914205D01*
X92912574Y-103800937D01*
X93056737Y-103656774D01*
X93170005Y-103487256D01*
X93248026Y-103298898D01*
X93287800Y-103098939D01*
X93287800Y-102895061D01*
X93248026Y-102695102D01*
X93170005Y-102506744D01*
X93056737Y-102337226D01*
X92912574Y-102193063D01*
X92743056Y-102079795D01*
X92554698Y-102001774D01*
X92354739Y-101962000D01*
X92150861Y-101962000D01*
X91950902Y-102001774D01*
X91762544Y-102079795D01*
X91593026Y-102193063D01*
X91448863Y-102337226D01*
X91335595Y-102506744D01*
X91257574Y-102695102D01*
X91217800Y-102895061D01*
X84071600Y-102895061D01*
X84071600Y-95578176D01*
X85253200Y-95578176D01*
X85253200Y-95836224D01*
X85303542Y-96089313D01*
X85402293Y-96327718D01*
X85545656Y-96542277D01*
X85728123Y-96724744D01*
X85942682Y-96868107D01*
X86181087Y-96966858D01*
X86434176Y-97017200D01*
X86692224Y-97017200D01*
X86945313Y-96966858D01*
X87183718Y-96868107D01*
X87398277Y-96724744D01*
X87512421Y-96610600D01*
X88379405Y-96610600D01*
X88435830Y-96841821D01*
X88670008Y-96950217D01*
X88920833Y-97010845D01*
X89178665Y-97021374D01*
X89433598Y-96981400D01*
X89675833Y-96892459D01*
X89770570Y-96841821D01*
X89826995Y-96610600D01*
X89103200Y-95886805D01*
X88379405Y-96610600D01*
X87512421Y-96610600D01*
X87580744Y-96542277D01*
X87724107Y-96327718D01*
X87822858Y-96089313D01*
X87831688Y-96044920D01*
X87917941Y-96279833D01*
X87968579Y-96374570D01*
X88199800Y-96430995D01*
X88923595Y-95707200D01*
X89282805Y-95707200D01*
X90006600Y-96430995D01*
X90237821Y-96374570D01*
X90346217Y-96140392D01*
X90372266Y-96032624D01*
X90383542Y-96089313D01*
X90482293Y-96327718D01*
X90625656Y-96542277D01*
X90808123Y-96724744D01*
X91022682Y-96868107D01*
X91261087Y-96966858D01*
X91514176Y-97017200D01*
X91772224Y-97017200D01*
X92025313Y-96966858D01*
X92263718Y-96868107D01*
X92478277Y-96724744D01*
X92660744Y-96542277D01*
X92804107Y-96327718D01*
X92902858Y-96089313D01*
X92953200Y-95836224D01*
X92953200Y-95578176D01*
X92902858Y-95325087D01*
X92804107Y-95086682D01*
X92660744Y-94872123D01*
X92478277Y-94689656D01*
X92263718Y-94546293D01*
X92025313Y-94447542D01*
X91772224Y-94397200D01*
X91514176Y-94397200D01*
X91261087Y-94447542D01*
X91022682Y-94546293D01*
X90808123Y-94689656D01*
X90625656Y-94872123D01*
X90482293Y-95086682D01*
X90383542Y-95325087D01*
X90374712Y-95369480D01*
X90288459Y-95134567D01*
X90237821Y-95039830D01*
X90006600Y-94983405D01*
X89282805Y-95707200D01*
X88923595Y-95707200D01*
X88199800Y-94983405D01*
X87968579Y-95039830D01*
X87860183Y-95274008D01*
X87834134Y-95381776D01*
X87822858Y-95325087D01*
X87724107Y-95086682D01*
X87580744Y-94872123D01*
X87512421Y-94803800D01*
X88379405Y-94803800D01*
X89103200Y-95527595D01*
X89826995Y-94803800D01*
X89770570Y-94572579D01*
X89536392Y-94464183D01*
X89285567Y-94403555D01*
X89027735Y-94393026D01*
X88772802Y-94433000D01*
X88530567Y-94521941D01*
X88435830Y-94572579D01*
X88379405Y-94803800D01*
X87512421Y-94803800D01*
X87398277Y-94689656D01*
X87183718Y-94546293D01*
X86945313Y-94447542D01*
X86692224Y-94397200D01*
X86434176Y-94397200D01*
X86181087Y-94447542D01*
X85942682Y-94546293D01*
X85728123Y-94689656D01*
X85545656Y-94872123D01*
X85402293Y-95086682D01*
X85303542Y-95325087D01*
X85253200Y-95578176D01*
X84071600Y-95578176D01*
X84071600Y-89172311D01*
X84090537Y-89153374D01*
X84203805Y-88983856D01*
X84281826Y-88795498D01*
X84321600Y-88595539D01*
X84321600Y-88391661D01*
X84281826Y-88191702D01*
X84203805Y-88003344D01*
X84090537Y-87833826D01*
X83946374Y-87689663D01*
X83776856Y-87576395D01*
X83588498Y-87498374D01*
X83388539Y-87458600D01*
X83184661Y-87458600D01*
X82984702Y-87498374D01*
X82796344Y-87576395D01*
X82626826Y-87689663D01*
X82482663Y-87833826D01*
X82369395Y-88003344D01*
X82291374Y-88191702D01*
X82251600Y-88391661D01*
X82251600Y-88595539D01*
X82291374Y-88795498D01*
X82369395Y-88983856D01*
X82482663Y-89153374D01*
X82501601Y-89172312D01*
X82501600Y-105287649D01*
X82497803Y-105326202D01*
X82501600Y-105364755D01*
X82501600Y-105364762D01*
X82512959Y-105480088D01*
X82557846Y-105628061D01*
X82630738Y-105764434D01*
X82728836Y-105883966D01*
X82758790Y-105908549D01*
X89461201Y-112610960D01*
X89461201Y-113138000D01*
X89331461Y-113138000D01*
X89131502Y-113177774D01*
X88943144Y-113255795D01*
X88773626Y-113369063D01*
X88629463Y-113513226D01*
X88516195Y-113682744D01*
X88438174Y-113871102D01*
X88398400Y-114071061D01*
X88398400Y-114274939D01*
X88438174Y-114474898D01*
X88516195Y-114663256D01*
X88629463Y-114832774D01*
X88773626Y-114976937D01*
X88943144Y-115090205D01*
X89131502Y-115168226D01*
X89331461Y-115208000D01*
X89461201Y-115208000D01*
X89461200Y-116440689D01*
X89442263Y-116459626D01*
X89328995Y-116629144D01*
X89250974Y-116817502D01*
X89211200Y-117017461D01*
X89211200Y-117221339D01*
X89250974Y-117421298D01*
X89328995Y-117609656D01*
X89442263Y-117779174D01*
X89461200Y-117798111D01*
X89461200Y-117811823D01*
X89405098Y-117788584D01*
X89205139Y-117748810D01*
X89001261Y-117748810D01*
X88801302Y-117788584D01*
X88612944Y-117866605D01*
X88443426Y-117979873D01*
X88424489Y-117998810D01*
X86723968Y-117998810D01*
X82929147Y-114203990D01*
X82904564Y-114174036D01*
X82785033Y-114075938D01*
X82648660Y-114003046D01*
X82500687Y-113958159D01*
X82385361Y-113946800D01*
X82385353Y-113946800D01*
X82346800Y-113943003D01*
X82308247Y-113946800D01*
X79901311Y-113946800D01*
X79882374Y-113927863D01*
X79712856Y-113814595D01*
X79524498Y-113736574D01*
X79324539Y-113696800D01*
X79120661Y-113696800D01*
X78920702Y-113736574D01*
X78915400Y-113738770D01*
X78915400Y-113154831D01*
X78922844Y-113159805D01*
X79111202Y-113237826D01*
X79311161Y-113277600D01*
X79515039Y-113277600D01*
X79714998Y-113237826D01*
X79903356Y-113159805D01*
X80072874Y-113046537D01*
X80217037Y-112902374D01*
X80330305Y-112732856D01*
X80408326Y-112544498D01*
X80448100Y-112344539D01*
X80448100Y-112140661D01*
X80408326Y-111940702D01*
X80330305Y-111752344D01*
X80217037Y-111582826D01*
X80072874Y-111438663D01*
X79903356Y-111325395D01*
X79714998Y-111247374D01*
X79515039Y-111207600D01*
X79311161Y-111207600D01*
X79111202Y-111247374D01*
X78922844Y-111325395D01*
X78915400Y-111330369D01*
X78915400Y-108854557D01*
X80727600Y-110666758D01*
X80727600Y-110693539D01*
X80767374Y-110893498D01*
X80845395Y-111081856D01*
X80958663Y-111251374D01*
X81102826Y-111395537D01*
X81272344Y-111508805D01*
X81460702Y-111586826D01*
X81660661Y-111626600D01*
X81864539Y-111626600D01*
X82064498Y-111586826D01*
X82252856Y-111508805D01*
X82422374Y-111395537D01*
X82566537Y-111251374D01*
X82679805Y-111081856D01*
X82757826Y-110893498D01*
X82797600Y-110693539D01*
X82797600Y-110489661D01*
X82757826Y-110289702D01*
X82679805Y-110101344D01*
X82566537Y-109931826D01*
X82422374Y-109787663D01*
X82252856Y-109674395D01*
X82064498Y-109596374D01*
X81864539Y-109556600D01*
X81837758Y-109556600D01*
X80363413Y-108082256D01*
X80384600Y-107975739D01*
X80384600Y-107771861D01*
X80344826Y-107571902D01*
X80266805Y-107383544D01*
X80153537Y-107214026D01*
X80009374Y-107069863D01*
X79839856Y-106956595D01*
X79651498Y-106878574D01*
X79451539Y-106838800D01*
X79247661Y-106838800D01*
X79047702Y-106878574D01*
X78915400Y-106933376D01*
X78915400Y-78556841D01*
X78919197Y-78518285D01*
X78915400Y-78479729D01*
X78915400Y-78479724D01*
X78908641Y-78411097D01*
X78904042Y-78364398D01*
X78859154Y-78216425D01*
X78786262Y-78080052D01*
X78688164Y-77960521D01*
X78658210Y-77935938D01*
X78447027Y-77724755D01*
X78490626Y-77619498D01*
X78530400Y-77419539D01*
X78530400Y-77215661D01*
X78490626Y-77015702D01*
X78412605Y-76827344D01*
X78299337Y-76657826D01*
X78155174Y-76513663D01*
X77985656Y-76400395D01*
X77797298Y-76322374D01*
X77597339Y-76282600D01*
X77393461Y-76282600D01*
X77193502Y-76322374D01*
X77005144Y-76400395D01*
X76835626Y-76513663D01*
X76691463Y-76657826D01*
X76578195Y-76827344D01*
X76500174Y-77015702D01*
X76460400Y-77215661D01*
X76460400Y-77419539D01*
X76500174Y-77619498D01*
X76578195Y-77807856D01*
X76691463Y-77977374D01*
X76718536Y-78004447D01*
X76721759Y-78037171D01*
X76766646Y-78185144D01*
X76839538Y-78321517D01*
X76937636Y-78441049D01*
X76967590Y-78465632D01*
X77345401Y-78843443D01*
X77345401Y-82382044D01*
X76041038Y-81077681D01*
X76220356Y-81003405D01*
X76389874Y-80890137D01*
X76534037Y-80745974D01*
X76647305Y-80576456D01*
X76725326Y-80388098D01*
X76765100Y-80188139D01*
X76765100Y-79984261D01*
X76725326Y-79784302D01*
X76647305Y-79595944D01*
X76534037Y-79426426D01*
X76389874Y-79282263D01*
X76220356Y-79168995D01*
X76031998Y-79090974D01*
X75832039Y-79051200D01*
X75628161Y-79051200D01*
X75428202Y-79090974D01*
X75239844Y-79168995D01*
X75070326Y-79282263D01*
X74926163Y-79426426D01*
X74812895Y-79595944D01*
X74738619Y-79775262D01*
X73378200Y-78414843D01*
X73378200Y-73024661D01*
X76409600Y-73024661D01*
X76409600Y-73228539D01*
X76449374Y-73428498D01*
X76527395Y-73616856D01*
X76640663Y-73786374D01*
X76784826Y-73930537D01*
X76954344Y-74043805D01*
X77142702Y-74121826D01*
X77342661Y-74161600D01*
X77546539Y-74161600D01*
X77746498Y-74121826D01*
X77934856Y-74043805D01*
X78104374Y-73930537D01*
X78248537Y-73786374D01*
X78361805Y-73616856D01*
X78439826Y-73428498D01*
X78479600Y-73228539D01*
X78479600Y-73024661D01*
X78439826Y-72824702D01*
X78361805Y-72636344D01*
X78346484Y-72613413D01*
X93066500Y-72613413D01*
X93066500Y-72869787D01*
X93116516Y-73121233D01*
X93214626Y-73358091D01*
X93357059Y-73571258D01*
X93538342Y-73752541D01*
X93751509Y-73894974D01*
X93988367Y-73993084D01*
X94239813Y-74043100D01*
X94496187Y-74043100D01*
X94747633Y-73993084D01*
X94984491Y-73894974D01*
X95197658Y-73752541D01*
X95378941Y-73571258D01*
X95521374Y-73358091D01*
X95619484Y-73121233D01*
X95669500Y-72869787D01*
X95669500Y-72613413D01*
X95619484Y-72361967D01*
X95521374Y-72125109D01*
X95378941Y-71911942D01*
X95197658Y-71730659D01*
X94984491Y-71588226D01*
X94747633Y-71490116D01*
X94496187Y-71440100D01*
X94239813Y-71440100D01*
X93988367Y-71490116D01*
X93751509Y-71588226D01*
X93538342Y-71730659D01*
X93357059Y-71911942D01*
X93214626Y-72125109D01*
X93116516Y-72361967D01*
X93066500Y-72613413D01*
X78346484Y-72613413D01*
X78248537Y-72466826D01*
X78104374Y-72322663D01*
X77934856Y-72209395D01*
X77746498Y-72131374D01*
X77546539Y-72091600D01*
X77342661Y-72091600D01*
X77142702Y-72131374D01*
X76954344Y-72209395D01*
X76784826Y-72322663D01*
X76640663Y-72466826D01*
X76527395Y-72636344D01*
X76449374Y-72824702D01*
X76409600Y-73024661D01*
X73378200Y-73024661D01*
X73378200Y-69537401D01*
X112011804Y-69537401D01*
X112118129Y-69810748D01*
X112422658Y-69960378D01*
X112750525Y-70047722D01*
X113089134Y-70069424D01*
X113425470Y-70024649D01*
X113746607Y-69915119D01*
X113941871Y-69810748D01*
X114048196Y-69537401D01*
X113030000Y-68519205D01*
X112011804Y-69537401D01*
X73378200Y-69537401D01*
X73378200Y-68852311D01*
X73397137Y-68833374D01*
X73510405Y-68663856D01*
X73588426Y-68475498D01*
X73603695Y-68398734D01*
X111300176Y-68398734D01*
X111344951Y-68735070D01*
X111454481Y-69056207D01*
X111558852Y-69251471D01*
X111832199Y-69357796D01*
X112850395Y-68339600D01*
X113209605Y-68339600D01*
X114227801Y-69357796D01*
X114501148Y-69251471D01*
X114650778Y-68946942D01*
X114738122Y-68619075D01*
X114759824Y-68280466D01*
X114715049Y-67944130D01*
X114605519Y-67622993D01*
X114501148Y-67427729D01*
X114227801Y-67321404D01*
X113209605Y-68339600D01*
X112850395Y-68339600D01*
X111832199Y-67321404D01*
X111558852Y-67427729D01*
X111409222Y-67732258D01*
X111321878Y-68060125D01*
X111300176Y-68398734D01*
X73603695Y-68398734D01*
X73628200Y-68275539D01*
X73628200Y-68071661D01*
X73588426Y-67871702D01*
X73510405Y-67683344D01*
X73397137Y-67513826D01*
X73252974Y-67369663D01*
X73083456Y-67256395D01*
X72895098Y-67178374D01*
X72695139Y-67138600D01*
X72491261Y-67138600D01*
X72291302Y-67178374D01*
X72102944Y-67256395D01*
X71933426Y-67369663D01*
X71789263Y-67513826D01*
X71675995Y-67683344D01*
X71645795Y-67756253D01*
X71628000Y-67754500D01*
X69278500Y-67754500D01*
X69278500Y-66103500D01*
X69266299Y-65979618D01*
X69230164Y-65860496D01*
X69171483Y-65750713D01*
X69092513Y-65654487D01*
X68996287Y-65575517D01*
X68886504Y-65516836D01*
X68767382Y-65480701D01*
X68643500Y-65468500D01*
X64770000Y-65468500D01*
X64770000Y-53843645D01*
X65032500Y-53843645D01*
X65032500Y-54156355D01*
X65093507Y-54463057D01*
X65213176Y-54751963D01*
X65386908Y-55011972D01*
X65608028Y-55233092D01*
X65868037Y-55406824D01*
X66156943Y-55526493D01*
X66463645Y-55587500D01*
X66776355Y-55587500D01*
X67083057Y-55526493D01*
X67371963Y-55406824D01*
X67631972Y-55233092D01*
X67853092Y-55011972D01*
X68026824Y-54751963D01*
X68146493Y-54463057D01*
X68207500Y-54156355D01*
X68207500Y-53843645D01*
X68532500Y-53843645D01*
X68532500Y-54156355D01*
X68593507Y-54463057D01*
X68713176Y-54751963D01*
X68886908Y-55011972D01*
X69108028Y-55233092D01*
X69368037Y-55406824D01*
X69656943Y-55526493D01*
X69963645Y-55587500D01*
X70276355Y-55587500D01*
X70583057Y-55526493D01*
X70871963Y-55406824D01*
X71131972Y-55233092D01*
X71353092Y-55011972D01*
X71526824Y-54751963D01*
X71646493Y-54463057D01*
X71707500Y-54156355D01*
X71707500Y-53843645D01*
X71646493Y-53536943D01*
X71526824Y-53248037D01*
X71353092Y-52988028D01*
X71131972Y-52766908D01*
X70871963Y-52593176D01*
X70583057Y-52473507D01*
X70276355Y-52412500D01*
X69963645Y-52412500D01*
X69656943Y-52473507D01*
X69368037Y-52593176D01*
X69108028Y-52766908D01*
X68886908Y-52988028D01*
X68713176Y-53248037D01*
X68593507Y-53536943D01*
X68532500Y-53843645D01*
X68207500Y-53843645D01*
X68146493Y-53536943D01*
X68026824Y-53248037D01*
X67853092Y-52988028D01*
X67631972Y-52766908D01*
X67371963Y-52593176D01*
X67083057Y-52473507D01*
X66776355Y-52412500D01*
X66463645Y-52412500D01*
X66156943Y-52473507D01*
X65868037Y-52593176D01*
X65608028Y-52766908D01*
X65386908Y-52988028D01*
X65213176Y-53248037D01*
X65093507Y-53536943D01*
X65032500Y-53843645D01*
X64770000Y-53843645D01*
X64770000Y-49843645D01*
X65032500Y-49843645D01*
X65032500Y-50156355D01*
X65093507Y-50463057D01*
X65213176Y-50751963D01*
X65386908Y-51011972D01*
X65608028Y-51233092D01*
X65868037Y-51406824D01*
X66156943Y-51526493D01*
X66463645Y-51587500D01*
X66776355Y-51587500D01*
X67083057Y-51526493D01*
X67371963Y-51406824D01*
X67631972Y-51233092D01*
X67853092Y-51011972D01*
X68026824Y-50751963D01*
X68146493Y-50463057D01*
X68207500Y-50156355D01*
X68207500Y-49843645D01*
X68532500Y-49843645D01*
X68532500Y-50156355D01*
X68593507Y-50463057D01*
X68713176Y-50751963D01*
X68886908Y-51011972D01*
X69108028Y-51233092D01*
X69368037Y-51406824D01*
X69656943Y-51526493D01*
X69963645Y-51587500D01*
X70276355Y-51587500D01*
X70583057Y-51526493D01*
X70871963Y-51406824D01*
X71131972Y-51233092D01*
X71353092Y-51011972D01*
X71526824Y-50751963D01*
X71646493Y-50463057D01*
X71707500Y-50156355D01*
X71707500Y-49843645D01*
X71646493Y-49536943D01*
X71526824Y-49248037D01*
X71353092Y-48988028D01*
X71131972Y-48766908D01*
X70871963Y-48593176D01*
X70583057Y-48473507D01*
X70276355Y-48412500D01*
X69963645Y-48412500D01*
X69656943Y-48473507D01*
X69368037Y-48593176D01*
X69108028Y-48766908D01*
X68886908Y-48988028D01*
X68713176Y-49248037D01*
X68593507Y-49536943D01*
X68532500Y-49843645D01*
X68207500Y-49843645D01*
X68146493Y-49536943D01*
X68026824Y-49248037D01*
X67853092Y-48988028D01*
X67631972Y-48766908D01*
X67371963Y-48593176D01*
X67083057Y-48473507D01*
X66776355Y-48412500D01*
X66463645Y-48412500D01*
X66156943Y-48473507D01*
X65868037Y-48593176D01*
X65608028Y-48766908D01*
X65386908Y-48988028D01*
X65213176Y-49248037D01*
X65093507Y-49536943D01*
X65032500Y-49843645D01*
X64770000Y-49843645D01*
X64770000Y-47879000D01*
X74930000Y-47879000D01*
X74930000Y-49103129D01*
G36*
X107138163Y-116537600D02*
G01*
X103416938Y-116537600D01*
X103422400Y-116510139D01*
X103422400Y-116306261D01*
X103421990Y-116304200D01*
X107371563Y-116304200D01*
X107138163Y-116537600D01*
G37*
X107138163Y-116537600D02*
X103416938Y-116537600D01*
X103422400Y-116510139D01*
X103422400Y-116306261D01*
X103421990Y-116304200D01*
X107371563Y-116304200D01*
X107138163Y-116537600D01*
G36*
X109470799Y-94638274D02*
G01*
X109418900Y-94899187D01*
X109418900Y-95165213D01*
X109470799Y-95426126D01*
X109572603Y-95671901D01*
X109720399Y-95893093D01*
X109908507Y-96081201D01*
X109984401Y-96131912D01*
X109984400Y-112984242D01*
X108234443Y-114734200D01*
X101793357Y-114734200D01*
X102842171Y-113685386D01*
X102860274Y-113776398D01*
X102938295Y-113964756D01*
X103051563Y-114134274D01*
X103195726Y-114278437D01*
X103365244Y-114391705D01*
X103553602Y-114469726D01*
X103753561Y-114509500D01*
X103957439Y-114509500D01*
X104157398Y-114469726D01*
X104345756Y-114391705D01*
X104515274Y-114278437D01*
X104659437Y-114134274D01*
X104772705Y-113964756D01*
X104850726Y-113776398D01*
X104890500Y-113576439D01*
X104890500Y-113514302D01*
X105082804Y-113321998D01*
X105111801Y-113298201D01*
X105206774Y-113182476D01*
X105277346Y-113050447D01*
X105320803Y-112907186D01*
X105331800Y-112795533D01*
X105331800Y-112795524D01*
X105335476Y-112758201D01*
X105331800Y-112720878D01*
X105331800Y-108864061D01*
X107270600Y-108864061D01*
X107270600Y-109067939D01*
X107310374Y-109267898D01*
X107388395Y-109456256D01*
X107501663Y-109625774D01*
X107645826Y-109769937D01*
X107815344Y-109883205D01*
X108003702Y-109961226D01*
X108203661Y-110001000D01*
X108407539Y-110001000D01*
X108607498Y-109961226D01*
X108795856Y-109883205D01*
X108965374Y-109769937D01*
X109109537Y-109625774D01*
X109222805Y-109456256D01*
X109300826Y-109267898D01*
X109340600Y-109067939D01*
X109340600Y-108864061D01*
X109300826Y-108664102D01*
X109222805Y-108475744D01*
X109109537Y-108306226D01*
X108965374Y-108162063D01*
X108795856Y-108048795D01*
X108607498Y-107970774D01*
X108407539Y-107931000D01*
X108203661Y-107931000D01*
X108003702Y-107970774D01*
X107815344Y-108048795D01*
X107645826Y-108162063D01*
X107501663Y-108306226D01*
X107388395Y-108475744D01*
X107310374Y-108664102D01*
X107270600Y-108864061D01*
X105331800Y-108864061D01*
X105331800Y-107225322D01*
X105335476Y-107187999D01*
X105331800Y-107150677D01*
X105331800Y-107150667D01*
X105320803Y-107039014D01*
X105277346Y-106895753D01*
X105272187Y-106886102D01*
X105206774Y-106763723D01*
X105135599Y-106676997D01*
X105111801Y-106647999D01*
X105082803Y-106624201D01*
X104565400Y-106106799D01*
X104565400Y-106044661D01*
X104525626Y-105844702D01*
X104447605Y-105656344D01*
X104334337Y-105486826D01*
X104190174Y-105342663D01*
X104020656Y-105229395D01*
X103832298Y-105151374D01*
X103632339Y-105111600D01*
X103428461Y-105111600D01*
X103324800Y-105132219D01*
X103324800Y-99918557D01*
X108630757Y-94612600D01*
X109481434Y-94612600D01*
X109470799Y-94638274D01*
G37*
X109470799Y-94638274D02*
X109418900Y-94899187D01*
X109418900Y-95165213D01*
X109470799Y-95426126D01*
X109572603Y-95671901D01*
X109720399Y-95893093D01*
X109908507Y-96081201D01*
X109984401Y-96131912D01*
X109984400Y-112984242D01*
X108234443Y-114734200D01*
X101793357Y-114734200D01*
X102842171Y-113685386D01*
X102860274Y-113776398D01*
X102938295Y-113964756D01*
X103051563Y-114134274D01*
X103195726Y-114278437D01*
X103365244Y-114391705D01*
X103553602Y-114469726D01*
X103753561Y-114509500D01*
X103957439Y-114509500D01*
X104157398Y-114469726D01*
X104345756Y-114391705D01*
X104515274Y-114278437D01*
X104659437Y-114134274D01*
X104772705Y-113964756D01*
X104850726Y-113776398D01*
X104890500Y-113576439D01*
X104890500Y-113514302D01*
X105082804Y-113321998D01*
X105111801Y-113298201D01*
X105206774Y-113182476D01*
X105277346Y-113050447D01*
X105320803Y-112907186D01*
X105331800Y-112795533D01*
X105331800Y-112795524D01*
X105335476Y-112758201D01*
X105331800Y-112720878D01*
X105331800Y-108864061D01*
X107270600Y-108864061D01*
X107270600Y-109067939D01*
X107310374Y-109267898D01*
X107388395Y-109456256D01*
X107501663Y-109625774D01*
X107645826Y-109769937D01*
X107815344Y-109883205D01*
X108003702Y-109961226D01*
X108203661Y-110001000D01*
X108407539Y-110001000D01*
X108607498Y-109961226D01*
X108795856Y-109883205D01*
X108965374Y-109769937D01*
X109109537Y-109625774D01*
X109222805Y-109456256D01*
X109300826Y-109267898D01*
X109340600Y-109067939D01*
X109340600Y-108864061D01*
X109300826Y-108664102D01*
X109222805Y-108475744D01*
X109109537Y-108306226D01*
X108965374Y-108162063D01*
X108795856Y-108048795D01*
X108607498Y-107970774D01*
X108407539Y-107931000D01*
X108203661Y-107931000D01*
X108003702Y-107970774D01*
X107815344Y-108048795D01*
X107645826Y-108162063D01*
X107501663Y-108306226D01*
X107388395Y-108475744D01*
X107310374Y-108664102D01*
X107270600Y-108864061D01*
X105331800Y-108864061D01*
X105331800Y-107225322D01*
X105335476Y-107187999D01*
X105331800Y-107150677D01*
X105331800Y-107150667D01*
X105320803Y-107039014D01*
X105277346Y-106895753D01*
X105272187Y-106886102D01*
X105206774Y-106763723D01*
X105135599Y-106676997D01*
X105111801Y-106647999D01*
X105082803Y-106624201D01*
X104565400Y-106106799D01*
X104565400Y-106044661D01*
X104525626Y-105844702D01*
X104447605Y-105656344D01*
X104334337Y-105486826D01*
X104190174Y-105342663D01*
X104020656Y-105229395D01*
X103832298Y-105151374D01*
X103632339Y-105111600D01*
X103428461Y-105111600D01*
X103324800Y-105132219D01*
X103324800Y-99918557D01*
X108630757Y-94612600D01*
X109481434Y-94612600D01*
X109470799Y-94638274D01*
G36*
X103428461Y-107181600D02*
G01*
X103490599Y-107181600D01*
X103811801Y-107502803D01*
X103811800Y-112439500D01*
X103753561Y-112439500D01*
X103553602Y-112479274D01*
X103365244Y-112557295D01*
X103324800Y-112584319D01*
X103324800Y-107160981D01*
X103428461Y-107181600D01*
G37*
X103428461Y-107181600D02*
X103490599Y-107181600D01*
X103811801Y-107502803D01*
X103811800Y-112439500D01*
X103753561Y-112439500D01*
X103553602Y-112479274D01*
X103365244Y-112557295D01*
X103324800Y-112584319D01*
X103324800Y-107160981D01*
X103428461Y-107181600D01*
G36*
X100485302Y-108183226D02*
G01*
X100685261Y-108223000D01*
X100712043Y-108223000D01*
X100891200Y-108402157D01*
X100891201Y-111481562D01*
X100480000Y-111892763D01*
X100480000Y-108181030D01*
X100485302Y-108183226D01*
G37*
X100485302Y-108183226D02*
X100685261Y-108223000D01*
X100712043Y-108223000D01*
X100891200Y-108402157D01*
X100891201Y-111481562D01*
X100480000Y-111892763D01*
X100480000Y-108181030D01*
X100485302Y-108183226D01*
G36*
X116207401Y-89463842D02*
G01*
X115879843Y-89791400D01*
X114695977Y-89791400D01*
X114768540Y-89752614D01*
X114951611Y-89414016D01*
X113479400Y-87941805D01*
X112007189Y-89414016D01*
X112190260Y-89752614D01*
X112399266Y-89860514D01*
X112286967Y-89920538D01*
X112167436Y-90018636D01*
X112142855Y-90048588D01*
X110991936Y-91199507D01*
X110902413Y-91181700D01*
X110636387Y-91181700D01*
X110375474Y-91233599D01*
X110129699Y-91335403D01*
X109908507Y-91483199D01*
X109720399Y-91671307D01*
X109572603Y-91892499D01*
X109470799Y-92138274D01*
X109418900Y-92399187D01*
X109418900Y-92665213D01*
X109470799Y-92926126D01*
X109519044Y-93042600D01*
X108344156Y-93042600D01*
X108305600Y-93038803D01*
X108267044Y-93042600D01*
X108267039Y-93042600D01*
X108226626Y-93046580D01*
X108151713Y-93053958D01*
X108003740Y-93098846D01*
X107867367Y-93171738D01*
X107747836Y-93269836D01*
X107723253Y-93299790D01*
X102011985Y-99011058D01*
X101982037Y-99035636D01*
X101957459Y-99065584D01*
X101957455Y-99065588D01*
X101924490Y-99105756D01*
X101883939Y-99155167D01*
X101871118Y-99179154D01*
X101811046Y-99291541D01*
X101766159Y-99439514D01*
X101751003Y-99593400D01*
X101754801Y-99631963D01*
X101754800Y-106819409D01*
X101704405Y-106697744D01*
X101591137Y-106528226D01*
X101446974Y-106384063D01*
X101277456Y-106270795D01*
X101089098Y-106192774D01*
X100889139Y-106153000D01*
X100685261Y-106153000D01*
X100485302Y-106192774D01*
X100480000Y-106194970D01*
X100480000Y-98775557D01*
X111143868Y-88111689D01*
X111160404Y-88258075D01*
X111301703Y-88700961D01*
X111488986Y-89051340D01*
X111827584Y-89234411D01*
X113299795Y-87762200D01*
X113659005Y-87762200D01*
X115131216Y-89234411D01*
X115469814Y-89051340D01*
X115683068Y-88638259D01*
X115811635Y-88191512D01*
X115850577Y-87728267D01*
X115798396Y-87266325D01*
X115657097Y-86823439D01*
X115469814Y-86473060D01*
X115131216Y-86289989D01*
X113659005Y-87762200D01*
X113299795Y-87762200D01*
X113285653Y-87748058D01*
X113465258Y-87568453D01*
X113479400Y-87582595D01*
X114951611Y-86110384D01*
X114768540Y-85771786D01*
X114355459Y-85558532D01*
X113908712Y-85429965D01*
X113832038Y-85423519D01*
X115404655Y-83850902D01*
X115433202Y-83862726D01*
X115633161Y-83902500D01*
X115837039Y-83902500D01*
X116036998Y-83862726D01*
X116207401Y-83792142D01*
X116207401Y-89463842D01*
G37*
X116207401Y-89463842D02*
X115879843Y-89791400D01*
X114695977Y-89791400D01*
X114768540Y-89752614D01*
X114951611Y-89414016D01*
X113479400Y-87941805D01*
X112007189Y-89414016D01*
X112190260Y-89752614D01*
X112399266Y-89860514D01*
X112286967Y-89920538D01*
X112167436Y-90018636D01*
X112142855Y-90048588D01*
X110991936Y-91199507D01*
X110902413Y-91181700D01*
X110636387Y-91181700D01*
X110375474Y-91233599D01*
X110129699Y-91335403D01*
X109908507Y-91483199D01*
X109720399Y-91671307D01*
X109572603Y-91892499D01*
X109470799Y-92138274D01*
X109418900Y-92399187D01*
X109418900Y-92665213D01*
X109470799Y-92926126D01*
X109519044Y-93042600D01*
X108344156Y-93042600D01*
X108305600Y-93038803D01*
X108267044Y-93042600D01*
X108267039Y-93042600D01*
X108226626Y-93046580D01*
X108151713Y-93053958D01*
X108003740Y-93098846D01*
X107867367Y-93171738D01*
X107747836Y-93269836D01*
X107723253Y-93299790D01*
X102011985Y-99011058D01*
X101982037Y-99035636D01*
X101957459Y-99065584D01*
X101957455Y-99065588D01*
X101924490Y-99105756D01*
X101883939Y-99155167D01*
X101871118Y-99179154D01*
X101811046Y-99291541D01*
X101766159Y-99439514D01*
X101751003Y-99593400D01*
X101754801Y-99631963D01*
X101754800Y-106819409D01*
X101704405Y-106697744D01*
X101591137Y-106528226D01*
X101446974Y-106384063D01*
X101277456Y-106270795D01*
X101089098Y-106192774D01*
X100889139Y-106153000D01*
X100685261Y-106153000D01*
X100485302Y-106192774D01*
X100480000Y-106194970D01*
X100480000Y-98775557D01*
X111143868Y-88111689D01*
X111160404Y-88258075D01*
X111301703Y-88700961D01*
X111488986Y-89051340D01*
X111827584Y-89234411D01*
X113299795Y-87762200D01*
X113659005Y-87762200D01*
X115131216Y-89234411D01*
X115469814Y-89051340D01*
X115683068Y-88638259D01*
X115811635Y-88191512D01*
X115850577Y-87728267D01*
X115798396Y-87266325D01*
X115657097Y-86823439D01*
X115469814Y-86473060D01*
X115131216Y-86289989D01*
X113659005Y-87762200D01*
X113299795Y-87762200D01*
X113285653Y-87748058D01*
X113465258Y-87568453D01*
X113479400Y-87582595D01*
X114951611Y-86110384D01*
X114768540Y-85771786D01*
X114355459Y-85558532D01*
X113908712Y-85429965D01*
X113832038Y-85423519D01*
X115404655Y-83850902D01*
X115433202Y-83862726D01*
X115633161Y-83902500D01*
X115837039Y-83902500D01*
X116036998Y-83862726D01*
X116207401Y-83792142D01*
X116207401Y-89463842D01*
G36*
X115319450Y-92571993D02*
G01*
X115324422Y-92458341D01*
X115283977Y-92195408D01*
X115193012Y-91945418D01*
X115137094Y-91840802D01*
X114901745Y-91779460D01*
X114149005Y-92532200D01*
X114163148Y-92546343D01*
X113983543Y-92725948D01*
X113969400Y-92711805D01*
X113955258Y-92725948D01*
X113775653Y-92546343D01*
X113789795Y-92532200D01*
X113037055Y-91779460D01*
X112801706Y-91840802D01*
X112689257Y-92081892D01*
X112626005Y-92340288D01*
X112614378Y-92606059D01*
X112654823Y-92868992D01*
X112717995Y-93042600D01*
X112019756Y-93042600D01*
X112068001Y-92926126D01*
X112119900Y-92665213D01*
X112119900Y-92399187D01*
X112102093Y-92309664D01*
X113050357Y-91361400D01*
X113283813Y-91361400D01*
X113278002Y-91364506D01*
X113216660Y-91599855D01*
X113969400Y-92352595D01*
X114722140Y-91599855D01*
X114660798Y-91364506D01*
X114654139Y-91361400D01*
X116166447Y-91361400D01*
X116205000Y-91365197D01*
X116243553Y-91361400D01*
X116243561Y-91361400D01*
X116358887Y-91350041D01*
X116506860Y-91305154D01*
X116643233Y-91232262D01*
X116732170Y-91159272D01*
X115319450Y-92571993D01*
G37*
X115319450Y-92571993D02*
X115324422Y-92458341D01*
X115283977Y-92195408D01*
X115193012Y-91945418D01*
X115137094Y-91840802D01*
X114901745Y-91779460D01*
X114149005Y-92532200D01*
X114163148Y-92546343D01*
X113983543Y-92725948D01*
X113969400Y-92711805D01*
X113955258Y-92725948D01*
X113775653Y-92546343D01*
X113789795Y-92532200D01*
X113037055Y-91779460D01*
X112801706Y-91840802D01*
X112689257Y-92081892D01*
X112626005Y-92340288D01*
X112614378Y-92606059D01*
X112654823Y-92868992D01*
X112717995Y-93042600D01*
X112019756Y-93042600D01*
X112068001Y-92926126D01*
X112119900Y-92665213D01*
X112119900Y-92399187D01*
X112102093Y-92309664D01*
X113050357Y-91361400D01*
X113283813Y-91361400D01*
X113278002Y-91364506D01*
X113216660Y-91599855D01*
X113969400Y-92352595D01*
X114722140Y-91599855D01*
X114660798Y-91364506D01*
X114654139Y-91361400D01*
X116166447Y-91361400D01*
X116205000Y-91365197D01*
X116243553Y-91361400D01*
X116243561Y-91361400D01*
X116358887Y-91350041D01*
X116506860Y-91305154D01*
X116643233Y-91232262D01*
X116732170Y-91159272D01*
X115319450Y-92571993D01*
G36*
X104013000Y-56261000D02*
G01*
X104013788Y-56269000D01*
X84494132Y-56269000D01*
X83775939Y-55550807D01*
X83872286Y-55575829D01*
X84184474Y-55593877D01*
X84494185Y-55550672D01*
X84789516Y-55447877D01*
X84951902Y-55361081D01*
X85041930Y-55101535D01*
X84120000Y-54179605D01*
X84105858Y-54193748D01*
X83926253Y-54014143D01*
X83940395Y-54000000D01*
X84299605Y-54000000D01*
X85221535Y-54921930D01*
X85481081Y-54831902D01*
X85617224Y-54550384D01*
X85695829Y-54247714D01*
X85713877Y-53935526D01*
X85670672Y-53625815D01*
X85567877Y-53330484D01*
X85481081Y-53168098D01*
X85221535Y-53078070D01*
X84299605Y-54000000D01*
X83940395Y-54000000D01*
X83018465Y-53078070D01*
X82758919Y-53168098D01*
X82622776Y-53449616D01*
X82544171Y-53752286D01*
X82526123Y-54064474D01*
X82564466Y-54339335D01*
X82207500Y-53982369D01*
X82207500Y-53843645D01*
X82146493Y-53536943D01*
X82026824Y-53248037D01*
X81853092Y-52988028D01*
X81763529Y-52898465D01*
X83198070Y-52898465D01*
X84120000Y-53820395D01*
X85041930Y-52898465D01*
X84951902Y-52638919D01*
X84670384Y-52502776D01*
X84367714Y-52424171D01*
X84055526Y-52406123D01*
X83745815Y-52449328D01*
X83450484Y-52552123D01*
X83288098Y-52638919D01*
X83198070Y-52898465D01*
X81763529Y-52898465D01*
X81631972Y-52766908D01*
X81371963Y-52593176D01*
X81083057Y-52473507D01*
X80776355Y-52412500D01*
X80463645Y-52412500D01*
X80156943Y-52473507D01*
X79868037Y-52593176D01*
X79608028Y-52766908D01*
X79386908Y-52988028D01*
X79213176Y-53248037D01*
X79093507Y-53536943D01*
X79032500Y-53843645D01*
X79032500Y-54156355D01*
X79093507Y-54463057D01*
X79213176Y-54751963D01*
X79385200Y-55009416D01*
X79379890Y-55007805D01*
X79249877Y-54995000D01*
X79249869Y-54995000D01*
X79206400Y-54990719D01*
X79162931Y-54995000D01*
X78364432Y-54995000D01*
X78526824Y-54751963D01*
X78646493Y-54463057D01*
X78707500Y-54156355D01*
X78707500Y-53843645D01*
X78646493Y-53536943D01*
X78526824Y-53248037D01*
X78353092Y-52988028D01*
X78131972Y-52766908D01*
X77871963Y-52593176D01*
X77583057Y-52473507D01*
X77276355Y-52412500D01*
X76963645Y-52412500D01*
X76656943Y-52473507D01*
X76368037Y-52593176D01*
X76323000Y-52623269D01*
X76323000Y-52621465D01*
X76327281Y-52577999D01*
X76323000Y-52534533D01*
X76323000Y-52534523D01*
X76310195Y-52404510D01*
X76259589Y-52237687D01*
X76177411Y-52083941D01*
X76066817Y-51949183D01*
X76059283Y-51943000D01*
X82423000Y-51943000D01*
X82546882Y-51930799D01*
X82666004Y-51894664D01*
X82775787Y-51835983D01*
X82872013Y-51757013D01*
X82950983Y-51660787D01*
X83009664Y-51551004D01*
X83045799Y-51431882D01*
X83058000Y-51308000D01*
X83058000Y-51183064D01*
X83108028Y-51233092D01*
X83368037Y-51406824D01*
X83656943Y-51526493D01*
X83963645Y-51587500D01*
X84276355Y-51587500D01*
X84583057Y-51526493D01*
X84871963Y-51406824D01*
X85131972Y-51233092D01*
X85353092Y-51011972D01*
X85526824Y-50751963D01*
X85646493Y-50463057D01*
X85707500Y-50156355D01*
X85707500Y-49843645D01*
X85681346Y-49712159D01*
X97077500Y-49712159D01*
X97077500Y-50287841D01*
X97189810Y-50852462D01*
X97410114Y-51384323D01*
X97729946Y-51862985D01*
X98137015Y-52270054D01*
X98615677Y-52589886D01*
X99147538Y-52810190D01*
X99712159Y-52922500D01*
X100287841Y-52922500D01*
X100852462Y-52810190D01*
X101384323Y-52589886D01*
X101862985Y-52270054D01*
X102270054Y-51862985D01*
X102589886Y-51384323D01*
X102810190Y-50852462D01*
X102922500Y-50287841D01*
X102922500Y-49712159D01*
X102810190Y-49147538D01*
X102589886Y-48615677D01*
X102270054Y-48137015D01*
X101862985Y-47729946D01*
X101384323Y-47410114D01*
X100852462Y-47189810D01*
X100287841Y-47077500D01*
X99712159Y-47077500D01*
X99147538Y-47189810D01*
X98615677Y-47410114D01*
X98137015Y-47729946D01*
X97729946Y-48137015D01*
X97410114Y-48615677D01*
X97189810Y-49147538D01*
X97077500Y-49712159D01*
X85681346Y-49712159D01*
X85646493Y-49536943D01*
X85526824Y-49248037D01*
X85353092Y-48988028D01*
X85131972Y-48766908D01*
X84871963Y-48593176D01*
X84583057Y-48473507D01*
X84276355Y-48412500D01*
X83963645Y-48412500D01*
X83656943Y-48473507D01*
X83368037Y-48593176D01*
X83108028Y-48766908D01*
X83058000Y-48816936D01*
X83058000Y-42605000D01*
X104013000Y-42605000D01*
X104013000Y-56261000D01*
G37*
X104013000Y-56261000D02*
X104013788Y-56269000D01*
X84494132Y-56269000D01*
X83775939Y-55550807D01*
X83872286Y-55575829D01*
X84184474Y-55593877D01*
X84494185Y-55550672D01*
X84789516Y-55447877D01*
X84951902Y-55361081D01*
X85041930Y-55101535D01*
X84120000Y-54179605D01*
X84105858Y-54193748D01*
X83926253Y-54014143D01*
X83940395Y-54000000D01*
X84299605Y-54000000D01*
X85221535Y-54921930D01*
X85481081Y-54831902D01*
X85617224Y-54550384D01*
X85695829Y-54247714D01*
X85713877Y-53935526D01*
X85670672Y-53625815D01*
X85567877Y-53330484D01*
X85481081Y-53168098D01*
X85221535Y-53078070D01*
X84299605Y-54000000D01*
X83940395Y-54000000D01*
X83018465Y-53078070D01*
X82758919Y-53168098D01*
X82622776Y-53449616D01*
X82544171Y-53752286D01*
X82526123Y-54064474D01*
X82564466Y-54339335D01*
X82207500Y-53982369D01*
X82207500Y-53843645D01*
X82146493Y-53536943D01*
X82026824Y-53248037D01*
X81853092Y-52988028D01*
X81763529Y-52898465D01*
X83198070Y-52898465D01*
X84120000Y-53820395D01*
X85041930Y-52898465D01*
X84951902Y-52638919D01*
X84670384Y-52502776D01*
X84367714Y-52424171D01*
X84055526Y-52406123D01*
X83745815Y-52449328D01*
X83450484Y-52552123D01*
X83288098Y-52638919D01*
X83198070Y-52898465D01*
X81763529Y-52898465D01*
X81631972Y-52766908D01*
X81371963Y-52593176D01*
X81083057Y-52473507D01*
X80776355Y-52412500D01*
X80463645Y-52412500D01*
X80156943Y-52473507D01*
X79868037Y-52593176D01*
X79608028Y-52766908D01*
X79386908Y-52988028D01*
X79213176Y-53248037D01*
X79093507Y-53536943D01*
X79032500Y-53843645D01*
X79032500Y-54156355D01*
X79093507Y-54463057D01*
X79213176Y-54751963D01*
X79385200Y-55009416D01*
X79379890Y-55007805D01*
X79249877Y-54995000D01*
X79249869Y-54995000D01*
X79206400Y-54990719D01*
X79162931Y-54995000D01*
X78364432Y-54995000D01*
X78526824Y-54751963D01*
X78646493Y-54463057D01*
X78707500Y-54156355D01*
X78707500Y-53843645D01*
X78646493Y-53536943D01*
X78526824Y-53248037D01*
X78353092Y-52988028D01*
X78131972Y-52766908D01*
X77871963Y-52593176D01*
X77583057Y-52473507D01*
X77276355Y-52412500D01*
X76963645Y-52412500D01*
X76656943Y-52473507D01*
X76368037Y-52593176D01*
X76323000Y-52623269D01*
X76323000Y-52621465D01*
X76327281Y-52577999D01*
X76323000Y-52534533D01*
X76323000Y-52534523D01*
X76310195Y-52404510D01*
X76259589Y-52237687D01*
X76177411Y-52083941D01*
X76066817Y-51949183D01*
X76059283Y-51943000D01*
X82423000Y-51943000D01*
X82546882Y-51930799D01*
X82666004Y-51894664D01*
X82775787Y-51835983D01*
X82872013Y-51757013D01*
X82950983Y-51660787D01*
X83009664Y-51551004D01*
X83045799Y-51431882D01*
X83058000Y-51308000D01*
X83058000Y-51183064D01*
X83108028Y-51233092D01*
X83368037Y-51406824D01*
X83656943Y-51526493D01*
X83963645Y-51587500D01*
X84276355Y-51587500D01*
X84583057Y-51526493D01*
X84871963Y-51406824D01*
X85131972Y-51233092D01*
X85353092Y-51011972D01*
X85526824Y-50751963D01*
X85646493Y-50463057D01*
X85707500Y-50156355D01*
X85707500Y-49843645D01*
X85681346Y-49712159D01*
X97077500Y-49712159D01*
X97077500Y-50287841D01*
X97189810Y-50852462D01*
X97410114Y-51384323D01*
X97729946Y-51862985D01*
X98137015Y-52270054D01*
X98615677Y-52589886D01*
X99147538Y-52810190D01*
X99712159Y-52922500D01*
X100287841Y-52922500D01*
X100852462Y-52810190D01*
X101384323Y-52589886D01*
X101862985Y-52270054D01*
X102270054Y-51862985D01*
X102589886Y-51384323D01*
X102810190Y-50852462D01*
X102922500Y-50287841D01*
X102922500Y-49712159D01*
X102810190Y-49147538D01*
X102589886Y-48615677D01*
X102270054Y-48137015D01*
X101862985Y-47729946D01*
X101384323Y-47410114D01*
X100852462Y-47189810D01*
X100287841Y-47077500D01*
X99712159Y-47077500D01*
X99147538Y-47189810D01*
X98615677Y-47410114D01*
X98137015Y-47729946D01*
X97729946Y-48137015D01*
X97410114Y-48615677D01*
X97189810Y-49147538D01*
X97077500Y-49712159D01*
X85681346Y-49712159D01*
X85646493Y-49536943D01*
X85526824Y-49248037D01*
X85353092Y-48988028D01*
X85131972Y-48766908D01*
X84871963Y-48593176D01*
X84583057Y-48473507D01*
X84276355Y-48412500D01*
X83963645Y-48412500D01*
X83656943Y-48473507D01*
X83368037Y-48593176D01*
X83108028Y-48766908D01*
X83058000Y-48816936D01*
X83058000Y-42605000D01*
X104013000Y-42605000D01*
X104013000Y-56261000D01*
G04 #@! TO.N,GND_CAN1*
G36*
X82296000Y-51181000D02*
G01*
X81684064Y-51181000D01*
X81853092Y-51011972D01*
X82026824Y-50751963D01*
X82146493Y-50463057D01*
X82207500Y-50156355D01*
X82207500Y-49843645D01*
X82146493Y-49536943D01*
X82026824Y-49248037D01*
X81853092Y-48988028D01*
X81631972Y-48766908D01*
X81371963Y-48593176D01*
X81083057Y-48473507D01*
X80776355Y-48412500D01*
X80463645Y-48412500D01*
X80156943Y-48473507D01*
X79868037Y-48593176D01*
X79608028Y-48766908D01*
X79386908Y-48988028D01*
X79213176Y-49248037D01*
X79093507Y-49536943D01*
X79032500Y-49843645D01*
X79032500Y-50156355D01*
X79093507Y-50463057D01*
X79213176Y-50751963D01*
X79386908Y-51011972D01*
X79555936Y-51181000D01*
X78184064Y-51181000D01*
X78353092Y-51011972D01*
X78526824Y-50751963D01*
X78646493Y-50463057D01*
X78707500Y-50156355D01*
X78707500Y-49843645D01*
X78646493Y-49536943D01*
X78526824Y-49248037D01*
X78353092Y-48988028D01*
X78131972Y-48766908D01*
X77871963Y-48593176D01*
X77583057Y-48473507D01*
X77276355Y-48412500D01*
X76963645Y-48412500D01*
X76656943Y-48473507D01*
X76368037Y-48593176D01*
X76108028Y-48766908D01*
X75886908Y-48988028D01*
X75713176Y-49248037D01*
X75692000Y-49299160D01*
X75692000Y-47244000D01*
X75689560Y-47219224D01*
X75682333Y-47195399D01*
X75670597Y-47173443D01*
X75654803Y-47154197D01*
X75635557Y-47138403D01*
X75613601Y-47126667D01*
X75589776Y-47119440D01*
X75565000Y-47117000D01*
X64135000Y-47117000D01*
X64110224Y-47119440D01*
X64086399Y-47126667D01*
X64064443Y-47138403D01*
X64045197Y-47154197D01*
X64029403Y-47173443D01*
X64017667Y-47195399D01*
X64010440Y-47219224D01*
X64008000Y-47244000D01*
X64008000Y-66103500D01*
X64010440Y-66128276D01*
X64017667Y-66152101D01*
X64029403Y-66174057D01*
X64045197Y-66193303D01*
X64064443Y-66209097D01*
X64086399Y-66220833D01*
X64110224Y-66228060D01*
X64135000Y-66230500D01*
X68516500Y-66230500D01*
X68516500Y-68389500D01*
X68518940Y-68414276D01*
X68526167Y-68438101D01*
X68537903Y-68460057D01*
X68553697Y-68479303D01*
X68572943Y-68495097D01*
X68594899Y-68506833D01*
X68618724Y-68514060D01*
X68643500Y-68516500D01*
X71501000Y-68516500D01*
X71501000Y-100361497D01*
X71416988Y-100339617D01*
X70664605Y-101092000D01*
X71416988Y-101844383D01*
X71501000Y-101822503D01*
X71501000Y-107587942D01*
X58135000Y-107576550D01*
X58135000Y-100959037D01*
X66595000Y-100959037D01*
X66595000Y-101224963D01*
X66646880Y-101485780D01*
X66748646Y-101731465D01*
X66896387Y-101952575D01*
X67084425Y-102140613D01*
X67305535Y-102288354D01*
X67551220Y-102390120D01*
X67812037Y-102442000D01*
X68077963Y-102442000D01*
X68338780Y-102390120D01*
X68584465Y-102288354D01*
X68805575Y-102140613D01*
X68922200Y-102023988D01*
X69732617Y-102023988D01*
X69793898Y-102259286D01*
X70034903Y-102371684D01*
X70293206Y-102434905D01*
X70558879Y-102446518D01*
X70821712Y-102406078D01*
X71071606Y-102315139D01*
X71176102Y-102259286D01*
X71237383Y-102023988D01*
X70485000Y-101271605D01*
X69732617Y-102023988D01*
X68922200Y-102023988D01*
X68993613Y-101952575D01*
X69141354Y-101731465D01*
X69215742Y-101551875D01*
X69261861Y-101678606D01*
X69317714Y-101783102D01*
X69553012Y-101844383D01*
X70305395Y-101092000D01*
X69553012Y-100339617D01*
X69317714Y-100400898D01*
X69212983Y-100625463D01*
X69141354Y-100452535D01*
X68993613Y-100231425D01*
X68922200Y-100160012D01*
X69732617Y-100160012D01*
X70485000Y-100912395D01*
X71237383Y-100160012D01*
X71176102Y-99924714D01*
X70935097Y-99812316D01*
X70676794Y-99749095D01*
X70411121Y-99737482D01*
X70148288Y-99777922D01*
X69898394Y-99868861D01*
X69793898Y-99924714D01*
X69732617Y-100160012D01*
X68922200Y-100160012D01*
X68805575Y-100043387D01*
X68584465Y-99895646D01*
X68338780Y-99793880D01*
X68077963Y-99742000D01*
X67812037Y-99742000D01*
X67551220Y-99793880D01*
X67305535Y-99895646D01*
X67084425Y-100043387D01*
X66896387Y-100231425D01*
X66748646Y-100452535D01*
X66646880Y-100698220D01*
X66595000Y-100959037D01*
X58135000Y-100959037D01*
X58135000Y-64343646D01*
X58138314Y-64310000D01*
X58125088Y-64175717D01*
X58085919Y-64046594D01*
X58022312Y-63927593D01*
X57936711Y-63823289D01*
X57832407Y-63737688D01*
X57713406Y-63674081D01*
X57584283Y-63634912D01*
X57483647Y-63625000D01*
X57450000Y-63621686D01*
X57416353Y-63625000D01*
X50685000Y-63625000D01*
X50685000Y-48680090D01*
X50894000Y-48680090D01*
X50894000Y-48939910D01*
X50944689Y-49194738D01*
X51044117Y-49434781D01*
X51188466Y-49650813D01*
X51372187Y-49834534D01*
X51588219Y-49978883D01*
X51828262Y-50078311D01*
X52083090Y-50129000D01*
X52342910Y-50129000D01*
X52597738Y-50078311D01*
X52837781Y-49978883D01*
X53010666Y-49863364D01*
X53077815Y-49945185D01*
X53174506Y-50024537D01*
X53284820Y-50083502D01*
X53404518Y-50119812D01*
X53529000Y-50132072D01*
X54897000Y-50132072D01*
X55021482Y-50119812D01*
X55141180Y-50083502D01*
X55251494Y-50024537D01*
X55348185Y-49945185D01*
X55427537Y-49848494D01*
X55486502Y-49738180D01*
X55522812Y-49618482D01*
X55535072Y-49494000D01*
X55535072Y-48126000D01*
X55522812Y-48001518D01*
X55486502Y-47881820D01*
X55427537Y-47771506D01*
X55348185Y-47674815D01*
X55251494Y-47595463D01*
X55141180Y-47536498D01*
X55021482Y-47500188D01*
X54897000Y-47487928D01*
X53529000Y-47487928D01*
X53404518Y-47500188D01*
X53284820Y-47536498D01*
X53174506Y-47595463D01*
X53077815Y-47674815D01*
X53010666Y-47756636D01*
X52837781Y-47641117D01*
X52597738Y-47541689D01*
X52342910Y-47491000D01*
X52083090Y-47491000D01*
X51828262Y-47541689D01*
X51588219Y-47641117D01*
X51372187Y-47785466D01*
X51188466Y-47969187D01*
X51044117Y-48185219D01*
X50944689Y-48425262D01*
X50894000Y-48680090D01*
X50685000Y-48680090D01*
X50685000Y-42605000D01*
X82296000Y-42605000D01*
X82296000Y-51181000D01*
G37*
X82296000Y-51181000D02*
X81684064Y-51181000D01*
X81853092Y-51011972D01*
X82026824Y-50751963D01*
X82146493Y-50463057D01*
X82207500Y-50156355D01*
X82207500Y-49843645D01*
X82146493Y-49536943D01*
X82026824Y-49248037D01*
X81853092Y-48988028D01*
X81631972Y-48766908D01*
X81371963Y-48593176D01*
X81083057Y-48473507D01*
X80776355Y-48412500D01*
X80463645Y-48412500D01*
X80156943Y-48473507D01*
X79868037Y-48593176D01*
X79608028Y-48766908D01*
X79386908Y-48988028D01*
X79213176Y-49248037D01*
X79093507Y-49536943D01*
X79032500Y-49843645D01*
X79032500Y-50156355D01*
X79093507Y-50463057D01*
X79213176Y-50751963D01*
X79386908Y-51011972D01*
X79555936Y-51181000D01*
X78184064Y-51181000D01*
X78353092Y-51011972D01*
X78526824Y-50751963D01*
X78646493Y-50463057D01*
X78707500Y-50156355D01*
X78707500Y-49843645D01*
X78646493Y-49536943D01*
X78526824Y-49248037D01*
X78353092Y-48988028D01*
X78131972Y-48766908D01*
X77871963Y-48593176D01*
X77583057Y-48473507D01*
X77276355Y-48412500D01*
X76963645Y-48412500D01*
X76656943Y-48473507D01*
X76368037Y-48593176D01*
X76108028Y-48766908D01*
X75886908Y-48988028D01*
X75713176Y-49248037D01*
X75692000Y-49299160D01*
X75692000Y-47244000D01*
X75689560Y-47219224D01*
X75682333Y-47195399D01*
X75670597Y-47173443D01*
X75654803Y-47154197D01*
X75635557Y-47138403D01*
X75613601Y-47126667D01*
X75589776Y-47119440D01*
X75565000Y-47117000D01*
X64135000Y-47117000D01*
X64110224Y-47119440D01*
X64086399Y-47126667D01*
X64064443Y-47138403D01*
X64045197Y-47154197D01*
X64029403Y-47173443D01*
X64017667Y-47195399D01*
X64010440Y-47219224D01*
X64008000Y-47244000D01*
X64008000Y-66103500D01*
X64010440Y-66128276D01*
X64017667Y-66152101D01*
X64029403Y-66174057D01*
X64045197Y-66193303D01*
X64064443Y-66209097D01*
X64086399Y-66220833D01*
X64110224Y-66228060D01*
X64135000Y-66230500D01*
X68516500Y-66230500D01*
X68516500Y-68389500D01*
X68518940Y-68414276D01*
X68526167Y-68438101D01*
X68537903Y-68460057D01*
X68553697Y-68479303D01*
X68572943Y-68495097D01*
X68594899Y-68506833D01*
X68618724Y-68514060D01*
X68643500Y-68516500D01*
X71501000Y-68516500D01*
X71501000Y-100361497D01*
X71416988Y-100339617D01*
X70664605Y-101092000D01*
X71416988Y-101844383D01*
X71501000Y-101822503D01*
X71501000Y-107587942D01*
X58135000Y-107576550D01*
X58135000Y-100959037D01*
X66595000Y-100959037D01*
X66595000Y-101224963D01*
X66646880Y-101485780D01*
X66748646Y-101731465D01*
X66896387Y-101952575D01*
X67084425Y-102140613D01*
X67305535Y-102288354D01*
X67551220Y-102390120D01*
X67812037Y-102442000D01*
X68077963Y-102442000D01*
X68338780Y-102390120D01*
X68584465Y-102288354D01*
X68805575Y-102140613D01*
X68922200Y-102023988D01*
X69732617Y-102023988D01*
X69793898Y-102259286D01*
X70034903Y-102371684D01*
X70293206Y-102434905D01*
X70558879Y-102446518D01*
X70821712Y-102406078D01*
X71071606Y-102315139D01*
X71176102Y-102259286D01*
X71237383Y-102023988D01*
X70485000Y-101271605D01*
X69732617Y-102023988D01*
X68922200Y-102023988D01*
X68993613Y-101952575D01*
X69141354Y-101731465D01*
X69215742Y-101551875D01*
X69261861Y-101678606D01*
X69317714Y-101783102D01*
X69553012Y-101844383D01*
X70305395Y-101092000D01*
X69553012Y-100339617D01*
X69317714Y-100400898D01*
X69212983Y-100625463D01*
X69141354Y-100452535D01*
X68993613Y-100231425D01*
X68922200Y-100160012D01*
X69732617Y-100160012D01*
X70485000Y-100912395D01*
X71237383Y-100160012D01*
X71176102Y-99924714D01*
X70935097Y-99812316D01*
X70676794Y-99749095D01*
X70411121Y-99737482D01*
X70148288Y-99777922D01*
X69898394Y-99868861D01*
X69793898Y-99924714D01*
X69732617Y-100160012D01*
X68922200Y-100160012D01*
X68805575Y-100043387D01*
X68584465Y-99895646D01*
X68338780Y-99793880D01*
X68077963Y-99742000D01*
X67812037Y-99742000D01*
X67551220Y-99793880D01*
X67305535Y-99895646D01*
X67084425Y-100043387D01*
X66896387Y-100231425D01*
X66748646Y-100452535D01*
X66646880Y-100698220D01*
X66595000Y-100959037D01*
X58135000Y-100959037D01*
X58135000Y-64343646D01*
X58138314Y-64310000D01*
X58125088Y-64175717D01*
X58085919Y-64046594D01*
X58022312Y-63927593D01*
X57936711Y-63823289D01*
X57832407Y-63737688D01*
X57713406Y-63674081D01*
X57584283Y-63634912D01*
X57483647Y-63625000D01*
X57450000Y-63621686D01*
X57416353Y-63625000D01*
X50685000Y-63625000D01*
X50685000Y-48680090D01*
X50894000Y-48680090D01*
X50894000Y-48939910D01*
X50944689Y-49194738D01*
X51044117Y-49434781D01*
X51188466Y-49650813D01*
X51372187Y-49834534D01*
X51588219Y-49978883D01*
X51828262Y-50078311D01*
X52083090Y-50129000D01*
X52342910Y-50129000D01*
X52597738Y-50078311D01*
X52837781Y-49978883D01*
X53010666Y-49863364D01*
X53077815Y-49945185D01*
X53174506Y-50024537D01*
X53284820Y-50083502D01*
X53404518Y-50119812D01*
X53529000Y-50132072D01*
X54897000Y-50132072D01*
X55021482Y-50119812D01*
X55141180Y-50083502D01*
X55251494Y-50024537D01*
X55348185Y-49945185D01*
X55427537Y-49848494D01*
X55486502Y-49738180D01*
X55522812Y-49618482D01*
X55535072Y-49494000D01*
X55535072Y-48126000D01*
X55522812Y-48001518D01*
X55486502Y-47881820D01*
X55427537Y-47771506D01*
X55348185Y-47674815D01*
X55251494Y-47595463D01*
X55141180Y-47536498D01*
X55021482Y-47500188D01*
X54897000Y-47487928D01*
X53529000Y-47487928D01*
X53404518Y-47500188D01*
X53284820Y-47536498D01*
X53174506Y-47595463D01*
X53077815Y-47674815D01*
X53010666Y-47756636D01*
X52837781Y-47641117D01*
X52597738Y-47541689D01*
X52342910Y-47491000D01*
X52083090Y-47491000D01*
X51828262Y-47541689D01*
X51588219Y-47641117D01*
X51372187Y-47785466D01*
X51188466Y-47969187D01*
X51044117Y-48185219D01*
X50944689Y-48425262D01*
X50894000Y-48680090D01*
X50685000Y-48680090D01*
X50685000Y-42605000D01*
X82296000Y-42605000D01*
X82296000Y-51181000D01*
G04 #@! TO.N,GND_CAN0*
G36*
X147335430Y-42676677D02*
G01*
X147105639Y-42830218D01*
X146910218Y-43025639D01*
X146756677Y-43255430D01*
X146650916Y-43510760D01*
X146597000Y-43781817D01*
X146597000Y-44058183D01*
X146650916Y-44329240D01*
X146756677Y-44584570D01*
X146910218Y-44814361D01*
X147105639Y-45009782D01*
X147335430Y-45163323D01*
X147590760Y-45269084D01*
X147861817Y-45323000D01*
X148138183Y-45323000D01*
X148409240Y-45269084D01*
X148664570Y-45163323D01*
X148894361Y-45009782D01*
X149089782Y-44814361D01*
X149243323Y-44584570D01*
X149315001Y-44411524D01*
X149315000Y-63625000D01*
X142583647Y-63625000D01*
X142550000Y-63621686D01*
X142516353Y-63625000D01*
X142415717Y-63634912D01*
X142286594Y-63674081D01*
X142167593Y-63737688D01*
X142063289Y-63823289D01*
X141977688Y-63927593D01*
X141914081Y-64046594D01*
X141874912Y-64175717D01*
X141861686Y-64310000D01*
X141865001Y-64343657D01*
X141865000Y-115186496D01*
X129032000Y-115182688D01*
X129032000Y-110456788D01*
X129397217Y-110456788D01*
X129458498Y-110692086D01*
X129699503Y-110804484D01*
X129957806Y-110867705D01*
X130223479Y-110879318D01*
X130486312Y-110838878D01*
X130736206Y-110747939D01*
X130840702Y-110692086D01*
X130901983Y-110456788D01*
X130149600Y-109704405D01*
X129397217Y-110456788D01*
X129032000Y-110456788D01*
X129032000Y-110228842D01*
X129217612Y-110277183D01*
X129969995Y-109524800D01*
X130329205Y-109524800D01*
X131081588Y-110277183D01*
X131316886Y-110215902D01*
X131421617Y-109991337D01*
X131493246Y-110164265D01*
X131640987Y-110385375D01*
X131829025Y-110573413D01*
X132050135Y-110721154D01*
X132295820Y-110822920D01*
X132556637Y-110874800D01*
X132822563Y-110874800D01*
X133083380Y-110822920D01*
X133329065Y-110721154D01*
X133550175Y-110573413D01*
X133738213Y-110385375D01*
X133885954Y-110164265D01*
X133987720Y-109918580D01*
X134039600Y-109657763D01*
X134039600Y-109391837D01*
X133987720Y-109131020D01*
X133885954Y-108885335D01*
X133738213Y-108664225D01*
X133550175Y-108476187D01*
X133329065Y-108328446D01*
X133083380Y-108226680D01*
X132822563Y-108174800D01*
X132556637Y-108174800D01*
X132295820Y-108226680D01*
X132050135Y-108328446D01*
X131829025Y-108476187D01*
X131640987Y-108664225D01*
X131493246Y-108885335D01*
X131418858Y-109064925D01*
X131372739Y-108938194D01*
X131316886Y-108833698D01*
X131081588Y-108772417D01*
X130329205Y-109524800D01*
X129969995Y-109524800D01*
X129217612Y-108772417D01*
X129032000Y-108820758D01*
X129032000Y-108592812D01*
X129397217Y-108592812D01*
X130149600Y-109345195D01*
X130901983Y-108592812D01*
X130840702Y-108357514D01*
X130599697Y-108245116D01*
X130341394Y-108181895D01*
X130075721Y-108170282D01*
X129812888Y-108210722D01*
X129562994Y-108301661D01*
X129458498Y-108357514D01*
X129397217Y-108592812D01*
X129032000Y-108592812D01*
X129032000Y-87255350D01*
X129029560Y-87230574D01*
X129022333Y-87206749D01*
X129010597Y-87184793D01*
X128994803Y-87165547D01*
X128975557Y-87149753D01*
X128953601Y-87138017D01*
X128929776Y-87130790D01*
X128904238Y-87128352D01*
X125857000Y-87146635D01*
X125857000Y-73787000D01*
X134112000Y-73787000D01*
X134136776Y-73784560D01*
X134160601Y-73777333D01*
X134182557Y-73765597D01*
X134201803Y-73749803D01*
X134217597Y-73730557D01*
X134229333Y-73708601D01*
X134236560Y-73684776D01*
X134239000Y-73660000D01*
X134239000Y-57487521D01*
X138276632Y-57518296D01*
X138301426Y-57516045D01*
X138325305Y-57509000D01*
X138347351Y-57497431D01*
X138366716Y-57481784D01*
X138382656Y-57462660D01*
X138394559Y-57440794D01*
X138401967Y-57417025D01*
X138404600Y-57391300D01*
X138404600Y-54491769D01*
X138416493Y-54463057D01*
X138477500Y-54156355D01*
X138477500Y-53862408D01*
X138993000Y-53862408D01*
X138993000Y-54137592D01*
X139046686Y-54407490D01*
X139151995Y-54661727D01*
X139304880Y-54890535D01*
X139499465Y-55085120D01*
X139728273Y-55238005D01*
X139982510Y-55343314D01*
X140252408Y-55397000D01*
X140527592Y-55397000D01*
X140797490Y-55343314D01*
X141051727Y-55238005D01*
X141280535Y-55085120D01*
X141475120Y-54890535D01*
X141628005Y-54661727D01*
X141733314Y-54407490D01*
X141787000Y-54137592D01*
X141787000Y-53862408D01*
X141733314Y-53592510D01*
X141628005Y-53338273D01*
X141475120Y-53109465D01*
X141280535Y-52914880D01*
X141051727Y-52761995D01*
X140797490Y-52656686D01*
X140527592Y-52603000D01*
X140252408Y-52603000D01*
X139982510Y-52656686D01*
X139728273Y-52761995D01*
X139499465Y-52914880D01*
X139304880Y-53109465D01*
X139151995Y-53338273D01*
X139046686Y-53592510D01*
X138993000Y-53862408D01*
X138477500Y-53862408D01*
X138477500Y-53843645D01*
X138416493Y-53536943D01*
X138404600Y-53508231D01*
X138404600Y-51790600D01*
X138402160Y-51765824D01*
X138394933Y-51741999D01*
X138383197Y-51720043D01*
X138367403Y-51700797D01*
X138348157Y-51685003D01*
X138326201Y-51673267D01*
X138302376Y-51666040D01*
X138277600Y-51663600D01*
X135255000Y-51663602D01*
X135255000Y-49843645D01*
X135302500Y-49843645D01*
X135302500Y-50156355D01*
X135363507Y-50463057D01*
X135483176Y-50751963D01*
X135656908Y-51011972D01*
X135878028Y-51233092D01*
X136138037Y-51406824D01*
X136426943Y-51526493D01*
X136733645Y-51587500D01*
X137046355Y-51587500D01*
X137353057Y-51526493D01*
X137641963Y-51406824D01*
X137901972Y-51233092D01*
X138123092Y-51011972D01*
X138296824Y-50751963D01*
X138416493Y-50463057D01*
X138477500Y-50156355D01*
X138477500Y-49843645D01*
X138802500Y-49843645D01*
X138802500Y-50156355D01*
X138863507Y-50463057D01*
X138983176Y-50751963D01*
X139156908Y-51011972D01*
X139378028Y-51233092D01*
X139638037Y-51406824D01*
X139926943Y-51526493D01*
X140233645Y-51587500D01*
X140546355Y-51587500D01*
X140853057Y-51526493D01*
X141141963Y-51406824D01*
X141401972Y-51233092D01*
X141623092Y-51011972D01*
X141796824Y-50751963D01*
X141916493Y-50463057D01*
X141977500Y-50156355D01*
X141977500Y-49843645D01*
X141916493Y-49536943D01*
X141796824Y-49248037D01*
X141623092Y-48988028D01*
X141401972Y-48766908D01*
X141141963Y-48593176D01*
X140853057Y-48473507D01*
X140546355Y-48412500D01*
X140233645Y-48412500D01*
X139926943Y-48473507D01*
X139638037Y-48593176D01*
X139378028Y-48766908D01*
X139156908Y-48988028D01*
X138983176Y-49248037D01*
X138863507Y-49536943D01*
X138802500Y-49843645D01*
X138477500Y-49843645D01*
X138416493Y-49536943D01*
X138296824Y-49248037D01*
X138123092Y-48988028D01*
X137901972Y-48766908D01*
X137641963Y-48593176D01*
X137353057Y-48473507D01*
X137046355Y-48412500D01*
X136733645Y-48412500D01*
X136426943Y-48473507D01*
X136138037Y-48593176D01*
X135878028Y-48766908D01*
X135656908Y-48988028D01*
X135483176Y-49248037D01*
X135363507Y-49536943D01*
X135302500Y-49843645D01*
X135255000Y-49843645D01*
X135255000Y-46799500D01*
X135252560Y-46774724D01*
X135245333Y-46750899D01*
X135233597Y-46728943D01*
X135217803Y-46709697D01*
X135198557Y-46693903D01*
X135176601Y-46682167D01*
X135152776Y-46674940D01*
X135128000Y-46672500D01*
X110426500Y-46672500D01*
X110401724Y-46674940D01*
X110377899Y-46682167D01*
X110355943Y-46693903D01*
X110336697Y-46709697D01*
X110320903Y-46728943D01*
X110309167Y-46750899D01*
X110301940Y-46774724D01*
X110299500Y-46799500D01*
X110299500Y-49254497D01*
X110296824Y-49248037D01*
X110123092Y-48988028D01*
X109901972Y-48766908D01*
X109641963Y-48593176D01*
X109353057Y-48473507D01*
X109046355Y-48412500D01*
X108733645Y-48412500D01*
X108426943Y-48473507D01*
X108138037Y-48593176D01*
X107878028Y-48766908D01*
X107656908Y-48988028D01*
X107483176Y-49248037D01*
X107363507Y-49536943D01*
X107302500Y-49843645D01*
X107302500Y-50156355D01*
X107363507Y-50463057D01*
X107483176Y-50751963D01*
X107656908Y-51011972D01*
X107878028Y-51233092D01*
X108138037Y-51406824D01*
X108426943Y-51526493D01*
X108733645Y-51587500D01*
X109046355Y-51587500D01*
X109353057Y-51526493D01*
X109641963Y-51406824D01*
X109901972Y-51233092D01*
X110123092Y-51011972D01*
X110296824Y-50751963D01*
X110299500Y-50745503D01*
X110299500Y-53254497D01*
X110296824Y-53248037D01*
X110123092Y-52988028D01*
X109901972Y-52766908D01*
X109641963Y-52593176D01*
X109353057Y-52473507D01*
X109046355Y-52412500D01*
X108733645Y-52412500D01*
X108426943Y-52473507D01*
X108138037Y-52593176D01*
X107878028Y-52766908D01*
X107656908Y-52988028D01*
X107483176Y-53248037D01*
X107363507Y-53536943D01*
X107302500Y-53843645D01*
X107302500Y-54156355D01*
X107363507Y-54463057D01*
X107483176Y-54751963D01*
X107656908Y-55011972D01*
X107878028Y-55233092D01*
X108138037Y-55406824D01*
X108426943Y-55526493D01*
X108733645Y-55587500D01*
X109046355Y-55587500D01*
X109353057Y-55526493D01*
X109641963Y-55406824D01*
X109901972Y-55233092D01*
X110123092Y-55011972D01*
X110296824Y-54751963D01*
X110299500Y-54745503D01*
X110299500Y-56134000D01*
X104775000Y-56134000D01*
X104775000Y-42605000D01*
X147508474Y-42605000D01*
X147335430Y-42676677D01*
G37*
X147335430Y-42676677D02*
X147105639Y-42830218D01*
X146910218Y-43025639D01*
X146756677Y-43255430D01*
X146650916Y-43510760D01*
X146597000Y-43781817D01*
X146597000Y-44058183D01*
X146650916Y-44329240D01*
X146756677Y-44584570D01*
X146910218Y-44814361D01*
X147105639Y-45009782D01*
X147335430Y-45163323D01*
X147590760Y-45269084D01*
X147861817Y-45323000D01*
X148138183Y-45323000D01*
X148409240Y-45269084D01*
X148664570Y-45163323D01*
X148894361Y-45009782D01*
X149089782Y-44814361D01*
X149243323Y-44584570D01*
X149315001Y-44411524D01*
X149315000Y-63625000D01*
X142583647Y-63625000D01*
X142550000Y-63621686D01*
X142516353Y-63625000D01*
X142415717Y-63634912D01*
X142286594Y-63674081D01*
X142167593Y-63737688D01*
X142063289Y-63823289D01*
X141977688Y-63927593D01*
X141914081Y-64046594D01*
X141874912Y-64175717D01*
X141861686Y-64310000D01*
X141865001Y-64343657D01*
X141865000Y-115186496D01*
X129032000Y-115182688D01*
X129032000Y-110456788D01*
X129397217Y-110456788D01*
X129458498Y-110692086D01*
X129699503Y-110804484D01*
X129957806Y-110867705D01*
X130223479Y-110879318D01*
X130486312Y-110838878D01*
X130736206Y-110747939D01*
X130840702Y-110692086D01*
X130901983Y-110456788D01*
X130149600Y-109704405D01*
X129397217Y-110456788D01*
X129032000Y-110456788D01*
X129032000Y-110228842D01*
X129217612Y-110277183D01*
X129969995Y-109524800D01*
X130329205Y-109524800D01*
X131081588Y-110277183D01*
X131316886Y-110215902D01*
X131421617Y-109991337D01*
X131493246Y-110164265D01*
X131640987Y-110385375D01*
X131829025Y-110573413D01*
X132050135Y-110721154D01*
X132295820Y-110822920D01*
X132556637Y-110874800D01*
X132822563Y-110874800D01*
X133083380Y-110822920D01*
X133329065Y-110721154D01*
X133550175Y-110573413D01*
X133738213Y-110385375D01*
X133885954Y-110164265D01*
X133987720Y-109918580D01*
X134039600Y-109657763D01*
X134039600Y-109391837D01*
X133987720Y-109131020D01*
X133885954Y-108885335D01*
X133738213Y-108664225D01*
X133550175Y-108476187D01*
X133329065Y-108328446D01*
X133083380Y-108226680D01*
X132822563Y-108174800D01*
X132556637Y-108174800D01*
X132295820Y-108226680D01*
X132050135Y-108328446D01*
X131829025Y-108476187D01*
X131640987Y-108664225D01*
X131493246Y-108885335D01*
X131418858Y-109064925D01*
X131372739Y-108938194D01*
X131316886Y-108833698D01*
X131081588Y-108772417D01*
X130329205Y-109524800D01*
X129969995Y-109524800D01*
X129217612Y-108772417D01*
X129032000Y-108820758D01*
X129032000Y-108592812D01*
X129397217Y-108592812D01*
X130149600Y-109345195D01*
X130901983Y-108592812D01*
X130840702Y-108357514D01*
X130599697Y-108245116D01*
X130341394Y-108181895D01*
X130075721Y-108170282D01*
X129812888Y-108210722D01*
X129562994Y-108301661D01*
X129458498Y-108357514D01*
X129397217Y-108592812D01*
X129032000Y-108592812D01*
X129032000Y-87255350D01*
X129029560Y-87230574D01*
X129022333Y-87206749D01*
X129010597Y-87184793D01*
X128994803Y-87165547D01*
X128975557Y-87149753D01*
X128953601Y-87138017D01*
X128929776Y-87130790D01*
X128904238Y-87128352D01*
X125857000Y-87146635D01*
X125857000Y-73787000D01*
X134112000Y-73787000D01*
X134136776Y-73784560D01*
X134160601Y-73777333D01*
X134182557Y-73765597D01*
X134201803Y-73749803D01*
X134217597Y-73730557D01*
X134229333Y-73708601D01*
X134236560Y-73684776D01*
X134239000Y-73660000D01*
X134239000Y-57487521D01*
X138276632Y-57518296D01*
X138301426Y-57516045D01*
X138325305Y-57509000D01*
X138347351Y-57497431D01*
X138366716Y-57481784D01*
X138382656Y-57462660D01*
X138394559Y-57440794D01*
X138401967Y-57417025D01*
X138404600Y-57391300D01*
X138404600Y-54491769D01*
X138416493Y-54463057D01*
X138477500Y-54156355D01*
X138477500Y-53862408D01*
X138993000Y-53862408D01*
X138993000Y-54137592D01*
X139046686Y-54407490D01*
X139151995Y-54661727D01*
X139304880Y-54890535D01*
X139499465Y-55085120D01*
X139728273Y-55238005D01*
X139982510Y-55343314D01*
X140252408Y-55397000D01*
X140527592Y-55397000D01*
X140797490Y-55343314D01*
X141051727Y-55238005D01*
X141280535Y-55085120D01*
X141475120Y-54890535D01*
X141628005Y-54661727D01*
X141733314Y-54407490D01*
X141787000Y-54137592D01*
X141787000Y-53862408D01*
X141733314Y-53592510D01*
X141628005Y-53338273D01*
X141475120Y-53109465D01*
X141280535Y-52914880D01*
X141051727Y-52761995D01*
X140797490Y-52656686D01*
X140527592Y-52603000D01*
X140252408Y-52603000D01*
X139982510Y-52656686D01*
X139728273Y-52761995D01*
X139499465Y-52914880D01*
X139304880Y-53109465D01*
X139151995Y-53338273D01*
X139046686Y-53592510D01*
X138993000Y-53862408D01*
X138477500Y-53862408D01*
X138477500Y-53843645D01*
X138416493Y-53536943D01*
X138404600Y-53508231D01*
X138404600Y-51790600D01*
X138402160Y-51765824D01*
X138394933Y-51741999D01*
X138383197Y-51720043D01*
X138367403Y-51700797D01*
X138348157Y-51685003D01*
X138326201Y-51673267D01*
X138302376Y-51666040D01*
X138277600Y-51663600D01*
X135255000Y-51663602D01*
X135255000Y-49843645D01*
X135302500Y-49843645D01*
X135302500Y-50156355D01*
X135363507Y-50463057D01*
X135483176Y-50751963D01*
X135656908Y-51011972D01*
X135878028Y-51233092D01*
X136138037Y-51406824D01*
X136426943Y-51526493D01*
X136733645Y-51587500D01*
X137046355Y-51587500D01*
X137353057Y-51526493D01*
X137641963Y-51406824D01*
X137901972Y-51233092D01*
X138123092Y-51011972D01*
X138296824Y-50751963D01*
X138416493Y-50463057D01*
X138477500Y-50156355D01*
X138477500Y-49843645D01*
X138802500Y-49843645D01*
X138802500Y-50156355D01*
X138863507Y-50463057D01*
X138983176Y-50751963D01*
X139156908Y-51011972D01*
X139378028Y-51233092D01*
X139638037Y-51406824D01*
X139926943Y-51526493D01*
X140233645Y-51587500D01*
X140546355Y-51587500D01*
X140853057Y-51526493D01*
X141141963Y-51406824D01*
X141401972Y-51233092D01*
X141623092Y-51011972D01*
X141796824Y-50751963D01*
X141916493Y-50463057D01*
X141977500Y-50156355D01*
X141977500Y-49843645D01*
X141916493Y-49536943D01*
X141796824Y-49248037D01*
X141623092Y-48988028D01*
X141401972Y-48766908D01*
X141141963Y-48593176D01*
X140853057Y-48473507D01*
X140546355Y-48412500D01*
X140233645Y-48412500D01*
X139926943Y-48473507D01*
X139638037Y-48593176D01*
X139378028Y-48766908D01*
X139156908Y-48988028D01*
X138983176Y-49248037D01*
X138863507Y-49536943D01*
X138802500Y-49843645D01*
X138477500Y-49843645D01*
X138416493Y-49536943D01*
X138296824Y-49248037D01*
X138123092Y-48988028D01*
X137901972Y-48766908D01*
X137641963Y-48593176D01*
X137353057Y-48473507D01*
X137046355Y-48412500D01*
X136733645Y-48412500D01*
X136426943Y-48473507D01*
X136138037Y-48593176D01*
X135878028Y-48766908D01*
X135656908Y-48988028D01*
X135483176Y-49248037D01*
X135363507Y-49536943D01*
X135302500Y-49843645D01*
X135255000Y-49843645D01*
X135255000Y-46799500D01*
X135252560Y-46774724D01*
X135245333Y-46750899D01*
X135233597Y-46728943D01*
X135217803Y-46709697D01*
X135198557Y-46693903D01*
X135176601Y-46682167D01*
X135152776Y-46674940D01*
X135128000Y-46672500D01*
X110426500Y-46672500D01*
X110401724Y-46674940D01*
X110377899Y-46682167D01*
X110355943Y-46693903D01*
X110336697Y-46709697D01*
X110320903Y-46728943D01*
X110309167Y-46750899D01*
X110301940Y-46774724D01*
X110299500Y-46799500D01*
X110299500Y-49254497D01*
X110296824Y-49248037D01*
X110123092Y-48988028D01*
X109901972Y-48766908D01*
X109641963Y-48593176D01*
X109353057Y-48473507D01*
X109046355Y-48412500D01*
X108733645Y-48412500D01*
X108426943Y-48473507D01*
X108138037Y-48593176D01*
X107878028Y-48766908D01*
X107656908Y-48988028D01*
X107483176Y-49248037D01*
X107363507Y-49536943D01*
X107302500Y-49843645D01*
X107302500Y-50156355D01*
X107363507Y-50463057D01*
X107483176Y-50751963D01*
X107656908Y-51011972D01*
X107878028Y-51233092D01*
X108138037Y-51406824D01*
X108426943Y-51526493D01*
X108733645Y-51587500D01*
X109046355Y-51587500D01*
X109353057Y-51526493D01*
X109641963Y-51406824D01*
X109901972Y-51233092D01*
X110123092Y-51011972D01*
X110296824Y-50751963D01*
X110299500Y-50745503D01*
X110299500Y-53254497D01*
X110296824Y-53248037D01*
X110123092Y-52988028D01*
X109901972Y-52766908D01*
X109641963Y-52593176D01*
X109353057Y-52473507D01*
X109046355Y-52412500D01*
X108733645Y-52412500D01*
X108426943Y-52473507D01*
X108138037Y-52593176D01*
X107878028Y-52766908D01*
X107656908Y-52988028D01*
X107483176Y-53248037D01*
X107363507Y-53536943D01*
X107302500Y-53843645D01*
X107302500Y-54156355D01*
X107363507Y-54463057D01*
X107483176Y-54751963D01*
X107656908Y-55011972D01*
X107878028Y-55233092D01*
X108138037Y-55406824D01*
X108426943Y-55526493D01*
X108733645Y-55587500D01*
X109046355Y-55587500D01*
X109353057Y-55526493D01*
X109641963Y-55406824D01*
X109901972Y-55233092D01*
X110123092Y-55011972D01*
X110296824Y-54751963D01*
X110299500Y-54745503D01*
X110299500Y-56134000D01*
X104775000Y-56134000D01*
X104775000Y-42605000D01*
X147508474Y-42605000D01*
X147335430Y-42676677D01*
G04 #@! TD*
M02*
