G04 #@! TF.GenerationSoftware,KiCad,Pcbnew,(5.1.6-0-10_14)*
G04 #@! TF.CreationDate,2021-12-24T10:53:56+01:00*
G04 #@! TF.ProjectId,CHAdeMO_V2.0,43484164-654d-44f5-9f56-322e302e6b69,rev?*
G04 #@! TF.SameCoordinates,Original*
G04 #@! TF.FileFunction,Paste,Top*
G04 #@! TF.FilePolarity,Positive*
%FSLAX46Y46*%
G04 Gerber Fmt 4.6, Leading zero omitted, Abs format (unit mm)*
G04 Created by KiCad (PCBNEW (5.1.6-0-10_14)) date 2021-12-24 10:53:56*
%MOMM*%
%LPD*%
G01*
G04 APERTURE LIST*
%ADD10C,0.370000*%
%ADD11R,0.900000X1.200000*%
%ADD12R,0.600000X1.050000*%
%ADD13R,0.650000X1.200000*%
%ADD14R,0.600000X1.300000*%
%ADD15R,1.300000X0.600000*%
%ADD16R,0.900000X1.350000*%
%ADD17R,1.900000X2.200000*%
%ADD18R,2.900000X5.450000*%
%ADD19R,2.150000X2.200000*%
%ADD20R,0.800000X1.000000*%
%ADD21R,1.000000X0.800000*%
%ADD22R,4.050000X2.300000*%
%ADD23R,2.350000X0.700000*%
%ADD24R,1.000000X1.800000*%
%ADD25R,0.650000X1.525000*%
%ADD26R,2.200000X1.900000*%
%ADD27R,1.400000X1.200000*%
G04 APERTURE END LIST*
G04 #@! TO.C,R17*
G36*
G01*
X78867950Y-74516400D02*
X79780450Y-74516400D01*
G75*
G02*
X80024200Y-74760150I0J-243750D01*
G01*
X80024200Y-75247650D01*
G75*
G02*
X79780450Y-75491400I-243750J0D01*
G01*
X78867950Y-75491400D01*
G75*
G02*
X78624200Y-75247650I0J243750D01*
G01*
X78624200Y-74760150D01*
G75*
G02*
X78867950Y-74516400I243750J0D01*
G01*
G37*
G36*
G01*
X78867950Y-72641400D02*
X79780450Y-72641400D01*
G75*
G02*
X80024200Y-72885150I0J-243750D01*
G01*
X80024200Y-73372650D01*
G75*
G02*
X79780450Y-73616400I-243750J0D01*
G01*
X78867950Y-73616400D01*
G75*
G02*
X78624200Y-73372650I0J243750D01*
G01*
X78624200Y-72885150D01*
G75*
G02*
X78867950Y-72641400I243750J0D01*
G01*
G37*
G04 #@! TD*
G04 #@! TO.C,L4*
G36*
G01*
X104871000Y-126697450D02*
X104871000Y-126184950D01*
G75*
G02*
X105089750Y-125966200I218750J0D01*
G01*
X105527250Y-125966200D01*
G75*
G02*
X105746000Y-126184950I0J-218750D01*
G01*
X105746000Y-126697450D01*
G75*
G02*
X105527250Y-126916200I-218750J0D01*
G01*
X105089750Y-126916200D01*
G75*
G02*
X104871000Y-126697450I0J218750D01*
G01*
G37*
G36*
G01*
X103296000Y-126697450D02*
X103296000Y-126184950D01*
G75*
G02*
X103514750Y-125966200I218750J0D01*
G01*
X103952250Y-125966200D01*
G75*
G02*
X104171000Y-126184950I0J-218750D01*
G01*
X104171000Y-126697450D01*
G75*
G02*
X103952250Y-126916200I-218750J0D01*
G01*
X103514750Y-126916200D01*
G75*
G02*
X103296000Y-126697450I0J218750D01*
G01*
G37*
G04 #@! TD*
G04 #@! TO.C,C29*
G36*
G01*
X107886800Y-125110400D02*
X107886800Y-123860400D01*
G75*
G02*
X108136800Y-123610400I250000J0D01*
G01*
X108886800Y-123610400D01*
G75*
G02*
X109136800Y-123860400I0J-250000D01*
G01*
X109136800Y-125110400D01*
G75*
G02*
X108886800Y-125360400I-250000J0D01*
G01*
X108136800Y-125360400D01*
G75*
G02*
X107886800Y-125110400I0J250000D01*
G01*
G37*
G36*
G01*
X105086800Y-125110400D02*
X105086800Y-123860400D01*
G75*
G02*
X105336800Y-123610400I250000J0D01*
G01*
X106086800Y-123610400D01*
G75*
G02*
X106336800Y-123860400I0J-250000D01*
G01*
X106336800Y-125110400D01*
G75*
G02*
X106086800Y-125360400I-250000J0D01*
G01*
X105336800Y-125360400D01*
G75*
G02*
X105086800Y-125110400I0J250000D01*
G01*
G37*
G04 #@! TD*
G04 #@! TO.C,C28*
G36*
G01*
X107886800Y-122773600D02*
X107886800Y-121523600D01*
G75*
G02*
X108136800Y-121273600I250000J0D01*
G01*
X108886800Y-121273600D01*
G75*
G02*
X109136800Y-121523600I0J-250000D01*
G01*
X109136800Y-122773600D01*
G75*
G02*
X108886800Y-123023600I-250000J0D01*
G01*
X108136800Y-123023600D01*
G75*
G02*
X107886800Y-122773600I0J250000D01*
G01*
G37*
G36*
G01*
X105086800Y-122773600D02*
X105086800Y-121523600D01*
G75*
G02*
X105336800Y-121273600I250000J0D01*
G01*
X106086800Y-121273600D01*
G75*
G02*
X106336800Y-121523600I0J-250000D01*
G01*
X106336800Y-122773600D01*
G75*
G02*
X106086800Y-123023600I-250000J0D01*
G01*
X105336800Y-123023600D01*
G75*
G02*
X105086800Y-122773600I0J250000D01*
G01*
G37*
G04 #@! TD*
D10*
G04 #@! TO.C,IC3*
X90202200Y-119767800D03*
X91002200Y-119767800D03*
X91802200Y-119767800D03*
X92602200Y-119767800D03*
X93402200Y-119767800D03*
X94202200Y-119767800D03*
X95002200Y-119767800D03*
X95802200Y-119767800D03*
X96602200Y-119767800D03*
X97402200Y-119767800D03*
X90202200Y-120567800D03*
X91002200Y-120567800D03*
X91802200Y-120567800D03*
X92602200Y-120567800D03*
X93402200Y-120567800D03*
X94202200Y-120567800D03*
X95002200Y-120567800D03*
X95802200Y-120567800D03*
X96602200Y-120567800D03*
X97402200Y-120567800D03*
X90202200Y-121367800D03*
X91002200Y-121367800D03*
X91802200Y-121367800D03*
X92602200Y-121367800D03*
X93402200Y-121367800D03*
X94202200Y-121367800D03*
X95002200Y-121367800D03*
X95802200Y-121367800D03*
X96602200Y-121367800D03*
X97402200Y-121367800D03*
X90202200Y-122167800D03*
X91002200Y-122167800D03*
X91802200Y-122167800D03*
X92602200Y-122167800D03*
X93402200Y-122167800D03*
X94202200Y-122167800D03*
X95002200Y-122167800D03*
X95802200Y-122167800D03*
X96602200Y-122167800D03*
X97402200Y-122167800D03*
X90202200Y-122967800D03*
X91002200Y-122967800D03*
X91802200Y-122967800D03*
X92602200Y-122967800D03*
X93402200Y-122967800D03*
X94202200Y-122967800D03*
X95002200Y-122967800D03*
X95802200Y-122967800D03*
X96602200Y-122967800D03*
X97402200Y-122967800D03*
X90202200Y-123767800D03*
X91002200Y-123767800D03*
X91802200Y-123767800D03*
X92602200Y-123767800D03*
X93402200Y-123767800D03*
X94202200Y-123767800D03*
X95002200Y-123767800D03*
X95802200Y-123767800D03*
X96602200Y-123767800D03*
X97402200Y-123767800D03*
X90202200Y-124567800D03*
X91002200Y-124567800D03*
X91802200Y-124567800D03*
X92602200Y-124567800D03*
X93402200Y-124567800D03*
X94202200Y-124567800D03*
X95002200Y-124567800D03*
X95802200Y-124567800D03*
X96602200Y-124567800D03*
X97402200Y-124567800D03*
X90202200Y-125367800D03*
X91002200Y-125367800D03*
X91802200Y-125367800D03*
X92602200Y-125367800D03*
X93402200Y-125367800D03*
X94202200Y-125367800D03*
X95002200Y-125367800D03*
X95802200Y-125367800D03*
X96602200Y-125367800D03*
X97402200Y-125367800D03*
X90202200Y-126167800D03*
X91002200Y-126167800D03*
X91802200Y-126167800D03*
X92602200Y-126167800D03*
X93402200Y-126167800D03*
X94202200Y-126167800D03*
X95002200Y-126167800D03*
X95802200Y-126167800D03*
X96602200Y-126167800D03*
X97402200Y-126167800D03*
X90202200Y-126967800D03*
X91002200Y-126967800D03*
X91802200Y-126967800D03*
X92602200Y-126967800D03*
X93402200Y-126967800D03*
X94202200Y-126967800D03*
X95002200Y-126967800D03*
X95802200Y-126967800D03*
X96602200Y-126967800D03*
X97402200Y-126967800D03*
G04 #@! TD*
G04 #@! TO.C,LED2*
G36*
G01*
X122531850Y-77120000D02*
X122019350Y-77120000D01*
G75*
G02*
X121800600Y-76901250I0J218750D01*
G01*
X121800600Y-76463750D01*
G75*
G02*
X122019350Y-76245000I218750J0D01*
G01*
X122531850Y-76245000D01*
G75*
G02*
X122750600Y-76463750I0J-218750D01*
G01*
X122750600Y-76901250D01*
G75*
G02*
X122531850Y-77120000I-218750J0D01*
G01*
G37*
G36*
G01*
X122531850Y-78695000D02*
X122019350Y-78695000D01*
G75*
G02*
X121800600Y-78476250I0J218750D01*
G01*
X121800600Y-78038750D01*
G75*
G02*
X122019350Y-77820000I218750J0D01*
G01*
X122531850Y-77820000D01*
G75*
G02*
X122750600Y-78038750I0J-218750D01*
G01*
X122750600Y-78476250D01*
G75*
G02*
X122531850Y-78695000I-218750J0D01*
G01*
G37*
G04 #@! TD*
G04 #@! TO.C,LED1*
G36*
G01*
X87644950Y-111102700D02*
X87132450Y-111102700D01*
G75*
G02*
X86913700Y-110883950I0J218750D01*
G01*
X86913700Y-110446450D01*
G75*
G02*
X87132450Y-110227700I218750J0D01*
G01*
X87644950Y-110227700D01*
G75*
G02*
X87863700Y-110446450I0J-218750D01*
G01*
X87863700Y-110883950D01*
G75*
G02*
X87644950Y-111102700I-218750J0D01*
G01*
G37*
G36*
G01*
X87644950Y-112677700D02*
X87132450Y-112677700D01*
G75*
G02*
X86913700Y-112458950I0J218750D01*
G01*
X86913700Y-112021450D01*
G75*
G02*
X87132450Y-111802700I218750J0D01*
G01*
X87644950Y-111802700D01*
G75*
G02*
X87863700Y-112021450I0J-218750D01*
G01*
X87863700Y-112458950D01*
G75*
G02*
X87644950Y-112677700I-218750J0D01*
G01*
G37*
G04 #@! TD*
D11*
G04 #@! TO.C,D1*
X88187800Y-76476200D03*
X84887800Y-76476200D03*
G04 #@! TD*
G04 #@! TO.C,D2*
X115315000Y-58699400D03*
X112015000Y-58699400D03*
G04 #@! TD*
G04 #@! TO.C,D8*
X100202000Y-58547000D03*
X96902000Y-58547000D03*
G04 #@! TD*
G04 #@! TO.C,D7*
X101268800Y-74079100D03*
X97968800Y-74079100D03*
G04 #@! TD*
G04 #@! TO.C,R30*
G36*
G01*
X121819350Y-74541800D02*
X122731850Y-74541800D01*
G75*
G02*
X122975600Y-74785550I0J-243750D01*
G01*
X122975600Y-75273050D01*
G75*
G02*
X122731850Y-75516800I-243750J0D01*
G01*
X121819350Y-75516800D01*
G75*
G02*
X121575600Y-75273050I0J243750D01*
G01*
X121575600Y-74785550D01*
G75*
G02*
X121819350Y-74541800I243750J0D01*
G01*
G37*
G36*
G01*
X121819350Y-72666800D02*
X122731850Y-72666800D01*
G75*
G02*
X122975600Y-72910550I0J-243750D01*
G01*
X122975600Y-73398050D01*
G75*
G02*
X122731850Y-73641800I-243750J0D01*
G01*
X121819350Y-73641800D01*
G75*
G02*
X121575600Y-73398050I0J243750D01*
G01*
X121575600Y-72910550D01*
G75*
G02*
X121819350Y-72666800I243750J0D01*
G01*
G37*
G04 #@! TD*
G04 #@! TO.C,R23*
G36*
G01*
X106738000Y-73648250D02*
X106738000Y-74560750D01*
G75*
G02*
X106494250Y-74804500I-243750J0D01*
G01*
X106006750Y-74804500D01*
G75*
G02*
X105763000Y-74560750I0J243750D01*
G01*
X105763000Y-73648250D01*
G75*
G02*
X106006750Y-73404500I243750J0D01*
G01*
X106494250Y-73404500D01*
G75*
G02*
X106738000Y-73648250I0J-243750D01*
G01*
G37*
G36*
G01*
X108613000Y-73648250D02*
X108613000Y-74560750D01*
G75*
G02*
X108369250Y-74804500I-243750J0D01*
G01*
X107881750Y-74804500D01*
G75*
G02*
X107638000Y-74560750I0J243750D01*
G01*
X107638000Y-73648250D01*
G75*
G02*
X107881750Y-73404500I243750J0D01*
G01*
X108369250Y-73404500D01*
G75*
G02*
X108613000Y-73648250I0J-243750D01*
G01*
G37*
G04 #@! TD*
G04 #@! TO.C,R24*
G36*
G01*
X107309500Y-64885250D02*
X107309500Y-65797750D01*
G75*
G02*
X107065750Y-66041500I-243750J0D01*
G01*
X106578250Y-66041500D01*
G75*
G02*
X106334500Y-65797750I0J243750D01*
G01*
X106334500Y-64885250D01*
G75*
G02*
X106578250Y-64641500I243750J0D01*
G01*
X107065750Y-64641500D01*
G75*
G02*
X107309500Y-64885250I0J-243750D01*
G01*
G37*
G36*
G01*
X109184500Y-64885250D02*
X109184500Y-65797750D01*
G75*
G02*
X108940750Y-66041500I-243750J0D01*
G01*
X108453250Y-66041500D01*
G75*
G02*
X108209500Y-65797750I0J243750D01*
G01*
X108209500Y-64885250D01*
G75*
G02*
X108453250Y-64641500I243750J0D01*
G01*
X108940750Y-64641500D01*
G75*
G02*
X109184500Y-64885250I0J-243750D01*
G01*
G37*
G04 #@! TD*
G04 #@! TO.C,R29*
G36*
G01*
X103309000Y-73648250D02*
X103309000Y-74560750D01*
G75*
G02*
X103065250Y-74804500I-243750J0D01*
G01*
X102577750Y-74804500D01*
G75*
G02*
X102334000Y-74560750I0J243750D01*
G01*
X102334000Y-73648250D01*
G75*
G02*
X102577750Y-73404500I243750J0D01*
G01*
X103065250Y-73404500D01*
G75*
G02*
X103309000Y-73648250I0J-243750D01*
G01*
G37*
G36*
G01*
X105184000Y-73648250D02*
X105184000Y-74560750D01*
G75*
G02*
X104940250Y-74804500I-243750J0D01*
G01*
X104452750Y-74804500D01*
G75*
G02*
X104209000Y-74560750I0J243750D01*
G01*
X104209000Y-73648250D01*
G75*
G02*
X104452750Y-73404500I243750J0D01*
G01*
X104940250Y-73404500D01*
G75*
G02*
X105184000Y-73648250I0J-243750D01*
G01*
G37*
G04 #@! TD*
G04 #@! TO.C,R21*
G36*
G01*
X100786250Y-61018000D02*
X99873750Y-61018000D01*
G75*
G02*
X99630000Y-60774250I0J243750D01*
G01*
X99630000Y-60286750D01*
G75*
G02*
X99873750Y-60043000I243750J0D01*
G01*
X100786250Y-60043000D01*
G75*
G02*
X101030000Y-60286750I0J-243750D01*
G01*
X101030000Y-60774250D01*
G75*
G02*
X100786250Y-61018000I-243750J0D01*
G01*
G37*
G36*
G01*
X100786250Y-62893000D02*
X99873750Y-62893000D01*
G75*
G02*
X99630000Y-62649250I0J243750D01*
G01*
X99630000Y-62161750D01*
G75*
G02*
X99873750Y-61918000I243750J0D01*
G01*
X100786250Y-61918000D01*
G75*
G02*
X101030000Y-62161750I0J-243750D01*
G01*
X101030000Y-62649250D01*
G75*
G02*
X100786250Y-62893000I-243750J0D01*
G01*
G37*
G04 #@! TD*
G04 #@! TO.C,R28*
G36*
G01*
X120883100Y-70892350D02*
X120883100Y-71804850D01*
G75*
G02*
X120639350Y-72048600I-243750J0D01*
G01*
X120151850Y-72048600D01*
G75*
G02*
X119908100Y-71804850I0J243750D01*
G01*
X119908100Y-70892350D01*
G75*
G02*
X120151850Y-70648600I243750J0D01*
G01*
X120639350Y-70648600D01*
G75*
G02*
X120883100Y-70892350I0J-243750D01*
G01*
G37*
G36*
G01*
X122758100Y-70892350D02*
X122758100Y-71804850D01*
G75*
G02*
X122514350Y-72048600I-243750J0D01*
G01*
X122026850Y-72048600D01*
G75*
G02*
X121783100Y-71804850I0J243750D01*
G01*
X121783100Y-70892350D01*
G75*
G02*
X122026850Y-70648600I243750J0D01*
G01*
X122514350Y-70648600D01*
G75*
G02*
X122758100Y-70892350I0J-243750D01*
G01*
G37*
G04 #@! TD*
G04 #@! TO.C,R27*
G36*
G01*
X127805600Y-71804850D02*
X127805600Y-70892350D01*
G75*
G02*
X128049350Y-70648600I243750J0D01*
G01*
X128536850Y-70648600D01*
G75*
G02*
X128780600Y-70892350I0J-243750D01*
G01*
X128780600Y-71804850D01*
G75*
G02*
X128536850Y-72048600I-243750J0D01*
G01*
X128049350Y-72048600D01*
G75*
G02*
X127805600Y-71804850I0J243750D01*
G01*
G37*
G36*
G01*
X125930600Y-71804850D02*
X125930600Y-70892350D01*
G75*
G02*
X126174350Y-70648600I243750J0D01*
G01*
X126661850Y-70648600D01*
G75*
G02*
X126905600Y-70892350I0J-243750D01*
G01*
X126905600Y-71804850D01*
G75*
G02*
X126661850Y-72048600I-243750J0D01*
G01*
X126174350Y-72048600D01*
G75*
G02*
X125930600Y-71804850I0J243750D01*
G01*
G37*
G04 #@! TD*
G04 #@! TO.C,R19*
G36*
G01*
X91331200Y-80720250D02*
X91331200Y-79807750D01*
G75*
G02*
X91574950Y-79564000I243750J0D01*
G01*
X92062450Y-79564000D01*
G75*
G02*
X92306200Y-79807750I0J-243750D01*
G01*
X92306200Y-80720250D01*
G75*
G02*
X92062450Y-80964000I-243750J0D01*
G01*
X91574950Y-80964000D01*
G75*
G02*
X91331200Y-80720250I0J243750D01*
G01*
G37*
G36*
G01*
X89456200Y-80720250D02*
X89456200Y-79807750D01*
G75*
G02*
X89699950Y-79564000I243750J0D01*
G01*
X90187450Y-79564000D01*
G75*
G02*
X90431200Y-79807750I0J-243750D01*
G01*
X90431200Y-80720250D01*
G75*
G02*
X90187450Y-80964000I-243750J0D01*
G01*
X89699950Y-80964000D01*
G75*
G02*
X89456200Y-80720250I0J243750D01*
G01*
G37*
G04 #@! TD*
G04 #@! TO.C,R9*
G36*
G01*
X73830600Y-65937450D02*
X73830600Y-65024950D01*
G75*
G02*
X74074350Y-64781200I243750J0D01*
G01*
X74561850Y-64781200D01*
G75*
G02*
X74805600Y-65024950I0J-243750D01*
G01*
X74805600Y-65937450D01*
G75*
G02*
X74561850Y-66181200I-243750J0D01*
G01*
X74074350Y-66181200D01*
G75*
G02*
X73830600Y-65937450I0J243750D01*
G01*
G37*
G36*
G01*
X71955600Y-65937450D02*
X71955600Y-65024950D01*
G75*
G02*
X72199350Y-64781200I243750J0D01*
G01*
X72686850Y-64781200D01*
G75*
G02*
X72930600Y-65024950I0J-243750D01*
G01*
X72930600Y-65937450D01*
G75*
G02*
X72686850Y-66181200I-243750J0D01*
G01*
X72199350Y-66181200D01*
G75*
G02*
X71955600Y-65937450I0J243750D01*
G01*
G37*
G04 #@! TD*
G04 #@! TO.C,R22*
G36*
G01*
X97663950Y-61918000D02*
X98576450Y-61918000D01*
G75*
G02*
X98820200Y-62161750I0J-243750D01*
G01*
X98820200Y-62649250D01*
G75*
G02*
X98576450Y-62893000I-243750J0D01*
G01*
X97663950Y-62893000D01*
G75*
G02*
X97420200Y-62649250I0J243750D01*
G01*
X97420200Y-62161750D01*
G75*
G02*
X97663950Y-61918000I243750J0D01*
G01*
G37*
G36*
G01*
X97663950Y-60043000D02*
X98576450Y-60043000D01*
G75*
G02*
X98820200Y-60286750I0J-243750D01*
G01*
X98820200Y-60774250D01*
G75*
G02*
X98576450Y-61018000I-243750J0D01*
G01*
X97663950Y-61018000D01*
G75*
G02*
X97420200Y-60774250I0J243750D01*
G01*
X97420200Y-60286750D01*
G75*
G02*
X97663950Y-60043000I243750J0D01*
G01*
G37*
G04 #@! TD*
G04 #@! TO.C,R18*
G36*
G01*
X90823200Y-116000850D02*
X90823200Y-115088350D01*
G75*
G02*
X91066950Y-114844600I243750J0D01*
G01*
X91554450Y-114844600D01*
G75*
G02*
X91798200Y-115088350I0J-243750D01*
G01*
X91798200Y-116000850D01*
G75*
G02*
X91554450Y-116244600I-243750J0D01*
G01*
X91066950Y-116244600D01*
G75*
G02*
X90823200Y-116000850I0J243750D01*
G01*
G37*
G36*
G01*
X88948200Y-116000850D02*
X88948200Y-115088350D01*
G75*
G02*
X89191950Y-114844600I243750J0D01*
G01*
X89679450Y-114844600D01*
G75*
G02*
X89923200Y-115088350I0J-243750D01*
G01*
X89923200Y-116000850D01*
G75*
G02*
X89679450Y-116244600I-243750J0D01*
G01*
X89191950Y-116244600D01*
G75*
G02*
X88948200Y-116000850I0J243750D01*
G01*
G37*
G04 #@! TD*
D12*
G04 #@! TO.C,D5*
X53247600Y-54322800D03*
X54197600Y-56522800D03*
X52297600Y-56522800D03*
G04 #@! TD*
G04 #@! TO.C,D4*
X138633200Y-58767800D03*
X139583200Y-60967800D03*
X137683200Y-60967800D03*
G04 #@! TD*
D13*
G04 #@! TO.C,Q5*
X107797600Y-61307000D03*
X108757600Y-63407000D03*
X106837600Y-63407000D03*
G04 #@! TD*
D14*
G04 #@! TO.C,Q3*
X103505000Y-63567600D03*
X104455000Y-65667600D03*
X102555000Y-65667600D03*
G04 #@! TD*
D15*
G04 #@! TO.C,Q4*
X100211600Y-65024000D03*
X98111600Y-65974000D03*
X98111600Y-64074000D03*
G04 #@! TD*
D14*
G04 #@! TO.C,Q2*
X90881200Y-76226200D03*
X91831200Y-78326200D03*
X89931200Y-78326200D03*
G04 #@! TD*
G04 #@! TO.C,Q1*
X73380600Y-61434000D03*
X74330600Y-63534000D03*
X72430600Y-63534000D03*
G04 #@! TD*
D16*
G04 #@! TO.C,L6*
X130499800Y-83831000D03*
X132999800Y-83831000D03*
X132999800Y-88381000D03*
X130499800Y-88381000D03*
G04 #@! TD*
G04 #@! TO.C,L5*
X65724600Y-75847000D03*
X68224600Y-75847000D03*
X68224600Y-80397000D03*
X65724600Y-80397000D03*
G04 #@! TD*
D17*
G04 #@! TO.C,L9*
X87839000Y-89179400D03*
X91739000Y-89179400D03*
G04 #@! TD*
G04 #@! TO.C,F2*
G36*
G01*
X108127500Y-58607800D02*
X108127500Y-59857800D01*
G75*
G02*
X107877500Y-60107800I-250000J0D01*
G01*
X107127500Y-60107800D01*
G75*
G02*
X106877500Y-59857800I0J250000D01*
G01*
X106877500Y-58607800D01*
G75*
G02*
X107127500Y-58357800I250000J0D01*
G01*
X107877500Y-58357800D01*
G75*
G02*
X108127500Y-58607800I0J-250000D01*
G01*
G37*
G36*
G01*
X110927500Y-58607800D02*
X110927500Y-59857800D01*
G75*
G02*
X110677500Y-60107800I-250000J0D01*
G01*
X109927500Y-60107800D01*
G75*
G02*
X109677500Y-59857800I0J250000D01*
G01*
X109677500Y-58607800D01*
G75*
G02*
X109927500Y-58357800I250000J0D01*
G01*
X110677500Y-58357800D01*
G75*
G02*
X110927500Y-58607800I0J-250000D01*
G01*
G37*
G04 #@! TD*
G04 #@! TO.C,F3*
G36*
G01*
X104638000Y-58661000D02*
X103388000Y-58661000D01*
G75*
G02*
X103138000Y-58411000I0J250000D01*
G01*
X103138000Y-57661000D01*
G75*
G02*
X103388000Y-57411000I250000J0D01*
G01*
X104638000Y-57411000D01*
G75*
G02*
X104888000Y-57661000I0J-250000D01*
G01*
X104888000Y-58411000D01*
G75*
G02*
X104638000Y-58661000I-250000J0D01*
G01*
G37*
G36*
G01*
X104638000Y-61461000D02*
X103388000Y-61461000D01*
G75*
G02*
X103138000Y-61211000I0J250000D01*
G01*
X103138000Y-60461000D01*
G75*
G02*
X103388000Y-60211000I250000J0D01*
G01*
X104638000Y-60211000D01*
G75*
G02*
X104888000Y-60461000I0J-250000D01*
G01*
X104888000Y-61211000D01*
G75*
G02*
X104638000Y-61461000I-250000J0D01*
G01*
G37*
G04 #@! TD*
D18*
G04 #@! TO.C,F1*
X110711500Y-74168000D03*
X116491500Y-74168000D03*
G04 #@! TD*
D19*
G04 #@! TO.C,D6*
X109169200Y-83073600D03*
X109169200Y-78673600D03*
G04 #@! TD*
G04 #@! TO.C,D3*
X79781400Y-65896600D03*
X79781400Y-61496600D03*
G04 #@! TD*
D20*
G04 #@! TO.C,U7*
X122603100Y-68744200D03*
X120063100Y-68744200D03*
X120063100Y-62244200D03*
X122603100Y-62244200D03*
G04 #@! TD*
G04 #@! TO.C,U6*
X128625600Y-68744200D03*
X126085600Y-68744200D03*
X126085600Y-62244200D03*
X128625600Y-62244200D03*
G04 #@! TD*
D21*
G04 #@! TO.C,U5*
X99594300Y-71120000D03*
X99594300Y-68580000D03*
X106094300Y-68580000D03*
X106094300Y-71120000D03*
G04 #@! TD*
D20*
G04 #@! TO.C,U4*
X82423000Y-86473400D03*
X79883000Y-86473400D03*
X79883000Y-79973400D03*
X82423000Y-79973400D03*
G04 #@! TD*
G04 #@! TO.C,U3*
X76479400Y-76465800D03*
X73939400Y-76465800D03*
X73939400Y-69965800D03*
X76479400Y-69965800D03*
G04 #@! TD*
D22*
G04 #@! TO.C,C44*
X104198200Y-81203800D03*
X95598200Y-81203800D03*
G04 #@! TD*
G04 #@! TO.C,R13*
G36*
G01*
X136413400Y-83636000D02*
X135163400Y-83636000D01*
G75*
G02*
X134913400Y-83386000I0J250000D01*
G01*
X134913400Y-82636000D01*
G75*
G02*
X135163400Y-82386000I250000J0D01*
G01*
X136413400Y-82386000D01*
G75*
G02*
X136663400Y-82636000I0J-250000D01*
G01*
X136663400Y-83386000D01*
G75*
G02*
X136413400Y-83636000I-250000J0D01*
G01*
G37*
G36*
G01*
X136413400Y-86436000D02*
X135163400Y-86436000D01*
G75*
G02*
X134913400Y-86186000I0J250000D01*
G01*
X134913400Y-85436000D01*
G75*
G02*
X135163400Y-85186000I250000J0D01*
G01*
X136413400Y-85186000D01*
G75*
G02*
X136663400Y-85436000I0J-250000D01*
G01*
X136663400Y-86186000D01*
G75*
G02*
X136413400Y-86436000I-250000J0D01*
G01*
G37*
G04 #@! TD*
G04 #@! TO.C,R12*
G36*
G01*
X126425800Y-85186000D02*
X127675800Y-85186000D01*
G75*
G02*
X127925800Y-85436000I0J-250000D01*
G01*
X127925800Y-86186000D01*
G75*
G02*
X127675800Y-86436000I-250000J0D01*
G01*
X126425800Y-86436000D01*
G75*
G02*
X126175800Y-86186000I0J250000D01*
G01*
X126175800Y-85436000D01*
G75*
G02*
X126425800Y-85186000I250000J0D01*
G01*
G37*
G36*
G01*
X126425800Y-82386000D02*
X127675800Y-82386000D01*
G75*
G02*
X127925800Y-82636000I0J-250000D01*
G01*
X127925800Y-83386000D01*
G75*
G02*
X127675800Y-83636000I-250000J0D01*
G01*
X126425800Y-83636000D01*
G75*
G02*
X126175800Y-83386000I0J250000D01*
G01*
X126175800Y-82636000D01*
G75*
G02*
X126425800Y-82386000I250000J0D01*
G01*
G37*
G04 #@! TD*
G04 #@! TO.C,C35*
G36*
G01*
X135142150Y-88742000D02*
X135654650Y-88742000D01*
G75*
G02*
X135873400Y-88960750I0J-218750D01*
G01*
X135873400Y-89398250D01*
G75*
G02*
X135654650Y-89617000I-218750J0D01*
G01*
X135142150Y-89617000D01*
G75*
G02*
X134923400Y-89398250I0J218750D01*
G01*
X134923400Y-88960750D01*
G75*
G02*
X135142150Y-88742000I218750J0D01*
G01*
G37*
G36*
G01*
X135142150Y-87167000D02*
X135654650Y-87167000D01*
G75*
G02*
X135873400Y-87385750I0J-218750D01*
G01*
X135873400Y-87823250D01*
G75*
G02*
X135654650Y-88042000I-218750J0D01*
G01*
X135142150Y-88042000D01*
G75*
G02*
X134923400Y-87823250I0J218750D01*
G01*
X134923400Y-87385750D01*
G75*
G02*
X135142150Y-87167000I218750J0D01*
G01*
G37*
G04 #@! TD*
G04 #@! TO.C,R26*
G36*
G01*
X120708000Y-58116150D02*
X120708000Y-59028650D01*
G75*
G02*
X120464250Y-59272400I-243750J0D01*
G01*
X119976750Y-59272400D01*
G75*
G02*
X119733000Y-59028650I0J243750D01*
G01*
X119733000Y-58116150D01*
G75*
G02*
X119976750Y-57872400I243750J0D01*
G01*
X120464250Y-57872400D01*
G75*
G02*
X120708000Y-58116150I0J-243750D01*
G01*
G37*
G36*
G01*
X122583000Y-58116150D02*
X122583000Y-59028650D01*
G75*
G02*
X122339250Y-59272400I-243750J0D01*
G01*
X121851750Y-59272400D01*
G75*
G02*
X121608000Y-59028650I0J243750D01*
G01*
X121608000Y-58116150D01*
G75*
G02*
X121851750Y-57872400I243750J0D01*
G01*
X122339250Y-57872400D01*
G75*
G02*
X122583000Y-58116150I0J-243750D01*
G01*
G37*
G04 #@! TD*
G04 #@! TO.C,R25*
G36*
G01*
X125610200Y-58116150D02*
X125610200Y-59028650D01*
G75*
G02*
X125366450Y-59272400I-243750J0D01*
G01*
X124878950Y-59272400D01*
G75*
G02*
X124635200Y-59028650I0J243750D01*
G01*
X124635200Y-58116150D01*
G75*
G02*
X124878950Y-57872400I243750J0D01*
G01*
X125366450Y-57872400D01*
G75*
G02*
X125610200Y-58116150I0J-243750D01*
G01*
G37*
G36*
G01*
X127485200Y-58116150D02*
X127485200Y-59028650D01*
G75*
G02*
X127241450Y-59272400I-243750J0D01*
G01*
X126753950Y-59272400D01*
G75*
G02*
X126510200Y-59028650I0J243750D01*
G01*
X126510200Y-58116150D01*
G75*
G02*
X126753950Y-57872400I243750J0D01*
G01*
X127241450Y-57872400D01*
G75*
G02*
X127485200Y-58116150I0J-243750D01*
G01*
G37*
G04 #@! TD*
D23*
G04 #@! TO.C,IC2*
X65223400Y-91643200D03*
X65223400Y-89103200D03*
X65223400Y-86563200D03*
X65223400Y-84023200D03*
X74273400Y-84023200D03*
X74273400Y-86563200D03*
X74273400Y-89103200D03*
X74273400Y-91643200D03*
G04 #@! TD*
G04 #@! TO.C,R14*
G36*
G01*
X84709950Y-79799600D02*
X85622450Y-79799600D01*
G75*
G02*
X85866200Y-80043350I0J-243750D01*
G01*
X85866200Y-80530850D01*
G75*
G02*
X85622450Y-80774600I-243750J0D01*
G01*
X84709950Y-80774600D01*
G75*
G02*
X84466200Y-80530850I0J243750D01*
G01*
X84466200Y-80043350D01*
G75*
G02*
X84709950Y-79799600I243750J0D01*
G01*
G37*
G36*
G01*
X84709950Y-77924600D02*
X85622450Y-77924600D01*
G75*
G02*
X85866200Y-78168350I0J-243750D01*
G01*
X85866200Y-78655850D01*
G75*
G02*
X85622450Y-78899600I-243750J0D01*
G01*
X84709950Y-78899600D01*
G75*
G02*
X84466200Y-78655850I0J243750D01*
G01*
X84466200Y-78168350D01*
G75*
G02*
X84709950Y-77924600I243750J0D01*
G01*
G37*
G04 #@! TD*
G04 #@! TO.C,R2*
G36*
G01*
X89622950Y-111202700D02*
X88710450Y-111202700D01*
G75*
G02*
X88466700Y-110958950I0J243750D01*
G01*
X88466700Y-110471450D01*
G75*
G02*
X88710450Y-110227700I243750J0D01*
G01*
X89622950Y-110227700D01*
G75*
G02*
X89866700Y-110471450I0J-243750D01*
G01*
X89866700Y-110958950D01*
G75*
G02*
X89622950Y-111202700I-243750J0D01*
G01*
G37*
G36*
G01*
X89622950Y-113077700D02*
X88710450Y-113077700D01*
G75*
G02*
X88466700Y-112833950I0J243750D01*
G01*
X88466700Y-112346450D01*
G75*
G02*
X88710450Y-112102700I243750J0D01*
G01*
X89622950Y-112102700D01*
G75*
G02*
X89866700Y-112346450I0J-243750D01*
G01*
X89866700Y-112833950D01*
G75*
G02*
X89622950Y-113077700I-243750J0D01*
G01*
G37*
G04 #@! TD*
G04 #@! TO.C,C37*
G36*
G01*
X73520000Y-80959800D02*
X73520000Y-82209800D01*
G75*
G02*
X73270000Y-82459800I-250000J0D01*
G01*
X72520000Y-82459800D01*
G75*
G02*
X72270000Y-82209800I0J250000D01*
G01*
X72270000Y-80959800D01*
G75*
G02*
X72520000Y-80709800I250000J0D01*
G01*
X73270000Y-80709800D01*
G75*
G02*
X73520000Y-80959800I0J-250000D01*
G01*
G37*
G36*
G01*
X76320000Y-80959800D02*
X76320000Y-82209800D01*
G75*
G02*
X76070000Y-82459800I-250000J0D01*
G01*
X75320000Y-82459800D01*
G75*
G02*
X75070000Y-82209800I0J250000D01*
G01*
X75070000Y-80959800D01*
G75*
G02*
X75320000Y-80709800I250000J0D01*
G01*
X76070000Y-80709800D01*
G75*
G02*
X76320000Y-80959800I0J-250000D01*
G01*
G37*
G04 #@! TD*
G04 #@! TO.C,C36*
G36*
G01*
X123154600Y-113906000D02*
X121904600Y-113906000D01*
G75*
G02*
X121654600Y-113656000I0J250000D01*
G01*
X121654600Y-112906000D01*
G75*
G02*
X121904600Y-112656000I250000J0D01*
G01*
X123154600Y-112656000D01*
G75*
G02*
X123404600Y-112906000I0J-250000D01*
G01*
X123404600Y-113656000D01*
G75*
G02*
X123154600Y-113906000I-250000J0D01*
G01*
G37*
G36*
G01*
X123154600Y-116706000D02*
X121904600Y-116706000D01*
G75*
G02*
X121654600Y-116456000I0J250000D01*
G01*
X121654600Y-115706000D01*
G75*
G02*
X121904600Y-115456000I250000J0D01*
G01*
X123154600Y-115456000D01*
G75*
G02*
X123404600Y-115706000I0J-250000D01*
G01*
X123404600Y-116456000D01*
G75*
G02*
X123154600Y-116706000I-250000J0D01*
G01*
G37*
G04 #@! TD*
G04 #@! TO.C,C33*
G36*
G01*
X65900000Y-93405800D02*
X65900000Y-94655800D01*
G75*
G02*
X65650000Y-94905800I-250000J0D01*
G01*
X64900000Y-94905800D01*
G75*
G02*
X64650000Y-94655800I0J250000D01*
G01*
X64650000Y-93405800D01*
G75*
G02*
X64900000Y-93155800I250000J0D01*
G01*
X65650000Y-93155800D01*
G75*
G02*
X65900000Y-93405800I0J-250000D01*
G01*
G37*
G36*
G01*
X68700000Y-93405800D02*
X68700000Y-94655800D01*
G75*
G02*
X68450000Y-94905800I-250000J0D01*
G01*
X67700000Y-94905800D01*
G75*
G02*
X67450000Y-94655800I0J250000D01*
G01*
X67450000Y-93405800D01*
G75*
G02*
X67700000Y-93155800I250000J0D01*
G01*
X68450000Y-93155800D01*
G75*
G02*
X68700000Y-93405800I0J-250000D01*
G01*
G37*
G04 #@! TD*
G04 #@! TO.C,C32*
G36*
G01*
X133464600Y-114226500D02*
X133464600Y-112976500D01*
G75*
G02*
X133714600Y-112726500I250000J0D01*
G01*
X134464600Y-112726500D01*
G75*
G02*
X134714600Y-112976500I0J-250000D01*
G01*
X134714600Y-114226500D01*
G75*
G02*
X134464600Y-114476500I-250000J0D01*
G01*
X133714600Y-114476500D01*
G75*
G02*
X133464600Y-114226500I0J250000D01*
G01*
G37*
G36*
G01*
X130664600Y-114226500D02*
X130664600Y-112976500D01*
G75*
G02*
X130914600Y-112726500I250000J0D01*
G01*
X131664600Y-112726500D01*
G75*
G02*
X131914600Y-112976500I0J-250000D01*
G01*
X131914600Y-114226500D01*
G75*
G02*
X131664600Y-114476500I-250000J0D01*
G01*
X130914600Y-114476500D01*
G75*
G02*
X130664600Y-114226500I0J250000D01*
G01*
G37*
G04 #@! TD*
G04 #@! TO.C,C26*
G36*
G01*
X83426000Y-113421000D02*
X83426000Y-114671000D01*
G75*
G02*
X83176000Y-114921000I-250000J0D01*
G01*
X82426000Y-114921000D01*
G75*
G02*
X82176000Y-114671000I0J250000D01*
G01*
X82176000Y-113421000D01*
G75*
G02*
X82426000Y-113171000I250000J0D01*
G01*
X83176000Y-113171000D01*
G75*
G02*
X83426000Y-113421000I0J-250000D01*
G01*
G37*
G36*
G01*
X86226000Y-113421000D02*
X86226000Y-114671000D01*
G75*
G02*
X85976000Y-114921000I-250000J0D01*
G01*
X85226000Y-114921000D01*
G75*
G02*
X84976000Y-114671000I0J250000D01*
G01*
X84976000Y-113421000D01*
G75*
G02*
X85226000Y-113171000I250000J0D01*
G01*
X85976000Y-113171000D01*
G75*
G02*
X86226000Y-113421000I0J-250000D01*
G01*
G37*
G04 #@! TD*
G04 #@! TO.C,C24*
G36*
G01*
X107000200Y-110477000D02*
X105750200Y-110477000D01*
G75*
G02*
X105500200Y-110227000I0J250000D01*
G01*
X105500200Y-109477000D01*
G75*
G02*
X105750200Y-109227000I250000J0D01*
G01*
X107000200Y-109227000D01*
G75*
G02*
X107250200Y-109477000I0J-250000D01*
G01*
X107250200Y-110227000D01*
G75*
G02*
X107000200Y-110477000I-250000J0D01*
G01*
G37*
G36*
G01*
X107000200Y-113277000D02*
X105750200Y-113277000D01*
G75*
G02*
X105500200Y-113027000I0J250000D01*
G01*
X105500200Y-112277000D01*
G75*
G02*
X105750200Y-112027000I250000J0D01*
G01*
X107000200Y-112027000D01*
G75*
G02*
X107250200Y-112277000I0J-250000D01*
G01*
X107250200Y-113027000D01*
G75*
G02*
X107000200Y-113277000I-250000J0D01*
G01*
G37*
G04 #@! TD*
G04 #@! TO.C,C6*
G36*
G01*
X95006000Y-132423200D02*
X96256000Y-132423200D01*
G75*
G02*
X96506000Y-132673200I0J-250000D01*
G01*
X96506000Y-133423200D01*
G75*
G02*
X96256000Y-133673200I-250000J0D01*
G01*
X95006000Y-133673200D01*
G75*
G02*
X94756000Y-133423200I0J250000D01*
G01*
X94756000Y-132673200D01*
G75*
G02*
X95006000Y-132423200I250000J0D01*
G01*
G37*
G36*
G01*
X95006000Y-129623200D02*
X96256000Y-129623200D01*
G75*
G02*
X96506000Y-129873200I0J-250000D01*
G01*
X96506000Y-130623200D01*
G75*
G02*
X96256000Y-130873200I-250000J0D01*
G01*
X95006000Y-130873200D01*
G75*
G02*
X94756000Y-130623200I0J250000D01*
G01*
X94756000Y-129873200D01*
G75*
G02*
X95006000Y-129623200I250000J0D01*
G01*
G37*
G04 #@! TD*
G04 #@! TO.C,C1*
G36*
G01*
X88833800Y-132181900D02*
X90083800Y-132181900D01*
G75*
G02*
X90333800Y-132431900I0J-250000D01*
G01*
X90333800Y-133181900D01*
G75*
G02*
X90083800Y-133431900I-250000J0D01*
G01*
X88833800Y-133431900D01*
G75*
G02*
X88583800Y-133181900I0J250000D01*
G01*
X88583800Y-132431900D01*
G75*
G02*
X88833800Y-132181900I250000J0D01*
G01*
G37*
G36*
G01*
X88833800Y-129381900D02*
X90083800Y-129381900D01*
G75*
G02*
X90333800Y-129631900I0J-250000D01*
G01*
X90333800Y-130381900D01*
G75*
G02*
X90083800Y-130631900I-250000J0D01*
G01*
X88833800Y-130631900D01*
G75*
G02*
X88583800Y-130381900I0J250000D01*
G01*
X88583800Y-129631900D01*
G75*
G02*
X88833800Y-129381900I250000J0D01*
G01*
G37*
G04 #@! TD*
G04 #@! TO.C,R10*
G36*
G01*
X63868000Y-71485600D02*
X63868000Y-72735600D01*
G75*
G02*
X63618000Y-72985600I-250000J0D01*
G01*
X62868000Y-72985600D01*
G75*
G02*
X62618000Y-72735600I0J250000D01*
G01*
X62618000Y-71485600D01*
G75*
G02*
X62868000Y-71235600I250000J0D01*
G01*
X63618000Y-71235600D01*
G75*
G02*
X63868000Y-71485600I0J-250000D01*
G01*
G37*
G36*
G01*
X66668000Y-71485600D02*
X66668000Y-72735600D01*
G75*
G02*
X66418000Y-72985600I-250000J0D01*
G01*
X65668000Y-72985600D01*
G75*
G02*
X65418000Y-72735600I0J250000D01*
G01*
X65418000Y-71485600D01*
G75*
G02*
X65668000Y-71235600I250000J0D01*
G01*
X66418000Y-71235600D01*
G75*
G02*
X66668000Y-71485600I0J-250000D01*
G01*
G37*
G04 #@! TD*
G04 #@! TO.C,R11*
G36*
G01*
X68516200Y-71485600D02*
X68516200Y-72735600D01*
G75*
G02*
X68266200Y-72985600I-250000J0D01*
G01*
X67516200Y-72985600D01*
G75*
G02*
X67266200Y-72735600I0J250000D01*
G01*
X67266200Y-71485600D01*
G75*
G02*
X67516200Y-71235600I250000J0D01*
G01*
X68266200Y-71235600D01*
G75*
G02*
X68516200Y-71485600I0J-250000D01*
G01*
G37*
G36*
G01*
X71316200Y-71485600D02*
X71316200Y-72735600D01*
G75*
G02*
X71066200Y-72985600I-250000J0D01*
G01*
X70316200Y-72985600D01*
G75*
G02*
X70066200Y-72735600I0J250000D01*
G01*
X70066200Y-71485600D01*
G75*
G02*
X70316200Y-71235600I250000J0D01*
G01*
X71066200Y-71235600D01*
G75*
G02*
X71316200Y-71485600I0J-250000D01*
G01*
G37*
G04 #@! TD*
G04 #@! TO.C,C34*
G36*
G01*
X62456350Y-77718400D02*
X62968850Y-77718400D01*
G75*
G02*
X63187600Y-77937150I0J-218750D01*
G01*
X63187600Y-78374650D01*
G75*
G02*
X62968850Y-78593400I-218750J0D01*
G01*
X62456350Y-78593400D01*
G75*
G02*
X62237600Y-78374650I0J218750D01*
G01*
X62237600Y-77937150D01*
G75*
G02*
X62456350Y-77718400I218750J0D01*
G01*
G37*
G36*
G01*
X62456350Y-76143400D02*
X62968850Y-76143400D01*
G75*
G02*
X63187600Y-76362150I0J-218750D01*
G01*
X63187600Y-76799650D01*
G75*
G02*
X62968850Y-77018400I-218750J0D01*
G01*
X62456350Y-77018400D01*
G75*
G02*
X62237600Y-76799650I0J218750D01*
G01*
X62237600Y-76362150D01*
G75*
G02*
X62456350Y-76143400I218750J0D01*
G01*
G37*
G04 #@! TD*
G04 #@! TO.C,R20*
G36*
G01*
X83801800Y-58141550D02*
X83801800Y-59054050D01*
G75*
G02*
X83558050Y-59297800I-243750J0D01*
G01*
X83070550Y-59297800D01*
G75*
G02*
X82826800Y-59054050I0J243750D01*
G01*
X82826800Y-58141550D01*
G75*
G02*
X83070550Y-57897800I243750J0D01*
G01*
X83558050Y-57897800D01*
G75*
G02*
X83801800Y-58141550I0J-243750D01*
G01*
G37*
G36*
G01*
X85676800Y-58141550D02*
X85676800Y-59054050D01*
G75*
G02*
X85433050Y-59297800I-243750J0D01*
G01*
X84945550Y-59297800D01*
G75*
G02*
X84701800Y-59054050I0J243750D01*
G01*
X84701800Y-58141550D01*
G75*
G02*
X84945550Y-57897800I243750J0D01*
G01*
X85433050Y-57897800D01*
G75*
G02*
X85676800Y-58141550I0J-243750D01*
G01*
G37*
G04 #@! TD*
G04 #@! TO.C,R8*
G36*
G01*
X73853700Y-59943050D02*
X73853700Y-59030550D01*
G75*
G02*
X74097450Y-58786800I243750J0D01*
G01*
X74584950Y-58786800D01*
G75*
G02*
X74828700Y-59030550I0J-243750D01*
G01*
X74828700Y-59943050D01*
G75*
G02*
X74584950Y-60186800I-243750J0D01*
G01*
X74097450Y-60186800D01*
G75*
G02*
X73853700Y-59943050I0J243750D01*
G01*
G37*
G36*
G01*
X71978700Y-59943050D02*
X71978700Y-59030550D01*
G75*
G02*
X72222450Y-58786800I243750J0D01*
G01*
X72709950Y-58786800D01*
G75*
G02*
X72953700Y-59030550I0J-243750D01*
G01*
X72953700Y-59943050D01*
G75*
G02*
X72709950Y-60186800I-243750J0D01*
G01*
X72222450Y-60186800D01*
G75*
G02*
X71978700Y-59943050I0J243750D01*
G01*
G37*
G04 #@! TD*
G04 #@! TO.C,R16*
G36*
G01*
X82746000Y-76732450D02*
X82746000Y-75819950D01*
G75*
G02*
X82989750Y-75576200I243750J0D01*
G01*
X83477250Y-75576200D01*
G75*
G02*
X83721000Y-75819950I0J-243750D01*
G01*
X83721000Y-76732450D01*
G75*
G02*
X83477250Y-76976200I-243750J0D01*
G01*
X82989750Y-76976200D01*
G75*
G02*
X82746000Y-76732450I0J243750D01*
G01*
G37*
G36*
G01*
X80871000Y-76732450D02*
X80871000Y-75819950D01*
G75*
G02*
X81114750Y-75576200I243750J0D01*
G01*
X81602250Y-75576200D01*
G75*
G02*
X81846000Y-75819950I0J-243750D01*
G01*
X81846000Y-76732450D01*
G75*
G02*
X81602250Y-76976200I-243750J0D01*
G01*
X81114750Y-76976200D01*
G75*
G02*
X80871000Y-76732450I0J243750D01*
G01*
G37*
G04 #@! TD*
G04 #@! TO.C,R15*
G36*
G01*
X76986450Y-61462500D02*
X76073950Y-61462500D01*
G75*
G02*
X75830200Y-61218750I0J243750D01*
G01*
X75830200Y-60731250D01*
G75*
G02*
X76073950Y-60487500I243750J0D01*
G01*
X76986450Y-60487500D01*
G75*
G02*
X77230200Y-60731250I0J-243750D01*
G01*
X77230200Y-61218750D01*
G75*
G02*
X76986450Y-61462500I-243750J0D01*
G01*
G37*
G36*
G01*
X76986450Y-63337500D02*
X76073950Y-63337500D01*
G75*
G02*
X75830200Y-63093750I0J243750D01*
G01*
X75830200Y-62606250D01*
G75*
G02*
X76073950Y-62362500I243750J0D01*
G01*
X76986450Y-62362500D01*
G75*
G02*
X77230200Y-62606250I0J-243750D01*
G01*
X77230200Y-63093750D01*
G75*
G02*
X76986450Y-63337500I-243750J0D01*
G01*
G37*
G04 #@! TD*
G04 #@! TO.C,C46*
G36*
G01*
X97583200Y-88631000D02*
X96333200Y-88631000D01*
G75*
G02*
X96083200Y-88381000I0J250000D01*
G01*
X96083200Y-87631000D01*
G75*
G02*
X96333200Y-87381000I250000J0D01*
G01*
X97583200Y-87381000D01*
G75*
G02*
X97833200Y-87631000I0J-250000D01*
G01*
X97833200Y-88381000D01*
G75*
G02*
X97583200Y-88631000I-250000J0D01*
G01*
G37*
G36*
G01*
X97583200Y-91431000D02*
X96333200Y-91431000D01*
G75*
G02*
X96083200Y-91181000I0J250000D01*
G01*
X96083200Y-90431000D01*
G75*
G02*
X96333200Y-90181000I250000J0D01*
G01*
X97583200Y-90181000D01*
G75*
G02*
X97833200Y-90431000I0J-250000D01*
G01*
X97833200Y-91181000D01*
G75*
G02*
X97583200Y-91431000I-250000J0D01*
G01*
G37*
G04 #@! TD*
G04 #@! TO.C,C47*
G36*
G01*
X86045200Y-88607600D02*
X84795200Y-88607600D01*
G75*
G02*
X84545200Y-88357600I0J250000D01*
G01*
X84545200Y-87607600D01*
G75*
G02*
X84795200Y-87357600I250000J0D01*
G01*
X86045200Y-87357600D01*
G75*
G02*
X86295200Y-87607600I0J-250000D01*
G01*
X86295200Y-88357600D01*
G75*
G02*
X86045200Y-88607600I-250000J0D01*
G01*
G37*
G36*
G01*
X86045200Y-91407600D02*
X84795200Y-91407600D01*
G75*
G02*
X84545200Y-91157600I0J250000D01*
G01*
X84545200Y-90407600D01*
G75*
G02*
X84795200Y-90157600I250000J0D01*
G01*
X86045200Y-90157600D01*
G75*
G02*
X86295200Y-90407600I0J-250000D01*
G01*
X86295200Y-91157600D01*
G75*
G02*
X86045200Y-91407600I-250000J0D01*
G01*
G37*
G04 #@! TD*
G04 #@! TO.C,C45*
G36*
G01*
X95214600Y-88631000D02*
X93964600Y-88631000D01*
G75*
G02*
X93714600Y-88381000I0J250000D01*
G01*
X93714600Y-87631000D01*
G75*
G02*
X93964600Y-87381000I250000J0D01*
G01*
X95214600Y-87381000D01*
G75*
G02*
X95464600Y-87631000I0J-250000D01*
G01*
X95464600Y-88381000D01*
G75*
G02*
X95214600Y-88631000I-250000J0D01*
G01*
G37*
G36*
G01*
X95214600Y-91431000D02*
X93964600Y-91431000D01*
G75*
G02*
X93714600Y-91181000I0J250000D01*
G01*
X93714600Y-90431000D01*
G75*
G02*
X93964600Y-90181000I250000J0D01*
G01*
X95214600Y-90181000D01*
G75*
G02*
X95464600Y-90431000I0J-250000D01*
G01*
X95464600Y-91181000D01*
G75*
G02*
X95214600Y-91431000I-250000J0D01*
G01*
G37*
G04 #@! TD*
G04 #@! TO.C,C40*
G36*
G01*
X129139100Y-103135750D02*
X129139100Y-102223250D01*
G75*
G02*
X129382850Y-101979500I243750J0D01*
G01*
X129870350Y-101979500D01*
G75*
G02*
X130114100Y-102223250I0J-243750D01*
G01*
X130114100Y-103135750D01*
G75*
G02*
X129870350Y-103379500I-243750J0D01*
G01*
X129382850Y-103379500D01*
G75*
G02*
X129139100Y-103135750I0J243750D01*
G01*
G37*
G36*
G01*
X127264100Y-103135750D02*
X127264100Y-102223250D01*
G75*
G02*
X127507850Y-101979500I243750J0D01*
G01*
X127995350Y-101979500D01*
G75*
G02*
X128239100Y-102223250I0J-243750D01*
G01*
X128239100Y-103135750D01*
G75*
G02*
X127995350Y-103379500I-243750J0D01*
G01*
X127507850Y-103379500D01*
G75*
G02*
X127264100Y-103135750I0J243750D01*
G01*
G37*
G04 #@! TD*
G04 #@! TO.C,C42*
G36*
G01*
X131978100Y-101864000D02*
X131978100Y-103114000D01*
G75*
G02*
X131728100Y-103364000I-250000J0D01*
G01*
X130978100Y-103364000D01*
G75*
G02*
X130728100Y-103114000I0J250000D01*
G01*
X130728100Y-101864000D01*
G75*
G02*
X130978100Y-101614000I250000J0D01*
G01*
X131728100Y-101614000D01*
G75*
G02*
X131978100Y-101864000I0J-250000D01*
G01*
G37*
G36*
G01*
X134778100Y-101864000D02*
X134778100Y-103114000D01*
G75*
G02*
X134528100Y-103364000I-250000J0D01*
G01*
X133778100Y-103364000D01*
G75*
G02*
X133528100Y-103114000I0J250000D01*
G01*
X133528100Y-101864000D01*
G75*
G02*
X133778100Y-101614000I250000J0D01*
G01*
X134528100Y-101614000D01*
G75*
G02*
X134778100Y-101864000I0J-250000D01*
G01*
G37*
G04 #@! TD*
D24*
G04 #@! TO.C,Y2*
X100056000Y-104648000D03*
X97556000Y-104648000D03*
G04 #@! TD*
D25*
G04 #@! TO.C,U1*
X81114900Y-122637000D03*
X82384900Y-122637000D03*
X83654900Y-122637000D03*
X84924900Y-122637000D03*
X84924900Y-128061000D03*
X83654900Y-128061000D03*
X82384900Y-128061000D03*
X81114900Y-128061000D03*
G04 #@! TD*
G04 #@! TO.C,C23*
G36*
G01*
X104447500Y-109892800D02*
X103197500Y-109892800D01*
G75*
G02*
X102947500Y-109642800I0J250000D01*
G01*
X102947500Y-108892800D01*
G75*
G02*
X103197500Y-108642800I250000J0D01*
G01*
X104447500Y-108642800D01*
G75*
G02*
X104697500Y-108892800I0J-250000D01*
G01*
X104697500Y-109642800D01*
G75*
G02*
X104447500Y-109892800I-250000J0D01*
G01*
G37*
G36*
G01*
X104447500Y-112692800D02*
X103197500Y-112692800D01*
G75*
G02*
X102947500Y-112442800I0J250000D01*
G01*
X102947500Y-111692800D01*
G75*
G02*
X103197500Y-111442800I250000J0D01*
G01*
X104447500Y-111442800D01*
G75*
G02*
X104697500Y-111692800I0J-250000D01*
G01*
X104697500Y-112442800D01*
G75*
G02*
X104447500Y-112692800I-250000J0D01*
G01*
G37*
G04 #@! TD*
D26*
G04 #@! TO.C,L7*
X119519700Y-107054100D03*
X119519700Y-110954100D03*
G04 #@! TD*
G04 #@! TO.C,L8*
X78511400Y-97073000D03*
X78511400Y-93173000D03*
G04 #@! TD*
G04 #@! TO.C,C43*
G36*
G01*
X65494200Y-97373600D02*
X65494200Y-96123600D01*
G75*
G02*
X65744200Y-95873600I250000J0D01*
G01*
X66494200Y-95873600D01*
G75*
G02*
X66744200Y-96123600I0J-250000D01*
G01*
X66744200Y-97373600D01*
G75*
G02*
X66494200Y-97623600I-250000J0D01*
G01*
X65744200Y-97623600D01*
G75*
G02*
X65494200Y-97373600I0J250000D01*
G01*
G37*
G36*
G01*
X62694200Y-97373600D02*
X62694200Y-96123600D01*
G75*
G02*
X62944200Y-95873600I250000J0D01*
G01*
X63694200Y-95873600D01*
G75*
G02*
X63944200Y-96123600I0J-250000D01*
G01*
X63944200Y-97373600D01*
G75*
G02*
X63694200Y-97623600I-250000J0D01*
G01*
X62944200Y-97623600D01*
G75*
G02*
X62694200Y-97373600I0J250000D01*
G01*
G37*
G04 #@! TD*
G04 #@! TO.C,C17*
G36*
G01*
X102321200Y-130353100D02*
X103571200Y-130353100D01*
G75*
G02*
X103821200Y-130603100I0J-250000D01*
G01*
X103821200Y-131353100D01*
G75*
G02*
X103571200Y-131603100I-250000J0D01*
G01*
X102321200Y-131603100D01*
G75*
G02*
X102071200Y-131353100I0J250000D01*
G01*
X102071200Y-130603100D01*
G75*
G02*
X102321200Y-130353100I250000J0D01*
G01*
G37*
G36*
G01*
X102321200Y-127553100D02*
X103571200Y-127553100D01*
G75*
G02*
X103821200Y-127803100I0J-250000D01*
G01*
X103821200Y-128553100D01*
G75*
G02*
X103571200Y-128803100I-250000J0D01*
G01*
X102321200Y-128803100D01*
G75*
G02*
X102071200Y-128553100I0J250000D01*
G01*
X102071200Y-127803100D01*
G75*
G02*
X102321200Y-127553100I250000J0D01*
G01*
G37*
G04 #@! TD*
D23*
G04 #@! TO.C,IC1*
X133404600Y-92354400D03*
X133404600Y-94894400D03*
X133404600Y-97434400D03*
X133404600Y-99974400D03*
X124354600Y-99974400D03*
X124354600Y-97434400D03*
X124354600Y-94894400D03*
X124354600Y-92354400D03*
G04 #@! TD*
G04 #@! TO.C,C18*
G36*
G01*
X75920300Y-114030600D02*
X75920300Y-115280600D01*
G75*
G02*
X75670300Y-115530600I-250000J0D01*
G01*
X74920300Y-115530600D01*
G75*
G02*
X74670300Y-115280600I0J250000D01*
G01*
X74670300Y-114030600D01*
G75*
G02*
X74920300Y-113780600I250000J0D01*
G01*
X75670300Y-113780600D01*
G75*
G02*
X75920300Y-114030600I0J-250000D01*
G01*
G37*
G36*
G01*
X78720300Y-114030600D02*
X78720300Y-115280600D01*
G75*
G02*
X78470300Y-115530600I-250000J0D01*
G01*
X77720300Y-115530600D01*
G75*
G02*
X77470300Y-115280600I0J250000D01*
G01*
X77470300Y-114030600D01*
G75*
G02*
X77720300Y-113780600I250000J0D01*
G01*
X78470300Y-113780600D01*
G75*
G02*
X78720300Y-114030600I0J-250000D01*
G01*
G37*
G04 #@! TD*
G04 #@! TO.C,C13*
G36*
G01*
X102329500Y-102702650D02*
X102329500Y-103215150D01*
G75*
G02*
X102110750Y-103433900I-218750J0D01*
G01*
X101673250Y-103433900D01*
G75*
G02*
X101454500Y-103215150I0J218750D01*
G01*
X101454500Y-102702650D01*
G75*
G02*
X101673250Y-102483900I218750J0D01*
G01*
X102110750Y-102483900D01*
G75*
G02*
X102329500Y-102702650I0J-218750D01*
G01*
G37*
G36*
G01*
X103904500Y-102702650D02*
X103904500Y-103215150D01*
G75*
G02*
X103685750Y-103433900I-218750J0D01*
G01*
X103248250Y-103433900D01*
G75*
G02*
X103029500Y-103215150I0J218750D01*
G01*
X103029500Y-102702650D01*
G75*
G02*
X103248250Y-102483900I218750J0D01*
G01*
X103685750Y-102483900D01*
G75*
G02*
X103904500Y-102702650I0J-218750D01*
G01*
G37*
G04 #@! TD*
G04 #@! TO.C,C11*
G36*
G01*
X75920300Y-111617600D02*
X75920300Y-112867600D01*
G75*
G02*
X75670300Y-113117600I-250000J0D01*
G01*
X74920300Y-113117600D01*
G75*
G02*
X74670300Y-112867600I0J250000D01*
G01*
X74670300Y-111617600D01*
G75*
G02*
X74920300Y-111367600I250000J0D01*
G01*
X75670300Y-111367600D01*
G75*
G02*
X75920300Y-111617600I0J-250000D01*
G01*
G37*
G36*
G01*
X78720300Y-111617600D02*
X78720300Y-112867600D01*
G75*
G02*
X78470300Y-113117600I-250000J0D01*
G01*
X77720300Y-113117600D01*
G75*
G02*
X77470300Y-112867600I0J250000D01*
G01*
X77470300Y-111617600D01*
G75*
G02*
X77720300Y-111367600I250000J0D01*
G01*
X78470300Y-111367600D01*
G75*
G02*
X78720300Y-111617600I0J-250000D01*
G01*
G37*
G04 #@! TD*
G04 #@! TO.C,C5*
G36*
G01*
X99029000Y-106936250D02*
X99029000Y-106423750D01*
G75*
G02*
X99247750Y-106205000I218750J0D01*
G01*
X99685250Y-106205000D01*
G75*
G02*
X99904000Y-106423750I0J-218750D01*
G01*
X99904000Y-106936250D01*
G75*
G02*
X99685250Y-107155000I-218750J0D01*
G01*
X99247750Y-107155000D01*
G75*
G02*
X99029000Y-106936250I0J218750D01*
G01*
G37*
G36*
G01*
X97454000Y-106936250D02*
X97454000Y-106423750D01*
G75*
G02*
X97672750Y-106205000I218750J0D01*
G01*
X98110250Y-106205000D01*
G75*
G02*
X98329000Y-106423750I0J-218750D01*
G01*
X98329000Y-106936250D01*
G75*
G02*
X98110250Y-107155000I-218750J0D01*
G01*
X97672750Y-107155000D01*
G75*
G02*
X97454000Y-106936250I0J218750D01*
G01*
G37*
G04 #@! TD*
G04 #@! TO.C,C4*
G36*
G01*
X98329000Y-102359750D02*
X98329000Y-102872250D01*
G75*
G02*
X98110250Y-103091000I-218750J0D01*
G01*
X97672750Y-103091000D01*
G75*
G02*
X97454000Y-102872250I0J218750D01*
G01*
X97454000Y-102359750D01*
G75*
G02*
X97672750Y-102141000I218750J0D01*
G01*
X98110250Y-102141000D01*
G75*
G02*
X98329000Y-102359750I0J-218750D01*
G01*
G37*
G36*
G01*
X99904000Y-102359750D02*
X99904000Y-102872250D01*
G75*
G02*
X99685250Y-103091000I-218750J0D01*
G01*
X99247750Y-103091000D01*
G75*
G02*
X99029000Y-102872250I0J218750D01*
G01*
X99029000Y-102359750D01*
G75*
G02*
X99247750Y-102141000I218750J0D01*
G01*
X99685250Y-102141000D01*
G75*
G02*
X99904000Y-102359750I0J-218750D01*
G01*
G37*
G04 #@! TD*
G04 #@! TO.C,C3*
G36*
G01*
X101873800Y-125160750D02*
X101873800Y-124648250D01*
G75*
G02*
X102092550Y-124429500I218750J0D01*
G01*
X102530050Y-124429500D01*
G75*
G02*
X102748800Y-124648250I0J-218750D01*
G01*
X102748800Y-125160750D01*
G75*
G02*
X102530050Y-125379500I-218750J0D01*
G01*
X102092550Y-125379500D01*
G75*
G02*
X101873800Y-125160750I0J218750D01*
G01*
G37*
G36*
G01*
X100298800Y-125160750D02*
X100298800Y-124648250D01*
G75*
G02*
X100517550Y-124429500I218750J0D01*
G01*
X100955050Y-124429500D01*
G75*
G02*
X101173800Y-124648250I0J-218750D01*
G01*
X101173800Y-125160750D01*
G75*
G02*
X100955050Y-125379500I-218750J0D01*
G01*
X100517550Y-125379500D01*
G75*
G02*
X100298800Y-125160750I0J218750D01*
G01*
G37*
G04 #@! TD*
G04 #@! TO.C,C2*
G36*
G01*
X101808800Y-119568250D02*
X101808800Y-120080750D01*
G75*
G02*
X101590050Y-120299500I-218750J0D01*
G01*
X101152550Y-120299500D01*
G75*
G02*
X100933800Y-120080750I0J218750D01*
G01*
X100933800Y-119568250D01*
G75*
G02*
X101152550Y-119349500I218750J0D01*
G01*
X101590050Y-119349500D01*
G75*
G02*
X101808800Y-119568250I0J-218750D01*
G01*
G37*
G36*
G01*
X103383800Y-119568250D02*
X103383800Y-120080750D01*
G75*
G02*
X103165050Y-120299500I-218750J0D01*
G01*
X102727550Y-120299500D01*
G75*
G02*
X102508800Y-120080750I0J218750D01*
G01*
X102508800Y-119568250D01*
G75*
G02*
X102727550Y-119349500I218750J0D01*
G01*
X103165050Y-119349500D01*
G75*
G02*
X103383800Y-119568250I0J-218750D01*
G01*
G37*
G04 #@! TD*
D27*
G04 #@! TO.C,Y1*
X102928600Y-123214500D03*
X100728600Y-123214500D03*
X100728600Y-121514500D03*
X102928600Y-121514500D03*
G04 #@! TD*
G04 #@! TO.C,R5*
G36*
G01*
X86373650Y-121735000D02*
X87286150Y-121735000D01*
G75*
G02*
X87529900Y-121978750I0J-243750D01*
G01*
X87529900Y-122466250D01*
G75*
G02*
X87286150Y-122710000I-243750J0D01*
G01*
X86373650Y-122710000D01*
G75*
G02*
X86129900Y-122466250I0J243750D01*
G01*
X86129900Y-121978750D01*
G75*
G02*
X86373650Y-121735000I243750J0D01*
G01*
G37*
G36*
G01*
X86373650Y-119860000D02*
X87286150Y-119860000D01*
G75*
G02*
X87529900Y-120103750I0J-243750D01*
G01*
X87529900Y-120591250D01*
G75*
G02*
X87286150Y-120835000I-243750J0D01*
G01*
X86373650Y-120835000D01*
G75*
G02*
X86129900Y-120591250I0J243750D01*
G01*
X86129900Y-120103750D01*
G75*
G02*
X86373650Y-119860000I243750J0D01*
G01*
G37*
G04 #@! TD*
G04 #@! TO.C,R4*
G36*
G01*
X87286150Y-125661000D02*
X86373650Y-125661000D01*
G75*
G02*
X86129900Y-125417250I0J243750D01*
G01*
X86129900Y-124929750D01*
G75*
G02*
X86373650Y-124686000I243750J0D01*
G01*
X87286150Y-124686000D01*
G75*
G02*
X87529900Y-124929750I0J-243750D01*
G01*
X87529900Y-125417250D01*
G75*
G02*
X87286150Y-125661000I-243750J0D01*
G01*
G37*
G36*
G01*
X87286150Y-127536000D02*
X86373650Y-127536000D01*
G75*
G02*
X86129900Y-127292250I0J243750D01*
G01*
X86129900Y-126804750D01*
G75*
G02*
X86373650Y-126561000I243750J0D01*
G01*
X87286150Y-126561000D01*
G75*
G02*
X87529900Y-126804750I0J-243750D01*
G01*
X87529900Y-127292250D01*
G75*
G02*
X87286150Y-127536000I-243750J0D01*
G01*
G37*
G04 #@! TD*
G04 #@! TO.C,R7*
G36*
G01*
X107860800Y-105610500D02*
X107860800Y-106860500D01*
G75*
G02*
X107610800Y-107110500I-250000J0D01*
G01*
X106860800Y-107110500D01*
G75*
G02*
X106610800Y-106860500I0J250000D01*
G01*
X106610800Y-105610500D01*
G75*
G02*
X106860800Y-105360500I250000J0D01*
G01*
X107610800Y-105360500D01*
G75*
G02*
X107860800Y-105610500I0J-250000D01*
G01*
G37*
G36*
G01*
X110660800Y-105610500D02*
X110660800Y-106860500D01*
G75*
G02*
X110410800Y-107110500I-250000J0D01*
G01*
X109660800Y-107110500D01*
G75*
G02*
X109410800Y-106860500I0J250000D01*
G01*
X109410800Y-105610500D01*
G75*
G02*
X109660800Y-105360500I250000J0D01*
G01*
X110410800Y-105360500D01*
G75*
G02*
X110660800Y-105610500I0J-250000D01*
G01*
G37*
G04 #@! TD*
G04 #@! TO.C,R6*
G36*
G01*
X106590800Y-103235600D02*
X106590800Y-104485600D01*
G75*
G02*
X106340800Y-104735600I-250000J0D01*
G01*
X105590800Y-104735600D01*
G75*
G02*
X105340800Y-104485600I0J250000D01*
G01*
X105340800Y-103235600D01*
G75*
G02*
X105590800Y-102985600I250000J0D01*
G01*
X106340800Y-102985600D01*
G75*
G02*
X106590800Y-103235600I0J-250000D01*
G01*
G37*
G36*
G01*
X109390800Y-103235600D02*
X109390800Y-104485600D01*
G75*
G02*
X109140800Y-104735600I-250000J0D01*
G01*
X108390800Y-104735600D01*
G75*
G02*
X108140800Y-104485600I0J250000D01*
G01*
X108140800Y-103235600D01*
G75*
G02*
X108390800Y-102985600I250000J0D01*
G01*
X109140800Y-102985600D01*
G75*
G02*
X109390800Y-103235600I0J-250000D01*
G01*
G37*
G04 #@! TD*
G04 #@! TO.C,R3*
G36*
G01*
X93782400Y-102766150D02*
X93782400Y-103278650D01*
G75*
G02*
X93563650Y-103497400I-218750J0D01*
G01*
X93126150Y-103497400D01*
G75*
G02*
X92907400Y-103278650I0J218750D01*
G01*
X92907400Y-102766150D01*
G75*
G02*
X93126150Y-102547400I218750J0D01*
G01*
X93563650Y-102547400D01*
G75*
G02*
X93782400Y-102766150I0J-218750D01*
G01*
G37*
G36*
G01*
X95357400Y-102766150D02*
X95357400Y-103278650D01*
G75*
G02*
X95138650Y-103497400I-218750J0D01*
G01*
X94701150Y-103497400D01*
G75*
G02*
X94482400Y-103278650I0J218750D01*
G01*
X94482400Y-102766150D01*
G75*
G02*
X94701150Y-102547400I218750J0D01*
G01*
X95138650Y-102547400D01*
G75*
G02*
X95357400Y-102766150I0J-218750D01*
G01*
G37*
G04 #@! TD*
G04 #@! TO.C,R1*
G36*
G01*
X103002500Y-105193150D02*
X103002500Y-104280650D01*
G75*
G02*
X103246250Y-104036900I243750J0D01*
G01*
X103733750Y-104036900D01*
G75*
G02*
X103977500Y-104280650I0J-243750D01*
G01*
X103977500Y-105193150D01*
G75*
G02*
X103733750Y-105436900I-243750J0D01*
G01*
X103246250Y-105436900D01*
G75*
G02*
X103002500Y-105193150I0J243750D01*
G01*
G37*
G36*
G01*
X101127500Y-105193150D02*
X101127500Y-104280650D01*
G75*
G02*
X101371250Y-104036900I243750J0D01*
G01*
X101858750Y-104036900D01*
G75*
G02*
X102102500Y-104280650I0J-243750D01*
G01*
X102102500Y-105193150D01*
G75*
G02*
X101858750Y-105436900I-243750J0D01*
G01*
X101371250Y-105436900D01*
G75*
G02*
X101127500Y-105193150I0J243750D01*
G01*
G37*
G04 #@! TD*
G04 #@! TO.C,L3*
G36*
G01*
X106228400Y-107896950D02*
X106228400Y-108409450D01*
G75*
G02*
X106009650Y-108628200I-218750J0D01*
G01*
X105572150Y-108628200D01*
G75*
G02*
X105353400Y-108409450I0J218750D01*
G01*
X105353400Y-107896950D01*
G75*
G02*
X105572150Y-107678200I218750J0D01*
G01*
X106009650Y-107678200D01*
G75*
G02*
X106228400Y-107896950I0J-218750D01*
G01*
G37*
G36*
G01*
X107803400Y-107896950D02*
X107803400Y-108409450D01*
G75*
G02*
X107584650Y-108628200I-218750J0D01*
G01*
X107147150Y-108628200D01*
G75*
G02*
X106928400Y-108409450I0J218750D01*
G01*
X106928400Y-107896950D01*
G75*
G02*
X107147150Y-107678200I218750J0D01*
G01*
X107584650Y-107678200D01*
G75*
G02*
X107803400Y-107896950I0J-218750D01*
G01*
G37*
G04 #@! TD*
G04 #@! TO.C,L2*
G36*
G01*
X86849700Y-118582150D02*
X86849700Y-118069650D01*
G75*
G02*
X87068450Y-117850900I218750J0D01*
G01*
X87505950Y-117850900D01*
G75*
G02*
X87724700Y-118069650I0J-218750D01*
G01*
X87724700Y-118582150D01*
G75*
G02*
X87505950Y-118800900I-218750J0D01*
G01*
X87068450Y-118800900D01*
G75*
G02*
X86849700Y-118582150I0J218750D01*
G01*
G37*
G36*
G01*
X85274700Y-118582150D02*
X85274700Y-118069650D01*
G75*
G02*
X85493450Y-117850900I218750J0D01*
G01*
X85930950Y-117850900D01*
G75*
G02*
X86149700Y-118069650I0J-218750D01*
G01*
X86149700Y-118582150D01*
G75*
G02*
X85930950Y-118800900I-218750J0D01*
G01*
X85493450Y-118800900D01*
G75*
G02*
X85274700Y-118582150I0J218750D01*
G01*
G37*
G04 #@! TD*
G04 #@! TO.C,L1*
G36*
G01*
X77807300Y-116816850D02*
X77807300Y-116304350D01*
G75*
G02*
X78026050Y-116085600I218750J0D01*
G01*
X78463550Y-116085600D01*
G75*
G02*
X78682300Y-116304350I0J-218750D01*
G01*
X78682300Y-116816850D01*
G75*
G02*
X78463550Y-117035600I-218750J0D01*
G01*
X78026050Y-117035600D01*
G75*
G02*
X77807300Y-116816850I0J218750D01*
G01*
G37*
G36*
G01*
X76232300Y-116816850D02*
X76232300Y-116304350D01*
G75*
G02*
X76451050Y-116085600I218750J0D01*
G01*
X76888550Y-116085600D01*
G75*
G02*
X77107300Y-116304350I0J-218750D01*
G01*
X77107300Y-116816850D01*
G75*
G02*
X76888550Y-117035600I-218750J0D01*
G01*
X76451050Y-117035600D01*
G75*
G02*
X76232300Y-116816850I0J218750D01*
G01*
G37*
G04 #@! TD*
G04 #@! TO.C,C25*
G36*
G01*
X84962700Y-115732400D02*
X84962700Y-116982400D01*
G75*
G02*
X84712700Y-117232400I-250000J0D01*
G01*
X83962700Y-117232400D01*
G75*
G02*
X83712700Y-116982400I0J250000D01*
G01*
X83712700Y-115732400D01*
G75*
G02*
X83962700Y-115482400I250000J0D01*
G01*
X84712700Y-115482400D01*
G75*
G02*
X84962700Y-115732400I0J-250000D01*
G01*
G37*
G36*
G01*
X87762700Y-115732400D02*
X87762700Y-116982400D01*
G75*
G02*
X87512700Y-117232400I-250000J0D01*
G01*
X86762700Y-117232400D01*
G75*
G02*
X86512700Y-116982400I0J250000D01*
G01*
X86512700Y-115732400D01*
G75*
G02*
X86762700Y-115482400I250000J0D01*
G01*
X87512700Y-115482400D01*
G75*
G02*
X87762700Y-115732400I0J-250000D01*
G01*
G37*
G04 #@! TD*
G04 #@! TO.C,C21*
G36*
G01*
X94897100Y-110184900D02*
X93647100Y-110184900D01*
G75*
G02*
X93397100Y-109934900I0J250000D01*
G01*
X93397100Y-109184900D01*
G75*
G02*
X93647100Y-108934900I250000J0D01*
G01*
X94897100Y-108934900D01*
G75*
G02*
X95147100Y-109184900I0J-250000D01*
G01*
X95147100Y-109934900D01*
G75*
G02*
X94897100Y-110184900I-250000J0D01*
G01*
G37*
G36*
G01*
X94897100Y-112984900D02*
X93647100Y-112984900D01*
G75*
G02*
X93397100Y-112734900I0J250000D01*
G01*
X93397100Y-111984900D01*
G75*
G02*
X93647100Y-111734900I250000J0D01*
G01*
X94897100Y-111734900D01*
G75*
G02*
X95147100Y-111984900I0J-250000D01*
G01*
X95147100Y-112734900D01*
G75*
G02*
X94897100Y-112984900I-250000J0D01*
G01*
G37*
G04 #@! TD*
G04 #@! TO.C,C22*
G36*
G01*
X91450000Y-132181900D02*
X92700000Y-132181900D01*
G75*
G02*
X92950000Y-132431900I0J-250000D01*
G01*
X92950000Y-133181900D01*
G75*
G02*
X92700000Y-133431900I-250000J0D01*
G01*
X91450000Y-133431900D01*
G75*
G02*
X91200000Y-133181900I0J250000D01*
G01*
X91200000Y-132431900D01*
G75*
G02*
X91450000Y-132181900I250000J0D01*
G01*
G37*
G36*
G01*
X91450000Y-129381900D02*
X92700000Y-129381900D01*
G75*
G02*
X92950000Y-129631900I0J-250000D01*
G01*
X92950000Y-130381900D01*
G75*
G02*
X92700000Y-130631900I-250000J0D01*
G01*
X91450000Y-130631900D01*
G75*
G02*
X91200000Y-130381900I0J250000D01*
G01*
X91200000Y-129631900D01*
G75*
G02*
X91450000Y-129381900I250000J0D01*
G01*
G37*
G04 #@! TD*
G04 #@! TO.C,C19*
G36*
G01*
X98097500Y-109892800D02*
X96847500Y-109892800D01*
G75*
G02*
X96597500Y-109642800I0J250000D01*
G01*
X96597500Y-108892800D01*
G75*
G02*
X96847500Y-108642800I250000J0D01*
G01*
X98097500Y-108642800D01*
G75*
G02*
X98347500Y-108892800I0J-250000D01*
G01*
X98347500Y-109642800D01*
G75*
G02*
X98097500Y-109892800I-250000J0D01*
G01*
G37*
G36*
G01*
X98097500Y-112692800D02*
X96847500Y-112692800D01*
G75*
G02*
X96597500Y-112442800I0J250000D01*
G01*
X96597500Y-111692800D01*
G75*
G02*
X96847500Y-111442800I250000J0D01*
G01*
X98097500Y-111442800D01*
G75*
G02*
X98347500Y-111692800I0J-250000D01*
G01*
X98347500Y-112442800D01*
G75*
G02*
X98097500Y-112692800I-250000J0D01*
G01*
G37*
G04 #@! TD*
G04 #@! TO.C,C20*
G36*
G01*
X101526500Y-109892800D02*
X100276500Y-109892800D01*
G75*
G02*
X100026500Y-109642800I0J250000D01*
G01*
X100026500Y-108892800D01*
G75*
G02*
X100276500Y-108642800I250000J0D01*
G01*
X101526500Y-108642800D01*
G75*
G02*
X101776500Y-108892800I0J-250000D01*
G01*
X101776500Y-109642800D01*
G75*
G02*
X101526500Y-109892800I-250000J0D01*
G01*
G37*
G36*
G01*
X101526500Y-112692800D02*
X100276500Y-112692800D01*
G75*
G02*
X100026500Y-112442800I0J250000D01*
G01*
X100026500Y-111692800D01*
G75*
G02*
X100276500Y-111442800I250000J0D01*
G01*
X101526500Y-111442800D01*
G75*
G02*
X101776500Y-111692800I0J-250000D01*
G01*
X101776500Y-112442800D01*
G75*
G02*
X101526500Y-112692800I-250000J0D01*
G01*
G37*
G04 #@! TD*
G04 #@! TO.C,C16*
G36*
G01*
X91938000Y-110794500D02*
X90688000Y-110794500D01*
G75*
G02*
X90438000Y-110544500I0J250000D01*
G01*
X90438000Y-109794500D01*
G75*
G02*
X90688000Y-109544500I250000J0D01*
G01*
X91938000Y-109544500D01*
G75*
G02*
X92188000Y-109794500I0J-250000D01*
G01*
X92188000Y-110544500D01*
G75*
G02*
X91938000Y-110794500I-250000J0D01*
G01*
G37*
G36*
G01*
X91938000Y-113594500D02*
X90688000Y-113594500D01*
G75*
G02*
X90438000Y-113344500I0J250000D01*
G01*
X90438000Y-112594500D01*
G75*
G02*
X90688000Y-112344500I250000J0D01*
G01*
X91938000Y-112344500D01*
G75*
G02*
X92188000Y-112594500I0J-250000D01*
G01*
X92188000Y-113344500D01*
G75*
G02*
X91938000Y-113594500I-250000J0D01*
G01*
G37*
G04 #@! TD*
G04 #@! TO.C,C14*
G36*
G01*
X104734200Y-130327700D02*
X105984200Y-130327700D01*
G75*
G02*
X106234200Y-130577700I0J-250000D01*
G01*
X106234200Y-131327700D01*
G75*
G02*
X105984200Y-131577700I-250000J0D01*
G01*
X104734200Y-131577700D01*
G75*
G02*
X104484200Y-131327700I0J250000D01*
G01*
X104484200Y-130577700D01*
G75*
G02*
X104734200Y-130327700I250000J0D01*
G01*
G37*
G36*
G01*
X104734200Y-127527700D02*
X105984200Y-127527700D01*
G75*
G02*
X106234200Y-127777700I0J-250000D01*
G01*
X106234200Y-128527700D01*
G75*
G02*
X105984200Y-128777700I-250000J0D01*
G01*
X104734200Y-128777700D01*
G75*
G02*
X104484200Y-128527700I0J250000D01*
G01*
X104484200Y-127777700D01*
G75*
G02*
X104734200Y-127527700I250000J0D01*
G01*
G37*
G04 #@! TD*
G04 #@! TO.C,C15*
G36*
G01*
X97507900Y-132423200D02*
X98757900Y-132423200D01*
G75*
G02*
X99007900Y-132673200I0J-250000D01*
G01*
X99007900Y-133423200D01*
G75*
G02*
X98757900Y-133673200I-250000J0D01*
G01*
X97507900Y-133673200D01*
G75*
G02*
X97257900Y-133423200I0J250000D01*
G01*
X97257900Y-132673200D01*
G75*
G02*
X97507900Y-132423200I250000J0D01*
G01*
G37*
G36*
G01*
X97507900Y-129623200D02*
X98757900Y-129623200D01*
G75*
G02*
X99007900Y-129873200I0J-250000D01*
G01*
X99007900Y-130623200D01*
G75*
G02*
X98757900Y-130873200I-250000J0D01*
G01*
X97507900Y-130873200D01*
G75*
G02*
X97257900Y-130623200I0J250000D01*
G01*
X97257900Y-129873200D01*
G75*
G02*
X97507900Y-129623200I250000J0D01*
G01*
G37*
G04 #@! TD*
G04 #@! TO.C,C9*
G36*
G01*
X99870100Y-132423200D02*
X101120100Y-132423200D01*
G75*
G02*
X101370100Y-132673200I0J-250000D01*
G01*
X101370100Y-133423200D01*
G75*
G02*
X101120100Y-133673200I-250000J0D01*
G01*
X99870100Y-133673200D01*
G75*
G02*
X99620100Y-133423200I0J250000D01*
G01*
X99620100Y-132673200D01*
G75*
G02*
X99870100Y-132423200I250000J0D01*
G01*
G37*
G36*
G01*
X99870100Y-129623200D02*
X101120100Y-129623200D01*
G75*
G02*
X101370100Y-129873200I0J-250000D01*
G01*
X101370100Y-130623200D01*
G75*
G02*
X101120100Y-130873200I-250000J0D01*
G01*
X99870100Y-130873200D01*
G75*
G02*
X99620100Y-130623200I0J250000D01*
G01*
X99620100Y-129873200D01*
G75*
G02*
X99870100Y-129623200I250000J0D01*
G01*
G37*
G04 #@! TD*
G04 #@! TO.C,C10*
G36*
G01*
X95201900Y-105422400D02*
X93951900Y-105422400D01*
G75*
G02*
X93701900Y-105172400I0J250000D01*
G01*
X93701900Y-104422400D01*
G75*
G02*
X93951900Y-104172400I250000J0D01*
G01*
X95201900Y-104172400D01*
G75*
G02*
X95451900Y-104422400I0J-250000D01*
G01*
X95451900Y-105172400D01*
G75*
G02*
X95201900Y-105422400I-250000J0D01*
G01*
G37*
G36*
G01*
X95201900Y-108222400D02*
X93951900Y-108222400D01*
G75*
G02*
X93701900Y-107972400I0J250000D01*
G01*
X93701900Y-107222400D01*
G75*
G02*
X93951900Y-106972400I250000J0D01*
G01*
X95201900Y-106972400D01*
G75*
G02*
X95451900Y-107222400I0J-250000D01*
G01*
X95451900Y-107972400D01*
G75*
G02*
X95201900Y-108222400I-250000J0D01*
G01*
G37*
G04 #@! TD*
G04 #@! TO.C,C7*
G36*
G01*
X86433500Y-132181900D02*
X87683500Y-132181900D01*
G75*
G02*
X87933500Y-132431900I0J-250000D01*
G01*
X87933500Y-133181900D01*
G75*
G02*
X87683500Y-133431900I-250000J0D01*
G01*
X86433500Y-133431900D01*
G75*
G02*
X86183500Y-133181900I0J250000D01*
G01*
X86183500Y-132431900D01*
G75*
G02*
X86433500Y-132181900I250000J0D01*
G01*
G37*
G36*
G01*
X86433500Y-129381900D02*
X87683500Y-129381900D01*
G75*
G02*
X87933500Y-129631900I0J-250000D01*
G01*
X87933500Y-130381900D01*
G75*
G02*
X87683500Y-130631900I-250000J0D01*
G01*
X86433500Y-130631900D01*
G75*
G02*
X86183500Y-130381900I0J250000D01*
G01*
X86183500Y-129631900D01*
G75*
G02*
X86433500Y-129381900I250000J0D01*
G01*
G37*
G04 #@! TD*
G04 #@! TO.C,C8*
G36*
G01*
X92852400Y-105422400D02*
X91602400Y-105422400D01*
G75*
G02*
X91352400Y-105172400I0J250000D01*
G01*
X91352400Y-104422400D01*
G75*
G02*
X91602400Y-104172400I250000J0D01*
G01*
X92852400Y-104172400D01*
G75*
G02*
X93102400Y-104422400I0J-250000D01*
G01*
X93102400Y-105172400D01*
G75*
G02*
X92852400Y-105422400I-250000J0D01*
G01*
G37*
G36*
G01*
X92852400Y-108222400D02*
X91602400Y-108222400D01*
G75*
G02*
X91352400Y-107972400I0J250000D01*
G01*
X91352400Y-107222400D01*
G75*
G02*
X91602400Y-106972400I250000J0D01*
G01*
X92852400Y-106972400D01*
G75*
G02*
X93102400Y-107222400I0J-250000D01*
G01*
X93102400Y-107972400D01*
G75*
G02*
X92852400Y-108222400I-250000J0D01*
G01*
G37*
G04 #@! TD*
G04 #@! TO.C,C41*
G36*
G01*
X71406600Y-93472950D02*
X71406600Y-94385450D01*
G75*
G02*
X71162850Y-94629200I-243750J0D01*
G01*
X70675350Y-94629200D01*
G75*
G02*
X70431600Y-94385450I0J243750D01*
G01*
X70431600Y-93472950D01*
G75*
G02*
X70675350Y-93229200I243750J0D01*
G01*
X71162850Y-93229200D01*
G75*
G02*
X71406600Y-93472950I0J-243750D01*
G01*
G37*
G36*
G01*
X73281600Y-93472950D02*
X73281600Y-94385450D01*
G75*
G02*
X73037850Y-94629200I-243750J0D01*
G01*
X72550350Y-94629200D01*
G75*
G02*
X72306600Y-94385450I0J243750D01*
G01*
X72306600Y-93472950D01*
G75*
G02*
X72550350Y-93229200I243750J0D01*
G01*
X73037850Y-93229200D01*
G75*
G02*
X73281600Y-93472950I0J-243750D01*
G01*
G37*
G04 #@! TD*
G04 #@! TO.C,C38*
G36*
G01*
X128175600Y-113145250D02*
X128175600Y-114057750D01*
G75*
G02*
X127931850Y-114301500I-243750J0D01*
G01*
X127444350Y-114301500D01*
G75*
G02*
X127200600Y-114057750I0J243750D01*
G01*
X127200600Y-113145250D01*
G75*
G02*
X127444350Y-112901500I243750J0D01*
G01*
X127931850Y-112901500D01*
G75*
G02*
X128175600Y-113145250I0J-243750D01*
G01*
G37*
G36*
G01*
X130050600Y-113145250D02*
X130050600Y-114057750D01*
G75*
G02*
X129806850Y-114301500I-243750J0D01*
G01*
X129319350Y-114301500D01*
G75*
G02*
X129075600Y-114057750I0J243750D01*
G01*
X129075600Y-113145250D01*
G75*
G02*
X129319350Y-112901500I243750J0D01*
G01*
X129806850Y-112901500D01*
G75*
G02*
X130050600Y-113145250I0J-243750D01*
G01*
G37*
G04 #@! TD*
G04 #@! TO.C,C39*
G36*
G01*
X72205000Y-97230250D02*
X72205000Y-96317750D01*
G75*
G02*
X72448750Y-96074000I243750J0D01*
G01*
X72936250Y-96074000D01*
G75*
G02*
X73180000Y-96317750I0J-243750D01*
G01*
X73180000Y-97230250D01*
G75*
G02*
X72936250Y-97474000I-243750J0D01*
G01*
X72448750Y-97474000D01*
G75*
G02*
X72205000Y-97230250I0J243750D01*
G01*
G37*
G36*
G01*
X70330000Y-97230250D02*
X70330000Y-96317750D01*
G75*
G02*
X70573750Y-96074000I243750J0D01*
G01*
X71061250Y-96074000D01*
G75*
G02*
X71305000Y-96317750I0J-243750D01*
G01*
X71305000Y-97230250D01*
G75*
G02*
X71061250Y-97474000I-243750J0D01*
G01*
X70573750Y-97474000D01*
G75*
G02*
X70330000Y-97230250I0J243750D01*
G01*
G37*
G04 #@! TD*
G04 #@! TO.C,C12*
G36*
G01*
X75539300Y-117967600D02*
X75539300Y-119217600D01*
G75*
G02*
X75289300Y-119467600I-250000J0D01*
G01*
X74539300Y-119467600D01*
G75*
G02*
X74289300Y-119217600I0J250000D01*
G01*
X74289300Y-117967600D01*
G75*
G02*
X74539300Y-117717600I250000J0D01*
G01*
X75289300Y-117717600D01*
G75*
G02*
X75539300Y-117967600I0J-250000D01*
G01*
G37*
G36*
G01*
X78339300Y-117967600D02*
X78339300Y-119217600D01*
G75*
G02*
X78089300Y-119467600I-250000J0D01*
G01*
X77339300Y-119467600D01*
G75*
G02*
X77089300Y-119217600I0J250000D01*
G01*
X77089300Y-117967600D01*
G75*
G02*
X77339300Y-117717600I250000J0D01*
G01*
X78089300Y-117717600D01*
G75*
G02*
X78339300Y-117967600I0J-250000D01*
G01*
G37*
G04 #@! TD*
G04 #@! TO.C,C31*
G36*
G01*
X74178000Y-96202800D02*
X75428000Y-96202800D01*
G75*
G02*
X75678000Y-96452800I0J-250000D01*
G01*
X75678000Y-97202800D01*
G75*
G02*
X75428000Y-97452800I-250000J0D01*
G01*
X74178000Y-97452800D01*
G75*
G02*
X73928000Y-97202800I0J250000D01*
G01*
X73928000Y-96452800D01*
G75*
G02*
X74178000Y-96202800I250000J0D01*
G01*
G37*
G36*
G01*
X74178000Y-93402800D02*
X75428000Y-93402800D01*
G75*
G02*
X75678000Y-93652800I0J-250000D01*
G01*
X75678000Y-94402800D01*
G75*
G02*
X75428000Y-94652800I-250000J0D01*
G01*
X74178000Y-94652800D01*
G75*
G02*
X73928000Y-94402800I0J250000D01*
G01*
X73928000Y-93652800D01*
G75*
G02*
X74178000Y-93402800I250000J0D01*
G01*
G37*
G04 #@! TD*
G04 #@! TO.C,C30*
G36*
G01*
X126797100Y-116639500D02*
X126797100Y-115389500D01*
G75*
G02*
X127047100Y-115139500I250000J0D01*
G01*
X127797100Y-115139500D01*
G75*
G02*
X128047100Y-115389500I0J-250000D01*
G01*
X128047100Y-116639500D01*
G75*
G02*
X127797100Y-116889500I-250000J0D01*
G01*
X127047100Y-116889500D01*
G75*
G02*
X126797100Y-116639500I0J250000D01*
G01*
G37*
G36*
G01*
X123997100Y-116639500D02*
X123997100Y-115389500D01*
G75*
G02*
X124247100Y-115139500I250000J0D01*
G01*
X124997100Y-115139500D01*
G75*
G02*
X125247100Y-115389500I0J-250000D01*
G01*
X125247100Y-116639500D01*
G75*
G02*
X124997100Y-116889500I-250000J0D01*
G01*
X124247100Y-116889500D01*
G75*
G02*
X123997100Y-116639500I0J250000D01*
G01*
G37*
G04 #@! TD*
M02*
