M48
; DRILL file {KiCad (5.1.6-0-10_14)} date Friday, December 24, 2021 at 10:54:01 AM
; FORMAT={-:-/ absolute / metric / decimal}
; #@! TF.CreationDate,2021-12-24T10:54:01+01:00
; #@! TF.GenerationSoftware,Kicad,Pcbnew,(5.1.6-0-10_14)
; #@! TF.FileFunction,Plated,1,4,PTH
FMAT,2
METRIC
T1C0.200
T2C0.400
T3C0.778
T4C0.850
T5C0.860
T6C0.880
T7C0.920
T8C1.250
T9C1.270
T10C1.450
T11C2.300
T12C3.050
%
G90
G05
T1
X90.602Y-126.568
X91.402Y-123.368
X92.202Y-120.968
X92.202Y-123.368
X93.002Y-123.368
X93.002Y-124.168
X93.015Y-120.955
X93.802Y-120.968
X93.802Y-121.768
X93.802Y-123.368
X93.802Y-124.168
X93.805Y-125.766
X93.805Y-120.164
X94.602Y-120.968
X94.602Y-121.765
X94.602Y-124.168
X94.602Y-124.968
X95.402Y-121.768
X96.19Y-120.18
X96.203Y-120.968
X96.203Y-123.368
X96.203Y-124.168
X96.203Y-124.968
X97.0Y-121.768
X97.0Y-122.565
X97.003Y-120.968
X97.003Y-124.168
T2
X53.264Y-55.829
X64.11Y-78.359
X66.916Y-67.691
X67.31Y-58.725
X69.291Y-88.9
X72.593Y-68.174
X72.593Y-92.405
X72.882Y-80.089
X73.33Y-45.834
X73.914Y-74.625
X74.27Y-85.014
X75.298Y-116.561
X75.73Y-80.086
X76.073Y-91.643
X77.445Y-73.127
X77.495Y-77.318
X79.223Y-114.732
X79.35Y-107.874
X79.413Y-112.243
X81.686Y-126.149
X81.763Y-110.592
X83.287Y-88.494
X83.784Y-126.413
X83.96Y-120.472
X84.061Y-125.095
X84.176Y-114.046
X84.582Y-118.339
X85.446Y-120.345
X87.02Y-131.343
X87.376Y-113.462
X88.214Y-125.222
X88.494Y-121.044
X88.684Y-117.145
X89.103Y-118.784
X89.433Y-114.173
X90.246Y-117.119
X91.094Y-118.812
X91.262Y-111.684
X91.821Y-81.966
X92.075Y-131.369
X92.253Y-102.997
X93.421Y-106.172
X93.51Y-115.214
X93.667Y-110.978
X94.386Y-118.745
X94.691Y-110.998
X95.021Y-115.037
X95.987Y-116.281
X96.977Y-110.693
X97.333Y-114.96
X98.095Y-128.765
X98.095Y-131.572
X98.108Y-66.916
X98.171Y-110.668
X98.781Y-104.546
X99.365Y-121.818
X100.444Y-127.203
X100.482Y-131.648
X100.787Y-107.188
X100.914Y-110.541
X101.625Y-106.197
X101.727Y-62.23
X102.387Y-116.408
X103.53Y-106.147
X103.556Y-110.49
X103.855Y-113.474
X104.14Y-132.563
X104.267Y-116.37
X104.343Y-123.215
X104.496Y-66.954
X105.359Y-129.54
X106.172Y-59.245
X106.223Y-43.32
X106.362Y-54.496
X107.036Y-111.239
X108.306Y-108.966
X108.839Y-59.245
X114.122Y-44.907
X115.735Y-82.867
X118.872Y-58.547
X119.52Y-113.322
X121.209Y-94.894
X121.552Y-79.896
X121.641Y-66.802
X121.895Y-97.434
X122.136Y-92.354
X124.003Y-73.0
X124.155Y-71.349
X124.365Y-67.977
X128.88Y-84.391
X129.019Y-76.149
X130.531Y-45.047
X131.496Y-93.726
X131.75Y-84.988
X133.629Y-96.19
X135.382Y-90.424
X138.646Y-60.935
T3
X86.868Y-66.142
X94.368Y-72.742
T4
X86.563Y-95.707
X89.103Y-95.707
X91.643Y-95.707
T5
X52.213Y-48.81
X54.213Y-48.81
T6
X67.945Y-101.092
X70.485Y-101.092
X73.025Y-101.092
X75.565Y-101.092
X125.07Y-109.525
X127.61Y-109.525
X130.15Y-109.525
X132.69Y-109.525
T7
X110.769Y-92.532
X110.769Y-95.032
X113.969Y-92.532
X113.969Y-95.032
T8
X85.868Y-62.542
X93.868Y-62.542
X93.868Y-65.542
T9
X66.62Y-50.0
X66.62Y-54.0
X70.12Y-50.0
X70.12Y-54.0
X73.62Y-50.0
X73.62Y-54.0
X77.12Y-50.0
X77.12Y-54.0
X80.62Y-50.0
X80.62Y-54.0
X84.12Y-50.0
X84.12Y-54.0
X108.89Y-50.0
X108.89Y-54.0
X112.39Y-50.0
X112.39Y-54.0
X115.89Y-50.0
X115.89Y-54.0
X119.39Y-50.0
X119.39Y-54.0
X122.89Y-50.0
X122.89Y-54.0
X126.39Y-50.0
X126.39Y-54.0
X129.89Y-50.0
X129.89Y-54.0
X133.39Y-50.0
X133.39Y-54.0
X136.89Y-50.0
X136.89Y-54.0
X140.39Y-50.0
X140.39Y-54.0
T10
X113.03Y-62.84
X113.03Y-68.34
T11
X113.479Y-87.762
X113.479Y-99.802
T12
X100.0Y-50.0
T0
M30
