G04 #@! TF.GenerationSoftware,KiCad,Pcbnew,(5.1.6-0-10_14)*
G04 #@! TF.CreationDate,2021-12-24T10:53:56+01:00*
G04 #@! TF.ProjectId,CHAdeMO_V2.0,43484164-654d-44f5-9f56-322e302e6b69,rev?*
G04 #@! TF.SameCoordinates,Original*
G04 #@! TF.FileFunction,Copper,L3,Inr*
G04 #@! TF.FilePolarity,Positive*
%FSLAX46Y46*%
G04 Gerber Fmt 4.6, Leading zero omitted, Abs format (unit mm)*
G04 Created by KiCad (PCBNEW (5.1.6-0-10_14)) date 2021-12-24 10:53:56*
%MOMM*%
%LPD*%
G01*
G04 APERTURE LIST*
G04 #@! TA.AperFunction,ViaPad*
%ADD10C,1.875000*%
G04 #@! TD*
G04 #@! TA.AperFunction,ViaPad*
%ADD11C,1.333000*%
G04 #@! TD*
G04 #@! TA.AperFunction,ViaPad*
%ADD12C,1.350000*%
G04 #@! TD*
G04 #@! TA.AperFunction,ViaPad*
%ADD13C,4.575000*%
G04 #@! TD*
G04 #@! TA.AperFunction,ViaPad*
%ADD14C,1.905000*%
G04 #@! TD*
G04 #@! TA.AperFunction,ViaPad*
%ADD15C,1.270000*%
G04 #@! TD*
G04 #@! TA.AperFunction,ViaPad*
%ADD16C,1.368000*%
G04 #@! TD*
G04 #@! TA.AperFunction,ViaPad*
%ADD17R,1.368000X1.368000*%
G04 #@! TD*
G04 #@! TA.AperFunction,ViaPad*
%ADD18C,2.175000*%
G04 #@! TD*
G04 #@! TA.AperFunction,ViaPad*
%ADD19R,2.175000X2.175000*%
G04 #@! TD*
G04 #@! TA.AperFunction,ViaPad*
%ADD20C,1.430000*%
G04 #@! TD*
G04 #@! TA.AperFunction,ViaPad*
%ADD21C,3.450000*%
G04 #@! TD*
G04 #@! TA.AperFunction,ViaPad*
%ADD22C,1.431000*%
G04 #@! TD*
G04 #@! TA.AperFunction,ViaPad*
%ADD23C,0.800000*%
G04 #@! TD*
G04 #@! TA.AperFunction,ViaPad*
%ADD24C,0.450000*%
G04 #@! TD*
G04 #@! TA.AperFunction,Conductor*
%ADD25C,0.300000*%
G04 #@! TD*
G04 #@! TA.AperFunction,Conductor*
%ADD26C,0.254000*%
G04 #@! TD*
G04 APERTURE END LIST*
D10*
G04 #@! TO.N,/CHAdeMO_contactors_GND*
G04 #@! TO.C,K1*
X93868000Y-65541600D03*
G04 #@! TO.N,/CHAdeMO-CHARGE-START2_IN2*
X85868000Y-62541600D03*
G04 #@! TO.N,Net-(K1-Pad3)*
X93868000Y-62541600D03*
D11*
G04 #@! TO.N,/Relay_CHAdeMO_contactors_GND*
X94368000Y-72741600D03*
G04 #@! TO.N,+12V*
X86868000Y-66141600D03*
G04 #@! TD*
D12*
G04 #@! TO.N,+3V3*
G04 #@! TO.C,PS3*
X86563200Y-95707200D03*
G04 #@! TO.N,Earth*
X89103200Y-95707200D03*
G04 #@! TO.N,Net-(L9-Pad2)*
X91643200Y-95707200D03*
G04 #@! TD*
D13*
G04 #@! TO.N,Net-(J2-PadMH1)*
G04 #@! TO.C,J2*
X100000000Y-50000000D03*
D14*
G04 #@! TO.N,/CAN0_N*
X108890000Y-50000000D03*
G04 #@! TO.N,Earth*
X112390000Y-50000000D03*
G04 #@! TO.N,/CHAdeMO_contactor2-feedbackIN*
X115890000Y-50000000D03*
G04 #@! TO.N,/ACTIVE-LOW-WAKEUP*
X119390000Y-50000000D03*
G04 #@! TO.N,/CHAdeMO_contactor1-feedbackIN*
X122890000Y-50000000D03*
G04 #@! TO.N,+5V_USB*
X126390000Y-50000000D03*
G04 #@! TO.N,Earth*
X129890000Y-50000000D03*
D15*
G04 #@! TO.N,Net-(J2-PadA13)*
X133390000Y-50000000D03*
D14*
G04 #@! TO.N,/CAN0_N*
X136890000Y-50000000D03*
G04 #@! TO.N,/CAN0_P*
X140390000Y-50000000D03*
X108890000Y-54000000D03*
G04 #@! TO.N,/CHAdeMO-CHARGE-START1_IN1*
X112390000Y-54000000D03*
G04 #@! TO.N,/CAR-12V_always-on*
X115890000Y-54000000D03*
G04 #@! TO.N,Net-(F2-Pad1)*
X119390000Y-54000000D03*
G04 #@! TO.N,/CHAdeMO_contactors_GND*
X122890000Y-54000000D03*
G04 #@! TO.N,/DHSDP*
X126390000Y-54000000D03*
G04 #@! TO.N,/DHSDM*
X129890000Y-54000000D03*
D15*
G04 #@! TO.N,Net-(J2-PadA3)*
X133390000Y-54000000D03*
D14*
G04 #@! TO.N,Earth*
X136890000Y-54000000D03*
D15*
G04 #@! TO.N,Net-(J2-PadA1)*
X140390000Y-54000000D03*
D14*
G04 #@! TO.N,Net-(J2-PadB12)*
X66620000Y-50000000D03*
G04 #@! TO.N,Net-(J2-PadB11)*
X70120000Y-50000000D03*
G04 #@! TO.N,/CHAdeMO-CHARGE-START2_IN2*
X73620000Y-50000000D03*
G04 #@! TO.N,/CAN1_N*
X77120000Y-50000000D03*
G04 #@! TO.N,/CAN1_P*
X80620000Y-50000000D03*
G04 #@! TO.N,/CHAdeMO_PROXIMITY*
X84120000Y-50000000D03*
G04 #@! TO.N,Net-(J2-PadB6)*
X66620000Y-54000000D03*
G04 #@! TO.N,Net-(J2-PadB5)*
X70120000Y-54000000D03*
G04 #@! TO.N,/CHAdeMO_charge_enable*
X73620000Y-54000000D03*
G04 #@! TO.N,Net-(J2-PadB3)*
X77120000Y-54000000D03*
G04 #@! TO.N,/CHAdeMO-CHARGE-START1_IN1*
X80620000Y-54000000D03*
G04 #@! TO.N,Earth*
X84120000Y-54000000D03*
G04 #@! TD*
D16*
G04 #@! TO.N,/CAN1_P*
G04 #@! TO.C,J4*
X52213000Y-48810000D03*
D17*
G04 #@! TO.N,/CAN1_N*
X54213000Y-48810000D03*
G04 #@! TD*
D18*
G04 #@! TO.N,Earth*
G04 #@! TO.C,J3*
X113030000Y-68339600D03*
D19*
G04 #@! TO.N,/CAR-12V_always-on*
X113030000Y-62839600D03*
G04 #@! TD*
D20*
G04 #@! TO.N,+5V_0*
G04 #@! TO.C,PS1*
X132689600Y-109524800D03*
G04 #@! TO.N,GND_CAN0*
X130149600Y-109524800D03*
G04 #@! TO.N,Net-(C38-Pad2)*
X127609600Y-109524800D03*
G04 #@! TO.N,Earth*
X125069600Y-109524800D03*
G04 #@! TD*
G04 #@! TO.N,+5V_1*
G04 #@! TO.C,PS2*
X67945000Y-101092000D03*
G04 #@! TO.N,GND_CAN1*
X70485000Y-101092000D03*
G04 #@! TO.N,Net-(C39-Pad2)*
X73025000Y-101092000D03*
G04 #@! TO.N,Earth*
X75565000Y-101092000D03*
G04 #@! TD*
D21*
G04 #@! TO.N,Earth*
G04 #@! TO.C,J1*
X113479400Y-87762200D03*
X113479400Y-99802200D03*
D22*
X113969400Y-92532200D03*
G04 #@! TO.N,/DHSDP*
X113969400Y-95032200D03*
G04 #@! TO.N,/DHSDM*
X110769400Y-95032200D03*
G04 #@! TO.N,+5V_USB*
X110769400Y-92532200D03*
G04 #@! TD*
D23*
G04 #@! TO.N,Earth*
X104267000Y-116370100D03*
X104495600Y-66954400D03*
D24*
X93802200Y-123367800D03*
D23*
X81686400Y-126149100D03*
X75298300Y-116560600D03*
X98171000Y-110667800D03*
X87376000Y-113461800D03*
X98780600Y-104546400D03*
X93421200Y-106172000D03*
X100914200Y-110540800D03*
X103555800Y-110490000D03*
X84175600Y-114046000D03*
X104343200Y-123215400D03*
X121640600Y-66802000D03*
X72593200Y-92405200D03*
X74269600Y-85013800D03*
X91821000Y-81965800D03*
X101625400Y-106197400D03*
X104140000Y-132562600D03*
X99364800Y-121818400D03*
D24*
X97000060Y-122565160D03*
X97002600Y-120967500D03*
X94602300Y-120967500D03*
D23*
X94691200Y-110998000D03*
X91094038Y-118811562D03*
X107035600Y-111239300D03*
X83959700Y-120472200D03*
X98107500Y-66916300D03*
X72882019Y-80089481D03*
X73914000Y-74625200D03*
X124364750Y-67976750D03*
X124002800Y-72999600D03*
X121551700Y-79895700D03*
D24*
X95402400Y-121767600D03*
D23*
X100444300Y-127203200D03*
X84061300Y-125095000D03*
X88493600Y-121043700D03*
X67310000Y-58724800D03*
X88684100Y-117144800D03*
G04 #@! TO.N,Net-(C4-Pad1)*
X100787200Y-107188000D03*
D24*
X93805139Y-120164461D03*
D23*
G04 #@! TO.N,+3V3*
X83784400Y-126413500D03*
X85445600Y-120345200D03*
X108305600Y-108966000D03*
X84582000Y-118338600D03*
X87020400Y-131343400D03*
X100482400Y-131648200D03*
X92252800Y-102997000D03*
X79413100Y-112242600D03*
X124155200Y-71348600D03*
D24*
X93002100Y-123367800D03*
X93802200Y-124167900D03*
X94602300Y-121765060D03*
X93014800Y-120954800D03*
D23*
X96976530Y-110693200D03*
X77444600Y-73126600D03*
X93666881Y-110978087D03*
X89433400Y-114173000D03*
D24*
X92202000Y-123367800D03*
D23*
X105359200Y-129540000D03*
X119519700Y-113322100D03*
X76073000Y-91643200D03*
X75730100Y-80086200D03*
X122135900Y-92354400D03*
G04 #@! TO.N,/CAN0-TX*
X121894600Y-97434400D03*
D24*
X97002600Y-124167900D03*
D23*
G04 #@! TO.N,/CAN0-RX*
X121208800Y-94894400D03*
D24*
X96202500Y-124167900D03*
D23*
G04 #@! TO.N,/CAN1-RX*
X81762600Y-110591600D03*
X79349600Y-107873800D03*
D24*
G04 #@! TO.N,/EEPROM-SCL*
X91401900Y-123367800D03*
D23*
X88214200Y-125222000D03*
D24*
G04 #@! TO.N,/VDD_OUT_MI*
X97000060Y-121767600D03*
D23*
X102387400Y-116408200D03*
G04 #@! TO.N,+12V*
X106172000Y-59245500D03*
X108839000Y-59245500D03*
G04 #@! TO.N,/VDD_OUT*
X98094800Y-131572000D03*
D24*
X94602300Y-124167900D03*
D23*
X92075000Y-131368800D03*
D24*
X94602300Y-124968000D03*
D23*
X93510100Y-115214400D03*
X98094800Y-128765300D03*
D24*
X93002100Y-124167900D03*
D23*
G04 #@! TO.N,/CHAdeMO-charge-enable-signal_D48*
X72593200Y-68173600D03*
D24*
X93804740Y-125765560D03*
G04 #@! TO.N,/relay-CHAdeMO-contactors-signal_D49*
X96202500Y-123367800D03*
D23*
X97332800Y-114960400D03*
D24*
G04 #@! TO.N,/CHAdeMO-charge-start1_3.3Vsignal_IN1_D6*
X90601800Y-126568200D03*
D23*
X77495400Y-77317600D03*
G04 #@! TO.N,/CHAdeMO-charge-start2_3.3Vsignal_IN2_D7*
X83286600Y-88493600D03*
D24*
X96202500Y-124968000D03*
D23*
X90246200Y-117119400D03*
G04 #@! TO.N,GND_CAN1*
X64109600Y-78359000D03*
X53263800Y-55829200D03*
X69291200Y-88900000D03*
X73329800Y-45834300D03*
X66916300Y-67691000D03*
G04 #@! TO.N,GND_CAN0*
X135382000Y-90424000D03*
X138645900Y-60934600D03*
X129019300Y-76149200D03*
X128879600Y-84391500D03*
X131749800Y-84988400D03*
X131495800Y-93726000D03*
X133629400Y-96189800D03*
X114122200Y-44907200D03*
X130530600Y-45046900D03*
X106362500Y-54495700D03*
X106222800Y-43319700D03*
G04 #@! TO.N,+5V_USB*
X101727000Y-62230000D03*
G04 #@! TO.N,Net-(C5-Pad1)*
X95986600Y-116281200D03*
X94386400Y-118745000D03*
G04 #@! TO.N,Net-(C13-Pad1)*
X103530400Y-106146600D03*
X103855500Y-113474500D03*
G04 #@! TO.N,Net-(C18-Pad1)*
X79222600Y-114731800D03*
X89103200Y-118783810D03*
G04 #@! TO.N,/CHAdeMO_contactor2-feedbackIN*
X118872000Y-58547000D03*
D24*
G04 #@! TO.N,/CHAdeMO_contactor1-feedback_D27*
X92202000Y-120967500D03*
D23*
X115735100Y-82867500D03*
D24*
G04 #@! TO.N,Net-(IC3-PadH5)*
X93802200Y-120967500D03*
D23*
X95021400Y-115036600D03*
G04 #@! TO.N,Net-(IC3-PadG5)*
X91262200Y-111683800D03*
D24*
X93802200Y-121767600D03*
G04 #@! TO.N,/DHSDM*
X96189800Y-120180100D03*
G04 #@! TO.N,/DHSDP*
X96202500Y-120967500D03*
G04 #@! TD*
D25*
G04 #@! TO.N,+3V3*
X93538199Y-122317601D02*
X93014800Y-121794202D01*
X93014800Y-121794202D02*
X93014800Y-120954800D01*
X94039599Y-122317601D02*
X93538199Y-122317601D01*
X94615000Y-121742200D02*
X94039599Y-122317601D01*
X94665800Y-121742200D02*
X94615000Y-121742200D01*
X93014800Y-123367800D02*
X93014800Y-120954800D01*
X93014800Y-123393200D02*
X93802200Y-124180600D01*
X93014800Y-123367800D02*
X93014800Y-123393200D01*
G04 #@! TO.N,/VDD_OUT*
X95952401Y-121503599D02*
X95190401Y-120741599D01*
X94615000Y-123369002D02*
X95952401Y-122031601D01*
X95190401Y-120741599D02*
X95190401Y-120665399D01*
X95952401Y-122031601D02*
X95952401Y-121503599D01*
X94615000Y-124180600D02*
X94615000Y-123369002D01*
X93510100Y-118978702D02*
X93541138Y-119009740D01*
X93510100Y-118985098D02*
X93510100Y-118516400D01*
X94425101Y-119900099D02*
X93510100Y-118985098D01*
X93510100Y-115214400D02*
X93510100Y-118516400D01*
X95190401Y-120665399D02*
X94425101Y-119900099D01*
X93510100Y-118516400D02*
X93510100Y-118978702D01*
X94425101Y-119900099D02*
X94139462Y-119614460D01*
G04 #@! TD*
D26*
G04 #@! TO.N,+3V3*
G36*
X125095000Y-67243289D02*
G01*
X125024524Y-67172813D01*
X124855006Y-67059545D01*
X124666648Y-66981524D01*
X124466689Y-66941750D01*
X124262811Y-66941750D01*
X124062852Y-66981524D01*
X123874494Y-67059545D01*
X123704976Y-67172813D01*
X123560813Y-67316976D01*
X123447545Y-67486494D01*
X123369524Y-67674852D01*
X123329750Y-67874811D01*
X123329750Y-68078689D01*
X123369524Y-68278648D01*
X123447545Y-68467006D01*
X123560813Y-68636524D01*
X123704976Y-68780687D01*
X123874494Y-68893955D01*
X124062852Y-68971976D01*
X124262811Y-69011750D01*
X124466689Y-69011750D01*
X124666648Y-68971976D01*
X124855006Y-68893955D01*
X125024524Y-68780687D01*
X125095000Y-68710211D01*
X125095000Y-108174800D01*
X124936637Y-108174800D01*
X124675820Y-108226680D01*
X124430135Y-108328446D01*
X124209025Y-108476187D01*
X124020987Y-108664225D01*
X123873246Y-108885335D01*
X123771480Y-109131020D01*
X123719600Y-109391837D01*
X123719600Y-109657763D01*
X123771480Y-109918580D01*
X123873246Y-110164265D01*
X124020987Y-110385375D01*
X124209025Y-110573413D01*
X124430135Y-110721154D01*
X124675820Y-110822920D01*
X124936637Y-110874800D01*
X125095000Y-110874800D01*
X125095000Y-116001800D01*
X125097440Y-116026576D01*
X125104667Y-116050401D01*
X125116403Y-116072357D01*
X125132197Y-116091603D01*
X125151443Y-116107397D01*
X125173399Y-116119133D01*
X125197224Y-116126360D01*
X125223024Y-116128796D01*
X141865000Y-115994587D01*
X141865000Y-148984500D01*
X73025000Y-148984500D01*
X73025000Y-147550727D01*
X139339000Y-147550727D01*
X139339000Y-147789273D01*
X139385538Y-148023236D01*
X139476825Y-148243624D01*
X139609354Y-148441968D01*
X139778032Y-148610646D01*
X139976376Y-148743175D01*
X140196764Y-148834462D01*
X140430727Y-148881000D01*
X140669273Y-148881000D01*
X140903236Y-148834462D01*
X141123624Y-148743175D01*
X141321968Y-148610646D01*
X141490646Y-148441968D01*
X141623175Y-148243624D01*
X141714462Y-148023236D01*
X141761000Y-147789273D01*
X141761000Y-147550727D01*
X141714462Y-147316764D01*
X141623175Y-147096376D01*
X141490646Y-146898032D01*
X141321968Y-146729354D01*
X141123624Y-146596825D01*
X140903236Y-146505538D01*
X140669273Y-146459000D01*
X140430727Y-146459000D01*
X140196764Y-146505538D01*
X139976376Y-146596825D01*
X139778032Y-146729354D01*
X139609354Y-146898032D01*
X139476825Y-147096376D01*
X139385538Y-147316764D01*
X139339000Y-147550727D01*
X73025000Y-147550727D01*
X73025000Y-131266861D01*
X91040000Y-131266861D01*
X91040000Y-131470739D01*
X91079774Y-131670698D01*
X91157795Y-131859056D01*
X91271063Y-132028574D01*
X91415226Y-132172737D01*
X91584744Y-132286005D01*
X91773102Y-132364026D01*
X91973061Y-132403800D01*
X92176939Y-132403800D01*
X92376898Y-132364026D01*
X92565256Y-132286005D01*
X92734774Y-132172737D01*
X92878937Y-132028574D01*
X92992205Y-131859056D01*
X93070226Y-131670698D01*
X93110000Y-131470739D01*
X93110000Y-131470061D01*
X97059800Y-131470061D01*
X97059800Y-131673939D01*
X97099574Y-131873898D01*
X97177595Y-132062256D01*
X97290863Y-132231774D01*
X97435026Y-132375937D01*
X97604544Y-132489205D01*
X97792902Y-132567226D01*
X97992861Y-132607000D01*
X98196739Y-132607000D01*
X98396698Y-132567226D01*
X98585056Y-132489205D01*
X98627775Y-132460661D01*
X103105000Y-132460661D01*
X103105000Y-132664539D01*
X103144774Y-132864498D01*
X103222795Y-133052856D01*
X103336063Y-133222374D01*
X103480226Y-133366537D01*
X103649744Y-133479805D01*
X103838102Y-133557826D01*
X104038061Y-133597600D01*
X104241939Y-133597600D01*
X104441898Y-133557826D01*
X104630256Y-133479805D01*
X104799774Y-133366537D01*
X104943937Y-133222374D01*
X105057205Y-133052856D01*
X105135226Y-132864498D01*
X105175000Y-132664539D01*
X105175000Y-132460661D01*
X105135226Y-132260702D01*
X105057205Y-132072344D01*
X104943937Y-131902826D01*
X104799774Y-131758663D01*
X104630256Y-131645395D01*
X104441898Y-131567374D01*
X104241939Y-131527600D01*
X104038061Y-131527600D01*
X103838102Y-131567374D01*
X103649744Y-131645395D01*
X103480226Y-131758663D01*
X103336063Y-131902826D01*
X103222795Y-132072344D01*
X103144774Y-132260702D01*
X103105000Y-132460661D01*
X98627775Y-132460661D01*
X98754574Y-132375937D01*
X98898737Y-132231774D01*
X99012005Y-132062256D01*
X99090026Y-131873898D01*
X99129800Y-131673939D01*
X99129800Y-131470061D01*
X99090026Y-131270102D01*
X99012005Y-131081744D01*
X98898737Y-130912226D01*
X98754574Y-130768063D01*
X98585056Y-130654795D01*
X98396698Y-130576774D01*
X98196739Y-130537000D01*
X97992861Y-130537000D01*
X97792902Y-130576774D01*
X97604544Y-130654795D01*
X97435026Y-130768063D01*
X97290863Y-130912226D01*
X97177595Y-131081744D01*
X97099574Y-131270102D01*
X97059800Y-131470061D01*
X93110000Y-131470061D01*
X93110000Y-131266861D01*
X93070226Y-131066902D01*
X92992205Y-130878544D01*
X92878937Y-130709026D01*
X92734774Y-130564863D01*
X92565256Y-130451595D01*
X92376898Y-130373574D01*
X92176939Y-130333800D01*
X91973061Y-130333800D01*
X91773102Y-130373574D01*
X91584744Y-130451595D01*
X91415226Y-130564863D01*
X91271063Y-130709026D01*
X91157795Y-130878544D01*
X91079774Y-131066902D01*
X91040000Y-131266861D01*
X73025000Y-131266861D01*
X73025000Y-128663361D01*
X97059800Y-128663361D01*
X97059800Y-128867239D01*
X97099574Y-129067198D01*
X97177595Y-129255556D01*
X97290863Y-129425074D01*
X97435026Y-129569237D01*
X97604544Y-129682505D01*
X97792902Y-129760526D01*
X97992861Y-129800300D01*
X98196739Y-129800300D01*
X98396698Y-129760526D01*
X98585056Y-129682505D01*
X98754574Y-129569237D01*
X98898737Y-129425074D01*
X99012005Y-129255556D01*
X99090026Y-129067198D01*
X99129800Y-128867239D01*
X99129800Y-128663361D01*
X99090026Y-128463402D01*
X99012005Y-128275044D01*
X98898737Y-128105526D01*
X98754574Y-127961363D01*
X98585056Y-127848095D01*
X98396698Y-127770074D01*
X98196739Y-127730300D01*
X97992861Y-127730300D01*
X97792902Y-127770074D01*
X97604544Y-127848095D01*
X97435026Y-127961363D01*
X97290863Y-128105526D01*
X97177595Y-128275044D01*
X97099574Y-128463402D01*
X97059800Y-128663361D01*
X73025000Y-128663361D01*
X73025000Y-126047161D01*
X80651400Y-126047161D01*
X80651400Y-126251039D01*
X80691174Y-126450998D01*
X80769195Y-126639356D01*
X80882463Y-126808874D01*
X81026626Y-126953037D01*
X81196144Y-127066305D01*
X81384502Y-127144326D01*
X81584461Y-127184100D01*
X81788339Y-127184100D01*
X81988298Y-127144326D01*
X82176656Y-127066305D01*
X82346174Y-126953037D01*
X82490337Y-126808874D01*
X82603605Y-126639356D01*
X82668164Y-126483497D01*
X89741800Y-126483497D01*
X89741800Y-126652903D01*
X89774849Y-126819053D01*
X89839678Y-126975563D01*
X89933795Y-127116418D01*
X90053582Y-127236205D01*
X90194437Y-127330322D01*
X90350947Y-127395151D01*
X90517097Y-127428200D01*
X90686503Y-127428200D01*
X90852653Y-127395151D01*
X91009163Y-127330322D01*
X91150018Y-127236205D01*
X91269805Y-127116418D01*
X91279932Y-127101261D01*
X99409300Y-127101261D01*
X99409300Y-127305139D01*
X99449074Y-127505098D01*
X99527095Y-127693456D01*
X99640363Y-127862974D01*
X99784526Y-128007137D01*
X99954044Y-128120405D01*
X100142402Y-128198426D01*
X100342361Y-128238200D01*
X100546239Y-128238200D01*
X100746198Y-128198426D01*
X100934556Y-128120405D01*
X101104074Y-128007137D01*
X101248237Y-127862974D01*
X101361505Y-127693456D01*
X101439526Y-127505098D01*
X101479300Y-127305139D01*
X101479300Y-127101261D01*
X101439526Y-126901302D01*
X101361505Y-126712944D01*
X101248237Y-126543426D01*
X101104074Y-126399263D01*
X100934556Y-126285995D01*
X100746198Y-126207974D01*
X100546239Y-126168200D01*
X100342361Y-126168200D01*
X100142402Y-126207974D01*
X99954044Y-126285995D01*
X99784526Y-126399263D01*
X99640363Y-126543426D01*
X99527095Y-126712944D01*
X99449074Y-126901302D01*
X99409300Y-127101261D01*
X91279932Y-127101261D01*
X91363922Y-126975563D01*
X91428751Y-126819053D01*
X91461800Y-126652903D01*
X91461800Y-126483497D01*
X91428751Y-126317347D01*
X91363922Y-126160837D01*
X91269805Y-126019982D01*
X91150018Y-125900195D01*
X91009163Y-125806078D01*
X90852653Y-125741249D01*
X90686503Y-125708200D01*
X90517097Y-125708200D01*
X90350947Y-125741249D01*
X90194437Y-125806078D01*
X90053582Y-125900195D01*
X89933795Y-126019982D01*
X89839678Y-126160837D01*
X89774849Y-126317347D01*
X89741800Y-126483497D01*
X82668164Y-126483497D01*
X82681626Y-126450998D01*
X82721400Y-126251039D01*
X82721400Y-126047161D01*
X82681626Y-125847202D01*
X82603605Y-125658844D01*
X82490337Y-125489326D01*
X82346174Y-125345163D01*
X82176656Y-125231895D01*
X81988298Y-125153874D01*
X81788339Y-125114100D01*
X81584461Y-125114100D01*
X81384502Y-125153874D01*
X81196144Y-125231895D01*
X81026626Y-125345163D01*
X80882463Y-125489326D01*
X80769195Y-125658844D01*
X80691174Y-125847202D01*
X80651400Y-126047161D01*
X73025000Y-126047161D01*
X73025000Y-124993061D01*
X83026300Y-124993061D01*
X83026300Y-125196939D01*
X83066074Y-125396898D01*
X83144095Y-125585256D01*
X83257363Y-125754774D01*
X83401526Y-125898937D01*
X83571044Y-126012205D01*
X83759402Y-126090226D01*
X83959361Y-126130000D01*
X84163239Y-126130000D01*
X84363198Y-126090226D01*
X84551556Y-126012205D01*
X84721074Y-125898937D01*
X84865237Y-125754774D01*
X84978505Y-125585256D01*
X85056526Y-125396898D01*
X85096300Y-125196939D01*
X85096300Y-125120061D01*
X87179200Y-125120061D01*
X87179200Y-125323939D01*
X87218974Y-125523898D01*
X87296995Y-125712256D01*
X87410263Y-125881774D01*
X87554426Y-126025937D01*
X87723944Y-126139205D01*
X87912302Y-126217226D01*
X88112261Y-126257000D01*
X88316139Y-126257000D01*
X88516098Y-126217226D01*
X88704456Y-126139205D01*
X88873974Y-126025937D01*
X89018137Y-125881774D01*
X89131405Y-125712256D01*
X89209426Y-125523898D01*
X89249200Y-125323939D01*
X89249200Y-125120061D01*
X89209426Y-124920102D01*
X89131405Y-124731744D01*
X89018137Y-124562226D01*
X88873974Y-124418063D01*
X88704456Y-124304795D01*
X88516098Y-124226774D01*
X88316139Y-124187000D01*
X88112261Y-124187000D01*
X87912302Y-124226774D01*
X87723944Y-124304795D01*
X87554426Y-124418063D01*
X87410263Y-124562226D01*
X87296995Y-124731744D01*
X87218974Y-124920102D01*
X87179200Y-125120061D01*
X85096300Y-125120061D01*
X85096300Y-124993061D01*
X85056526Y-124793102D01*
X84978505Y-124604744D01*
X84865237Y-124435226D01*
X84721074Y-124291063D01*
X84551556Y-124177795D01*
X84363198Y-124099774D01*
X84163239Y-124060000D01*
X83959361Y-124060000D01*
X83759402Y-124099774D01*
X83571044Y-124177795D01*
X83401526Y-124291063D01*
X83257363Y-124435226D01*
X83144095Y-124604744D01*
X83066074Y-124793102D01*
X83026300Y-124993061D01*
X73025000Y-124993061D01*
X73025000Y-123283097D01*
X90541900Y-123283097D01*
X90541900Y-123452503D01*
X90574949Y-123618653D01*
X90639778Y-123775163D01*
X90733895Y-123916018D01*
X90853682Y-124035805D01*
X90994537Y-124129922D01*
X91151047Y-124194751D01*
X91317197Y-124227800D01*
X91486603Y-124227800D01*
X91652753Y-124194751D01*
X91809263Y-124129922D01*
X91950118Y-124035805D01*
X92069905Y-123916018D01*
X92164022Y-123775163D01*
X92228851Y-123618653D01*
X92261900Y-123452503D01*
X92261900Y-123283097D01*
X92228851Y-123116947D01*
X92164022Y-122960437D01*
X92069905Y-122819582D01*
X91950118Y-122699795D01*
X91809263Y-122605678D01*
X91652753Y-122540849D01*
X91486603Y-122507800D01*
X91317197Y-122507800D01*
X91151047Y-122540849D01*
X90994537Y-122605678D01*
X90853682Y-122699795D01*
X90733895Y-122819582D01*
X90639778Y-122960437D01*
X90574949Y-123116947D01*
X90541900Y-123283097D01*
X73025000Y-123283097D01*
X73025000Y-120370261D01*
X82924700Y-120370261D01*
X82924700Y-120574139D01*
X82964474Y-120774098D01*
X83042495Y-120962456D01*
X83155763Y-121131974D01*
X83299926Y-121276137D01*
X83469444Y-121389405D01*
X83657802Y-121467426D01*
X83857761Y-121507200D01*
X84061639Y-121507200D01*
X84261598Y-121467426D01*
X84449956Y-121389405D01*
X84619474Y-121276137D01*
X84763637Y-121131974D01*
X84876905Y-120962456D01*
X84885477Y-120941761D01*
X87458600Y-120941761D01*
X87458600Y-121145639D01*
X87498374Y-121345598D01*
X87576395Y-121533956D01*
X87689663Y-121703474D01*
X87833826Y-121847637D01*
X88003344Y-121960905D01*
X88191702Y-122038926D01*
X88391661Y-122078700D01*
X88595539Y-122078700D01*
X88795498Y-122038926D01*
X88983856Y-121960905D01*
X89153374Y-121847637D01*
X89297537Y-121703474D01*
X89410805Y-121533956D01*
X89488826Y-121345598D01*
X89528600Y-121145639D01*
X89528600Y-120941761D01*
X89516872Y-120882797D01*
X91342000Y-120882797D01*
X91342000Y-121052203D01*
X91375049Y-121218353D01*
X91439878Y-121374863D01*
X91533995Y-121515718D01*
X91653782Y-121635505D01*
X91794637Y-121729622D01*
X91951147Y-121794451D01*
X92117297Y-121827500D01*
X92286703Y-121827500D01*
X92452853Y-121794451D01*
X92609363Y-121729622D01*
X92750218Y-121635505D01*
X92870005Y-121515718D01*
X92964122Y-121374863D01*
X93002100Y-121283177D01*
X93037049Y-121367550D01*
X92975249Y-121516747D01*
X92942200Y-121682897D01*
X92942200Y-121852303D01*
X92975249Y-122018453D01*
X93040078Y-122174963D01*
X93134195Y-122315818D01*
X93253982Y-122435605D01*
X93394837Y-122529722D01*
X93486523Y-122567700D01*
X93394837Y-122605678D01*
X93253982Y-122699795D01*
X93134195Y-122819582D01*
X93040078Y-122960437D01*
X92975249Y-123116947D01*
X92942200Y-123283097D01*
X92942200Y-123307900D01*
X92917397Y-123307900D01*
X92751247Y-123340949D01*
X92594737Y-123405778D01*
X92453882Y-123499895D01*
X92334095Y-123619682D01*
X92239978Y-123760537D01*
X92175149Y-123917047D01*
X92142100Y-124083197D01*
X92142100Y-124252603D01*
X92175149Y-124418753D01*
X92239978Y-124575263D01*
X92334095Y-124716118D01*
X92453882Y-124835905D01*
X92594737Y-124930022D01*
X92751247Y-124994851D01*
X92917397Y-125027900D01*
X93086803Y-125027900D01*
X93252953Y-124994851D01*
X93409463Y-124930022D01*
X93550318Y-124835905D01*
X93670105Y-124716118D01*
X93764222Y-124575263D01*
X93802200Y-124483577D01*
X93837149Y-124567950D01*
X93775349Y-124717147D01*
X93742300Y-124883297D01*
X93742300Y-124905560D01*
X93720037Y-124905560D01*
X93553887Y-124938609D01*
X93397377Y-125003438D01*
X93256522Y-125097555D01*
X93136735Y-125217342D01*
X93042618Y-125358197D01*
X92977789Y-125514707D01*
X92944740Y-125680857D01*
X92944740Y-125850263D01*
X92977789Y-126016413D01*
X93042618Y-126172923D01*
X93136735Y-126313778D01*
X93256522Y-126433565D01*
X93397377Y-126527682D01*
X93553887Y-126592511D01*
X93720037Y-126625560D01*
X93889443Y-126625560D01*
X94055593Y-126592511D01*
X94212103Y-126527682D01*
X94352958Y-126433565D01*
X94472745Y-126313778D01*
X94566862Y-126172923D01*
X94631691Y-126016413D01*
X94664740Y-125850263D01*
X94664740Y-125828000D01*
X94687003Y-125828000D01*
X94853153Y-125794951D01*
X95009663Y-125730122D01*
X95150518Y-125636005D01*
X95270305Y-125516218D01*
X95364422Y-125375363D01*
X95402400Y-125283677D01*
X95440378Y-125375363D01*
X95534495Y-125516218D01*
X95654282Y-125636005D01*
X95795137Y-125730122D01*
X95951647Y-125794951D01*
X96117797Y-125828000D01*
X96287203Y-125828000D01*
X96453353Y-125794951D01*
X96609863Y-125730122D01*
X96750718Y-125636005D01*
X96870505Y-125516218D01*
X96964622Y-125375363D01*
X97029451Y-125218853D01*
X97062500Y-125052703D01*
X97062500Y-125027900D01*
X97087303Y-125027900D01*
X97253453Y-124994851D01*
X97409963Y-124930022D01*
X97550818Y-124835905D01*
X97670605Y-124716118D01*
X97764722Y-124575263D01*
X97829551Y-124418753D01*
X97862600Y-124252603D01*
X97862600Y-124083197D01*
X97829551Y-123917047D01*
X97764722Y-123760537D01*
X97670605Y-123619682D01*
X97550818Y-123499895D01*
X97409963Y-123405778D01*
X97313941Y-123366004D01*
X97407423Y-123327282D01*
X97548278Y-123233165D01*
X97667982Y-123113461D01*
X103308200Y-123113461D01*
X103308200Y-123317339D01*
X103347974Y-123517298D01*
X103425995Y-123705656D01*
X103539263Y-123875174D01*
X103683426Y-124019337D01*
X103852944Y-124132605D01*
X104041302Y-124210626D01*
X104241261Y-124250400D01*
X104445139Y-124250400D01*
X104645098Y-124210626D01*
X104833456Y-124132605D01*
X105002974Y-124019337D01*
X105147137Y-123875174D01*
X105260405Y-123705656D01*
X105338426Y-123517298D01*
X105378200Y-123317339D01*
X105378200Y-123113461D01*
X105338426Y-122913502D01*
X105260405Y-122725144D01*
X105147137Y-122555626D01*
X105002974Y-122411463D01*
X104833456Y-122298195D01*
X104645098Y-122220174D01*
X104445139Y-122180400D01*
X104241261Y-122180400D01*
X104041302Y-122220174D01*
X103852944Y-122298195D01*
X103683426Y-122411463D01*
X103539263Y-122555626D01*
X103425995Y-122725144D01*
X103347974Y-122913502D01*
X103308200Y-123113461D01*
X97667982Y-123113461D01*
X97668065Y-123113378D01*
X97762182Y-122972523D01*
X97827011Y-122816013D01*
X97860060Y-122649863D01*
X97860060Y-122480457D01*
X97827011Y-122314307D01*
X97765737Y-122166380D01*
X97827011Y-122018453D01*
X97860060Y-121852303D01*
X97860060Y-121716461D01*
X98329800Y-121716461D01*
X98329800Y-121920339D01*
X98369574Y-122120298D01*
X98447595Y-122308656D01*
X98560863Y-122478174D01*
X98705026Y-122622337D01*
X98874544Y-122735605D01*
X99062902Y-122813626D01*
X99262861Y-122853400D01*
X99466739Y-122853400D01*
X99666698Y-122813626D01*
X99855056Y-122735605D01*
X100024574Y-122622337D01*
X100168737Y-122478174D01*
X100282005Y-122308656D01*
X100360026Y-122120298D01*
X100399800Y-121920339D01*
X100399800Y-121716461D01*
X100360026Y-121516502D01*
X100282005Y-121328144D01*
X100168737Y-121158626D01*
X100024574Y-121014463D01*
X99855056Y-120901195D01*
X99666698Y-120823174D01*
X99466739Y-120783400D01*
X99262861Y-120783400D01*
X99062902Y-120823174D01*
X98874544Y-120901195D01*
X98705026Y-121014463D01*
X98560863Y-121158626D01*
X98447595Y-121328144D01*
X98369574Y-121516502D01*
X98329800Y-121716461D01*
X97860060Y-121716461D01*
X97860060Y-121682897D01*
X97827011Y-121516747D01*
X97766481Y-121370616D01*
X97829551Y-121218353D01*
X97862600Y-121052203D01*
X97862600Y-120882797D01*
X97829551Y-120716647D01*
X97764722Y-120560137D01*
X97670605Y-120419282D01*
X97550818Y-120299495D01*
X97409963Y-120205378D01*
X97253453Y-120140549D01*
X97087303Y-120107500D01*
X97049800Y-120107500D01*
X97049800Y-120095397D01*
X97016751Y-119929247D01*
X96951922Y-119772737D01*
X96857805Y-119631882D01*
X96738018Y-119512095D01*
X96597163Y-119417978D01*
X96440653Y-119353149D01*
X96274503Y-119320100D01*
X96105097Y-119320100D01*
X95938947Y-119353149D01*
X95782437Y-119417978D01*
X95641582Y-119512095D01*
X95521795Y-119631882D01*
X95427678Y-119772737D01*
X95421884Y-119786725D01*
X95115135Y-119479976D01*
X95190337Y-119404774D01*
X95303605Y-119235256D01*
X95381626Y-119046898D01*
X95421400Y-118846939D01*
X95421400Y-118643061D01*
X95381626Y-118443102D01*
X95303605Y-118254744D01*
X95190337Y-118085226D01*
X95046174Y-117941063D01*
X94876656Y-117827795D01*
X94688298Y-117749774D01*
X94488339Y-117710000D01*
X94295100Y-117710000D01*
X94295100Y-115893111D01*
X94314037Y-115874174D01*
X94346572Y-115825483D01*
X94361626Y-115840537D01*
X94531144Y-115953805D01*
X94719502Y-116031826D01*
X94919461Y-116071600D01*
X94973015Y-116071600D01*
X94951600Y-116179261D01*
X94951600Y-116383139D01*
X94991374Y-116583098D01*
X95069395Y-116771456D01*
X95182663Y-116940974D01*
X95326826Y-117085137D01*
X95496344Y-117198405D01*
X95684702Y-117276426D01*
X95884661Y-117316200D01*
X96088539Y-117316200D01*
X96288498Y-117276426D01*
X96476856Y-117198405D01*
X96646374Y-117085137D01*
X96790537Y-116940974D01*
X96903805Y-116771456D01*
X96981826Y-116583098D01*
X97021600Y-116383139D01*
X97021600Y-116306261D01*
X101352400Y-116306261D01*
X101352400Y-116510139D01*
X101392174Y-116710098D01*
X101470195Y-116898456D01*
X101583463Y-117067974D01*
X101727626Y-117212137D01*
X101897144Y-117325405D01*
X102085502Y-117403426D01*
X102285461Y-117443200D01*
X102489339Y-117443200D01*
X102689298Y-117403426D01*
X102877656Y-117325405D01*
X103047174Y-117212137D01*
X103191337Y-117067974D01*
X103304605Y-116898456D01*
X103335091Y-116824857D01*
X103349795Y-116860356D01*
X103463063Y-117029874D01*
X103607226Y-117174037D01*
X103776744Y-117287305D01*
X103965102Y-117365326D01*
X104165061Y-117405100D01*
X104368939Y-117405100D01*
X104568898Y-117365326D01*
X104757256Y-117287305D01*
X104926774Y-117174037D01*
X105070937Y-117029874D01*
X105184205Y-116860356D01*
X105262226Y-116671998D01*
X105302000Y-116472039D01*
X105302000Y-116268161D01*
X105262226Y-116068202D01*
X105184205Y-115879844D01*
X105070937Y-115710326D01*
X104926774Y-115566163D01*
X104757256Y-115452895D01*
X104568898Y-115374874D01*
X104368939Y-115335100D01*
X104165061Y-115335100D01*
X103965102Y-115374874D01*
X103776744Y-115452895D01*
X103607226Y-115566163D01*
X103463063Y-115710326D01*
X103349795Y-115879844D01*
X103319309Y-115953443D01*
X103304605Y-115917944D01*
X103191337Y-115748426D01*
X103047174Y-115604263D01*
X102877656Y-115490995D01*
X102689298Y-115412974D01*
X102489339Y-115373200D01*
X102285461Y-115373200D01*
X102085502Y-115412974D01*
X101897144Y-115490995D01*
X101727626Y-115604263D01*
X101583463Y-115748426D01*
X101470195Y-115917944D01*
X101392174Y-116106302D01*
X101352400Y-116306261D01*
X97021600Y-116306261D01*
X97021600Y-116179261D01*
X96981826Y-115979302D01*
X96959824Y-115926184D01*
X97030902Y-115955626D01*
X97230861Y-115995400D01*
X97434739Y-115995400D01*
X97634698Y-115955626D01*
X97823056Y-115877605D01*
X97992574Y-115764337D01*
X98136737Y-115620174D01*
X98250005Y-115450656D01*
X98328026Y-115262298D01*
X98367800Y-115062339D01*
X98367800Y-114858461D01*
X98328026Y-114658502D01*
X98250005Y-114470144D01*
X98136737Y-114300626D01*
X97992574Y-114156463D01*
X97823056Y-114043195D01*
X97634698Y-113965174D01*
X97434739Y-113925400D01*
X97230861Y-113925400D01*
X97030902Y-113965174D01*
X96842544Y-114043195D01*
X96673026Y-114156463D01*
X96528863Y-114300626D01*
X96415595Y-114470144D01*
X96337574Y-114658502D01*
X96297800Y-114858461D01*
X96297800Y-115062339D01*
X96337574Y-115262298D01*
X96359576Y-115315416D01*
X96288498Y-115285974D01*
X96088539Y-115246200D01*
X96034985Y-115246200D01*
X96056400Y-115138539D01*
X96056400Y-114934661D01*
X96016626Y-114734702D01*
X95938605Y-114546344D01*
X95825337Y-114376826D01*
X95681174Y-114232663D01*
X95511656Y-114119395D01*
X95323298Y-114041374D01*
X95123339Y-114001600D01*
X94919461Y-114001600D01*
X94719502Y-114041374D01*
X94531144Y-114119395D01*
X94361626Y-114232663D01*
X94217463Y-114376826D01*
X94184928Y-114425517D01*
X94169874Y-114410463D01*
X94000356Y-114297195D01*
X93811998Y-114219174D01*
X93612039Y-114179400D01*
X93408161Y-114179400D01*
X93208202Y-114219174D01*
X93019844Y-114297195D01*
X92850326Y-114410463D01*
X92706163Y-114554626D01*
X92592895Y-114724144D01*
X92514874Y-114912502D01*
X92475100Y-115112461D01*
X92475100Y-115316339D01*
X92514874Y-115516298D01*
X92592895Y-115704656D01*
X92706163Y-115874174D01*
X92725100Y-115893111D01*
X92725101Y-118477829D01*
X92725100Y-118477839D01*
X92725100Y-118940149D01*
X92721303Y-118978702D01*
X92721618Y-118981900D01*
X92721303Y-118985098D01*
X92725100Y-119023651D01*
X92725100Y-119023658D01*
X92736459Y-119138984D01*
X92781346Y-119286957D01*
X92854238Y-119423330D01*
X92952336Y-119542862D01*
X92982290Y-119567445D01*
X93094658Y-119679813D01*
X93043017Y-119757098D01*
X92978188Y-119913608D01*
X92945139Y-120079758D01*
X92945139Y-120249164D01*
X92978188Y-120415314D01*
X93039127Y-120562433D01*
X93002100Y-120651823D01*
X92964122Y-120560137D01*
X92870005Y-120419282D01*
X92750218Y-120299495D01*
X92609363Y-120205378D01*
X92452853Y-120140549D01*
X92286703Y-120107500D01*
X92117297Y-120107500D01*
X91951147Y-120140549D01*
X91794637Y-120205378D01*
X91653782Y-120299495D01*
X91533995Y-120419282D01*
X91439878Y-120560137D01*
X91375049Y-120716647D01*
X91342000Y-120882797D01*
X89516872Y-120882797D01*
X89488826Y-120741802D01*
X89410805Y-120553444D01*
X89297537Y-120383926D01*
X89153374Y-120239763D01*
X88983856Y-120126495D01*
X88795498Y-120048474D01*
X88595539Y-120008700D01*
X88391661Y-120008700D01*
X88191702Y-120048474D01*
X88003344Y-120126495D01*
X87833826Y-120239763D01*
X87689663Y-120383926D01*
X87576395Y-120553444D01*
X87498374Y-120741802D01*
X87458600Y-120941761D01*
X84885477Y-120941761D01*
X84954926Y-120774098D01*
X84994700Y-120574139D01*
X84994700Y-120370261D01*
X84954926Y-120170302D01*
X84876905Y-119981944D01*
X84763637Y-119812426D01*
X84619474Y-119668263D01*
X84449956Y-119554995D01*
X84261598Y-119476974D01*
X84061639Y-119437200D01*
X83857761Y-119437200D01*
X83657802Y-119476974D01*
X83469444Y-119554995D01*
X83299926Y-119668263D01*
X83155763Y-119812426D01*
X83042495Y-119981944D01*
X82964474Y-120170302D01*
X82924700Y-120370261D01*
X73025000Y-120370261D01*
X73025000Y-116458661D01*
X74263300Y-116458661D01*
X74263300Y-116662539D01*
X74303074Y-116862498D01*
X74381095Y-117050856D01*
X74494363Y-117220374D01*
X74638526Y-117364537D01*
X74808044Y-117477805D01*
X74996402Y-117555826D01*
X75196361Y-117595600D01*
X75400239Y-117595600D01*
X75600198Y-117555826D01*
X75788556Y-117477805D01*
X75958074Y-117364537D01*
X76102237Y-117220374D01*
X76215505Y-117050856D01*
X76218816Y-117042861D01*
X87649100Y-117042861D01*
X87649100Y-117246739D01*
X87688874Y-117446698D01*
X87766895Y-117635056D01*
X87880163Y-117804574D01*
X88024326Y-117948737D01*
X88193844Y-118062005D01*
X88312249Y-118111050D01*
X88299263Y-118124036D01*
X88185995Y-118293554D01*
X88107974Y-118481912D01*
X88068200Y-118681871D01*
X88068200Y-118885749D01*
X88107974Y-119085708D01*
X88185995Y-119274066D01*
X88299263Y-119443584D01*
X88443426Y-119587747D01*
X88612944Y-119701015D01*
X88801302Y-119779036D01*
X89001261Y-119818810D01*
X89205139Y-119818810D01*
X89405098Y-119779036D01*
X89593456Y-119701015D01*
X89762974Y-119587747D01*
X89907137Y-119443584D01*
X90020405Y-119274066D01*
X90094957Y-119094082D01*
X90098812Y-119113460D01*
X90176833Y-119301818D01*
X90290101Y-119471336D01*
X90434264Y-119615499D01*
X90603782Y-119728767D01*
X90792140Y-119806788D01*
X90992099Y-119846562D01*
X91195977Y-119846562D01*
X91395936Y-119806788D01*
X91584294Y-119728767D01*
X91753812Y-119615499D01*
X91897975Y-119471336D01*
X92011243Y-119301818D01*
X92089264Y-119113460D01*
X92129038Y-118913501D01*
X92129038Y-118709623D01*
X92089264Y-118509664D01*
X92011243Y-118321306D01*
X91897975Y-118151788D01*
X91753812Y-118007625D01*
X91584294Y-117894357D01*
X91395936Y-117816336D01*
X91195977Y-117776562D01*
X91051882Y-117776562D01*
X91163405Y-117609656D01*
X91241426Y-117421298D01*
X91281200Y-117221339D01*
X91281200Y-117017461D01*
X91241426Y-116817502D01*
X91163405Y-116629144D01*
X91050137Y-116459626D01*
X90905974Y-116315463D01*
X90736456Y-116202195D01*
X90548098Y-116124174D01*
X90348139Y-116084400D01*
X90144261Y-116084400D01*
X89944302Y-116124174D01*
X89755944Y-116202195D01*
X89586426Y-116315463D01*
X89452450Y-116449439D01*
X89343874Y-116340863D01*
X89174356Y-116227595D01*
X88985998Y-116149574D01*
X88786039Y-116109800D01*
X88582161Y-116109800D01*
X88382202Y-116149574D01*
X88193844Y-116227595D01*
X88024326Y-116340863D01*
X87880163Y-116485026D01*
X87766895Y-116654544D01*
X87688874Y-116842902D01*
X87649100Y-117042861D01*
X76218816Y-117042861D01*
X76293526Y-116862498D01*
X76333300Y-116662539D01*
X76333300Y-116458661D01*
X76293526Y-116258702D01*
X76215505Y-116070344D01*
X76102237Y-115900826D01*
X75958074Y-115756663D01*
X75788556Y-115643395D01*
X75600198Y-115565374D01*
X75400239Y-115525600D01*
X75196361Y-115525600D01*
X74996402Y-115565374D01*
X74808044Y-115643395D01*
X74638526Y-115756663D01*
X74494363Y-115900826D01*
X74381095Y-116070344D01*
X74303074Y-116258702D01*
X74263300Y-116458661D01*
X73025000Y-116458661D01*
X73025000Y-114629861D01*
X78187600Y-114629861D01*
X78187600Y-114833739D01*
X78227374Y-115033698D01*
X78305395Y-115222056D01*
X78418663Y-115391574D01*
X78562826Y-115535737D01*
X78732344Y-115649005D01*
X78920702Y-115727026D01*
X79120661Y-115766800D01*
X79324539Y-115766800D01*
X79524498Y-115727026D01*
X79712856Y-115649005D01*
X79882374Y-115535737D01*
X80026537Y-115391574D01*
X80139805Y-115222056D01*
X80217826Y-115033698D01*
X80257600Y-114833739D01*
X80257600Y-114629861D01*
X80217826Y-114429902D01*
X80139805Y-114241544D01*
X80026537Y-114072026D01*
X79898572Y-113944061D01*
X83140600Y-113944061D01*
X83140600Y-114147939D01*
X83180374Y-114347898D01*
X83258395Y-114536256D01*
X83371663Y-114705774D01*
X83515826Y-114849937D01*
X83685344Y-114963205D01*
X83873702Y-115041226D01*
X84073661Y-115081000D01*
X84277539Y-115081000D01*
X84477498Y-115041226D01*
X84665856Y-114963205D01*
X84835374Y-114849937D01*
X84979537Y-114705774D01*
X85092805Y-114536256D01*
X85170826Y-114347898D01*
X85210600Y-114147939D01*
X85210600Y-113944061D01*
X85170826Y-113744102D01*
X85092805Y-113555744D01*
X84979537Y-113386226D01*
X84953172Y-113359861D01*
X86341000Y-113359861D01*
X86341000Y-113563739D01*
X86380774Y-113763698D01*
X86458795Y-113952056D01*
X86572063Y-114121574D01*
X86716226Y-114265737D01*
X86885744Y-114379005D01*
X87074102Y-114457026D01*
X87274061Y-114496800D01*
X87477939Y-114496800D01*
X87677898Y-114457026D01*
X87866256Y-114379005D01*
X88035774Y-114265737D01*
X88179937Y-114121574D01*
X88293205Y-113952056D01*
X88371226Y-113763698D01*
X88411000Y-113563739D01*
X88411000Y-113372561D01*
X102820500Y-113372561D01*
X102820500Y-113576439D01*
X102860274Y-113776398D01*
X102938295Y-113964756D01*
X103051563Y-114134274D01*
X103195726Y-114278437D01*
X103365244Y-114391705D01*
X103553602Y-114469726D01*
X103753561Y-114509500D01*
X103957439Y-114509500D01*
X104157398Y-114469726D01*
X104345756Y-114391705D01*
X104515274Y-114278437D01*
X104659437Y-114134274D01*
X104772705Y-113964756D01*
X104850726Y-113776398D01*
X104890500Y-113576439D01*
X104890500Y-113372561D01*
X104850726Y-113172602D01*
X104772705Y-112984244D01*
X104659437Y-112814726D01*
X104515274Y-112670563D01*
X104345756Y-112557295D01*
X104157398Y-112479274D01*
X103957439Y-112439500D01*
X103753561Y-112439500D01*
X103553602Y-112479274D01*
X103365244Y-112557295D01*
X103195726Y-112670563D01*
X103051563Y-112814726D01*
X102938295Y-112984244D01*
X102860274Y-113172602D01*
X102820500Y-113372561D01*
X88411000Y-113372561D01*
X88411000Y-113359861D01*
X88371226Y-113159902D01*
X88293205Y-112971544D01*
X88179937Y-112802026D01*
X88035774Y-112657863D01*
X87866256Y-112544595D01*
X87677898Y-112466574D01*
X87477939Y-112426800D01*
X87274061Y-112426800D01*
X87074102Y-112466574D01*
X86885744Y-112544595D01*
X86716226Y-112657863D01*
X86572063Y-112802026D01*
X86458795Y-112971544D01*
X86380774Y-113159902D01*
X86341000Y-113359861D01*
X84953172Y-113359861D01*
X84835374Y-113242063D01*
X84665856Y-113128795D01*
X84477498Y-113050774D01*
X84277539Y-113011000D01*
X84073661Y-113011000D01*
X83873702Y-113050774D01*
X83685344Y-113128795D01*
X83515826Y-113242063D01*
X83371663Y-113386226D01*
X83258395Y-113555744D01*
X83180374Y-113744102D01*
X83140600Y-113944061D01*
X79898572Y-113944061D01*
X79882374Y-113927863D01*
X79712856Y-113814595D01*
X79524498Y-113736574D01*
X79324539Y-113696800D01*
X79120661Y-113696800D01*
X78920702Y-113736574D01*
X78732344Y-113814595D01*
X78562826Y-113927863D01*
X78418663Y-114072026D01*
X78305395Y-114241544D01*
X78227374Y-114429902D01*
X78187600Y-114629861D01*
X73025000Y-114629861D01*
X73025000Y-110489661D01*
X80727600Y-110489661D01*
X80727600Y-110693539D01*
X80767374Y-110893498D01*
X80845395Y-111081856D01*
X80958663Y-111251374D01*
X81102826Y-111395537D01*
X81272344Y-111508805D01*
X81460702Y-111586826D01*
X81660661Y-111626600D01*
X81864539Y-111626600D01*
X82064498Y-111586826D01*
X82076484Y-111581861D01*
X90227200Y-111581861D01*
X90227200Y-111785739D01*
X90266974Y-111985698D01*
X90344995Y-112174056D01*
X90458263Y-112343574D01*
X90602426Y-112487737D01*
X90771944Y-112601005D01*
X90960302Y-112679026D01*
X91160261Y-112718800D01*
X91364139Y-112718800D01*
X91564098Y-112679026D01*
X91752456Y-112601005D01*
X91921974Y-112487737D01*
X92066137Y-112343574D01*
X92179405Y-112174056D01*
X92257426Y-111985698D01*
X92297200Y-111785739D01*
X92297200Y-111581861D01*
X92257426Y-111381902D01*
X92179405Y-111193544D01*
X92066137Y-111024026D01*
X91938172Y-110896061D01*
X93656200Y-110896061D01*
X93656200Y-111099939D01*
X93695974Y-111299898D01*
X93773995Y-111488256D01*
X93887263Y-111657774D01*
X94031426Y-111801937D01*
X94200944Y-111915205D01*
X94389302Y-111993226D01*
X94589261Y-112033000D01*
X94793139Y-112033000D01*
X94993098Y-111993226D01*
X95181456Y-111915205D01*
X95350974Y-111801937D01*
X95495137Y-111657774D01*
X95608405Y-111488256D01*
X95686426Y-111299898D01*
X95726200Y-111099939D01*
X95726200Y-110896061D01*
X95686426Y-110696102D01*
X95632479Y-110565861D01*
X97136000Y-110565861D01*
X97136000Y-110769739D01*
X97175774Y-110969698D01*
X97253795Y-111158056D01*
X97367063Y-111327574D01*
X97511226Y-111471737D01*
X97680744Y-111585005D01*
X97869102Y-111663026D01*
X98069061Y-111702800D01*
X98272939Y-111702800D01*
X98472898Y-111663026D01*
X98661256Y-111585005D01*
X98830774Y-111471737D01*
X98974937Y-111327574D01*
X99088205Y-111158056D01*
X99166226Y-110969698D01*
X99206000Y-110769739D01*
X99206000Y-110565861D01*
X99180739Y-110438861D01*
X99879200Y-110438861D01*
X99879200Y-110642739D01*
X99918974Y-110842698D01*
X99996995Y-111031056D01*
X100110263Y-111200574D01*
X100254426Y-111344737D01*
X100423944Y-111458005D01*
X100612302Y-111536026D01*
X100812261Y-111575800D01*
X101016139Y-111575800D01*
X101216098Y-111536026D01*
X101404456Y-111458005D01*
X101573974Y-111344737D01*
X101718137Y-111200574D01*
X101831405Y-111031056D01*
X101909426Y-110842698D01*
X101949200Y-110642739D01*
X101949200Y-110438861D01*
X101939096Y-110388061D01*
X102520800Y-110388061D01*
X102520800Y-110591939D01*
X102560574Y-110791898D01*
X102638595Y-110980256D01*
X102751863Y-111149774D01*
X102896026Y-111293937D01*
X103065544Y-111407205D01*
X103253902Y-111485226D01*
X103453861Y-111525000D01*
X103657739Y-111525000D01*
X103857698Y-111485226D01*
X104046056Y-111407205D01*
X104215574Y-111293937D01*
X104359737Y-111149774D01*
X104368031Y-111137361D01*
X106000600Y-111137361D01*
X106000600Y-111341239D01*
X106040374Y-111541198D01*
X106118395Y-111729556D01*
X106231663Y-111899074D01*
X106375826Y-112043237D01*
X106545344Y-112156505D01*
X106733702Y-112234526D01*
X106933661Y-112274300D01*
X107137539Y-112274300D01*
X107337498Y-112234526D01*
X107525856Y-112156505D01*
X107695374Y-112043237D01*
X107839537Y-111899074D01*
X107952805Y-111729556D01*
X108030826Y-111541198D01*
X108070600Y-111341239D01*
X108070600Y-111137361D01*
X108030826Y-110937402D01*
X107952805Y-110749044D01*
X107839537Y-110579526D01*
X107695374Y-110435363D01*
X107525856Y-110322095D01*
X107337498Y-110244074D01*
X107137539Y-110204300D01*
X106933661Y-110204300D01*
X106733702Y-110244074D01*
X106545344Y-110322095D01*
X106375826Y-110435363D01*
X106231663Y-110579526D01*
X106118395Y-110749044D01*
X106040374Y-110937402D01*
X106000600Y-111137361D01*
X104368031Y-111137361D01*
X104473005Y-110980256D01*
X104551026Y-110791898D01*
X104590800Y-110591939D01*
X104590800Y-110388061D01*
X104551026Y-110188102D01*
X104473005Y-109999744D01*
X104359737Y-109830226D01*
X104215574Y-109686063D01*
X104046056Y-109572795D01*
X103857698Y-109494774D01*
X103657739Y-109455000D01*
X103453861Y-109455000D01*
X103253902Y-109494774D01*
X103065544Y-109572795D01*
X102896026Y-109686063D01*
X102751863Y-109830226D01*
X102638595Y-109999744D01*
X102560574Y-110188102D01*
X102520800Y-110388061D01*
X101939096Y-110388061D01*
X101909426Y-110238902D01*
X101831405Y-110050544D01*
X101718137Y-109881026D01*
X101573974Y-109736863D01*
X101404456Y-109623595D01*
X101216098Y-109545574D01*
X101016139Y-109505800D01*
X100812261Y-109505800D01*
X100612302Y-109545574D01*
X100423944Y-109623595D01*
X100254426Y-109736863D01*
X100110263Y-109881026D01*
X99996995Y-110050544D01*
X99918974Y-110238902D01*
X99879200Y-110438861D01*
X99180739Y-110438861D01*
X99166226Y-110365902D01*
X99088205Y-110177544D01*
X98974937Y-110008026D01*
X98830774Y-109863863D01*
X98661256Y-109750595D01*
X98472898Y-109672574D01*
X98272939Y-109632800D01*
X98069061Y-109632800D01*
X97869102Y-109672574D01*
X97680744Y-109750595D01*
X97511226Y-109863863D01*
X97367063Y-110008026D01*
X97253795Y-110177544D01*
X97175774Y-110365902D01*
X97136000Y-110565861D01*
X95632479Y-110565861D01*
X95608405Y-110507744D01*
X95495137Y-110338226D01*
X95350974Y-110194063D01*
X95181456Y-110080795D01*
X94993098Y-110002774D01*
X94793139Y-109963000D01*
X94589261Y-109963000D01*
X94389302Y-110002774D01*
X94200944Y-110080795D01*
X94031426Y-110194063D01*
X93887263Y-110338226D01*
X93773995Y-110507744D01*
X93695974Y-110696102D01*
X93656200Y-110896061D01*
X91938172Y-110896061D01*
X91921974Y-110879863D01*
X91752456Y-110766595D01*
X91564098Y-110688574D01*
X91364139Y-110648800D01*
X91160261Y-110648800D01*
X90960302Y-110688574D01*
X90771944Y-110766595D01*
X90602426Y-110879863D01*
X90458263Y-111024026D01*
X90344995Y-111193544D01*
X90266974Y-111381902D01*
X90227200Y-111581861D01*
X82076484Y-111581861D01*
X82252856Y-111508805D01*
X82422374Y-111395537D01*
X82566537Y-111251374D01*
X82679805Y-111081856D01*
X82757826Y-110893498D01*
X82797600Y-110693539D01*
X82797600Y-110489661D01*
X82757826Y-110289702D01*
X82679805Y-110101344D01*
X82566537Y-109931826D01*
X82422374Y-109787663D01*
X82252856Y-109674395D01*
X82064498Y-109596374D01*
X81864539Y-109556600D01*
X81660661Y-109556600D01*
X81460702Y-109596374D01*
X81272344Y-109674395D01*
X81102826Y-109787663D01*
X80958663Y-109931826D01*
X80845395Y-110101344D01*
X80767374Y-110289702D01*
X80727600Y-110489661D01*
X73025000Y-110489661D01*
X73025000Y-107771861D01*
X78314600Y-107771861D01*
X78314600Y-107975739D01*
X78354374Y-108175698D01*
X78432395Y-108364056D01*
X78545663Y-108533574D01*
X78689826Y-108677737D01*
X78859344Y-108791005D01*
X79047702Y-108869026D01*
X79247661Y-108908800D01*
X79451539Y-108908800D01*
X79651498Y-108869026D01*
X79839856Y-108791005D01*
X80009374Y-108677737D01*
X80153537Y-108533574D01*
X80266805Y-108364056D01*
X80344826Y-108175698D01*
X80384600Y-107975739D01*
X80384600Y-107771861D01*
X80344826Y-107571902D01*
X80266805Y-107383544D01*
X80153537Y-107214026D01*
X80009374Y-107069863D01*
X79839856Y-106956595D01*
X79651498Y-106878574D01*
X79451539Y-106838800D01*
X79247661Y-106838800D01*
X79047702Y-106878574D01*
X78859344Y-106956595D01*
X78689826Y-107069863D01*
X78545663Y-107214026D01*
X78432395Y-107383544D01*
X78354374Y-107571902D01*
X78314600Y-107771861D01*
X73025000Y-107771861D01*
X73025000Y-106070061D01*
X92386200Y-106070061D01*
X92386200Y-106273939D01*
X92425974Y-106473898D01*
X92503995Y-106662256D01*
X92617263Y-106831774D01*
X92761426Y-106975937D01*
X92930944Y-107089205D01*
X93119302Y-107167226D01*
X93319261Y-107207000D01*
X93523139Y-107207000D01*
X93723098Y-107167226D01*
X93911456Y-107089205D01*
X93916161Y-107086061D01*
X99752200Y-107086061D01*
X99752200Y-107289939D01*
X99791974Y-107489898D01*
X99869995Y-107678256D01*
X99983263Y-107847774D01*
X100127426Y-107991937D01*
X100296944Y-108105205D01*
X100485302Y-108183226D01*
X100685261Y-108223000D01*
X100889139Y-108223000D01*
X101089098Y-108183226D01*
X101277456Y-108105205D01*
X101446974Y-107991937D01*
X101591137Y-107847774D01*
X101704405Y-107678256D01*
X101782426Y-107489898D01*
X101822200Y-107289939D01*
X101822200Y-107213531D01*
X101927298Y-107192626D01*
X102115656Y-107114605D01*
X102285174Y-107001337D01*
X102429337Y-106857174D01*
X102542605Y-106687656D01*
X102588421Y-106577047D01*
X102613195Y-106636856D01*
X102726463Y-106806374D01*
X102870626Y-106950537D01*
X103040144Y-107063805D01*
X103228502Y-107141826D01*
X103428461Y-107181600D01*
X103632339Y-107181600D01*
X103832298Y-107141826D01*
X104020656Y-107063805D01*
X104190174Y-106950537D01*
X104334337Y-106806374D01*
X104447605Y-106636856D01*
X104525626Y-106448498D01*
X104565400Y-106248539D01*
X104565400Y-106044661D01*
X104525626Y-105844702D01*
X104447605Y-105656344D01*
X104334337Y-105486826D01*
X104190174Y-105342663D01*
X104020656Y-105229395D01*
X103832298Y-105151374D01*
X103632339Y-105111600D01*
X103428461Y-105111600D01*
X103228502Y-105151374D01*
X103040144Y-105229395D01*
X102870626Y-105342663D01*
X102726463Y-105486826D01*
X102613195Y-105656344D01*
X102567379Y-105766953D01*
X102542605Y-105707144D01*
X102429337Y-105537626D01*
X102285174Y-105393463D01*
X102115656Y-105280195D01*
X101927298Y-105202174D01*
X101727339Y-105162400D01*
X101523461Y-105162400D01*
X101323502Y-105202174D01*
X101135144Y-105280195D01*
X100965626Y-105393463D01*
X100821463Y-105537626D01*
X100708195Y-105707144D01*
X100630174Y-105895502D01*
X100590400Y-106095461D01*
X100590400Y-106171869D01*
X100485302Y-106192774D01*
X100296944Y-106270795D01*
X100127426Y-106384063D01*
X99983263Y-106528226D01*
X99869995Y-106697744D01*
X99791974Y-106886102D01*
X99752200Y-107086061D01*
X93916161Y-107086061D01*
X94080974Y-106975937D01*
X94225137Y-106831774D01*
X94338405Y-106662256D01*
X94416426Y-106473898D01*
X94456200Y-106273939D01*
X94456200Y-106070061D01*
X94416426Y-105870102D01*
X94338405Y-105681744D01*
X94225137Y-105512226D01*
X94080974Y-105368063D01*
X93911456Y-105254795D01*
X93723098Y-105176774D01*
X93523139Y-105137000D01*
X93319261Y-105137000D01*
X93119302Y-105176774D01*
X92930944Y-105254795D01*
X92761426Y-105368063D01*
X92617263Y-105512226D01*
X92503995Y-105681744D01*
X92425974Y-105870102D01*
X92386200Y-106070061D01*
X73025000Y-106070061D01*
X73025000Y-104444461D01*
X97745600Y-104444461D01*
X97745600Y-104648339D01*
X97785374Y-104848298D01*
X97863395Y-105036656D01*
X97976663Y-105206174D01*
X98120826Y-105350337D01*
X98290344Y-105463605D01*
X98478702Y-105541626D01*
X98678661Y-105581400D01*
X98882539Y-105581400D01*
X99082498Y-105541626D01*
X99270856Y-105463605D01*
X99440374Y-105350337D01*
X99584537Y-105206174D01*
X99697805Y-105036656D01*
X99775826Y-104848298D01*
X99815600Y-104648339D01*
X99815600Y-104444461D01*
X99775826Y-104244502D01*
X99697805Y-104056144D01*
X99584537Y-103886626D01*
X99440374Y-103742463D01*
X99270856Y-103629195D01*
X99082498Y-103551174D01*
X98882539Y-103511400D01*
X98678661Y-103511400D01*
X98478702Y-103551174D01*
X98290344Y-103629195D01*
X98120826Y-103742463D01*
X97976663Y-103886626D01*
X97863395Y-104056144D01*
X97785374Y-104244502D01*
X97745600Y-104444461D01*
X73025000Y-104444461D01*
X73025000Y-102442000D01*
X73157963Y-102442000D01*
X73418780Y-102390120D01*
X73664465Y-102288354D01*
X73885575Y-102140613D01*
X74073613Y-101952575D01*
X74221354Y-101731465D01*
X74295000Y-101553668D01*
X74368646Y-101731465D01*
X74516387Y-101952575D01*
X74704425Y-102140613D01*
X74925535Y-102288354D01*
X75171220Y-102390120D01*
X75432037Y-102442000D01*
X75697963Y-102442000D01*
X75958780Y-102390120D01*
X76204465Y-102288354D01*
X76425575Y-102140613D01*
X76613613Y-101952575D01*
X76761354Y-101731465D01*
X76863120Y-101485780D01*
X76915000Y-101224963D01*
X76915000Y-100959037D01*
X76863120Y-100698220D01*
X76761354Y-100452535D01*
X76613613Y-100231425D01*
X76425575Y-100043387D01*
X76204465Y-99895646D01*
X75958780Y-99793880D01*
X75697963Y-99742000D01*
X75432037Y-99742000D01*
X75171220Y-99793880D01*
X74925535Y-99895646D01*
X74704425Y-100043387D01*
X74516387Y-100231425D01*
X74368646Y-100452535D01*
X74295000Y-100630332D01*
X74221354Y-100452535D01*
X74073613Y-100231425D01*
X73885575Y-100043387D01*
X73664465Y-99895646D01*
X73418780Y-99793880D01*
X73157963Y-99742000D01*
X73025000Y-99742000D01*
X73025000Y-99569760D01*
X111119400Y-99569760D01*
X111119400Y-100034640D01*
X111210094Y-100490587D01*
X111387995Y-100920079D01*
X111646268Y-101306612D01*
X111974988Y-101635332D01*
X112361521Y-101893605D01*
X112791013Y-102071506D01*
X113246960Y-102162200D01*
X113711840Y-102162200D01*
X114167787Y-102071506D01*
X114597279Y-101893605D01*
X114983812Y-101635332D01*
X115312532Y-101306612D01*
X115570805Y-100920079D01*
X115748706Y-100490587D01*
X115839400Y-100034640D01*
X115839400Y-99569760D01*
X115748706Y-99113813D01*
X115570805Y-98684321D01*
X115312532Y-98297788D01*
X114983812Y-97969068D01*
X114597279Y-97710795D01*
X114167787Y-97532894D01*
X113711840Y-97442200D01*
X113246960Y-97442200D01*
X112791013Y-97532894D01*
X112361521Y-97710795D01*
X111974988Y-97969068D01*
X111646268Y-98297788D01*
X111387995Y-98684321D01*
X111210094Y-99113813D01*
X111119400Y-99569760D01*
X73025000Y-99569760D01*
X73025000Y-97332461D01*
X120859600Y-97332461D01*
X120859600Y-97536339D01*
X120899374Y-97736298D01*
X120977395Y-97924656D01*
X121090663Y-98094174D01*
X121234826Y-98238337D01*
X121404344Y-98351605D01*
X121592702Y-98429626D01*
X121792661Y-98469400D01*
X121996539Y-98469400D01*
X122196498Y-98429626D01*
X122384856Y-98351605D01*
X122554374Y-98238337D01*
X122698537Y-98094174D01*
X122811805Y-97924656D01*
X122889826Y-97736298D01*
X122929600Y-97536339D01*
X122929600Y-97332461D01*
X122889826Y-97132502D01*
X122811805Y-96944144D01*
X122698537Y-96774626D01*
X122554374Y-96630463D01*
X122384856Y-96517195D01*
X122196498Y-96439174D01*
X121996539Y-96399400D01*
X121792661Y-96399400D01*
X121592702Y-96439174D01*
X121404344Y-96517195D01*
X121234826Y-96630463D01*
X121090663Y-96774626D01*
X120977395Y-96944144D01*
X120899374Y-97132502D01*
X120859600Y-97332461D01*
X73025000Y-97332461D01*
X73025000Y-96610600D01*
X85839405Y-96610600D01*
X85895830Y-96841821D01*
X86130008Y-96950217D01*
X86380833Y-97010845D01*
X86638665Y-97021374D01*
X86893598Y-96981400D01*
X87135833Y-96892459D01*
X87230570Y-96841821D01*
X87286995Y-96610600D01*
X86563200Y-95886805D01*
X85839405Y-96610600D01*
X73025000Y-96610600D01*
X73025000Y-95782665D01*
X85249026Y-95782665D01*
X85289000Y-96037598D01*
X85377941Y-96279833D01*
X85428579Y-96374570D01*
X85659800Y-96430995D01*
X86383595Y-95707200D01*
X86742805Y-95707200D01*
X87466600Y-96430995D01*
X87697821Y-96374570D01*
X87806217Y-96140392D01*
X87832266Y-96032624D01*
X87843542Y-96089313D01*
X87942293Y-96327718D01*
X88085656Y-96542277D01*
X88268123Y-96724744D01*
X88482682Y-96868107D01*
X88721087Y-96966858D01*
X88974176Y-97017200D01*
X89232224Y-97017200D01*
X89485313Y-96966858D01*
X89723718Y-96868107D01*
X89938277Y-96724744D01*
X90120744Y-96542277D01*
X90264107Y-96327718D01*
X90362858Y-96089313D01*
X90373200Y-96037320D01*
X90383542Y-96089313D01*
X90482293Y-96327718D01*
X90625656Y-96542277D01*
X90808123Y-96724744D01*
X91022682Y-96868107D01*
X91261087Y-96966858D01*
X91514176Y-97017200D01*
X91772224Y-97017200D01*
X92025313Y-96966858D01*
X92263718Y-96868107D01*
X92478277Y-96724744D01*
X92660744Y-96542277D01*
X92804107Y-96327718D01*
X92902858Y-96089313D01*
X92953200Y-95836224D01*
X92953200Y-95578176D01*
X92902858Y-95325087D01*
X92804107Y-95086682D01*
X92660744Y-94872123D01*
X92478277Y-94689656D01*
X92263718Y-94546293D01*
X92025313Y-94447542D01*
X91772224Y-94397200D01*
X91514176Y-94397200D01*
X91261087Y-94447542D01*
X91022682Y-94546293D01*
X90808123Y-94689656D01*
X90625656Y-94872123D01*
X90482293Y-95086682D01*
X90383542Y-95325087D01*
X90373200Y-95377080D01*
X90362858Y-95325087D01*
X90264107Y-95086682D01*
X90120744Y-94872123D01*
X89938277Y-94689656D01*
X89723718Y-94546293D01*
X89485313Y-94447542D01*
X89232224Y-94397200D01*
X88974176Y-94397200D01*
X88721087Y-94447542D01*
X88482682Y-94546293D01*
X88268123Y-94689656D01*
X88085656Y-94872123D01*
X87942293Y-95086682D01*
X87843542Y-95325087D01*
X87834712Y-95369480D01*
X87748459Y-95134567D01*
X87697821Y-95039830D01*
X87466600Y-94983405D01*
X86742805Y-95707200D01*
X86383595Y-95707200D01*
X85659800Y-94983405D01*
X85428579Y-95039830D01*
X85320183Y-95274008D01*
X85259555Y-95524833D01*
X85249026Y-95782665D01*
X73025000Y-95782665D01*
X73025000Y-94803800D01*
X85839405Y-94803800D01*
X86563200Y-95527595D01*
X87286995Y-94803800D01*
X87230570Y-94572579D01*
X86996392Y-94464183D01*
X86745567Y-94403555D01*
X86487735Y-94393026D01*
X86232802Y-94433000D01*
X85990567Y-94521941D01*
X85895830Y-94572579D01*
X85839405Y-94803800D01*
X73025000Y-94803800D01*
X73025000Y-93346618D01*
X73083456Y-93322405D01*
X73252974Y-93209137D01*
X73397137Y-93064974D01*
X73510405Y-92895456D01*
X73588426Y-92707098D01*
X73628200Y-92507139D01*
X73628200Y-92399187D01*
X109418900Y-92399187D01*
X109418900Y-92665213D01*
X109470799Y-92926126D01*
X109572603Y-93171901D01*
X109720399Y-93393093D01*
X109908507Y-93581201D01*
X110129699Y-93728997D01*
X110258142Y-93782200D01*
X110129699Y-93835403D01*
X109908507Y-93983199D01*
X109720399Y-94171307D01*
X109572603Y-94392499D01*
X109470799Y-94638274D01*
X109418900Y-94899187D01*
X109418900Y-95165213D01*
X109470799Y-95426126D01*
X109572603Y-95671901D01*
X109720399Y-95893093D01*
X109908507Y-96081201D01*
X110129699Y-96228997D01*
X110375474Y-96330801D01*
X110636387Y-96382700D01*
X110902413Y-96382700D01*
X111163326Y-96330801D01*
X111409101Y-96228997D01*
X111630293Y-96081201D01*
X111818401Y-95893093D01*
X111966197Y-95671901D01*
X112068001Y-95426126D01*
X112119900Y-95165213D01*
X112119900Y-94899187D01*
X112068001Y-94638274D01*
X111966197Y-94392499D01*
X111818401Y-94171307D01*
X111630293Y-93983199D01*
X111409101Y-93835403D01*
X111280658Y-93782200D01*
X111409101Y-93728997D01*
X111630293Y-93581201D01*
X111818401Y-93393093D01*
X111966197Y-93171901D01*
X112068001Y-92926126D01*
X112119900Y-92665213D01*
X112119900Y-92399187D01*
X112618900Y-92399187D01*
X112618900Y-92665213D01*
X112670799Y-92926126D01*
X112772603Y-93171901D01*
X112920399Y-93393093D01*
X113108507Y-93581201D01*
X113329699Y-93728997D01*
X113458142Y-93782200D01*
X113329699Y-93835403D01*
X113108507Y-93983199D01*
X112920399Y-94171307D01*
X112772603Y-94392499D01*
X112670799Y-94638274D01*
X112618900Y-94899187D01*
X112618900Y-95165213D01*
X112670799Y-95426126D01*
X112772603Y-95671901D01*
X112920399Y-95893093D01*
X113108507Y-96081201D01*
X113329699Y-96228997D01*
X113575474Y-96330801D01*
X113836387Y-96382700D01*
X114102413Y-96382700D01*
X114363326Y-96330801D01*
X114609101Y-96228997D01*
X114830293Y-96081201D01*
X115018401Y-95893093D01*
X115166197Y-95671901D01*
X115268001Y-95426126D01*
X115319900Y-95165213D01*
X115319900Y-94899187D01*
X115298671Y-94792461D01*
X120173800Y-94792461D01*
X120173800Y-94996339D01*
X120213574Y-95196298D01*
X120291595Y-95384656D01*
X120404863Y-95554174D01*
X120549026Y-95698337D01*
X120718544Y-95811605D01*
X120906902Y-95889626D01*
X121106861Y-95929400D01*
X121310739Y-95929400D01*
X121510698Y-95889626D01*
X121699056Y-95811605D01*
X121868574Y-95698337D01*
X122012737Y-95554174D01*
X122126005Y-95384656D01*
X122204026Y-95196298D01*
X122243800Y-94996339D01*
X122243800Y-94792461D01*
X122204026Y-94592502D01*
X122126005Y-94404144D01*
X122012737Y-94234626D01*
X121868574Y-94090463D01*
X121699056Y-93977195D01*
X121510698Y-93899174D01*
X121310739Y-93859400D01*
X121106861Y-93859400D01*
X120906902Y-93899174D01*
X120718544Y-93977195D01*
X120549026Y-94090463D01*
X120404863Y-94234626D01*
X120291595Y-94404144D01*
X120213574Y-94592502D01*
X120173800Y-94792461D01*
X115298671Y-94792461D01*
X115268001Y-94638274D01*
X115166197Y-94392499D01*
X115018401Y-94171307D01*
X114830293Y-93983199D01*
X114609101Y-93835403D01*
X114480658Y-93782200D01*
X114609101Y-93728997D01*
X114830293Y-93581201D01*
X115018401Y-93393093D01*
X115166197Y-93171901D01*
X115268001Y-92926126D01*
X115319900Y-92665213D01*
X115319900Y-92399187D01*
X115268001Y-92138274D01*
X115166197Y-91892499D01*
X115018401Y-91671307D01*
X114830293Y-91483199D01*
X114609101Y-91335403D01*
X114363326Y-91233599D01*
X114102413Y-91181700D01*
X113836387Y-91181700D01*
X113575474Y-91233599D01*
X113329699Y-91335403D01*
X113108507Y-91483199D01*
X112920399Y-91671307D01*
X112772603Y-91892499D01*
X112670799Y-92138274D01*
X112618900Y-92399187D01*
X112119900Y-92399187D01*
X112068001Y-92138274D01*
X111966197Y-91892499D01*
X111818401Y-91671307D01*
X111630293Y-91483199D01*
X111409101Y-91335403D01*
X111163326Y-91233599D01*
X110902413Y-91181700D01*
X110636387Y-91181700D01*
X110375474Y-91233599D01*
X110129699Y-91335403D01*
X109908507Y-91483199D01*
X109720399Y-91671307D01*
X109572603Y-91892499D01*
X109470799Y-92138274D01*
X109418900Y-92399187D01*
X73628200Y-92399187D01*
X73628200Y-92303261D01*
X73588426Y-92103302D01*
X73510405Y-91914944D01*
X73397137Y-91745426D01*
X73252974Y-91601263D01*
X73083456Y-91487995D01*
X73025000Y-91463782D01*
X73025000Y-88391661D01*
X82251600Y-88391661D01*
X82251600Y-88595539D01*
X82291374Y-88795498D01*
X82369395Y-88983856D01*
X82482663Y-89153374D01*
X82626826Y-89297537D01*
X82796344Y-89410805D01*
X82984702Y-89488826D01*
X83184661Y-89528600D01*
X83388539Y-89528600D01*
X83588498Y-89488826D01*
X83776856Y-89410805D01*
X83946374Y-89297537D01*
X84090537Y-89153374D01*
X84203805Y-88983856D01*
X84281826Y-88795498D01*
X84321600Y-88595539D01*
X84321600Y-88391661D01*
X84281826Y-88191702D01*
X84203805Y-88003344D01*
X84090537Y-87833826D01*
X83946374Y-87689663D01*
X83776856Y-87576395D01*
X83664270Y-87529760D01*
X111119400Y-87529760D01*
X111119400Y-87994640D01*
X111210094Y-88450587D01*
X111387995Y-88880079D01*
X111646268Y-89266612D01*
X111974988Y-89595332D01*
X112361521Y-89853605D01*
X112791013Y-90031506D01*
X113246960Y-90122200D01*
X113711840Y-90122200D01*
X114167787Y-90031506D01*
X114597279Y-89853605D01*
X114983812Y-89595332D01*
X115312532Y-89266612D01*
X115570805Y-88880079D01*
X115748706Y-88450587D01*
X115839400Y-87994640D01*
X115839400Y-87529760D01*
X115748706Y-87073813D01*
X115570805Y-86644321D01*
X115312532Y-86257788D01*
X114983812Y-85929068D01*
X114597279Y-85670795D01*
X114167787Y-85492894D01*
X113711840Y-85402200D01*
X113246960Y-85402200D01*
X112791013Y-85492894D01*
X112361521Y-85670795D01*
X111974988Y-85929068D01*
X111646268Y-86257788D01*
X111387995Y-86644321D01*
X111210094Y-87073813D01*
X111119400Y-87529760D01*
X83664270Y-87529760D01*
X83588498Y-87498374D01*
X83388539Y-87458600D01*
X83184661Y-87458600D01*
X82984702Y-87498374D01*
X82796344Y-87576395D01*
X82626826Y-87689663D01*
X82482663Y-87833826D01*
X82369395Y-88003344D01*
X82291374Y-88191702D01*
X82251600Y-88391661D01*
X73025000Y-88391661D01*
X73025000Y-84911861D01*
X73234600Y-84911861D01*
X73234600Y-85115739D01*
X73274374Y-85315698D01*
X73352395Y-85504056D01*
X73465663Y-85673574D01*
X73609826Y-85817737D01*
X73779344Y-85931005D01*
X73967702Y-86009026D01*
X74167661Y-86048800D01*
X74371539Y-86048800D01*
X74571498Y-86009026D01*
X74759856Y-85931005D01*
X74929374Y-85817737D01*
X75073537Y-85673574D01*
X75186805Y-85504056D01*
X75264826Y-85315698D01*
X75304600Y-85115739D01*
X75304600Y-84911861D01*
X75264826Y-84711902D01*
X75186805Y-84523544D01*
X75073537Y-84354026D01*
X74929374Y-84209863D01*
X74759856Y-84096595D01*
X74571498Y-84018574D01*
X74371539Y-83978800D01*
X74167661Y-83978800D01*
X73967702Y-84018574D01*
X73779344Y-84096595D01*
X73609826Y-84209863D01*
X73465663Y-84354026D01*
X73352395Y-84523544D01*
X73274374Y-84711902D01*
X73234600Y-84911861D01*
X73025000Y-84911861D01*
X73025000Y-81863861D01*
X90786000Y-81863861D01*
X90786000Y-82067739D01*
X90825774Y-82267698D01*
X90903795Y-82456056D01*
X91017063Y-82625574D01*
X91161226Y-82769737D01*
X91330744Y-82883005D01*
X91519102Y-82961026D01*
X91719061Y-83000800D01*
X91922939Y-83000800D01*
X92122898Y-82961026D01*
X92311256Y-82883005D01*
X92480774Y-82769737D01*
X92484950Y-82765561D01*
X114700100Y-82765561D01*
X114700100Y-82969439D01*
X114739874Y-83169398D01*
X114817895Y-83357756D01*
X114931163Y-83527274D01*
X115075326Y-83671437D01*
X115244844Y-83784705D01*
X115433202Y-83862726D01*
X115633161Y-83902500D01*
X115837039Y-83902500D01*
X116036998Y-83862726D01*
X116225356Y-83784705D01*
X116394874Y-83671437D01*
X116539037Y-83527274D01*
X116652305Y-83357756D01*
X116730326Y-83169398D01*
X116770100Y-82969439D01*
X116770100Y-82765561D01*
X116730326Y-82565602D01*
X116652305Y-82377244D01*
X116539037Y-82207726D01*
X116394874Y-82063563D01*
X116225356Y-81950295D01*
X116036998Y-81872274D01*
X115837039Y-81832500D01*
X115633161Y-81832500D01*
X115433202Y-81872274D01*
X115244844Y-81950295D01*
X115075326Y-82063563D01*
X114931163Y-82207726D01*
X114817895Y-82377244D01*
X114739874Y-82565602D01*
X114700100Y-82765561D01*
X92484950Y-82765561D01*
X92624937Y-82625574D01*
X92738205Y-82456056D01*
X92816226Y-82267698D01*
X92856000Y-82067739D01*
X92856000Y-81863861D01*
X92816226Y-81663902D01*
X92738205Y-81475544D01*
X92624937Y-81306026D01*
X92480774Y-81161863D01*
X92311256Y-81048595D01*
X92122898Y-80970574D01*
X91922939Y-80930800D01*
X91719061Y-80930800D01*
X91519102Y-80970574D01*
X91330744Y-81048595D01*
X91161226Y-81161863D01*
X91017063Y-81306026D01*
X90903795Y-81475544D01*
X90825774Y-81663902D01*
X90786000Y-81863861D01*
X73025000Y-81863861D01*
X73025000Y-81116317D01*
X73183917Y-81084707D01*
X73372275Y-81006686D01*
X73541793Y-80893418D01*
X73685956Y-80749255D01*
X73799224Y-80579737D01*
X73877245Y-80391379D01*
X73917019Y-80191420D01*
X73917019Y-79987542D01*
X73878474Y-79793761D01*
X120516700Y-79793761D01*
X120516700Y-79997639D01*
X120556474Y-80197598D01*
X120634495Y-80385956D01*
X120747763Y-80555474D01*
X120891926Y-80699637D01*
X121061444Y-80812905D01*
X121249802Y-80890926D01*
X121449761Y-80930700D01*
X121653639Y-80930700D01*
X121853598Y-80890926D01*
X122041956Y-80812905D01*
X122211474Y-80699637D01*
X122355637Y-80555474D01*
X122468905Y-80385956D01*
X122546926Y-80197598D01*
X122586700Y-79997639D01*
X122586700Y-79793761D01*
X122546926Y-79593802D01*
X122468905Y-79405444D01*
X122355637Y-79235926D01*
X122211474Y-79091763D01*
X122041956Y-78978495D01*
X121853598Y-78900474D01*
X121653639Y-78860700D01*
X121449761Y-78860700D01*
X121249802Y-78900474D01*
X121061444Y-78978495D01*
X120891926Y-79091763D01*
X120747763Y-79235926D01*
X120634495Y-79405444D01*
X120556474Y-79593802D01*
X120516700Y-79793761D01*
X73878474Y-79793761D01*
X73877245Y-79787583D01*
X73799224Y-79599225D01*
X73685956Y-79429707D01*
X73541793Y-79285544D01*
X73372275Y-79172276D01*
X73183917Y-79094255D01*
X73025000Y-79062645D01*
X73025000Y-77215661D01*
X76460400Y-77215661D01*
X76460400Y-77419539D01*
X76500174Y-77619498D01*
X76578195Y-77807856D01*
X76691463Y-77977374D01*
X76835626Y-78121537D01*
X77005144Y-78234805D01*
X77193502Y-78312826D01*
X77393461Y-78352600D01*
X77597339Y-78352600D01*
X77797298Y-78312826D01*
X77985656Y-78234805D01*
X78155174Y-78121537D01*
X78299337Y-77977374D01*
X78412605Y-77807856D01*
X78490626Y-77619498D01*
X78530400Y-77419539D01*
X78530400Y-77215661D01*
X78490626Y-77015702D01*
X78412605Y-76827344D01*
X78299337Y-76657826D01*
X78155174Y-76513663D01*
X77985656Y-76400395D01*
X77797298Y-76322374D01*
X77597339Y-76282600D01*
X77393461Y-76282600D01*
X77193502Y-76322374D01*
X77005144Y-76400395D01*
X76835626Y-76513663D01*
X76691463Y-76657826D01*
X76578195Y-76827344D01*
X76500174Y-77015702D01*
X76460400Y-77215661D01*
X73025000Y-77215661D01*
X73025000Y-75157668D01*
X73110063Y-75284974D01*
X73254226Y-75429137D01*
X73423744Y-75542405D01*
X73612102Y-75620426D01*
X73812061Y-75660200D01*
X74015939Y-75660200D01*
X74215898Y-75620426D01*
X74404256Y-75542405D01*
X74573774Y-75429137D01*
X74717937Y-75284974D01*
X74831205Y-75115456D01*
X74909226Y-74927098D01*
X74949000Y-74727139D01*
X74949000Y-74523261D01*
X74909226Y-74323302D01*
X74831205Y-74134944D01*
X74717937Y-73965426D01*
X74573774Y-73821263D01*
X74404256Y-73707995D01*
X74215898Y-73629974D01*
X74015939Y-73590200D01*
X73812061Y-73590200D01*
X73612102Y-73629974D01*
X73423744Y-73707995D01*
X73254226Y-73821263D01*
X73110063Y-73965426D01*
X73025000Y-74092732D01*
X73025000Y-72613413D01*
X93066500Y-72613413D01*
X93066500Y-72869787D01*
X93116516Y-73121233D01*
X93214626Y-73358091D01*
X93357059Y-73571258D01*
X93538342Y-73752541D01*
X93751509Y-73894974D01*
X93988367Y-73993084D01*
X94239813Y-74043100D01*
X94496187Y-74043100D01*
X94747633Y-73993084D01*
X94984491Y-73894974D01*
X95197658Y-73752541D01*
X95378941Y-73571258D01*
X95521374Y-73358091D01*
X95619484Y-73121233D01*
X95663955Y-72897661D01*
X122967800Y-72897661D01*
X122967800Y-73101539D01*
X123007574Y-73301498D01*
X123085595Y-73489856D01*
X123198863Y-73659374D01*
X123343026Y-73803537D01*
X123512544Y-73916805D01*
X123700902Y-73994826D01*
X123900861Y-74034600D01*
X124104739Y-74034600D01*
X124304698Y-73994826D01*
X124493056Y-73916805D01*
X124662574Y-73803537D01*
X124806737Y-73659374D01*
X124920005Y-73489856D01*
X124998026Y-73301498D01*
X125037800Y-73101539D01*
X125037800Y-72897661D01*
X124998026Y-72697702D01*
X124920005Y-72509344D01*
X124806737Y-72339826D01*
X124662574Y-72195663D01*
X124493056Y-72082395D01*
X124304698Y-72004374D01*
X124104739Y-71964600D01*
X123900861Y-71964600D01*
X123700902Y-72004374D01*
X123512544Y-72082395D01*
X123343026Y-72195663D01*
X123198863Y-72339826D01*
X123085595Y-72509344D01*
X123007574Y-72697702D01*
X122967800Y-72897661D01*
X95663955Y-72897661D01*
X95669500Y-72869787D01*
X95669500Y-72613413D01*
X95619484Y-72361967D01*
X95521374Y-72125109D01*
X95378941Y-71911942D01*
X95197658Y-71730659D01*
X94984491Y-71588226D01*
X94747633Y-71490116D01*
X94496187Y-71440100D01*
X94239813Y-71440100D01*
X93988367Y-71490116D01*
X93751509Y-71588226D01*
X93538342Y-71730659D01*
X93357059Y-71911942D01*
X93214626Y-72125109D01*
X93116516Y-72361967D01*
X93066500Y-72613413D01*
X73025000Y-72613413D01*
X73025000Y-69115018D01*
X73083456Y-69090805D01*
X73252974Y-68977537D01*
X73397137Y-68833374D01*
X73510405Y-68663856D01*
X73588426Y-68475498D01*
X73628200Y-68275539D01*
X73628200Y-68169949D01*
X111307500Y-68169949D01*
X111307500Y-68509251D01*
X111373695Y-68842035D01*
X111503541Y-69155509D01*
X111692047Y-69437629D01*
X111931971Y-69677553D01*
X112214091Y-69866059D01*
X112527565Y-69995905D01*
X112860349Y-70062100D01*
X113199651Y-70062100D01*
X113532435Y-69995905D01*
X113845909Y-69866059D01*
X114128029Y-69677553D01*
X114367953Y-69437629D01*
X114556459Y-69155509D01*
X114686305Y-68842035D01*
X114752500Y-68509251D01*
X114752500Y-68169949D01*
X114686305Y-67837165D01*
X114556459Y-67523691D01*
X114367953Y-67241571D01*
X114128029Y-67001647D01*
X113845909Y-66813141D01*
X113572912Y-66700061D01*
X120605600Y-66700061D01*
X120605600Y-66903939D01*
X120645374Y-67103898D01*
X120723395Y-67292256D01*
X120836663Y-67461774D01*
X120980826Y-67605937D01*
X121150344Y-67719205D01*
X121338702Y-67797226D01*
X121538661Y-67837000D01*
X121742539Y-67837000D01*
X121942498Y-67797226D01*
X122130856Y-67719205D01*
X122300374Y-67605937D01*
X122444537Y-67461774D01*
X122557805Y-67292256D01*
X122635826Y-67103898D01*
X122675600Y-66903939D01*
X122675600Y-66700061D01*
X122635826Y-66500102D01*
X122557805Y-66311744D01*
X122444537Y-66142226D01*
X122300374Y-65998063D01*
X122130856Y-65884795D01*
X121942498Y-65806774D01*
X121742539Y-65767000D01*
X121538661Y-65767000D01*
X121338702Y-65806774D01*
X121150344Y-65884795D01*
X120980826Y-65998063D01*
X120836663Y-66142226D01*
X120723395Y-66311744D01*
X120645374Y-66500102D01*
X120605600Y-66700061D01*
X113572912Y-66700061D01*
X113532435Y-66683295D01*
X113199651Y-66617100D01*
X112860349Y-66617100D01*
X112527565Y-66683295D01*
X112214091Y-66813141D01*
X111931971Y-67001647D01*
X111692047Y-67241571D01*
X111503541Y-67523691D01*
X111373695Y-67837165D01*
X111307500Y-68169949D01*
X73628200Y-68169949D01*
X73628200Y-68071661D01*
X73588426Y-67871702D01*
X73510405Y-67683344D01*
X73397137Y-67513826D01*
X73252974Y-67369663D01*
X73083456Y-67256395D01*
X73025000Y-67232182D01*
X73025000Y-66013413D01*
X85566500Y-66013413D01*
X85566500Y-66269787D01*
X85616516Y-66521233D01*
X85714626Y-66758091D01*
X85857059Y-66971258D01*
X86038342Y-67152541D01*
X86251509Y-67294974D01*
X86488367Y-67393084D01*
X86739813Y-67443100D01*
X86996187Y-67443100D01*
X87247633Y-67393084D01*
X87484491Y-67294974D01*
X87697658Y-67152541D01*
X87878941Y-66971258D01*
X88021374Y-66758091D01*
X88119484Y-66521233D01*
X88169500Y-66269787D01*
X88169500Y-66013413D01*
X88119484Y-65761967D01*
X88021374Y-65525109D01*
X87878941Y-65311942D01*
X87697658Y-65130659D01*
X87484491Y-64988226D01*
X87247633Y-64890116D01*
X86996187Y-64840100D01*
X86739813Y-64840100D01*
X86488367Y-64890116D01*
X86251509Y-64988226D01*
X86038342Y-65130659D01*
X85857059Y-65311942D01*
X85714626Y-65525109D01*
X85616516Y-65761967D01*
X85566500Y-66013413D01*
X73025000Y-66013413D01*
X73025000Y-62386722D01*
X84295500Y-62386722D01*
X84295500Y-62696478D01*
X84355930Y-63000281D01*
X84474468Y-63286458D01*
X84646559Y-63544011D01*
X84865589Y-63763041D01*
X85123142Y-63935132D01*
X85409319Y-64053670D01*
X85713122Y-64114100D01*
X86022878Y-64114100D01*
X86326681Y-64053670D01*
X86612858Y-63935132D01*
X86870411Y-63763041D01*
X87089441Y-63544011D01*
X87261532Y-63286458D01*
X87380070Y-63000281D01*
X87440500Y-62696478D01*
X87440500Y-62386722D01*
X92295500Y-62386722D01*
X92295500Y-62696478D01*
X92355930Y-63000281D01*
X92474468Y-63286458D01*
X92646559Y-63544011D01*
X92865589Y-63763041D01*
X93123142Y-63935132D01*
X93380179Y-64041600D01*
X93123142Y-64148068D01*
X92865589Y-64320159D01*
X92646559Y-64539189D01*
X92474468Y-64796742D01*
X92355930Y-65082919D01*
X92295500Y-65386722D01*
X92295500Y-65696478D01*
X92355930Y-66000281D01*
X92474468Y-66286458D01*
X92646559Y-66544011D01*
X92865589Y-66763041D01*
X93123142Y-66935132D01*
X93409319Y-67053670D01*
X93713122Y-67114100D01*
X94022878Y-67114100D01*
X94326681Y-67053670D01*
X94612858Y-66935132D01*
X94793605Y-66814361D01*
X97072500Y-66814361D01*
X97072500Y-67018239D01*
X97112274Y-67218198D01*
X97190295Y-67406556D01*
X97303563Y-67576074D01*
X97447726Y-67720237D01*
X97617244Y-67833505D01*
X97805602Y-67911526D01*
X98005561Y-67951300D01*
X98209439Y-67951300D01*
X98409398Y-67911526D01*
X98597756Y-67833505D01*
X98767274Y-67720237D01*
X98911437Y-67576074D01*
X99024705Y-67406556D01*
X99102726Y-67218198D01*
X99142500Y-67018239D01*
X99142500Y-66852461D01*
X103460600Y-66852461D01*
X103460600Y-67056339D01*
X103500374Y-67256298D01*
X103578395Y-67444656D01*
X103691663Y-67614174D01*
X103835826Y-67758337D01*
X104005344Y-67871605D01*
X104193702Y-67949626D01*
X104393661Y-67989400D01*
X104597539Y-67989400D01*
X104797498Y-67949626D01*
X104985856Y-67871605D01*
X105155374Y-67758337D01*
X105299537Y-67614174D01*
X105412805Y-67444656D01*
X105490826Y-67256298D01*
X105530600Y-67056339D01*
X105530600Y-66852461D01*
X105490826Y-66652502D01*
X105412805Y-66464144D01*
X105299537Y-66294626D01*
X105155374Y-66150463D01*
X104985856Y-66037195D01*
X104797498Y-65959174D01*
X104597539Y-65919400D01*
X104393661Y-65919400D01*
X104193702Y-65959174D01*
X104005344Y-66037195D01*
X103835826Y-66150463D01*
X103691663Y-66294626D01*
X103578395Y-66464144D01*
X103500374Y-66652502D01*
X103460600Y-66852461D01*
X99142500Y-66852461D01*
X99142500Y-66814361D01*
X99102726Y-66614402D01*
X99024705Y-66426044D01*
X98911437Y-66256526D01*
X98767274Y-66112363D01*
X98597756Y-65999095D01*
X98409398Y-65921074D01*
X98209439Y-65881300D01*
X98005561Y-65881300D01*
X97805602Y-65921074D01*
X97617244Y-65999095D01*
X97447726Y-66112363D01*
X97303563Y-66256526D01*
X97190295Y-66426044D01*
X97112274Y-66614402D01*
X97072500Y-66814361D01*
X94793605Y-66814361D01*
X94870411Y-66763041D01*
X95089441Y-66544011D01*
X95261532Y-66286458D01*
X95380070Y-66000281D01*
X95440500Y-65696478D01*
X95440500Y-65386722D01*
X95380070Y-65082919D01*
X95261532Y-64796742D01*
X95089441Y-64539189D01*
X94870411Y-64320159D01*
X94612858Y-64148068D01*
X94355821Y-64041600D01*
X94612858Y-63935132D01*
X94870411Y-63763041D01*
X95089441Y-63544011D01*
X95261532Y-63286458D01*
X95380070Y-63000281D01*
X95440500Y-62696478D01*
X95440500Y-62386722D01*
X95389050Y-62128061D01*
X100692000Y-62128061D01*
X100692000Y-62331939D01*
X100731774Y-62531898D01*
X100809795Y-62720256D01*
X100923063Y-62889774D01*
X101067226Y-63033937D01*
X101236744Y-63147205D01*
X101425102Y-63225226D01*
X101625061Y-63265000D01*
X101828939Y-63265000D01*
X102028898Y-63225226D01*
X102217256Y-63147205D01*
X102386774Y-63033937D01*
X102530937Y-62889774D01*
X102644205Y-62720256D01*
X102722226Y-62531898D01*
X102762000Y-62331939D01*
X102762000Y-62128061D01*
X102722226Y-61928102D01*
X102649324Y-61752100D01*
X111304428Y-61752100D01*
X111304428Y-63927100D01*
X111316688Y-64051582D01*
X111352998Y-64171280D01*
X111411963Y-64281594D01*
X111491315Y-64378285D01*
X111588006Y-64457637D01*
X111698320Y-64516602D01*
X111818018Y-64552912D01*
X111942500Y-64565172D01*
X114117500Y-64565172D01*
X114241982Y-64552912D01*
X114361680Y-64516602D01*
X114471994Y-64457637D01*
X114568685Y-64378285D01*
X114648037Y-64281594D01*
X114707002Y-64171280D01*
X114743312Y-64051582D01*
X114755572Y-63927100D01*
X114755572Y-61752100D01*
X114743312Y-61627618D01*
X114707002Y-61507920D01*
X114648037Y-61397606D01*
X114568685Y-61300915D01*
X114471994Y-61221563D01*
X114361680Y-61162598D01*
X114241982Y-61126288D01*
X114117500Y-61114028D01*
X111942500Y-61114028D01*
X111818018Y-61126288D01*
X111698320Y-61162598D01*
X111588006Y-61221563D01*
X111491315Y-61300915D01*
X111411963Y-61397606D01*
X111352998Y-61507920D01*
X111316688Y-61627618D01*
X111304428Y-61752100D01*
X102649324Y-61752100D01*
X102644205Y-61739744D01*
X102530937Y-61570226D01*
X102386774Y-61426063D01*
X102217256Y-61312795D01*
X102028898Y-61234774D01*
X101828939Y-61195000D01*
X101625061Y-61195000D01*
X101425102Y-61234774D01*
X101236744Y-61312795D01*
X101067226Y-61426063D01*
X100923063Y-61570226D01*
X100809795Y-61739744D01*
X100731774Y-61928102D01*
X100692000Y-62128061D01*
X95389050Y-62128061D01*
X95380070Y-62082919D01*
X95261532Y-61796742D01*
X95089441Y-61539189D01*
X94870411Y-61320159D01*
X94612858Y-61148068D01*
X94326681Y-61029530D01*
X94022878Y-60969100D01*
X93713122Y-60969100D01*
X93409319Y-61029530D01*
X93123142Y-61148068D01*
X92865589Y-61320159D01*
X92646559Y-61539189D01*
X92474468Y-61796742D01*
X92355930Y-62082919D01*
X92295500Y-62386722D01*
X87440500Y-62386722D01*
X87380070Y-62082919D01*
X87261532Y-61796742D01*
X87089441Y-61539189D01*
X86870411Y-61320159D01*
X86612858Y-61148068D01*
X86326681Y-61029530D01*
X86022878Y-60969100D01*
X85713122Y-60969100D01*
X85409319Y-61029530D01*
X85123142Y-61148068D01*
X84865589Y-61320159D01*
X84646559Y-61539189D01*
X84474468Y-61796742D01*
X84355930Y-62082919D01*
X84295500Y-62386722D01*
X73025000Y-62386722D01*
X73025000Y-59143561D01*
X105137000Y-59143561D01*
X105137000Y-59347439D01*
X105176774Y-59547398D01*
X105254795Y-59735756D01*
X105368063Y-59905274D01*
X105512226Y-60049437D01*
X105681744Y-60162705D01*
X105870102Y-60240726D01*
X106070061Y-60280500D01*
X106273939Y-60280500D01*
X106473898Y-60240726D01*
X106662256Y-60162705D01*
X106831774Y-60049437D01*
X106975937Y-59905274D01*
X107089205Y-59735756D01*
X107167226Y-59547398D01*
X107207000Y-59347439D01*
X107207000Y-59143561D01*
X107804000Y-59143561D01*
X107804000Y-59347439D01*
X107843774Y-59547398D01*
X107921795Y-59735756D01*
X108035063Y-59905274D01*
X108179226Y-60049437D01*
X108348744Y-60162705D01*
X108537102Y-60240726D01*
X108737061Y-60280500D01*
X108940939Y-60280500D01*
X109140898Y-60240726D01*
X109329256Y-60162705D01*
X109498774Y-60049437D01*
X109642937Y-59905274D01*
X109756205Y-59735756D01*
X109834226Y-59547398D01*
X109874000Y-59347439D01*
X109874000Y-59143561D01*
X109834226Y-58943602D01*
X109756205Y-58755244D01*
X109642937Y-58585726D01*
X109502272Y-58445061D01*
X117837000Y-58445061D01*
X117837000Y-58648939D01*
X117876774Y-58848898D01*
X117954795Y-59037256D01*
X118068063Y-59206774D01*
X118212226Y-59350937D01*
X118381744Y-59464205D01*
X118570102Y-59542226D01*
X118770061Y-59582000D01*
X118973939Y-59582000D01*
X119173898Y-59542226D01*
X119362256Y-59464205D01*
X119531774Y-59350937D01*
X119675937Y-59206774D01*
X119789205Y-59037256D01*
X119867226Y-58848898D01*
X119907000Y-58648939D01*
X119907000Y-58445061D01*
X119867226Y-58245102D01*
X119789205Y-58056744D01*
X119675937Y-57887226D01*
X119531774Y-57743063D01*
X119362256Y-57629795D01*
X119173898Y-57551774D01*
X118973939Y-57512000D01*
X118770061Y-57512000D01*
X118570102Y-57551774D01*
X118381744Y-57629795D01*
X118212226Y-57743063D01*
X118068063Y-57887226D01*
X117954795Y-58056744D01*
X117876774Y-58245102D01*
X117837000Y-58445061D01*
X109502272Y-58445061D01*
X109498774Y-58441563D01*
X109329256Y-58328295D01*
X109140898Y-58250274D01*
X108940939Y-58210500D01*
X108737061Y-58210500D01*
X108537102Y-58250274D01*
X108348744Y-58328295D01*
X108179226Y-58441563D01*
X108035063Y-58585726D01*
X107921795Y-58755244D01*
X107843774Y-58943602D01*
X107804000Y-59143561D01*
X107207000Y-59143561D01*
X107167226Y-58943602D01*
X107089205Y-58755244D01*
X106975937Y-58585726D01*
X106831774Y-58441563D01*
X106662256Y-58328295D01*
X106473898Y-58250274D01*
X106273939Y-58210500D01*
X106070061Y-58210500D01*
X105870102Y-58250274D01*
X105681744Y-58328295D01*
X105512226Y-58441563D01*
X105368063Y-58585726D01*
X105254795Y-58755244D01*
X105176774Y-58943602D01*
X105137000Y-59143561D01*
X73025000Y-59143561D01*
X73025000Y-57277000D01*
X125095000Y-57277000D01*
X125095000Y-67243289D01*
G37*
X125095000Y-67243289D02*
X125024524Y-67172813D01*
X124855006Y-67059545D01*
X124666648Y-66981524D01*
X124466689Y-66941750D01*
X124262811Y-66941750D01*
X124062852Y-66981524D01*
X123874494Y-67059545D01*
X123704976Y-67172813D01*
X123560813Y-67316976D01*
X123447545Y-67486494D01*
X123369524Y-67674852D01*
X123329750Y-67874811D01*
X123329750Y-68078689D01*
X123369524Y-68278648D01*
X123447545Y-68467006D01*
X123560813Y-68636524D01*
X123704976Y-68780687D01*
X123874494Y-68893955D01*
X124062852Y-68971976D01*
X124262811Y-69011750D01*
X124466689Y-69011750D01*
X124666648Y-68971976D01*
X124855006Y-68893955D01*
X125024524Y-68780687D01*
X125095000Y-68710211D01*
X125095000Y-108174800D01*
X124936637Y-108174800D01*
X124675820Y-108226680D01*
X124430135Y-108328446D01*
X124209025Y-108476187D01*
X124020987Y-108664225D01*
X123873246Y-108885335D01*
X123771480Y-109131020D01*
X123719600Y-109391837D01*
X123719600Y-109657763D01*
X123771480Y-109918580D01*
X123873246Y-110164265D01*
X124020987Y-110385375D01*
X124209025Y-110573413D01*
X124430135Y-110721154D01*
X124675820Y-110822920D01*
X124936637Y-110874800D01*
X125095000Y-110874800D01*
X125095000Y-116001800D01*
X125097440Y-116026576D01*
X125104667Y-116050401D01*
X125116403Y-116072357D01*
X125132197Y-116091603D01*
X125151443Y-116107397D01*
X125173399Y-116119133D01*
X125197224Y-116126360D01*
X125223024Y-116128796D01*
X141865000Y-115994587D01*
X141865000Y-148984500D01*
X73025000Y-148984500D01*
X73025000Y-147550727D01*
X139339000Y-147550727D01*
X139339000Y-147789273D01*
X139385538Y-148023236D01*
X139476825Y-148243624D01*
X139609354Y-148441968D01*
X139778032Y-148610646D01*
X139976376Y-148743175D01*
X140196764Y-148834462D01*
X140430727Y-148881000D01*
X140669273Y-148881000D01*
X140903236Y-148834462D01*
X141123624Y-148743175D01*
X141321968Y-148610646D01*
X141490646Y-148441968D01*
X141623175Y-148243624D01*
X141714462Y-148023236D01*
X141761000Y-147789273D01*
X141761000Y-147550727D01*
X141714462Y-147316764D01*
X141623175Y-147096376D01*
X141490646Y-146898032D01*
X141321968Y-146729354D01*
X141123624Y-146596825D01*
X140903236Y-146505538D01*
X140669273Y-146459000D01*
X140430727Y-146459000D01*
X140196764Y-146505538D01*
X139976376Y-146596825D01*
X139778032Y-146729354D01*
X139609354Y-146898032D01*
X139476825Y-147096376D01*
X139385538Y-147316764D01*
X139339000Y-147550727D01*
X73025000Y-147550727D01*
X73025000Y-131266861D01*
X91040000Y-131266861D01*
X91040000Y-131470739D01*
X91079774Y-131670698D01*
X91157795Y-131859056D01*
X91271063Y-132028574D01*
X91415226Y-132172737D01*
X91584744Y-132286005D01*
X91773102Y-132364026D01*
X91973061Y-132403800D01*
X92176939Y-132403800D01*
X92376898Y-132364026D01*
X92565256Y-132286005D01*
X92734774Y-132172737D01*
X92878937Y-132028574D01*
X92992205Y-131859056D01*
X93070226Y-131670698D01*
X93110000Y-131470739D01*
X93110000Y-131470061D01*
X97059800Y-131470061D01*
X97059800Y-131673939D01*
X97099574Y-131873898D01*
X97177595Y-132062256D01*
X97290863Y-132231774D01*
X97435026Y-132375937D01*
X97604544Y-132489205D01*
X97792902Y-132567226D01*
X97992861Y-132607000D01*
X98196739Y-132607000D01*
X98396698Y-132567226D01*
X98585056Y-132489205D01*
X98627775Y-132460661D01*
X103105000Y-132460661D01*
X103105000Y-132664539D01*
X103144774Y-132864498D01*
X103222795Y-133052856D01*
X103336063Y-133222374D01*
X103480226Y-133366537D01*
X103649744Y-133479805D01*
X103838102Y-133557826D01*
X104038061Y-133597600D01*
X104241939Y-133597600D01*
X104441898Y-133557826D01*
X104630256Y-133479805D01*
X104799774Y-133366537D01*
X104943937Y-133222374D01*
X105057205Y-133052856D01*
X105135226Y-132864498D01*
X105175000Y-132664539D01*
X105175000Y-132460661D01*
X105135226Y-132260702D01*
X105057205Y-132072344D01*
X104943937Y-131902826D01*
X104799774Y-131758663D01*
X104630256Y-131645395D01*
X104441898Y-131567374D01*
X104241939Y-131527600D01*
X104038061Y-131527600D01*
X103838102Y-131567374D01*
X103649744Y-131645395D01*
X103480226Y-131758663D01*
X103336063Y-131902826D01*
X103222795Y-132072344D01*
X103144774Y-132260702D01*
X103105000Y-132460661D01*
X98627775Y-132460661D01*
X98754574Y-132375937D01*
X98898737Y-132231774D01*
X99012005Y-132062256D01*
X99090026Y-131873898D01*
X99129800Y-131673939D01*
X99129800Y-131470061D01*
X99090026Y-131270102D01*
X99012005Y-131081744D01*
X98898737Y-130912226D01*
X98754574Y-130768063D01*
X98585056Y-130654795D01*
X98396698Y-130576774D01*
X98196739Y-130537000D01*
X97992861Y-130537000D01*
X97792902Y-130576774D01*
X97604544Y-130654795D01*
X97435026Y-130768063D01*
X97290863Y-130912226D01*
X97177595Y-131081744D01*
X97099574Y-131270102D01*
X97059800Y-131470061D01*
X93110000Y-131470061D01*
X93110000Y-131266861D01*
X93070226Y-131066902D01*
X92992205Y-130878544D01*
X92878937Y-130709026D01*
X92734774Y-130564863D01*
X92565256Y-130451595D01*
X92376898Y-130373574D01*
X92176939Y-130333800D01*
X91973061Y-130333800D01*
X91773102Y-130373574D01*
X91584744Y-130451595D01*
X91415226Y-130564863D01*
X91271063Y-130709026D01*
X91157795Y-130878544D01*
X91079774Y-131066902D01*
X91040000Y-131266861D01*
X73025000Y-131266861D01*
X73025000Y-128663361D01*
X97059800Y-128663361D01*
X97059800Y-128867239D01*
X97099574Y-129067198D01*
X97177595Y-129255556D01*
X97290863Y-129425074D01*
X97435026Y-129569237D01*
X97604544Y-129682505D01*
X97792902Y-129760526D01*
X97992861Y-129800300D01*
X98196739Y-129800300D01*
X98396698Y-129760526D01*
X98585056Y-129682505D01*
X98754574Y-129569237D01*
X98898737Y-129425074D01*
X99012005Y-129255556D01*
X99090026Y-129067198D01*
X99129800Y-128867239D01*
X99129800Y-128663361D01*
X99090026Y-128463402D01*
X99012005Y-128275044D01*
X98898737Y-128105526D01*
X98754574Y-127961363D01*
X98585056Y-127848095D01*
X98396698Y-127770074D01*
X98196739Y-127730300D01*
X97992861Y-127730300D01*
X97792902Y-127770074D01*
X97604544Y-127848095D01*
X97435026Y-127961363D01*
X97290863Y-128105526D01*
X97177595Y-128275044D01*
X97099574Y-128463402D01*
X97059800Y-128663361D01*
X73025000Y-128663361D01*
X73025000Y-126047161D01*
X80651400Y-126047161D01*
X80651400Y-126251039D01*
X80691174Y-126450998D01*
X80769195Y-126639356D01*
X80882463Y-126808874D01*
X81026626Y-126953037D01*
X81196144Y-127066305D01*
X81384502Y-127144326D01*
X81584461Y-127184100D01*
X81788339Y-127184100D01*
X81988298Y-127144326D01*
X82176656Y-127066305D01*
X82346174Y-126953037D01*
X82490337Y-126808874D01*
X82603605Y-126639356D01*
X82668164Y-126483497D01*
X89741800Y-126483497D01*
X89741800Y-126652903D01*
X89774849Y-126819053D01*
X89839678Y-126975563D01*
X89933795Y-127116418D01*
X90053582Y-127236205D01*
X90194437Y-127330322D01*
X90350947Y-127395151D01*
X90517097Y-127428200D01*
X90686503Y-127428200D01*
X90852653Y-127395151D01*
X91009163Y-127330322D01*
X91150018Y-127236205D01*
X91269805Y-127116418D01*
X91279932Y-127101261D01*
X99409300Y-127101261D01*
X99409300Y-127305139D01*
X99449074Y-127505098D01*
X99527095Y-127693456D01*
X99640363Y-127862974D01*
X99784526Y-128007137D01*
X99954044Y-128120405D01*
X100142402Y-128198426D01*
X100342361Y-128238200D01*
X100546239Y-128238200D01*
X100746198Y-128198426D01*
X100934556Y-128120405D01*
X101104074Y-128007137D01*
X101248237Y-127862974D01*
X101361505Y-127693456D01*
X101439526Y-127505098D01*
X101479300Y-127305139D01*
X101479300Y-127101261D01*
X101439526Y-126901302D01*
X101361505Y-126712944D01*
X101248237Y-126543426D01*
X101104074Y-126399263D01*
X100934556Y-126285995D01*
X100746198Y-126207974D01*
X100546239Y-126168200D01*
X100342361Y-126168200D01*
X100142402Y-126207974D01*
X99954044Y-126285995D01*
X99784526Y-126399263D01*
X99640363Y-126543426D01*
X99527095Y-126712944D01*
X99449074Y-126901302D01*
X99409300Y-127101261D01*
X91279932Y-127101261D01*
X91363922Y-126975563D01*
X91428751Y-126819053D01*
X91461800Y-126652903D01*
X91461800Y-126483497D01*
X91428751Y-126317347D01*
X91363922Y-126160837D01*
X91269805Y-126019982D01*
X91150018Y-125900195D01*
X91009163Y-125806078D01*
X90852653Y-125741249D01*
X90686503Y-125708200D01*
X90517097Y-125708200D01*
X90350947Y-125741249D01*
X90194437Y-125806078D01*
X90053582Y-125900195D01*
X89933795Y-126019982D01*
X89839678Y-126160837D01*
X89774849Y-126317347D01*
X89741800Y-126483497D01*
X82668164Y-126483497D01*
X82681626Y-126450998D01*
X82721400Y-126251039D01*
X82721400Y-126047161D01*
X82681626Y-125847202D01*
X82603605Y-125658844D01*
X82490337Y-125489326D01*
X82346174Y-125345163D01*
X82176656Y-125231895D01*
X81988298Y-125153874D01*
X81788339Y-125114100D01*
X81584461Y-125114100D01*
X81384502Y-125153874D01*
X81196144Y-125231895D01*
X81026626Y-125345163D01*
X80882463Y-125489326D01*
X80769195Y-125658844D01*
X80691174Y-125847202D01*
X80651400Y-126047161D01*
X73025000Y-126047161D01*
X73025000Y-124993061D01*
X83026300Y-124993061D01*
X83026300Y-125196939D01*
X83066074Y-125396898D01*
X83144095Y-125585256D01*
X83257363Y-125754774D01*
X83401526Y-125898937D01*
X83571044Y-126012205D01*
X83759402Y-126090226D01*
X83959361Y-126130000D01*
X84163239Y-126130000D01*
X84363198Y-126090226D01*
X84551556Y-126012205D01*
X84721074Y-125898937D01*
X84865237Y-125754774D01*
X84978505Y-125585256D01*
X85056526Y-125396898D01*
X85096300Y-125196939D01*
X85096300Y-125120061D01*
X87179200Y-125120061D01*
X87179200Y-125323939D01*
X87218974Y-125523898D01*
X87296995Y-125712256D01*
X87410263Y-125881774D01*
X87554426Y-126025937D01*
X87723944Y-126139205D01*
X87912302Y-126217226D01*
X88112261Y-126257000D01*
X88316139Y-126257000D01*
X88516098Y-126217226D01*
X88704456Y-126139205D01*
X88873974Y-126025937D01*
X89018137Y-125881774D01*
X89131405Y-125712256D01*
X89209426Y-125523898D01*
X89249200Y-125323939D01*
X89249200Y-125120061D01*
X89209426Y-124920102D01*
X89131405Y-124731744D01*
X89018137Y-124562226D01*
X88873974Y-124418063D01*
X88704456Y-124304795D01*
X88516098Y-124226774D01*
X88316139Y-124187000D01*
X88112261Y-124187000D01*
X87912302Y-124226774D01*
X87723944Y-124304795D01*
X87554426Y-124418063D01*
X87410263Y-124562226D01*
X87296995Y-124731744D01*
X87218974Y-124920102D01*
X87179200Y-125120061D01*
X85096300Y-125120061D01*
X85096300Y-124993061D01*
X85056526Y-124793102D01*
X84978505Y-124604744D01*
X84865237Y-124435226D01*
X84721074Y-124291063D01*
X84551556Y-124177795D01*
X84363198Y-124099774D01*
X84163239Y-124060000D01*
X83959361Y-124060000D01*
X83759402Y-124099774D01*
X83571044Y-124177795D01*
X83401526Y-124291063D01*
X83257363Y-124435226D01*
X83144095Y-124604744D01*
X83066074Y-124793102D01*
X83026300Y-124993061D01*
X73025000Y-124993061D01*
X73025000Y-123283097D01*
X90541900Y-123283097D01*
X90541900Y-123452503D01*
X90574949Y-123618653D01*
X90639778Y-123775163D01*
X90733895Y-123916018D01*
X90853682Y-124035805D01*
X90994537Y-124129922D01*
X91151047Y-124194751D01*
X91317197Y-124227800D01*
X91486603Y-124227800D01*
X91652753Y-124194751D01*
X91809263Y-124129922D01*
X91950118Y-124035805D01*
X92069905Y-123916018D01*
X92164022Y-123775163D01*
X92228851Y-123618653D01*
X92261900Y-123452503D01*
X92261900Y-123283097D01*
X92228851Y-123116947D01*
X92164022Y-122960437D01*
X92069905Y-122819582D01*
X91950118Y-122699795D01*
X91809263Y-122605678D01*
X91652753Y-122540849D01*
X91486603Y-122507800D01*
X91317197Y-122507800D01*
X91151047Y-122540849D01*
X90994537Y-122605678D01*
X90853682Y-122699795D01*
X90733895Y-122819582D01*
X90639778Y-122960437D01*
X90574949Y-123116947D01*
X90541900Y-123283097D01*
X73025000Y-123283097D01*
X73025000Y-120370261D01*
X82924700Y-120370261D01*
X82924700Y-120574139D01*
X82964474Y-120774098D01*
X83042495Y-120962456D01*
X83155763Y-121131974D01*
X83299926Y-121276137D01*
X83469444Y-121389405D01*
X83657802Y-121467426D01*
X83857761Y-121507200D01*
X84061639Y-121507200D01*
X84261598Y-121467426D01*
X84449956Y-121389405D01*
X84619474Y-121276137D01*
X84763637Y-121131974D01*
X84876905Y-120962456D01*
X84885477Y-120941761D01*
X87458600Y-120941761D01*
X87458600Y-121145639D01*
X87498374Y-121345598D01*
X87576395Y-121533956D01*
X87689663Y-121703474D01*
X87833826Y-121847637D01*
X88003344Y-121960905D01*
X88191702Y-122038926D01*
X88391661Y-122078700D01*
X88595539Y-122078700D01*
X88795498Y-122038926D01*
X88983856Y-121960905D01*
X89153374Y-121847637D01*
X89297537Y-121703474D01*
X89410805Y-121533956D01*
X89488826Y-121345598D01*
X89528600Y-121145639D01*
X89528600Y-120941761D01*
X89516872Y-120882797D01*
X91342000Y-120882797D01*
X91342000Y-121052203D01*
X91375049Y-121218353D01*
X91439878Y-121374863D01*
X91533995Y-121515718D01*
X91653782Y-121635505D01*
X91794637Y-121729622D01*
X91951147Y-121794451D01*
X92117297Y-121827500D01*
X92286703Y-121827500D01*
X92452853Y-121794451D01*
X92609363Y-121729622D01*
X92750218Y-121635505D01*
X92870005Y-121515718D01*
X92964122Y-121374863D01*
X93002100Y-121283177D01*
X93037049Y-121367550D01*
X92975249Y-121516747D01*
X92942200Y-121682897D01*
X92942200Y-121852303D01*
X92975249Y-122018453D01*
X93040078Y-122174963D01*
X93134195Y-122315818D01*
X93253982Y-122435605D01*
X93394837Y-122529722D01*
X93486523Y-122567700D01*
X93394837Y-122605678D01*
X93253982Y-122699795D01*
X93134195Y-122819582D01*
X93040078Y-122960437D01*
X92975249Y-123116947D01*
X92942200Y-123283097D01*
X92942200Y-123307900D01*
X92917397Y-123307900D01*
X92751247Y-123340949D01*
X92594737Y-123405778D01*
X92453882Y-123499895D01*
X92334095Y-123619682D01*
X92239978Y-123760537D01*
X92175149Y-123917047D01*
X92142100Y-124083197D01*
X92142100Y-124252603D01*
X92175149Y-124418753D01*
X92239978Y-124575263D01*
X92334095Y-124716118D01*
X92453882Y-124835905D01*
X92594737Y-124930022D01*
X92751247Y-124994851D01*
X92917397Y-125027900D01*
X93086803Y-125027900D01*
X93252953Y-124994851D01*
X93409463Y-124930022D01*
X93550318Y-124835905D01*
X93670105Y-124716118D01*
X93764222Y-124575263D01*
X93802200Y-124483577D01*
X93837149Y-124567950D01*
X93775349Y-124717147D01*
X93742300Y-124883297D01*
X93742300Y-124905560D01*
X93720037Y-124905560D01*
X93553887Y-124938609D01*
X93397377Y-125003438D01*
X93256522Y-125097555D01*
X93136735Y-125217342D01*
X93042618Y-125358197D01*
X92977789Y-125514707D01*
X92944740Y-125680857D01*
X92944740Y-125850263D01*
X92977789Y-126016413D01*
X93042618Y-126172923D01*
X93136735Y-126313778D01*
X93256522Y-126433565D01*
X93397377Y-126527682D01*
X93553887Y-126592511D01*
X93720037Y-126625560D01*
X93889443Y-126625560D01*
X94055593Y-126592511D01*
X94212103Y-126527682D01*
X94352958Y-126433565D01*
X94472745Y-126313778D01*
X94566862Y-126172923D01*
X94631691Y-126016413D01*
X94664740Y-125850263D01*
X94664740Y-125828000D01*
X94687003Y-125828000D01*
X94853153Y-125794951D01*
X95009663Y-125730122D01*
X95150518Y-125636005D01*
X95270305Y-125516218D01*
X95364422Y-125375363D01*
X95402400Y-125283677D01*
X95440378Y-125375363D01*
X95534495Y-125516218D01*
X95654282Y-125636005D01*
X95795137Y-125730122D01*
X95951647Y-125794951D01*
X96117797Y-125828000D01*
X96287203Y-125828000D01*
X96453353Y-125794951D01*
X96609863Y-125730122D01*
X96750718Y-125636005D01*
X96870505Y-125516218D01*
X96964622Y-125375363D01*
X97029451Y-125218853D01*
X97062500Y-125052703D01*
X97062500Y-125027900D01*
X97087303Y-125027900D01*
X97253453Y-124994851D01*
X97409963Y-124930022D01*
X97550818Y-124835905D01*
X97670605Y-124716118D01*
X97764722Y-124575263D01*
X97829551Y-124418753D01*
X97862600Y-124252603D01*
X97862600Y-124083197D01*
X97829551Y-123917047D01*
X97764722Y-123760537D01*
X97670605Y-123619682D01*
X97550818Y-123499895D01*
X97409963Y-123405778D01*
X97313941Y-123366004D01*
X97407423Y-123327282D01*
X97548278Y-123233165D01*
X97667982Y-123113461D01*
X103308200Y-123113461D01*
X103308200Y-123317339D01*
X103347974Y-123517298D01*
X103425995Y-123705656D01*
X103539263Y-123875174D01*
X103683426Y-124019337D01*
X103852944Y-124132605D01*
X104041302Y-124210626D01*
X104241261Y-124250400D01*
X104445139Y-124250400D01*
X104645098Y-124210626D01*
X104833456Y-124132605D01*
X105002974Y-124019337D01*
X105147137Y-123875174D01*
X105260405Y-123705656D01*
X105338426Y-123517298D01*
X105378200Y-123317339D01*
X105378200Y-123113461D01*
X105338426Y-122913502D01*
X105260405Y-122725144D01*
X105147137Y-122555626D01*
X105002974Y-122411463D01*
X104833456Y-122298195D01*
X104645098Y-122220174D01*
X104445139Y-122180400D01*
X104241261Y-122180400D01*
X104041302Y-122220174D01*
X103852944Y-122298195D01*
X103683426Y-122411463D01*
X103539263Y-122555626D01*
X103425995Y-122725144D01*
X103347974Y-122913502D01*
X103308200Y-123113461D01*
X97667982Y-123113461D01*
X97668065Y-123113378D01*
X97762182Y-122972523D01*
X97827011Y-122816013D01*
X97860060Y-122649863D01*
X97860060Y-122480457D01*
X97827011Y-122314307D01*
X97765737Y-122166380D01*
X97827011Y-122018453D01*
X97860060Y-121852303D01*
X97860060Y-121716461D01*
X98329800Y-121716461D01*
X98329800Y-121920339D01*
X98369574Y-122120298D01*
X98447595Y-122308656D01*
X98560863Y-122478174D01*
X98705026Y-122622337D01*
X98874544Y-122735605D01*
X99062902Y-122813626D01*
X99262861Y-122853400D01*
X99466739Y-122853400D01*
X99666698Y-122813626D01*
X99855056Y-122735605D01*
X100024574Y-122622337D01*
X100168737Y-122478174D01*
X100282005Y-122308656D01*
X100360026Y-122120298D01*
X100399800Y-121920339D01*
X100399800Y-121716461D01*
X100360026Y-121516502D01*
X100282005Y-121328144D01*
X100168737Y-121158626D01*
X100024574Y-121014463D01*
X99855056Y-120901195D01*
X99666698Y-120823174D01*
X99466739Y-120783400D01*
X99262861Y-120783400D01*
X99062902Y-120823174D01*
X98874544Y-120901195D01*
X98705026Y-121014463D01*
X98560863Y-121158626D01*
X98447595Y-121328144D01*
X98369574Y-121516502D01*
X98329800Y-121716461D01*
X97860060Y-121716461D01*
X97860060Y-121682897D01*
X97827011Y-121516747D01*
X97766481Y-121370616D01*
X97829551Y-121218353D01*
X97862600Y-121052203D01*
X97862600Y-120882797D01*
X97829551Y-120716647D01*
X97764722Y-120560137D01*
X97670605Y-120419282D01*
X97550818Y-120299495D01*
X97409963Y-120205378D01*
X97253453Y-120140549D01*
X97087303Y-120107500D01*
X97049800Y-120107500D01*
X97049800Y-120095397D01*
X97016751Y-119929247D01*
X96951922Y-119772737D01*
X96857805Y-119631882D01*
X96738018Y-119512095D01*
X96597163Y-119417978D01*
X96440653Y-119353149D01*
X96274503Y-119320100D01*
X96105097Y-119320100D01*
X95938947Y-119353149D01*
X95782437Y-119417978D01*
X95641582Y-119512095D01*
X95521795Y-119631882D01*
X95427678Y-119772737D01*
X95421884Y-119786725D01*
X95115135Y-119479976D01*
X95190337Y-119404774D01*
X95303605Y-119235256D01*
X95381626Y-119046898D01*
X95421400Y-118846939D01*
X95421400Y-118643061D01*
X95381626Y-118443102D01*
X95303605Y-118254744D01*
X95190337Y-118085226D01*
X95046174Y-117941063D01*
X94876656Y-117827795D01*
X94688298Y-117749774D01*
X94488339Y-117710000D01*
X94295100Y-117710000D01*
X94295100Y-115893111D01*
X94314037Y-115874174D01*
X94346572Y-115825483D01*
X94361626Y-115840537D01*
X94531144Y-115953805D01*
X94719502Y-116031826D01*
X94919461Y-116071600D01*
X94973015Y-116071600D01*
X94951600Y-116179261D01*
X94951600Y-116383139D01*
X94991374Y-116583098D01*
X95069395Y-116771456D01*
X95182663Y-116940974D01*
X95326826Y-117085137D01*
X95496344Y-117198405D01*
X95684702Y-117276426D01*
X95884661Y-117316200D01*
X96088539Y-117316200D01*
X96288498Y-117276426D01*
X96476856Y-117198405D01*
X96646374Y-117085137D01*
X96790537Y-116940974D01*
X96903805Y-116771456D01*
X96981826Y-116583098D01*
X97021600Y-116383139D01*
X97021600Y-116306261D01*
X101352400Y-116306261D01*
X101352400Y-116510139D01*
X101392174Y-116710098D01*
X101470195Y-116898456D01*
X101583463Y-117067974D01*
X101727626Y-117212137D01*
X101897144Y-117325405D01*
X102085502Y-117403426D01*
X102285461Y-117443200D01*
X102489339Y-117443200D01*
X102689298Y-117403426D01*
X102877656Y-117325405D01*
X103047174Y-117212137D01*
X103191337Y-117067974D01*
X103304605Y-116898456D01*
X103335091Y-116824857D01*
X103349795Y-116860356D01*
X103463063Y-117029874D01*
X103607226Y-117174037D01*
X103776744Y-117287305D01*
X103965102Y-117365326D01*
X104165061Y-117405100D01*
X104368939Y-117405100D01*
X104568898Y-117365326D01*
X104757256Y-117287305D01*
X104926774Y-117174037D01*
X105070937Y-117029874D01*
X105184205Y-116860356D01*
X105262226Y-116671998D01*
X105302000Y-116472039D01*
X105302000Y-116268161D01*
X105262226Y-116068202D01*
X105184205Y-115879844D01*
X105070937Y-115710326D01*
X104926774Y-115566163D01*
X104757256Y-115452895D01*
X104568898Y-115374874D01*
X104368939Y-115335100D01*
X104165061Y-115335100D01*
X103965102Y-115374874D01*
X103776744Y-115452895D01*
X103607226Y-115566163D01*
X103463063Y-115710326D01*
X103349795Y-115879844D01*
X103319309Y-115953443D01*
X103304605Y-115917944D01*
X103191337Y-115748426D01*
X103047174Y-115604263D01*
X102877656Y-115490995D01*
X102689298Y-115412974D01*
X102489339Y-115373200D01*
X102285461Y-115373200D01*
X102085502Y-115412974D01*
X101897144Y-115490995D01*
X101727626Y-115604263D01*
X101583463Y-115748426D01*
X101470195Y-115917944D01*
X101392174Y-116106302D01*
X101352400Y-116306261D01*
X97021600Y-116306261D01*
X97021600Y-116179261D01*
X96981826Y-115979302D01*
X96959824Y-115926184D01*
X97030902Y-115955626D01*
X97230861Y-115995400D01*
X97434739Y-115995400D01*
X97634698Y-115955626D01*
X97823056Y-115877605D01*
X97992574Y-115764337D01*
X98136737Y-115620174D01*
X98250005Y-115450656D01*
X98328026Y-115262298D01*
X98367800Y-115062339D01*
X98367800Y-114858461D01*
X98328026Y-114658502D01*
X98250005Y-114470144D01*
X98136737Y-114300626D01*
X97992574Y-114156463D01*
X97823056Y-114043195D01*
X97634698Y-113965174D01*
X97434739Y-113925400D01*
X97230861Y-113925400D01*
X97030902Y-113965174D01*
X96842544Y-114043195D01*
X96673026Y-114156463D01*
X96528863Y-114300626D01*
X96415595Y-114470144D01*
X96337574Y-114658502D01*
X96297800Y-114858461D01*
X96297800Y-115062339D01*
X96337574Y-115262298D01*
X96359576Y-115315416D01*
X96288498Y-115285974D01*
X96088539Y-115246200D01*
X96034985Y-115246200D01*
X96056400Y-115138539D01*
X96056400Y-114934661D01*
X96016626Y-114734702D01*
X95938605Y-114546344D01*
X95825337Y-114376826D01*
X95681174Y-114232663D01*
X95511656Y-114119395D01*
X95323298Y-114041374D01*
X95123339Y-114001600D01*
X94919461Y-114001600D01*
X94719502Y-114041374D01*
X94531144Y-114119395D01*
X94361626Y-114232663D01*
X94217463Y-114376826D01*
X94184928Y-114425517D01*
X94169874Y-114410463D01*
X94000356Y-114297195D01*
X93811998Y-114219174D01*
X93612039Y-114179400D01*
X93408161Y-114179400D01*
X93208202Y-114219174D01*
X93019844Y-114297195D01*
X92850326Y-114410463D01*
X92706163Y-114554626D01*
X92592895Y-114724144D01*
X92514874Y-114912502D01*
X92475100Y-115112461D01*
X92475100Y-115316339D01*
X92514874Y-115516298D01*
X92592895Y-115704656D01*
X92706163Y-115874174D01*
X92725100Y-115893111D01*
X92725101Y-118477829D01*
X92725100Y-118477839D01*
X92725100Y-118940149D01*
X92721303Y-118978702D01*
X92721618Y-118981900D01*
X92721303Y-118985098D01*
X92725100Y-119023651D01*
X92725100Y-119023658D01*
X92736459Y-119138984D01*
X92781346Y-119286957D01*
X92854238Y-119423330D01*
X92952336Y-119542862D01*
X92982290Y-119567445D01*
X93094658Y-119679813D01*
X93043017Y-119757098D01*
X92978188Y-119913608D01*
X92945139Y-120079758D01*
X92945139Y-120249164D01*
X92978188Y-120415314D01*
X93039127Y-120562433D01*
X93002100Y-120651823D01*
X92964122Y-120560137D01*
X92870005Y-120419282D01*
X92750218Y-120299495D01*
X92609363Y-120205378D01*
X92452853Y-120140549D01*
X92286703Y-120107500D01*
X92117297Y-120107500D01*
X91951147Y-120140549D01*
X91794637Y-120205378D01*
X91653782Y-120299495D01*
X91533995Y-120419282D01*
X91439878Y-120560137D01*
X91375049Y-120716647D01*
X91342000Y-120882797D01*
X89516872Y-120882797D01*
X89488826Y-120741802D01*
X89410805Y-120553444D01*
X89297537Y-120383926D01*
X89153374Y-120239763D01*
X88983856Y-120126495D01*
X88795498Y-120048474D01*
X88595539Y-120008700D01*
X88391661Y-120008700D01*
X88191702Y-120048474D01*
X88003344Y-120126495D01*
X87833826Y-120239763D01*
X87689663Y-120383926D01*
X87576395Y-120553444D01*
X87498374Y-120741802D01*
X87458600Y-120941761D01*
X84885477Y-120941761D01*
X84954926Y-120774098D01*
X84994700Y-120574139D01*
X84994700Y-120370261D01*
X84954926Y-120170302D01*
X84876905Y-119981944D01*
X84763637Y-119812426D01*
X84619474Y-119668263D01*
X84449956Y-119554995D01*
X84261598Y-119476974D01*
X84061639Y-119437200D01*
X83857761Y-119437200D01*
X83657802Y-119476974D01*
X83469444Y-119554995D01*
X83299926Y-119668263D01*
X83155763Y-119812426D01*
X83042495Y-119981944D01*
X82964474Y-120170302D01*
X82924700Y-120370261D01*
X73025000Y-120370261D01*
X73025000Y-116458661D01*
X74263300Y-116458661D01*
X74263300Y-116662539D01*
X74303074Y-116862498D01*
X74381095Y-117050856D01*
X74494363Y-117220374D01*
X74638526Y-117364537D01*
X74808044Y-117477805D01*
X74996402Y-117555826D01*
X75196361Y-117595600D01*
X75400239Y-117595600D01*
X75600198Y-117555826D01*
X75788556Y-117477805D01*
X75958074Y-117364537D01*
X76102237Y-117220374D01*
X76215505Y-117050856D01*
X76218816Y-117042861D01*
X87649100Y-117042861D01*
X87649100Y-117246739D01*
X87688874Y-117446698D01*
X87766895Y-117635056D01*
X87880163Y-117804574D01*
X88024326Y-117948737D01*
X88193844Y-118062005D01*
X88312249Y-118111050D01*
X88299263Y-118124036D01*
X88185995Y-118293554D01*
X88107974Y-118481912D01*
X88068200Y-118681871D01*
X88068200Y-118885749D01*
X88107974Y-119085708D01*
X88185995Y-119274066D01*
X88299263Y-119443584D01*
X88443426Y-119587747D01*
X88612944Y-119701015D01*
X88801302Y-119779036D01*
X89001261Y-119818810D01*
X89205139Y-119818810D01*
X89405098Y-119779036D01*
X89593456Y-119701015D01*
X89762974Y-119587747D01*
X89907137Y-119443584D01*
X90020405Y-119274066D01*
X90094957Y-119094082D01*
X90098812Y-119113460D01*
X90176833Y-119301818D01*
X90290101Y-119471336D01*
X90434264Y-119615499D01*
X90603782Y-119728767D01*
X90792140Y-119806788D01*
X90992099Y-119846562D01*
X91195977Y-119846562D01*
X91395936Y-119806788D01*
X91584294Y-119728767D01*
X91753812Y-119615499D01*
X91897975Y-119471336D01*
X92011243Y-119301818D01*
X92089264Y-119113460D01*
X92129038Y-118913501D01*
X92129038Y-118709623D01*
X92089264Y-118509664D01*
X92011243Y-118321306D01*
X91897975Y-118151788D01*
X91753812Y-118007625D01*
X91584294Y-117894357D01*
X91395936Y-117816336D01*
X91195977Y-117776562D01*
X91051882Y-117776562D01*
X91163405Y-117609656D01*
X91241426Y-117421298D01*
X91281200Y-117221339D01*
X91281200Y-117017461D01*
X91241426Y-116817502D01*
X91163405Y-116629144D01*
X91050137Y-116459626D01*
X90905974Y-116315463D01*
X90736456Y-116202195D01*
X90548098Y-116124174D01*
X90348139Y-116084400D01*
X90144261Y-116084400D01*
X89944302Y-116124174D01*
X89755944Y-116202195D01*
X89586426Y-116315463D01*
X89452450Y-116449439D01*
X89343874Y-116340863D01*
X89174356Y-116227595D01*
X88985998Y-116149574D01*
X88786039Y-116109800D01*
X88582161Y-116109800D01*
X88382202Y-116149574D01*
X88193844Y-116227595D01*
X88024326Y-116340863D01*
X87880163Y-116485026D01*
X87766895Y-116654544D01*
X87688874Y-116842902D01*
X87649100Y-117042861D01*
X76218816Y-117042861D01*
X76293526Y-116862498D01*
X76333300Y-116662539D01*
X76333300Y-116458661D01*
X76293526Y-116258702D01*
X76215505Y-116070344D01*
X76102237Y-115900826D01*
X75958074Y-115756663D01*
X75788556Y-115643395D01*
X75600198Y-115565374D01*
X75400239Y-115525600D01*
X75196361Y-115525600D01*
X74996402Y-115565374D01*
X74808044Y-115643395D01*
X74638526Y-115756663D01*
X74494363Y-115900826D01*
X74381095Y-116070344D01*
X74303074Y-116258702D01*
X74263300Y-116458661D01*
X73025000Y-116458661D01*
X73025000Y-114629861D01*
X78187600Y-114629861D01*
X78187600Y-114833739D01*
X78227374Y-115033698D01*
X78305395Y-115222056D01*
X78418663Y-115391574D01*
X78562826Y-115535737D01*
X78732344Y-115649005D01*
X78920702Y-115727026D01*
X79120661Y-115766800D01*
X79324539Y-115766800D01*
X79524498Y-115727026D01*
X79712856Y-115649005D01*
X79882374Y-115535737D01*
X80026537Y-115391574D01*
X80139805Y-115222056D01*
X80217826Y-115033698D01*
X80257600Y-114833739D01*
X80257600Y-114629861D01*
X80217826Y-114429902D01*
X80139805Y-114241544D01*
X80026537Y-114072026D01*
X79898572Y-113944061D01*
X83140600Y-113944061D01*
X83140600Y-114147939D01*
X83180374Y-114347898D01*
X83258395Y-114536256D01*
X83371663Y-114705774D01*
X83515826Y-114849937D01*
X83685344Y-114963205D01*
X83873702Y-115041226D01*
X84073661Y-115081000D01*
X84277539Y-115081000D01*
X84477498Y-115041226D01*
X84665856Y-114963205D01*
X84835374Y-114849937D01*
X84979537Y-114705774D01*
X85092805Y-114536256D01*
X85170826Y-114347898D01*
X85210600Y-114147939D01*
X85210600Y-113944061D01*
X85170826Y-113744102D01*
X85092805Y-113555744D01*
X84979537Y-113386226D01*
X84953172Y-113359861D01*
X86341000Y-113359861D01*
X86341000Y-113563739D01*
X86380774Y-113763698D01*
X86458795Y-113952056D01*
X86572063Y-114121574D01*
X86716226Y-114265737D01*
X86885744Y-114379005D01*
X87074102Y-114457026D01*
X87274061Y-114496800D01*
X87477939Y-114496800D01*
X87677898Y-114457026D01*
X87866256Y-114379005D01*
X88035774Y-114265737D01*
X88179937Y-114121574D01*
X88293205Y-113952056D01*
X88371226Y-113763698D01*
X88411000Y-113563739D01*
X88411000Y-113372561D01*
X102820500Y-113372561D01*
X102820500Y-113576439D01*
X102860274Y-113776398D01*
X102938295Y-113964756D01*
X103051563Y-114134274D01*
X103195726Y-114278437D01*
X103365244Y-114391705D01*
X103553602Y-114469726D01*
X103753561Y-114509500D01*
X103957439Y-114509500D01*
X104157398Y-114469726D01*
X104345756Y-114391705D01*
X104515274Y-114278437D01*
X104659437Y-114134274D01*
X104772705Y-113964756D01*
X104850726Y-113776398D01*
X104890500Y-113576439D01*
X104890500Y-113372561D01*
X104850726Y-113172602D01*
X104772705Y-112984244D01*
X104659437Y-112814726D01*
X104515274Y-112670563D01*
X104345756Y-112557295D01*
X104157398Y-112479274D01*
X103957439Y-112439500D01*
X103753561Y-112439500D01*
X103553602Y-112479274D01*
X103365244Y-112557295D01*
X103195726Y-112670563D01*
X103051563Y-112814726D01*
X102938295Y-112984244D01*
X102860274Y-113172602D01*
X102820500Y-113372561D01*
X88411000Y-113372561D01*
X88411000Y-113359861D01*
X88371226Y-113159902D01*
X88293205Y-112971544D01*
X88179937Y-112802026D01*
X88035774Y-112657863D01*
X87866256Y-112544595D01*
X87677898Y-112466574D01*
X87477939Y-112426800D01*
X87274061Y-112426800D01*
X87074102Y-112466574D01*
X86885744Y-112544595D01*
X86716226Y-112657863D01*
X86572063Y-112802026D01*
X86458795Y-112971544D01*
X86380774Y-113159902D01*
X86341000Y-113359861D01*
X84953172Y-113359861D01*
X84835374Y-113242063D01*
X84665856Y-113128795D01*
X84477498Y-113050774D01*
X84277539Y-113011000D01*
X84073661Y-113011000D01*
X83873702Y-113050774D01*
X83685344Y-113128795D01*
X83515826Y-113242063D01*
X83371663Y-113386226D01*
X83258395Y-113555744D01*
X83180374Y-113744102D01*
X83140600Y-113944061D01*
X79898572Y-113944061D01*
X79882374Y-113927863D01*
X79712856Y-113814595D01*
X79524498Y-113736574D01*
X79324539Y-113696800D01*
X79120661Y-113696800D01*
X78920702Y-113736574D01*
X78732344Y-113814595D01*
X78562826Y-113927863D01*
X78418663Y-114072026D01*
X78305395Y-114241544D01*
X78227374Y-114429902D01*
X78187600Y-114629861D01*
X73025000Y-114629861D01*
X73025000Y-110489661D01*
X80727600Y-110489661D01*
X80727600Y-110693539D01*
X80767374Y-110893498D01*
X80845395Y-111081856D01*
X80958663Y-111251374D01*
X81102826Y-111395537D01*
X81272344Y-111508805D01*
X81460702Y-111586826D01*
X81660661Y-111626600D01*
X81864539Y-111626600D01*
X82064498Y-111586826D01*
X82076484Y-111581861D01*
X90227200Y-111581861D01*
X90227200Y-111785739D01*
X90266974Y-111985698D01*
X90344995Y-112174056D01*
X90458263Y-112343574D01*
X90602426Y-112487737D01*
X90771944Y-112601005D01*
X90960302Y-112679026D01*
X91160261Y-112718800D01*
X91364139Y-112718800D01*
X91564098Y-112679026D01*
X91752456Y-112601005D01*
X91921974Y-112487737D01*
X92066137Y-112343574D01*
X92179405Y-112174056D01*
X92257426Y-111985698D01*
X92297200Y-111785739D01*
X92297200Y-111581861D01*
X92257426Y-111381902D01*
X92179405Y-111193544D01*
X92066137Y-111024026D01*
X91938172Y-110896061D01*
X93656200Y-110896061D01*
X93656200Y-111099939D01*
X93695974Y-111299898D01*
X93773995Y-111488256D01*
X93887263Y-111657774D01*
X94031426Y-111801937D01*
X94200944Y-111915205D01*
X94389302Y-111993226D01*
X94589261Y-112033000D01*
X94793139Y-112033000D01*
X94993098Y-111993226D01*
X95181456Y-111915205D01*
X95350974Y-111801937D01*
X95495137Y-111657774D01*
X95608405Y-111488256D01*
X95686426Y-111299898D01*
X95726200Y-111099939D01*
X95726200Y-110896061D01*
X95686426Y-110696102D01*
X95632479Y-110565861D01*
X97136000Y-110565861D01*
X97136000Y-110769739D01*
X97175774Y-110969698D01*
X97253795Y-111158056D01*
X97367063Y-111327574D01*
X97511226Y-111471737D01*
X97680744Y-111585005D01*
X97869102Y-111663026D01*
X98069061Y-111702800D01*
X98272939Y-111702800D01*
X98472898Y-111663026D01*
X98661256Y-111585005D01*
X98830774Y-111471737D01*
X98974937Y-111327574D01*
X99088205Y-111158056D01*
X99166226Y-110969698D01*
X99206000Y-110769739D01*
X99206000Y-110565861D01*
X99180739Y-110438861D01*
X99879200Y-110438861D01*
X99879200Y-110642739D01*
X99918974Y-110842698D01*
X99996995Y-111031056D01*
X100110263Y-111200574D01*
X100254426Y-111344737D01*
X100423944Y-111458005D01*
X100612302Y-111536026D01*
X100812261Y-111575800D01*
X101016139Y-111575800D01*
X101216098Y-111536026D01*
X101404456Y-111458005D01*
X101573974Y-111344737D01*
X101718137Y-111200574D01*
X101831405Y-111031056D01*
X101909426Y-110842698D01*
X101949200Y-110642739D01*
X101949200Y-110438861D01*
X101939096Y-110388061D01*
X102520800Y-110388061D01*
X102520800Y-110591939D01*
X102560574Y-110791898D01*
X102638595Y-110980256D01*
X102751863Y-111149774D01*
X102896026Y-111293937D01*
X103065544Y-111407205D01*
X103253902Y-111485226D01*
X103453861Y-111525000D01*
X103657739Y-111525000D01*
X103857698Y-111485226D01*
X104046056Y-111407205D01*
X104215574Y-111293937D01*
X104359737Y-111149774D01*
X104368031Y-111137361D01*
X106000600Y-111137361D01*
X106000600Y-111341239D01*
X106040374Y-111541198D01*
X106118395Y-111729556D01*
X106231663Y-111899074D01*
X106375826Y-112043237D01*
X106545344Y-112156505D01*
X106733702Y-112234526D01*
X106933661Y-112274300D01*
X107137539Y-112274300D01*
X107337498Y-112234526D01*
X107525856Y-112156505D01*
X107695374Y-112043237D01*
X107839537Y-111899074D01*
X107952805Y-111729556D01*
X108030826Y-111541198D01*
X108070600Y-111341239D01*
X108070600Y-111137361D01*
X108030826Y-110937402D01*
X107952805Y-110749044D01*
X107839537Y-110579526D01*
X107695374Y-110435363D01*
X107525856Y-110322095D01*
X107337498Y-110244074D01*
X107137539Y-110204300D01*
X106933661Y-110204300D01*
X106733702Y-110244074D01*
X106545344Y-110322095D01*
X106375826Y-110435363D01*
X106231663Y-110579526D01*
X106118395Y-110749044D01*
X106040374Y-110937402D01*
X106000600Y-111137361D01*
X104368031Y-111137361D01*
X104473005Y-110980256D01*
X104551026Y-110791898D01*
X104590800Y-110591939D01*
X104590800Y-110388061D01*
X104551026Y-110188102D01*
X104473005Y-109999744D01*
X104359737Y-109830226D01*
X104215574Y-109686063D01*
X104046056Y-109572795D01*
X103857698Y-109494774D01*
X103657739Y-109455000D01*
X103453861Y-109455000D01*
X103253902Y-109494774D01*
X103065544Y-109572795D01*
X102896026Y-109686063D01*
X102751863Y-109830226D01*
X102638595Y-109999744D01*
X102560574Y-110188102D01*
X102520800Y-110388061D01*
X101939096Y-110388061D01*
X101909426Y-110238902D01*
X101831405Y-110050544D01*
X101718137Y-109881026D01*
X101573974Y-109736863D01*
X101404456Y-109623595D01*
X101216098Y-109545574D01*
X101016139Y-109505800D01*
X100812261Y-109505800D01*
X100612302Y-109545574D01*
X100423944Y-109623595D01*
X100254426Y-109736863D01*
X100110263Y-109881026D01*
X99996995Y-110050544D01*
X99918974Y-110238902D01*
X99879200Y-110438861D01*
X99180739Y-110438861D01*
X99166226Y-110365902D01*
X99088205Y-110177544D01*
X98974937Y-110008026D01*
X98830774Y-109863863D01*
X98661256Y-109750595D01*
X98472898Y-109672574D01*
X98272939Y-109632800D01*
X98069061Y-109632800D01*
X97869102Y-109672574D01*
X97680744Y-109750595D01*
X97511226Y-109863863D01*
X97367063Y-110008026D01*
X97253795Y-110177544D01*
X97175774Y-110365902D01*
X97136000Y-110565861D01*
X95632479Y-110565861D01*
X95608405Y-110507744D01*
X95495137Y-110338226D01*
X95350974Y-110194063D01*
X95181456Y-110080795D01*
X94993098Y-110002774D01*
X94793139Y-109963000D01*
X94589261Y-109963000D01*
X94389302Y-110002774D01*
X94200944Y-110080795D01*
X94031426Y-110194063D01*
X93887263Y-110338226D01*
X93773995Y-110507744D01*
X93695974Y-110696102D01*
X93656200Y-110896061D01*
X91938172Y-110896061D01*
X91921974Y-110879863D01*
X91752456Y-110766595D01*
X91564098Y-110688574D01*
X91364139Y-110648800D01*
X91160261Y-110648800D01*
X90960302Y-110688574D01*
X90771944Y-110766595D01*
X90602426Y-110879863D01*
X90458263Y-111024026D01*
X90344995Y-111193544D01*
X90266974Y-111381902D01*
X90227200Y-111581861D01*
X82076484Y-111581861D01*
X82252856Y-111508805D01*
X82422374Y-111395537D01*
X82566537Y-111251374D01*
X82679805Y-111081856D01*
X82757826Y-110893498D01*
X82797600Y-110693539D01*
X82797600Y-110489661D01*
X82757826Y-110289702D01*
X82679805Y-110101344D01*
X82566537Y-109931826D01*
X82422374Y-109787663D01*
X82252856Y-109674395D01*
X82064498Y-109596374D01*
X81864539Y-109556600D01*
X81660661Y-109556600D01*
X81460702Y-109596374D01*
X81272344Y-109674395D01*
X81102826Y-109787663D01*
X80958663Y-109931826D01*
X80845395Y-110101344D01*
X80767374Y-110289702D01*
X80727600Y-110489661D01*
X73025000Y-110489661D01*
X73025000Y-107771861D01*
X78314600Y-107771861D01*
X78314600Y-107975739D01*
X78354374Y-108175698D01*
X78432395Y-108364056D01*
X78545663Y-108533574D01*
X78689826Y-108677737D01*
X78859344Y-108791005D01*
X79047702Y-108869026D01*
X79247661Y-108908800D01*
X79451539Y-108908800D01*
X79651498Y-108869026D01*
X79839856Y-108791005D01*
X80009374Y-108677737D01*
X80153537Y-108533574D01*
X80266805Y-108364056D01*
X80344826Y-108175698D01*
X80384600Y-107975739D01*
X80384600Y-107771861D01*
X80344826Y-107571902D01*
X80266805Y-107383544D01*
X80153537Y-107214026D01*
X80009374Y-107069863D01*
X79839856Y-106956595D01*
X79651498Y-106878574D01*
X79451539Y-106838800D01*
X79247661Y-106838800D01*
X79047702Y-106878574D01*
X78859344Y-106956595D01*
X78689826Y-107069863D01*
X78545663Y-107214026D01*
X78432395Y-107383544D01*
X78354374Y-107571902D01*
X78314600Y-107771861D01*
X73025000Y-107771861D01*
X73025000Y-106070061D01*
X92386200Y-106070061D01*
X92386200Y-106273939D01*
X92425974Y-106473898D01*
X92503995Y-106662256D01*
X92617263Y-106831774D01*
X92761426Y-106975937D01*
X92930944Y-107089205D01*
X93119302Y-107167226D01*
X93319261Y-107207000D01*
X93523139Y-107207000D01*
X93723098Y-107167226D01*
X93911456Y-107089205D01*
X93916161Y-107086061D01*
X99752200Y-107086061D01*
X99752200Y-107289939D01*
X99791974Y-107489898D01*
X99869995Y-107678256D01*
X99983263Y-107847774D01*
X100127426Y-107991937D01*
X100296944Y-108105205D01*
X100485302Y-108183226D01*
X100685261Y-108223000D01*
X100889139Y-108223000D01*
X101089098Y-108183226D01*
X101277456Y-108105205D01*
X101446974Y-107991937D01*
X101591137Y-107847774D01*
X101704405Y-107678256D01*
X101782426Y-107489898D01*
X101822200Y-107289939D01*
X101822200Y-107213531D01*
X101927298Y-107192626D01*
X102115656Y-107114605D01*
X102285174Y-107001337D01*
X102429337Y-106857174D01*
X102542605Y-106687656D01*
X102588421Y-106577047D01*
X102613195Y-106636856D01*
X102726463Y-106806374D01*
X102870626Y-106950537D01*
X103040144Y-107063805D01*
X103228502Y-107141826D01*
X103428461Y-107181600D01*
X103632339Y-107181600D01*
X103832298Y-107141826D01*
X104020656Y-107063805D01*
X104190174Y-106950537D01*
X104334337Y-106806374D01*
X104447605Y-106636856D01*
X104525626Y-106448498D01*
X104565400Y-106248539D01*
X104565400Y-106044661D01*
X104525626Y-105844702D01*
X104447605Y-105656344D01*
X104334337Y-105486826D01*
X104190174Y-105342663D01*
X104020656Y-105229395D01*
X103832298Y-105151374D01*
X103632339Y-105111600D01*
X103428461Y-105111600D01*
X103228502Y-105151374D01*
X103040144Y-105229395D01*
X102870626Y-105342663D01*
X102726463Y-105486826D01*
X102613195Y-105656344D01*
X102567379Y-105766953D01*
X102542605Y-105707144D01*
X102429337Y-105537626D01*
X102285174Y-105393463D01*
X102115656Y-105280195D01*
X101927298Y-105202174D01*
X101727339Y-105162400D01*
X101523461Y-105162400D01*
X101323502Y-105202174D01*
X101135144Y-105280195D01*
X100965626Y-105393463D01*
X100821463Y-105537626D01*
X100708195Y-105707144D01*
X100630174Y-105895502D01*
X100590400Y-106095461D01*
X100590400Y-106171869D01*
X100485302Y-106192774D01*
X100296944Y-106270795D01*
X100127426Y-106384063D01*
X99983263Y-106528226D01*
X99869995Y-106697744D01*
X99791974Y-106886102D01*
X99752200Y-107086061D01*
X93916161Y-107086061D01*
X94080974Y-106975937D01*
X94225137Y-106831774D01*
X94338405Y-106662256D01*
X94416426Y-106473898D01*
X94456200Y-106273939D01*
X94456200Y-106070061D01*
X94416426Y-105870102D01*
X94338405Y-105681744D01*
X94225137Y-105512226D01*
X94080974Y-105368063D01*
X93911456Y-105254795D01*
X93723098Y-105176774D01*
X93523139Y-105137000D01*
X93319261Y-105137000D01*
X93119302Y-105176774D01*
X92930944Y-105254795D01*
X92761426Y-105368063D01*
X92617263Y-105512226D01*
X92503995Y-105681744D01*
X92425974Y-105870102D01*
X92386200Y-106070061D01*
X73025000Y-106070061D01*
X73025000Y-104444461D01*
X97745600Y-104444461D01*
X97745600Y-104648339D01*
X97785374Y-104848298D01*
X97863395Y-105036656D01*
X97976663Y-105206174D01*
X98120826Y-105350337D01*
X98290344Y-105463605D01*
X98478702Y-105541626D01*
X98678661Y-105581400D01*
X98882539Y-105581400D01*
X99082498Y-105541626D01*
X99270856Y-105463605D01*
X99440374Y-105350337D01*
X99584537Y-105206174D01*
X99697805Y-105036656D01*
X99775826Y-104848298D01*
X99815600Y-104648339D01*
X99815600Y-104444461D01*
X99775826Y-104244502D01*
X99697805Y-104056144D01*
X99584537Y-103886626D01*
X99440374Y-103742463D01*
X99270856Y-103629195D01*
X99082498Y-103551174D01*
X98882539Y-103511400D01*
X98678661Y-103511400D01*
X98478702Y-103551174D01*
X98290344Y-103629195D01*
X98120826Y-103742463D01*
X97976663Y-103886626D01*
X97863395Y-104056144D01*
X97785374Y-104244502D01*
X97745600Y-104444461D01*
X73025000Y-104444461D01*
X73025000Y-102442000D01*
X73157963Y-102442000D01*
X73418780Y-102390120D01*
X73664465Y-102288354D01*
X73885575Y-102140613D01*
X74073613Y-101952575D01*
X74221354Y-101731465D01*
X74295000Y-101553668D01*
X74368646Y-101731465D01*
X74516387Y-101952575D01*
X74704425Y-102140613D01*
X74925535Y-102288354D01*
X75171220Y-102390120D01*
X75432037Y-102442000D01*
X75697963Y-102442000D01*
X75958780Y-102390120D01*
X76204465Y-102288354D01*
X76425575Y-102140613D01*
X76613613Y-101952575D01*
X76761354Y-101731465D01*
X76863120Y-101485780D01*
X76915000Y-101224963D01*
X76915000Y-100959037D01*
X76863120Y-100698220D01*
X76761354Y-100452535D01*
X76613613Y-100231425D01*
X76425575Y-100043387D01*
X76204465Y-99895646D01*
X75958780Y-99793880D01*
X75697963Y-99742000D01*
X75432037Y-99742000D01*
X75171220Y-99793880D01*
X74925535Y-99895646D01*
X74704425Y-100043387D01*
X74516387Y-100231425D01*
X74368646Y-100452535D01*
X74295000Y-100630332D01*
X74221354Y-100452535D01*
X74073613Y-100231425D01*
X73885575Y-100043387D01*
X73664465Y-99895646D01*
X73418780Y-99793880D01*
X73157963Y-99742000D01*
X73025000Y-99742000D01*
X73025000Y-99569760D01*
X111119400Y-99569760D01*
X111119400Y-100034640D01*
X111210094Y-100490587D01*
X111387995Y-100920079D01*
X111646268Y-101306612D01*
X111974988Y-101635332D01*
X112361521Y-101893605D01*
X112791013Y-102071506D01*
X113246960Y-102162200D01*
X113711840Y-102162200D01*
X114167787Y-102071506D01*
X114597279Y-101893605D01*
X114983812Y-101635332D01*
X115312532Y-101306612D01*
X115570805Y-100920079D01*
X115748706Y-100490587D01*
X115839400Y-100034640D01*
X115839400Y-99569760D01*
X115748706Y-99113813D01*
X115570805Y-98684321D01*
X115312532Y-98297788D01*
X114983812Y-97969068D01*
X114597279Y-97710795D01*
X114167787Y-97532894D01*
X113711840Y-97442200D01*
X113246960Y-97442200D01*
X112791013Y-97532894D01*
X112361521Y-97710795D01*
X111974988Y-97969068D01*
X111646268Y-98297788D01*
X111387995Y-98684321D01*
X111210094Y-99113813D01*
X111119400Y-99569760D01*
X73025000Y-99569760D01*
X73025000Y-97332461D01*
X120859600Y-97332461D01*
X120859600Y-97536339D01*
X120899374Y-97736298D01*
X120977395Y-97924656D01*
X121090663Y-98094174D01*
X121234826Y-98238337D01*
X121404344Y-98351605D01*
X121592702Y-98429626D01*
X121792661Y-98469400D01*
X121996539Y-98469400D01*
X122196498Y-98429626D01*
X122384856Y-98351605D01*
X122554374Y-98238337D01*
X122698537Y-98094174D01*
X122811805Y-97924656D01*
X122889826Y-97736298D01*
X122929600Y-97536339D01*
X122929600Y-97332461D01*
X122889826Y-97132502D01*
X122811805Y-96944144D01*
X122698537Y-96774626D01*
X122554374Y-96630463D01*
X122384856Y-96517195D01*
X122196498Y-96439174D01*
X121996539Y-96399400D01*
X121792661Y-96399400D01*
X121592702Y-96439174D01*
X121404344Y-96517195D01*
X121234826Y-96630463D01*
X121090663Y-96774626D01*
X120977395Y-96944144D01*
X120899374Y-97132502D01*
X120859600Y-97332461D01*
X73025000Y-97332461D01*
X73025000Y-96610600D01*
X85839405Y-96610600D01*
X85895830Y-96841821D01*
X86130008Y-96950217D01*
X86380833Y-97010845D01*
X86638665Y-97021374D01*
X86893598Y-96981400D01*
X87135833Y-96892459D01*
X87230570Y-96841821D01*
X87286995Y-96610600D01*
X86563200Y-95886805D01*
X85839405Y-96610600D01*
X73025000Y-96610600D01*
X73025000Y-95782665D01*
X85249026Y-95782665D01*
X85289000Y-96037598D01*
X85377941Y-96279833D01*
X85428579Y-96374570D01*
X85659800Y-96430995D01*
X86383595Y-95707200D01*
X86742805Y-95707200D01*
X87466600Y-96430995D01*
X87697821Y-96374570D01*
X87806217Y-96140392D01*
X87832266Y-96032624D01*
X87843542Y-96089313D01*
X87942293Y-96327718D01*
X88085656Y-96542277D01*
X88268123Y-96724744D01*
X88482682Y-96868107D01*
X88721087Y-96966858D01*
X88974176Y-97017200D01*
X89232224Y-97017200D01*
X89485313Y-96966858D01*
X89723718Y-96868107D01*
X89938277Y-96724744D01*
X90120744Y-96542277D01*
X90264107Y-96327718D01*
X90362858Y-96089313D01*
X90373200Y-96037320D01*
X90383542Y-96089313D01*
X90482293Y-96327718D01*
X90625656Y-96542277D01*
X90808123Y-96724744D01*
X91022682Y-96868107D01*
X91261087Y-96966858D01*
X91514176Y-97017200D01*
X91772224Y-97017200D01*
X92025313Y-96966858D01*
X92263718Y-96868107D01*
X92478277Y-96724744D01*
X92660744Y-96542277D01*
X92804107Y-96327718D01*
X92902858Y-96089313D01*
X92953200Y-95836224D01*
X92953200Y-95578176D01*
X92902858Y-95325087D01*
X92804107Y-95086682D01*
X92660744Y-94872123D01*
X92478277Y-94689656D01*
X92263718Y-94546293D01*
X92025313Y-94447542D01*
X91772224Y-94397200D01*
X91514176Y-94397200D01*
X91261087Y-94447542D01*
X91022682Y-94546293D01*
X90808123Y-94689656D01*
X90625656Y-94872123D01*
X90482293Y-95086682D01*
X90383542Y-95325087D01*
X90373200Y-95377080D01*
X90362858Y-95325087D01*
X90264107Y-95086682D01*
X90120744Y-94872123D01*
X89938277Y-94689656D01*
X89723718Y-94546293D01*
X89485313Y-94447542D01*
X89232224Y-94397200D01*
X88974176Y-94397200D01*
X88721087Y-94447542D01*
X88482682Y-94546293D01*
X88268123Y-94689656D01*
X88085656Y-94872123D01*
X87942293Y-95086682D01*
X87843542Y-95325087D01*
X87834712Y-95369480D01*
X87748459Y-95134567D01*
X87697821Y-95039830D01*
X87466600Y-94983405D01*
X86742805Y-95707200D01*
X86383595Y-95707200D01*
X85659800Y-94983405D01*
X85428579Y-95039830D01*
X85320183Y-95274008D01*
X85259555Y-95524833D01*
X85249026Y-95782665D01*
X73025000Y-95782665D01*
X73025000Y-94803800D01*
X85839405Y-94803800D01*
X86563200Y-95527595D01*
X87286995Y-94803800D01*
X87230570Y-94572579D01*
X86996392Y-94464183D01*
X86745567Y-94403555D01*
X86487735Y-94393026D01*
X86232802Y-94433000D01*
X85990567Y-94521941D01*
X85895830Y-94572579D01*
X85839405Y-94803800D01*
X73025000Y-94803800D01*
X73025000Y-93346618D01*
X73083456Y-93322405D01*
X73252974Y-93209137D01*
X73397137Y-93064974D01*
X73510405Y-92895456D01*
X73588426Y-92707098D01*
X73628200Y-92507139D01*
X73628200Y-92399187D01*
X109418900Y-92399187D01*
X109418900Y-92665213D01*
X109470799Y-92926126D01*
X109572603Y-93171901D01*
X109720399Y-93393093D01*
X109908507Y-93581201D01*
X110129699Y-93728997D01*
X110258142Y-93782200D01*
X110129699Y-93835403D01*
X109908507Y-93983199D01*
X109720399Y-94171307D01*
X109572603Y-94392499D01*
X109470799Y-94638274D01*
X109418900Y-94899187D01*
X109418900Y-95165213D01*
X109470799Y-95426126D01*
X109572603Y-95671901D01*
X109720399Y-95893093D01*
X109908507Y-96081201D01*
X110129699Y-96228997D01*
X110375474Y-96330801D01*
X110636387Y-96382700D01*
X110902413Y-96382700D01*
X111163326Y-96330801D01*
X111409101Y-96228997D01*
X111630293Y-96081201D01*
X111818401Y-95893093D01*
X111966197Y-95671901D01*
X112068001Y-95426126D01*
X112119900Y-95165213D01*
X112119900Y-94899187D01*
X112068001Y-94638274D01*
X111966197Y-94392499D01*
X111818401Y-94171307D01*
X111630293Y-93983199D01*
X111409101Y-93835403D01*
X111280658Y-93782200D01*
X111409101Y-93728997D01*
X111630293Y-93581201D01*
X111818401Y-93393093D01*
X111966197Y-93171901D01*
X112068001Y-92926126D01*
X112119900Y-92665213D01*
X112119900Y-92399187D01*
X112618900Y-92399187D01*
X112618900Y-92665213D01*
X112670799Y-92926126D01*
X112772603Y-93171901D01*
X112920399Y-93393093D01*
X113108507Y-93581201D01*
X113329699Y-93728997D01*
X113458142Y-93782200D01*
X113329699Y-93835403D01*
X113108507Y-93983199D01*
X112920399Y-94171307D01*
X112772603Y-94392499D01*
X112670799Y-94638274D01*
X112618900Y-94899187D01*
X112618900Y-95165213D01*
X112670799Y-95426126D01*
X112772603Y-95671901D01*
X112920399Y-95893093D01*
X113108507Y-96081201D01*
X113329699Y-96228997D01*
X113575474Y-96330801D01*
X113836387Y-96382700D01*
X114102413Y-96382700D01*
X114363326Y-96330801D01*
X114609101Y-96228997D01*
X114830293Y-96081201D01*
X115018401Y-95893093D01*
X115166197Y-95671901D01*
X115268001Y-95426126D01*
X115319900Y-95165213D01*
X115319900Y-94899187D01*
X115298671Y-94792461D01*
X120173800Y-94792461D01*
X120173800Y-94996339D01*
X120213574Y-95196298D01*
X120291595Y-95384656D01*
X120404863Y-95554174D01*
X120549026Y-95698337D01*
X120718544Y-95811605D01*
X120906902Y-95889626D01*
X121106861Y-95929400D01*
X121310739Y-95929400D01*
X121510698Y-95889626D01*
X121699056Y-95811605D01*
X121868574Y-95698337D01*
X122012737Y-95554174D01*
X122126005Y-95384656D01*
X122204026Y-95196298D01*
X122243800Y-94996339D01*
X122243800Y-94792461D01*
X122204026Y-94592502D01*
X122126005Y-94404144D01*
X122012737Y-94234626D01*
X121868574Y-94090463D01*
X121699056Y-93977195D01*
X121510698Y-93899174D01*
X121310739Y-93859400D01*
X121106861Y-93859400D01*
X120906902Y-93899174D01*
X120718544Y-93977195D01*
X120549026Y-94090463D01*
X120404863Y-94234626D01*
X120291595Y-94404144D01*
X120213574Y-94592502D01*
X120173800Y-94792461D01*
X115298671Y-94792461D01*
X115268001Y-94638274D01*
X115166197Y-94392499D01*
X115018401Y-94171307D01*
X114830293Y-93983199D01*
X114609101Y-93835403D01*
X114480658Y-93782200D01*
X114609101Y-93728997D01*
X114830293Y-93581201D01*
X115018401Y-93393093D01*
X115166197Y-93171901D01*
X115268001Y-92926126D01*
X115319900Y-92665213D01*
X115319900Y-92399187D01*
X115268001Y-92138274D01*
X115166197Y-91892499D01*
X115018401Y-91671307D01*
X114830293Y-91483199D01*
X114609101Y-91335403D01*
X114363326Y-91233599D01*
X114102413Y-91181700D01*
X113836387Y-91181700D01*
X113575474Y-91233599D01*
X113329699Y-91335403D01*
X113108507Y-91483199D01*
X112920399Y-91671307D01*
X112772603Y-91892499D01*
X112670799Y-92138274D01*
X112618900Y-92399187D01*
X112119900Y-92399187D01*
X112068001Y-92138274D01*
X111966197Y-91892499D01*
X111818401Y-91671307D01*
X111630293Y-91483199D01*
X111409101Y-91335403D01*
X111163326Y-91233599D01*
X110902413Y-91181700D01*
X110636387Y-91181700D01*
X110375474Y-91233599D01*
X110129699Y-91335403D01*
X109908507Y-91483199D01*
X109720399Y-91671307D01*
X109572603Y-91892499D01*
X109470799Y-92138274D01*
X109418900Y-92399187D01*
X73628200Y-92399187D01*
X73628200Y-92303261D01*
X73588426Y-92103302D01*
X73510405Y-91914944D01*
X73397137Y-91745426D01*
X73252974Y-91601263D01*
X73083456Y-91487995D01*
X73025000Y-91463782D01*
X73025000Y-88391661D01*
X82251600Y-88391661D01*
X82251600Y-88595539D01*
X82291374Y-88795498D01*
X82369395Y-88983856D01*
X82482663Y-89153374D01*
X82626826Y-89297537D01*
X82796344Y-89410805D01*
X82984702Y-89488826D01*
X83184661Y-89528600D01*
X83388539Y-89528600D01*
X83588498Y-89488826D01*
X83776856Y-89410805D01*
X83946374Y-89297537D01*
X84090537Y-89153374D01*
X84203805Y-88983856D01*
X84281826Y-88795498D01*
X84321600Y-88595539D01*
X84321600Y-88391661D01*
X84281826Y-88191702D01*
X84203805Y-88003344D01*
X84090537Y-87833826D01*
X83946374Y-87689663D01*
X83776856Y-87576395D01*
X83664270Y-87529760D01*
X111119400Y-87529760D01*
X111119400Y-87994640D01*
X111210094Y-88450587D01*
X111387995Y-88880079D01*
X111646268Y-89266612D01*
X111974988Y-89595332D01*
X112361521Y-89853605D01*
X112791013Y-90031506D01*
X113246960Y-90122200D01*
X113711840Y-90122200D01*
X114167787Y-90031506D01*
X114597279Y-89853605D01*
X114983812Y-89595332D01*
X115312532Y-89266612D01*
X115570805Y-88880079D01*
X115748706Y-88450587D01*
X115839400Y-87994640D01*
X115839400Y-87529760D01*
X115748706Y-87073813D01*
X115570805Y-86644321D01*
X115312532Y-86257788D01*
X114983812Y-85929068D01*
X114597279Y-85670795D01*
X114167787Y-85492894D01*
X113711840Y-85402200D01*
X113246960Y-85402200D01*
X112791013Y-85492894D01*
X112361521Y-85670795D01*
X111974988Y-85929068D01*
X111646268Y-86257788D01*
X111387995Y-86644321D01*
X111210094Y-87073813D01*
X111119400Y-87529760D01*
X83664270Y-87529760D01*
X83588498Y-87498374D01*
X83388539Y-87458600D01*
X83184661Y-87458600D01*
X82984702Y-87498374D01*
X82796344Y-87576395D01*
X82626826Y-87689663D01*
X82482663Y-87833826D01*
X82369395Y-88003344D01*
X82291374Y-88191702D01*
X82251600Y-88391661D01*
X73025000Y-88391661D01*
X73025000Y-84911861D01*
X73234600Y-84911861D01*
X73234600Y-85115739D01*
X73274374Y-85315698D01*
X73352395Y-85504056D01*
X73465663Y-85673574D01*
X73609826Y-85817737D01*
X73779344Y-85931005D01*
X73967702Y-86009026D01*
X74167661Y-86048800D01*
X74371539Y-86048800D01*
X74571498Y-86009026D01*
X74759856Y-85931005D01*
X74929374Y-85817737D01*
X75073537Y-85673574D01*
X75186805Y-85504056D01*
X75264826Y-85315698D01*
X75304600Y-85115739D01*
X75304600Y-84911861D01*
X75264826Y-84711902D01*
X75186805Y-84523544D01*
X75073537Y-84354026D01*
X74929374Y-84209863D01*
X74759856Y-84096595D01*
X74571498Y-84018574D01*
X74371539Y-83978800D01*
X74167661Y-83978800D01*
X73967702Y-84018574D01*
X73779344Y-84096595D01*
X73609826Y-84209863D01*
X73465663Y-84354026D01*
X73352395Y-84523544D01*
X73274374Y-84711902D01*
X73234600Y-84911861D01*
X73025000Y-84911861D01*
X73025000Y-81863861D01*
X90786000Y-81863861D01*
X90786000Y-82067739D01*
X90825774Y-82267698D01*
X90903795Y-82456056D01*
X91017063Y-82625574D01*
X91161226Y-82769737D01*
X91330744Y-82883005D01*
X91519102Y-82961026D01*
X91719061Y-83000800D01*
X91922939Y-83000800D01*
X92122898Y-82961026D01*
X92311256Y-82883005D01*
X92480774Y-82769737D01*
X92484950Y-82765561D01*
X114700100Y-82765561D01*
X114700100Y-82969439D01*
X114739874Y-83169398D01*
X114817895Y-83357756D01*
X114931163Y-83527274D01*
X115075326Y-83671437D01*
X115244844Y-83784705D01*
X115433202Y-83862726D01*
X115633161Y-83902500D01*
X115837039Y-83902500D01*
X116036998Y-83862726D01*
X116225356Y-83784705D01*
X116394874Y-83671437D01*
X116539037Y-83527274D01*
X116652305Y-83357756D01*
X116730326Y-83169398D01*
X116770100Y-82969439D01*
X116770100Y-82765561D01*
X116730326Y-82565602D01*
X116652305Y-82377244D01*
X116539037Y-82207726D01*
X116394874Y-82063563D01*
X116225356Y-81950295D01*
X116036998Y-81872274D01*
X115837039Y-81832500D01*
X115633161Y-81832500D01*
X115433202Y-81872274D01*
X115244844Y-81950295D01*
X115075326Y-82063563D01*
X114931163Y-82207726D01*
X114817895Y-82377244D01*
X114739874Y-82565602D01*
X114700100Y-82765561D01*
X92484950Y-82765561D01*
X92624937Y-82625574D01*
X92738205Y-82456056D01*
X92816226Y-82267698D01*
X92856000Y-82067739D01*
X92856000Y-81863861D01*
X92816226Y-81663902D01*
X92738205Y-81475544D01*
X92624937Y-81306026D01*
X92480774Y-81161863D01*
X92311256Y-81048595D01*
X92122898Y-80970574D01*
X91922939Y-80930800D01*
X91719061Y-80930800D01*
X91519102Y-80970574D01*
X91330744Y-81048595D01*
X91161226Y-81161863D01*
X91017063Y-81306026D01*
X90903795Y-81475544D01*
X90825774Y-81663902D01*
X90786000Y-81863861D01*
X73025000Y-81863861D01*
X73025000Y-81116317D01*
X73183917Y-81084707D01*
X73372275Y-81006686D01*
X73541793Y-80893418D01*
X73685956Y-80749255D01*
X73799224Y-80579737D01*
X73877245Y-80391379D01*
X73917019Y-80191420D01*
X73917019Y-79987542D01*
X73878474Y-79793761D01*
X120516700Y-79793761D01*
X120516700Y-79997639D01*
X120556474Y-80197598D01*
X120634495Y-80385956D01*
X120747763Y-80555474D01*
X120891926Y-80699637D01*
X121061444Y-80812905D01*
X121249802Y-80890926D01*
X121449761Y-80930700D01*
X121653639Y-80930700D01*
X121853598Y-80890926D01*
X122041956Y-80812905D01*
X122211474Y-80699637D01*
X122355637Y-80555474D01*
X122468905Y-80385956D01*
X122546926Y-80197598D01*
X122586700Y-79997639D01*
X122586700Y-79793761D01*
X122546926Y-79593802D01*
X122468905Y-79405444D01*
X122355637Y-79235926D01*
X122211474Y-79091763D01*
X122041956Y-78978495D01*
X121853598Y-78900474D01*
X121653639Y-78860700D01*
X121449761Y-78860700D01*
X121249802Y-78900474D01*
X121061444Y-78978495D01*
X120891926Y-79091763D01*
X120747763Y-79235926D01*
X120634495Y-79405444D01*
X120556474Y-79593802D01*
X120516700Y-79793761D01*
X73878474Y-79793761D01*
X73877245Y-79787583D01*
X73799224Y-79599225D01*
X73685956Y-79429707D01*
X73541793Y-79285544D01*
X73372275Y-79172276D01*
X73183917Y-79094255D01*
X73025000Y-79062645D01*
X73025000Y-77215661D01*
X76460400Y-77215661D01*
X76460400Y-77419539D01*
X76500174Y-77619498D01*
X76578195Y-77807856D01*
X76691463Y-77977374D01*
X76835626Y-78121537D01*
X77005144Y-78234805D01*
X77193502Y-78312826D01*
X77393461Y-78352600D01*
X77597339Y-78352600D01*
X77797298Y-78312826D01*
X77985656Y-78234805D01*
X78155174Y-78121537D01*
X78299337Y-77977374D01*
X78412605Y-77807856D01*
X78490626Y-77619498D01*
X78530400Y-77419539D01*
X78530400Y-77215661D01*
X78490626Y-77015702D01*
X78412605Y-76827344D01*
X78299337Y-76657826D01*
X78155174Y-76513663D01*
X77985656Y-76400395D01*
X77797298Y-76322374D01*
X77597339Y-76282600D01*
X77393461Y-76282600D01*
X77193502Y-76322374D01*
X77005144Y-76400395D01*
X76835626Y-76513663D01*
X76691463Y-76657826D01*
X76578195Y-76827344D01*
X76500174Y-77015702D01*
X76460400Y-77215661D01*
X73025000Y-77215661D01*
X73025000Y-75157668D01*
X73110063Y-75284974D01*
X73254226Y-75429137D01*
X73423744Y-75542405D01*
X73612102Y-75620426D01*
X73812061Y-75660200D01*
X74015939Y-75660200D01*
X74215898Y-75620426D01*
X74404256Y-75542405D01*
X74573774Y-75429137D01*
X74717937Y-75284974D01*
X74831205Y-75115456D01*
X74909226Y-74927098D01*
X74949000Y-74727139D01*
X74949000Y-74523261D01*
X74909226Y-74323302D01*
X74831205Y-74134944D01*
X74717937Y-73965426D01*
X74573774Y-73821263D01*
X74404256Y-73707995D01*
X74215898Y-73629974D01*
X74015939Y-73590200D01*
X73812061Y-73590200D01*
X73612102Y-73629974D01*
X73423744Y-73707995D01*
X73254226Y-73821263D01*
X73110063Y-73965426D01*
X73025000Y-74092732D01*
X73025000Y-72613413D01*
X93066500Y-72613413D01*
X93066500Y-72869787D01*
X93116516Y-73121233D01*
X93214626Y-73358091D01*
X93357059Y-73571258D01*
X93538342Y-73752541D01*
X93751509Y-73894974D01*
X93988367Y-73993084D01*
X94239813Y-74043100D01*
X94496187Y-74043100D01*
X94747633Y-73993084D01*
X94984491Y-73894974D01*
X95197658Y-73752541D01*
X95378941Y-73571258D01*
X95521374Y-73358091D01*
X95619484Y-73121233D01*
X95663955Y-72897661D01*
X122967800Y-72897661D01*
X122967800Y-73101539D01*
X123007574Y-73301498D01*
X123085595Y-73489856D01*
X123198863Y-73659374D01*
X123343026Y-73803537D01*
X123512544Y-73916805D01*
X123700902Y-73994826D01*
X123900861Y-74034600D01*
X124104739Y-74034600D01*
X124304698Y-73994826D01*
X124493056Y-73916805D01*
X124662574Y-73803537D01*
X124806737Y-73659374D01*
X124920005Y-73489856D01*
X124998026Y-73301498D01*
X125037800Y-73101539D01*
X125037800Y-72897661D01*
X124998026Y-72697702D01*
X124920005Y-72509344D01*
X124806737Y-72339826D01*
X124662574Y-72195663D01*
X124493056Y-72082395D01*
X124304698Y-72004374D01*
X124104739Y-71964600D01*
X123900861Y-71964600D01*
X123700902Y-72004374D01*
X123512544Y-72082395D01*
X123343026Y-72195663D01*
X123198863Y-72339826D01*
X123085595Y-72509344D01*
X123007574Y-72697702D01*
X122967800Y-72897661D01*
X95663955Y-72897661D01*
X95669500Y-72869787D01*
X95669500Y-72613413D01*
X95619484Y-72361967D01*
X95521374Y-72125109D01*
X95378941Y-71911942D01*
X95197658Y-71730659D01*
X94984491Y-71588226D01*
X94747633Y-71490116D01*
X94496187Y-71440100D01*
X94239813Y-71440100D01*
X93988367Y-71490116D01*
X93751509Y-71588226D01*
X93538342Y-71730659D01*
X93357059Y-71911942D01*
X93214626Y-72125109D01*
X93116516Y-72361967D01*
X93066500Y-72613413D01*
X73025000Y-72613413D01*
X73025000Y-69115018D01*
X73083456Y-69090805D01*
X73252974Y-68977537D01*
X73397137Y-68833374D01*
X73510405Y-68663856D01*
X73588426Y-68475498D01*
X73628200Y-68275539D01*
X73628200Y-68169949D01*
X111307500Y-68169949D01*
X111307500Y-68509251D01*
X111373695Y-68842035D01*
X111503541Y-69155509D01*
X111692047Y-69437629D01*
X111931971Y-69677553D01*
X112214091Y-69866059D01*
X112527565Y-69995905D01*
X112860349Y-70062100D01*
X113199651Y-70062100D01*
X113532435Y-69995905D01*
X113845909Y-69866059D01*
X114128029Y-69677553D01*
X114367953Y-69437629D01*
X114556459Y-69155509D01*
X114686305Y-68842035D01*
X114752500Y-68509251D01*
X114752500Y-68169949D01*
X114686305Y-67837165D01*
X114556459Y-67523691D01*
X114367953Y-67241571D01*
X114128029Y-67001647D01*
X113845909Y-66813141D01*
X113572912Y-66700061D01*
X120605600Y-66700061D01*
X120605600Y-66903939D01*
X120645374Y-67103898D01*
X120723395Y-67292256D01*
X120836663Y-67461774D01*
X120980826Y-67605937D01*
X121150344Y-67719205D01*
X121338702Y-67797226D01*
X121538661Y-67837000D01*
X121742539Y-67837000D01*
X121942498Y-67797226D01*
X122130856Y-67719205D01*
X122300374Y-67605937D01*
X122444537Y-67461774D01*
X122557805Y-67292256D01*
X122635826Y-67103898D01*
X122675600Y-66903939D01*
X122675600Y-66700061D01*
X122635826Y-66500102D01*
X122557805Y-66311744D01*
X122444537Y-66142226D01*
X122300374Y-65998063D01*
X122130856Y-65884795D01*
X121942498Y-65806774D01*
X121742539Y-65767000D01*
X121538661Y-65767000D01*
X121338702Y-65806774D01*
X121150344Y-65884795D01*
X120980826Y-65998063D01*
X120836663Y-66142226D01*
X120723395Y-66311744D01*
X120645374Y-66500102D01*
X120605600Y-66700061D01*
X113572912Y-66700061D01*
X113532435Y-66683295D01*
X113199651Y-66617100D01*
X112860349Y-66617100D01*
X112527565Y-66683295D01*
X112214091Y-66813141D01*
X111931971Y-67001647D01*
X111692047Y-67241571D01*
X111503541Y-67523691D01*
X111373695Y-67837165D01*
X111307500Y-68169949D01*
X73628200Y-68169949D01*
X73628200Y-68071661D01*
X73588426Y-67871702D01*
X73510405Y-67683344D01*
X73397137Y-67513826D01*
X73252974Y-67369663D01*
X73083456Y-67256395D01*
X73025000Y-67232182D01*
X73025000Y-66013413D01*
X85566500Y-66013413D01*
X85566500Y-66269787D01*
X85616516Y-66521233D01*
X85714626Y-66758091D01*
X85857059Y-66971258D01*
X86038342Y-67152541D01*
X86251509Y-67294974D01*
X86488367Y-67393084D01*
X86739813Y-67443100D01*
X86996187Y-67443100D01*
X87247633Y-67393084D01*
X87484491Y-67294974D01*
X87697658Y-67152541D01*
X87878941Y-66971258D01*
X88021374Y-66758091D01*
X88119484Y-66521233D01*
X88169500Y-66269787D01*
X88169500Y-66013413D01*
X88119484Y-65761967D01*
X88021374Y-65525109D01*
X87878941Y-65311942D01*
X87697658Y-65130659D01*
X87484491Y-64988226D01*
X87247633Y-64890116D01*
X86996187Y-64840100D01*
X86739813Y-64840100D01*
X86488367Y-64890116D01*
X86251509Y-64988226D01*
X86038342Y-65130659D01*
X85857059Y-65311942D01*
X85714626Y-65525109D01*
X85616516Y-65761967D01*
X85566500Y-66013413D01*
X73025000Y-66013413D01*
X73025000Y-62386722D01*
X84295500Y-62386722D01*
X84295500Y-62696478D01*
X84355930Y-63000281D01*
X84474468Y-63286458D01*
X84646559Y-63544011D01*
X84865589Y-63763041D01*
X85123142Y-63935132D01*
X85409319Y-64053670D01*
X85713122Y-64114100D01*
X86022878Y-64114100D01*
X86326681Y-64053670D01*
X86612858Y-63935132D01*
X86870411Y-63763041D01*
X87089441Y-63544011D01*
X87261532Y-63286458D01*
X87380070Y-63000281D01*
X87440500Y-62696478D01*
X87440500Y-62386722D01*
X92295500Y-62386722D01*
X92295500Y-62696478D01*
X92355930Y-63000281D01*
X92474468Y-63286458D01*
X92646559Y-63544011D01*
X92865589Y-63763041D01*
X93123142Y-63935132D01*
X93380179Y-64041600D01*
X93123142Y-64148068D01*
X92865589Y-64320159D01*
X92646559Y-64539189D01*
X92474468Y-64796742D01*
X92355930Y-65082919D01*
X92295500Y-65386722D01*
X92295500Y-65696478D01*
X92355930Y-66000281D01*
X92474468Y-66286458D01*
X92646559Y-66544011D01*
X92865589Y-66763041D01*
X93123142Y-66935132D01*
X93409319Y-67053670D01*
X93713122Y-67114100D01*
X94022878Y-67114100D01*
X94326681Y-67053670D01*
X94612858Y-66935132D01*
X94793605Y-66814361D01*
X97072500Y-66814361D01*
X97072500Y-67018239D01*
X97112274Y-67218198D01*
X97190295Y-67406556D01*
X97303563Y-67576074D01*
X97447726Y-67720237D01*
X97617244Y-67833505D01*
X97805602Y-67911526D01*
X98005561Y-67951300D01*
X98209439Y-67951300D01*
X98409398Y-67911526D01*
X98597756Y-67833505D01*
X98767274Y-67720237D01*
X98911437Y-67576074D01*
X99024705Y-67406556D01*
X99102726Y-67218198D01*
X99142500Y-67018239D01*
X99142500Y-66852461D01*
X103460600Y-66852461D01*
X103460600Y-67056339D01*
X103500374Y-67256298D01*
X103578395Y-67444656D01*
X103691663Y-67614174D01*
X103835826Y-67758337D01*
X104005344Y-67871605D01*
X104193702Y-67949626D01*
X104393661Y-67989400D01*
X104597539Y-67989400D01*
X104797498Y-67949626D01*
X104985856Y-67871605D01*
X105155374Y-67758337D01*
X105299537Y-67614174D01*
X105412805Y-67444656D01*
X105490826Y-67256298D01*
X105530600Y-67056339D01*
X105530600Y-66852461D01*
X105490826Y-66652502D01*
X105412805Y-66464144D01*
X105299537Y-66294626D01*
X105155374Y-66150463D01*
X104985856Y-66037195D01*
X104797498Y-65959174D01*
X104597539Y-65919400D01*
X104393661Y-65919400D01*
X104193702Y-65959174D01*
X104005344Y-66037195D01*
X103835826Y-66150463D01*
X103691663Y-66294626D01*
X103578395Y-66464144D01*
X103500374Y-66652502D01*
X103460600Y-66852461D01*
X99142500Y-66852461D01*
X99142500Y-66814361D01*
X99102726Y-66614402D01*
X99024705Y-66426044D01*
X98911437Y-66256526D01*
X98767274Y-66112363D01*
X98597756Y-65999095D01*
X98409398Y-65921074D01*
X98209439Y-65881300D01*
X98005561Y-65881300D01*
X97805602Y-65921074D01*
X97617244Y-65999095D01*
X97447726Y-66112363D01*
X97303563Y-66256526D01*
X97190295Y-66426044D01*
X97112274Y-66614402D01*
X97072500Y-66814361D01*
X94793605Y-66814361D01*
X94870411Y-66763041D01*
X95089441Y-66544011D01*
X95261532Y-66286458D01*
X95380070Y-66000281D01*
X95440500Y-65696478D01*
X95440500Y-65386722D01*
X95380070Y-65082919D01*
X95261532Y-64796742D01*
X95089441Y-64539189D01*
X94870411Y-64320159D01*
X94612858Y-64148068D01*
X94355821Y-64041600D01*
X94612858Y-63935132D01*
X94870411Y-63763041D01*
X95089441Y-63544011D01*
X95261532Y-63286458D01*
X95380070Y-63000281D01*
X95440500Y-62696478D01*
X95440500Y-62386722D01*
X95389050Y-62128061D01*
X100692000Y-62128061D01*
X100692000Y-62331939D01*
X100731774Y-62531898D01*
X100809795Y-62720256D01*
X100923063Y-62889774D01*
X101067226Y-63033937D01*
X101236744Y-63147205D01*
X101425102Y-63225226D01*
X101625061Y-63265000D01*
X101828939Y-63265000D01*
X102028898Y-63225226D01*
X102217256Y-63147205D01*
X102386774Y-63033937D01*
X102530937Y-62889774D01*
X102644205Y-62720256D01*
X102722226Y-62531898D01*
X102762000Y-62331939D01*
X102762000Y-62128061D01*
X102722226Y-61928102D01*
X102649324Y-61752100D01*
X111304428Y-61752100D01*
X111304428Y-63927100D01*
X111316688Y-64051582D01*
X111352998Y-64171280D01*
X111411963Y-64281594D01*
X111491315Y-64378285D01*
X111588006Y-64457637D01*
X111698320Y-64516602D01*
X111818018Y-64552912D01*
X111942500Y-64565172D01*
X114117500Y-64565172D01*
X114241982Y-64552912D01*
X114361680Y-64516602D01*
X114471994Y-64457637D01*
X114568685Y-64378285D01*
X114648037Y-64281594D01*
X114707002Y-64171280D01*
X114743312Y-64051582D01*
X114755572Y-63927100D01*
X114755572Y-61752100D01*
X114743312Y-61627618D01*
X114707002Y-61507920D01*
X114648037Y-61397606D01*
X114568685Y-61300915D01*
X114471994Y-61221563D01*
X114361680Y-61162598D01*
X114241982Y-61126288D01*
X114117500Y-61114028D01*
X111942500Y-61114028D01*
X111818018Y-61126288D01*
X111698320Y-61162598D01*
X111588006Y-61221563D01*
X111491315Y-61300915D01*
X111411963Y-61397606D01*
X111352998Y-61507920D01*
X111316688Y-61627618D01*
X111304428Y-61752100D01*
X102649324Y-61752100D01*
X102644205Y-61739744D01*
X102530937Y-61570226D01*
X102386774Y-61426063D01*
X102217256Y-61312795D01*
X102028898Y-61234774D01*
X101828939Y-61195000D01*
X101625061Y-61195000D01*
X101425102Y-61234774D01*
X101236744Y-61312795D01*
X101067226Y-61426063D01*
X100923063Y-61570226D01*
X100809795Y-61739744D01*
X100731774Y-61928102D01*
X100692000Y-62128061D01*
X95389050Y-62128061D01*
X95380070Y-62082919D01*
X95261532Y-61796742D01*
X95089441Y-61539189D01*
X94870411Y-61320159D01*
X94612858Y-61148068D01*
X94326681Y-61029530D01*
X94022878Y-60969100D01*
X93713122Y-60969100D01*
X93409319Y-61029530D01*
X93123142Y-61148068D01*
X92865589Y-61320159D01*
X92646559Y-61539189D01*
X92474468Y-61796742D01*
X92355930Y-62082919D01*
X92295500Y-62386722D01*
X87440500Y-62386722D01*
X87380070Y-62082919D01*
X87261532Y-61796742D01*
X87089441Y-61539189D01*
X86870411Y-61320159D01*
X86612858Y-61148068D01*
X86326681Y-61029530D01*
X86022878Y-60969100D01*
X85713122Y-60969100D01*
X85409319Y-61029530D01*
X85123142Y-61148068D01*
X84865589Y-61320159D01*
X84646559Y-61539189D01*
X84474468Y-61796742D01*
X84355930Y-62082919D01*
X84295500Y-62386722D01*
X73025000Y-62386722D01*
X73025000Y-59143561D01*
X105137000Y-59143561D01*
X105137000Y-59347439D01*
X105176774Y-59547398D01*
X105254795Y-59735756D01*
X105368063Y-59905274D01*
X105512226Y-60049437D01*
X105681744Y-60162705D01*
X105870102Y-60240726D01*
X106070061Y-60280500D01*
X106273939Y-60280500D01*
X106473898Y-60240726D01*
X106662256Y-60162705D01*
X106831774Y-60049437D01*
X106975937Y-59905274D01*
X107089205Y-59735756D01*
X107167226Y-59547398D01*
X107207000Y-59347439D01*
X107207000Y-59143561D01*
X107804000Y-59143561D01*
X107804000Y-59347439D01*
X107843774Y-59547398D01*
X107921795Y-59735756D01*
X108035063Y-59905274D01*
X108179226Y-60049437D01*
X108348744Y-60162705D01*
X108537102Y-60240726D01*
X108737061Y-60280500D01*
X108940939Y-60280500D01*
X109140898Y-60240726D01*
X109329256Y-60162705D01*
X109498774Y-60049437D01*
X109642937Y-59905274D01*
X109756205Y-59735756D01*
X109834226Y-59547398D01*
X109874000Y-59347439D01*
X109874000Y-59143561D01*
X109834226Y-58943602D01*
X109756205Y-58755244D01*
X109642937Y-58585726D01*
X109502272Y-58445061D01*
X117837000Y-58445061D01*
X117837000Y-58648939D01*
X117876774Y-58848898D01*
X117954795Y-59037256D01*
X118068063Y-59206774D01*
X118212226Y-59350937D01*
X118381744Y-59464205D01*
X118570102Y-59542226D01*
X118770061Y-59582000D01*
X118973939Y-59582000D01*
X119173898Y-59542226D01*
X119362256Y-59464205D01*
X119531774Y-59350937D01*
X119675937Y-59206774D01*
X119789205Y-59037256D01*
X119867226Y-58848898D01*
X119907000Y-58648939D01*
X119907000Y-58445061D01*
X119867226Y-58245102D01*
X119789205Y-58056744D01*
X119675937Y-57887226D01*
X119531774Y-57743063D01*
X119362256Y-57629795D01*
X119173898Y-57551774D01*
X118973939Y-57512000D01*
X118770061Y-57512000D01*
X118570102Y-57551774D01*
X118381744Y-57629795D01*
X118212226Y-57743063D01*
X118068063Y-57887226D01*
X117954795Y-58056744D01*
X117876774Y-58245102D01*
X117837000Y-58445061D01*
X109502272Y-58445061D01*
X109498774Y-58441563D01*
X109329256Y-58328295D01*
X109140898Y-58250274D01*
X108940939Y-58210500D01*
X108737061Y-58210500D01*
X108537102Y-58250274D01*
X108348744Y-58328295D01*
X108179226Y-58441563D01*
X108035063Y-58585726D01*
X107921795Y-58755244D01*
X107843774Y-58943602D01*
X107804000Y-59143561D01*
X107207000Y-59143561D01*
X107167226Y-58943602D01*
X107089205Y-58755244D01*
X106975937Y-58585726D01*
X106831774Y-58441563D01*
X106662256Y-58328295D01*
X106473898Y-58250274D01*
X106273939Y-58210500D01*
X106070061Y-58210500D01*
X105870102Y-58250274D01*
X105681744Y-58328295D01*
X105512226Y-58441563D01*
X105368063Y-58585726D01*
X105254795Y-58755244D01*
X105176774Y-58943602D01*
X105137000Y-59143561D01*
X73025000Y-59143561D01*
X73025000Y-57277000D01*
X125095000Y-57277000D01*
X125095000Y-67243289D01*
G04 #@! TD*
M02*
