%FSLAX45Y45*%
G04 Gerber Fmt 4.5, Leading zero omitted, Abs format (unit mm)*
G04 Created by KiCad (PCBNEW (5.1.6-0-10_14)) date 2021-12-22 00:37:46*
%MOMM*%
%LPD*%
G01*
G04 APERTURE LIST*
%TA.AperFunction,Profile*%
%ADD10C,0.100000*%
%TD*%
%ADD11C,0.200000*%
%ADD12C,0.300000*%
G04 APERTURE END LIST*
D10*
X5000000Y-4192000D02*
X5745000Y-4192000D01*
X5000000Y-6431000D02*
X5000000Y-4192000D01*
X5745000Y-6431000D02*
X5000000Y-6431000D01*
X15000000Y-4192000D02*
X14255000Y-4192000D01*
X15000000Y-6431000D02*
X15000000Y-4192000D01*
X14255000Y-6431000D02*
X15000000Y-6431000D01*
X14255000Y-14967000D02*
X14255000Y-6431000D01*
X5744972Y-14966950D02*
X14254972Y-14966950D01*
X5745000Y-14967000D02*
X5745000Y-6431000D01*
X5745000Y-4192000D02*
X14255000Y-4192000D01*
D11*
X5161600Y-6228400D02*
X5201600Y-6268400D01*
X5201600Y-6228400D02*
X5161600Y-6268400D01*
X5306380Y-5562920D02*
X5346380Y-5602920D01*
X5346380Y-5562920D02*
X5306380Y-5602920D01*
X5447350Y-5225100D02*
X5487350Y-5265100D01*
X5487350Y-5225100D02*
X5447350Y-5265100D01*
X5980750Y-6965000D02*
X6020750Y-7005000D01*
X6020750Y-6965000D02*
X5980750Y-7005000D01*
X5980750Y-8321783D02*
X6020750Y-8361783D01*
X6020750Y-8321783D02*
X5980750Y-8361783D01*
X5980750Y-9678567D02*
X6020750Y-9718567D01*
X6020750Y-9678567D02*
X5980750Y-9718567D01*
X5980750Y-11035350D02*
X6020750Y-11075350D01*
X6020750Y-11035350D02*
X5980750Y-11075350D01*
X5980750Y-12140250D02*
X6020750Y-12180250D01*
X6020750Y-12140250D02*
X5980750Y-12180250D01*
X5980750Y-13245150D02*
X6020750Y-13285150D01*
X6020750Y-13245150D02*
X5980750Y-13285150D01*
X5980750Y-14350050D02*
X6020750Y-14390050D01*
X6020750Y-14350050D02*
X5980750Y-14390050D01*
X6310950Y-14781850D02*
X6350950Y-14821850D01*
X6350950Y-14781850D02*
X6310950Y-14821850D01*
X6390960Y-7815900D02*
X6430960Y-7855900D01*
X6430960Y-7815900D02*
X6390960Y-7855900D01*
X6806250Y-6863400D02*
X6846250Y-6903400D01*
X6846250Y-6863400D02*
X6806250Y-6903400D01*
X6909120Y-8870000D02*
X6949120Y-8910000D01*
X6949120Y-8870000D02*
X6909120Y-8910000D01*
X7092000Y-6126800D02*
X7132000Y-6166800D01*
X7132000Y-6126800D02*
X7092000Y-6166800D01*
X7239320Y-6797360D02*
X7279320Y-6837360D01*
X7279320Y-6797360D02*
X7239320Y-6837360D01*
X7239320Y-9220520D02*
X7279320Y-9260520D01*
X7279320Y-9220520D02*
X7239320Y-9260520D01*
X7368860Y-7333300D02*
X7408860Y-7373300D01*
X7408860Y-7333300D02*
X7368860Y-7373300D01*
X7406960Y-8481380D02*
X7446960Y-8521380D01*
X7446960Y-8481380D02*
X7406960Y-8521380D01*
X7588570Y-11636060D02*
X7628570Y-11676060D01*
X7628570Y-11636060D02*
X7588570Y-11676060D01*
X7690170Y-11839260D02*
X7730170Y-11879260D01*
X7730170Y-11839260D02*
X7690170Y-11879260D01*
X7709220Y-12631740D02*
X7749220Y-12671740D01*
X7749220Y-12631740D02*
X7709220Y-12671740D01*
X7714300Y-8138480D02*
X7754300Y-8178480D01*
X7754300Y-8138480D02*
X7714300Y-8178480D01*
X7719380Y-14781850D02*
X7759380Y-14821850D01*
X7759380Y-14781850D02*
X7719380Y-14821850D01*
X7729540Y-7711760D02*
X7769540Y-7751760D01*
X7769540Y-7711760D02*
X7729540Y-7751760D01*
X7765100Y-12540300D02*
X7805100Y-12580300D01*
X7805100Y-12540300D02*
X7765100Y-12580300D01*
X7771450Y-12400600D02*
X7811450Y-12440600D01*
X7811450Y-12400600D02*
X7771450Y-12440600D01*
X7793040Y-9136700D02*
X7833040Y-9176700D01*
X7833040Y-9136700D02*
X7793040Y-9176700D01*
X7869240Y-11044240D02*
X7909240Y-11084240D01*
X7909240Y-11044240D02*
X7869240Y-11084240D01*
X7876860Y-9136700D02*
X7916860Y-9176700D01*
X7916860Y-9136700D02*
X7876860Y-9176700D01*
X8011480Y-11265220D02*
X8051480Y-11305220D01*
X8051480Y-11265220D02*
X8011480Y-11305220D01*
X8014020Y-12014520D02*
X8054020Y-12054520D01*
X8054020Y-12014520D02*
X8014020Y-12054520D01*
X8024180Y-13035600D02*
X8064180Y-13075600D01*
X8064180Y-13035600D02*
X8024180Y-13075600D01*
X8031800Y-13523280D02*
X8071800Y-13563280D01*
X8071800Y-13523280D02*
X8031800Y-13563280D01*
X8044500Y-13279440D02*
X8084500Y-13319440D01*
X8084500Y-13279440D02*
X8044500Y-13319440D01*
X8133400Y-11613200D02*
X8173400Y-11653200D01*
X8173400Y-11613200D02*
X8133400Y-11653200D01*
X8207060Y-11031540D02*
X8247060Y-11071540D01*
X8247060Y-11031540D02*
X8207060Y-11071540D01*
X8280720Y-12860340D02*
X8320720Y-12900340D01*
X8320720Y-12860340D02*
X8280720Y-12900340D01*
X8308660Y-8829360D02*
X8348660Y-8869360D01*
X8348660Y-8829360D02*
X8308660Y-8869360D01*
X8336600Y-11905300D02*
X8376600Y-11945300D01*
X8376600Y-11905300D02*
X8336600Y-11945300D01*
X8349300Y-12578400D02*
X8389300Y-12618400D01*
X8389300Y-12578400D02*
X8349300Y-12618400D01*
X8374700Y-12987340D02*
X8414700Y-13027340D01*
X8414700Y-12987340D02*
X8374700Y-13027340D01*
X8473760Y-14244640D02*
X8513760Y-14284640D01*
X8513760Y-14244640D02*
X8473760Y-14284640D01*
X8489000Y-11562400D02*
X8529000Y-11602400D01*
X8529000Y-11562400D02*
X8489000Y-11602400D01*
X8522020Y-8903020D02*
X8562020Y-8943020D01*
X8562020Y-8903020D02*
X8522020Y-8943020D01*
X8600760Y-11120440D02*
X8640760Y-11160440D01*
X8640760Y-11120440D02*
X8600760Y-11160440D01*
X8692200Y-13327700D02*
X8732200Y-13367700D01*
X8732200Y-13327700D02*
X8692200Y-13367700D01*
X8698550Y-11727500D02*
X8738550Y-11767500D01*
X8738550Y-11727500D02*
X8698550Y-11767500D01*
X8712520Y-11189020D02*
X8752520Y-11229020D01*
X8752520Y-11189020D02*
X8712520Y-11229020D01*
X8765860Y-10228900D02*
X8805860Y-10268900D01*
X8805860Y-10228900D02*
X8765860Y-10268900D01*
X8816660Y-7132640D02*
X8856660Y-7172640D01*
X8856660Y-7132640D02*
X8816660Y-7172640D01*
X8857300Y-4437700D02*
X8897300Y-4477700D01*
X8897300Y-4437700D02*
X8857300Y-4477700D01*
X8857300Y-5574350D02*
X8897300Y-5614350D01*
X8897300Y-5574350D02*
X8857300Y-5614350D01*
X8863650Y-11879900D02*
X8903650Y-11919900D01*
X8903650Y-11879900D02*
X8863650Y-11919900D01*
X8908100Y-13111800D02*
X8948100Y-13151800D01*
X8948100Y-13111800D02*
X8908100Y-13151800D01*
X8974140Y-8306120D02*
X9014140Y-8346120D01*
X9014140Y-8306120D02*
X8974140Y-8346120D01*
X9106220Y-11272840D02*
X9146220Y-11312840D01*
X9146220Y-11272840D02*
X9106220Y-11312840D01*
X9113840Y-8298500D02*
X9153840Y-8338500D01*
X9153840Y-8298500D02*
X9113840Y-8338500D01*
X9113840Y-13111800D02*
X9153840Y-13151800D01*
X9153840Y-13111800D02*
X9113840Y-13151800D01*
X9116380Y-10988360D02*
X9156380Y-11028360D01*
X9156380Y-10988360D02*
X9116380Y-11028360D01*
X9127810Y-14781850D02*
X9167810Y-14821850D01*
X9167810Y-14781850D02*
X9127810Y-14821850D01*
X9339900Y-10460040D02*
X9379900Y-10500040D01*
X9379900Y-10460040D02*
X9339900Y-10500040D01*
X9395780Y-14176060D02*
X9435780Y-14216060D01*
X9435780Y-14176060D02*
X9395780Y-14216060D01*
X9408480Y-12070400D02*
X9448480Y-12110400D01*
X9448480Y-12070400D02*
X9408480Y-12110400D01*
X9431340Y-10734360D02*
X9471340Y-10774360D01*
X9471340Y-10734360D02*
X9431340Y-10774360D01*
X9431340Y-11003600D02*
X9471340Y-11043600D01*
X9471340Y-11003600D02*
X9431340Y-11043600D01*
X9441500Y-11628440D02*
X9481500Y-11668440D01*
X9481500Y-11628440D02*
X9441500Y-11668440D01*
X9530400Y-5574350D02*
X9570400Y-5614350D01*
X9570400Y-5574350D02*
X9530400Y-5614350D01*
X9598980Y-13482640D02*
X9638980Y-13522640D01*
X9638980Y-13482640D02*
X9598980Y-13522640D01*
X9632000Y-14165900D02*
X9672000Y-14205900D01*
X9672000Y-14165900D02*
X9632000Y-14205900D01*
X9667560Y-13817920D02*
X9707560Y-13857920D01*
X9707560Y-13817920D02*
X9667560Y-13857920D01*
X9680150Y-11618000D02*
X9720150Y-11658000D01*
X9720150Y-11618000D02*
X9680150Y-11658000D01*
X9680150Y-12641900D02*
X9720150Y-12681900D01*
X9720150Y-12641900D02*
X9680150Y-12681900D01*
X9689150Y-4437700D02*
X9729150Y-4477700D01*
X9729150Y-4437700D02*
X9689150Y-4477700D01*
X9725980Y-10988360D02*
X9765980Y-11028360D01*
X9765980Y-10988360D02*
X9725980Y-11028360D01*
X9743760Y-11275380D02*
X9783760Y-11315380D01*
X9783760Y-11275380D02*
X9743760Y-11315380D01*
X9746300Y-6749100D02*
X9786300Y-6789100D01*
X9786300Y-6749100D02*
X9746300Y-6789100D01*
X9847900Y-10434640D02*
X9887900Y-10474640D01*
X9887900Y-10434640D02*
X9847900Y-10474640D01*
X9921560Y-13383580D02*
X9961560Y-13423580D01*
X9961560Y-13383580D02*
X9921560Y-13423580D01*
X10018885Y-11616900D02*
X10058885Y-11656900D01*
X10058885Y-11616900D02*
X10018885Y-11656900D01*
X10036822Y-13364838D02*
X10076822Y-13404838D01*
X10076822Y-13364838D02*
X10036822Y-13404838D01*
X10038400Y-9449120D02*
X10078400Y-9489120D01*
X10078400Y-9449120D02*
X10038400Y-9489120D01*
X10071420Y-10997250D02*
X10111420Y-11037250D01*
X10111420Y-10997250D02*
X10071420Y-11037250D01*
X10140000Y-10534970D02*
X10180000Y-10574970D01*
X10180000Y-10534970D02*
X10140000Y-10574970D01*
X10152700Y-6203000D02*
X10192700Y-6243000D01*
X10192700Y-6203000D02*
X10152700Y-6243000D01*
X10165551Y-11635020D02*
X10205551Y-11675020D01*
X10205551Y-11635020D02*
X10165551Y-11675020D01*
X10221280Y-10025700D02*
X10261280Y-10065700D01*
X10261280Y-10025700D02*
X10221280Y-10065700D01*
X10222550Y-12395520D02*
X10262550Y-12435520D01*
X10262550Y-12395520D02*
X10222550Y-12435520D01*
X10254300Y-14318300D02*
X10294300Y-14358300D01*
X10294300Y-14318300D02*
X10254300Y-14358300D01*
X10289860Y-6738940D02*
X10329860Y-6778940D01*
X10329860Y-6738940D02*
X10289860Y-6778940D01*
X10331770Y-10533589D02*
X10371770Y-10573589D01*
X10371770Y-10533589D02*
X10331770Y-10573589D01*
X10359710Y-10989630D02*
X10399710Y-11029630D01*
X10399710Y-10989630D02*
X10359710Y-11029630D01*
X10365550Y-11327450D02*
X10405550Y-11367450D01*
X10405550Y-11327450D02*
X10365550Y-11367450D01*
X10536240Y-14781850D02*
X10576240Y-14821850D01*
X10576240Y-14781850D02*
X10536240Y-14821850D01*
X10540050Y-11829100D02*
X10580050Y-11869100D01*
X10580050Y-11829100D02*
X10540050Y-11869100D01*
X10548940Y-12873040D02*
X10588940Y-12913040D01*
X10588940Y-12873040D02*
X10548940Y-12913040D01*
X10578150Y-4329750D02*
X10618150Y-4369750D01*
X10618150Y-4329750D02*
X10578150Y-4369750D01*
X10584500Y-6114100D02*
X10624500Y-6154100D01*
X10624500Y-6114100D02*
X10584500Y-6154100D01*
X10597200Y-5479100D02*
X10637200Y-5519100D01*
X10637200Y-5479100D02*
X10597200Y-5519100D01*
X10597200Y-5904550D02*
X10637200Y-5944550D01*
X10637200Y-5904550D02*
X10597200Y-5944550D01*
X10721660Y-10992170D02*
X10761660Y-11032170D01*
X10761660Y-10992170D02*
X10721660Y-11032170D01*
X10800400Y-8588060D02*
X10840400Y-8628060D01*
X10840400Y-8588060D02*
X10800400Y-8628060D01*
X10834690Y-10792780D02*
X10874690Y-10832780D01*
X10874690Y-10792780D02*
X10834690Y-10832780D01*
X10863900Y-5904550D02*
X10903900Y-5944550D01*
X10903900Y-5904550D02*
X10863900Y-5944550D01*
X10863900Y-12065320D02*
X10903900Y-12105320D01*
X10903900Y-12065320D02*
X10863900Y-12105320D01*
X10870250Y-5180650D02*
X10910250Y-5220650D01*
X10910250Y-5180650D02*
X10870250Y-5220650D01*
X10971850Y-4602800D02*
X11011850Y-4642800D01*
X11011850Y-4602800D02*
X10971850Y-4642800D01*
X11017570Y-12832400D02*
X11057570Y-12872400D01*
X11057570Y-12832400D02*
X11017570Y-12872400D01*
X11092500Y-11653840D02*
X11132500Y-11693840D01*
X11132500Y-11653840D02*
X11092500Y-11693840D01*
X11186480Y-11854500D02*
X11226480Y-11894500D01*
X11226480Y-11854500D02*
X11186480Y-11894500D01*
X11281730Y-13000040D02*
X11321730Y-13040040D01*
X11321730Y-13000040D02*
X11281730Y-13040040D01*
X11283000Y-12395520D02*
X11323000Y-12435520D01*
X11323000Y-12395520D02*
X11283000Y-12435520D01*
X11432860Y-11242360D02*
X11472860Y-11282360D01*
X11472860Y-11242360D02*
X11432860Y-11282360D01*
X11549700Y-6076000D02*
X11589700Y-6116000D01*
X11589700Y-6076000D02*
X11549700Y-6116000D01*
X11591610Y-12967020D02*
X11631610Y-13007020D01*
X11631610Y-12967020D02*
X11591610Y-13007020D01*
X11867200Y-5834700D02*
X11907200Y-5874700D01*
X11907200Y-5834700D02*
X11867200Y-5874700D01*
X11931970Y-10855010D02*
X11971970Y-10895010D01*
X11971970Y-10855010D02*
X11931970Y-10895010D01*
X11944670Y-14781850D02*
X11984670Y-14821850D01*
X11984670Y-14781850D02*
X11944670Y-14821850D01*
X12102150Y-9600250D02*
X12142150Y-9640250D01*
X12142150Y-9600250D02*
X12102150Y-9640250D01*
X12112310Y-11020110D02*
X12152310Y-11060110D01*
X12152310Y-11020110D02*
X12112310Y-11060110D01*
X12144060Y-6660200D02*
X12184060Y-6700200D01*
X12184060Y-6660200D02*
X12144060Y-6700200D01*
X12207560Y-7930200D02*
X12247560Y-7970200D01*
X12247560Y-7930200D02*
X12207560Y-7970200D01*
X12395520Y-7114860D02*
X12435520Y-7154860D01*
X12435520Y-7114860D02*
X12395520Y-7154860D01*
X12395520Y-7269800D02*
X12435520Y-7309800D01*
X12435520Y-7269800D02*
X12395520Y-7309800D01*
X12410760Y-9860600D02*
X12450760Y-9900600D01*
X12450760Y-9860600D02*
X12410760Y-9900600D01*
X12428540Y-9314500D02*
X12468540Y-9354500D01*
X12468540Y-9314500D02*
X12428540Y-9354500D01*
X12457750Y-7930200D02*
X12497750Y-7970200D01*
X12497750Y-7930200D02*
X12457750Y-7970200D01*
X12464100Y-6088700D02*
X12504100Y-6128700D01*
X12504100Y-6088700D02*
X12464100Y-6128700D01*
X12718100Y-7479350D02*
X12758100Y-7519350D01*
X12758100Y-7479350D02*
X12718100Y-7519350D01*
X12752390Y-10532430D02*
X12792390Y-10572430D01*
X12792390Y-10532430D02*
X12752390Y-10572430D01*
X12883200Y-8285800D02*
X12923200Y-8325800D01*
X12923200Y-8285800D02*
X12883200Y-8325800D01*
X13124500Y-9352600D02*
X13164500Y-9392600D01*
X13164500Y-9352600D02*
X13124500Y-9392600D01*
X13156250Y-6228400D02*
X13196250Y-6268400D01*
X13196250Y-6228400D02*
X13156250Y-6268400D01*
X13353100Y-14781850D02*
X13393100Y-14821850D01*
X13393100Y-14781850D02*
X13353100Y-14821850D01*
X13518200Y-9022400D02*
X13558200Y-9062400D01*
X13558200Y-9022400D02*
X13518200Y-9062400D01*
X13843320Y-5999085D02*
X13883320Y-6039085D01*
X13883320Y-5999085D02*
X13843320Y-6039085D01*
X13988100Y-4329750D02*
X14028100Y-4369750D01*
X14028100Y-4329750D02*
X13988100Y-4369750D01*
X13988100Y-6965000D02*
X14028100Y-7005000D01*
X14028100Y-6965000D02*
X13988100Y-7005000D01*
X13988100Y-8321783D02*
X14028100Y-8361783D01*
X14028100Y-8321783D02*
X13988100Y-8361783D01*
X13988100Y-9678567D02*
X14028100Y-9718567D01*
X14028100Y-9678567D02*
X13988100Y-9718567D01*
X13988100Y-11035350D02*
X14028100Y-11075350D01*
X14028100Y-11035350D02*
X13988100Y-11075350D01*
X14026200Y-12140250D02*
X14066200Y-12180250D01*
X14066200Y-12140250D02*
X14026200Y-12180250D01*
X14026200Y-13245150D02*
X14066200Y-13285150D01*
X14066200Y-13245150D02*
X14026200Y-13285150D01*
X14026200Y-14350050D02*
X14066200Y-14390050D01*
X14066200Y-14350050D02*
X14026200Y-14390050D01*
X14762800Y-4952050D02*
X14802800Y-4992050D01*
X14802800Y-4952050D02*
X14762800Y-4992050D01*
X14762800Y-6228400D02*
X14802800Y-6268400D01*
X14802800Y-6228400D02*
X14762800Y-6268400D01*
X8725690Y-6614160D02*
G75*
G03*
X8725690Y-6614160I-38890J0D01*
G01*
X9475690Y-7274160D02*
G75*
G03*
X9475690Y-7274160I-38890J0D01*
G01*
X8656320Y-9528220D02*
X8656320Y-9613220D01*
X8613820Y-9570720D02*
X8698820Y-9570720D01*
X8910320Y-9528220D02*
X8910320Y-9613220D01*
X8867820Y-9570720D02*
X8952820Y-9570720D01*
X9164320Y-9528220D02*
X9164320Y-9613220D01*
X9121820Y-9570720D02*
X9206820Y-9570720D01*
X5251706Y-4911406D02*
X5251706Y-4850594D01*
X5190894Y-4850594D01*
X5190894Y-4911406D01*
X5251706Y-4911406D01*
X5451706Y-4911406D02*
X5451706Y-4850594D01*
X5390894Y-4850594D01*
X5390894Y-4911406D01*
X5451706Y-4911406D01*
X6794500Y-10153200D02*
X6838500Y-10109200D01*
X6794500Y-10065200D01*
X6750500Y-10109200D01*
X6794500Y-10153200D01*
X7048500Y-10153200D02*
X7092500Y-10109200D01*
X7048500Y-10065200D01*
X7004500Y-10109200D01*
X7048500Y-10153200D01*
X7302500Y-10153200D02*
X7346500Y-10109200D01*
X7302500Y-10065200D01*
X7258500Y-10109200D01*
X7302500Y-10153200D01*
X7556500Y-10153200D02*
X7600500Y-10109200D01*
X7556500Y-10065200D01*
X7512500Y-10109200D01*
X7556500Y-10153200D01*
X12506960Y-10996480D02*
X12550960Y-10952480D01*
X12506960Y-10908480D01*
X12462960Y-10952480D01*
X12506960Y-10996480D01*
X12760960Y-10996480D02*
X12804960Y-10952480D01*
X12760960Y-10908480D01*
X12716960Y-10952480D01*
X12760960Y-10996480D01*
X13014960Y-10996480D02*
X13058960Y-10952480D01*
X13014960Y-10908480D01*
X12970960Y-10952480D01*
X13014960Y-10996480D01*
X13268960Y-10996480D02*
X13312960Y-10952480D01*
X13268960Y-10908480D01*
X13224960Y-10952480D01*
X13268960Y-10996480D01*
X11030940Y-9207220D02*
X11122940Y-9299220D01*
X11122940Y-9207220D02*
X11030940Y-9299220D01*
X11122940Y-9253220D02*
G75*
G03*
X11122940Y-9253220I-46000J0D01*
G01*
X11030940Y-9457220D02*
X11122940Y-9549220D01*
X11122940Y-9457220D02*
X11030940Y-9549220D01*
X11122940Y-9503220D02*
G75*
G03*
X11122940Y-9503220I-46000J0D01*
G01*
X11350940Y-9207220D02*
X11442940Y-9299220D01*
X11442940Y-9207220D02*
X11350940Y-9299220D01*
X11442940Y-9253220D02*
G75*
G03*
X11442940Y-9253220I-46000J0D01*
G01*
X11350940Y-9457220D02*
X11442940Y-9549220D01*
X11442940Y-9457220D02*
X11350940Y-9549220D01*
X11442940Y-9503220D02*
G75*
G03*
X11442940Y-9503220I-46000J0D01*
G01*
X8524300Y-6191660D02*
X8649300Y-6316660D01*
X8649300Y-6191660D02*
X8524300Y-6316660D01*
X8586800Y-6191660D02*
X8586800Y-6316660D01*
X8524300Y-6254160D02*
X8649300Y-6254160D01*
X9324300Y-6191660D02*
X9449300Y-6316660D01*
X9449300Y-6191660D02*
X9324300Y-6316660D01*
X9386800Y-6191660D02*
X9386800Y-6316660D01*
X9324300Y-6254160D02*
X9449300Y-6254160D01*
X9324300Y-6491660D02*
X9449300Y-6616660D01*
X9449300Y-6491660D02*
X9324300Y-6616660D01*
X9386800Y-6491660D02*
X9386800Y-6616660D01*
X9324300Y-6554160D02*
X9449300Y-6554160D01*
X6598500Y-4936500D02*
X6725500Y-5063500D01*
X6725500Y-4936500D02*
X6598500Y-5063500D01*
X6706902Y-5044902D02*
X6706902Y-4955098D01*
X6617098Y-4955098D01*
X6617098Y-5044902D01*
X6706902Y-5044902D01*
X6598500Y-5336500D02*
X6725500Y-5463500D01*
X6725500Y-5336500D02*
X6598500Y-5463500D01*
X6706902Y-5444902D02*
X6706902Y-5355098D01*
X6617098Y-5355098D01*
X6617098Y-5444902D01*
X6706902Y-5444902D01*
X6948500Y-4936500D02*
X7075500Y-5063500D01*
X7075500Y-4936500D02*
X6948500Y-5063500D01*
X7056902Y-5044902D02*
X7056902Y-4955098D01*
X6967098Y-4955098D01*
X6967098Y-5044902D01*
X7056902Y-5044902D01*
X6948500Y-5336500D02*
X7075500Y-5463500D01*
X7075500Y-5336500D02*
X6948500Y-5463500D01*
X7056902Y-5444902D02*
X7056902Y-5355098D01*
X6967098Y-5355098D01*
X6967098Y-5444902D01*
X7056902Y-5444902D01*
X7298500Y-4936500D02*
X7425500Y-5063500D01*
X7425500Y-4936500D02*
X7298500Y-5063500D01*
X7406902Y-5044902D02*
X7406902Y-4955098D01*
X7317098Y-4955098D01*
X7317098Y-5044902D01*
X7406902Y-5044902D01*
X7298500Y-5336500D02*
X7425500Y-5463500D01*
X7425500Y-5336500D02*
X7298500Y-5463500D01*
X7406902Y-5444902D02*
X7406902Y-5355098D01*
X7317098Y-5355098D01*
X7317098Y-5444902D01*
X7406902Y-5444902D01*
X7648500Y-4936500D02*
X7775500Y-5063500D01*
X7775500Y-4936500D02*
X7648500Y-5063500D01*
X7756902Y-5044902D02*
X7756902Y-4955098D01*
X7667098Y-4955098D01*
X7667098Y-5044902D01*
X7756902Y-5044902D01*
X7648500Y-5336500D02*
X7775500Y-5463500D01*
X7775500Y-5336500D02*
X7648500Y-5463500D01*
X7756902Y-5444902D02*
X7756902Y-5355098D01*
X7667098Y-5355098D01*
X7667098Y-5444902D01*
X7756902Y-5444902D01*
X7998500Y-4936500D02*
X8125500Y-5063500D01*
X8125500Y-4936500D02*
X7998500Y-5063500D01*
X8106902Y-5044902D02*
X8106902Y-4955098D01*
X8017098Y-4955098D01*
X8017098Y-5044902D01*
X8106902Y-5044902D01*
X7998500Y-5336500D02*
X8125500Y-5463500D01*
X8125500Y-5336500D02*
X7998500Y-5463500D01*
X8106902Y-5444902D02*
X8106902Y-5355098D01*
X8017098Y-5355098D01*
X8017098Y-5444902D01*
X8106902Y-5444902D01*
X8348500Y-4936500D02*
X8475500Y-5063500D01*
X8475500Y-4936500D02*
X8348500Y-5063500D01*
X8456902Y-5044902D02*
X8456902Y-4955098D01*
X8367098Y-4955098D01*
X8367098Y-5044902D01*
X8456902Y-5044902D01*
X8348500Y-5336500D02*
X8475500Y-5463500D01*
X8475500Y-5336500D02*
X8348500Y-5463500D01*
X8456902Y-5444902D02*
X8456902Y-5355098D01*
X8367098Y-5355098D01*
X8367098Y-5444902D01*
X8456902Y-5444902D01*
X10825500Y-4936500D02*
X10952500Y-5063500D01*
X10952500Y-4936500D02*
X10825500Y-5063500D01*
X10933902Y-5044902D02*
X10933902Y-4955098D01*
X10844098Y-4955098D01*
X10844098Y-5044902D01*
X10933902Y-5044902D01*
X10825500Y-5336500D02*
X10952500Y-5463500D01*
X10952500Y-5336500D02*
X10825500Y-5463500D01*
X10933902Y-5444902D02*
X10933902Y-5355098D01*
X10844098Y-5355098D01*
X10844098Y-5444902D01*
X10933902Y-5444902D01*
X11175500Y-4936500D02*
X11302500Y-5063500D01*
X11302500Y-4936500D02*
X11175500Y-5063500D01*
X11283902Y-5044902D02*
X11283902Y-4955098D01*
X11194098Y-4955098D01*
X11194098Y-5044902D01*
X11283902Y-5044902D01*
X11175500Y-5336500D02*
X11302500Y-5463500D01*
X11302500Y-5336500D02*
X11175500Y-5463500D01*
X11283902Y-5444902D02*
X11283902Y-5355098D01*
X11194098Y-5355098D01*
X11194098Y-5444902D01*
X11283902Y-5444902D01*
X11525500Y-4936500D02*
X11652500Y-5063500D01*
X11652500Y-4936500D02*
X11525500Y-5063500D01*
X11633902Y-5044902D02*
X11633902Y-4955098D01*
X11544098Y-4955098D01*
X11544098Y-5044902D01*
X11633902Y-5044902D01*
X11525500Y-5336500D02*
X11652500Y-5463500D01*
X11652500Y-5336500D02*
X11525500Y-5463500D01*
X11633902Y-5444902D02*
X11633902Y-5355098D01*
X11544098Y-5355098D01*
X11544098Y-5444902D01*
X11633902Y-5444902D01*
X11875500Y-4936500D02*
X12002500Y-5063500D01*
X12002500Y-4936500D02*
X11875500Y-5063500D01*
X11983902Y-5044902D02*
X11983902Y-4955098D01*
X11894098Y-4955098D01*
X11894098Y-5044902D01*
X11983902Y-5044902D01*
X11875500Y-5336500D02*
X12002500Y-5463500D01*
X12002500Y-5336500D02*
X11875500Y-5463500D01*
X11983902Y-5444902D02*
X11983902Y-5355098D01*
X11894098Y-5355098D01*
X11894098Y-5444902D01*
X11983902Y-5444902D01*
X12225500Y-4936500D02*
X12352500Y-5063500D01*
X12352500Y-4936500D02*
X12225500Y-5063500D01*
X12333902Y-5044902D02*
X12333902Y-4955098D01*
X12244098Y-4955098D01*
X12244098Y-5044902D01*
X12333902Y-5044902D01*
X12225500Y-5336500D02*
X12352500Y-5463500D01*
X12352500Y-5336500D02*
X12225500Y-5463500D01*
X12333902Y-5444902D02*
X12333902Y-5355098D01*
X12244098Y-5355098D01*
X12244098Y-5444902D01*
X12333902Y-5444902D01*
X12575500Y-4936500D02*
X12702500Y-5063500D01*
X12702500Y-4936500D02*
X12575500Y-5063500D01*
X12683902Y-5044902D02*
X12683902Y-4955098D01*
X12594098Y-4955098D01*
X12594098Y-5044902D01*
X12683902Y-5044902D01*
X12575500Y-5336500D02*
X12702500Y-5463500D01*
X12702500Y-5336500D02*
X12575500Y-5463500D01*
X12683902Y-5444902D02*
X12683902Y-5355098D01*
X12594098Y-5355098D01*
X12594098Y-5444902D01*
X12683902Y-5444902D01*
X12925500Y-4936500D02*
X13052500Y-5063500D01*
X13052500Y-4936500D02*
X12925500Y-5063500D01*
X13033902Y-5044902D02*
X13033902Y-4955098D01*
X12944098Y-4955098D01*
X12944098Y-5044902D01*
X13033902Y-5044902D01*
X12925500Y-5336500D02*
X13052500Y-5463500D01*
X13052500Y-5336500D02*
X12925500Y-5463500D01*
X13033902Y-5444902D02*
X13033902Y-5355098D01*
X12944098Y-5355098D01*
X12944098Y-5444902D01*
X13033902Y-5444902D01*
X13275500Y-4936500D02*
X13402500Y-5063500D01*
X13402500Y-4936500D02*
X13275500Y-5063500D01*
X13383902Y-5044902D02*
X13383902Y-4955098D01*
X13294098Y-4955098D01*
X13294098Y-5044902D01*
X13383902Y-5044902D01*
X13275500Y-5336500D02*
X13402500Y-5463500D01*
X13402500Y-5336500D02*
X13275500Y-5463500D01*
X13383902Y-5444902D02*
X13383902Y-5355098D01*
X13294098Y-5355098D01*
X13294098Y-5444902D01*
X13383902Y-5444902D01*
X13625500Y-4936500D02*
X13752500Y-5063500D01*
X13752500Y-4936500D02*
X13625500Y-5063500D01*
X13733902Y-5044902D02*
X13733902Y-4955098D01*
X13644098Y-4955098D01*
X13644098Y-5044902D01*
X13733902Y-5044902D01*
X13625500Y-5336500D02*
X13752500Y-5463500D01*
X13752500Y-5336500D02*
X13625500Y-5463500D01*
X13733902Y-5444902D02*
X13733902Y-5355098D01*
X13644098Y-5355098D01*
X13644098Y-5444902D01*
X13733902Y-5444902D01*
X13975500Y-4936500D02*
X14102500Y-5063500D01*
X14102500Y-4936500D02*
X13975500Y-5063500D01*
X14083902Y-5044902D02*
X14083902Y-4955098D01*
X13994098Y-4955098D01*
X13994098Y-5044902D01*
X14083902Y-5044902D01*
X13975500Y-5336500D02*
X14102500Y-5463500D01*
X14102500Y-5336500D02*
X13975500Y-5463500D01*
X14083902Y-5444902D02*
X14083902Y-5355098D01*
X13994098Y-5355098D01*
X13994098Y-5444902D01*
X14083902Y-5444902D01*
X11230500Y-6211460D02*
X11375500Y-6356460D01*
X11375500Y-6211460D02*
X11230500Y-6356460D01*
X11303000Y-6356460D02*
X11375500Y-6283960D01*
X11303000Y-6211460D01*
X11230500Y-6283960D01*
X11303000Y-6356460D01*
X11230500Y-6761460D02*
X11375500Y-6906460D01*
X11375500Y-6761460D02*
X11230500Y-6906460D01*
X11303000Y-6906460D02*
X11375500Y-6833960D01*
X11303000Y-6761460D01*
X11230500Y-6833960D01*
X11303000Y-6906460D01*
X11347940Y-8661220D02*
X11347940Y-8891220D01*
X11232940Y-8776220D02*
X11462940Y-8776220D01*
X11462940Y-8776220D02*
G75*
G03*
X11462940Y-8776220I-115000J0D01*
G01*
X11347940Y-9865220D02*
X11347940Y-10095220D01*
X11232940Y-9980220D02*
X11462940Y-9980220D01*
X11462940Y-9980220D02*
G75*
G03*
X11462940Y-9980220I-115000J0D01*
G01*
X10107835Y-5107835D02*
X10107835Y-4892165D01*
X9892165Y-4892165D01*
X9892165Y-5107835D01*
X10107835Y-5107835D01*
X10152500Y-5000000D02*
G75*
G03*
X10152500Y-5000000I-152500J0D01*
G01*
D12*
X5281428Y-15437714D02*
X5281428Y-15137714D01*
X5352857Y-15137714D01*
X5395714Y-15152000D01*
X5424286Y-15180571D01*
X5438571Y-15209143D01*
X5452857Y-15266286D01*
X5452857Y-15309143D01*
X5438571Y-15366286D01*
X5424286Y-15394857D01*
X5395714Y-15423429D01*
X5352857Y-15437714D01*
X5281428Y-15437714D01*
X5581428Y-15437714D02*
X5581428Y-15237714D01*
X5581428Y-15294857D02*
X5595714Y-15266286D01*
X5610000Y-15252000D01*
X5638571Y-15237714D01*
X5667143Y-15237714D01*
X5767143Y-15437714D02*
X5767143Y-15237714D01*
X5767143Y-15137714D02*
X5752857Y-15152000D01*
X5767143Y-15166286D01*
X5781428Y-15152000D01*
X5767143Y-15137714D01*
X5767143Y-15166286D01*
X5952857Y-15437714D02*
X5924286Y-15423429D01*
X5910000Y-15394857D01*
X5910000Y-15137714D01*
X6110000Y-15437714D02*
X6081428Y-15423429D01*
X6067143Y-15394857D01*
X6067143Y-15137714D01*
X6452857Y-15437714D02*
X6452857Y-15137714D01*
X6552857Y-15352000D01*
X6652857Y-15137714D01*
X6652857Y-15437714D01*
X6924286Y-15437714D02*
X6924286Y-15280571D01*
X6910000Y-15252000D01*
X6881428Y-15237714D01*
X6824286Y-15237714D01*
X6795714Y-15252000D01*
X6924286Y-15423429D02*
X6895714Y-15437714D01*
X6824286Y-15437714D01*
X6795714Y-15423429D01*
X6781428Y-15394857D01*
X6781428Y-15366286D01*
X6795714Y-15337714D01*
X6824286Y-15323429D01*
X6895714Y-15323429D01*
X6924286Y-15309143D01*
X7067143Y-15237714D02*
X7067143Y-15537714D01*
X7067143Y-15252000D02*
X7095714Y-15237714D01*
X7152857Y-15237714D01*
X7181428Y-15252000D01*
X7195714Y-15266286D01*
X7210000Y-15294857D01*
X7210000Y-15380571D01*
X7195714Y-15409143D01*
X7181428Y-15423429D01*
X7152857Y-15437714D01*
X7095714Y-15437714D01*
X7067143Y-15423429D01*
X7338571Y-15409143D02*
X7352857Y-15423429D01*
X7338571Y-15437714D01*
X7324286Y-15423429D01*
X7338571Y-15409143D01*
X7338571Y-15437714D01*
X7338571Y-15252000D02*
X7352857Y-15266286D01*
X7338571Y-15280571D01*
X7324286Y-15266286D01*
X7338571Y-15252000D01*
X7338571Y-15280571D01*
X4955000Y-15912000D02*
X4995000Y-15952000D01*
X4995000Y-15912000D02*
X4955000Y-15952000D01*
X5338571Y-15767714D02*
X5367143Y-15767714D01*
X5395714Y-15782000D01*
X5410000Y-15796286D01*
X5424286Y-15824857D01*
X5438571Y-15882000D01*
X5438571Y-15953429D01*
X5424286Y-16010571D01*
X5410000Y-16039143D01*
X5395714Y-16053429D01*
X5367143Y-16067714D01*
X5338571Y-16067714D01*
X5310000Y-16053429D01*
X5295714Y-16039143D01*
X5281428Y-16010571D01*
X5267143Y-15953429D01*
X5267143Y-15882000D01*
X5281428Y-15824857D01*
X5295714Y-15796286D01*
X5310000Y-15782000D01*
X5338571Y-15767714D01*
X5567143Y-16039143D02*
X5581428Y-16053429D01*
X5567143Y-16067714D01*
X5552857Y-16053429D01*
X5567143Y-16039143D01*
X5567143Y-16067714D01*
X5838571Y-15867714D02*
X5838571Y-16067714D01*
X5767143Y-15753429D02*
X5695714Y-15967714D01*
X5881428Y-15967714D01*
X6052857Y-15767714D02*
X6081428Y-15767714D01*
X6110000Y-15782000D01*
X6124286Y-15796286D01*
X6138571Y-15824857D01*
X6152857Y-15882000D01*
X6152857Y-15953429D01*
X6138571Y-16010571D01*
X6124286Y-16039143D01*
X6110000Y-16053429D01*
X6081428Y-16067714D01*
X6052857Y-16067714D01*
X6024286Y-16053429D01*
X6010000Y-16039143D01*
X5995714Y-16010571D01*
X5981428Y-15953429D01*
X5981428Y-15882000D01*
X5995714Y-15824857D01*
X6010000Y-15796286D01*
X6024286Y-15782000D01*
X6052857Y-15767714D01*
X6281428Y-16067714D02*
X6281428Y-15867714D01*
X6281428Y-15896286D02*
X6295714Y-15882000D01*
X6324286Y-15867714D01*
X6367143Y-15867714D01*
X6395714Y-15882000D01*
X6410000Y-15910571D01*
X6410000Y-16067714D01*
X6410000Y-15910571D02*
X6424286Y-15882000D01*
X6452857Y-15867714D01*
X6495714Y-15867714D01*
X6524286Y-15882000D01*
X6538571Y-15910571D01*
X6538571Y-16067714D01*
X6681428Y-16067714D02*
X6681428Y-15867714D01*
X6681428Y-15896286D02*
X6695714Y-15882000D01*
X6724286Y-15867714D01*
X6767143Y-15867714D01*
X6795714Y-15882000D01*
X6810000Y-15910571D01*
X6810000Y-16067714D01*
X6810000Y-15910571D02*
X6824286Y-15882000D01*
X6852857Y-15867714D01*
X6895714Y-15867714D01*
X6924286Y-15882000D01*
X6938571Y-15910571D01*
X6938571Y-16067714D01*
X7524286Y-15753429D02*
X7267143Y-16139143D01*
X7910000Y-15767714D02*
X7938571Y-15767714D01*
X7967143Y-15782000D01*
X7981428Y-15796286D01*
X7995714Y-15824857D01*
X8010000Y-15882000D01*
X8010000Y-15953429D01*
X7995714Y-16010571D01*
X7981428Y-16039143D01*
X7967143Y-16053429D01*
X7938571Y-16067714D01*
X7910000Y-16067714D01*
X7881428Y-16053429D01*
X7867143Y-16039143D01*
X7852857Y-16010571D01*
X7838571Y-15953429D01*
X7838571Y-15882000D01*
X7852857Y-15824857D01*
X7867143Y-15796286D01*
X7881428Y-15782000D01*
X7910000Y-15767714D01*
X8138571Y-16039143D02*
X8152857Y-16053429D01*
X8138571Y-16067714D01*
X8124286Y-16053429D01*
X8138571Y-16039143D01*
X8138571Y-16067714D01*
X8338571Y-15767714D02*
X8367143Y-15767714D01*
X8395714Y-15782000D01*
X8410000Y-15796286D01*
X8424286Y-15824857D01*
X8438571Y-15882000D01*
X8438571Y-15953429D01*
X8424286Y-16010571D01*
X8410000Y-16039143D01*
X8395714Y-16053429D01*
X8367143Y-16067714D01*
X8338571Y-16067714D01*
X8310000Y-16053429D01*
X8295714Y-16039143D01*
X8281428Y-16010571D01*
X8267143Y-15953429D01*
X8267143Y-15882000D01*
X8281428Y-15824857D01*
X8295714Y-15796286D01*
X8310000Y-15782000D01*
X8338571Y-15767714D01*
X8724286Y-16067714D02*
X8552857Y-16067714D01*
X8638571Y-16067714D02*
X8638571Y-15767714D01*
X8610000Y-15810571D01*
X8581428Y-15839143D01*
X8552857Y-15853429D01*
X8981428Y-15767714D02*
X8924286Y-15767714D01*
X8895714Y-15782000D01*
X8881428Y-15796286D01*
X8852857Y-15839143D01*
X8838571Y-15896286D01*
X8838571Y-16010571D01*
X8852857Y-16039143D01*
X8867143Y-16053429D01*
X8895714Y-16067714D01*
X8952857Y-16067714D01*
X8981428Y-16053429D01*
X8995714Y-16039143D01*
X9010000Y-16010571D01*
X9010000Y-15939143D01*
X8995714Y-15910571D01*
X8981428Y-15896286D01*
X8952857Y-15882000D01*
X8895714Y-15882000D01*
X8867143Y-15896286D01*
X8852857Y-15910571D01*
X8838571Y-15939143D01*
X9124286Y-15767714D02*
X9124286Y-15824857D01*
X9238571Y-15767714D02*
X9238571Y-15824857D01*
X9681428Y-16182000D02*
X9667143Y-16167714D01*
X9638571Y-16124857D01*
X9624286Y-16096286D01*
X9610000Y-16053429D01*
X9595714Y-15982000D01*
X9595714Y-15924857D01*
X9610000Y-15853429D01*
X9624286Y-15810571D01*
X9638571Y-15782000D01*
X9667143Y-15739143D01*
X9681428Y-15724857D01*
X9952857Y-16067714D02*
X9781428Y-16067714D01*
X9867143Y-16067714D02*
X9867143Y-15767714D01*
X9838571Y-15810571D01*
X9810000Y-15839143D01*
X9781428Y-15853429D01*
X10210000Y-15867714D02*
X10210000Y-16067714D01*
X10138571Y-15753429D02*
X10067143Y-15967714D01*
X10252857Y-15967714D01*
X10495714Y-15767714D02*
X10438571Y-15767714D01*
X10410000Y-15782000D01*
X10395714Y-15796286D01*
X10367143Y-15839143D01*
X10352857Y-15896286D01*
X10352857Y-16010571D01*
X10367143Y-16039143D01*
X10381428Y-16053429D01*
X10410000Y-16067714D01*
X10467143Y-16067714D01*
X10495714Y-16053429D01*
X10510000Y-16039143D01*
X10524286Y-16010571D01*
X10524286Y-15939143D01*
X10510000Y-15910571D01*
X10495714Y-15896286D01*
X10467143Y-15882000D01*
X10410000Y-15882000D01*
X10381428Y-15896286D01*
X10367143Y-15910571D01*
X10352857Y-15939143D01*
X10881428Y-16067714D02*
X10881428Y-15767714D01*
X11010000Y-16067714D02*
X11010000Y-15910571D01*
X10995714Y-15882000D01*
X10967143Y-15867714D01*
X10924286Y-15867714D01*
X10895714Y-15882000D01*
X10881428Y-15896286D01*
X11195714Y-16067714D02*
X11167143Y-16053429D01*
X11152857Y-16039143D01*
X11138571Y-16010571D01*
X11138571Y-15924857D01*
X11152857Y-15896286D01*
X11167143Y-15882000D01*
X11195714Y-15867714D01*
X11238571Y-15867714D01*
X11267143Y-15882000D01*
X11281428Y-15896286D01*
X11295714Y-15924857D01*
X11295714Y-16010571D01*
X11281428Y-16039143D01*
X11267143Y-16053429D01*
X11238571Y-16067714D01*
X11195714Y-16067714D01*
X11467143Y-16067714D02*
X11438571Y-16053429D01*
X11424286Y-16024857D01*
X11424286Y-15767714D01*
X11695714Y-16053429D02*
X11667143Y-16067714D01*
X11610000Y-16067714D01*
X11581428Y-16053429D01*
X11567143Y-16024857D01*
X11567143Y-15910571D01*
X11581428Y-15882000D01*
X11610000Y-15867714D01*
X11667143Y-15867714D01*
X11695714Y-15882000D01*
X11710000Y-15910571D01*
X11710000Y-15939143D01*
X11567143Y-15967714D01*
X11824286Y-16053429D02*
X11852857Y-16067714D01*
X11910000Y-16067714D01*
X11938571Y-16053429D01*
X11952857Y-16024857D01*
X11952857Y-16010571D01*
X11938571Y-15982000D01*
X11910000Y-15967714D01*
X11867143Y-15967714D01*
X11838571Y-15953429D01*
X11824286Y-15924857D01*
X11824286Y-15910571D01*
X11838571Y-15882000D01*
X11867143Y-15867714D01*
X11910000Y-15867714D01*
X11938571Y-15882000D01*
X12052857Y-16182000D02*
X12067143Y-16167714D01*
X12095714Y-16124857D01*
X12110000Y-16096286D01*
X12124286Y-16053429D01*
X12138571Y-15982000D01*
X12138571Y-15924857D01*
X12124286Y-15853429D01*
X12110000Y-15810571D01*
X12095714Y-15782000D01*
X12067143Y-15739143D01*
X12052857Y-15724857D01*
X4995000Y-16328000D02*
G75*
G03*
X4995000Y-16328000I-38890J0D01*
G01*
X5338571Y-16163714D02*
X5367143Y-16163714D01*
X5395714Y-16178000D01*
X5410000Y-16192286D01*
X5424286Y-16220857D01*
X5438571Y-16278000D01*
X5438571Y-16349429D01*
X5424286Y-16406571D01*
X5410000Y-16435143D01*
X5395714Y-16449429D01*
X5367143Y-16463714D01*
X5338571Y-16463714D01*
X5310000Y-16449429D01*
X5295714Y-16435143D01*
X5281428Y-16406571D01*
X5267143Y-16349429D01*
X5267143Y-16278000D01*
X5281428Y-16220857D01*
X5295714Y-16192286D01*
X5310000Y-16178000D01*
X5338571Y-16163714D01*
X5567143Y-16435143D02*
X5581428Y-16449429D01*
X5567143Y-16463714D01*
X5552857Y-16449429D01*
X5567143Y-16435143D01*
X5567143Y-16463714D01*
X5681428Y-16163714D02*
X5881428Y-16163714D01*
X5752857Y-16463714D01*
X6038571Y-16292286D02*
X6010000Y-16278000D01*
X5995714Y-16263714D01*
X5981428Y-16235143D01*
X5981428Y-16220857D01*
X5995714Y-16192286D01*
X6010000Y-16178000D01*
X6038571Y-16163714D01*
X6095714Y-16163714D01*
X6124286Y-16178000D01*
X6138571Y-16192286D01*
X6152857Y-16220857D01*
X6152857Y-16235143D01*
X6138571Y-16263714D01*
X6124286Y-16278000D01*
X6095714Y-16292286D01*
X6038571Y-16292286D01*
X6010000Y-16306571D01*
X5995714Y-16320857D01*
X5981428Y-16349429D01*
X5981428Y-16406571D01*
X5995714Y-16435143D01*
X6010000Y-16449429D01*
X6038571Y-16463714D01*
X6095714Y-16463714D01*
X6124286Y-16449429D01*
X6138571Y-16435143D01*
X6152857Y-16406571D01*
X6152857Y-16349429D01*
X6138571Y-16320857D01*
X6124286Y-16306571D01*
X6095714Y-16292286D01*
X6281428Y-16463714D02*
X6281428Y-16263714D01*
X6281428Y-16292286D02*
X6295714Y-16278000D01*
X6324286Y-16263714D01*
X6367143Y-16263714D01*
X6395714Y-16278000D01*
X6410000Y-16306571D01*
X6410000Y-16463714D01*
X6410000Y-16306571D02*
X6424286Y-16278000D01*
X6452857Y-16263714D01*
X6495714Y-16263714D01*
X6524286Y-16278000D01*
X6538571Y-16306571D01*
X6538571Y-16463714D01*
X6681428Y-16463714D02*
X6681428Y-16263714D01*
X6681428Y-16292286D02*
X6695714Y-16278000D01*
X6724286Y-16263714D01*
X6767143Y-16263714D01*
X6795714Y-16278000D01*
X6810000Y-16306571D01*
X6810000Y-16463714D01*
X6810000Y-16306571D02*
X6824286Y-16278000D01*
X6852857Y-16263714D01*
X6895714Y-16263714D01*
X6924286Y-16278000D01*
X6938571Y-16306571D01*
X6938571Y-16463714D01*
X7524286Y-16149429D02*
X7267143Y-16535143D01*
X7910000Y-16163714D02*
X7938571Y-16163714D01*
X7967143Y-16178000D01*
X7981428Y-16192286D01*
X7995714Y-16220857D01*
X8010000Y-16278000D01*
X8010000Y-16349429D01*
X7995714Y-16406571D01*
X7981428Y-16435143D01*
X7967143Y-16449429D01*
X7938571Y-16463714D01*
X7910000Y-16463714D01*
X7881428Y-16449429D01*
X7867143Y-16435143D01*
X7852857Y-16406571D01*
X7838571Y-16349429D01*
X7838571Y-16278000D01*
X7852857Y-16220857D01*
X7867143Y-16192286D01*
X7881428Y-16178000D01*
X7910000Y-16163714D01*
X8138571Y-16435143D02*
X8152857Y-16449429D01*
X8138571Y-16463714D01*
X8124286Y-16449429D01*
X8138571Y-16435143D01*
X8138571Y-16463714D01*
X8338571Y-16163714D02*
X8367143Y-16163714D01*
X8395714Y-16178000D01*
X8410000Y-16192286D01*
X8424286Y-16220857D01*
X8438571Y-16278000D01*
X8438571Y-16349429D01*
X8424286Y-16406571D01*
X8410000Y-16435143D01*
X8395714Y-16449429D01*
X8367143Y-16463714D01*
X8338571Y-16463714D01*
X8310000Y-16449429D01*
X8295714Y-16435143D01*
X8281428Y-16406571D01*
X8267143Y-16349429D01*
X8267143Y-16278000D01*
X8281428Y-16220857D01*
X8295714Y-16192286D01*
X8310000Y-16178000D01*
X8338571Y-16163714D01*
X8538571Y-16163714D02*
X8724286Y-16163714D01*
X8624286Y-16278000D01*
X8667143Y-16278000D01*
X8695714Y-16292286D01*
X8710000Y-16306571D01*
X8724286Y-16335143D01*
X8724286Y-16406571D01*
X8710000Y-16435143D01*
X8695714Y-16449429D01*
X8667143Y-16463714D01*
X8581428Y-16463714D01*
X8552857Y-16449429D01*
X8538571Y-16435143D01*
X9010000Y-16463714D02*
X8838571Y-16463714D01*
X8924286Y-16463714D02*
X8924286Y-16163714D01*
X8895714Y-16206571D01*
X8867143Y-16235143D01*
X8838571Y-16249429D01*
X9124286Y-16163714D02*
X9124286Y-16220857D01*
X9238571Y-16163714D02*
X9238571Y-16220857D01*
X9681428Y-16578000D02*
X9667143Y-16563714D01*
X9638571Y-16520857D01*
X9624286Y-16492286D01*
X9610000Y-16449429D01*
X9595714Y-16378000D01*
X9595714Y-16320857D01*
X9610000Y-16249429D01*
X9624286Y-16206571D01*
X9638571Y-16178000D01*
X9667143Y-16135143D01*
X9681428Y-16120857D01*
X9781428Y-16192286D02*
X9795714Y-16178000D01*
X9824286Y-16163714D01*
X9895714Y-16163714D01*
X9924286Y-16178000D01*
X9938571Y-16192286D01*
X9952857Y-16220857D01*
X9952857Y-16249429D01*
X9938571Y-16292286D01*
X9767143Y-16463714D01*
X9952857Y-16463714D01*
X10310000Y-16463714D02*
X10310000Y-16163714D01*
X10438571Y-16463714D02*
X10438571Y-16306571D01*
X10424286Y-16278000D01*
X10395714Y-16263714D01*
X10352857Y-16263714D01*
X10324286Y-16278000D01*
X10310000Y-16292286D01*
X10624286Y-16463714D02*
X10595714Y-16449429D01*
X10581428Y-16435143D01*
X10567143Y-16406571D01*
X10567143Y-16320857D01*
X10581428Y-16292286D01*
X10595714Y-16278000D01*
X10624286Y-16263714D01*
X10667143Y-16263714D01*
X10695714Y-16278000D01*
X10710000Y-16292286D01*
X10724286Y-16320857D01*
X10724286Y-16406571D01*
X10710000Y-16435143D01*
X10695714Y-16449429D01*
X10667143Y-16463714D01*
X10624286Y-16463714D01*
X10895714Y-16463714D02*
X10867143Y-16449429D01*
X10852857Y-16420857D01*
X10852857Y-16163714D01*
X11124286Y-16449429D02*
X11095714Y-16463714D01*
X11038571Y-16463714D01*
X11010000Y-16449429D01*
X10995714Y-16420857D01*
X10995714Y-16306571D01*
X11010000Y-16278000D01*
X11038571Y-16263714D01*
X11095714Y-16263714D01*
X11124286Y-16278000D01*
X11138571Y-16306571D01*
X11138571Y-16335143D01*
X10995714Y-16363714D01*
X11252857Y-16449429D02*
X11281428Y-16463714D01*
X11338571Y-16463714D01*
X11367143Y-16449429D01*
X11381428Y-16420857D01*
X11381428Y-16406571D01*
X11367143Y-16378000D01*
X11338571Y-16363714D01*
X11295714Y-16363714D01*
X11267143Y-16349429D01*
X11252857Y-16320857D01*
X11252857Y-16306571D01*
X11267143Y-16278000D01*
X11295714Y-16263714D01*
X11338571Y-16263714D01*
X11367143Y-16278000D01*
X11481428Y-16578000D02*
X11495714Y-16563714D01*
X11524286Y-16520857D01*
X11538571Y-16492286D01*
X11552857Y-16449429D01*
X11567143Y-16378000D01*
X11567143Y-16320857D01*
X11552857Y-16249429D01*
X11538571Y-16206571D01*
X11524286Y-16178000D01*
X11495714Y-16135143D01*
X11481428Y-16120857D01*
X4952500Y-16681500D02*
X4952500Y-16766500D01*
X4910000Y-16724000D02*
X4995000Y-16724000D01*
X5338571Y-16559714D02*
X5367143Y-16559714D01*
X5395714Y-16574000D01*
X5410000Y-16588286D01*
X5424286Y-16616857D01*
X5438571Y-16674000D01*
X5438571Y-16745429D01*
X5424286Y-16802572D01*
X5410000Y-16831143D01*
X5395714Y-16845429D01*
X5367143Y-16859714D01*
X5338571Y-16859714D01*
X5310000Y-16845429D01*
X5295714Y-16831143D01*
X5281428Y-16802572D01*
X5267143Y-16745429D01*
X5267143Y-16674000D01*
X5281428Y-16616857D01*
X5295714Y-16588286D01*
X5310000Y-16574000D01*
X5338571Y-16559714D01*
X5567143Y-16831143D02*
X5581428Y-16845429D01*
X5567143Y-16859714D01*
X5552857Y-16845429D01*
X5567143Y-16831143D01*
X5567143Y-16859714D01*
X5752857Y-16688286D02*
X5724286Y-16674000D01*
X5710000Y-16659714D01*
X5695714Y-16631143D01*
X5695714Y-16616857D01*
X5710000Y-16588286D01*
X5724286Y-16574000D01*
X5752857Y-16559714D01*
X5810000Y-16559714D01*
X5838571Y-16574000D01*
X5852857Y-16588286D01*
X5867143Y-16616857D01*
X5867143Y-16631143D01*
X5852857Y-16659714D01*
X5838571Y-16674000D01*
X5810000Y-16688286D01*
X5752857Y-16688286D01*
X5724286Y-16702571D01*
X5710000Y-16716857D01*
X5695714Y-16745429D01*
X5695714Y-16802572D01*
X5710000Y-16831143D01*
X5724286Y-16845429D01*
X5752857Y-16859714D01*
X5810000Y-16859714D01*
X5838571Y-16845429D01*
X5852857Y-16831143D01*
X5867143Y-16802572D01*
X5867143Y-16745429D01*
X5852857Y-16716857D01*
X5838571Y-16702571D01*
X5810000Y-16688286D01*
X6138571Y-16559714D02*
X5995714Y-16559714D01*
X5981428Y-16702571D01*
X5995714Y-16688286D01*
X6024286Y-16674000D01*
X6095714Y-16674000D01*
X6124286Y-16688286D01*
X6138571Y-16702571D01*
X6152857Y-16731143D01*
X6152857Y-16802572D01*
X6138571Y-16831143D01*
X6124286Y-16845429D01*
X6095714Y-16859714D01*
X6024286Y-16859714D01*
X5995714Y-16845429D01*
X5981428Y-16831143D01*
X6281428Y-16859714D02*
X6281428Y-16659714D01*
X6281428Y-16688286D02*
X6295714Y-16674000D01*
X6324286Y-16659714D01*
X6367143Y-16659714D01*
X6395714Y-16674000D01*
X6410000Y-16702571D01*
X6410000Y-16859714D01*
X6410000Y-16702571D02*
X6424286Y-16674000D01*
X6452857Y-16659714D01*
X6495714Y-16659714D01*
X6524286Y-16674000D01*
X6538571Y-16702571D01*
X6538571Y-16859714D01*
X6681428Y-16859714D02*
X6681428Y-16659714D01*
X6681428Y-16688286D02*
X6695714Y-16674000D01*
X6724286Y-16659714D01*
X6767143Y-16659714D01*
X6795714Y-16674000D01*
X6810000Y-16702571D01*
X6810000Y-16859714D01*
X6810000Y-16702571D02*
X6824286Y-16674000D01*
X6852857Y-16659714D01*
X6895714Y-16659714D01*
X6924286Y-16674000D01*
X6938571Y-16702571D01*
X6938571Y-16859714D01*
X7524286Y-16545429D02*
X7267143Y-16931143D01*
X7910000Y-16559714D02*
X7938571Y-16559714D01*
X7967143Y-16574000D01*
X7981428Y-16588286D01*
X7995714Y-16616857D01*
X8010000Y-16674000D01*
X8010000Y-16745429D01*
X7995714Y-16802572D01*
X7981428Y-16831143D01*
X7967143Y-16845429D01*
X7938571Y-16859714D01*
X7910000Y-16859714D01*
X7881428Y-16845429D01*
X7867143Y-16831143D01*
X7852857Y-16802572D01*
X7838571Y-16745429D01*
X7838571Y-16674000D01*
X7852857Y-16616857D01*
X7867143Y-16588286D01*
X7881428Y-16574000D01*
X7910000Y-16559714D01*
X8138571Y-16831143D02*
X8152857Y-16845429D01*
X8138571Y-16859714D01*
X8124286Y-16845429D01*
X8138571Y-16831143D01*
X8138571Y-16859714D01*
X8338571Y-16559714D02*
X8367143Y-16559714D01*
X8395714Y-16574000D01*
X8410000Y-16588286D01*
X8424286Y-16616857D01*
X8438571Y-16674000D01*
X8438571Y-16745429D01*
X8424286Y-16802572D01*
X8410000Y-16831143D01*
X8395714Y-16845429D01*
X8367143Y-16859714D01*
X8338571Y-16859714D01*
X8310000Y-16845429D01*
X8295714Y-16831143D01*
X8281428Y-16802572D01*
X8267143Y-16745429D01*
X8267143Y-16674000D01*
X8281428Y-16616857D01*
X8295714Y-16588286D01*
X8310000Y-16574000D01*
X8338571Y-16559714D01*
X8538571Y-16559714D02*
X8724286Y-16559714D01*
X8624286Y-16674000D01*
X8667143Y-16674000D01*
X8695714Y-16688286D01*
X8710000Y-16702571D01*
X8724286Y-16731143D01*
X8724286Y-16802572D01*
X8710000Y-16831143D01*
X8695714Y-16845429D01*
X8667143Y-16859714D01*
X8581428Y-16859714D01*
X8552857Y-16845429D01*
X8538571Y-16831143D01*
X8824286Y-16559714D02*
X9010000Y-16559714D01*
X8910000Y-16674000D01*
X8952857Y-16674000D01*
X8981428Y-16688286D01*
X8995714Y-16702571D01*
X9010000Y-16731143D01*
X9010000Y-16802572D01*
X8995714Y-16831143D01*
X8981428Y-16845429D01*
X8952857Y-16859714D01*
X8867143Y-16859714D01*
X8838571Y-16845429D01*
X8824286Y-16831143D01*
X9124286Y-16559714D02*
X9124286Y-16616857D01*
X9238571Y-16559714D02*
X9238571Y-16616857D01*
X9681428Y-16974000D02*
X9667143Y-16959714D01*
X9638571Y-16916857D01*
X9624286Y-16888286D01*
X9610000Y-16845429D01*
X9595714Y-16774000D01*
X9595714Y-16716857D01*
X9610000Y-16645429D01*
X9624286Y-16602571D01*
X9638571Y-16574000D01*
X9667143Y-16531143D01*
X9681428Y-16516857D01*
X9767143Y-16559714D02*
X9952857Y-16559714D01*
X9852857Y-16674000D01*
X9895714Y-16674000D01*
X9924286Y-16688286D01*
X9938571Y-16702571D01*
X9952857Y-16731143D01*
X9952857Y-16802572D01*
X9938571Y-16831143D01*
X9924286Y-16845429D01*
X9895714Y-16859714D01*
X9810000Y-16859714D01*
X9781428Y-16845429D01*
X9767143Y-16831143D01*
X10310000Y-16859714D02*
X10310000Y-16559714D01*
X10438571Y-16859714D02*
X10438571Y-16702571D01*
X10424286Y-16674000D01*
X10395714Y-16659714D01*
X10352857Y-16659714D01*
X10324286Y-16674000D01*
X10310000Y-16688286D01*
X10624286Y-16859714D02*
X10595714Y-16845429D01*
X10581428Y-16831143D01*
X10567143Y-16802572D01*
X10567143Y-16716857D01*
X10581428Y-16688286D01*
X10595714Y-16674000D01*
X10624286Y-16659714D01*
X10667143Y-16659714D01*
X10695714Y-16674000D01*
X10710000Y-16688286D01*
X10724286Y-16716857D01*
X10724286Y-16802572D01*
X10710000Y-16831143D01*
X10695714Y-16845429D01*
X10667143Y-16859714D01*
X10624286Y-16859714D01*
X10895714Y-16859714D02*
X10867143Y-16845429D01*
X10852857Y-16816857D01*
X10852857Y-16559714D01*
X11124286Y-16845429D02*
X11095714Y-16859714D01*
X11038571Y-16859714D01*
X11010000Y-16845429D01*
X10995714Y-16816857D01*
X10995714Y-16702571D01*
X11010000Y-16674000D01*
X11038571Y-16659714D01*
X11095714Y-16659714D01*
X11124286Y-16674000D01*
X11138571Y-16702571D01*
X11138571Y-16731143D01*
X10995714Y-16759714D01*
X11252857Y-16845429D02*
X11281428Y-16859714D01*
X11338571Y-16859714D01*
X11367143Y-16845429D01*
X11381428Y-16816857D01*
X11381428Y-16802572D01*
X11367143Y-16774000D01*
X11338571Y-16759714D01*
X11295714Y-16759714D01*
X11267143Y-16745429D01*
X11252857Y-16716857D01*
X11252857Y-16702571D01*
X11267143Y-16674000D01*
X11295714Y-16659714D01*
X11338571Y-16659714D01*
X11367143Y-16674000D01*
X11481428Y-16974000D02*
X11495714Y-16959714D01*
X11524286Y-16916857D01*
X11538571Y-16888286D01*
X11552857Y-16845429D01*
X11567143Y-16774000D01*
X11567143Y-16716857D01*
X11552857Y-16645429D01*
X11538571Y-16602571D01*
X11524286Y-16574000D01*
X11495714Y-16531143D01*
X11481428Y-16516857D01*
X4982406Y-17150406D02*
X4982406Y-17089594D01*
X4921594Y-17089594D01*
X4921594Y-17150406D01*
X4982406Y-17150406D01*
X5338571Y-16955714D02*
X5367143Y-16955714D01*
X5395714Y-16970000D01*
X5410000Y-16984286D01*
X5424286Y-17012857D01*
X5438571Y-17070000D01*
X5438571Y-17141429D01*
X5424286Y-17198572D01*
X5410000Y-17227143D01*
X5395714Y-17241429D01*
X5367143Y-17255714D01*
X5338571Y-17255714D01*
X5310000Y-17241429D01*
X5295714Y-17227143D01*
X5281428Y-17198572D01*
X5267143Y-17141429D01*
X5267143Y-17070000D01*
X5281428Y-17012857D01*
X5295714Y-16984286D01*
X5310000Y-16970000D01*
X5338571Y-16955714D01*
X5567143Y-17227143D02*
X5581428Y-17241429D01*
X5567143Y-17255714D01*
X5552857Y-17241429D01*
X5567143Y-17227143D01*
X5567143Y-17255714D01*
X5752857Y-17084286D02*
X5724286Y-17070000D01*
X5710000Y-17055714D01*
X5695714Y-17027143D01*
X5695714Y-17012857D01*
X5710000Y-16984286D01*
X5724286Y-16970000D01*
X5752857Y-16955714D01*
X5810000Y-16955714D01*
X5838571Y-16970000D01*
X5852857Y-16984286D01*
X5867143Y-17012857D01*
X5867143Y-17027143D01*
X5852857Y-17055714D01*
X5838571Y-17070000D01*
X5810000Y-17084286D01*
X5752857Y-17084286D01*
X5724286Y-17098572D01*
X5710000Y-17112857D01*
X5695714Y-17141429D01*
X5695714Y-17198572D01*
X5710000Y-17227143D01*
X5724286Y-17241429D01*
X5752857Y-17255714D01*
X5810000Y-17255714D01*
X5838571Y-17241429D01*
X5852857Y-17227143D01*
X5867143Y-17198572D01*
X5867143Y-17141429D01*
X5852857Y-17112857D01*
X5838571Y-17098572D01*
X5810000Y-17084286D01*
X6124286Y-16955714D02*
X6067143Y-16955714D01*
X6038571Y-16970000D01*
X6024286Y-16984286D01*
X5995714Y-17027143D01*
X5981428Y-17084286D01*
X5981428Y-17198572D01*
X5995714Y-17227143D01*
X6010000Y-17241429D01*
X6038571Y-17255714D01*
X6095714Y-17255714D01*
X6124286Y-17241429D01*
X6138571Y-17227143D01*
X6152857Y-17198572D01*
X6152857Y-17127143D01*
X6138571Y-17098572D01*
X6124286Y-17084286D01*
X6095714Y-17070000D01*
X6038571Y-17070000D01*
X6010000Y-17084286D01*
X5995714Y-17098572D01*
X5981428Y-17127143D01*
X6281428Y-17255714D02*
X6281428Y-17055714D01*
X6281428Y-17084286D02*
X6295714Y-17070000D01*
X6324286Y-17055714D01*
X6367143Y-17055714D01*
X6395714Y-17070000D01*
X6410000Y-17098572D01*
X6410000Y-17255714D01*
X6410000Y-17098572D02*
X6424286Y-17070000D01*
X6452857Y-17055714D01*
X6495714Y-17055714D01*
X6524286Y-17070000D01*
X6538571Y-17098572D01*
X6538571Y-17255714D01*
X6681428Y-17255714D02*
X6681428Y-17055714D01*
X6681428Y-17084286D02*
X6695714Y-17070000D01*
X6724286Y-17055714D01*
X6767143Y-17055714D01*
X6795714Y-17070000D01*
X6810000Y-17098572D01*
X6810000Y-17255714D01*
X6810000Y-17098572D02*
X6824286Y-17070000D01*
X6852857Y-17055714D01*
X6895714Y-17055714D01*
X6924286Y-17070000D01*
X6938571Y-17098572D01*
X6938571Y-17255714D01*
X7524286Y-16941429D02*
X7267143Y-17327143D01*
X7910000Y-16955714D02*
X7938571Y-16955714D01*
X7967143Y-16970000D01*
X7981428Y-16984286D01*
X7995714Y-17012857D01*
X8010000Y-17070000D01*
X8010000Y-17141429D01*
X7995714Y-17198572D01*
X7981428Y-17227143D01*
X7967143Y-17241429D01*
X7938571Y-17255714D01*
X7910000Y-17255714D01*
X7881428Y-17241429D01*
X7867143Y-17227143D01*
X7852857Y-17198572D01*
X7838571Y-17141429D01*
X7838571Y-17070000D01*
X7852857Y-17012857D01*
X7867143Y-16984286D01*
X7881428Y-16970000D01*
X7910000Y-16955714D01*
X8138571Y-17227143D02*
X8152857Y-17241429D01*
X8138571Y-17255714D01*
X8124286Y-17241429D01*
X8138571Y-17227143D01*
X8138571Y-17255714D01*
X8338571Y-16955714D02*
X8367143Y-16955714D01*
X8395714Y-16970000D01*
X8410000Y-16984286D01*
X8424286Y-17012857D01*
X8438571Y-17070000D01*
X8438571Y-17141429D01*
X8424286Y-17198572D01*
X8410000Y-17227143D01*
X8395714Y-17241429D01*
X8367143Y-17255714D01*
X8338571Y-17255714D01*
X8310000Y-17241429D01*
X8295714Y-17227143D01*
X8281428Y-17198572D01*
X8267143Y-17141429D01*
X8267143Y-17070000D01*
X8281428Y-17012857D01*
X8295714Y-16984286D01*
X8310000Y-16970000D01*
X8338571Y-16955714D01*
X8538571Y-16955714D02*
X8724286Y-16955714D01*
X8624286Y-17070000D01*
X8667143Y-17070000D01*
X8695714Y-17084286D01*
X8710000Y-17098572D01*
X8724286Y-17127143D01*
X8724286Y-17198572D01*
X8710000Y-17227143D01*
X8695714Y-17241429D01*
X8667143Y-17255714D01*
X8581428Y-17255714D01*
X8552857Y-17241429D01*
X8538571Y-17227143D01*
X8981428Y-17055714D02*
X8981428Y-17255714D01*
X8910000Y-16941429D02*
X8838571Y-17155714D01*
X9024286Y-17155714D01*
X9124286Y-16955714D02*
X9124286Y-17012857D01*
X9238571Y-16955714D02*
X9238571Y-17012857D01*
X9681428Y-17370000D02*
X9667143Y-17355714D01*
X9638571Y-17312857D01*
X9624286Y-17284286D01*
X9610000Y-17241429D01*
X9595714Y-17170000D01*
X9595714Y-17112857D01*
X9610000Y-17041429D01*
X9624286Y-16998572D01*
X9638571Y-16970000D01*
X9667143Y-16927143D01*
X9681428Y-16912857D01*
X9781428Y-16984286D02*
X9795714Y-16970000D01*
X9824286Y-16955714D01*
X9895714Y-16955714D01*
X9924286Y-16970000D01*
X9938571Y-16984286D01*
X9952857Y-17012857D01*
X9952857Y-17041429D01*
X9938571Y-17084286D01*
X9767143Y-17255714D01*
X9952857Y-17255714D01*
X10310000Y-17255714D02*
X10310000Y-16955714D01*
X10438571Y-17255714D02*
X10438571Y-17098572D01*
X10424286Y-17070000D01*
X10395714Y-17055714D01*
X10352857Y-17055714D01*
X10324286Y-17070000D01*
X10310000Y-17084286D01*
X10624286Y-17255714D02*
X10595714Y-17241429D01*
X10581428Y-17227143D01*
X10567143Y-17198572D01*
X10567143Y-17112857D01*
X10581428Y-17084286D01*
X10595714Y-17070000D01*
X10624286Y-17055714D01*
X10667143Y-17055714D01*
X10695714Y-17070000D01*
X10710000Y-17084286D01*
X10724286Y-17112857D01*
X10724286Y-17198572D01*
X10710000Y-17227143D01*
X10695714Y-17241429D01*
X10667143Y-17255714D01*
X10624286Y-17255714D01*
X10895714Y-17255714D02*
X10867143Y-17241429D01*
X10852857Y-17212857D01*
X10852857Y-16955714D01*
X11124286Y-17241429D02*
X11095714Y-17255714D01*
X11038571Y-17255714D01*
X11010000Y-17241429D01*
X10995714Y-17212857D01*
X10995714Y-17098572D01*
X11010000Y-17070000D01*
X11038571Y-17055714D01*
X11095714Y-17055714D01*
X11124286Y-17070000D01*
X11138571Y-17098572D01*
X11138571Y-17127143D01*
X10995714Y-17155714D01*
X11252857Y-17241429D02*
X11281428Y-17255714D01*
X11338571Y-17255714D01*
X11367143Y-17241429D01*
X11381428Y-17212857D01*
X11381428Y-17198572D01*
X11367143Y-17170000D01*
X11338571Y-17155714D01*
X11295714Y-17155714D01*
X11267143Y-17141429D01*
X11252857Y-17112857D01*
X11252857Y-17098572D01*
X11267143Y-17070000D01*
X11295714Y-17055714D01*
X11338571Y-17055714D01*
X11367143Y-17070000D01*
X11481428Y-17370000D02*
X11495714Y-17355714D01*
X11524286Y-17312857D01*
X11538571Y-17284286D01*
X11552857Y-17241429D01*
X11567143Y-17170000D01*
X11567143Y-17112857D01*
X11552857Y-17041429D01*
X11538571Y-16998572D01*
X11524286Y-16970000D01*
X11495714Y-16927143D01*
X11481428Y-16912857D01*
X4951000Y-17560000D02*
X4995000Y-17516000D01*
X4951000Y-17472000D01*
X4907000Y-17516000D01*
X4951000Y-17560000D01*
X5338571Y-17351714D02*
X5367143Y-17351714D01*
X5395714Y-17366000D01*
X5410000Y-17380286D01*
X5424286Y-17408857D01*
X5438571Y-17466000D01*
X5438571Y-17537429D01*
X5424286Y-17594572D01*
X5410000Y-17623143D01*
X5395714Y-17637429D01*
X5367143Y-17651714D01*
X5338571Y-17651714D01*
X5310000Y-17637429D01*
X5295714Y-17623143D01*
X5281428Y-17594572D01*
X5267143Y-17537429D01*
X5267143Y-17466000D01*
X5281428Y-17408857D01*
X5295714Y-17380286D01*
X5310000Y-17366000D01*
X5338571Y-17351714D01*
X5567143Y-17623143D02*
X5581428Y-17637429D01*
X5567143Y-17651714D01*
X5552857Y-17637429D01*
X5567143Y-17623143D01*
X5567143Y-17651714D01*
X5752857Y-17480286D02*
X5724286Y-17466000D01*
X5710000Y-17451714D01*
X5695714Y-17423143D01*
X5695714Y-17408857D01*
X5710000Y-17380286D01*
X5724286Y-17366000D01*
X5752857Y-17351714D01*
X5810000Y-17351714D01*
X5838571Y-17366000D01*
X5852857Y-17380286D01*
X5867143Y-17408857D01*
X5867143Y-17423143D01*
X5852857Y-17451714D01*
X5838571Y-17466000D01*
X5810000Y-17480286D01*
X5752857Y-17480286D01*
X5724286Y-17494572D01*
X5710000Y-17508857D01*
X5695714Y-17537429D01*
X5695714Y-17594572D01*
X5710000Y-17623143D01*
X5724286Y-17637429D01*
X5752857Y-17651714D01*
X5810000Y-17651714D01*
X5838571Y-17637429D01*
X5852857Y-17623143D01*
X5867143Y-17594572D01*
X5867143Y-17537429D01*
X5852857Y-17508857D01*
X5838571Y-17494572D01*
X5810000Y-17480286D01*
X6038571Y-17480286D02*
X6010000Y-17466000D01*
X5995714Y-17451714D01*
X5981428Y-17423143D01*
X5981428Y-17408857D01*
X5995714Y-17380286D01*
X6010000Y-17366000D01*
X6038571Y-17351714D01*
X6095714Y-17351714D01*
X6124286Y-17366000D01*
X6138571Y-17380286D01*
X6152857Y-17408857D01*
X6152857Y-17423143D01*
X6138571Y-17451714D01*
X6124286Y-17466000D01*
X6095714Y-17480286D01*
X6038571Y-17480286D01*
X6010000Y-17494572D01*
X5995714Y-17508857D01*
X5981428Y-17537429D01*
X5981428Y-17594572D01*
X5995714Y-17623143D01*
X6010000Y-17637429D01*
X6038571Y-17651714D01*
X6095714Y-17651714D01*
X6124286Y-17637429D01*
X6138571Y-17623143D01*
X6152857Y-17594572D01*
X6152857Y-17537429D01*
X6138571Y-17508857D01*
X6124286Y-17494572D01*
X6095714Y-17480286D01*
X6281428Y-17651714D02*
X6281428Y-17451714D01*
X6281428Y-17480286D02*
X6295714Y-17466000D01*
X6324286Y-17451714D01*
X6367143Y-17451714D01*
X6395714Y-17466000D01*
X6410000Y-17494572D01*
X6410000Y-17651714D01*
X6410000Y-17494572D02*
X6424286Y-17466000D01*
X6452857Y-17451714D01*
X6495714Y-17451714D01*
X6524286Y-17466000D01*
X6538571Y-17494572D01*
X6538571Y-17651714D01*
X6681428Y-17651714D02*
X6681428Y-17451714D01*
X6681428Y-17480286D02*
X6695714Y-17466000D01*
X6724286Y-17451714D01*
X6767143Y-17451714D01*
X6795714Y-17466000D01*
X6810000Y-17494572D01*
X6810000Y-17651714D01*
X6810000Y-17494572D02*
X6824286Y-17466000D01*
X6852857Y-17451714D01*
X6895714Y-17451714D01*
X6924286Y-17466000D01*
X6938571Y-17494572D01*
X6938571Y-17651714D01*
X7524286Y-17337429D02*
X7267143Y-17723143D01*
X7910000Y-17351714D02*
X7938571Y-17351714D01*
X7967143Y-17366000D01*
X7981428Y-17380286D01*
X7995714Y-17408857D01*
X8010000Y-17466000D01*
X8010000Y-17537429D01*
X7995714Y-17594572D01*
X7981428Y-17623143D01*
X7967143Y-17637429D01*
X7938571Y-17651714D01*
X7910000Y-17651714D01*
X7881428Y-17637429D01*
X7867143Y-17623143D01*
X7852857Y-17594572D01*
X7838571Y-17537429D01*
X7838571Y-17466000D01*
X7852857Y-17408857D01*
X7867143Y-17380286D01*
X7881428Y-17366000D01*
X7910000Y-17351714D01*
X8138571Y-17623143D02*
X8152857Y-17637429D01*
X8138571Y-17651714D01*
X8124286Y-17637429D01*
X8138571Y-17623143D01*
X8138571Y-17651714D01*
X8338571Y-17351714D02*
X8367143Y-17351714D01*
X8395714Y-17366000D01*
X8410000Y-17380286D01*
X8424286Y-17408857D01*
X8438571Y-17466000D01*
X8438571Y-17537429D01*
X8424286Y-17594572D01*
X8410000Y-17623143D01*
X8395714Y-17637429D01*
X8367143Y-17651714D01*
X8338571Y-17651714D01*
X8310000Y-17637429D01*
X8295714Y-17623143D01*
X8281428Y-17594572D01*
X8267143Y-17537429D01*
X8267143Y-17466000D01*
X8281428Y-17408857D01*
X8295714Y-17380286D01*
X8310000Y-17366000D01*
X8338571Y-17351714D01*
X8538571Y-17351714D02*
X8724286Y-17351714D01*
X8624286Y-17466000D01*
X8667143Y-17466000D01*
X8695714Y-17480286D01*
X8710000Y-17494572D01*
X8724286Y-17523143D01*
X8724286Y-17594572D01*
X8710000Y-17623143D01*
X8695714Y-17637429D01*
X8667143Y-17651714D01*
X8581428Y-17651714D01*
X8552857Y-17637429D01*
X8538571Y-17623143D01*
X8995714Y-17351714D02*
X8852857Y-17351714D01*
X8838571Y-17494572D01*
X8852857Y-17480286D01*
X8881428Y-17466000D01*
X8952857Y-17466000D01*
X8981428Y-17480286D01*
X8995714Y-17494572D01*
X9010000Y-17523143D01*
X9010000Y-17594572D01*
X8995714Y-17623143D01*
X8981428Y-17637429D01*
X8952857Y-17651714D01*
X8881428Y-17651714D01*
X8852857Y-17637429D01*
X8838571Y-17623143D01*
X9124286Y-17351714D02*
X9124286Y-17408857D01*
X9238571Y-17351714D02*
X9238571Y-17408857D01*
X9681428Y-17766000D02*
X9667143Y-17751714D01*
X9638571Y-17708857D01*
X9624286Y-17680286D01*
X9610000Y-17637429D01*
X9595714Y-17566000D01*
X9595714Y-17508857D01*
X9610000Y-17437429D01*
X9624286Y-17394572D01*
X9638571Y-17366000D01*
X9667143Y-17323143D01*
X9681428Y-17308857D01*
X9838571Y-17480286D02*
X9810000Y-17466000D01*
X9795714Y-17451714D01*
X9781428Y-17423143D01*
X9781428Y-17408857D01*
X9795714Y-17380286D01*
X9810000Y-17366000D01*
X9838571Y-17351714D01*
X9895714Y-17351714D01*
X9924286Y-17366000D01*
X9938571Y-17380286D01*
X9952857Y-17408857D01*
X9952857Y-17423143D01*
X9938571Y-17451714D01*
X9924286Y-17466000D01*
X9895714Y-17480286D01*
X9838571Y-17480286D01*
X9810000Y-17494572D01*
X9795714Y-17508857D01*
X9781428Y-17537429D01*
X9781428Y-17594572D01*
X9795714Y-17623143D01*
X9810000Y-17637429D01*
X9838571Y-17651714D01*
X9895714Y-17651714D01*
X9924286Y-17637429D01*
X9938571Y-17623143D01*
X9952857Y-17594572D01*
X9952857Y-17537429D01*
X9938571Y-17508857D01*
X9924286Y-17494572D01*
X9895714Y-17480286D01*
X10310000Y-17651714D02*
X10310000Y-17351714D01*
X10438571Y-17651714D02*
X10438571Y-17494572D01*
X10424286Y-17466000D01*
X10395714Y-17451714D01*
X10352857Y-17451714D01*
X10324286Y-17466000D01*
X10310000Y-17480286D01*
X10624286Y-17651714D02*
X10595714Y-17637429D01*
X10581428Y-17623143D01*
X10567143Y-17594572D01*
X10567143Y-17508857D01*
X10581428Y-17480286D01*
X10595714Y-17466000D01*
X10624286Y-17451714D01*
X10667143Y-17451714D01*
X10695714Y-17466000D01*
X10710000Y-17480286D01*
X10724286Y-17508857D01*
X10724286Y-17594572D01*
X10710000Y-17623143D01*
X10695714Y-17637429D01*
X10667143Y-17651714D01*
X10624286Y-17651714D01*
X10895714Y-17651714D02*
X10867143Y-17637429D01*
X10852857Y-17608857D01*
X10852857Y-17351714D01*
X11124286Y-17637429D02*
X11095714Y-17651714D01*
X11038571Y-17651714D01*
X11010000Y-17637429D01*
X10995714Y-17608857D01*
X10995714Y-17494572D01*
X11010000Y-17466000D01*
X11038571Y-17451714D01*
X11095714Y-17451714D01*
X11124286Y-17466000D01*
X11138571Y-17494572D01*
X11138571Y-17523143D01*
X10995714Y-17551714D01*
X11252857Y-17637429D02*
X11281428Y-17651714D01*
X11338571Y-17651714D01*
X11367143Y-17637429D01*
X11381428Y-17608857D01*
X11381428Y-17594572D01*
X11367143Y-17566000D01*
X11338571Y-17551714D01*
X11295714Y-17551714D01*
X11267143Y-17537429D01*
X11252857Y-17508857D01*
X11252857Y-17494572D01*
X11267143Y-17466000D01*
X11295714Y-17451714D01*
X11338571Y-17451714D01*
X11367143Y-17466000D01*
X11481428Y-17766000D02*
X11495714Y-17751714D01*
X11524286Y-17708857D01*
X11538571Y-17680286D01*
X11552857Y-17637429D01*
X11567143Y-17566000D01*
X11567143Y-17508857D01*
X11552857Y-17437429D01*
X11538571Y-17394572D01*
X11524286Y-17366000D01*
X11495714Y-17323143D01*
X11481428Y-17308857D01*
X4903000Y-17866000D02*
X4995000Y-17958000D01*
X4995000Y-17866000D02*
X4903000Y-17958000D01*
X4995000Y-17912000D02*
G75*
G03*
X4995000Y-17912000I-46000J0D01*
G01*
X5338571Y-17747714D02*
X5367143Y-17747714D01*
X5395714Y-17762000D01*
X5410000Y-17776286D01*
X5424286Y-17804857D01*
X5438571Y-17862000D01*
X5438571Y-17933429D01*
X5424286Y-17990572D01*
X5410000Y-18019143D01*
X5395714Y-18033429D01*
X5367143Y-18047714D01*
X5338571Y-18047714D01*
X5310000Y-18033429D01*
X5295714Y-18019143D01*
X5281428Y-17990572D01*
X5267143Y-17933429D01*
X5267143Y-17862000D01*
X5281428Y-17804857D01*
X5295714Y-17776286D01*
X5310000Y-17762000D01*
X5338571Y-17747714D01*
X5567143Y-18019143D02*
X5581428Y-18033429D01*
X5567143Y-18047714D01*
X5552857Y-18033429D01*
X5567143Y-18019143D01*
X5567143Y-18047714D01*
X5724286Y-18047714D02*
X5781428Y-18047714D01*
X5810000Y-18033429D01*
X5824286Y-18019143D01*
X5852857Y-17976286D01*
X5867143Y-17919143D01*
X5867143Y-17804857D01*
X5852857Y-17776286D01*
X5838571Y-17762000D01*
X5810000Y-17747714D01*
X5752857Y-17747714D01*
X5724286Y-17762000D01*
X5710000Y-17776286D01*
X5695714Y-17804857D01*
X5695714Y-17876286D01*
X5710000Y-17904857D01*
X5724286Y-17919143D01*
X5752857Y-17933429D01*
X5810000Y-17933429D01*
X5838571Y-17919143D01*
X5852857Y-17904857D01*
X5867143Y-17876286D01*
X5981428Y-17776286D02*
X5995714Y-17762000D01*
X6024286Y-17747714D01*
X6095714Y-17747714D01*
X6124286Y-17762000D01*
X6138571Y-17776286D01*
X6152857Y-17804857D01*
X6152857Y-17833429D01*
X6138571Y-17876286D01*
X5967143Y-18047714D01*
X6152857Y-18047714D01*
X6281428Y-18047714D02*
X6281428Y-17847714D01*
X6281428Y-17876286D02*
X6295714Y-17862000D01*
X6324286Y-17847714D01*
X6367143Y-17847714D01*
X6395714Y-17862000D01*
X6410000Y-17890572D01*
X6410000Y-18047714D01*
X6410000Y-17890572D02*
X6424286Y-17862000D01*
X6452857Y-17847714D01*
X6495714Y-17847714D01*
X6524286Y-17862000D01*
X6538571Y-17890572D01*
X6538571Y-18047714D01*
X6681428Y-18047714D02*
X6681428Y-17847714D01*
X6681428Y-17876286D02*
X6695714Y-17862000D01*
X6724286Y-17847714D01*
X6767143Y-17847714D01*
X6795714Y-17862000D01*
X6810000Y-17890572D01*
X6810000Y-18047714D01*
X6810000Y-17890572D02*
X6824286Y-17862000D01*
X6852857Y-17847714D01*
X6895714Y-17847714D01*
X6924286Y-17862000D01*
X6938571Y-17890572D01*
X6938571Y-18047714D01*
X7524286Y-17733429D02*
X7267143Y-18119143D01*
X7910000Y-17747714D02*
X7938571Y-17747714D01*
X7967143Y-17762000D01*
X7981428Y-17776286D01*
X7995714Y-17804857D01*
X8010000Y-17862000D01*
X8010000Y-17933429D01*
X7995714Y-17990572D01*
X7981428Y-18019143D01*
X7967143Y-18033429D01*
X7938571Y-18047714D01*
X7910000Y-18047714D01*
X7881428Y-18033429D01*
X7867143Y-18019143D01*
X7852857Y-17990572D01*
X7838571Y-17933429D01*
X7838571Y-17862000D01*
X7852857Y-17804857D01*
X7867143Y-17776286D01*
X7881428Y-17762000D01*
X7910000Y-17747714D01*
X8138571Y-18019143D02*
X8152857Y-18033429D01*
X8138571Y-18047714D01*
X8124286Y-18033429D01*
X8138571Y-18019143D01*
X8138571Y-18047714D01*
X8338571Y-17747714D02*
X8367143Y-17747714D01*
X8395714Y-17762000D01*
X8410000Y-17776286D01*
X8424286Y-17804857D01*
X8438571Y-17862000D01*
X8438571Y-17933429D01*
X8424286Y-17990572D01*
X8410000Y-18019143D01*
X8395714Y-18033429D01*
X8367143Y-18047714D01*
X8338571Y-18047714D01*
X8310000Y-18033429D01*
X8295714Y-18019143D01*
X8281428Y-17990572D01*
X8267143Y-17933429D01*
X8267143Y-17862000D01*
X8281428Y-17804857D01*
X8295714Y-17776286D01*
X8310000Y-17762000D01*
X8338571Y-17747714D01*
X8538571Y-17747714D02*
X8724286Y-17747714D01*
X8624286Y-17862000D01*
X8667143Y-17862000D01*
X8695714Y-17876286D01*
X8710000Y-17890572D01*
X8724286Y-17919143D01*
X8724286Y-17990572D01*
X8710000Y-18019143D01*
X8695714Y-18033429D01*
X8667143Y-18047714D01*
X8581428Y-18047714D01*
X8552857Y-18033429D01*
X8538571Y-18019143D01*
X8981428Y-17747714D02*
X8924286Y-17747714D01*
X8895714Y-17762000D01*
X8881428Y-17776286D01*
X8852857Y-17819143D01*
X8838571Y-17876286D01*
X8838571Y-17990572D01*
X8852857Y-18019143D01*
X8867143Y-18033429D01*
X8895714Y-18047714D01*
X8952857Y-18047714D01*
X8981428Y-18033429D01*
X8995714Y-18019143D01*
X9010000Y-17990572D01*
X9010000Y-17919143D01*
X8995714Y-17890572D01*
X8981428Y-17876286D01*
X8952857Y-17862000D01*
X8895714Y-17862000D01*
X8867143Y-17876286D01*
X8852857Y-17890572D01*
X8838571Y-17919143D01*
X9124286Y-17747714D02*
X9124286Y-17804857D01*
X9238571Y-17747714D02*
X9238571Y-17804857D01*
X9681428Y-18162000D02*
X9667143Y-18147714D01*
X9638571Y-18104857D01*
X9624286Y-18076286D01*
X9610000Y-18033429D01*
X9595714Y-17962000D01*
X9595714Y-17904857D01*
X9610000Y-17833429D01*
X9624286Y-17790572D01*
X9638571Y-17762000D01*
X9667143Y-17719143D01*
X9681428Y-17704857D01*
X9924286Y-17847714D02*
X9924286Y-18047714D01*
X9852857Y-17733429D02*
X9781428Y-17947714D01*
X9967143Y-17947714D01*
X10310000Y-18047714D02*
X10310000Y-17747714D01*
X10438571Y-18047714D02*
X10438571Y-17890572D01*
X10424286Y-17862000D01*
X10395714Y-17847714D01*
X10352857Y-17847714D01*
X10324286Y-17862000D01*
X10310000Y-17876286D01*
X10624286Y-18047714D02*
X10595714Y-18033429D01*
X10581428Y-18019143D01*
X10567143Y-17990572D01*
X10567143Y-17904857D01*
X10581428Y-17876286D01*
X10595714Y-17862000D01*
X10624286Y-17847714D01*
X10667143Y-17847714D01*
X10695714Y-17862000D01*
X10710000Y-17876286D01*
X10724286Y-17904857D01*
X10724286Y-17990572D01*
X10710000Y-18019143D01*
X10695714Y-18033429D01*
X10667143Y-18047714D01*
X10624286Y-18047714D01*
X10895714Y-18047714D02*
X10867143Y-18033429D01*
X10852857Y-18004857D01*
X10852857Y-17747714D01*
X11124286Y-18033429D02*
X11095714Y-18047714D01*
X11038571Y-18047714D01*
X11010000Y-18033429D01*
X10995714Y-18004857D01*
X10995714Y-17890572D01*
X11010000Y-17862000D01*
X11038571Y-17847714D01*
X11095714Y-17847714D01*
X11124286Y-17862000D01*
X11138571Y-17890572D01*
X11138571Y-17919143D01*
X10995714Y-17947714D01*
X11252857Y-18033429D02*
X11281428Y-18047714D01*
X11338571Y-18047714D01*
X11367143Y-18033429D01*
X11381428Y-18004857D01*
X11381428Y-17990572D01*
X11367143Y-17962000D01*
X11338571Y-17947714D01*
X11295714Y-17947714D01*
X11267143Y-17933429D01*
X11252857Y-17904857D01*
X11252857Y-17890572D01*
X11267143Y-17862000D01*
X11295714Y-17847714D01*
X11338571Y-17847714D01*
X11367143Y-17862000D01*
X11481428Y-18162000D02*
X11495714Y-18147714D01*
X11524286Y-18104857D01*
X11538571Y-18076286D01*
X11552857Y-18033429D01*
X11567143Y-17962000D01*
X11567143Y-17904857D01*
X11552857Y-17833429D01*
X11538571Y-17790572D01*
X11524286Y-17762000D01*
X11495714Y-17719143D01*
X11481428Y-17704857D01*
X4870000Y-18245500D02*
X4995000Y-18370500D01*
X4995000Y-18245500D02*
X4870000Y-18370500D01*
X4932500Y-18245500D02*
X4932500Y-18370500D01*
X4870000Y-18308000D02*
X4995000Y-18308000D01*
X5438571Y-18443714D02*
X5267143Y-18443714D01*
X5352857Y-18443714D02*
X5352857Y-18143714D01*
X5324286Y-18186572D01*
X5295714Y-18215143D01*
X5267143Y-18229429D01*
X5567143Y-18415143D02*
X5581428Y-18429429D01*
X5567143Y-18443714D01*
X5552857Y-18429429D01*
X5567143Y-18415143D01*
X5567143Y-18443714D01*
X5695714Y-18172286D02*
X5710000Y-18158000D01*
X5738571Y-18143714D01*
X5810000Y-18143714D01*
X5838571Y-18158000D01*
X5852857Y-18172286D01*
X5867143Y-18200857D01*
X5867143Y-18229429D01*
X5852857Y-18272286D01*
X5681428Y-18443714D01*
X5867143Y-18443714D01*
X6138571Y-18143714D02*
X5995714Y-18143714D01*
X5981428Y-18286572D01*
X5995714Y-18272286D01*
X6024286Y-18258000D01*
X6095714Y-18258000D01*
X6124286Y-18272286D01*
X6138571Y-18286572D01*
X6152857Y-18315143D01*
X6152857Y-18386572D01*
X6138571Y-18415143D01*
X6124286Y-18429429D01*
X6095714Y-18443714D01*
X6024286Y-18443714D01*
X5995714Y-18429429D01*
X5981428Y-18415143D01*
X6281428Y-18443714D02*
X6281428Y-18243714D01*
X6281428Y-18272286D02*
X6295714Y-18258000D01*
X6324286Y-18243714D01*
X6367143Y-18243714D01*
X6395714Y-18258000D01*
X6410000Y-18286572D01*
X6410000Y-18443714D01*
X6410000Y-18286572D02*
X6424286Y-18258000D01*
X6452857Y-18243714D01*
X6495714Y-18243714D01*
X6524286Y-18258000D01*
X6538571Y-18286572D01*
X6538571Y-18443714D01*
X6681428Y-18443714D02*
X6681428Y-18243714D01*
X6681428Y-18272286D02*
X6695714Y-18258000D01*
X6724286Y-18243714D01*
X6767143Y-18243714D01*
X6795714Y-18258000D01*
X6810000Y-18286572D01*
X6810000Y-18443714D01*
X6810000Y-18286572D02*
X6824286Y-18258000D01*
X6852857Y-18243714D01*
X6895714Y-18243714D01*
X6924286Y-18258000D01*
X6938571Y-18286572D01*
X6938571Y-18443714D01*
X7524286Y-18129429D02*
X7267143Y-18515143D01*
X7910000Y-18143714D02*
X7938571Y-18143714D01*
X7967143Y-18158000D01*
X7981428Y-18172286D01*
X7995714Y-18200857D01*
X8010000Y-18258000D01*
X8010000Y-18329429D01*
X7995714Y-18386572D01*
X7981428Y-18415143D01*
X7967143Y-18429429D01*
X7938571Y-18443714D01*
X7910000Y-18443714D01*
X7881428Y-18429429D01*
X7867143Y-18415143D01*
X7852857Y-18386572D01*
X7838571Y-18329429D01*
X7838571Y-18258000D01*
X7852857Y-18200857D01*
X7867143Y-18172286D01*
X7881428Y-18158000D01*
X7910000Y-18143714D01*
X8138571Y-18415143D02*
X8152857Y-18429429D01*
X8138571Y-18443714D01*
X8124286Y-18429429D01*
X8138571Y-18415143D01*
X8138571Y-18443714D01*
X8338571Y-18143714D02*
X8367143Y-18143714D01*
X8395714Y-18158000D01*
X8410000Y-18172286D01*
X8424286Y-18200857D01*
X8438571Y-18258000D01*
X8438571Y-18329429D01*
X8424286Y-18386572D01*
X8410000Y-18415143D01*
X8395714Y-18429429D01*
X8367143Y-18443714D01*
X8338571Y-18443714D01*
X8310000Y-18429429D01*
X8295714Y-18415143D01*
X8281428Y-18386572D01*
X8267143Y-18329429D01*
X8267143Y-18258000D01*
X8281428Y-18200857D01*
X8295714Y-18172286D01*
X8310000Y-18158000D01*
X8338571Y-18143714D01*
X8695714Y-18243714D02*
X8695714Y-18443714D01*
X8624286Y-18129429D02*
X8552857Y-18343714D01*
X8738571Y-18343714D01*
X8867143Y-18443714D02*
X8924286Y-18443714D01*
X8952857Y-18429429D01*
X8967143Y-18415143D01*
X8995714Y-18372286D01*
X9010000Y-18315143D01*
X9010000Y-18200857D01*
X8995714Y-18172286D01*
X8981428Y-18158000D01*
X8952857Y-18143714D01*
X8895714Y-18143714D01*
X8867143Y-18158000D01*
X8852857Y-18172286D01*
X8838571Y-18200857D01*
X8838571Y-18272286D01*
X8852857Y-18300857D01*
X8867143Y-18315143D01*
X8895714Y-18329429D01*
X8952857Y-18329429D01*
X8981428Y-18315143D01*
X8995714Y-18300857D01*
X9010000Y-18272286D01*
X9124286Y-18143714D02*
X9124286Y-18200857D01*
X9238571Y-18143714D02*
X9238571Y-18200857D01*
X9681428Y-18558000D02*
X9667143Y-18543714D01*
X9638571Y-18500857D01*
X9624286Y-18472286D01*
X9610000Y-18429429D01*
X9595714Y-18358000D01*
X9595714Y-18300857D01*
X9610000Y-18229429D01*
X9624286Y-18186572D01*
X9638571Y-18158000D01*
X9667143Y-18115143D01*
X9681428Y-18100857D01*
X9767143Y-18143714D02*
X9952857Y-18143714D01*
X9852857Y-18258000D01*
X9895714Y-18258000D01*
X9924286Y-18272286D01*
X9938571Y-18286572D01*
X9952857Y-18315143D01*
X9952857Y-18386572D01*
X9938571Y-18415143D01*
X9924286Y-18429429D01*
X9895714Y-18443714D01*
X9810000Y-18443714D01*
X9781428Y-18429429D01*
X9767143Y-18415143D01*
X10310000Y-18443714D02*
X10310000Y-18143714D01*
X10438571Y-18443714D02*
X10438571Y-18286572D01*
X10424286Y-18258000D01*
X10395714Y-18243714D01*
X10352857Y-18243714D01*
X10324286Y-18258000D01*
X10310000Y-18272286D01*
X10624286Y-18443714D02*
X10595714Y-18429429D01*
X10581428Y-18415143D01*
X10567143Y-18386572D01*
X10567143Y-18300857D01*
X10581428Y-18272286D01*
X10595714Y-18258000D01*
X10624286Y-18243714D01*
X10667143Y-18243714D01*
X10695714Y-18258000D01*
X10710000Y-18272286D01*
X10724286Y-18300857D01*
X10724286Y-18386572D01*
X10710000Y-18415143D01*
X10695714Y-18429429D01*
X10667143Y-18443714D01*
X10624286Y-18443714D01*
X10895714Y-18443714D02*
X10867143Y-18429429D01*
X10852857Y-18400857D01*
X10852857Y-18143714D01*
X11124286Y-18429429D02*
X11095714Y-18443714D01*
X11038571Y-18443714D01*
X11010000Y-18429429D01*
X10995714Y-18400857D01*
X10995714Y-18286572D01*
X11010000Y-18258000D01*
X11038571Y-18243714D01*
X11095714Y-18243714D01*
X11124286Y-18258000D01*
X11138571Y-18286572D01*
X11138571Y-18315143D01*
X10995714Y-18343714D01*
X11252857Y-18429429D02*
X11281428Y-18443714D01*
X11338571Y-18443714D01*
X11367143Y-18429429D01*
X11381428Y-18400857D01*
X11381428Y-18386572D01*
X11367143Y-18358000D01*
X11338571Y-18343714D01*
X11295714Y-18343714D01*
X11267143Y-18329429D01*
X11252857Y-18300857D01*
X11252857Y-18286572D01*
X11267143Y-18258000D01*
X11295714Y-18243714D01*
X11338571Y-18243714D01*
X11367143Y-18258000D01*
X11481428Y-18558000D02*
X11495714Y-18543714D01*
X11524286Y-18500857D01*
X11538571Y-18472286D01*
X11552857Y-18429429D01*
X11567143Y-18358000D01*
X11567143Y-18300857D01*
X11552857Y-18229429D01*
X11538571Y-18186572D01*
X11524286Y-18158000D01*
X11495714Y-18115143D01*
X11481428Y-18100857D01*
X4868000Y-18640500D02*
X4995000Y-18767500D01*
X4995000Y-18640500D02*
X4868000Y-18767500D01*
X4976402Y-18748902D02*
X4976402Y-18659098D01*
X4886598Y-18659098D01*
X4886598Y-18748902D01*
X4976402Y-18748902D01*
X5438571Y-18839714D02*
X5267143Y-18839714D01*
X5352857Y-18839714D02*
X5352857Y-18539714D01*
X5324286Y-18582572D01*
X5295714Y-18611143D01*
X5267143Y-18625429D01*
X5567143Y-18811143D02*
X5581428Y-18825429D01*
X5567143Y-18839714D01*
X5552857Y-18825429D01*
X5567143Y-18811143D01*
X5567143Y-18839714D01*
X5695714Y-18568286D02*
X5710000Y-18554000D01*
X5738571Y-18539714D01*
X5810000Y-18539714D01*
X5838571Y-18554000D01*
X5852857Y-18568286D01*
X5867143Y-18596857D01*
X5867143Y-18625429D01*
X5852857Y-18668286D01*
X5681428Y-18839714D01*
X5867143Y-18839714D01*
X5967143Y-18539714D02*
X6167143Y-18539714D01*
X6038571Y-18839714D01*
X6281428Y-18839714D02*
X6281428Y-18639714D01*
X6281428Y-18668286D02*
X6295714Y-18654000D01*
X6324286Y-18639714D01*
X6367143Y-18639714D01*
X6395714Y-18654000D01*
X6410000Y-18682572D01*
X6410000Y-18839714D01*
X6410000Y-18682572D02*
X6424286Y-18654000D01*
X6452857Y-18639714D01*
X6495714Y-18639714D01*
X6524286Y-18654000D01*
X6538571Y-18682572D01*
X6538571Y-18839714D01*
X6681428Y-18839714D02*
X6681428Y-18639714D01*
X6681428Y-18668286D02*
X6695714Y-18654000D01*
X6724286Y-18639714D01*
X6767143Y-18639714D01*
X6795714Y-18654000D01*
X6810000Y-18682572D01*
X6810000Y-18839714D01*
X6810000Y-18682572D02*
X6824286Y-18654000D01*
X6852857Y-18639714D01*
X6895714Y-18639714D01*
X6924286Y-18654000D01*
X6938571Y-18682572D01*
X6938571Y-18839714D01*
X7524286Y-18525429D02*
X7267143Y-18911143D01*
X7910000Y-18539714D02*
X7938571Y-18539714D01*
X7967143Y-18554000D01*
X7981428Y-18568286D01*
X7995714Y-18596857D01*
X8010000Y-18654000D01*
X8010000Y-18725429D01*
X7995714Y-18782572D01*
X7981428Y-18811143D01*
X7967143Y-18825429D01*
X7938571Y-18839714D01*
X7910000Y-18839714D01*
X7881428Y-18825429D01*
X7867143Y-18811143D01*
X7852857Y-18782572D01*
X7838571Y-18725429D01*
X7838571Y-18654000D01*
X7852857Y-18596857D01*
X7867143Y-18568286D01*
X7881428Y-18554000D01*
X7910000Y-18539714D01*
X8138571Y-18811143D02*
X8152857Y-18825429D01*
X8138571Y-18839714D01*
X8124286Y-18825429D01*
X8138571Y-18811143D01*
X8138571Y-18839714D01*
X8338571Y-18539714D02*
X8367143Y-18539714D01*
X8395714Y-18554000D01*
X8410000Y-18568286D01*
X8424286Y-18596857D01*
X8438571Y-18654000D01*
X8438571Y-18725429D01*
X8424286Y-18782572D01*
X8410000Y-18811143D01*
X8395714Y-18825429D01*
X8367143Y-18839714D01*
X8338571Y-18839714D01*
X8310000Y-18825429D01*
X8295714Y-18811143D01*
X8281428Y-18782572D01*
X8267143Y-18725429D01*
X8267143Y-18654000D01*
X8281428Y-18596857D01*
X8295714Y-18568286D01*
X8310000Y-18554000D01*
X8338571Y-18539714D01*
X8710000Y-18539714D02*
X8567143Y-18539714D01*
X8552857Y-18682572D01*
X8567143Y-18668286D01*
X8595714Y-18654000D01*
X8667143Y-18654000D01*
X8695714Y-18668286D01*
X8710000Y-18682572D01*
X8724286Y-18711143D01*
X8724286Y-18782572D01*
X8710000Y-18811143D01*
X8695714Y-18825429D01*
X8667143Y-18839714D01*
X8595714Y-18839714D01*
X8567143Y-18825429D01*
X8552857Y-18811143D01*
X8910000Y-18539714D02*
X8938571Y-18539714D01*
X8967143Y-18554000D01*
X8981428Y-18568286D01*
X8995714Y-18596857D01*
X9010000Y-18654000D01*
X9010000Y-18725429D01*
X8995714Y-18782572D01*
X8981428Y-18811143D01*
X8967143Y-18825429D01*
X8938571Y-18839714D01*
X8910000Y-18839714D01*
X8881428Y-18825429D01*
X8867143Y-18811143D01*
X8852857Y-18782572D01*
X8838571Y-18725429D01*
X8838571Y-18654000D01*
X8852857Y-18596857D01*
X8867143Y-18568286D01*
X8881428Y-18554000D01*
X8910000Y-18539714D01*
X9124286Y-18539714D02*
X9124286Y-18596857D01*
X9238571Y-18539714D02*
X9238571Y-18596857D01*
X9681428Y-18954000D02*
X9667143Y-18939714D01*
X9638571Y-18896857D01*
X9624286Y-18868286D01*
X9610000Y-18825429D01*
X9595714Y-18754000D01*
X9595714Y-18696857D01*
X9610000Y-18625429D01*
X9624286Y-18582572D01*
X9638571Y-18554000D01*
X9667143Y-18511143D01*
X9681428Y-18496857D01*
X9767143Y-18539714D02*
X9952857Y-18539714D01*
X9852857Y-18654000D01*
X9895714Y-18654000D01*
X9924286Y-18668286D01*
X9938571Y-18682572D01*
X9952857Y-18711143D01*
X9952857Y-18782572D01*
X9938571Y-18811143D01*
X9924286Y-18825429D01*
X9895714Y-18839714D01*
X9810000Y-18839714D01*
X9781428Y-18825429D01*
X9767143Y-18811143D01*
X10067143Y-18568286D02*
X10081428Y-18554000D01*
X10110000Y-18539714D01*
X10181428Y-18539714D01*
X10210000Y-18554000D01*
X10224286Y-18568286D01*
X10238571Y-18596857D01*
X10238571Y-18625429D01*
X10224286Y-18668286D01*
X10052857Y-18839714D01*
X10238571Y-18839714D01*
X10595714Y-18839714D02*
X10595714Y-18539714D01*
X10724286Y-18839714D02*
X10724286Y-18682572D01*
X10710000Y-18654000D01*
X10681428Y-18639714D01*
X10638571Y-18639714D01*
X10610000Y-18654000D01*
X10595714Y-18668286D01*
X10910000Y-18839714D02*
X10881428Y-18825429D01*
X10867143Y-18811143D01*
X10852857Y-18782572D01*
X10852857Y-18696857D01*
X10867143Y-18668286D01*
X10881428Y-18654000D01*
X10910000Y-18639714D01*
X10952857Y-18639714D01*
X10981428Y-18654000D01*
X10995714Y-18668286D01*
X11010000Y-18696857D01*
X11010000Y-18782572D01*
X10995714Y-18811143D01*
X10981428Y-18825429D01*
X10952857Y-18839714D01*
X10910000Y-18839714D01*
X11181428Y-18839714D02*
X11152857Y-18825429D01*
X11138571Y-18796857D01*
X11138571Y-18539714D01*
X11410000Y-18825429D02*
X11381428Y-18839714D01*
X11324286Y-18839714D01*
X11295714Y-18825429D01*
X11281428Y-18796857D01*
X11281428Y-18682572D01*
X11295714Y-18654000D01*
X11324286Y-18639714D01*
X11381428Y-18639714D01*
X11410000Y-18654000D01*
X11424286Y-18682572D01*
X11424286Y-18711143D01*
X11281428Y-18739714D01*
X11538571Y-18825429D02*
X11567143Y-18839714D01*
X11624286Y-18839714D01*
X11652857Y-18825429D01*
X11667143Y-18796857D01*
X11667143Y-18782572D01*
X11652857Y-18754000D01*
X11624286Y-18739714D01*
X11581428Y-18739714D01*
X11552857Y-18725429D01*
X11538571Y-18696857D01*
X11538571Y-18682572D01*
X11552857Y-18654000D01*
X11581428Y-18639714D01*
X11624286Y-18639714D01*
X11652857Y-18654000D01*
X11767143Y-18954000D02*
X11781428Y-18939714D01*
X11810000Y-18896857D01*
X11824286Y-18868286D01*
X11838571Y-18825429D01*
X11852857Y-18754000D01*
X11852857Y-18696857D01*
X11838571Y-18625429D01*
X11824286Y-18582572D01*
X11810000Y-18554000D01*
X11781428Y-18511143D01*
X11767143Y-18496857D01*
X4850000Y-19027500D02*
X4995000Y-19172500D01*
X4995000Y-19027500D02*
X4850000Y-19172500D01*
X4922500Y-19172500D02*
X4995000Y-19100000D01*
X4922500Y-19027500D01*
X4850000Y-19100000D01*
X4922500Y-19172500D01*
X5438571Y-19235714D02*
X5267143Y-19235714D01*
X5352857Y-19235714D02*
X5352857Y-18935714D01*
X5324286Y-18978572D01*
X5295714Y-19007143D01*
X5267143Y-19021429D01*
X5567143Y-19207143D02*
X5581428Y-19221429D01*
X5567143Y-19235714D01*
X5552857Y-19221429D01*
X5567143Y-19207143D01*
X5567143Y-19235714D01*
X5838571Y-19035714D02*
X5838571Y-19235714D01*
X5767143Y-18921429D02*
X5695714Y-19135714D01*
X5881428Y-19135714D01*
X6138571Y-18935714D02*
X5995714Y-18935714D01*
X5981428Y-19078572D01*
X5995714Y-19064286D01*
X6024286Y-19050000D01*
X6095714Y-19050000D01*
X6124286Y-19064286D01*
X6138571Y-19078572D01*
X6152857Y-19107143D01*
X6152857Y-19178572D01*
X6138571Y-19207143D01*
X6124286Y-19221429D01*
X6095714Y-19235714D01*
X6024286Y-19235714D01*
X5995714Y-19221429D01*
X5981428Y-19207143D01*
X6281428Y-19235714D02*
X6281428Y-19035714D01*
X6281428Y-19064286D02*
X6295714Y-19050000D01*
X6324286Y-19035714D01*
X6367143Y-19035714D01*
X6395714Y-19050000D01*
X6410000Y-19078572D01*
X6410000Y-19235714D01*
X6410000Y-19078572D02*
X6424286Y-19050000D01*
X6452857Y-19035714D01*
X6495714Y-19035714D01*
X6524286Y-19050000D01*
X6538571Y-19078572D01*
X6538571Y-19235714D01*
X6681428Y-19235714D02*
X6681428Y-19035714D01*
X6681428Y-19064286D02*
X6695714Y-19050000D01*
X6724286Y-19035714D01*
X6767143Y-19035714D01*
X6795714Y-19050000D01*
X6810000Y-19078572D01*
X6810000Y-19235714D01*
X6810000Y-19078572D02*
X6824286Y-19050000D01*
X6852857Y-19035714D01*
X6895714Y-19035714D01*
X6924286Y-19050000D01*
X6938571Y-19078572D01*
X6938571Y-19235714D01*
X7524286Y-18921429D02*
X7267143Y-19307143D01*
X7910000Y-18935714D02*
X7938571Y-18935714D01*
X7967143Y-18950000D01*
X7981428Y-18964286D01*
X7995714Y-18992857D01*
X8010000Y-19050000D01*
X8010000Y-19121429D01*
X7995714Y-19178572D01*
X7981428Y-19207143D01*
X7967143Y-19221429D01*
X7938571Y-19235714D01*
X7910000Y-19235714D01*
X7881428Y-19221429D01*
X7867143Y-19207143D01*
X7852857Y-19178572D01*
X7838571Y-19121429D01*
X7838571Y-19050000D01*
X7852857Y-18992857D01*
X7867143Y-18964286D01*
X7881428Y-18950000D01*
X7910000Y-18935714D01*
X8138571Y-19207143D02*
X8152857Y-19221429D01*
X8138571Y-19235714D01*
X8124286Y-19221429D01*
X8138571Y-19207143D01*
X8138571Y-19235714D01*
X8338571Y-18935714D02*
X8367143Y-18935714D01*
X8395714Y-18950000D01*
X8410000Y-18964286D01*
X8424286Y-18992857D01*
X8438571Y-19050000D01*
X8438571Y-19121429D01*
X8424286Y-19178572D01*
X8410000Y-19207143D01*
X8395714Y-19221429D01*
X8367143Y-19235714D01*
X8338571Y-19235714D01*
X8310000Y-19221429D01*
X8295714Y-19207143D01*
X8281428Y-19178572D01*
X8267143Y-19121429D01*
X8267143Y-19050000D01*
X8281428Y-18992857D01*
X8295714Y-18964286D01*
X8310000Y-18950000D01*
X8338571Y-18935714D01*
X8710000Y-18935714D02*
X8567143Y-18935714D01*
X8552857Y-19078572D01*
X8567143Y-19064286D01*
X8595714Y-19050000D01*
X8667143Y-19050000D01*
X8695714Y-19064286D01*
X8710000Y-19078572D01*
X8724286Y-19107143D01*
X8724286Y-19178572D01*
X8710000Y-19207143D01*
X8695714Y-19221429D01*
X8667143Y-19235714D01*
X8595714Y-19235714D01*
X8567143Y-19221429D01*
X8552857Y-19207143D01*
X8824286Y-18935714D02*
X9024286Y-18935714D01*
X8895714Y-19235714D01*
X9124286Y-18935714D02*
X9124286Y-18992857D01*
X9238571Y-18935714D02*
X9238571Y-18992857D01*
X9681428Y-19350000D02*
X9667143Y-19335714D01*
X9638571Y-19292857D01*
X9624286Y-19264286D01*
X9610000Y-19221429D01*
X9595714Y-19150000D01*
X9595714Y-19092857D01*
X9610000Y-19021429D01*
X9624286Y-18978572D01*
X9638571Y-18950000D01*
X9667143Y-18907143D01*
X9681428Y-18892857D01*
X9781428Y-18964286D02*
X9795714Y-18950000D01*
X9824286Y-18935714D01*
X9895714Y-18935714D01*
X9924286Y-18950000D01*
X9938571Y-18964286D01*
X9952857Y-18992857D01*
X9952857Y-19021429D01*
X9938571Y-19064286D01*
X9767143Y-19235714D01*
X9952857Y-19235714D01*
X10310000Y-19235714D02*
X10310000Y-18935714D01*
X10438571Y-19235714D02*
X10438571Y-19078572D01*
X10424286Y-19050000D01*
X10395714Y-19035714D01*
X10352857Y-19035714D01*
X10324286Y-19050000D01*
X10310000Y-19064286D01*
X10624286Y-19235714D02*
X10595714Y-19221429D01*
X10581428Y-19207143D01*
X10567143Y-19178572D01*
X10567143Y-19092857D01*
X10581428Y-19064286D01*
X10595714Y-19050000D01*
X10624286Y-19035714D01*
X10667143Y-19035714D01*
X10695714Y-19050000D01*
X10710000Y-19064286D01*
X10724286Y-19092857D01*
X10724286Y-19178572D01*
X10710000Y-19207143D01*
X10695714Y-19221429D01*
X10667143Y-19235714D01*
X10624286Y-19235714D01*
X10895714Y-19235714D02*
X10867143Y-19221429D01*
X10852857Y-19192857D01*
X10852857Y-18935714D01*
X11124286Y-19221429D02*
X11095714Y-19235714D01*
X11038571Y-19235714D01*
X11010000Y-19221429D01*
X10995714Y-19192857D01*
X10995714Y-19078572D01*
X11010000Y-19050000D01*
X11038571Y-19035714D01*
X11095714Y-19035714D01*
X11124286Y-19050000D01*
X11138571Y-19078572D01*
X11138571Y-19107143D01*
X10995714Y-19135714D01*
X11252857Y-19221429D02*
X11281428Y-19235714D01*
X11338571Y-19235714D01*
X11367143Y-19221429D01*
X11381428Y-19192857D01*
X11381428Y-19178572D01*
X11367143Y-19150000D01*
X11338571Y-19135714D01*
X11295714Y-19135714D01*
X11267143Y-19121429D01*
X11252857Y-19092857D01*
X11252857Y-19078572D01*
X11267143Y-19050000D01*
X11295714Y-19035714D01*
X11338571Y-19035714D01*
X11367143Y-19050000D01*
X11481428Y-19350000D02*
X11495714Y-19335714D01*
X11524286Y-19292857D01*
X11538571Y-19264286D01*
X11552857Y-19221429D01*
X11567143Y-19150000D01*
X11567143Y-19092857D01*
X11552857Y-19021429D01*
X11538571Y-18978572D01*
X11524286Y-18950000D01*
X11495714Y-18907143D01*
X11481428Y-18892857D01*
X4880000Y-19381000D02*
X4880000Y-19611000D01*
X4765000Y-19496000D02*
X4995000Y-19496000D01*
X4995000Y-19496000D02*
G75*
G03*
X4995000Y-19496000I-115000J0D01*
G01*
X5267143Y-19360286D02*
X5281428Y-19346000D01*
X5310000Y-19331714D01*
X5381428Y-19331714D01*
X5410000Y-19346000D01*
X5424286Y-19360286D01*
X5438571Y-19388857D01*
X5438571Y-19417429D01*
X5424286Y-19460286D01*
X5252857Y-19631714D01*
X5438571Y-19631714D01*
X5567143Y-19603143D02*
X5581428Y-19617429D01*
X5567143Y-19631714D01*
X5552857Y-19617429D01*
X5567143Y-19603143D01*
X5567143Y-19631714D01*
X5681428Y-19331714D02*
X5867143Y-19331714D01*
X5767143Y-19446000D01*
X5810000Y-19446000D01*
X5838571Y-19460286D01*
X5852857Y-19474572D01*
X5867143Y-19503143D01*
X5867143Y-19574572D01*
X5852857Y-19603143D01*
X5838571Y-19617429D01*
X5810000Y-19631714D01*
X5724286Y-19631714D01*
X5695714Y-19617429D01*
X5681428Y-19603143D01*
X6052857Y-19331714D02*
X6081428Y-19331714D01*
X6110000Y-19346000D01*
X6124286Y-19360286D01*
X6138571Y-19388857D01*
X6152857Y-19446000D01*
X6152857Y-19517429D01*
X6138571Y-19574572D01*
X6124286Y-19603143D01*
X6110000Y-19617429D01*
X6081428Y-19631714D01*
X6052857Y-19631714D01*
X6024286Y-19617429D01*
X6010000Y-19603143D01*
X5995714Y-19574572D01*
X5981428Y-19517429D01*
X5981428Y-19446000D01*
X5995714Y-19388857D01*
X6010000Y-19360286D01*
X6024286Y-19346000D01*
X6052857Y-19331714D01*
X6281428Y-19631714D02*
X6281428Y-19431714D01*
X6281428Y-19460286D02*
X6295714Y-19446000D01*
X6324286Y-19431714D01*
X6367143Y-19431714D01*
X6395714Y-19446000D01*
X6410000Y-19474572D01*
X6410000Y-19631714D01*
X6410000Y-19474572D02*
X6424286Y-19446000D01*
X6452857Y-19431714D01*
X6495714Y-19431714D01*
X6524286Y-19446000D01*
X6538571Y-19474572D01*
X6538571Y-19631714D01*
X6681428Y-19631714D02*
X6681428Y-19431714D01*
X6681428Y-19460286D02*
X6695714Y-19446000D01*
X6724286Y-19431714D01*
X6767143Y-19431714D01*
X6795714Y-19446000D01*
X6810000Y-19474572D01*
X6810000Y-19631714D01*
X6810000Y-19474572D02*
X6824286Y-19446000D01*
X6852857Y-19431714D01*
X6895714Y-19431714D01*
X6924286Y-19446000D01*
X6938571Y-19474572D01*
X6938571Y-19631714D01*
X7524286Y-19317429D02*
X7267143Y-19703143D01*
X7910000Y-19331714D02*
X7938571Y-19331714D01*
X7967143Y-19346000D01*
X7981428Y-19360286D01*
X7995714Y-19388857D01*
X8010000Y-19446000D01*
X8010000Y-19517429D01*
X7995714Y-19574572D01*
X7981428Y-19603143D01*
X7967143Y-19617429D01*
X7938571Y-19631714D01*
X7910000Y-19631714D01*
X7881428Y-19617429D01*
X7867143Y-19603143D01*
X7852857Y-19574572D01*
X7838571Y-19517429D01*
X7838571Y-19446000D01*
X7852857Y-19388857D01*
X7867143Y-19360286D01*
X7881428Y-19346000D01*
X7910000Y-19331714D01*
X8138571Y-19603143D02*
X8152857Y-19617429D01*
X8138571Y-19631714D01*
X8124286Y-19617429D01*
X8138571Y-19603143D01*
X8138571Y-19631714D01*
X8338571Y-19331714D02*
X8367143Y-19331714D01*
X8395714Y-19346000D01*
X8410000Y-19360286D01*
X8424286Y-19388857D01*
X8438571Y-19446000D01*
X8438571Y-19517429D01*
X8424286Y-19574572D01*
X8410000Y-19603143D01*
X8395714Y-19617429D01*
X8367143Y-19631714D01*
X8338571Y-19631714D01*
X8310000Y-19617429D01*
X8295714Y-19603143D01*
X8281428Y-19574572D01*
X8267143Y-19517429D01*
X8267143Y-19446000D01*
X8281428Y-19388857D01*
X8295714Y-19360286D01*
X8310000Y-19346000D01*
X8338571Y-19331714D01*
X8581428Y-19631714D02*
X8638571Y-19631714D01*
X8667143Y-19617429D01*
X8681428Y-19603143D01*
X8710000Y-19560286D01*
X8724286Y-19503143D01*
X8724286Y-19388857D01*
X8710000Y-19360286D01*
X8695714Y-19346000D01*
X8667143Y-19331714D01*
X8610000Y-19331714D01*
X8581428Y-19346000D01*
X8567143Y-19360286D01*
X8552857Y-19388857D01*
X8552857Y-19460286D01*
X8567143Y-19488857D01*
X8581428Y-19503143D01*
X8610000Y-19517429D01*
X8667143Y-19517429D01*
X8695714Y-19503143D01*
X8710000Y-19488857D01*
X8724286Y-19460286D01*
X9010000Y-19631714D02*
X8838571Y-19631714D01*
X8924286Y-19631714D02*
X8924286Y-19331714D01*
X8895714Y-19374572D01*
X8867143Y-19403143D01*
X8838571Y-19417429D01*
X9124286Y-19331714D02*
X9124286Y-19388857D01*
X9238571Y-19331714D02*
X9238571Y-19388857D01*
X9681428Y-19746000D02*
X9667143Y-19731714D01*
X9638571Y-19688857D01*
X9624286Y-19660286D01*
X9610000Y-19617429D01*
X9595714Y-19546000D01*
X9595714Y-19488857D01*
X9610000Y-19417429D01*
X9624286Y-19374572D01*
X9638571Y-19346000D01*
X9667143Y-19303143D01*
X9681428Y-19288857D01*
X9781428Y-19360286D02*
X9795714Y-19346000D01*
X9824286Y-19331714D01*
X9895714Y-19331714D01*
X9924286Y-19346000D01*
X9938571Y-19360286D01*
X9952857Y-19388857D01*
X9952857Y-19417429D01*
X9938571Y-19460286D01*
X9767143Y-19631714D01*
X9952857Y-19631714D01*
X10310000Y-19631714D02*
X10310000Y-19331714D01*
X10438571Y-19631714D02*
X10438571Y-19474572D01*
X10424286Y-19446000D01*
X10395714Y-19431714D01*
X10352857Y-19431714D01*
X10324286Y-19446000D01*
X10310000Y-19460286D01*
X10624286Y-19631714D02*
X10595714Y-19617429D01*
X10581428Y-19603143D01*
X10567143Y-19574572D01*
X10567143Y-19488857D01*
X10581428Y-19460286D01*
X10595714Y-19446000D01*
X10624286Y-19431714D01*
X10667143Y-19431714D01*
X10695714Y-19446000D01*
X10710000Y-19460286D01*
X10724286Y-19488857D01*
X10724286Y-19574572D01*
X10710000Y-19603143D01*
X10695714Y-19617429D01*
X10667143Y-19631714D01*
X10624286Y-19631714D01*
X10895714Y-19631714D02*
X10867143Y-19617429D01*
X10852857Y-19588857D01*
X10852857Y-19331714D01*
X11124286Y-19617429D02*
X11095714Y-19631714D01*
X11038571Y-19631714D01*
X11010000Y-19617429D01*
X10995714Y-19588857D01*
X10995714Y-19474572D01*
X11010000Y-19446000D01*
X11038571Y-19431714D01*
X11095714Y-19431714D01*
X11124286Y-19446000D01*
X11138571Y-19474572D01*
X11138571Y-19503143D01*
X10995714Y-19531714D01*
X11252857Y-19617429D02*
X11281428Y-19631714D01*
X11338571Y-19631714D01*
X11367143Y-19617429D01*
X11381428Y-19588857D01*
X11381428Y-19574572D01*
X11367143Y-19546000D01*
X11338571Y-19531714D01*
X11295714Y-19531714D01*
X11267143Y-19517429D01*
X11252857Y-19488857D01*
X11252857Y-19474572D01*
X11267143Y-19446000D01*
X11295714Y-19431714D01*
X11338571Y-19431714D01*
X11367143Y-19446000D01*
X11481428Y-19746000D02*
X11495714Y-19731714D01*
X11524286Y-19688857D01*
X11538571Y-19660286D01*
X11552857Y-19617429D01*
X11567143Y-19546000D01*
X11567143Y-19488857D01*
X11552857Y-19417429D01*
X11538571Y-19374572D01*
X11524286Y-19346000D01*
X11495714Y-19303143D01*
X11481428Y-19288857D01*
X4950335Y-19999835D02*
X4950335Y-19784165D01*
X4734665Y-19784165D01*
X4734665Y-19999835D01*
X4950335Y-19999835D01*
X4995000Y-19892000D02*
G75*
G03*
X4995000Y-19892000I-152500J0D01*
G01*
X5252857Y-19727714D02*
X5438571Y-19727714D01*
X5338571Y-19842000D01*
X5381428Y-19842000D01*
X5410000Y-19856286D01*
X5424286Y-19870572D01*
X5438571Y-19899143D01*
X5438571Y-19970572D01*
X5424286Y-19999143D01*
X5410000Y-20013429D01*
X5381428Y-20027714D01*
X5295714Y-20027714D01*
X5267143Y-20013429D01*
X5252857Y-19999143D01*
X5567143Y-19999143D02*
X5581428Y-20013429D01*
X5567143Y-20027714D01*
X5552857Y-20013429D01*
X5567143Y-19999143D01*
X5567143Y-20027714D01*
X5767143Y-19727714D02*
X5795714Y-19727714D01*
X5824286Y-19742000D01*
X5838571Y-19756286D01*
X5852857Y-19784857D01*
X5867143Y-19842000D01*
X5867143Y-19913429D01*
X5852857Y-19970572D01*
X5838571Y-19999143D01*
X5824286Y-20013429D01*
X5795714Y-20027714D01*
X5767143Y-20027714D01*
X5738571Y-20013429D01*
X5724286Y-19999143D01*
X5710000Y-19970572D01*
X5695714Y-19913429D01*
X5695714Y-19842000D01*
X5710000Y-19784857D01*
X5724286Y-19756286D01*
X5738571Y-19742000D01*
X5767143Y-19727714D01*
X6138571Y-19727714D02*
X5995714Y-19727714D01*
X5981428Y-19870572D01*
X5995714Y-19856286D01*
X6024286Y-19842000D01*
X6095714Y-19842000D01*
X6124286Y-19856286D01*
X6138571Y-19870572D01*
X6152857Y-19899143D01*
X6152857Y-19970572D01*
X6138571Y-19999143D01*
X6124286Y-20013429D01*
X6095714Y-20027714D01*
X6024286Y-20027714D01*
X5995714Y-20013429D01*
X5981428Y-19999143D01*
X6281428Y-20027714D02*
X6281428Y-19827714D01*
X6281428Y-19856286D02*
X6295714Y-19842000D01*
X6324286Y-19827714D01*
X6367143Y-19827714D01*
X6395714Y-19842000D01*
X6410000Y-19870572D01*
X6410000Y-20027714D01*
X6410000Y-19870572D02*
X6424286Y-19842000D01*
X6452857Y-19827714D01*
X6495714Y-19827714D01*
X6524286Y-19842000D01*
X6538571Y-19870572D01*
X6538571Y-20027714D01*
X6681428Y-20027714D02*
X6681428Y-19827714D01*
X6681428Y-19856286D02*
X6695714Y-19842000D01*
X6724286Y-19827714D01*
X6767143Y-19827714D01*
X6795714Y-19842000D01*
X6810000Y-19870572D01*
X6810000Y-20027714D01*
X6810000Y-19870572D02*
X6824286Y-19842000D01*
X6852857Y-19827714D01*
X6895714Y-19827714D01*
X6924286Y-19842000D01*
X6938571Y-19870572D01*
X6938571Y-20027714D01*
X7524286Y-19713429D02*
X7267143Y-20099143D01*
X7910000Y-19727714D02*
X7938571Y-19727714D01*
X7967143Y-19742000D01*
X7981428Y-19756286D01*
X7995714Y-19784857D01*
X8010000Y-19842000D01*
X8010000Y-19913429D01*
X7995714Y-19970572D01*
X7981428Y-19999143D01*
X7967143Y-20013429D01*
X7938571Y-20027714D01*
X7910000Y-20027714D01*
X7881428Y-20013429D01*
X7867143Y-19999143D01*
X7852857Y-19970572D01*
X7838571Y-19913429D01*
X7838571Y-19842000D01*
X7852857Y-19784857D01*
X7867143Y-19756286D01*
X7881428Y-19742000D01*
X7910000Y-19727714D01*
X8138571Y-19999143D02*
X8152857Y-20013429D01*
X8138571Y-20027714D01*
X8124286Y-20013429D01*
X8138571Y-19999143D01*
X8138571Y-20027714D01*
X8438571Y-20027714D02*
X8267143Y-20027714D01*
X8352857Y-20027714D02*
X8352857Y-19727714D01*
X8324286Y-19770572D01*
X8295714Y-19799143D01*
X8267143Y-19813429D01*
X8552857Y-19756286D02*
X8567143Y-19742000D01*
X8595714Y-19727714D01*
X8667143Y-19727714D01*
X8695714Y-19742000D01*
X8710000Y-19756286D01*
X8724286Y-19784857D01*
X8724286Y-19813429D01*
X8710000Y-19856286D01*
X8538571Y-20027714D01*
X8724286Y-20027714D01*
X8910000Y-19727714D02*
X8938571Y-19727714D01*
X8967143Y-19742000D01*
X8981428Y-19756286D01*
X8995714Y-19784857D01*
X9010000Y-19842000D01*
X9010000Y-19913429D01*
X8995714Y-19970572D01*
X8981428Y-19999143D01*
X8967143Y-20013429D01*
X8938571Y-20027714D01*
X8910000Y-20027714D01*
X8881428Y-20013429D01*
X8867143Y-19999143D01*
X8852857Y-19970572D01*
X8838571Y-19913429D01*
X8838571Y-19842000D01*
X8852857Y-19784857D01*
X8867143Y-19756286D01*
X8881428Y-19742000D01*
X8910000Y-19727714D01*
X9124286Y-19727714D02*
X9124286Y-19784857D01*
X9238571Y-19727714D02*
X9238571Y-19784857D01*
X9681428Y-20142000D02*
X9667143Y-20127714D01*
X9638571Y-20084857D01*
X9624286Y-20056286D01*
X9610000Y-20013429D01*
X9595714Y-19942000D01*
X9595714Y-19884857D01*
X9610000Y-19813429D01*
X9624286Y-19770572D01*
X9638571Y-19742000D01*
X9667143Y-19699143D01*
X9681428Y-19684857D01*
X9952857Y-20027714D02*
X9781428Y-20027714D01*
X9867143Y-20027714D02*
X9867143Y-19727714D01*
X9838571Y-19770572D01*
X9810000Y-19799143D01*
X9781428Y-19813429D01*
X10310000Y-20027714D02*
X10310000Y-19727714D01*
X10438571Y-20027714D02*
X10438571Y-19870572D01*
X10424286Y-19842000D01*
X10395714Y-19827714D01*
X10352857Y-19827714D01*
X10324286Y-19842000D01*
X10310000Y-19856286D01*
X10624286Y-20027714D02*
X10595714Y-20013429D01*
X10581428Y-19999143D01*
X10567143Y-19970572D01*
X10567143Y-19884857D01*
X10581428Y-19856286D01*
X10595714Y-19842000D01*
X10624286Y-19827714D01*
X10667143Y-19827714D01*
X10695714Y-19842000D01*
X10710000Y-19856286D01*
X10724286Y-19884857D01*
X10724286Y-19970572D01*
X10710000Y-19999143D01*
X10695714Y-20013429D01*
X10667143Y-20027714D01*
X10624286Y-20027714D01*
X10895714Y-20027714D02*
X10867143Y-20013429D01*
X10852857Y-19984857D01*
X10852857Y-19727714D01*
X11124286Y-20013429D02*
X11095714Y-20027714D01*
X11038571Y-20027714D01*
X11010000Y-20013429D01*
X10995714Y-19984857D01*
X10995714Y-19870572D01*
X11010000Y-19842000D01*
X11038571Y-19827714D01*
X11095714Y-19827714D01*
X11124286Y-19842000D01*
X11138571Y-19870572D01*
X11138571Y-19899143D01*
X10995714Y-19927714D01*
X11238571Y-20142000D02*
X11252857Y-20127714D01*
X11281428Y-20084857D01*
X11295714Y-20056286D01*
X11310000Y-20013429D01*
X11324286Y-19942000D01*
X11324286Y-19884857D01*
X11310000Y-19813429D01*
X11295714Y-19770572D01*
X11281428Y-19742000D01*
X11252857Y-19699143D01*
X11238571Y-19684857D01*
M02*
