G04 #@! TF.GenerationSoftware,KiCad,Pcbnew,(5.1.6-0-10_14)*
G04 #@! TF.CreationDate,2021-12-22T00:37:34+01:00*
G04 #@! TF.ProjectId,CHAdeMO_V2.0,43484164-654d-44f5-9f56-322e302e6b69,rev?*
G04 #@! TF.SameCoordinates,Original*
G04 #@! TF.FileFunction,Legend,Bot*
G04 #@! TF.FilePolarity,Positive*
%FSLAX46Y46*%
G04 Gerber Fmt 4.6, Leading zero omitted, Abs format (unit mm)*
G04 Created by KiCad (PCBNEW (5.1.6-0-10_14)) date 2021-12-22 00:37:34*
%MOMM*%
%LPD*%
G01*
G04 APERTURE LIST*
%ADD10C,0.120000*%
%ADD11C,1.975000*%
%ADD12C,1.433000*%
%ADD13C,1.450000*%
%ADD14C,4.675000*%
%ADD15C,2.005000*%
%ADD16C,1.370000*%
%ADD17C,1.468000*%
%ADD18R,1.468000X1.468000*%
%ADD19C,2.275000*%
%ADD20R,2.275000X2.275000*%
%ADD21C,2.552000*%
%ADD22C,1.252000*%
%ADD23C,1.530000*%
%ADD24C,3.550000*%
%ADD25C,1.531000*%
G04 APERTURE END LIST*
D10*
X126746000Y-48514000D02*
X127000000Y-47498000D01*
X126492000Y-48514000D02*
X126238000Y-47498000D01*
X127000000Y-48768000D02*
X127508000Y-47752000D01*
X127254000Y-48768000D02*
X128270000Y-48006000D01*
X127508000Y-49022000D02*
X128524000Y-48768000D01*
%LPC*%
D11*
X93868000Y-65541600D03*
X85868000Y-62541600D03*
X93868000Y-62541600D03*
D12*
X94368000Y-72741600D03*
X86868000Y-66141600D03*
D13*
X86563200Y-95707200D03*
X89103200Y-95707200D03*
X91643200Y-95707200D03*
D14*
X100000000Y-50000000D03*
D15*
X108890000Y-50000000D03*
X112390000Y-50000000D03*
X115890000Y-50000000D03*
X119390000Y-50000000D03*
X122890000Y-50000000D03*
X126390000Y-50000000D03*
X129890000Y-50000000D03*
D16*
X133390000Y-50000000D03*
D15*
X136890000Y-50000000D03*
X140390000Y-50000000D03*
X108890000Y-54000000D03*
X112390000Y-54000000D03*
X115890000Y-54000000D03*
X119390000Y-54000000D03*
X122890000Y-54000000D03*
X126390000Y-54000000D03*
X129890000Y-54000000D03*
D16*
X133390000Y-54000000D03*
D15*
X136890000Y-54000000D03*
D16*
X140390000Y-54000000D03*
D15*
X66620000Y-50000000D03*
X70120000Y-50000000D03*
X73620000Y-50000000D03*
X77120000Y-50000000D03*
X80620000Y-50000000D03*
X84120000Y-50000000D03*
X66620000Y-54000000D03*
X70120000Y-54000000D03*
X73620000Y-54000000D03*
X77120000Y-54000000D03*
X80620000Y-54000000D03*
X84120000Y-54000000D03*
D17*
X52213000Y-48810000D03*
D18*
X54213000Y-48810000D03*
D19*
X113030000Y-68339600D03*
D20*
X113030000Y-62839600D03*
D21*
X148000000Y-43920000D03*
D22*
X59450000Y-147670000D03*
X140550000Y-147670000D03*
D23*
X132689600Y-109524800D03*
X130149600Y-109524800D03*
X127609600Y-109524800D03*
X125069600Y-109524800D03*
X67945000Y-101092000D03*
X70485000Y-101092000D03*
X73025000Y-101092000D03*
X75565000Y-101092000D03*
D24*
X113479400Y-87762200D03*
X113479400Y-99802200D03*
D25*
X113969400Y-92532200D03*
X113969400Y-95032200D03*
X110769400Y-95032200D03*
X110769400Y-92532200D03*
M02*
