%FSLAX45Y45*%
G04 Gerber Fmt 4.5, Leading zero omitted, Abs format (unit mm)*
G04 Created by KiCad (PCBNEW (5.1.6-0-10_14)) date 2021-12-22 00:37:46*
%MOMM*%
%LPD*%
G01*
G04 APERTURE LIST*
%TA.AperFunction,Profile*%
%ADD10C,0.100000*%
%TD*%
%ADD11C,0.200000*%
%ADD12C,0.300000*%
G04 APERTURE END LIST*
D10*
X5000000Y-4192000D02*
X5745000Y-4192000D01*
X5000000Y-6431000D02*
X5000000Y-4192000D01*
X5745000Y-6431000D02*
X5000000Y-6431000D01*
X15000000Y-4192000D02*
X14255000Y-4192000D01*
X15000000Y-6431000D02*
X15000000Y-4192000D01*
X14255000Y-6431000D02*
X15000000Y-6431000D01*
X14255000Y-14967000D02*
X14255000Y-6431000D01*
X5744972Y-14966950D02*
X14254972Y-14966950D01*
X5745000Y-14967000D02*
X5745000Y-6431000D01*
X5745000Y-4192000D02*
X14255000Y-4192000D01*
D11*
X14742400Y-4334400D02*
X14857600Y-4449600D01*
X14857600Y-4334400D02*
X14742400Y-4449600D01*
X5887400Y-14709400D02*
X6002600Y-14824600D01*
X6002600Y-14709400D02*
X5887400Y-14824600D01*
X13997400Y-14709400D02*
X14112600Y-14824600D01*
X14112600Y-14709400D02*
X13997400Y-14824600D01*
D12*
X5281428Y-15437714D02*
X5281428Y-15137714D01*
X5352857Y-15137714D01*
X5395714Y-15152000D01*
X5424286Y-15180571D01*
X5438571Y-15209143D01*
X5452857Y-15266286D01*
X5452857Y-15309143D01*
X5438571Y-15366286D01*
X5424286Y-15394857D01*
X5395714Y-15423429D01*
X5352857Y-15437714D01*
X5281428Y-15437714D01*
X5581428Y-15437714D02*
X5581428Y-15237714D01*
X5581428Y-15294857D02*
X5595714Y-15266286D01*
X5610000Y-15252000D01*
X5638571Y-15237714D01*
X5667143Y-15237714D01*
X5767143Y-15437714D02*
X5767143Y-15237714D01*
X5767143Y-15137714D02*
X5752857Y-15152000D01*
X5767143Y-15166286D01*
X5781428Y-15152000D01*
X5767143Y-15137714D01*
X5767143Y-15166286D01*
X5952857Y-15437714D02*
X5924286Y-15423429D01*
X5910000Y-15394857D01*
X5910000Y-15137714D01*
X6110000Y-15437714D02*
X6081428Y-15423429D01*
X6067143Y-15394857D01*
X6067143Y-15137714D01*
X6452857Y-15437714D02*
X6452857Y-15137714D01*
X6552857Y-15352000D01*
X6652857Y-15137714D01*
X6652857Y-15437714D01*
X6924286Y-15437714D02*
X6924286Y-15280571D01*
X6910000Y-15252000D01*
X6881428Y-15237714D01*
X6824286Y-15237714D01*
X6795714Y-15252000D01*
X6924286Y-15423429D02*
X6895714Y-15437714D01*
X6824286Y-15437714D01*
X6795714Y-15423429D01*
X6781428Y-15394857D01*
X6781428Y-15366286D01*
X6795714Y-15337714D01*
X6824286Y-15323429D01*
X6895714Y-15323429D01*
X6924286Y-15309143D01*
X7067143Y-15237714D02*
X7067143Y-15537714D01*
X7067143Y-15252000D02*
X7095714Y-15237714D01*
X7152857Y-15237714D01*
X7181428Y-15252000D01*
X7195714Y-15266286D01*
X7210000Y-15294857D01*
X7210000Y-15380571D01*
X7195714Y-15409143D01*
X7181428Y-15423429D01*
X7152857Y-15437714D01*
X7095714Y-15437714D01*
X7067143Y-15423429D01*
X7338571Y-15409143D02*
X7352857Y-15423429D01*
X7338571Y-15437714D01*
X7324286Y-15423429D01*
X7338571Y-15409143D01*
X7338571Y-15437714D01*
X7338571Y-15252000D02*
X7352857Y-15266286D01*
X7338571Y-15280571D01*
X7324286Y-15266286D01*
X7338571Y-15252000D01*
X7338571Y-15280571D01*
X4879800Y-15874400D02*
X4995000Y-15989600D01*
X4995000Y-15874400D02*
X4879800Y-15989600D01*
X5438571Y-16067714D02*
X5267143Y-16067714D01*
X5352857Y-16067714D02*
X5352857Y-15767714D01*
X5324286Y-15810571D01*
X5295714Y-15839143D01*
X5267143Y-15853429D01*
X5567143Y-16039143D02*
X5581428Y-16053429D01*
X5567143Y-16067714D01*
X5552857Y-16053429D01*
X5567143Y-16039143D01*
X5567143Y-16067714D01*
X5867143Y-16067714D02*
X5695714Y-16067714D01*
X5781428Y-16067714D02*
X5781428Y-15767714D01*
X5752857Y-15810571D01*
X5724286Y-15839143D01*
X5695714Y-15853429D01*
X6138571Y-15767714D02*
X5995714Y-15767714D01*
X5981428Y-15910571D01*
X5995714Y-15896286D01*
X6024286Y-15882000D01*
X6095714Y-15882000D01*
X6124286Y-15896286D01*
X6138571Y-15910571D01*
X6152857Y-15939143D01*
X6152857Y-16010571D01*
X6138571Y-16039143D01*
X6124286Y-16053429D01*
X6095714Y-16067714D01*
X6024286Y-16067714D01*
X5995714Y-16053429D01*
X5981428Y-16039143D01*
X6281428Y-16067714D02*
X6281428Y-15867714D01*
X6281428Y-15896286D02*
X6295714Y-15882000D01*
X6324286Y-15867714D01*
X6367143Y-15867714D01*
X6395714Y-15882000D01*
X6410000Y-15910571D01*
X6410000Y-16067714D01*
X6410000Y-15910571D02*
X6424286Y-15882000D01*
X6452857Y-15867714D01*
X6495714Y-15867714D01*
X6524286Y-15882000D01*
X6538571Y-15910571D01*
X6538571Y-16067714D01*
X6681428Y-16067714D02*
X6681428Y-15867714D01*
X6681428Y-15896286D02*
X6695714Y-15882000D01*
X6724286Y-15867714D01*
X6767143Y-15867714D01*
X6795714Y-15882000D01*
X6810000Y-15910571D01*
X6810000Y-16067714D01*
X6810000Y-15910571D02*
X6824286Y-15882000D01*
X6852857Y-15867714D01*
X6895714Y-15867714D01*
X6924286Y-15882000D01*
X6938571Y-15910571D01*
X6938571Y-16067714D01*
X7524286Y-15753429D02*
X7267143Y-16139143D01*
X7910000Y-15767714D02*
X7938571Y-15767714D01*
X7967143Y-15782000D01*
X7981428Y-15796286D01*
X7995714Y-15824857D01*
X8010000Y-15882000D01*
X8010000Y-15953429D01*
X7995714Y-16010571D01*
X7981428Y-16039143D01*
X7967143Y-16053429D01*
X7938571Y-16067714D01*
X7910000Y-16067714D01*
X7881428Y-16053429D01*
X7867143Y-16039143D01*
X7852857Y-16010571D01*
X7838571Y-15953429D01*
X7838571Y-15882000D01*
X7852857Y-15824857D01*
X7867143Y-15796286D01*
X7881428Y-15782000D01*
X7910000Y-15767714D01*
X8138571Y-16039143D02*
X8152857Y-16053429D01*
X8138571Y-16067714D01*
X8124286Y-16053429D01*
X8138571Y-16039143D01*
X8138571Y-16067714D01*
X8338571Y-15767714D02*
X8367143Y-15767714D01*
X8395714Y-15782000D01*
X8410000Y-15796286D01*
X8424286Y-15824857D01*
X8438571Y-15882000D01*
X8438571Y-15953429D01*
X8424286Y-16010571D01*
X8410000Y-16039143D01*
X8395714Y-16053429D01*
X8367143Y-16067714D01*
X8338571Y-16067714D01*
X8310000Y-16053429D01*
X8295714Y-16039143D01*
X8281428Y-16010571D01*
X8267143Y-15953429D01*
X8267143Y-15882000D01*
X8281428Y-15824857D01*
X8295714Y-15796286D01*
X8310000Y-15782000D01*
X8338571Y-15767714D01*
X8695714Y-15867714D02*
X8695714Y-16067714D01*
X8624286Y-15753429D02*
X8552857Y-15967714D01*
X8738571Y-15967714D01*
X8995714Y-15767714D02*
X8852857Y-15767714D01*
X8838571Y-15910571D01*
X8852857Y-15896286D01*
X8881428Y-15882000D01*
X8952857Y-15882000D01*
X8981428Y-15896286D01*
X8995714Y-15910571D01*
X9010000Y-15939143D01*
X9010000Y-16010571D01*
X8995714Y-16039143D01*
X8981428Y-16053429D01*
X8952857Y-16067714D01*
X8881428Y-16067714D01*
X8852857Y-16053429D01*
X8838571Y-16039143D01*
X9124286Y-15767714D02*
X9124286Y-15824857D01*
X9238571Y-15767714D02*
X9238571Y-15824857D01*
X9681428Y-16182000D02*
X9667143Y-16167714D01*
X9638571Y-16124857D01*
X9624286Y-16096286D01*
X9610000Y-16053429D01*
X9595714Y-15982000D01*
X9595714Y-15924857D01*
X9610000Y-15853429D01*
X9624286Y-15810571D01*
X9638571Y-15782000D01*
X9667143Y-15739143D01*
X9681428Y-15724857D01*
X9767143Y-15767714D02*
X9952857Y-15767714D01*
X9852857Y-15882000D01*
X9895714Y-15882000D01*
X9924286Y-15896286D01*
X9938571Y-15910571D01*
X9952857Y-15939143D01*
X9952857Y-16010571D01*
X9938571Y-16039143D01*
X9924286Y-16053429D01*
X9895714Y-16067714D01*
X9810000Y-16067714D01*
X9781428Y-16053429D01*
X9767143Y-16039143D01*
X10310000Y-16067714D02*
X10310000Y-15767714D01*
X10438571Y-16067714D02*
X10438571Y-15910571D01*
X10424286Y-15882000D01*
X10395714Y-15867714D01*
X10352857Y-15867714D01*
X10324286Y-15882000D01*
X10310000Y-15896286D01*
X10624286Y-16067714D02*
X10595714Y-16053429D01*
X10581428Y-16039143D01*
X10567143Y-16010571D01*
X10567143Y-15924857D01*
X10581428Y-15896286D01*
X10595714Y-15882000D01*
X10624286Y-15867714D01*
X10667143Y-15867714D01*
X10695714Y-15882000D01*
X10710000Y-15896286D01*
X10724286Y-15924857D01*
X10724286Y-16010571D01*
X10710000Y-16039143D01*
X10695714Y-16053429D01*
X10667143Y-16067714D01*
X10624286Y-16067714D01*
X10895714Y-16067714D02*
X10867143Y-16053429D01*
X10852857Y-16024857D01*
X10852857Y-15767714D01*
X11124286Y-16053429D02*
X11095714Y-16067714D01*
X11038571Y-16067714D01*
X11010000Y-16053429D01*
X10995714Y-16024857D01*
X10995714Y-15910571D01*
X11010000Y-15882000D01*
X11038571Y-15867714D01*
X11095714Y-15867714D01*
X11124286Y-15882000D01*
X11138571Y-15910571D01*
X11138571Y-15939143D01*
X10995714Y-15967714D01*
X11252857Y-16053429D02*
X11281428Y-16067714D01*
X11338571Y-16067714D01*
X11367143Y-16053429D01*
X11381428Y-16024857D01*
X11381428Y-16010571D01*
X11367143Y-15982000D01*
X11338571Y-15967714D01*
X11295714Y-15967714D01*
X11267143Y-15953429D01*
X11252857Y-15924857D01*
X11252857Y-15910571D01*
X11267143Y-15882000D01*
X11295714Y-15867714D01*
X11338571Y-15867714D01*
X11367143Y-15882000D01*
X11481428Y-16182000D02*
X11495714Y-16167714D01*
X11524286Y-16124857D01*
X11538571Y-16096286D01*
X11552857Y-16053429D01*
X11567143Y-15982000D01*
X11567143Y-15924857D01*
X11552857Y-15853429D01*
X11538571Y-15810571D01*
X11524286Y-15782000D01*
X11495714Y-15739143D01*
X11481428Y-15724857D01*
X12024286Y-16182000D02*
X12010000Y-16167714D01*
X11981428Y-16124857D01*
X11967143Y-16096286D01*
X11952857Y-16053429D01*
X11938571Y-15982000D01*
X11938571Y-15924857D01*
X11952857Y-15853429D01*
X11967143Y-15810571D01*
X11981428Y-15782000D01*
X12010000Y-15739143D01*
X12024286Y-15724857D01*
X12138571Y-15867714D02*
X12138571Y-16067714D01*
X12138571Y-15896286D02*
X12152857Y-15882000D01*
X12181428Y-15867714D01*
X12224286Y-15867714D01*
X12252857Y-15882000D01*
X12267143Y-15910571D01*
X12267143Y-16067714D01*
X12452857Y-16067714D02*
X12424286Y-16053429D01*
X12410000Y-16039143D01*
X12395714Y-16010571D01*
X12395714Y-15924857D01*
X12410000Y-15896286D01*
X12424286Y-15882000D01*
X12452857Y-15867714D01*
X12495714Y-15867714D01*
X12524286Y-15882000D01*
X12538571Y-15896286D01*
X12552857Y-15924857D01*
X12552857Y-16010571D01*
X12538571Y-16039143D01*
X12524286Y-16053429D01*
X12495714Y-16067714D01*
X12452857Y-16067714D01*
X12638571Y-15867714D02*
X12752857Y-15867714D01*
X12681428Y-15767714D02*
X12681428Y-16024857D01*
X12695714Y-16053429D01*
X12724286Y-16067714D01*
X12752857Y-16067714D01*
X13081428Y-15867714D02*
X13081428Y-16167714D01*
X13081428Y-15882000D02*
X13110000Y-15867714D01*
X13167143Y-15867714D01*
X13195714Y-15882000D01*
X13210000Y-15896286D01*
X13224286Y-15924857D01*
X13224286Y-16010571D01*
X13210000Y-16039143D01*
X13195714Y-16053429D01*
X13167143Y-16067714D01*
X13110000Y-16067714D01*
X13081428Y-16053429D01*
X13395714Y-16067714D02*
X13367143Y-16053429D01*
X13352857Y-16024857D01*
X13352857Y-15767714D01*
X13638571Y-16067714D02*
X13638571Y-15910571D01*
X13624286Y-15882000D01*
X13595714Y-15867714D01*
X13538571Y-15867714D01*
X13510000Y-15882000D01*
X13638571Y-16053429D02*
X13610000Y-16067714D01*
X13538571Y-16067714D01*
X13510000Y-16053429D01*
X13495714Y-16024857D01*
X13495714Y-15996286D01*
X13510000Y-15967714D01*
X13538571Y-15953429D01*
X13610000Y-15953429D01*
X13638571Y-15939143D01*
X13738571Y-15867714D02*
X13852857Y-15867714D01*
X13781428Y-15767714D02*
X13781428Y-16024857D01*
X13795714Y-16053429D01*
X13824286Y-16067714D01*
X13852857Y-16067714D01*
X14067143Y-16053429D02*
X14038571Y-16067714D01*
X13981428Y-16067714D01*
X13952857Y-16053429D01*
X13938571Y-16024857D01*
X13938571Y-15910571D01*
X13952857Y-15882000D01*
X13981428Y-15867714D01*
X14038571Y-15867714D01*
X14067143Y-15882000D01*
X14081428Y-15910571D01*
X14081428Y-15939143D01*
X13938571Y-15967714D01*
X14338571Y-16067714D02*
X14338571Y-15767714D01*
X14338571Y-16053429D02*
X14310000Y-16067714D01*
X14252857Y-16067714D01*
X14224286Y-16053429D01*
X14210000Y-16039143D01*
X14195714Y-16010571D01*
X14195714Y-15924857D01*
X14210000Y-15896286D01*
X14224286Y-15882000D01*
X14252857Y-15867714D01*
X14310000Y-15867714D01*
X14338571Y-15882000D01*
X14452857Y-16182000D02*
X14467143Y-16167714D01*
X14495714Y-16124857D01*
X14510000Y-16096286D01*
X14524286Y-16053429D01*
X14538571Y-15982000D01*
X14538571Y-15924857D01*
X14524286Y-15853429D01*
X14510000Y-15810571D01*
X14495714Y-15782000D01*
X14467143Y-15739143D01*
X14452857Y-15724857D01*
M02*
