G04 #@! TF.GenerationSoftware,KiCad,Pcbnew,(5.1.6-0-10_14)*
G04 #@! TF.CreationDate,2021-12-22T00:37:34+01:00*
G04 #@! TF.ProjectId,CHAdeMO_V2.0,43484164-654d-44f5-9f56-322e302e6b69,rev?*
G04 #@! TF.SameCoordinates,Original*
G04 #@! TF.FileFunction,Copper,L2,Inr*
G04 #@! TF.FilePolarity,Positive*
%FSLAX46Y46*%
G04 Gerber Fmt 4.6, Leading zero omitted, Abs format (unit mm)*
G04 Created by KiCad (PCBNEW (5.1.6-0-10_14)) date 2021-12-22 00:37:34*
%MOMM*%
%LPD*%
G01*
G04 APERTURE LIST*
G04 #@! TA.AperFunction,ViaPad*
%ADD10C,1.875000*%
G04 #@! TD*
G04 #@! TA.AperFunction,ViaPad*
%ADD11C,1.333000*%
G04 #@! TD*
G04 #@! TA.AperFunction,ViaPad*
%ADD12C,1.350000*%
G04 #@! TD*
G04 #@! TA.AperFunction,ViaPad*
%ADD13C,4.575000*%
G04 #@! TD*
G04 #@! TA.AperFunction,ViaPad*
%ADD14C,1.905000*%
G04 #@! TD*
G04 #@! TA.AperFunction,ViaPad*
%ADD15C,1.270000*%
G04 #@! TD*
G04 #@! TA.AperFunction,ViaPad*
%ADD16C,1.368000*%
G04 #@! TD*
G04 #@! TA.AperFunction,ViaPad*
%ADD17R,1.368000X1.368000*%
G04 #@! TD*
G04 #@! TA.AperFunction,ViaPad*
%ADD18C,2.175000*%
G04 #@! TD*
G04 #@! TA.AperFunction,ViaPad*
%ADD19R,2.175000X2.175000*%
G04 #@! TD*
G04 #@! TA.AperFunction,ViaPad*
%ADD20C,1.430000*%
G04 #@! TD*
G04 #@! TA.AperFunction,ViaPad*
%ADD21C,3.450000*%
G04 #@! TD*
G04 #@! TA.AperFunction,ViaPad*
%ADD22C,1.431000*%
G04 #@! TD*
G04 #@! TA.AperFunction,ViaPad*
%ADD23C,0.800000*%
G04 #@! TD*
G04 #@! TA.AperFunction,Conductor*
%ADD24C,0.254000*%
G04 #@! TD*
G04 APERTURE END LIST*
D10*
X93868000Y-65541600D03*
X85868000Y-62541600D03*
X93868000Y-62541600D03*
D11*
X94368000Y-72741600D03*
X86868000Y-66141600D03*
D12*
X86563200Y-95707200D03*
X89103200Y-95707200D03*
X91643200Y-95707200D03*
D13*
X100000000Y-50000000D03*
D14*
X108890000Y-50000000D03*
X112390000Y-50000000D03*
X115890000Y-50000000D03*
X119390000Y-50000000D03*
X122890000Y-50000000D03*
X126390000Y-50000000D03*
X129890000Y-50000000D03*
D15*
X133390000Y-50000000D03*
D14*
X136890000Y-50000000D03*
X140390000Y-50000000D03*
X108890000Y-54000000D03*
X112390000Y-54000000D03*
X115890000Y-54000000D03*
X119390000Y-54000000D03*
X122890000Y-54000000D03*
X126390000Y-54000000D03*
X129890000Y-54000000D03*
D15*
X133390000Y-54000000D03*
D14*
X136890000Y-54000000D03*
D15*
X140390000Y-54000000D03*
D14*
X66620000Y-50000000D03*
X70120000Y-50000000D03*
X73620000Y-50000000D03*
X77120000Y-50000000D03*
X80620000Y-50000000D03*
X84120000Y-50000000D03*
X66620000Y-54000000D03*
X70120000Y-54000000D03*
X73620000Y-54000000D03*
X77120000Y-54000000D03*
X80620000Y-54000000D03*
X84120000Y-54000000D03*
D16*
X52213000Y-48810000D03*
D17*
X54213000Y-48810000D03*
D18*
X113030000Y-68339600D03*
D19*
X113030000Y-62839600D03*
D20*
X132689600Y-109524800D03*
X130149600Y-109524800D03*
X127609600Y-109524800D03*
X125069600Y-109524800D03*
X67945000Y-101092000D03*
X70485000Y-101092000D03*
X73025000Y-101092000D03*
X75565000Y-101092000D03*
D21*
X113479400Y-87762200D03*
X113479400Y-99802200D03*
D22*
X113969400Y-92532200D03*
X113969400Y-95032200D03*
X110769400Y-95032200D03*
X110769400Y-92532200D03*
D23*
X105600500Y-118491000D03*
X77292200Y-126517400D03*
X87185500Y-117475000D03*
X76085700Y-116560600D03*
X101855510Y-116550200D03*
X100388847Y-116369000D03*
X94513400Y-107543600D03*
X97459800Y-110083600D03*
X87325200Y-112090200D03*
X98679000Y-104546400D03*
X93599000Y-104800400D03*
X100914200Y-110172500D03*
X103797100Y-110096300D03*
X82270600Y-110515400D03*
X105689400Y-128930400D03*
X96189800Y-135026400D03*
X114528600Y-112623600D03*
X87122000Y-133477000D03*
X97001500Y-116380002D03*
X121640600Y-66802000D03*
X72593200Y-92405200D03*
X74269600Y-85013800D03*
X91338400Y-83185000D03*
X101600000Y-105549700D03*
X116116100Y-129870200D03*
X95504000Y-55943500D03*
X102425500Y-124155200D03*
X97001500Y-126619000D03*
X131762500Y-62484000D03*
X88773000Y-55943500D03*
X88773000Y-44577000D03*
X97091500Y-44577000D03*
X140462000Y-121602500D03*
X140462000Y-132651500D03*
X140462000Y-143700500D03*
X60007500Y-143700500D03*
X119646700Y-148018500D03*
X133731000Y-148018500D03*
X60007500Y-110553500D03*
X60007500Y-121602500D03*
X60007500Y-132651500D03*
X105562400Y-148018500D03*
X91478100Y-148018500D03*
X77393800Y-148018500D03*
X63309500Y-148018500D03*
X100584000Y-94691200D03*
X108204000Y-86080600D03*
X73888600Y-73533000D03*
X85420200Y-89230200D03*
X103098600Y-67589400D03*
X127723900Y-105524300D03*
X112064800Y-118745000D03*
X111125000Y-116738400D03*
X94157800Y-141960600D03*
X124307600Y-98806000D03*
X80518000Y-135432800D03*
X80441800Y-130556000D03*
X91363800Y-110083600D03*
X94615000Y-116484400D03*
X77914500Y-124206000D03*
X88836500Y-118999000D03*
X89281000Y-131318000D03*
X122275600Y-79502000D03*
X124777500Y-79502000D03*
X71120000Y-61468000D03*
X121221500Y-96202500D03*
X97663000Y-67691000D03*
X124155200Y-72898000D03*
X115697000Y-60960000D03*
X124841000Y-61087000D03*
X81534000Y-116332000D03*
X83566000Y-119253000D03*
X83693000Y-125984000D03*
X85090000Y-115824000D03*
X107416600Y-110121700D03*
X108839000Y-120853200D03*
X83947000Y-130073400D03*
X96875600Y-138379200D03*
X106045000Y-61341000D03*
X88366600Y-71526400D03*
X77851000Y-125603000D03*
X80340200Y-120345200D03*
X97637600Y-112953800D03*
X94513400Y-110236000D03*
X108546900Y-108127800D03*
X80314800Y-112852200D03*
X80645000Y-132994400D03*
X96520000Y-141859000D03*
X87858600Y-102489000D03*
X78892400Y-110642400D03*
X102743000Y-143383000D03*
X124155200Y-71348600D03*
X84937600Y-142646400D03*
X102412800Y-100457000D03*
X78130400Y-91567000D03*
X78968600Y-91567000D03*
X124485400Y-93345000D03*
X121323100Y-110401100D03*
X119519700Y-108750100D03*
X110375700Y-128524000D03*
X91262200Y-112928400D03*
X77101700Y-118592600D03*
X77343000Y-81584800D03*
X91338400Y-131318000D03*
X86207600Y-111404400D03*
X106172000Y-59245500D03*
X108839000Y-59245500D03*
X113017300Y-130200400D03*
X113030000Y-124155200D03*
X72593200Y-68173600D03*
X83007200Y-128803400D03*
X94284800Y-120904000D03*
X89941400Y-83261200D03*
X77495400Y-77317600D03*
X100568219Y-133848381D03*
X83286600Y-88493600D03*
X99415600Y-134035800D03*
X64109600Y-78359000D03*
X53263800Y-55829200D03*
X69291200Y-88900000D03*
X51816000Y-62484000D03*
X60007500Y-69850000D03*
X60007500Y-83417833D03*
X60007500Y-96985666D03*
X54673500Y-52451000D03*
X68262500Y-68834000D03*
X135382000Y-90424000D03*
X140081000Y-43497500D03*
X147828000Y-49720500D03*
X147828000Y-62484000D03*
X140081000Y-69850000D03*
X140081000Y-83417833D03*
X140081000Y-96985666D03*
X140081000Y-110553500D03*
X138633200Y-60190854D03*
X127381000Y-74993500D03*
X106172000Y-54991000D03*
X109918500Y-46228000D03*
X108902500Y-52006500D03*
X105981500Y-43497500D03*
X129032000Y-83058000D03*
X131445000Y-93726000D03*
X101727000Y-62230000D03*
X103855500Y-113474500D03*
X103517700Y-105535890D03*
X118872000Y-58547000D03*
D24*
G36*
X104013000Y-56261000D02*
G01*
X104025201Y-56384882D01*
X104061336Y-56504004D01*
X104120017Y-56613787D01*
X104198987Y-56710013D01*
X104295213Y-56788983D01*
X104404996Y-56847664D01*
X104524118Y-56883799D01*
X104648000Y-56896000D01*
X110426500Y-56896000D01*
X110550382Y-56883799D01*
X110669504Y-56847664D01*
X110779287Y-56788983D01*
X110875513Y-56710013D01*
X110954483Y-56613787D01*
X111013164Y-56504004D01*
X111049299Y-56384882D01*
X111061500Y-56261000D01*
X111061500Y-54869183D01*
X111156908Y-55011972D01*
X111378028Y-55233092D01*
X111638037Y-55406824D01*
X111926943Y-55526493D01*
X112233645Y-55587500D01*
X112546355Y-55587500D01*
X112853057Y-55526493D01*
X113141963Y-55406824D01*
X113401972Y-55233092D01*
X113623092Y-55011972D01*
X113796824Y-54751963D01*
X113916493Y-54463057D01*
X113977500Y-54156355D01*
X113977500Y-53843645D01*
X114302500Y-53843645D01*
X114302500Y-54156355D01*
X114363507Y-54463057D01*
X114483176Y-54751963D01*
X114656908Y-55011972D01*
X114878028Y-55233092D01*
X115138037Y-55406824D01*
X115426943Y-55526493D01*
X115733645Y-55587500D01*
X116046355Y-55587500D01*
X116353057Y-55526493D01*
X116641963Y-55406824D01*
X116901972Y-55233092D01*
X117123092Y-55011972D01*
X117296824Y-54751963D01*
X117416493Y-54463057D01*
X117477500Y-54156355D01*
X117477500Y-53843645D01*
X117802500Y-53843645D01*
X117802500Y-54156355D01*
X117863507Y-54463057D01*
X117983176Y-54751963D01*
X118156908Y-55011972D01*
X118378028Y-55233092D01*
X118638037Y-55406824D01*
X118926943Y-55526493D01*
X119233645Y-55587500D01*
X119546355Y-55587500D01*
X119853057Y-55526493D01*
X120141963Y-55406824D01*
X120401972Y-55233092D01*
X120623092Y-55011972D01*
X120796824Y-54751963D01*
X120916493Y-54463057D01*
X120977500Y-54156355D01*
X120977500Y-53843645D01*
X121302500Y-53843645D01*
X121302500Y-54156355D01*
X121363507Y-54463057D01*
X121483176Y-54751963D01*
X121656908Y-55011972D01*
X121878028Y-55233092D01*
X122138037Y-55406824D01*
X122426943Y-55526493D01*
X122733645Y-55587500D01*
X123046355Y-55587500D01*
X123353057Y-55526493D01*
X123641963Y-55406824D01*
X123901972Y-55233092D01*
X124123092Y-55011972D01*
X124296824Y-54751963D01*
X124416493Y-54463057D01*
X124477500Y-54156355D01*
X124477500Y-53843645D01*
X124802500Y-53843645D01*
X124802500Y-54156355D01*
X124863507Y-54463057D01*
X124983176Y-54751963D01*
X125156908Y-55011972D01*
X125378028Y-55233092D01*
X125638037Y-55406824D01*
X125926943Y-55526493D01*
X126233645Y-55587500D01*
X126546355Y-55587500D01*
X126853057Y-55526493D01*
X127141963Y-55406824D01*
X127401972Y-55233092D01*
X127623092Y-55011972D01*
X127796824Y-54751963D01*
X127916493Y-54463057D01*
X127977500Y-54156355D01*
X127977500Y-53843645D01*
X128302500Y-53843645D01*
X128302500Y-54156355D01*
X128363507Y-54463057D01*
X128483176Y-54751963D01*
X128656908Y-55011972D01*
X128878028Y-55233092D01*
X129138037Y-55406824D01*
X129426943Y-55526493D01*
X129733645Y-55587500D01*
X130046355Y-55587500D01*
X130353057Y-55526493D01*
X130641963Y-55406824D01*
X130901972Y-55233092D01*
X131123092Y-55011972D01*
X131296824Y-54751963D01*
X131416493Y-54463057D01*
X131477500Y-54156355D01*
X131477500Y-53862408D01*
X131993000Y-53862408D01*
X131993000Y-54137592D01*
X132046686Y-54407490D01*
X132151995Y-54661727D01*
X132304880Y-54890535D01*
X132499465Y-55085120D01*
X132728273Y-55238005D01*
X132982510Y-55343314D01*
X133252408Y-55397000D01*
X133527592Y-55397000D01*
X133797490Y-55343314D01*
X134051727Y-55238005D01*
X134280535Y-55085120D01*
X134475120Y-54890535D01*
X134628005Y-54661727D01*
X134733314Y-54407490D01*
X134787000Y-54137592D01*
X134787000Y-54064474D01*
X135296123Y-54064474D01*
X135339328Y-54374185D01*
X135442123Y-54669516D01*
X135528919Y-54831902D01*
X135788465Y-54921930D01*
X136710395Y-54000000D01*
X135788465Y-53078070D01*
X135528919Y-53168098D01*
X135392776Y-53449616D01*
X135314171Y-53752286D01*
X135296123Y-54064474D01*
X134787000Y-54064474D01*
X134787000Y-53862408D01*
X134733314Y-53592510D01*
X134628005Y-53338273D01*
X134475120Y-53109465D01*
X134280535Y-52914880D01*
X134051727Y-52761995D01*
X133797490Y-52656686D01*
X133527592Y-52603000D01*
X133252408Y-52603000D01*
X132982510Y-52656686D01*
X132728273Y-52761995D01*
X132499465Y-52914880D01*
X132304880Y-53109465D01*
X132151995Y-53338273D01*
X132046686Y-53592510D01*
X131993000Y-53862408D01*
X131477500Y-53862408D01*
X131477500Y-53843645D01*
X131416493Y-53536943D01*
X131296824Y-53248037D01*
X131123092Y-52988028D01*
X130901972Y-52766908D01*
X130641963Y-52593176D01*
X130353057Y-52473507D01*
X130046355Y-52412500D01*
X129733645Y-52412500D01*
X129426943Y-52473507D01*
X129138037Y-52593176D01*
X128878028Y-52766908D01*
X128656908Y-52988028D01*
X128483176Y-53248037D01*
X128363507Y-53536943D01*
X128302500Y-53843645D01*
X127977500Y-53843645D01*
X127916493Y-53536943D01*
X127796824Y-53248037D01*
X127623092Y-52988028D01*
X127401972Y-52766908D01*
X127141963Y-52593176D01*
X126853057Y-52473507D01*
X126546355Y-52412500D01*
X126233645Y-52412500D01*
X125926943Y-52473507D01*
X125638037Y-52593176D01*
X125378028Y-52766908D01*
X125156908Y-52988028D01*
X124983176Y-53248037D01*
X124863507Y-53536943D01*
X124802500Y-53843645D01*
X124477500Y-53843645D01*
X124416493Y-53536943D01*
X124296824Y-53248037D01*
X124123092Y-52988028D01*
X123901972Y-52766908D01*
X123641963Y-52593176D01*
X123353057Y-52473507D01*
X123046355Y-52412500D01*
X122733645Y-52412500D01*
X122426943Y-52473507D01*
X122138037Y-52593176D01*
X121878028Y-52766908D01*
X121656908Y-52988028D01*
X121483176Y-53248037D01*
X121363507Y-53536943D01*
X121302500Y-53843645D01*
X120977500Y-53843645D01*
X120916493Y-53536943D01*
X120796824Y-53248037D01*
X120623092Y-52988028D01*
X120401972Y-52766908D01*
X120141963Y-52593176D01*
X119853057Y-52473507D01*
X119546355Y-52412500D01*
X119233645Y-52412500D01*
X118926943Y-52473507D01*
X118638037Y-52593176D01*
X118378028Y-52766908D01*
X118156908Y-52988028D01*
X117983176Y-53248037D01*
X117863507Y-53536943D01*
X117802500Y-53843645D01*
X117477500Y-53843645D01*
X117416493Y-53536943D01*
X117296824Y-53248037D01*
X117123092Y-52988028D01*
X116901972Y-52766908D01*
X116641963Y-52593176D01*
X116353057Y-52473507D01*
X116046355Y-52412500D01*
X115733645Y-52412500D01*
X115426943Y-52473507D01*
X115138037Y-52593176D01*
X114878028Y-52766908D01*
X114656908Y-52988028D01*
X114483176Y-53248037D01*
X114363507Y-53536943D01*
X114302500Y-53843645D01*
X113977500Y-53843645D01*
X113916493Y-53536943D01*
X113796824Y-53248037D01*
X113623092Y-52988028D01*
X113401972Y-52766908D01*
X113141963Y-52593176D01*
X112853057Y-52473507D01*
X112546355Y-52412500D01*
X112233645Y-52412500D01*
X111926943Y-52473507D01*
X111638037Y-52593176D01*
X111378028Y-52766908D01*
X111156908Y-52988028D01*
X111061500Y-53130817D01*
X111061500Y-51101535D01*
X111468070Y-51101535D01*
X111558098Y-51361081D01*
X111839616Y-51497224D01*
X112142286Y-51575829D01*
X112454474Y-51593877D01*
X112764185Y-51550672D01*
X113059516Y-51447877D01*
X113221902Y-51361081D01*
X113311930Y-51101535D01*
X112390000Y-50179605D01*
X111468070Y-51101535D01*
X111061500Y-51101535D01*
X111061500Y-50843203D01*
X111288465Y-50921930D01*
X112210395Y-50000000D01*
X112569605Y-50000000D01*
X113491535Y-50921930D01*
X113751081Y-50831902D01*
X113887224Y-50550384D01*
X113965829Y-50247714D01*
X113983877Y-49935526D01*
X113971060Y-49843645D01*
X114302500Y-49843645D01*
X114302500Y-50156355D01*
X114363507Y-50463057D01*
X114483176Y-50751963D01*
X114656908Y-51011972D01*
X114878028Y-51233092D01*
X115138037Y-51406824D01*
X115426943Y-51526493D01*
X115733645Y-51587500D01*
X116046355Y-51587500D01*
X116353057Y-51526493D01*
X116641963Y-51406824D01*
X116901972Y-51233092D01*
X117123092Y-51011972D01*
X117296824Y-50751963D01*
X117416493Y-50463057D01*
X117477500Y-50156355D01*
X117477500Y-49843645D01*
X117802500Y-49843645D01*
X117802500Y-50156355D01*
X117863507Y-50463057D01*
X117983176Y-50751963D01*
X118156908Y-51011972D01*
X118378028Y-51233092D01*
X118638037Y-51406824D01*
X118926943Y-51526493D01*
X119233645Y-51587500D01*
X119546355Y-51587500D01*
X119853057Y-51526493D01*
X120141963Y-51406824D01*
X120401972Y-51233092D01*
X120623092Y-51011972D01*
X120796824Y-50751963D01*
X120916493Y-50463057D01*
X120977500Y-50156355D01*
X120977500Y-49843645D01*
X121302500Y-49843645D01*
X121302500Y-50156355D01*
X121363507Y-50463057D01*
X121483176Y-50751963D01*
X121656908Y-51011972D01*
X121878028Y-51233092D01*
X122138037Y-51406824D01*
X122426943Y-51526493D01*
X122733645Y-51587500D01*
X123046355Y-51587500D01*
X123353057Y-51526493D01*
X123641963Y-51406824D01*
X123901972Y-51233092D01*
X124123092Y-51011972D01*
X124296824Y-50751963D01*
X124416493Y-50463057D01*
X124477500Y-50156355D01*
X124477500Y-49843645D01*
X124802500Y-49843645D01*
X124802500Y-50156355D01*
X124863507Y-50463057D01*
X124983176Y-50751963D01*
X125156908Y-51011972D01*
X125378028Y-51233092D01*
X125638037Y-51406824D01*
X125926943Y-51526493D01*
X126233645Y-51587500D01*
X126546355Y-51587500D01*
X126853057Y-51526493D01*
X127141963Y-51406824D01*
X127401972Y-51233092D01*
X127533529Y-51101535D01*
X128968070Y-51101535D01*
X129058098Y-51361081D01*
X129339616Y-51497224D01*
X129642286Y-51575829D01*
X129954474Y-51593877D01*
X130264185Y-51550672D01*
X130559516Y-51447877D01*
X130721902Y-51361081D01*
X130811930Y-51101535D01*
X129890000Y-50179605D01*
X128968070Y-51101535D01*
X127533529Y-51101535D01*
X127623092Y-51011972D01*
X127796824Y-50751963D01*
X127916493Y-50463057D01*
X127977500Y-50156355D01*
X127977500Y-50064474D01*
X128296123Y-50064474D01*
X128339328Y-50374185D01*
X128442123Y-50669516D01*
X128528919Y-50831902D01*
X128788465Y-50921930D01*
X129710395Y-50000000D01*
X130069605Y-50000000D01*
X130991535Y-50921930D01*
X131251081Y-50831902D01*
X131387224Y-50550384D01*
X131465829Y-50247714D01*
X131483877Y-49935526D01*
X131440672Y-49625815D01*
X131337877Y-49330484D01*
X131251081Y-49168098D01*
X130991535Y-49078070D01*
X130069605Y-50000000D01*
X129710395Y-50000000D01*
X128788465Y-49078070D01*
X128528919Y-49168098D01*
X128392776Y-49449616D01*
X128314171Y-49752286D01*
X128296123Y-50064474D01*
X127977500Y-50064474D01*
X127977500Y-49843645D01*
X127916493Y-49536943D01*
X127796824Y-49248037D01*
X127623092Y-48988028D01*
X127533529Y-48898465D01*
X128968070Y-48898465D01*
X129890000Y-49820395D01*
X130811930Y-48898465D01*
X130721902Y-48638919D01*
X130440384Y-48502776D01*
X130137714Y-48424171D01*
X129825526Y-48406123D01*
X129515815Y-48449328D01*
X129220484Y-48552123D01*
X129058098Y-48638919D01*
X128968070Y-48898465D01*
X127533529Y-48898465D01*
X127401972Y-48766908D01*
X127141963Y-48593176D01*
X126853057Y-48473507D01*
X126546355Y-48412500D01*
X126233645Y-48412500D01*
X125926943Y-48473507D01*
X125638037Y-48593176D01*
X125378028Y-48766908D01*
X125156908Y-48988028D01*
X124983176Y-49248037D01*
X124863507Y-49536943D01*
X124802500Y-49843645D01*
X124477500Y-49843645D01*
X124416493Y-49536943D01*
X124296824Y-49248037D01*
X124123092Y-48988028D01*
X123901972Y-48766908D01*
X123641963Y-48593176D01*
X123353057Y-48473507D01*
X123046355Y-48412500D01*
X122733645Y-48412500D01*
X122426943Y-48473507D01*
X122138037Y-48593176D01*
X121878028Y-48766908D01*
X121656908Y-48988028D01*
X121483176Y-49248037D01*
X121363507Y-49536943D01*
X121302500Y-49843645D01*
X120977500Y-49843645D01*
X120916493Y-49536943D01*
X120796824Y-49248037D01*
X120623092Y-48988028D01*
X120401972Y-48766908D01*
X120141963Y-48593176D01*
X119853057Y-48473507D01*
X119546355Y-48412500D01*
X119233645Y-48412500D01*
X118926943Y-48473507D01*
X118638037Y-48593176D01*
X118378028Y-48766908D01*
X118156908Y-48988028D01*
X117983176Y-49248037D01*
X117863507Y-49536943D01*
X117802500Y-49843645D01*
X117477500Y-49843645D01*
X117416493Y-49536943D01*
X117296824Y-49248037D01*
X117123092Y-48988028D01*
X116901972Y-48766908D01*
X116641963Y-48593176D01*
X116353057Y-48473507D01*
X116046355Y-48412500D01*
X115733645Y-48412500D01*
X115426943Y-48473507D01*
X115138037Y-48593176D01*
X114878028Y-48766908D01*
X114656908Y-48988028D01*
X114483176Y-49248037D01*
X114363507Y-49536943D01*
X114302500Y-49843645D01*
X113971060Y-49843645D01*
X113940672Y-49625815D01*
X113837877Y-49330484D01*
X113751081Y-49168098D01*
X113491535Y-49078070D01*
X112569605Y-50000000D01*
X112210395Y-50000000D01*
X111288465Y-49078070D01*
X111061500Y-49156797D01*
X111061500Y-48898465D01*
X111468070Y-48898465D01*
X112390000Y-49820395D01*
X113311930Y-48898465D01*
X113221902Y-48638919D01*
X112940384Y-48502776D01*
X112637714Y-48424171D01*
X112325526Y-48406123D01*
X112015815Y-48449328D01*
X111720484Y-48552123D01*
X111558098Y-48638919D01*
X111468070Y-48898465D01*
X111061500Y-48898465D01*
X111061500Y-47434500D01*
X134493000Y-47434500D01*
X134493000Y-49136224D01*
X134475120Y-49109465D01*
X134280535Y-48914880D01*
X134051727Y-48761995D01*
X133797490Y-48656686D01*
X133527592Y-48603000D01*
X133252408Y-48603000D01*
X132982510Y-48656686D01*
X132728273Y-48761995D01*
X132499465Y-48914880D01*
X132304880Y-49109465D01*
X132151995Y-49338273D01*
X132046686Y-49592510D01*
X131993000Y-49862408D01*
X131993000Y-50137592D01*
X132046686Y-50407490D01*
X132151995Y-50661727D01*
X132304880Y-50890535D01*
X132499465Y-51085120D01*
X132728273Y-51238005D01*
X132982510Y-51343314D01*
X133252408Y-51397000D01*
X133527592Y-51397000D01*
X133797490Y-51343314D01*
X134051727Y-51238005D01*
X134280535Y-51085120D01*
X134475120Y-50890535D01*
X134493000Y-50863776D01*
X134493000Y-51790602D01*
X134505201Y-51914485D01*
X134541337Y-52033606D01*
X134600017Y-52143389D01*
X134678987Y-52239615D01*
X134775213Y-52318585D01*
X134884996Y-52377266D01*
X135004118Y-52413401D01*
X135128000Y-52425602D01*
X136685901Y-52425601D01*
X136515815Y-52449328D01*
X136220484Y-52552123D01*
X136058098Y-52638919D01*
X135968070Y-52898465D01*
X136890000Y-53820395D01*
X136904143Y-53806253D01*
X137083748Y-53985858D01*
X137069605Y-54000000D01*
X137083748Y-54014143D01*
X136904143Y-54193748D01*
X136890000Y-54179605D01*
X135968070Y-55101535D01*
X136058098Y-55361081D01*
X136339616Y-55497224D01*
X136642286Y-55575829D01*
X136954474Y-55593877D01*
X137264185Y-55550672D01*
X137559516Y-55447877D01*
X137642600Y-55403468D01*
X137642600Y-56751441D01*
X134116840Y-56724568D01*
X133988118Y-56736751D01*
X133868996Y-56772886D01*
X133759213Y-56831567D01*
X133662987Y-56910537D01*
X133584017Y-57006763D01*
X133525336Y-57116546D01*
X133489201Y-57235668D01*
X133477000Y-57359550D01*
X133477000Y-73025000D01*
X125730000Y-73025000D01*
X125606118Y-73037201D01*
X125486996Y-73073336D01*
X125377213Y-73132017D01*
X125280987Y-73210987D01*
X125202017Y-73307213D01*
X125143336Y-73416996D01*
X125107201Y-73536118D01*
X125095000Y-73660000D01*
X125095000Y-87274400D01*
X125107956Y-87402017D01*
X125144805Y-87520920D01*
X125204143Y-87630349D01*
X125283689Y-87726099D01*
X125380387Y-87804490D01*
X125490520Y-87862511D01*
X125609857Y-87897931D01*
X125733810Y-87909389D01*
X128270000Y-87894172D01*
X128270000Y-108342434D01*
X128249065Y-108328446D01*
X128003380Y-108226680D01*
X127742563Y-108174800D01*
X127476637Y-108174800D01*
X127215820Y-108226680D01*
X126970135Y-108328446D01*
X126749025Y-108476187D01*
X126560987Y-108664225D01*
X126413246Y-108885335D01*
X126338858Y-109064925D01*
X126292739Y-108938194D01*
X126236886Y-108833698D01*
X126001588Y-108772417D01*
X125249205Y-109524800D01*
X126001588Y-110277183D01*
X126236886Y-110215902D01*
X126341617Y-109991337D01*
X126413246Y-110164265D01*
X126560987Y-110385375D01*
X126749025Y-110573413D01*
X126970135Y-110721154D01*
X127215820Y-110822920D01*
X127476637Y-110874800D01*
X127742563Y-110874800D01*
X128003380Y-110822920D01*
X128249065Y-110721154D01*
X128270000Y-110707166D01*
X128270000Y-115309650D01*
X128282165Y-115433348D01*
X128318264Y-115552480D01*
X128376912Y-115662280D01*
X128455854Y-115758530D01*
X128552056Y-115837528D01*
X128661822Y-115896241D01*
X128780933Y-115932412D01*
X128904812Y-115944650D01*
X141865000Y-115948496D01*
X141865000Y-148984500D01*
X58135000Y-148984500D01*
X58135000Y-147550727D01*
X58239000Y-147550727D01*
X58239000Y-147789273D01*
X58285538Y-148023236D01*
X58376825Y-148243624D01*
X58509354Y-148441968D01*
X58678032Y-148610646D01*
X58876376Y-148743175D01*
X59096764Y-148834462D01*
X59330727Y-148881000D01*
X59569273Y-148881000D01*
X59803236Y-148834462D01*
X60023624Y-148743175D01*
X60221968Y-148610646D01*
X60390646Y-148441968D01*
X60523175Y-148243624D01*
X60614462Y-148023236D01*
X60661000Y-147789273D01*
X60661000Y-147550727D01*
X139339000Y-147550727D01*
X139339000Y-147789273D01*
X139385538Y-148023236D01*
X139476825Y-148243624D01*
X139609354Y-148441968D01*
X139778032Y-148610646D01*
X139976376Y-148743175D01*
X140196764Y-148834462D01*
X140430727Y-148881000D01*
X140669273Y-148881000D01*
X140903236Y-148834462D01*
X141123624Y-148743175D01*
X141321968Y-148610646D01*
X141490646Y-148441968D01*
X141623175Y-148243624D01*
X141714462Y-148023236D01*
X141761000Y-147789273D01*
X141761000Y-147550727D01*
X141714462Y-147316764D01*
X141623175Y-147096376D01*
X141490646Y-146898032D01*
X141321968Y-146729354D01*
X141123624Y-146596825D01*
X140903236Y-146505538D01*
X140669273Y-146459000D01*
X140430727Y-146459000D01*
X140196764Y-146505538D01*
X139976376Y-146596825D01*
X139778032Y-146729354D01*
X139609354Y-146898032D01*
X139476825Y-147096376D01*
X139385538Y-147316764D01*
X139339000Y-147550727D01*
X60661000Y-147550727D01*
X60614462Y-147316764D01*
X60523175Y-147096376D01*
X60390646Y-146898032D01*
X60221968Y-146729354D01*
X60023624Y-146596825D01*
X59803236Y-146505538D01*
X59569273Y-146459000D01*
X59330727Y-146459000D01*
X59096764Y-146505538D01*
X58876376Y-146596825D01*
X58678032Y-146729354D01*
X58509354Y-146898032D01*
X58376825Y-147096376D01*
X58285538Y-147316764D01*
X58239000Y-147550727D01*
X58135000Y-147550727D01*
X58135000Y-142544461D01*
X83902600Y-142544461D01*
X83902600Y-142748339D01*
X83942374Y-142948298D01*
X84020395Y-143136656D01*
X84133663Y-143306174D01*
X84277826Y-143450337D01*
X84447344Y-143563605D01*
X84635702Y-143641626D01*
X84835661Y-143681400D01*
X85039539Y-143681400D01*
X85239498Y-143641626D01*
X85427856Y-143563605D01*
X85597374Y-143450337D01*
X85741537Y-143306174D01*
X85758316Y-143281061D01*
X101708000Y-143281061D01*
X101708000Y-143484939D01*
X101747774Y-143684898D01*
X101825795Y-143873256D01*
X101939063Y-144042774D01*
X102083226Y-144186937D01*
X102252744Y-144300205D01*
X102441102Y-144378226D01*
X102641061Y-144418000D01*
X102844939Y-144418000D01*
X103044898Y-144378226D01*
X103233256Y-144300205D01*
X103402774Y-144186937D01*
X103546937Y-144042774D01*
X103660205Y-143873256D01*
X103738226Y-143684898D01*
X103778000Y-143484939D01*
X103778000Y-143281061D01*
X103738226Y-143081102D01*
X103660205Y-142892744D01*
X103546937Y-142723226D01*
X103402774Y-142579063D01*
X103233256Y-142465795D01*
X103044898Y-142387774D01*
X102844939Y-142348000D01*
X102641061Y-142348000D01*
X102441102Y-142387774D01*
X102252744Y-142465795D01*
X102083226Y-142579063D01*
X101939063Y-142723226D01*
X101825795Y-142892744D01*
X101747774Y-143081102D01*
X101708000Y-143281061D01*
X85758316Y-143281061D01*
X85854805Y-143136656D01*
X85932826Y-142948298D01*
X85972600Y-142748339D01*
X85972600Y-142544461D01*
X85932826Y-142344502D01*
X85854805Y-142156144D01*
X85741537Y-141986626D01*
X85597374Y-141842463D01*
X85469561Y-141757061D01*
X95485000Y-141757061D01*
X95485000Y-141960939D01*
X95524774Y-142160898D01*
X95602795Y-142349256D01*
X95716063Y-142518774D01*
X95860226Y-142662937D01*
X96029744Y-142776205D01*
X96218102Y-142854226D01*
X96418061Y-142894000D01*
X96621939Y-142894000D01*
X96821898Y-142854226D01*
X97010256Y-142776205D01*
X97179774Y-142662937D01*
X97323937Y-142518774D01*
X97437205Y-142349256D01*
X97515226Y-142160898D01*
X97555000Y-141960939D01*
X97555000Y-141757061D01*
X97515226Y-141557102D01*
X97437205Y-141368744D01*
X97323937Y-141199226D01*
X97179774Y-141055063D01*
X97010256Y-140941795D01*
X96821898Y-140863774D01*
X96621939Y-140824000D01*
X96418061Y-140824000D01*
X96218102Y-140863774D01*
X96029744Y-140941795D01*
X95860226Y-141055063D01*
X95716063Y-141199226D01*
X95602795Y-141368744D01*
X95524774Y-141557102D01*
X95485000Y-141757061D01*
X85469561Y-141757061D01*
X85427856Y-141729195D01*
X85239498Y-141651174D01*
X85039539Y-141611400D01*
X84835661Y-141611400D01*
X84635702Y-141651174D01*
X84447344Y-141729195D01*
X84277826Y-141842463D01*
X84133663Y-141986626D01*
X84020395Y-142156144D01*
X83942374Y-142344502D01*
X83902600Y-142544461D01*
X58135000Y-142544461D01*
X58135000Y-132892461D01*
X79610000Y-132892461D01*
X79610000Y-133096339D01*
X79649774Y-133296298D01*
X79727795Y-133484656D01*
X79841063Y-133654174D01*
X79985226Y-133798337D01*
X80154744Y-133911605D01*
X80343102Y-133989626D01*
X80543061Y-134029400D01*
X80746939Y-134029400D01*
X80946898Y-133989626D01*
X81081525Y-133933861D01*
X98380600Y-133933861D01*
X98380600Y-134137739D01*
X98420374Y-134337698D01*
X98498395Y-134526056D01*
X98611663Y-134695574D01*
X98755826Y-134839737D01*
X98925344Y-134953005D01*
X99113702Y-135031026D01*
X99313661Y-135070800D01*
X99517539Y-135070800D01*
X99717498Y-135031026D01*
X99905856Y-134953005D01*
X100075374Y-134839737D01*
X100128565Y-134786546D01*
X100266321Y-134843607D01*
X100466280Y-134883381D01*
X100670158Y-134883381D01*
X100870117Y-134843607D01*
X101058475Y-134765586D01*
X101227993Y-134652318D01*
X101372156Y-134508155D01*
X101485424Y-134338637D01*
X101563445Y-134150279D01*
X101603219Y-133950320D01*
X101603219Y-133746442D01*
X101563445Y-133546483D01*
X101485424Y-133358125D01*
X101372156Y-133188607D01*
X101227993Y-133044444D01*
X101058475Y-132931176D01*
X100870117Y-132853155D01*
X100670158Y-132813381D01*
X100466280Y-132813381D01*
X100266321Y-132853155D01*
X100077963Y-132931176D01*
X99908445Y-133044444D01*
X99855254Y-133097635D01*
X99717498Y-133040574D01*
X99517539Y-133000800D01*
X99313661Y-133000800D01*
X99113702Y-133040574D01*
X98925344Y-133118595D01*
X98755826Y-133231863D01*
X98611663Y-133376026D01*
X98498395Y-133545544D01*
X98420374Y-133733902D01*
X98380600Y-133933861D01*
X81081525Y-133933861D01*
X81135256Y-133911605D01*
X81304774Y-133798337D01*
X81448937Y-133654174D01*
X81562205Y-133484656D01*
X81640226Y-133296298D01*
X81680000Y-133096339D01*
X81680000Y-132892461D01*
X81640226Y-132692502D01*
X81562205Y-132504144D01*
X81448937Y-132334626D01*
X81304774Y-132190463D01*
X81135256Y-132077195D01*
X80946898Y-131999174D01*
X80746939Y-131959400D01*
X80543061Y-131959400D01*
X80343102Y-131999174D01*
X80154744Y-132077195D01*
X79985226Y-132190463D01*
X79841063Y-132334626D01*
X79727795Y-132504144D01*
X79649774Y-132692502D01*
X79610000Y-132892461D01*
X58135000Y-132892461D01*
X58135000Y-131216061D01*
X90303400Y-131216061D01*
X90303400Y-131419939D01*
X90343174Y-131619898D01*
X90421195Y-131808256D01*
X90534463Y-131977774D01*
X90678626Y-132121937D01*
X90848144Y-132235205D01*
X91036502Y-132313226D01*
X91236461Y-132353000D01*
X91440339Y-132353000D01*
X91640298Y-132313226D01*
X91828656Y-132235205D01*
X91998174Y-132121937D01*
X92142337Y-131977774D01*
X92255605Y-131808256D01*
X92333626Y-131619898D01*
X92373400Y-131419939D01*
X92373400Y-131216061D01*
X92333626Y-131016102D01*
X92255605Y-130827744D01*
X92142337Y-130658226D01*
X91998174Y-130514063D01*
X91828656Y-130400795D01*
X91640298Y-130322774D01*
X91440339Y-130283000D01*
X91236461Y-130283000D01*
X91036502Y-130322774D01*
X90848144Y-130400795D01*
X90678626Y-130514063D01*
X90534463Y-130658226D01*
X90421195Y-130827744D01*
X90343174Y-131016102D01*
X90303400Y-131216061D01*
X58135000Y-131216061D01*
X58135000Y-130098461D01*
X111982300Y-130098461D01*
X111982300Y-130302339D01*
X112022074Y-130502298D01*
X112100095Y-130690656D01*
X112213363Y-130860174D01*
X112357526Y-131004337D01*
X112527044Y-131117605D01*
X112715402Y-131195626D01*
X112915361Y-131235400D01*
X113119239Y-131235400D01*
X113319198Y-131195626D01*
X113507556Y-131117605D01*
X113677074Y-131004337D01*
X113821237Y-130860174D01*
X113934505Y-130690656D01*
X114012526Y-130502298D01*
X114052300Y-130302339D01*
X114052300Y-130098461D01*
X114012526Y-129898502D01*
X113934505Y-129710144D01*
X113821237Y-129540626D01*
X113677074Y-129396463D01*
X113507556Y-129283195D01*
X113319198Y-129205174D01*
X113119239Y-129165400D01*
X112915361Y-129165400D01*
X112715402Y-129205174D01*
X112527044Y-129283195D01*
X112357526Y-129396463D01*
X112213363Y-129540626D01*
X112100095Y-129710144D01*
X112022074Y-129898502D01*
X111982300Y-130098461D01*
X58135000Y-130098461D01*
X58135000Y-128701461D01*
X81972200Y-128701461D01*
X81972200Y-128905339D01*
X82011974Y-129105298D01*
X82089995Y-129293656D01*
X82203263Y-129463174D01*
X82347426Y-129607337D01*
X82516944Y-129720605D01*
X82705302Y-129798626D01*
X82905261Y-129838400D01*
X83109139Y-129838400D01*
X83309098Y-129798626D01*
X83497456Y-129720605D01*
X83666974Y-129607337D01*
X83811137Y-129463174D01*
X83924405Y-129293656D01*
X84002426Y-129105298D01*
X84042200Y-128905339D01*
X84042200Y-128701461D01*
X84002426Y-128501502D01*
X83969521Y-128422061D01*
X109340700Y-128422061D01*
X109340700Y-128625939D01*
X109380474Y-128825898D01*
X109458495Y-129014256D01*
X109571763Y-129183774D01*
X109715926Y-129327937D01*
X109885444Y-129441205D01*
X110073802Y-129519226D01*
X110273761Y-129559000D01*
X110477639Y-129559000D01*
X110677598Y-129519226D01*
X110865956Y-129441205D01*
X111035474Y-129327937D01*
X111179637Y-129183774D01*
X111292905Y-129014256D01*
X111370926Y-128825898D01*
X111410700Y-128625939D01*
X111410700Y-128422061D01*
X111370926Y-128222102D01*
X111292905Y-128033744D01*
X111179637Y-127864226D01*
X111035474Y-127720063D01*
X110865956Y-127606795D01*
X110677598Y-127528774D01*
X110477639Y-127489000D01*
X110273761Y-127489000D01*
X110073802Y-127528774D01*
X109885444Y-127606795D01*
X109715926Y-127720063D01*
X109571763Y-127864226D01*
X109458495Y-128033744D01*
X109380474Y-128222102D01*
X109340700Y-128422061D01*
X83969521Y-128422061D01*
X83924405Y-128313144D01*
X83811137Y-128143626D01*
X83666974Y-127999463D01*
X83497456Y-127886195D01*
X83309098Y-127808174D01*
X83109139Y-127768400D01*
X82905261Y-127768400D01*
X82705302Y-127808174D01*
X82516944Y-127886195D01*
X82347426Y-127999463D01*
X82203263Y-128143626D01*
X82089995Y-128313144D01*
X82011974Y-128501502D01*
X81972200Y-128701461D01*
X58135000Y-128701461D01*
X58135000Y-125501061D01*
X76816000Y-125501061D01*
X76816000Y-125704939D01*
X76855774Y-125904898D01*
X76933795Y-126093256D01*
X77047063Y-126262774D01*
X77191226Y-126406937D01*
X77360744Y-126520205D01*
X77549102Y-126598226D01*
X77749061Y-126638000D01*
X77952939Y-126638000D01*
X78152898Y-126598226D01*
X78341256Y-126520205D01*
X78510774Y-126406937D01*
X78654937Y-126262774D01*
X78768205Y-126093256D01*
X78846226Y-125904898D01*
X78886000Y-125704939D01*
X78886000Y-125501061D01*
X78846226Y-125301102D01*
X78768205Y-125112744D01*
X78654937Y-124943226D01*
X78510774Y-124799063D01*
X78341256Y-124685795D01*
X78152898Y-124607774D01*
X77952939Y-124568000D01*
X77749061Y-124568000D01*
X77549102Y-124607774D01*
X77360744Y-124685795D01*
X77191226Y-124799063D01*
X77047063Y-124943226D01*
X76933795Y-125112744D01*
X76855774Y-125301102D01*
X76816000Y-125501061D01*
X58135000Y-125501061D01*
X58135000Y-124053261D01*
X111995000Y-124053261D01*
X111995000Y-124257139D01*
X112034774Y-124457098D01*
X112112795Y-124645456D01*
X112226063Y-124814974D01*
X112370226Y-124959137D01*
X112539744Y-125072405D01*
X112728102Y-125150426D01*
X112928061Y-125190200D01*
X113131939Y-125190200D01*
X113331898Y-125150426D01*
X113520256Y-125072405D01*
X113689774Y-124959137D01*
X113833937Y-124814974D01*
X113947205Y-124645456D01*
X114025226Y-124457098D01*
X114065000Y-124257139D01*
X114065000Y-124053261D01*
X114025226Y-123853302D01*
X113947205Y-123664944D01*
X113833937Y-123495426D01*
X113689774Y-123351263D01*
X113520256Y-123237995D01*
X113331898Y-123159974D01*
X113131939Y-123120200D01*
X112928061Y-123120200D01*
X112728102Y-123159974D01*
X112539744Y-123237995D01*
X112370226Y-123351263D01*
X112226063Y-123495426D01*
X112112795Y-123664944D01*
X112034774Y-123853302D01*
X111995000Y-124053261D01*
X58135000Y-124053261D01*
X58135000Y-120243261D01*
X79305200Y-120243261D01*
X79305200Y-120447139D01*
X79344974Y-120647098D01*
X79422995Y-120835456D01*
X79536263Y-121004974D01*
X79680426Y-121149137D01*
X79849944Y-121262405D01*
X80038302Y-121340426D01*
X80238261Y-121380200D01*
X80442139Y-121380200D01*
X80642098Y-121340426D01*
X80830456Y-121262405D01*
X80999974Y-121149137D01*
X81144137Y-121004974D01*
X81257405Y-120835456D01*
X81271237Y-120802061D01*
X93249800Y-120802061D01*
X93249800Y-121005939D01*
X93289574Y-121205898D01*
X93367595Y-121394256D01*
X93480863Y-121563774D01*
X93625026Y-121707937D01*
X93794544Y-121821205D01*
X93982902Y-121899226D01*
X94182861Y-121939000D01*
X94386739Y-121939000D01*
X94586698Y-121899226D01*
X94775056Y-121821205D01*
X94944574Y-121707937D01*
X95088737Y-121563774D01*
X95202005Y-121394256D01*
X95280026Y-121205898D01*
X95319800Y-121005939D01*
X95319800Y-120802061D01*
X95280026Y-120602102D01*
X95202005Y-120413744D01*
X95088737Y-120244226D01*
X94944574Y-120100063D01*
X94775056Y-119986795D01*
X94586698Y-119908774D01*
X94386739Y-119869000D01*
X94182861Y-119869000D01*
X93982902Y-119908774D01*
X93794544Y-119986795D01*
X93625026Y-120100063D01*
X93480863Y-120244226D01*
X93367595Y-120413744D01*
X93289574Y-120602102D01*
X93249800Y-120802061D01*
X81271237Y-120802061D01*
X81335426Y-120647098D01*
X81375200Y-120447139D01*
X81375200Y-120243261D01*
X81335426Y-120043302D01*
X81257405Y-119854944D01*
X81144137Y-119685426D01*
X80999974Y-119541263D01*
X80830456Y-119427995D01*
X80642098Y-119349974D01*
X80442139Y-119310200D01*
X80238261Y-119310200D01*
X80038302Y-119349974D01*
X79849944Y-119427995D01*
X79680426Y-119541263D01*
X79536263Y-119685426D01*
X79422995Y-119854944D01*
X79344974Y-120043302D01*
X79305200Y-120243261D01*
X58135000Y-120243261D01*
X58135000Y-118490661D01*
X76066700Y-118490661D01*
X76066700Y-118694539D01*
X76106474Y-118894498D01*
X76184495Y-119082856D01*
X76297763Y-119252374D01*
X76441926Y-119396537D01*
X76611444Y-119509805D01*
X76799802Y-119587826D01*
X76999761Y-119627600D01*
X77203639Y-119627600D01*
X77403598Y-119587826D01*
X77591956Y-119509805D01*
X77761474Y-119396537D01*
X77905637Y-119252374D01*
X78018905Y-119082856D01*
X78096926Y-118894498D01*
X78136700Y-118694539D01*
X78136700Y-118490661D01*
X78096926Y-118290702D01*
X78018905Y-118102344D01*
X77905637Y-117932826D01*
X77761474Y-117788663D01*
X77591956Y-117675395D01*
X77403598Y-117597374D01*
X77203639Y-117557600D01*
X76999761Y-117557600D01*
X76799802Y-117597374D01*
X76611444Y-117675395D01*
X76441926Y-117788663D01*
X76297763Y-117932826D01*
X76184495Y-118102344D01*
X76106474Y-118290702D01*
X76066700Y-118490661D01*
X58135000Y-118490661D01*
X58135000Y-112750261D01*
X79279800Y-112750261D01*
X79279800Y-112954139D01*
X79319574Y-113154098D01*
X79397595Y-113342456D01*
X79510863Y-113511974D01*
X79655026Y-113656137D01*
X79824544Y-113769405D01*
X80012902Y-113847426D01*
X80212861Y-113887200D01*
X80416739Y-113887200D01*
X80616698Y-113847426D01*
X80805056Y-113769405D01*
X80974574Y-113656137D01*
X81118737Y-113511974D01*
X81232005Y-113342456D01*
X81310026Y-113154098D01*
X81349800Y-112954139D01*
X81349800Y-112826461D01*
X90227200Y-112826461D01*
X90227200Y-113030339D01*
X90266974Y-113230298D01*
X90344995Y-113418656D01*
X90458263Y-113588174D01*
X90602426Y-113732337D01*
X90771944Y-113845605D01*
X90960302Y-113923626D01*
X91160261Y-113963400D01*
X91364139Y-113963400D01*
X91564098Y-113923626D01*
X91752456Y-113845605D01*
X91921974Y-113732337D01*
X92066137Y-113588174D01*
X92179405Y-113418656D01*
X92257426Y-113230298D01*
X92297200Y-113030339D01*
X92297200Y-112851861D01*
X96602600Y-112851861D01*
X96602600Y-113055739D01*
X96642374Y-113255698D01*
X96720395Y-113444056D01*
X96833663Y-113613574D01*
X96977826Y-113757737D01*
X97147344Y-113871005D01*
X97335702Y-113949026D01*
X97535661Y-113988800D01*
X97739539Y-113988800D01*
X97939498Y-113949026D01*
X98127856Y-113871005D01*
X98297374Y-113757737D01*
X98441537Y-113613574D01*
X98554805Y-113444056D01*
X98584419Y-113372561D01*
X102820500Y-113372561D01*
X102820500Y-113576439D01*
X102860274Y-113776398D01*
X102938295Y-113964756D01*
X103051563Y-114134274D01*
X103195726Y-114278437D01*
X103365244Y-114391705D01*
X103553602Y-114469726D01*
X103753561Y-114509500D01*
X103957439Y-114509500D01*
X104157398Y-114469726D01*
X104345756Y-114391705D01*
X104515274Y-114278437D01*
X104659437Y-114134274D01*
X104772705Y-113964756D01*
X104850726Y-113776398D01*
X104890500Y-113576439D01*
X104890500Y-113372561D01*
X104850726Y-113172602D01*
X104772705Y-112984244D01*
X104659437Y-112814726D01*
X104515274Y-112670563D01*
X104345756Y-112557295D01*
X104157398Y-112479274D01*
X103957439Y-112439500D01*
X103753561Y-112439500D01*
X103553602Y-112479274D01*
X103365244Y-112557295D01*
X103195726Y-112670563D01*
X103051563Y-112814726D01*
X102938295Y-112984244D01*
X102860274Y-113172602D01*
X102820500Y-113372561D01*
X98584419Y-113372561D01*
X98632826Y-113255698D01*
X98672600Y-113055739D01*
X98672600Y-112851861D01*
X98632826Y-112651902D01*
X98554805Y-112463544D01*
X98441537Y-112294026D01*
X98297374Y-112149863D01*
X98127856Y-112036595D01*
X97939498Y-111958574D01*
X97739539Y-111918800D01*
X97535661Y-111918800D01*
X97335702Y-111958574D01*
X97147344Y-112036595D01*
X96977826Y-112149863D01*
X96833663Y-112294026D01*
X96720395Y-112463544D01*
X96642374Y-112651902D01*
X96602600Y-112851861D01*
X92297200Y-112851861D01*
X92297200Y-112826461D01*
X92257426Y-112626502D01*
X92179405Y-112438144D01*
X92066137Y-112268626D01*
X91921974Y-112124463D01*
X91752456Y-112011195D01*
X91564098Y-111933174D01*
X91364139Y-111893400D01*
X91160261Y-111893400D01*
X90960302Y-111933174D01*
X90771944Y-112011195D01*
X90602426Y-112124463D01*
X90458263Y-112268626D01*
X90344995Y-112438144D01*
X90266974Y-112626502D01*
X90227200Y-112826461D01*
X81349800Y-112826461D01*
X81349800Y-112750261D01*
X81310026Y-112550302D01*
X81232005Y-112361944D01*
X81118737Y-112192426D01*
X80974574Y-112048263D01*
X80805056Y-111934995D01*
X80616698Y-111856974D01*
X80416739Y-111817200D01*
X80212861Y-111817200D01*
X80012902Y-111856974D01*
X79824544Y-111934995D01*
X79655026Y-112048263D01*
X79510863Y-112192426D01*
X79397595Y-112361944D01*
X79319574Y-112550302D01*
X79279800Y-112750261D01*
X58135000Y-112750261D01*
X58135000Y-110540461D01*
X77857400Y-110540461D01*
X77857400Y-110744339D01*
X77897174Y-110944298D01*
X77975195Y-111132656D01*
X78088463Y-111302174D01*
X78232626Y-111446337D01*
X78402144Y-111559605D01*
X78590502Y-111637626D01*
X78790461Y-111677400D01*
X78994339Y-111677400D01*
X79194298Y-111637626D01*
X79382656Y-111559605D01*
X79552174Y-111446337D01*
X79696050Y-111302461D01*
X85172600Y-111302461D01*
X85172600Y-111506339D01*
X85212374Y-111706298D01*
X85290395Y-111894656D01*
X85403663Y-112064174D01*
X85547826Y-112208337D01*
X85717344Y-112321605D01*
X85905702Y-112399626D01*
X86105661Y-112439400D01*
X86309539Y-112439400D01*
X86509498Y-112399626D01*
X86697856Y-112321605D01*
X86867374Y-112208337D01*
X87011537Y-112064174D01*
X87124805Y-111894656D01*
X87202826Y-111706298D01*
X87242600Y-111506339D01*
X87242600Y-111302461D01*
X87202826Y-111102502D01*
X87124805Y-110914144D01*
X87011537Y-110744626D01*
X86867374Y-110600463D01*
X86697856Y-110487195D01*
X86509498Y-110409174D01*
X86309539Y-110369400D01*
X86105661Y-110369400D01*
X85905702Y-110409174D01*
X85717344Y-110487195D01*
X85547826Y-110600463D01*
X85403663Y-110744626D01*
X85290395Y-110914144D01*
X85212374Y-111102502D01*
X85172600Y-111302461D01*
X79696050Y-111302461D01*
X79696337Y-111302174D01*
X79809605Y-111132656D01*
X79887626Y-110944298D01*
X79927400Y-110744339D01*
X79927400Y-110540461D01*
X79887626Y-110340502D01*
X79809605Y-110152144D01*
X79797523Y-110134061D01*
X93478400Y-110134061D01*
X93478400Y-110337939D01*
X93518174Y-110537898D01*
X93596195Y-110726256D01*
X93709463Y-110895774D01*
X93853626Y-111039937D01*
X94023144Y-111153205D01*
X94211502Y-111231226D01*
X94411461Y-111271000D01*
X94615339Y-111271000D01*
X94815298Y-111231226D01*
X95003656Y-111153205D01*
X95173174Y-111039937D01*
X95317337Y-110895774D01*
X95430605Y-110726256D01*
X95508626Y-110537898D01*
X95548400Y-110337939D01*
X95548400Y-110299161D01*
X120288100Y-110299161D01*
X120288100Y-110503039D01*
X120327874Y-110702998D01*
X120405895Y-110891356D01*
X120519163Y-111060874D01*
X120663326Y-111205037D01*
X120832844Y-111318305D01*
X121021202Y-111396326D01*
X121221161Y-111436100D01*
X121425039Y-111436100D01*
X121624998Y-111396326D01*
X121813356Y-111318305D01*
X121982874Y-111205037D01*
X122127037Y-111060874D01*
X122240305Y-110891356D01*
X122318326Y-110702998D01*
X122358100Y-110503039D01*
X122358100Y-110456788D01*
X124317217Y-110456788D01*
X124378498Y-110692086D01*
X124619503Y-110804484D01*
X124877806Y-110867705D01*
X125143479Y-110879318D01*
X125406312Y-110838878D01*
X125656206Y-110747939D01*
X125760702Y-110692086D01*
X125821983Y-110456788D01*
X125069600Y-109704405D01*
X124317217Y-110456788D01*
X122358100Y-110456788D01*
X122358100Y-110299161D01*
X122318326Y-110099202D01*
X122240305Y-109910844D01*
X122127037Y-109741326D01*
X121984390Y-109598679D01*
X123715082Y-109598679D01*
X123755522Y-109861512D01*
X123846461Y-110111406D01*
X123902314Y-110215902D01*
X124137612Y-110277183D01*
X124889995Y-109524800D01*
X124137612Y-108772417D01*
X123902314Y-108833698D01*
X123789916Y-109074703D01*
X123726695Y-109333006D01*
X123715082Y-109598679D01*
X121984390Y-109598679D01*
X121982874Y-109597163D01*
X121813356Y-109483895D01*
X121624998Y-109405874D01*
X121425039Y-109366100D01*
X121221161Y-109366100D01*
X121021202Y-109405874D01*
X120832844Y-109483895D01*
X120663326Y-109597163D01*
X120519163Y-109741326D01*
X120405895Y-109910844D01*
X120327874Y-110099202D01*
X120288100Y-110299161D01*
X95548400Y-110299161D01*
X95548400Y-110134061D01*
X95508626Y-109934102D01*
X95430605Y-109745744D01*
X95317337Y-109576226D01*
X95173174Y-109432063D01*
X95003656Y-109318795D01*
X94815298Y-109240774D01*
X94615339Y-109201000D01*
X94411461Y-109201000D01*
X94211502Y-109240774D01*
X94023144Y-109318795D01*
X93853626Y-109432063D01*
X93709463Y-109576226D01*
X93596195Y-109745744D01*
X93518174Y-109934102D01*
X93478400Y-110134061D01*
X79797523Y-110134061D01*
X79696337Y-109982626D01*
X79552174Y-109838463D01*
X79382656Y-109725195D01*
X79194298Y-109647174D01*
X78994339Y-109607400D01*
X78790461Y-109607400D01*
X78590502Y-109647174D01*
X78402144Y-109725195D01*
X78232626Y-109838463D01*
X78088463Y-109982626D01*
X77975195Y-110152144D01*
X77897174Y-110340502D01*
X77857400Y-110540461D01*
X58135000Y-110540461D01*
X58135000Y-108338551D01*
X71627459Y-108350050D01*
X71751882Y-108337849D01*
X71871004Y-108301714D01*
X71980787Y-108243033D01*
X72077013Y-108164063D01*
X72155983Y-108067837D01*
X72178419Y-108025861D01*
X107511900Y-108025861D01*
X107511900Y-108229739D01*
X107551674Y-108429698D01*
X107629695Y-108618056D01*
X107742963Y-108787574D01*
X107887126Y-108931737D01*
X108056644Y-109045005D01*
X108245002Y-109123026D01*
X108444961Y-109162800D01*
X108648839Y-109162800D01*
X108848798Y-109123026D01*
X109037156Y-109045005D01*
X109206674Y-108931737D01*
X109350837Y-108787574D01*
X109443989Y-108648161D01*
X118484700Y-108648161D01*
X118484700Y-108852039D01*
X118524474Y-109051998D01*
X118602495Y-109240356D01*
X118715763Y-109409874D01*
X118859926Y-109554037D01*
X119029444Y-109667305D01*
X119217802Y-109745326D01*
X119417761Y-109785100D01*
X119621639Y-109785100D01*
X119821598Y-109745326D01*
X120009956Y-109667305D01*
X120179474Y-109554037D01*
X120323637Y-109409874D01*
X120436905Y-109240356D01*
X120514926Y-109051998D01*
X120554700Y-108852039D01*
X120554700Y-108648161D01*
X120543691Y-108592812D01*
X124317217Y-108592812D01*
X125069600Y-109345195D01*
X125821983Y-108592812D01*
X125760702Y-108357514D01*
X125519697Y-108245116D01*
X125261394Y-108181895D01*
X124995721Y-108170282D01*
X124732888Y-108210722D01*
X124482994Y-108301661D01*
X124378498Y-108357514D01*
X124317217Y-108592812D01*
X120543691Y-108592812D01*
X120514926Y-108448202D01*
X120436905Y-108259844D01*
X120323637Y-108090326D01*
X120179474Y-107946163D01*
X120009956Y-107832895D01*
X119821598Y-107754874D01*
X119621639Y-107715100D01*
X119417761Y-107715100D01*
X119217802Y-107754874D01*
X119029444Y-107832895D01*
X118859926Y-107946163D01*
X118715763Y-108090326D01*
X118602495Y-108259844D01*
X118524474Y-108448202D01*
X118484700Y-108648161D01*
X109443989Y-108648161D01*
X109464105Y-108618056D01*
X109542126Y-108429698D01*
X109581900Y-108229739D01*
X109581900Y-108025861D01*
X109542126Y-107825902D01*
X109464105Y-107637544D01*
X109350837Y-107468026D01*
X109206674Y-107323863D01*
X109037156Y-107210595D01*
X108848798Y-107132574D01*
X108648839Y-107092800D01*
X108444961Y-107092800D01*
X108245002Y-107132574D01*
X108056644Y-107210595D01*
X107887126Y-107323863D01*
X107742963Y-107468026D01*
X107629695Y-107637544D01*
X107551674Y-107825902D01*
X107511900Y-108025861D01*
X72178419Y-108025861D01*
X72214664Y-107958054D01*
X72250799Y-107838932D01*
X72263000Y-107715050D01*
X72263000Y-105433951D01*
X102482700Y-105433951D01*
X102482700Y-105637829D01*
X102522474Y-105837788D01*
X102600495Y-106026146D01*
X102713763Y-106195664D01*
X102857926Y-106339827D01*
X103027444Y-106453095D01*
X103215802Y-106531116D01*
X103415761Y-106570890D01*
X103619639Y-106570890D01*
X103819598Y-106531116D01*
X104007956Y-106453095D01*
X104177474Y-106339827D01*
X104321637Y-106195664D01*
X104434905Y-106026146D01*
X104512926Y-105837788D01*
X104552700Y-105637829D01*
X104552700Y-105433951D01*
X104512926Y-105233992D01*
X104434905Y-105045634D01*
X104321637Y-104876116D01*
X104177474Y-104731953D01*
X104007956Y-104618685D01*
X103819598Y-104540664D01*
X103619639Y-104500890D01*
X103415761Y-104500890D01*
X103215802Y-104540664D01*
X103027444Y-104618685D01*
X102857926Y-104731953D01*
X102713763Y-104876116D01*
X102600495Y-105045634D01*
X102522474Y-105233992D01*
X102482700Y-105433951D01*
X72263000Y-105433951D01*
X72263000Y-102206479D01*
X72385535Y-102288354D01*
X72631220Y-102390120D01*
X72892037Y-102442000D01*
X73157963Y-102442000D01*
X73418780Y-102390120D01*
X73664465Y-102288354D01*
X73885575Y-102140613D01*
X74002200Y-102023988D01*
X74812617Y-102023988D01*
X74873898Y-102259286D01*
X75114903Y-102371684D01*
X75373206Y-102434905D01*
X75638879Y-102446518D01*
X75901712Y-102406078D01*
X75953969Y-102387061D01*
X86823600Y-102387061D01*
X86823600Y-102590939D01*
X86863374Y-102790898D01*
X86941395Y-102979256D01*
X87054663Y-103148774D01*
X87198826Y-103292937D01*
X87368344Y-103406205D01*
X87556702Y-103484226D01*
X87756661Y-103524000D01*
X87960539Y-103524000D01*
X88160498Y-103484226D01*
X88348856Y-103406205D01*
X88518374Y-103292937D01*
X88662537Y-103148774D01*
X88775805Y-102979256D01*
X88853826Y-102790898D01*
X88893600Y-102590939D01*
X88893600Y-102387061D01*
X88853826Y-102187102D01*
X88775805Y-101998744D01*
X88662537Y-101829226D01*
X88518374Y-101685063D01*
X88348856Y-101571795D01*
X88160498Y-101493774D01*
X87960539Y-101454000D01*
X87756661Y-101454000D01*
X87556702Y-101493774D01*
X87368344Y-101571795D01*
X87198826Y-101685063D01*
X87054663Y-101829226D01*
X86941395Y-101998744D01*
X86863374Y-102187102D01*
X86823600Y-102387061D01*
X75953969Y-102387061D01*
X76151606Y-102315139D01*
X76256102Y-102259286D01*
X76317383Y-102023988D01*
X75565000Y-101271605D01*
X74812617Y-102023988D01*
X74002200Y-102023988D01*
X74073613Y-101952575D01*
X74221354Y-101731465D01*
X74295742Y-101551875D01*
X74341861Y-101678606D01*
X74397714Y-101783102D01*
X74633012Y-101844383D01*
X75385395Y-101092000D01*
X75744605Y-101092000D01*
X76496988Y-101844383D01*
X76732286Y-101783102D01*
X76844684Y-101542097D01*
X76907905Y-101283794D01*
X76919518Y-101018121D01*
X76879078Y-100755288D01*
X76788139Y-100505394D01*
X76732286Y-100400898D01*
X76556288Y-100355061D01*
X101377800Y-100355061D01*
X101377800Y-100558939D01*
X101417574Y-100758898D01*
X101495595Y-100947256D01*
X101608863Y-101116774D01*
X101753026Y-101260937D01*
X101922544Y-101374205D01*
X102110902Y-101452226D01*
X102310861Y-101492000D01*
X102514739Y-101492000D01*
X102705698Y-101454016D01*
X112007189Y-101454016D01*
X112190260Y-101792614D01*
X112603341Y-102005868D01*
X113050088Y-102134435D01*
X113513333Y-102173377D01*
X113975275Y-102121196D01*
X114418161Y-101979897D01*
X114768540Y-101792614D01*
X114951611Y-101454016D01*
X113479400Y-99981805D01*
X112007189Y-101454016D01*
X102705698Y-101454016D01*
X102714698Y-101452226D01*
X102903056Y-101374205D01*
X103072574Y-101260937D01*
X103216737Y-101116774D01*
X103330005Y-100947256D01*
X103408026Y-100758898D01*
X103447800Y-100558939D01*
X103447800Y-100355061D01*
X103408026Y-100155102D01*
X103330005Y-99966744D01*
X103242734Y-99836133D01*
X111108223Y-99836133D01*
X111160404Y-100298075D01*
X111301703Y-100740961D01*
X111488986Y-101091340D01*
X111827584Y-101274411D01*
X113299795Y-99802200D01*
X113659005Y-99802200D01*
X115131216Y-101274411D01*
X115469814Y-101091340D01*
X115683068Y-100678259D01*
X115811635Y-100231512D01*
X115850577Y-99768267D01*
X115798396Y-99306325D01*
X115657097Y-98863439D01*
X115469814Y-98513060D01*
X115131216Y-98329989D01*
X113659005Y-99802200D01*
X113299795Y-99802200D01*
X111827584Y-98329989D01*
X111488986Y-98513060D01*
X111275732Y-98926141D01*
X111147165Y-99372888D01*
X111108223Y-99836133D01*
X103242734Y-99836133D01*
X103216737Y-99797226D01*
X103072574Y-99653063D01*
X102903056Y-99539795D01*
X102714698Y-99461774D01*
X102514739Y-99422000D01*
X102310861Y-99422000D01*
X102110902Y-99461774D01*
X101922544Y-99539795D01*
X101753026Y-99653063D01*
X101608863Y-99797226D01*
X101495595Y-99966744D01*
X101417574Y-100155102D01*
X101377800Y-100355061D01*
X76556288Y-100355061D01*
X76496988Y-100339617D01*
X75744605Y-101092000D01*
X75385395Y-101092000D01*
X74633012Y-100339617D01*
X74397714Y-100400898D01*
X74292983Y-100625463D01*
X74221354Y-100452535D01*
X74073613Y-100231425D01*
X74002200Y-100160012D01*
X74812617Y-100160012D01*
X75565000Y-100912395D01*
X76317383Y-100160012D01*
X76256102Y-99924714D01*
X76015097Y-99812316D01*
X75756794Y-99749095D01*
X75491121Y-99737482D01*
X75228288Y-99777922D01*
X74978394Y-99868861D01*
X74873898Y-99924714D01*
X74812617Y-100160012D01*
X74002200Y-100160012D01*
X73885575Y-100043387D01*
X73664465Y-99895646D01*
X73418780Y-99793880D01*
X73157963Y-99742000D01*
X72892037Y-99742000D01*
X72631220Y-99793880D01*
X72385535Y-99895646D01*
X72263000Y-99977521D01*
X72263000Y-98150384D01*
X112007189Y-98150384D01*
X113479400Y-99622595D01*
X114951611Y-98150384D01*
X114768540Y-97811786D01*
X114355459Y-97598532D01*
X113908712Y-97469965D01*
X113445467Y-97431023D01*
X112983525Y-97483204D01*
X112540639Y-97624503D01*
X112190260Y-97811786D01*
X112007189Y-98150384D01*
X72263000Y-98150384D01*
X72263000Y-95578176D01*
X85253200Y-95578176D01*
X85253200Y-95836224D01*
X85303542Y-96089313D01*
X85402293Y-96327718D01*
X85545656Y-96542277D01*
X85728123Y-96724744D01*
X85942682Y-96868107D01*
X86181087Y-96966858D01*
X86434176Y-97017200D01*
X86692224Y-97017200D01*
X86945313Y-96966858D01*
X87183718Y-96868107D01*
X87398277Y-96724744D01*
X87512421Y-96610600D01*
X88379405Y-96610600D01*
X88435830Y-96841821D01*
X88670008Y-96950217D01*
X88920833Y-97010845D01*
X89178665Y-97021374D01*
X89433598Y-96981400D01*
X89675833Y-96892459D01*
X89770570Y-96841821D01*
X89826995Y-96610600D01*
X89103200Y-95886805D01*
X88379405Y-96610600D01*
X87512421Y-96610600D01*
X87580744Y-96542277D01*
X87724107Y-96327718D01*
X87822858Y-96089313D01*
X87831688Y-96044920D01*
X87917941Y-96279833D01*
X87968579Y-96374570D01*
X88199800Y-96430995D01*
X88923595Y-95707200D01*
X89282805Y-95707200D01*
X90006600Y-96430995D01*
X90237821Y-96374570D01*
X90346217Y-96140392D01*
X90372266Y-96032624D01*
X90383542Y-96089313D01*
X90482293Y-96327718D01*
X90625656Y-96542277D01*
X90808123Y-96724744D01*
X91022682Y-96868107D01*
X91261087Y-96966858D01*
X91514176Y-97017200D01*
X91772224Y-97017200D01*
X92025313Y-96966858D01*
X92263718Y-96868107D01*
X92478277Y-96724744D01*
X92660744Y-96542277D01*
X92804107Y-96327718D01*
X92902858Y-96089313D01*
X92953200Y-95836224D01*
X92953200Y-95578176D01*
X92902858Y-95325087D01*
X92804107Y-95086682D01*
X92660744Y-94872123D01*
X92478277Y-94689656D01*
X92263718Y-94546293D01*
X92025313Y-94447542D01*
X91772224Y-94397200D01*
X91514176Y-94397200D01*
X91261087Y-94447542D01*
X91022682Y-94546293D01*
X90808123Y-94689656D01*
X90625656Y-94872123D01*
X90482293Y-95086682D01*
X90383542Y-95325087D01*
X90374712Y-95369480D01*
X90288459Y-95134567D01*
X90237821Y-95039830D01*
X90006600Y-94983405D01*
X89282805Y-95707200D01*
X88923595Y-95707200D01*
X88199800Y-94983405D01*
X87968579Y-95039830D01*
X87860183Y-95274008D01*
X87834134Y-95381776D01*
X87822858Y-95325087D01*
X87724107Y-95086682D01*
X87580744Y-94872123D01*
X87512421Y-94803800D01*
X88379405Y-94803800D01*
X89103200Y-95527595D01*
X89826995Y-94803800D01*
X89770570Y-94572579D01*
X89536392Y-94464183D01*
X89285567Y-94403555D01*
X89027735Y-94393026D01*
X88772802Y-94433000D01*
X88530567Y-94521941D01*
X88435830Y-94572579D01*
X88379405Y-94803800D01*
X87512421Y-94803800D01*
X87398277Y-94689656D01*
X87183718Y-94546293D01*
X86945313Y-94447542D01*
X86692224Y-94397200D01*
X86434176Y-94397200D01*
X86181087Y-94447542D01*
X85942682Y-94546293D01*
X85728123Y-94689656D01*
X85545656Y-94872123D01*
X85402293Y-95086682D01*
X85303542Y-95325087D01*
X85253200Y-95578176D01*
X72263000Y-95578176D01*
X72263000Y-91465061D01*
X77095400Y-91465061D01*
X77095400Y-91668939D01*
X77135174Y-91868898D01*
X77213195Y-92057256D01*
X77326463Y-92226774D01*
X77470626Y-92370937D01*
X77640144Y-92484205D01*
X77828502Y-92562226D01*
X78028461Y-92602000D01*
X78232339Y-92602000D01*
X78432298Y-92562226D01*
X78549500Y-92513679D01*
X78666702Y-92562226D01*
X78866661Y-92602000D01*
X79070539Y-92602000D01*
X79270498Y-92562226D01*
X79458856Y-92484205D01*
X79586094Y-92399187D01*
X109418900Y-92399187D01*
X109418900Y-92665213D01*
X109470799Y-92926126D01*
X109572603Y-93171901D01*
X109720399Y-93393093D01*
X109908507Y-93581201D01*
X110129699Y-93728997D01*
X110258142Y-93782200D01*
X110129699Y-93835403D01*
X109908507Y-93983199D01*
X109720399Y-94171307D01*
X109572603Y-94392499D01*
X109470799Y-94638274D01*
X109418900Y-94899187D01*
X109418900Y-95165213D01*
X109470799Y-95426126D01*
X109572603Y-95671901D01*
X109720399Y-95893093D01*
X109908507Y-96081201D01*
X110129699Y-96228997D01*
X110375474Y-96330801D01*
X110636387Y-96382700D01*
X110902413Y-96382700D01*
X111163326Y-96330801D01*
X111409101Y-96228997D01*
X111630293Y-96081201D01*
X111818401Y-95893093D01*
X111966197Y-95671901D01*
X112068001Y-95426126D01*
X112119900Y-95165213D01*
X112119900Y-94899187D01*
X112618900Y-94899187D01*
X112618900Y-95165213D01*
X112670799Y-95426126D01*
X112772603Y-95671901D01*
X112920399Y-95893093D01*
X113108507Y-96081201D01*
X113329699Y-96228997D01*
X113575474Y-96330801D01*
X113836387Y-96382700D01*
X114102413Y-96382700D01*
X114363326Y-96330801D01*
X114609101Y-96228997D01*
X114830293Y-96081201D01*
X115018401Y-95893093D01*
X115166197Y-95671901D01*
X115268001Y-95426126D01*
X115319900Y-95165213D01*
X115319900Y-94899187D01*
X115268001Y-94638274D01*
X115166197Y-94392499D01*
X115018401Y-94171307D01*
X114830293Y-93983199D01*
X114609101Y-93835403D01*
X114482063Y-93782782D01*
X114556182Y-93755812D01*
X114660798Y-93699894D01*
X114722140Y-93464545D01*
X113969400Y-92711805D01*
X113216660Y-93464545D01*
X113278002Y-93699894D01*
X113456195Y-93783006D01*
X113329699Y-93835403D01*
X113108507Y-93983199D01*
X112920399Y-94171307D01*
X112772603Y-94392499D01*
X112670799Y-94638274D01*
X112618900Y-94899187D01*
X112119900Y-94899187D01*
X112068001Y-94638274D01*
X111966197Y-94392499D01*
X111818401Y-94171307D01*
X111630293Y-93983199D01*
X111409101Y-93835403D01*
X111280658Y-93782200D01*
X111409101Y-93728997D01*
X111630293Y-93581201D01*
X111818401Y-93393093D01*
X111966197Y-93171901D01*
X112068001Y-92926126D01*
X112119900Y-92665213D01*
X112119900Y-92606059D01*
X112614378Y-92606059D01*
X112654823Y-92868992D01*
X112745788Y-93118982D01*
X112801706Y-93223598D01*
X113037055Y-93284940D01*
X113789795Y-92532200D01*
X114149005Y-92532200D01*
X114901745Y-93284940D01*
X115062420Y-93243061D01*
X123450400Y-93243061D01*
X123450400Y-93446939D01*
X123490174Y-93646898D01*
X123568195Y-93835256D01*
X123681463Y-94004774D01*
X123825626Y-94148937D01*
X123995144Y-94262205D01*
X124183502Y-94340226D01*
X124383461Y-94380000D01*
X124587339Y-94380000D01*
X124787298Y-94340226D01*
X124975656Y-94262205D01*
X125145174Y-94148937D01*
X125289337Y-94004774D01*
X125402605Y-93835256D01*
X125480626Y-93646898D01*
X125520400Y-93446939D01*
X125520400Y-93243061D01*
X125480626Y-93043102D01*
X125402605Y-92854744D01*
X125289337Y-92685226D01*
X125145174Y-92541063D01*
X124975656Y-92427795D01*
X124787298Y-92349774D01*
X124587339Y-92310000D01*
X124383461Y-92310000D01*
X124183502Y-92349774D01*
X123995144Y-92427795D01*
X123825626Y-92541063D01*
X123681463Y-92685226D01*
X123568195Y-92854744D01*
X123490174Y-93043102D01*
X123450400Y-93243061D01*
X115062420Y-93243061D01*
X115137094Y-93223598D01*
X115249543Y-92982508D01*
X115312795Y-92724112D01*
X115324422Y-92458341D01*
X115283977Y-92195408D01*
X115193012Y-91945418D01*
X115137094Y-91840802D01*
X114901745Y-91779460D01*
X114149005Y-92532200D01*
X113789795Y-92532200D01*
X113037055Y-91779460D01*
X112801706Y-91840802D01*
X112689257Y-92081892D01*
X112626005Y-92340288D01*
X112614378Y-92606059D01*
X112119900Y-92606059D01*
X112119900Y-92399187D01*
X112068001Y-92138274D01*
X111966197Y-91892499D01*
X111818401Y-91671307D01*
X111746949Y-91599855D01*
X113216660Y-91599855D01*
X113969400Y-92352595D01*
X114722140Y-91599855D01*
X114660798Y-91364506D01*
X114419708Y-91252057D01*
X114161312Y-91188805D01*
X113895541Y-91177178D01*
X113632608Y-91217623D01*
X113382618Y-91308588D01*
X113278002Y-91364506D01*
X113216660Y-91599855D01*
X111746949Y-91599855D01*
X111630293Y-91483199D01*
X111409101Y-91335403D01*
X111163326Y-91233599D01*
X110902413Y-91181700D01*
X110636387Y-91181700D01*
X110375474Y-91233599D01*
X110129699Y-91335403D01*
X109908507Y-91483199D01*
X109720399Y-91671307D01*
X109572603Y-91892499D01*
X109470799Y-92138274D01*
X109418900Y-92399187D01*
X79586094Y-92399187D01*
X79628374Y-92370937D01*
X79772537Y-92226774D01*
X79885805Y-92057256D01*
X79963826Y-91868898D01*
X80003600Y-91668939D01*
X80003600Y-91465061D01*
X79963826Y-91265102D01*
X79885805Y-91076744D01*
X79772537Y-90907226D01*
X79628374Y-90763063D01*
X79458856Y-90649795D01*
X79270498Y-90571774D01*
X79070539Y-90532000D01*
X78866661Y-90532000D01*
X78666702Y-90571774D01*
X78549500Y-90620321D01*
X78432298Y-90571774D01*
X78232339Y-90532000D01*
X78028461Y-90532000D01*
X77828502Y-90571774D01*
X77640144Y-90649795D01*
X77470626Y-90763063D01*
X77326463Y-90907226D01*
X77213195Y-91076744D01*
X77135174Y-91265102D01*
X77095400Y-91465061D01*
X72263000Y-91465061D01*
X72263000Y-88391661D01*
X82251600Y-88391661D01*
X82251600Y-88595539D01*
X82291374Y-88795498D01*
X82369395Y-88983856D01*
X82482663Y-89153374D01*
X82626826Y-89297537D01*
X82796344Y-89410805D01*
X82984702Y-89488826D01*
X83184661Y-89528600D01*
X83388539Y-89528600D01*
X83588498Y-89488826D01*
X83769104Y-89414016D01*
X112007189Y-89414016D01*
X112190260Y-89752614D01*
X112603341Y-89965868D01*
X113050088Y-90094435D01*
X113513333Y-90133377D01*
X113975275Y-90081196D01*
X114418161Y-89939897D01*
X114768540Y-89752614D01*
X114951611Y-89414016D01*
X113479400Y-87941805D01*
X112007189Y-89414016D01*
X83769104Y-89414016D01*
X83776856Y-89410805D01*
X83946374Y-89297537D01*
X84090537Y-89153374D01*
X84203805Y-88983856D01*
X84281826Y-88795498D01*
X84321600Y-88595539D01*
X84321600Y-88391661D01*
X84281826Y-88191702D01*
X84203805Y-88003344D01*
X84090537Y-87833826D01*
X84052844Y-87796133D01*
X111108223Y-87796133D01*
X111160404Y-88258075D01*
X111301703Y-88700961D01*
X111488986Y-89051340D01*
X111827584Y-89234411D01*
X113299795Y-87762200D01*
X113659005Y-87762200D01*
X115131216Y-89234411D01*
X115469814Y-89051340D01*
X115683068Y-88638259D01*
X115811635Y-88191512D01*
X115850577Y-87728267D01*
X115798396Y-87266325D01*
X115657097Y-86823439D01*
X115469814Y-86473060D01*
X115131216Y-86289989D01*
X113659005Y-87762200D01*
X113299795Y-87762200D01*
X111827584Y-86289989D01*
X111488986Y-86473060D01*
X111275732Y-86886141D01*
X111147165Y-87332888D01*
X111108223Y-87796133D01*
X84052844Y-87796133D01*
X83946374Y-87689663D01*
X83776856Y-87576395D01*
X83588498Y-87498374D01*
X83388539Y-87458600D01*
X83184661Y-87458600D01*
X82984702Y-87498374D01*
X82796344Y-87576395D01*
X82626826Y-87689663D01*
X82482663Y-87833826D01*
X82369395Y-88003344D01*
X82291374Y-88191702D01*
X82251600Y-88391661D01*
X72263000Y-88391661D01*
X72263000Y-86110384D01*
X112007189Y-86110384D01*
X113479400Y-87582595D01*
X114951611Y-86110384D01*
X114768540Y-85771786D01*
X114355459Y-85558532D01*
X113908712Y-85429965D01*
X113445467Y-85391023D01*
X112983525Y-85443204D01*
X112540639Y-85584503D01*
X112190260Y-85771786D01*
X112007189Y-86110384D01*
X72263000Y-86110384D01*
X72263000Y-83159261D01*
X88906400Y-83159261D01*
X88906400Y-83363139D01*
X88946174Y-83563098D01*
X89024195Y-83751456D01*
X89137463Y-83920974D01*
X89281626Y-84065137D01*
X89451144Y-84178405D01*
X89639502Y-84256426D01*
X89839461Y-84296200D01*
X90043339Y-84296200D01*
X90243298Y-84256426D01*
X90431656Y-84178405D01*
X90601174Y-84065137D01*
X90745337Y-83920974D01*
X90858605Y-83751456D01*
X90936626Y-83563098D01*
X90976400Y-83363139D01*
X90976400Y-83159261D01*
X90936626Y-82959302D01*
X90858605Y-82770944D01*
X90745337Y-82601426D01*
X90601174Y-82457263D01*
X90431656Y-82343995D01*
X90243298Y-82265974D01*
X90043339Y-82226200D01*
X89839461Y-82226200D01*
X89639502Y-82265974D01*
X89451144Y-82343995D01*
X89281626Y-82457263D01*
X89137463Y-82601426D01*
X89024195Y-82770944D01*
X88946174Y-82959302D01*
X88906400Y-83159261D01*
X72263000Y-83159261D01*
X72263000Y-81482861D01*
X76308000Y-81482861D01*
X76308000Y-81686739D01*
X76347774Y-81886698D01*
X76425795Y-82075056D01*
X76539063Y-82244574D01*
X76683226Y-82388737D01*
X76852744Y-82502005D01*
X77041102Y-82580026D01*
X77241061Y-82619800D01*
X77444939Y-82619800D01*
X77644898Y-82580026D01*
X77833256Y-82502005D01*
X78002774Y-82388737D01*
X78146937Y-82244574D01*
X78260205Y-82075056D01*
X78338226Y-81886698D01*
X78378000Y-81686739D01*
X78378000Y-81482861D01*
X78338226Y-81282902D01*
X78260205Y-81094544D01*
X78146937Y-80925026D01*
X78002774Y-80780863D01*
X77833256Y-80667595D01*
X77644898Y-80589574D01*
X77444939Y-80549800D01*
X77241061Y-80549800D01*
X77041102Y-80589574D01*
X76852744Y-80667595D01*
X76683226Y-80780863D01*
X76539063Y-80925026D01*
X76425795Y-81094544D01*
X76347774Y-81282902D01*
X76308000Y-81482861D01*
X72263000Y-81482861D01*
X72263000Y-77215661D01*
X76460400Y-77215661D01*
X76460400Y-77419539D01*
X76500174Y-77619498D01*
X76578195Y-77807856D01*
X76691463Y-77977374D01*
X76835626Y-78121537D01*
X77005144Y-78234805D01*
X77193502Y-78312826D01*
X77393461Y-78352600D01*
X77597339Y-78352600D01*
X77797298Y-78312826D01*
X77985656Y-78234805D01*
X78155174Y-78121537D01*
X78299337Y-77977374D01*
X78412605Y-77807856D01*
X78490626Y-77619498D01*
X78530400Y-77419539D01*
X78530400Y-77215661D01*
X78490626Y-77015702D01*
X78412605Y-76827344D01*
X78299337Y-76657826D01*
X78155174Y-76513663D01*
X77985656Y-76400395D01*
X77797298Y-76322374D01*
X77597339Y-76282600D01*
X77393461Y-76282600D01*
X77193502Y-76322374D01*
X77005144Y-76400395D01*
X76835626Y-76513663D01*
X76691463Y-76657826D01*
X76578195Y-76827344D01*
X76500174Y-77015702D01*
X76460400Y-77215661D01*
X72263000Y-77215661D01*
X72263000Y-72613413D01*
X93066500Y-72613413D01*
X93066500Y-72869787D01*
X93116516Y-73121233D01*
X93214626Y-73358091D01*
X93357059Y-73571258D01*
X93538342Y-73752541D01*
X93751509Y-73894974D01*
X93988367Y-73993084D01*
X94239813Y-74043100D01*
X94496187Y-74043100D01*
X94747633Y-73993084D01*
X94984491Y-73894974D01*
X95197658Y-73752541D01*
X95378941Y-73571258D01*
X95521374Y-73358091D01*
X95619484Y-73121233D01*
X95669500Y-72869787D01*
X95669500Y-72613413D01*
X95619484Y-72361967D01*
X95521374Y-72125109D01*
X95378941Y-71911942D01*
X95197658Y-71730659D01*
X94984491Y-71588226D01*
X94747633Y-71490116D01*
X94496187Y-71440100D01*
X94239813Y-71440100D01*
X93988367Y-71490116D01*
X93751509Y-71588226D01*
X93538342Y-71730659D01*
X93357059Y-71911942D01*
X93214626Y-72125109D01*
X93116516Y-72361967D01*
X93066500Y-72613413D01*
X72263000Y-72613413D01*
X72263000Y-71246661D01*
X123120200Y-71246661D01*
X123120200Y-71450539D01*
X123159974Y-71650498D01*
X123237995Y-71838856D01*
X123351263Y-72008374D01*
X123495426Y-72152537D01*
X123664944Y-72265805D01*
X123853302Y-72343826D01*
X124053261Y-72383600D01*
X124257139Y-72383600D01*
X124457098Y-72343826D01*
X124645456Y-72265805D01*
X124814974Y-72152537D01*
X124959137Y-72008374D01*
X125072405Y-71838856D01*
X125150426Y-71650498D01*
X125190200Y-71450539D01*
X125190200Y-71246661D01*
X125150426Y-71046702D01*
X125072405Y-70858344D01*
X124959137Y-70688826D01*
X124814974Y-70544663D01*
X124645456Y-70431395D01*
X124457098Y-70353374D01*
X124257139Y-70313600D01*
X124053261Y-70313600D01*
X123853302Y-70353374D01*
X123664944Y-70431395D01*
X123495426Y-70544663D01*
X123351263Y-70688826D01*
X123237995Y-70858344D01*
X123159974Y-71046702D01*
X123120200Y-71246661D01*
X72263000Y-71246661D01*
X72263000Y-69537401D01*
X112011804Y-69537401D01*
X112118129Y-69810748D01*
X112422658Y-69960378D01*
X112750525Y-70047722D01*
X113089134Y-70069424D01*
X113425470Y-70024649D01*
X113746607Y-69915119D01*
X113941871Y-69810748D01*
X114048196Y-69537401D01*
X113030000Y-68519205D01*
X112011804Y-69537401D01*
X72263000Y-69537401D01*
X72263000Y-69157103D01*
X72291302Y-69168826D01*
X72491261Y-69208600D01*
X72695139Y-69208600D01*
X72895098Y-69168826D01*
X73083456Y-69090805D01*
X73252974Y-68977537D01*
X73397137Y-68833374D01*
X73510405Y-68663856D01*
X73588426Y-68475498D01*
X73603695Y-68398734D01*
X111300176Y-68398734D01*
X111344951Y-68735070D01*
X111454481Y-69056207D01*
X111558852Y-69251471D01*
X111832199Y-69357796D01*
X112850395Y-68339600D01*
X113209605Y-68339600D01*
X114227801Y-69357796D01*
X114501148Y-69251471D01*
X114650778Y-68946942D01*
X114738122Y-68619075D01*
X114759824Y-68280466D01*
X114715049Y-67944130D01*
X114605519Y-67622993D01*
X114501148Y-67427729D01*
X114227801Y-67321404D01*
X113209605Y-68339600D01*
X112850395Y-68339600D01*
X111832199Y-67321404D01*
X111558852Y-67427729D01*
X111409222Y-67732258D01*
X111321878Y-68060125D01*
X111300176Y-68398734D01*
X73603695Y-68398734D01*
X73628200Y-68275539D01*
X73628200Y-68071661D01*
X73588426Y-67871702D01*
X73510405Y-67683344D01*
X73397137Y-67513826D01*
X73252974Y-67369663D01*
X73083456Y-67256395D01*
X72895098Y-67178374D01*
X72695139Y-67138600D01*
X72491261Y-67138600D01*
X72291302Y-67178374D01*
X72102944Y-67256395D01*
X71933426Y-67369663D01*
X71789263Y-67513826D01*
X71675995Y-67683344D01*
X71645795Y-67756253D01*
X71628000Y-67754500D01*
X69278500Y-67754500D01*
X69278500Y-66103500D01*
X69269628Y-66013413D01*
X85566500Y-66013413D01*
X85566500Y-66269787D01*
X85616516Y-66521233D01*
X85714626Y-66758091D01*
X85857059Y-66971258D01*
X86038342Y-67152541D01*
X86251509Y-67294974D01*
X86488367Y-67393084D01*
X86739813Y-67443100D01*
X86996187Y-67443100D01*
X87247633Y-67393084D01*
X87484491Y-67294974D01*
X87697658Y-67152541D01*
X87708400Y-67141799D01*
X112011804Y-67141799D01*
X113030000Y-68159995D01*
X114048196Y-67141799D01*
X113941871Y-66868452D01*
X113637342Y-66718822D01*
X113309475Y-66631478D01*
X112970866Y-66609776D01*
X112634530Y-66654551D01*
X112313393Y-66764081D01*
X112118129Y-66868452D01*
X112011804Y-67141799D01*
X87708400Y-67141799D01*
X87878941Y-66971258D01*
X88021374Y-66758091D01*
X88119484Y-66521233D01*
X88169500Y-66269787D01*
X88169500Y-66013413D01*
X88119484Y-65761967D01*
X88021374Y-65525109D01*
X87878941Y-65311942D01*
X87697658Y-65130659D01*
X87484491Y-64988226D01*
X87247633Y-64890116D01*
X86996187Y-64840100D01*
X86739813Y-64840100D01*
X86488367Y-64890116D01*
X86251509Y-64988226D01*
X86038342Y-65130659D01*
X85857059Y-65311942D01*
X85714626Y-65525109D01*
X85616516Y-65761967D01*
X85566500Y-66013413D01*
X69269628Y-66013413D01*
X69266299Y-65979618D01*
X69230164Y-65860496D01*
X69171483Y-65750713D01*
X69092513Y-65654487D01*
X68996287Y-65575517D01*
X68886504Y-65516836D01*
X68767382Y-65480701D01*
X68643500Y-65468500D01*
X64770000Y-65468500D01*
X64770000Y-62386722D01*
X84295500Y-62386722D01*
X84295500Y-62696478D01*
X84355930Y-63000281D01*
X84474468Y-63286458D01*
X84646559Y-63544011D01*
X84865589Y-63763041D01*
X85123142Y-63935132D01*
X85409319Y-64053670D01*
X85713122Y-64114100D01*
X86022878Y-64114100D01*
X86326681Y-64053670D01*
X86612858Y-63935132D01*
X86870411Y-63763041D01*
X87089441Y-63544011D01*
X87261532Y-63286458D01*
X87380070Y-63000281D01*
X87440500Y-62696478D01*
X87440500Y-62386722D01*
X92295500Y-62386722D01*
X92295500Y-62696478D01*
X92355930Y-63000281D01*
X92474468Y-63286458D01*
X92646559Y-63544011D01*
X92865589Y-63763041D01*
X93123142Y-63935132D01*
X93380179Y-64041600D01*
X93123142Y-64148068D01*
X92865589Y-64320159D01*
X92646559Y-64539189D01*
X92474468Y-64796742D01*
X92355930Y-65082919D01*
X92295500Y-65386722D01*
X92295500Y-65696478D01*
X92355930Y-66000281D01*
X92474468Y-66286458D01*
X92646559Y-66544011D01*
X92865589Y-66763041D01*
X93123142Y-66935132D01*
X93409319Y-67053670D01*
X93713122Y-67114100D01*
X94022878Y-67114100D01*
X94326681Y-67053670D01*
X94612858Y-66935132D01*
X94870411Y-66763041D01*
X95089441Y-66544011D01*
X95261532Y-66286458D01*
X95380070Y-66000281D01*
X95440500Y-65696478D01*
X95440500Y-65386722D01*
X95380070Y-65082919D01*
X95261532Y-64796742D01*
X95089441Y-64539189D01*
X94870411Y-64320159D01*
X94612858Y-64148068D01*
X94355821Y-64041600D01*
X94612858Y-63935132D01*
X94870411Y-63763041D01*
X95089441Y-63544011D01*
X95261532Y-63286458D01*
X95380070Y-63000281D01*
X95440500Y-62696478D01*
X95440500Y-62386722D01*
X95389050Y-62128061D01*
X100692000Y-62128061D01*
X100692000Y-62331939D01*
X100731774Y-62531898D01*
X100809795Y-62720256D01*
X100923063Y-62889774D01*
X101067226Y-63033937D01*
X101236744Y-63147205D01*
X101425102Y-63225226D01*
X101625061Y-63265000D01*
X101828939Y-63265000D01*
X102028898Y-63225226D01*
X102217256Y-63147205D01*
X102386774Y-63033937D01*
X102530937Y-62889774D01*
X102644205Y-62720256D01*
X102722226Y-62531898D01*
X102762000Y-62331939D01*
X102762000Y-62128061D01*
X102722226Y-61928102D01*
X102649324Y-61752100D01*
X111304428Y-61752100D01*
X111304428Y-63927100D01*
X111316688Y-64051582D01*
X111352998Y-64171280D01*
X111411963Y-64281594D01*
X111491315Y-64378285D01*
X111588006Y-64457637D01*
X111698320Y-64516602D01*
X111818018Y-64552912D01*
X111942500Y-64565172D01*
X114117500Y-64565172D01*
X114241982Y-64552912D01*
X114361680Y-64516602D01*
X114471994Y-64457637D01*
X114568685Y-64378285D01*
X114648037Y-64281594D01*
X114707002Y-64171280D01*
X114743312Y-64051582D01*
X114755572Y-63927100D01*
X114755572Y-61752100D01*
X114743312Y-61627618D01*
X114707002Y-61507920D01*
X114648037Y-61397606D01*
X114568685Y-61300915D01*
X114471994Y-61221563D01*
X114361680Y-61162598D01*
X114241982Y-61126288D01*
X114117500Y-61114028D01*
X111942500Y-61114028D01*
X111818018Y-61126288D01*
X111698320Y-61162598D01*
X111588006Y-61221563D01*
X111491315Y-61300915D01*
X111411963Y-61397606D01*
X111352998Y-61507920D01*
X111316688Y-61627618D01*
X111304428Y-61752100D01*
X102649324Y-61752100D01*
X102644205Y-61739744D01*
X102530937Y-61570226D01*
X102386774Y-61426063D01*
X102217256Y-61312795D01*
X102028898Y-61234774D01*
X101828939Y-61195000D01*
X101625061Y-61195000D01*
X101425102Y-61234774D01*
X101236744Y-61312795D01*
X101067226Y-61426063D01*
X100923063Y-61570226D01*
X100809795Y-61739744D01*
X100731774Y-61928102D01*
X100692000Y-62128061D01*
X95389050Y-62128061D01*
X95380070Y-62082919D01*
X95261532Y-61796742D01*
X95089441Y-61539189D01*
X94870411Y-61320159D01*
X94612858Y-61148068D01*
X94326681Y-61029530D01*
X94022878Y-60969100D01*
X93713122Y-60969100D01*
X93409319Y-61029530D01*
X93123142Y-61148068D01*
X92865589Y-61320159D01*
X92646559Y-61539189D01*
X92474468Y-61796742D01*
X92355930Y-62082919D01*
X92295500Y-62386722D01*
X87440500Y-62386722D01*
X87380070Y-62082919D01*
X87261532Y-61796742D01*
X87089441Y-61539189D01*
X86870411Y-61320159D01*
X86612858Y-61148068D01*
X86326681Y-61029530D01*
X86022878Y-60969100D01*
X85713122Y-60969100D01*
X85409319Y-61029530D01*
X85123142Y-61148068D01*
X84865589Y-61320159D01*
X84646559Y-61539189D01*
X84474468Y-61796742D01*
X84355930Y-62082919D01*
X84295500Y-62386722D01*
X64770000Y-62386722D01*
X64770000Y-59143561D01*
X105137000Y-59143561D01*
X105137000Y-59347439D01*
X105176774Y-59547398D01*
X105254795Y-59735756D01*
X105368063Y-59905274D01*
X105512226Y-60049437D01*
X105681744Y-60162705D01*
X105870102Y-60240726D01*
X106070061Y-60280500D01*
X106273939Y-60280500D01*
X106473898Y-60240726D01*
X106662256Y-60162705D01*
X106831774Y-60049437D01*
X106975937Y-59905274D01*
X107089205Y-59735756D01*
X107167226Y-59547398D01*
X107207000Y-59347439D01*
X107207000Y-59143561D01*
X107804000Y-59143561D01*
X107804000Y-59347439D01*
X107843774Y-59547398D01*
X107921795Y-59735756D01*
X108035063Y-59905274D01*
X108179226Y-60049437D01*
X108348744Y-60162705D01*
X108537102Y-60240726D01*
X108737061Y-60280500D01*
X108940939Y-60280500D01*
X109140898Y-60240726D01*
X109329256Y-60162705D01*
X109498774Y-60049437D01*
X109642937Y-59905274D01*
X109756205Y-59735756D01*
X109834226Y-59547398D01*
X109874000Y-59347439D01*
X109874000Y-59143561D01*
X109834226Y-58943602D01*
X109756205Y-58755244D01*
X109642937Y-58585726D01*
X109502272Y-58445061D01*
X117837000Y-58445061D01*
X117837000Y-58648939D01*
X117876774Y-58848898D01*
X117954795Y-59037256D01*
X118068063Y-59206774D01*
X118212226Y-59350937D01*
X118381744Y-59464205D01*
X118570102Y-59542226D01*
X118770061Y-59582000D01*
X118973939Y-59582000D01*
X119173898Y-59542226D01*
X119362256Y-59464205D01*
X119531774Y-59350937D01*
X119675937Y-59206774D01*
X119789205Y-59037256D01*
X119867226Y-58848898D01*
X119907000Y-58648939D01*
X119907000Y-58445061D01*
X119867226Y-58245102D01*
X119789205Y-58056744D01*
X119675937Y-57887226D01*
X119531774Y-57743063D01*
X119362256Y-57629795D01*
X119173898Y-57551774D01*
X118973939Y-57512000D01*
X118770061Y-57512000D01*
X118570102Y-57551774D01*
X118381744Y-57629795D01*
X118212226Y-57743063D01*
X118068063Y-57887226D01*
X117954795Y-58056744D01*
X117876774Y-58245102D01*
X117837000Y-58445061D01*
X109502272Y-58445061D01*
X109498774Y-58441563D01*
X109329256Y-58328295D01*
X109140898Y-58250274D01*
X108940939Y-58210500D01*
X108737061Y-58210500D01*
X108537102Y-58250274D01*
X108348744Y-58328295D01*
X108179226Y-58441563D01*
X108035063Y-58585726D01*
X107921795Y-58755244D01*
X107843774Y-58943602D01*
X107804000Y-59143561D01*
X107207000Y-59143561D01*
X107167226Y-58943602D01*
X107089205Y-58755244D01*
X106975937Y-58585726D01*
X106831774Y-58441563D01*
X106662256Y-58328295D01*
X106473898Y-58250274D01*
X106273939Y-58210500D01*
X106070061Y-58210500D01*
X105870102Y-58250274D01*
X105681744Y-58328295D01*
X105512226Y-58441563D01*
X105368063Y-58585726D01*
X105254795Y-58755244D01*
X105176774Y-58943602D01*
X105137000Y-59143561D01*
X64770000Y-59143561D01*
X64770000Y-53843645D01*
X65032500Y-53843645D01*
X65032500Y-54156355D01*
X65093507Y-54463057D01*
X65213176Y-54751963D01*
X65386908Y-55011972D01*
X65608028Y-55233092D01*
X65868037Y-55406824D01*
X66156943Y-55526493D01*
X66463645Y-55587500D01*
X66776355Y-55587500D01*
X67083057Y-55526493D01*
X67371963Y-55406824D01*
X67631972Y-55233092D01*
X67853092Y-55011972D01*
X68026824Y-54751963D01*
X68146493Y-54463057D01*
X68207500Y-54156355D01*
X68207500Y-53843645D01*
X68532500Y-53843645D01*
X68532500Y-54156355D01*
X68593507Y-54463057D01*
X68713176Y-54751963D01*
X68886908Y-55011972D01*
X69108028Y-55233092D01*
X69368037Y-55406824D01*
X69656943Y-55526493D01*
X69963645Y-55587500D01*
X70276355Y-55587500D01*
X70583057Y-55526493D01*
X70871963Y-55406824D01*
X71131972Y-55233092D01*
X71353092Y-55011972D01*
X71526824Y-54751963D01*
X71646493Y-54463057D01*
X71707500Y-54156355D01*
X71707500Y-53843645D01*
X72032500Y-53843645D01*
X72032500Y-54156355D01*
X72093507Y-54463057D01*
X72213176Y-54751963D01*
X72386908Y-55011972D01*
X72608028Y-55233092D01*
X72868037Y-55406824D01*
X73156943Y-55526493D01*
X73463645Y-55587500D01*
X73776355Y-55587500D01*
X74083057Y-55526493D01*
X74371963Y-55406824D01*
X74631972Y-55233092D01*
X74853092Y-55011972D01*
X75026824Y-54751963D01*
X75146493Y-54463057D01*
X75207500Y-54156355D01*
X75207500Y-53843645D01*
X75532500Y-53843645D01*
X75532500Y-54156355D01*
X75593507Y-54463057D01*
X75713176Y-54751963D01*
X75886908Y-55011972D01*
X76108028Y-55233092D01*
X76368037Y-55406824D01*
X76656943Y-55526493D01*
X76963645Y-55587500D01*
X77276355Y-55587500D01*
X77583057Y-55526493D01*
X77871963Y-55406824D01*
X78131972Y-55233092D01*
X78353092Y-55011972D01*
X78526824Y-54751963D01*
X78646493Y-54463057D01*
X78707500Y-54156355D01*
X78707500Y-53843645D01*
X79032500Y-53843645D01*
X79032500Y-54156355D01*
X79093507Y-54463057D01*
X79213176Y-54751963D01*
X79386908Y-55011972D01*
X79608028Y-55233092D01*
X79868037Y-55406824D01*
X80156943Y-55526493D01*
X80463645Y-55587500D01*
X80776355Y-55587500D01*
X81083057Y-55526493D01*
X81371963Y-55406824D01*
X81631972Y-55233092D01*
X81763529Y-55101535D01*
X83198070Y-55101535D01*
X83288098Y-55361081D01*
X83569616Y-55497224D01*
X83872286Y-55575829D01*
X84184474Y-55593877D01*
X84494185Y-55550672D01*
X84789516Y-55447877D01*
X84951902Y-55361081D01*
X85041930Y-55101535D01*
X84120000Y-54179605D01*
X83198070Y-55101535D01*
X81763529Y-55101535D01*
X81853092Y-55011972D01*
X82026824Y-54751963D01*
X82146493Y-54463057D01*
X82207500Y-54156355D01*
X82207500Y-54064474D01*
X82526123Y-54064474D01*
X82569328Y-54374185D01*
X82672123Y-54669516D01*
X82758919Y-54831902D01*
X83018465Y-54921930D01*
X83940395Y-54000000D01*
X84299605Y-54000000D01*
X85221535Y-54921930D01*
X85481081Y-54831902D01*
X85617224Y-54550384D01*
X85695829Y-54247714D01*
X85713877Y-53935526D01*
X85670672Y-53625815D01*
X85567877Y-53330484D01*
X85481081Y-53168098D01*
X85221535Y-53078070D01*
X84299605Y-54000000D01*
X83940395Y-54000000D01*
X83018465Y-53078070D01*
X82758919Y-53168098D01*
X82622776Y-53449616D01*
X82544171Y-53752286D01*
X82526123Y-54064474D01*
X82207500Y-54064474D01*
X82207500Y-53843645D01*
X82146493Y-53536943D01*
X82026824Y-53248037D01*
X81853092Y-52988028D01*
X81763529Y-52898465D01*
X83198070Y-52898465D01*
X84120000Y-53820395D01*
X85041930Y-52898465D01*
X84951902Y-52638919D01*
X84670384Y-52502776D01*
X84367714Y-52424171D01*
X84055526Y-52406123D01*
X83745815Y-52449328D01*
X83450484Y-52552123D01*
X83288098Y-52638919D01*
X83198070Y-52898465D01*
X81763529Y-52898465D01*
X81631972Y-52766908D01*
X81371963Y-52593176D01*
X81083057Y-52473507D01*
X80776355Y-52412500D01*
X80463645Y-52412500D01*
X80156943Y-52473507D01*
X79868037Y-52593176D01*
X79608028Y-52766908D01*
X79386908Y-52988028D01*
X79213176Y-53248037D01*
X79093507Y-53536943D01*
X79032500Y-53843645D01*
X78707500Y-53843645D01*
X78646493Y-53536943D01*
X78526824Y-53248037D01*
X78353092Y-52988028D01*
X78131972Y-52766908D01*
X77871963Y-52593176D01*
X77583057Y-52473507D01*
X77276355Y-52412500D01*
X76963645Y-52412500D01*
X76656943Y-52473507D01*
X76368037Y-52593176D01*
X76108028Y-52766908D01*
X75886908Y-52988028D01*
X75713176Y-53248037D01*
X75593507Y-53536943D01*
X75532500Y-53843645D01*
X75207500Y-53843645D01*
X75146493Y-53536943D01*
X75026824Y-53248037D01*
X74853092Y-52988028D01*
X74631972Y-52766908D01*
X74371963Y-52593176D01*
X74083057Y-52473507D01*
X73776355Y-52412500D01*
X73463645Y-52412500D01*
X73156943Y-52473507D01*
X72868037Y-52593176D01*
X72608028Y-52766908D01*
X72386908Y-52988028D01*
X72213176Y-53248037D01*
X72093507Y-53536943D01*
X72032500Y-53843645D01*
X71707500Y-53843645D01*
X71646493Y-53536943D01*
X71526824Y-53248037D01*
X71353092Y-52988028D01*
X71131972Y-52766908D01*
X70871963Y-52593176D01*
X70583057Y-52473507D01*
X70276355Y-52412500D01*
X69963645Y-52412500D01*
X69656943Y-52473507D01*
X69368037Y-52593176D01*
X69108028Y-52766908D01*
X68886908Y-52988028D01*
X68713176Y-53248037D01*
X68593507Y-53536943D01*
X68532500Y-53843645D01*
X68207500Y-53843645D01*
X68146493Y-53536943D01*
X68026824Y-53248037D01*
X67853092Y-52988028D01*
X67631972Y-52766908D01*
X67371963Y-52593176D01*
X67083057Y-52473507D01*
X66776355Y-52412500D01*
X66463645Y-52412500D01*
X66156943Y-52473507D01*
X65868037Y-52593176D01*
X65608028Y-52766908D01*
X65386908Y-52988028D01*
X65213176Y-53248037D01*
X65093507Y-53536943D01*
X65032500Y-53843645D01*
X64770000Y-53843645D01*
X64770000Y-49843645D01*
X65032500Y-49843645D01*
X65032500Y-50156355D01*
X65093507Y-50463057D01*
X65213176Y-50751963D01*
X65386908Y-51011972D01*
X65608028Y-51233092D01*
X65868037Y-51406824D01*
X66156943Y-51526493D01*
X66463645Y-51587500D01*
X66776355Y-51587500D01*
X67083057Y-51526493D01*
X67371963Y-51406824D01*
X67631972Y-51233092D01*
X67853092Y-51011972D01*
X68026824Y-50751963D01*
X68146493Y-50463057D01*
X68207500Y-50156355D01*
X68207500Y-49843645D01*
X68532500Y-49843645D01*
X68532500Y-50156355D01*
X68593507Y-50463057D01*
X68713176Y-50751963D01*
X68886908Y-51011972D01*
X69108028Y-51233092D01*
X69368037Y-51406824D01*
X69656943Y-51526493D01*
X69963645Y-51587500D01*
X70276355Y-51587500D01*
X70583057Y-51526493D01*
X70871963Y-51406824D01*
X71131972Y-51233092D01*
X71353092Y-51011972D01*
X71526824Y-50751963D01*
X71646493Y-50463057D01*
X71707500Y-50156355D01*
X71707500Y-49843645D01*
X71646493Y-49536943D01*
X71526824Y-49248037D01*
X71353092Y-48988028D01*
X71131972Y-48766908D01*
X70871963Y-48593176D01*
X70583057Y-48473507D01*
X70276355Y-48412500D01*
X69963645Y-48412500D01*
X69656943Y-48473507D01*
X69368037Y-48593176D01*
X69108028Y-48766908D01*
X68886908Y-48988028D01*
X68713176Y-49248037D01*
X68593507Y-49536943D01*
X68532500Y-49843645D01*
X68207500Y-49843645D01*
X68146493Y-49536943D01*
X68026824Y-49248037D01*
X67853092Y-48988028D01*
X67631972Y-48766908D01*
X67371963Y-48593176D01*
X67083057Y-48473507D01*
X66776355Y-48412500D01*
X66463645Y-48412500D01*
X66156943Y-48473507D01*
X65868037Y-48593176D01*
X65608028Y-48766908D01*
X65386908Y-48988028D01*
X65213176Y-49248037D01*
X65093507Y-49536943D01*
X65032500Y-49843645D01*
X64770000Y-49843645D01*
X64770000Y-47879000D01*
X74930000Y-47879000D01*
X74930000Y-49103129D01*
X74853092Y-48988028D01*
X74631972Y-48766908D01*
X74371963Y-48593176D01*
X74083057Y-48473507D01*
X73776355Y-48412500D01*
X73463645Y-48412500D01*
X73156943Y-48473507D01*
X72868037Y-48593176D01*
X72608028Y-48766908D01*
X72386908Y-48988028D01*
X72213176Y-49248037D01*
X72093507Y-49536943D01*
X72032500Y-49843645D01*
X72032500Y-50156355D01*
X72093507Y-50463057D01*
X72213176Y-50751963D01*
X72386908Y-51011972D01*
X72608028Y-51233092D01*
X72868037Y-51406824D01*
X73156943Y-51526493D01*
X73463645Y-51587500D01*
X73776355Y-51587500D01*
X74083057Y-51526493D01*
X74371963Y-51406824D01*
X74631972Y-51233092D01*
X74853092Y-51011972D01*
X74930000Y-50896871D01*
X74930000Y-51308000D01*
X74942201Y-51431882D01*
X74978336Y-51551004D01*
X75037017Y-51660787D01*
X75115987Y-51757013D01*
X75212213Y-51835983D01*
X75321996Y-51894664D01*
X75441118Y-51930799D01*
X75565000Y-51943000D01*
X82423000Y-51943000D01*
X82546882Y-51930799D01*
X82666004Y-51894664D01*
X82775787Y-51835983D01*
X82872013Y-51757013D01*
X82950983Y-51660787D01*
X83009664Y-51551004D01*
X83045799Y-51431882D01*
X83058000Y-51308000D01*
X83058000Y-51183064D01*
X83108028Y-51233092D01*
X83368037Y-51406824D01*
X83656943Y-51526493D01*
X83963645Y-51587500D01*
X84276355Y-51587500D01*
X84583057Y-51526493D01*
X84871963Y-51406824D01*
X85131972Y-51233092D01*
X85353092Y-51011972D01*
X85526824Y-50751963D01*
X85646493Y-50463057D01*
X85707500Y-50156355D01*
X85707500Y-49843645D01*
X85681346Y-49712159D01*
X97077500Y-49712159D01*
X97077500Y-50287841D01*
X97189810Y-50852462D01*
X97410114Y-51384323D01*
X97729946Y-51862985D01*
X98137015Y-52270054D01*
X98615677Y-52589886D01*
X99147538Y-52810190D01*
X99712159Y-52922500D01*
X100287841Y-52922500D01*
X100852462Y-52810190D01*
X101384323Y-52589886D01*
X101862985Y-52270054D01*
X102270054Y-51862985D01*
X102589886Y-51384323D01*
X102810190Y-50852462D01*
X102922500Y-50287841D01*
X102922500Y-49712159D01*
X102810190Y-49147538D01*
X102589886Y-48615677D01*
X102270054Y-48137015D01*
X101862985Y-47729946D01*
X101384323Y-47410114D01*
X100852462Y-47189810D01*
X100287841Y-47077500D01*
X99712159Y-47077500D01*
X99147538Y-47189810D01*
X98615677Y-47410114D01*
X98137015Y-47729946D01*
X97729946Y-48137015D01*
X97410114Y-48615677D01*
X97189810Y-49147538D01*
X97077500Y-49712159D01*
X85681346Y-49712159D01*
X85646493Y-49536943D01*
X85526824Y-49248037D01*
X85353092Y-48988028D01*
X85131972Y-48766908D01*
X84871963Y-48593176D01*
X84583057Y-48473507D01*
X84276355Y-48412500D01*
X83963645Y-48412500D01*
X83656943Y-48473507D01*
X83368037Y-48593176D01*
X83108028Y-48766908D01*
X83058000Y-48816936D01*
X83058000Y-42605000D01*
X104013000Y-42605000D01*
X104013000Y-56261000D01*
G37*
X104013000Y-56261000D02*
X104025201Y-56384882D01*
X104061336Y-56504004D01*
X104120017Y-56613787D01*
X104198987Y-56710013D01*
X104295213Y-56788983D01*
X104404996Y-56847664D01*
X104524118Y-56883799D01*
X104648000Y-56896000D01*
X110426500Y-56896000D01*
X110550382Y-56883799D01*
X110669504Y-56847664D01*
X110779287Y-56788983D01*
X110875513Y-56710013D01*
X110954483Y-56613787D01*
X111013164Y-56504004D01*
X111049299Y-56384882D01*
X111061500Y-56261000D01*
X111061500Y-54869183D01*
X111156908Y-55011972D01*
X111378028Y-55233092D01*
X111638037Y-55406824D01*
X111926943Y-55526493D01*
X112233645Y-55587500D01*
X112546355Y-55587500D01*
X112853057Y-55526493D01*
X113141963Y-55406824D01*
X113401972Y-55233092D01*
X113623092Y-55011972D01*
X113796824Y-54751963D01*
X113916493Y-54463057D01*
X113977500Y-54156355D01*
X113977500Y-53843645D01*
X114302500Y-53843645D01*
X114302500Y-54156355D01*
X114363507Y-54463057D01*
X114483176Y-54751963D01*
X114656908Y-55011972D01*
X114878028Y-55233092D01*
X115138037Y-55406824D01*
X115426943Y-55526493D01*
X115733645Y-55587500D01*
X116046355Y-55587500D01*
X116353057Y-55526493D01*
X116641963Y-55406824D01*
X116901972Y-55233092D01*
X117123092Y-55011972D01*
X117296824Y-54751963D01*
X117416493Y-54463057D01*
X117477500Y-54156355D01*
X117477500Y-53843645D01*
X117802500Y-53843645D01*
X117802500Y-54156355D01*
X117863507Y-54463057D01*
X117983176Y-54751963D01*
X118156908Y-55011972D01*
X118378028Y-55233092D01*
X118638037Y-55406824D01*
X118926943Y-55526493D01*
X119233645Y-55587500D01*
X119546355Y-55587500D01*
X119853057Y-55526493D01*
X120141963Y-55406824D01*
X120401972Y-55233092D01*
X120623092Y-55011972D01*
X120796824Y-54751963D01*
X120916493Y-54463057D01*
X120977500Y-54156355D01*
X120977500Y-53843645D01*
X121302500Y-53843645D01*
X121302500Y-54156355D01*
X121363507Y-54463057D01*
X121483176Y-54751963D01*
X121656908Y-55011972D01*
X121878028Y-55233092D01*
X122138037Y-55406824D01*
X122426943Y-55526493D01*
X122733645Y-55587500D01*
X123046355Y-55587500D01*
X123353057Y-55526493D01*
X123641963Y-55406824D01*
X123901972Y-55233092D01*
X124123092Y-55011972D01*
X124296824Y-54751963D01*
X124416493Y-54463057D01*
X124477500Y-54156355D01*
X124477500Y-53843645D01*
X124802500Y-53843645D01*
X124802500Y-54156355D01*
X124863507Y-54463057D01*
X124983176Y-54751963D01*
X125156908Y-55011972D01*
X125378028Y-55233092D01*
X125638037Y-55406824D01*
X125926943Y-55526493D01*
X126233645Y-55587500D01*
X126546355Y-55587500D01*
X126853057Y-55526493D01*
X127141963Y-55406824D01*
X127401972Y-55233092D01*
X127623092Y-55011972D01*
X127796824Y-54751963D01*
X127916493Y-54463057D01*
X127977500Y-54156355D01*
X127977500Y-53843645D01*
X128302500Y-53843645D01*
X128302500Y-54156355D01*
X128363507Y-54463057D01*
X128483176Y-54751963D01*
X128656908Y-55011972D01*
X128878028Y-55233092D01*
X129138037Y-55406824D01*
X129426943Y-55526493D01*
X129733645Y-55587500D01*
X130046355Y-55587500D01*
X130353057Y-55526493D01*
X130641963Y-55406824D01*
X130901972Y-55233092D01*
X131123092Y-55011972D01*
X131296824Y-54751963D01*
X131416493Y-54463057D01*
X131477500Y-54156355D01*
X131477500Y-53862408D01*
X131993000Y-53862408D01*
X131993000Y-54137592D01*
X132046686Y-54407490D01*
X132151995Y-54661727D01*
X132304880Y-54890535D01*
X132499465Y-55085120D01*
X132728273Y-55238005D01*
X132982510Y-55343314D01*
X133252408Y-55397000D01*
X133527592Y-55397000D01*
X133797490Y-55343314D01*
X134051727Y-55238005D01*
X134280535Y-55085120D01*
X134475120Y-54890535D01*
X134628005Y-54661727D01*
X134733314Y-54407490D01*
X134787000Y-54137592D01*
X134787000Y-54064474D01*
X135296123Y-54064474D01*
X135339328Y-54374185D01*
X135442123Y-54669516D01*
X135528919Y-54831902D01*
X135788465Y-54921930D01*
X136710395Y-54000000D01*
X135788465Y-53078070D01*
X135528919Y-53168098D01*
X135392776Y-53449616D01*
X135314171Y-53752286D01*
X135296123Y-54064474D01*
X134787000Y-54064474D01*
X134787000Y-53862408D01*
X134733314Y-53592510D01*
X134628005Y-53338273D01*
X134475120Y-53109465D01*
X134280535Y-52914880D01*
X134051727Y-52761995D01*
X133797490Y-52656686D01*
X133527592Y-52603000D01*
X133252408Y-52603000D01*
X132982510Y-52656686D01*
X132728273Y-52761995D01*
X132499465Y-52914880D01*
X132304880Y-53109465D01*
X132151995Y-53338273D01*
X132046686Y-53592510D01*
X131993000Y-53862408D01*
X131477500Y-53862408D01*
X131477500Y-53843645D01*
X131416493Y-53536943D01*
X131296824Y-53248037D01*
X131123092Y-52988028D01*
X130901972Y-52766908D01*
X130641963Y-52593176D01*
X130353057Y-52473507D01*
X130046355Y-52412500D01*
X129733645Y-52412500D01*
X129426943Y-52473507D01*
X129138037Y-52593176D01*
X128878028Y-52766908D01*
X128656908Y-52988028D01*
X128483176Y-53248037D01*
X128363507Y-53536943D01*
X128302500Y-53843645D01*
X127977500Y-53843645D01*
X127916493Y-53536943D01*
X127796824Y-53248037D01*
X127623092Y-52988028D01*
X127401972Y-52766908D01*
X127141963Y-52593176D01*
X126853057Y-52473507D01*
X126546355Y-52412500D01*
X126233645Y-52412500D01*
X125926943Y-52473507D01*
X125638037Y-52593176D01*
X125378028Y-52766908D01*
X125156908Y-52988028D01*
X124983176Y-53248037D01*
X124863507Y-53536943D01*
X124802500Y-53843645D01*
X124477500Y-53843645D01*
X124416493Y-53536943D01*
X124296824Y-53248037D01*
X124123092Y-52988028D01*
X123901972Y-52766908D01*
X123641963Y-52593176D01*
X123353057Y-52473507D01*
X123046355Y-52412500D01*
X122733645Y-52412500D01*
X122426943Y-52473507D01*
X122138037Y-52593176D01*
X121878028Y-52766908D01*
X121656908Y-52988028D01*
X121483176Y-53248037D01*
X121363507Y-53536943D01*
X121302500Y-53843645D01*
X120977500Y-53843645D01*
X120916493Y-53536943D01*
X120796824Y-53248037D01*
X120623092Y-52988028D01*
X120401972Y-52766908D01*
X120141963Y-52593176D01*
X119853057Y-52473507D01*
X119546355Y-52412500D01*
X119233645Y-52412500D01*
X118926943Y-52473507D01*
X118638037Y-52593176D01*
X118378028Y-52766908D01*
X118156908Y-52988028D01*
X117983176Y-53248037D01*
X117863507Y-53536943D01*
X117802500Y-53843645D01*
X117477500Y-53843645D01*
X117416493Y-53536943D01*
X117296824Y-53248037D01*
X117123092Y-52988028D01*
X116901972Y-52766908D01*
X116641963Y-52593176D01*
X116353057Y-52473507D01*
X116046355Y-52412500D01*
X115733645Y-52412500D01*
X115426943Y-52473507D01*
X115138037Y-52593176D01*
X114878028Y-52766908D01*
X114656908Y-52988028D01*
X114483176Y-53248037D01*
X114363507Y-53536943D01*
X114302500Y-53843645D01*
X113977500Y-53843645D01*
X113916493Y-53536943D01*
X113796824Y-53248037D01*
X113623092Y-52988028D01*
X113401972Y-52766908D01*
X113141963Y-52593176D01*
X112853057Y-52473507D01*
X112546355Y-52412500D01*
X112233645Y-52412500D01*
X111926943Y-52473507D01*
X111638037Y-52593176D01*
X111378028Y-52766908D01*
X111156908Y-52988028D01*
X111061500Y-53130817D01*
X111061500Y-51101535D01*
X111468070Y-51101535D01*
X111558098Y-51361081D01*
X111839616Y-51497224D01*
X112142286Y-51575829D01*
X112454474Y-51593877D01*
X112764185Y-51550672D01*
X113059516Y-51447877D01*
X113221902Y-51361081D01*
X113311930Y-51101535D01*
X112390000Y-50179605D01*
X111468070Y-51101535D01*
X111061500Y-51101535D01*
X111061500Y-50843203D01*
X111288465Y-50921930D01*
X112210395Y-50000000D01*
X112569605Y-50000000D01*
X113491535Y-50921930D01*
X113751081Y-50831902D01*
X113887224Y-50550384D01*
X113965829Y-50247714D01*
X113983877Y-49935526D01*
X113971060Y-49843645D01*
X114302500Y-49843645D01*
X114302500Y-50156355D01*
X114363507Y-50463057D01*
X114483176Y-50751963D01*
X114656908Y-51011972D01*
X114878028Y-51233092D01*
X115138037Y-51406824D01*
X115426943Y-51526493D01*
X115733645Y-51587500D01*
X116046355Y-51587500D01*
X116353057Y-51526493D01*
X116641963Y-51406824D01*
X116901972Y-51233092D01*
X117123092Y-51011972D01*
X117296824Y-50751963D01*
X117416493Y-50463057D01*
X117477500Y-50156355D01*
X117477500Y-49843645D01*
X117802500Y-49843645D01*
X117802500Y-50156355D01*
X117863507Y-50463057D01*
X117983176Y-50751963D01*
X118156908Y-51011972D01*
X118378028Y-51233092D01*
X118638037Y-51406824D01*
X118926943Y-51526493D01*
X119233645Y-51587500D01*
X119546355Y-51587500D01*
X119853057Y-51526493D01*
X120141963Y-51406824D01*
X120401972Y-51233092D01*
X120623092Y-51011972D01*
X120796824Y-50751963D01*
X120916493Y-50463057D01*
X120977500Y-50156355D01*
X120977500Y-49843645D01*
X121302500Y-49843645D01*
X121302500Y-50156355D01*
X121363507Y-50463057D01*
X121483176Y-50751963D01*
X121656908Y-51011972D01*
X121878028Y-51233092D01*
X122138037Y-51406824D01*
X122426943Y-51526493D01*
X122733645Y-51587500D01*
X123046355Y-51587500D01*
X123353057Y-51526493D01*
X123641963Y-51406824D01*
X123901972Y-51233092D01*
X124123092Y-51011972D01*
X124296824Y-50751963D01*
X124416493Y-50463057D01*
X124477500Y-50156355D01*
X124477500Y-49843645D01*
X124802500Y-49843645D01*
X124802500Y-50156355D01*
X124863507Y-50463057D01*
X124983176Y-50751963D01*
X125156908Y-51011972D01*
X125378028Y-51233092D01*
X125638037Y-51406824D01*
X125926943Y-51526493D01*
X126233645Y-51587500D01*
X126546355Y-51587500D01*
X126853057Y-51526493D01*
X127141963Y-51406824D01*
X127401972Y-51233092D01*
X127533529Y-51101535D01*
X128968070Y-51101535D01*
X129058098Y-51361081D01*
X129339616Y-51497224D01*
X129642286Y-51575829D01*
X129954474Y-51593877D01*
X130264185Y-51550672D01*
X130559516Y-51447877D01*
X130721902Y-51361081D01*
X130811930Y-51101535D01*
X129890000Y-50179605D01*
X128968070Y-51101535D01*
X127533529Y-51101535D01*
X127623092Y-51011972D01*
X127796824Y-50751963D01*
X127916493Y-50463057D01*
X127977500Y-50156355D01*
X127977500Y-50064474D01*
X128296123Y-50064474D01*
X128339328Y-50374185D01*
X128442123Y-50669516D01*
X128528919Y-50831902D01*
X128788465Y-50921930D01*
X129710395Y-50000000D01*
X130069605Y-50000000D01*
X130991535Y-50921930D01*
X131251081Y-50831902D01*
X131387224Y-50550384D01*
X131465829Y-50247714D01*
X131483877Y-49935526D01*
X131440672Y-49625815D01*
X131337877Y-49330484D01*
X131251081Y-49168098D01*
X130991535Y-49078070D01*
X130069605Y-50000000D01*
X129710395Y-50000000D01*
X128788465Y-49078070D01*
X128528919Y-49168098D01*
X128392776Y-49449616D01*
X128314171Y-49752286D01*
X128296123Y-50064474D01*
X127977500Y-50064474D01*
X127977500Y-49843645D01*
X127916493Y-49536943D01*
X127796824Y-49248037D01*
X127623092Y-48988028D01*
X127533529Y-48898465D01*
X128968070Y-48898465D01*
X129890000Y-49820395D01*
X130811930Y-48898465D01*
X130721902Y-48638919D01*
X130440384Y-48502776D01*
X130137714Y-48424171D01*
X129825526Y-48406123D01*
X129515815Y-48449328D01*
X129220484Y-48552123D01*
X129058098Y-48638919D01*
X128968070Y-48898465D01*
X127533529Y-48898465D01*
X127401972Y-48766908D01*
X127141963Y-48593176D01*
X126853057Y-48473507D01*
X126546355Y-48412500D01*
X126233645Y-48412500D01*
X125926943Y-48473507D01*
X125638037Y-48593176D01*
X125378028Y-48766908D01*
X125156908Y-48988028D01*
X124983176Y-49248037D01*
X124863507Y-49536943D01*
X124802500Y-49843645D01*
X124477500Y-49843645D01*
X124416493Y-49536943D01*
X124296824Y-49248037D01*
X124123092Y-48988028D01*
X123901972Y-48766908D01*
X123641963Y-48593176D01*
X123353057Y-48473507D01*
X123046355Y-48412500D01*
X122733645Y-48412500D01*
X122426943Y-48473507D01*
X122138037Y-48593176D01*
X121878028Y-48766908D01*
X121656908Y-48988028D01*
X121483176Y-49248037D01*
X121363507Y-49536943D01*
X121302500Y-49843645D01*
X120977500Y-49843645D01*
X120916493Y-49536943D01*
X120796824Y-49248037D01*
X120623092Y-48988028D01*
X120401972Y-48766908D01*
X120141963Y-48593176D01*
X119853057Y-48473507D01*
X119546355Y-48412500D01*
X119233645Y-48412500D01*
X118926943Y-48473507D01*
X118638037Y-48593176D01*
X118378028Y-48766908D01*
X118156908Y-48988028D01*
X117983176Y-49248037D01*
X117863507Y-49536943D01*
X117802500Y-49843645D01*
X117477500Y-49843645D01*
X117416493Y-49536943D01*
X117296824Y-49248037D01*
X117123092Y-48988028D01*
X116901972Y-48766908D01*
X116641963Y-48593176D01*
X116353057Y-48473507D01*
X116046355Y-48412500D01*
X115733645Y-48412500D01*
X115426943Y-48473507D01*
X115138037Y-48593176D01*
X114878028Y-48766908D01*
X114656908Y-48988028D01*
X114483176Y-49248037D01*
X114363507Y-49536943D01*
X114302500Y-49843645D01*
X113971060Y-49843645D01*
X113940672Y-49625815D01*
X113837877Y-49330484D01*
X113751081Y-49168098D01*
X113491535Y-49078070D01*
X112569605Y-50000000D01*
X112210395Y-50000000D01*
X111288465Y-49078070D01*
X111061500Y-49156797D01*
X111061500Y-48898465D01*
X111468070Y-48898465D01*
X112390000Y-49820395D01*
X113311930Y-48898465D01*
X113221902Y-48638919D01*
X112940384Y-48502776D01*
X112637714Y-48424171D01*
X112325526Y-48406123D01*
X112015815Y-48449328D01*
X111720484Y-48552123D01*
X111558098Y-48638919D01*
X111468070Y-48898465D01*
X111061500Y-48898465D01*
X111061500Y-47434500D01*
X134493000Y-47434500D01*
X134493000Y-49136224D01*
X134475120Y-49109465D01*
X134280535Y-48914880D01*
X134051727Y-48761995D01*
X133797490Y-48656686D01*
X133527592Y-48603000D01*
X133252408Y-48603000D01*
X132982510Y-48656686D01*
X132728273Y-48761995D01*
X132499465Y-48914880D01*
X132304880Y-49109465D01*
X132151995Y-49338273D01*
X132046686Y-49592510D01*
X131993000Y-49862408D01*
X131993000Y-50137592D01*
X132046686Y-50407490D01*
X132151995Y-50661727D01*
X132304880Y-50890535D01*
X132499465Y-51085120D01*
X132728273Y-51238005D01*
X132982510Y-51343314D01*
X133252408Y-51397000D01*
X133527592Y-51397000D01*
X133797490Y-51343314D01*
X134051727Y-51238005D01*
X134280535Y-51085120D01*
X134475120Y-50890535D01*
X134493000Y-50863776D01*
X134493000Y-51790602D01*
X134505201Y-51914485D01*
X134541337Y-52033606D01*
X134600017Y-52143389D01*
X134678987Y-52239615D01*
X134775213Y-52318585D01*
X134884996Y-52377266D01*
X135004118Y-52413401D01*
X135128000Y-52425602D01*
X136685901Y-52425601D01*
X136515815Y-52449328D01*
X136220484Y-52552123D01*
X136058098Y-52638919D01*
X135968070Y-52898465D01*
X136890000Y-53820395D01*
X136904143Y-53806253D01*
X137083748Y-53985858D01*
X137069605Y-54000000D01*
X137083748Y-54014143D01*
X136904143Y-54193748D01*
X136890000Y-54179605D01*
X135968070Y-55101535D01*
X136058098Y-55361081D01*
X136339616Y-55497224D01*
X136642286Y-55575829D01*
X136954474Y-55593877D01*
X137264185Y-55550672D01*
X137559516Y-55447877D01*
X137642600Y-55403468D01*
X137642600Y-56751441D01*
X134116840Y-56724568D01*
X133988118Y-56736751D01*
X133868996Y-56772886D01*
X133759213Y-56831567D01*
X133662987Y-56910537D01*
X133584017Y-57006763D01*
X133525336Y-57116546D01*
X133489201Y-57235668D01*
X133477000Y-57359550D01*
X133477000Y-73025000D01*
X125730000Y-73025000D01*
X125606118Y-73037201D01*
X125486996Y-73073336D01*
X125377213Y-73132017D01*
X125280987Y-73210987D01*
X125202017Y-73307213D01*
X125143336Y-73416996D01*
X125107201Y-73536118D01*
X125095000Y-73660000D01*
X125095000Y-87274400D01*
X125107956Y-87402017D01*
X125144805Y-87520920D01*
X125204143Y-87630349D01*
X125283689Y-87726099D01*
X125380387Y-87804490D01*
X125490520Y-87862511D01*
X125609857Y-87897931D01*
X125733810Y-87909389D01*
X128270000Y-87894172D01*
X128270000Y-108342434D01*
X128249065Y-108328446D01*
X128003380Y-108226680D01*
X127742563Y-108174800D01*
X127476637Y-108174800D01*
X127215820Y-108226680D01*
X126970135Y-108328446D01*
X126749025Y-108476187D01*
X126560987Y-108664225D01*
X126413246Y-108885335D01*
X126338858Y-109064925D01*
X126292739Y-108938194D01*
X126236886Y-108833698D01*
X126001588Y-108772417D01*
X125249205Y-109524800D01*
X126001588Y-110277183D01*
X126236886Y-110215902D01*
X126341617Y-109991337D01*
X126413246Y-110164265D01*
X126560987Y-110385375D01*
X126749025Y-110573413D01*
X126970135Y-110721154D01*
X127215820Y-110822920D01*
X127476637Y-110874800D01*
X127742563Y-110874800D01*
X128003380Y-110822920D01*
X128249065Y-110721154D01*
X128270000Y-110707166D01*
X128270000Y-115309650D01*
X128282165Y-115433348D01*
X128318264Y-115552480D01*
X128376912Y-115662280D01*
X128455854Y-115758530D01*
X128552056Y-115837528D01*
X128661822Y-115896241D01*
X128780933Y-115932412D01*
X128904812Y-115944650D01*
X141865000Y-115948496D01*
X141865000Y-148984500D01*
X58135000Y-148984500D01*
X58135000Y-147550727D01*
X58239000Y-147550727D01*
X58239000Y-147789273D01*
X58285538Y-148023236D01*
X58376825Y-148243624D01*
X58509354Y-148441968D01*
X58678032Y-148610646D01*
X58876376Y-148743175D01*
X59096764Y-148834462D01*
X59330727Y-148881000D01*
X59569273Y-148881000D01*
X59803236Y-148834462D01*
X60023624Y-148743175D01*
X60221968Y-148610646D01*
X60390646Y-148441968D01*
X60523175Y-148243624D01*
X60614462Y-148023236D01*
X60661000Y-147789273D01*
X60661000Y-147550727D01*
X139339000Y-147550727D01*
X139339000Y-147789273D01*
X139385538Y-148023236D01*
X139476825Y-148243624D01*
X139609354Y-148441968D01*
X139778032Y-148610646D01*
X139976376Y-148743175D01*
X140196764Y-148834462D01*
X140430727Y-148881000D01*
X140669273Y-148881000D01*
X140903236Y-148834462D01*
X141123624Y-148743175D01*
X141321968Y-148610646D01*
X141490646Y-148441968D01*
X141623175Y-148243624D01*
X141714462Y-148023236D01*
X141761000Y-147789273D01*
X141761000Y-147550727D01*
X141714462Y-147316764D01*
X141623175Y-147096376D01*
X141490646Y-146898032D01*
X141321968Y-146729354D01*
X141123624Y-146596825D01*
X140903236Y-146505538D01*
X140669273Y-146459000D01*
X140430727Y-146459000D01*
X140196764Y-146505538D01*
X139976376Y-146596825D01*
X139778032Y-146729354D01*
X139609354Y-146898032D01*
X139476825Y-147096376D01*
X139385538Y-147316764D01*
X139339000Y-147550727D01*
X60661000Y-147550727D01*
X60614462Y-147316764D01*
X60523175Y-147096376D01*
X60390646Y-146898032D01*
X60221968Y-146729354D01*
X60023624Y-146596825D01*
X59803236Y-146505538D01*
X59569273Y-146459000D01*
X59330727Y-146459000D01*
X59096764Y-146505538D01*
X58876376Y-146596825D01*
X58678032Y-146729354D01*
X58509354Y-146898032D01*
X58376825Y-147096376D01*
X58285538Y-147316764D01*
X58239000Y-147550727D01*
X58135000Y-147550727D01*
X58135000Y-142544461D01*
X83902600Y-142544461D01*
X83902600Y-142748339D01*
X83942374Y-142948298D01*
X84020395Y-143136656D01*
X84133663Y-143306174D01*
X84277826Y-143450337D01*
X84447344Y-143563605D01*
X84635702Y-143641626D01*
X84835661Y-143681400D01*
X85039539Y-143681400D01*
X85239498Y-143641626D01*
X85427856Y-143563605D01*
X85597374Y-143450337D01*
X85741537Y-143306174D01*
X85758316Y-143281061D01*
X101708000Y-143281061D01*
X101708000Y-143484939D01*
X101747774Y-143684898D01*
X101825795Y-143873256D01*
X101939063Y-144042774D01*
X102083226Y-144186937D01*
X102252744Y-144300205D01*
X102441102Y-144378226D01*
X102641061Y-144418000D01*
X102844939Y-144418000D01*
X103044898Y-144378226D01*
X103233256Y-144300205D01*
X103402774Y-144186937D01*
X103546937Y-144042774D01*
X103660205Y-143873256D01*
X103738226Y-143684898D01*
X103778000Y-143484939D01*
X103778000Y-143281061D01*
X103738226Y-143081102D01*
X103660205Y-142892744D01*
X103546937Y-142723226D01*
X103402774Y-142579063D01*
X103233256Y-142465795D01*
X103044898Y-142387774D01*
X102844939Y-142348000D01*
X102641061Y-142348000D01*
X102441102Y-142387774D01*
X102252744Y-142465795D01*
X102083226Y-142579063D01*
X101939063Y-142723226D01*
X101825795Y-142892744D01*
X101747774Y-143081102D01*
X101708000Y-143281061D01*
X85758316Y-143281061D01*
X85854805Y-143136656D01*
X85932826Y-142948298D01*
X85972600Y-142748339D01*
X85972600Y-142544461D01*
X85932826Y-142344502D01*
X85854805Y-142156144D01*
X85741537Y-141986626D01*
X85597374Y-141842463D01*
X85469561Y-141757061D01*
X95485000Y-141757061D01*
X95485000Y-141960939D01*
X95524774Y-142160898D01*
X95602795Y-142349256D01*
X95716063Y-142518774D01*
X95860226Y-142662937D01*
X96029744Y-142776205D01*
X96218102Y-142854226D01*
X96418061Y-142894000D01*
X96621939Y-142894000D01*
X96821898Y-142854226D01*
X97010256Y-142776205D01*
X97179774Y-142662937D01*
X97323937Y-142518774D01*
X97437205Y-142349256D01*
X97515226Y-142160898D01*
X97555000Y-141960939D01*
X97555000Y-141757061D01*
X97515226Y-141557102D01*
X97437205Y-141368744D01*
X97323937Y-141199226D01*
X97179774Y-141055063D01*
X97010256Y-140941795D01*
X96821898Y-140863774D01*
X96621939Y-140824000D01*
X96418061Y-140824000D01*
X96218102Y-140863774D01*
X96029744Y-140941795D01*
X95860226Y-141055063D01*
X95716063Y-141199226D01*
X95602795Y-141368744D01*
X95524774Y-141557102D01*
X95485000Y-141757061D01*
X85469561Y-141757061D01*
X85427856Y-141729195D01*
X85239498Y-141651174D01*
X85039539Y-141611400D01*
X84835661Y-141611400D01*
X84635702Y-141651174D01*
X84447344Y-141729195D01*
X84277826Y-141842463D01*
X84133663Y-141986626D01*
X84020395Y-142156144D01*
X83942374Y-142344502D01*
X83902600Y-142544461D01*
X58135000Y-142544461D01*
X58135000Y-132892461D01*
X79610000Y-132892461D01*
X79610000Y-133096339D01*
X79649774Y-133296298D01*
X79727795Y-133484656D01*
X79841063Y-133654174D01*
X79985226Y-133798337D01*
X80154744Y-133911605D01*
X80343102Y-133989626D01*
X80543061Y-134029400D01*
X80746939Y-134029400D01*
X80946898Y-133989626D01*
X81081525Y-133933861D01*
X98380600Y-133933861D01*
X98380600Y-134137739D01*
X98420374Y-134337698D01*
X98498395Y-134526056D01*
X98611663Y-134695574D01*
X98755826Y-134839737D01*
X98925344Y-134953005D01*
X99113702Y-135031026D01*
X99313661Y-135070800D01*
X99517539Y-135070800D01*
X99717498Y-135031026D01*
X99905856Y-134953005D01*
X100075374Y-134839737D01*
X100128565Y-134786546D01*
X100266321Y-134843607D01*
X100466280Y-134883381D01*
X100670158Y-134883381D01*
X100870117Y-134843607D01*
X101058475Y-134765586D01*
X101227993Y-134652318D01*
X101372156Y-134508155D01*
X101485424Y-134338637D01*
X101563445Y-134150279D01*
X101603219Y-133950320D01*
X101603219Y-133746442D01*
X101563445Y-133546483D01*
X101485424Y-133358125D01*
X101372156Y-133188607D01*
X101227993Y-133044444D01*
X101058475Y-132931176D01*
X100870117Y-132853155D01*
X100670158Y-132813381D01*
X100466280Y-132813381D01*
X100266321Y-132853155D01*
X100077963Y-132931176D01*
X99908445Y-133044444D01*
X99855254Y-133097635D01*
X99717498Y-133040574D01*
X99517539Y-133000800D01*
X99313661Y-133000800D01*
X99113702Y-133040574D01*
X98925344Y-133118595D01*
X98755826Y-133231863D01*
X98611663Y-133376026D01*
X98498395Y-133545544D01*
X98420374Y-133733902D01*
X98380600Y-133933861D01*
X81081525Y-133933861D01*
X81135256Y-133911605D01*
X81304774Y-133798337D01*
X81448937Y-133654174D01*
X81562205Y-133484656D01*
X81640226Y-133296298D01*
X81680000Y-133096339D01*
X81680000Y-132892461D01*
X81640226Y-132692502D01*
X81562205Y-132504144D01*
X81448937Y-132334626D01*
X81304774Y-132190463D01*
X81135256Y-132077195D01*
X80946898Y-131999174D01*
X80746939Y-131959400D01*
X80543061Y-131959400D01*
X80343102Y-131999174D01*
X80154744Y-132077195D01*
X79985226Y-132190463D01*
X79841063Y-132334626D01*
X79727795Y-132504144D01*
X79649774Y-132692502D01*
X79610000Y-132892461D01*
X58135000Y-132892461D01*
X58135000Y-131216061D01*
X90303400Y-131216061D01*
X90303400Y-131419939D01*
X90343174Y-131619898D01*
X90421195Y-131808256D01*
X90534463Y-131977774D01*
X90678626Y-132121937D01*
X90848144Y-132235205D01*
X91036502Y-132313226D01*
X91236461Y-132353000D01*
X91440339Y-132353000D01*
X91640298Y-132313226D01*
X91828656Y-132235205D01*
X91998174Y-132121937D01*
X92142337Y-131977774D01*
X92255605Y-131808256D01*
X92333626Y-131619898D01*
X92373400Y-131419939D01*
X92373400Y-131216061D01*
X92333626Y-131016102D01*
X92255605Y-130827744D01*
X92142337Y-130658226D01*
X91998174Y-130514063D01*
X91828656Y-130400795D01*
X91640298Y-130322774D01*
X91440339Y-130283000D01*
X91236461Y-130283000D01*
X91036502Y-130322774D01*
X90848144Y-130400795D01*
X90678626Y-130514063D01*
X90534463Y-130658226D01*
X90421195Y-130827744D01*
X90343174Y-131016102D01*
X90303400Y-131216061D01*
X58135000Y-131216061D01*
X58135000Y-130098461D01*
X111982300Y-130098461D01*
X111982300Y-130302339D01*
X112022074Y-130502298D01*
X112100095Y-130690656D01*
X112213363Y-130860174D01*
X112357526Y-131004337D01*
X112527044Y-131117605D01*
X112715402Y-131195626D01*
X112915361Y-131235400D01*
X113119239Y-131235400D01*
X113319198Y-131195626D01*
X113507556Y-131117605D01*
X113677074Y-131004337D01*
X113821237Y-130860174D01*
X113934505Y-130690656D01*
X114012526Y-130502298D01*
X114052300Y-130302339D01*
X114052300Y-130098461D01*
X114012526Y-129898502D01*
X113934505Y-129710144D01*
X113821237Y-129540626D01*
X113677074Y-129396463D01*
X113507556Y-129283195D01*
X113319198Y-129205174D01*
X113119239Y-129165400D01*
X112915361Y-129165400D01*
X112715402Y-129205174D01*
X112527044Y-129283195D01*
X112357526Y-129396463D01*
X112213363Y-129540626D01*
X112100095Y-129710144D01*
X112022074Y-129898502D01*
X111982300Y-130098461D01*
X58135000Y-130098461D01*
X58135000Y-128701461D01*
X81972200Y-128701461D01*
X81972200Y-128905339D01*
X82011974Y-129105298D01*
X82089995Y-129293656D01*
X82203263Y-129463174D01*
X82347426Y-129607337D01*
X82516944Y-129720605D01*
X82705302Y-129798626D01*
X82905261Y-129838400D01*
X83109139Y-129838400D01*
X83309098Y-129798626D01*
X83497456Y-129720605D01*
X83666974Y-129607337D01*
X83811137Y-129463174D01*
X83924405Y-129293656D01*
X84002426Y-129105298D01*
X84042200Y-128905339D01*
X84042200Y-128701461D01*
X84002426Y-128501502D01*
X83969521Y-128422061D01*
X109340700Y-128422061D01*
X109340700Y-128625939D01*
X109380474Y-128825898D01*
X109458495Y-129014256D01*
X109571763Y-129183774D01*
X109715926Y-129327937D01*
X109885444Y-129441205D01*
X110073802Y-129519226D01*
X110273761Y-129559000D01*
X110477639Y-129559000D01*
X110677598Y-129519226D01*
X110865956Y-129441205D01*
X111035474Y-129327937D01*
X111179637Y-129183774D01*
X111292905Y-129014256D01*
X111370926Y-128825898D01*
X111410700Y-128625939D01*
X111410700Y-128422061D01*
X111370926Y-128222102D01*
X111292905Y-128033744D01*
X111179637Y-127864226D01*
X111035474Y-127720063D01*
X110865956Y-127606795D01*
X110677598Y-127528774D01*
X110477639Y-127489000D01*
X110273761Y-127489000D01*
X110073802Y-127528774D01*
X109885444Y-127606795D01*
X109715926Y-127720063D01*
X109571763Y-127864226D01*
X109458495Y-128033744D01*
X109380474Y-128222102D01*
X109340700Y-128422061D01*
X83969521Y-128422061D01*
X83924405Y-128313144D01*
X83811137Y-128143626D01*
X83666974Y-127999463D01*
X83497456Y-127886195D01*
X83309098Y-127808174D01*
X83109139Y-127768400D01*
X82905261Y-127768400D01*
X82705302Y-127808174D01*
X82516944Y-127886195D01*
X82347426Y-127999463D01*
X82203263Y-128143626D01*
X82089995Y-128313144D01*
X82011974Y-128501502D01*
X81972200Y-128701461D01*
X58135000Y-128701461D01*
X58135000Y-125501061D01*
X76816000Y-125501061D01*
X76816000Y-125704939D01*
X76855774Y-125904898D01*
X76933795Y-126093256D01*
X77047063Y-126262774D01*
X77191226Y-126406937D01*
X77360744Y-126520205D01*
X77549102Y-126598226D01*
X77749061Y-126638000D01*
X77952939Y-126638000D01*
X78152898Y-126598226D01*
X78341256Y-126520205D01*
X78510774Y-126406937D01*
X78654937Y-126262774D01*
X78768205Y-126093256D01*
X78846226Y-125904898D01*
X78886000Y-125704939D01*
X78886000Y-125501061D01*
X78846226Y-125301102D01*
X78768205Y-125112744D01*
X78654937Y-124943226D01*
X78510774Y-124799063D01*
X78341256Y-124685795D01*
X78152898Y-124607774D01*
X77952939Y-124568000D01*
X77749061Y-124568000D01*
X77549102Y-124607774D01*
X77360744Y-124685795D01*
X77191226Y-124799063D01*
X77047063Y-124943226D01*
X76933795Y-125112744D01*
X76855774Y-125301102D01*
X76816000Y-125501061D01*
X58135000Y-125501061D01*
X58135000Y-124053261D01*
X111995000Y-124053261D01*
X111995000Y-124257139D01*
X112034774Y-124457098D01*
X112112795Y-124645456D01*
X112226063Y-124814974D01*
X112370226Y-124959137D01*
X112539744Y-125072405D01*
X112728102Y-125150426D01*
X112928061Y-125190200D01*
X113131939Y-125190200D01*
X113331898Y-125150426D01*
X113520256Y-125072405D01*
X113689774Y-124959137D01*
X113833937Y-124814974D01*
X113947205Y-124645456D01*
X114025226Y-124457098D01*
X114065000Y-124257139D01*
X114065000Y-124053261D01*
X114025226Y-123853302D01*
X113947205Y-123664944D01*
X113833937Y-123495426D01*
X113689774Y-123351263D01*
X113520256Y-123237995D01*
X113331898Y-123159974D01*
X113131939Y-123120200D01*
X112928061Y-123120200D01*
X112728102Y-123159974D01*
X112539744Y-123237995D01*
X112370226Y-123351263D01*
X112226063Y-123495426D01*
X112112795Y-123664944D01*
X112034774Y-123853302D01*
X111995000Y-124053261D01*
X58135000Y-124053261D01*
X58135000Y-120243261D01*
X79305200Y-120243261D01*
X79305200Y-120447139D01*
X79344974Y-120647098D01*
X79422995Y-120835456D01*
X79536263Y-121004974D01*
X79680426Y-121149137D01*
X79849944Y-121262405D01*
X80038302Y-121340426D01*
X80238261Y-121380200D01*
X80442139Y-121380200D01*
X80642098Y-121340426D01*
X80830456Y-121262405D01*
X80999974Y-121149137D01*
X81144137Y-121004974D01*
X81257405Y-120835456D01*
X81271237Y-120802061D01*
X93249800Y-120802061D01*
X93249800Y-121005939D01*
X93289574Y-121205898D01*
X93367595Y-121394256D01*
X93480863Y-121563774D01*
X93625026Y-121707937D01*
X93794544Y-121821205D01*
X93982902Y-121899226D01*
X94182861Y-121939000D01*
X94386739Y-121939000D01*
X94586698Y-121899226D01*
X94775056Y-121821205D01*
X94944574Y-121707937D01*
X95088737Y-121563774D01*
X95202005Y-121394256D01*
X95280026Y-121205898D01*
X95319800Y-121005939D01*
X95319800Y-120802061D01*
X95280026Y-120602102D01*
X95202005Y-120413744D01*
X95088737Y-120244226D01*
X94944574Y-120100063D01*
X94775056Y-119986795D01*
X94586698Y-119908774D01*
X94386739Y-119869000D01*
X94182861Y-119869000D01*
X93982902Y-119908774D01*
X93794544Y-119986795D01*
X93625026Y-120100063D01*
X93480863Y-120244226D01*
X93367595Y-120413744D01*
X93289574Y-120602102D01*
X93249800Y-120802061D01*
X81271237Y-120802061D01*
X81335426Y-120647098D01*
X81375200Y-120447139D01*
X81375200Y-120243261D01*
X81335426Y-120043302D01*
X81257405Y-119854944D01*
X81144137Y-119685426D01*
X80999974Y-119541263D01*
X80830456Y-119427995D01*
X80642098Y-119349974D01*
X80442139Y-119310200D01*
X80238261Y-119310200D01*
X80038302Y-119349974D01*
X79849944Y-119427995D01*
X79680426Y-119541263D01*
X79536263Y-119685426D01*
X79422995Y-119854944D01*
X79344974Y-120043302D01*
X79305200Y-120243261D01*
X58135000Y-120243261D01*
X58135000Y-118490661D01*
X76066700Y-118490661D01*
X76066700Y-118694539D01*
X76106474Y-118894498D01*
X76184495Y-119082856D01*
X76297763Y-119252374D01*
X76441926Y-119396537D01*
X76611444Y-119509805D01*
X76799802Y-119587826D01*
X76999761Y-119627600D01*
X77203639Y-119627600D01*
X77403598Y-119587826D01*
X77591956Y-119509805D01*
X77761474Y-119396537D01*
X77905637Y-119252374D01*
X78018905Y-119082856D01*
X78096926Y-118894498D01*
X78136700Y-118694539D01*
X78136700Y-118490661D01*
X78096926Y-118290702D01*
X78018905Y-118102344D01*
X77905637Y-117932826D01*
X77761474Y-117788663D01*
X77591956Y-117675395D01*
X77403598Y-117597374D01*
X77203639Y-117557600D01*
X76999761Y-117557600D01*
X76799802Y-117597374D01*
X76611444Y-117675395D01*
X76441926Y-117788663D01*
X76297763Y-117932826D01*
X76184495Y-118102344D01*
X76106474Y-118290702D01*
X76066700Y-118490661D01*
X58135000Y-118490661D01*
X58135000Y-112750261D01*
X79279800Y-112750261D01*
X79279800Y-112954139D01*
X79319574Y-113154098D01*
X79397595Y-113342456D01*
X79510863Y-113511974D01*
X79655026Y-113656137D01*
X79824544Y-113769405D01*
X80012902Y-113847426D01*
X80212861Y-113887200D01*
X80416739Y-113887200D01*
X80616698Y-113847426D01*
X80805056Y-113769405D01*
X80974574Y-113656137D01*
X81118737Y-113511974D01*
X81232005Y-113342456D01*
X81310026Y-113154098D01*
X81349800Y-112954139D01*
X81349800Y-112826461D01*
X90227200Y-112826461D01*
X90227200Y-113030339D01*
X90266974Y-113230298D01*
X90344995Y-113418656D01*
X90458263Y-113588174D01*
X90602426Y-113732337D01*
X90771944Y-113845605D01*
X90960302Y-113923626D01*
X91160261Y-113963400D01*
X91364139Y-113963400D01*
X91564098Y-113923626D01*
X91752456Y-113845605D01*
X91921974Y-113732337D01*
X92066137Y-113588174D01*
X92179405Y-113418656D01*
X92257426Y-113230298D01*
X92297200Y-113030339D01*
X92297200Y-112851861D01*
X96602600Y-112851861D01*
X96602600Y-113055739D01*
X96642374Y-113255698D01*
X96720395Y-113444056D01*
X96833663Y-113613574D01*
X96977826Y-113757737D01*
X97147344Y-113871005D01*
X97335702Y-113949026D01*
X97535661Y-113988800D01*
X97739539Y-113988800D01*
X97939498Y-113949026D01*
X98127856Y-113871005D01*
X98297374Y-113757737D01*
X98441537Y-113613574D01*
X98554805Y-113444056D01*
X98584419Y-113372561D01*
X102820500Y-113372561D01*
X102820500Y-113576439D01*
X102860274Y-113776398D01*
X102938295Y-113964756D01*
X103051563Y-114134274D01*
X103195726Y-114278437D01*
X103365244Y-114391705D01*
X103553602Y-114469726D01*
X103753561Y-114509500D01*
X103957439Y-114509500D01*
X104157398Y-114469726D01*
X104345756Y-114391705D01*
X104515274Y-114278437D01*
X104659437Y-114134274D01*
X104772705Y-113964756D01*
X104850726Y-113776398D01*
X104890500Y-113576439D01*
X104890500Y-113372561D01*
X104850726Y-113172602D01*
X104772705Y-112984244D01*
X104659437Y-112814726D01*
X104515274Y-112670563D01*
X104345756Y-112557295D01*
X104157398Y-112479274D01*
X103957439Y-112439500D01*
X103753561Y-112439500D01*
X103553602Y-112479274D01*
X103365244Y-112557295D01*
X103195726Y-112670563D01*
X103051563Y-112814726D01*
X102938295Y-112984244D01*
X102860274Y-113172602D01*
X102820500Y-113372561D01*
X98584419Y-113372561D01*
X98632826Y-113255698D01*
X98672600Y-113055739D01*
X98672600Y-112851861D01*
X98632826Y-112651902D01*
X98554805Y-112463544D01*
X98441537Y-112294026D01*
X98297374Y-112149863D01*
X98127856Y-112036595D01*
X97939498Y-111958574D01*
X97739539Y-111918800D01*
X97535661Y-111918800D01*
X97335702Y-111958574D01*
X97147344Y-112036595D01*
X96977826Y-112149863D01*
X96833663Y-112294026D01*
X96720395Y-112463544D01*
X96642374Y-112651902D01*
X96602600Y-112851861D01*
X92297200Y-112851861D01*
X92297200Y-112826461D01*
X92257426Y-112626502D01*
X92179405Y-112438144D01*
X92066137Y-112268626D01*
X91921974Y-112124463D01*
X91752456Y-112011195D01*
X91564098Y-111933174D01*
X91364139Y-111893400D01*
X91160261Y-111893400D01*
X90960302Y-111933174D01*
X90771944Y-112011195D01*
X90602426Y-112124463D01*
X90458263Y-112268626D01*
X90344995Y-112438144D01*
X90266974Y-112626502D01*
X90227200Y-112826461D01*
X81349800Y-112826461D01*
X81349800Y-112750261D01*
X81310026Y-112550302D01*
X81232005Y-112361944D01*
X81118737Y-112192426D01*
X80974574Y-112048263D01*
X80805056Y-111934995D01*
X80616698Y-111856974D01*
X80416739Y-111817200D01*
X80212861Y-111817200D01*
X80012902Y-111856974D01*
X79824544Y-111934995D01*
X79655026Y-112048263D01*
X79510863Y-112192426D01*
X79397595Y-112361944D01*
X79319574Y-112550302D01*
X79279800Y-112750261D01*
X58135000Y-112750261D01*
X58135000Y-110540461D01*
X77857400Y-110540461D01*
X77857400Y-110744339D01*
X77897174Y-110944298D01*
X77975195Y-111132656D01*
X78088463Y-111302174D01*
X78232626Y-111446337D01*
X78402144Y-111559605D01*
X78590502Y-111637626D01*
X78790461Y-111677400D01*
X78994339Y-111677400D01*
X79194298Y-111637626D01*
X79382656Y-111559605D01*
X79552174Y-111446337D01*
X79696050Y-111302461D01*
X85172600Y-111302461D01*
X85172600Y-111506339D01*
X85212374Y-111706298D01*
X85290395Y-111894656D01*
X85403663Y-112064174D01*
X85547826Y-112208337D01*
X85717344Y-112321605D01*
X85905702Y-112399626D01*
X86105661Y-112439400D01*
X86309539Y-112439400D01*
X86509498Y-112399626D01*
X86697856Y-112321605D01*
X86867374Y-112208337D01*
X87011537Y-112064174D01*
X87124805Y-111894656D01*
X87202826Y-111706298D01*
X87242600Y-111506339D01*
X87242600Y-111302461D01*
X87202826Y-111102502D01*
X87124805Y-110914144D01*
X87011537Y-110744626D01*
X86867374Y-110600463D01*
X86697856Y-110487195D01*
X86509498Y-110409174D01*
X86309539Y-110369400D01*
X86105661Y-110369400D01*
X85905702Y-110409174D01*
X85717344Y-110487195D01*
X85547826Y-110600463D01*
X85403663Y-110744626D01*
X85290395Y-110914144D01*
X85212374Y-111102502D01*
X85172600Y-111302461D01*
X79696050Y-111302461D01*
X79696337Y-111302174D01*
X79809605Y-111132656D01*
X79887626Y-110944298D01*
X79927400Y-110744339D01*
X79927400Y-110540461D01*
X79887626Y-110340502D01*
X79809605Y-110152144D01*
X79797523Y-110134061D01*
X93478400Y-110134061D01*
X93478400Y-110337939D01*
X93518174Y-110537898D01*
X93596195Y-110726256D01*
X93709463Y-110895774D01*
X93853626Y-111039937D01*
X94023144Y-111153205D01*
X94211502Y-111231226D01*
X94411461Y-111271000D01*
X94615339Y-111271000D01*
X94815298Y-111231226D01*
X95003656Y-111153205D01*
X95173174Y-111039937D01*
X95317337Y-110895774D01*
X95430605Y-110726256D01*
X95508626Y-110537898D01*
X95548400Y-110337939D01*
X95548400Y-110299161D01*
X120288100Y-110299161D01*
X120288100Y-110503039D01*
X120327874Y-110702998D01*
X120405895Y-110891356D01*
X120519163Y-111060874D01*
X120663326Y-111205037D01*
X120832844Y-111318305D01*
X121021202Y-111396326D01*
X121221161Y-111436100D01*
X121425039Y-111436100D01*
X121624998Y-111396326D01*
X121813356Y-111318305D01*
X121982874Y-111205037D01*
X122127037Y-111060874D01*
X122240305Y-110891356D01*
X122318326Y-110702998D01*
X122358100Y-110503039D01*
X122358100Y-110456788D01*
X124317217Y-110456788D01*
X124378498Y-110692086D01*
X124619503Y-110804484D01*
X124877806Y-110867705D01*
X125143479Y-110879318D01*
X125406312Y-110838878D01*
X125656206Y-110747939D01*
X125760702Y-110692086D01*
X125821983Y-110456788D01*
X125069600Y-109704405D01*
X124317217Y-110456788D01*
X122358100Y-110456788D01*
X122358100Y-110299161D01*
X122318326Y-110099202D01*
X122240305Y-109910844D01*
X122127037Y-109741326D01*
X121984390Y-109598679D01*
X123715082Y-109598679D01*
X123755522Y-109861512D01*
X123846461Y-110111406D01*
X123902314Y-110215902D01*
X124137612Y-110277183D01*
X124889995Y-109524800D01*
X124137612Y-108772417D01*
X123902314Y-108833698D01*
X123789916Y-109074703D01*
X123726695Y-109333006D01*
X123715082Y-109598679D01*
X121984390Y-109598679D01*
X121982874Y-109597163D01*
X121813356Y-109483895D01*
X121624998Y-109405874D01*
X121425039Y-109366100D01*
X121221161Y-109366100D01*
X121021202Y-109405874D01*
X120832844Y-109483895D01*
X120663326Y-109597163D01*
X120519163Y-109741326D01*
X120405895Y-109910844D01*
X120327874Y-110099202D01*
X120288100Y-110299161D01*
X95548400Y-110299161D01*
X95548400Y-110134061D01*
X95508626Y-109934102D01*
X95430605Y-109745744D01*
X95317337Y-109576226D01*
X95173174Y-109432063D01*
X95003656Y-109318795D01*
X94815298Y-109240774D01*
X94615339Y-109201000D01*
X94411461Y-109201000D01*
X94211502Y-109240774D01*
X94023144Y-109318795D01*
X93853626Y-109432063D01*
X93709463Y-109576226D01*
X93596195Y-109745744D01*
X93518174Y-109934102D01*
X93478400Y-110134061D01*
X79797523Y-110134061D01*
X79696337Y-109982626D01*
X79552174Y-109838463D01*
X79382656Y-109725195D01*
X79194298Y-109647174D01*
X78994339Y-109607400D01*
X78790461Y-109607400D01*
X78590502Y-109647174D01*
X78402144Y-109725195D01*
X78232626Y-109838463D01*
X78088463Y-109982626D01*
X77975195Y-110152144D01*
X77897174Y-110340502D01*
X77857400Y-110540461D01*
X58135000Y-110540461D01*
X58135000Y-108338551D01*
X71627459Y-108350050D01*
X71751882Y-108337849D01*
X71871004Y-108301714D01*
X71980787Y-108243033D01*
X72077013Y-108164063D01*
X72155983Y-108067837D01*
X72178419Y-108025861D01*
X107511900Y-108025861D01*
X107511900Y-108229739D01*
X107551674Y-108429698D01*
X107629695Y-108618056D01*
X107742963Y-108787574D01*
X107887126Y-108931737D01*
X108056644Y-109045005D01*
X108245002Y-109123026D01*
X108444961Y-109162800D01*
X108648839Y-109162800D01*
X108848798Y-109123026D01*
X109037156Y-109045005D01*
X109206674Y-108931737D01*
X109350837Y-108787574D01*
X109443989Y-108648161D01*
X118484700Y-108648161D01*
X118484700Y-108852039D01*
X118524474Y-109051998D01*
X118602495Y-109240356D01*
X118715763Y-109409874D01*
X118859926Y-109554037D01*
X119029444Y-109667305D01*
X119217802Y-109745326D01*
X119417761Y-109785100D01*
X119621639Y-109785100D01*
X119821598Y-109745326D01*
X120009956Y-109667305D01*
X120179474Y-109554037D01*
X120323637Y-109409874D01*
X120436905Y-109240356D01*
X120514926Y-109051998D01*
X120554700Y-108852039D01*
X120554700Y-108648161D01*
X120543691Y-108592812D01*
X124317217Y-108592812D01*
X125069600Y-109345195D01*
X125821983Y-108592812D01*
X125760702Y-108357514D01*
X125519697Y-108245116D01*
X125261394Y-108181895D01*
X124995721Y-108170282D01*
X124732888Y-108210722D01*
X124482994Y-108301661D01*
X124378498Y-108357514D01*
X124317217Y-108592812D01*
X120543691Y-108592812D01*
X120514926Y-108448202D01*
X120436905Y-108259844D01*
X120323637Y-108090326D01*
X120179474Y-107946163D01*
X120009956Y-107832895D01*
X119821598Y-107754874D01*
X119621639Y-107715100D01*
X119417761Y-107715100D01*
X119217802Y-107754874D01*
X119029444Y-107832895D01*
X118859926Y-107946163D01*
X118715763Y-108090326D01*
X118602495Y-108259844D01*
X118524474Y-108448202D01*
X118484700Y-108648161D01*
X109443989Y-108648161D01*
X109464105Y-108618056D01*
X109542126Y-108429698D01*
X109581900Y-108229739D01*
X109581900Y-108025861D01*
X109542126Y-107825902D01*
X109464105Y-107637544D01*
X109350837Y-107468026D01*
X109206674Y-107323863D01*
X109037156Y-107210595D01*
X108848798Y-107132574D01*
X108648839Y-107092800D01*
X108444961Y-107092800D01*
X108245002Y-107132574D01*
X108056644Y-107210595D01*
X107887126Y-107323863D01*
X107742963Y-107468026D01*
X107629695Y-107637544D01*
X107551674Y-107825902D01*
X107511900Y-108025861D01*
X72178419Y-108025861D01*
X72214664Y-107958054D01*
X72250799Y-107838932D01*
X72263000Y-107715050D01*
X72263000Y-105433951D01*
X102482700Y-105433951D01*
X102482700Y-105637829D01*
X102522474Y-105837788D01*
X102600495Y-106026146D01*
X102713763Y-106195664D01*
X102857926Y-106339827D01*
X103027444Y-106453095D01*
X103215802Y-106531116D01*
X103415761Y-106570890D01*
X103619639Y-106570890D01*
X103819598Y-106531116D01*
X104007956Y-106453095D01*
X104177474Y-106339827D01*
X104321637Y-106195664D01*
X104434905Y-106026146D01*
X104512926Y-105837788D01*
X104552700Y-105637829D01*
X104552700Y-105433951D01*
X104512926Y-105233992D01*
X104434905Y-105045634D01*
X104321637Y-104876116D01*
X104177474Y-104731953D01*
X104007956Y-104618685D01*
X103819598Y-104540664D01*
X103619639Y-104500890D01*
X103415761Y-104500890D01*
X103215802Y-104540664D01*
X103027444Y-104618685D01*
X102857926Y-104731953D01*
X102713763Y-104876116D01*
X102600495Y-105045634D01*
X102522474Y-105233992D01*
X102482700Y-105433951D01*
X72263000Y-105433951D01*
X72263000Y-102206479D01*
X72385535Y-102288354D01*
X72631220Y-102390120D01*
X72892037Y-102442000D01*
X73157963Y-102442000D01*
X73418780Y-102390120D01*
X73664465Y-102288354D01*
X73885575Y-102140613D01*
X74002200Y-102023988D01*
X74812617Y-102023988D01*
X74873898Y-102259286D01*
X75114903Y-102371684D01*
X75373206Y-102434905D01*
X75638879Y-102446518D01*
X75901712Y-102406078D01*
X75953969Y-102387061D01*
X86823600Y-102387061D01*
X86823600Y-102590939D01*
X86863374Y-102790898D01*
X86941395Y-102979256D01*
X87054663Y-103148774D01*
X87198826Y-103292937D01*
X87368344Y-103406205D01*
X87556702Y-103484226D01*
X87756661Y-103524000D01*
X87960539Y-103524000D01*
X88160498Y-103484226D01*
X88348856Y-103406205D01*
X88518374Y-103292937D01*
X88662537Y-103148774D01*
X88775805Y-102979256D01*
X88853826Y-102790898D01*
X88893600Y-102590939D01*
X88893600Y-102387061D01*
X88853826Y-102187102D01*
X88775805Y-101998744D01*
X88662537Y-101829226D01*
X88518374Y-101685063D01*
X88348856Y-101571795D01*
X88160498Y-101493774D01*
X87960539Y-101454000D01*
X87756661Y-101454000D01*
X87556702Y-101493774D01*
X87368344Y-101571795D01*
X87198826Y-101685063D01*
X87054663Y-101829226D01*
X86941395Y-101998744D01*
X86863374Y-102187102D01*
X86823600Y-102387061D01*
X75953969Y-102387061D01*
X76151606Y-102315139D01*
X76256102Y-102259286D01*
X76317383Y-102023988D01*
X75565000Y-101271605D01*
X74812617Y-102023988D01*
X74002200Y-102023988D01*
X74073613Y-101952575D01*
X74221354Y-101731465D01*
X74295742Y-101551875D01*
X74341861Y-101678606D01*
X74397714Y-101783102D01*
X74633012Y-101844383D01*
X75385395Y-101092000D01*
X75744605Y-101092000D01*
X76496988Y-101844383D01*
X76732286Y-101783102D01*
X76844684Y-101542097D01*
X76907905Y-101283794D01*
X76919518Y-101018121D01*
X76879078Y-100755288D01*
X76788139Y-100505394D01*
X76732286Y-100400898D01*
X76556288Y-100355061D01*
X101377800Y-100355061D01*
X101377800Y-100558939D01*
X101417574Y-100758898D01*
X101495595Y-100947256D01*
X101608863Y-101116774D01*
X101753026Y-101260937D01*
X101922544Y-101374205D01*
X102110902Y-101452226D01*
X102310861Y-101492000D01*
X102514739Y-101492000D01*
X102705698Y-101454016D01*
X112007189Y-101454016D01*
X112190260Y-101792614D01*
X112603341Y-102005868D01*
X113050088Y-102134435D01*
X113513333Y-102173377D01*
X113975275Y-102121196D01*
X114418161Y-101979897D01*
X114768540Y-101792614D01*
X114951611Y-101454016D01*
X113479400Y-99981805D01*
X112007189Y-101454016D01*
X102705698Y-101454016D01*
X102714698Y-101452226D01*
X102903056Y-101374205D01*
X103072574Y-101260937D01*
X103216737Y-101116774D01*
X103330005Y-100947256D01*
X103408026Y-100758898D01*
X103447800Y-100558939D01*
X103447800Y-100355061D01*
X103408026Y-100155102D01*
X103330005Y-99966744D01*
X103242734Y-99836133D01*
X111108223Y-99836133D01*
X111160404Y-100298075D01*
X111301703Y-100740961D01*
X111488986Y-101091340D01*
X111827584Y-101274411D01*
X113299795Y-99802200D01*
X113659005Y-99802200D01*
X115131216Y-101274411D01*
X115469814Y-101091340D01*
X115683068Y-100678259D01*
X115811635Y-100231512D01*
X115850577Y-99768267D01*
X115798396Y-99306325D01*
X115657097Y-98863439D01*
X115469814Y-98513060D01*
X115131216Y-98329989D01*
X113659005Y-99802200D01*
X113299795Y-99802200D01*
X111827584Y-98329989D01*
X111488986Y-98513060D01*
X111275732Y-98926141D01*
X111147165Y-99372888D01*
X111108223Y-99836133D01*
X103242734Y-99836133D01*
X103216737Y-99797226D01*
X103072574Y-99653063D01*
X102903056Y-99539795D01*
X102714698Y-99461774D01*
X102514739Y-99422000D01*
X102310861Y-99422000D01*
X102110902Y-99461774D01*
X101922544Y-99539795D01*
X101753026Y-99653063D01*
X101608863Y-99797226D01*
X101495595Y-99966744D01*
X101417574Y-100155102D01*
X101377800Y-100355061D01*
X76556288Y-100355061D01*
X76496988Y-100339617D01*
X75744605Y-101092000D01*
X75385395Y-101092000D01*
X74633012Y-100339617D01*
X74397714Y-100400898D01*
X74292983Y-100625463D01*
X74221354Y-100452535D01*
X74073613Y-100231425D01*
X74002200Y-100160012D01*
X74812617Y-100160012D01*
X75565000Y-100912395D01*
X76317383Y-100160012D01*
X76256102Y-99924714D01*
X76015097Y-99812316D01*
X75756794Y-99749095D01*
X75491121Y-99737482D01*
X75228288Y-99777922D01*
X74978394Y-99868861D01*
X74873898Y-99924714D01*
X74812617Y-100160012D01*
X74002200Y-100160012D01*
X73885575Y-100043387D01*
X73664465Y-99895646D01*
X73418780Y-99793880D01*
X73157963Y-99742000D01*
X72892037Y-99742000D01*
X72631220Y-99793880D01*
X72385535Y-99895646D01*
X72263000Y-99977521D01*
X72263000Y-98150384D01*
X112007189Y-98150384D01*
X113479400Y-99622595D01*
X114951611Y-98150384D01*
X114768540Y-97811786D01*
X114355459Y-97598532D01*
X113908712Y-97469965D01*
X113445467Y-97431023D01*
X112983525Y-97483204D01*
X112540639Y-97624503D01*
X112190260Y-97811786D01*
X112007189Y-98150384D01*
X72263000Y-98150384D01*
X72263000Y-95578176D01*
X85253200Y-95578176D01*
X85253200Y-95836224D01*
X85303542Y-96089313D01*
X85402293Y-96327718D01*
X85545656Y-96542277D01*
X85728123Y-96724744D01*
X85942682Y-96868107D01*
X86181087Y-96966858D01*
X86434176Y-97017200D01*
X86692224Y-97017200D01*
X86945313Y-96966858D01*
X87183718Y-96868107D01*
X87398277Y-96724744D01*
X87512421Y-96610600D01*
X88379405Y-96610600D01*
X88435830Y-96841821D01*
X88670008Y-96950217D01*
X88920833Y-97010845D01*
X89178665Y-97021374D01*
X89433598Y-96981400D01*
X89675833Y-96892459D01*
X89770570Y-96841821D01*
X89826995Y-96610600D01*
X89103200Y-95886805D01*
X88379405Y-96610600D01*
X87512421Y-96610600D01*
X87580744Y-96542277D01*
X87724107Y-96327718D01*
X87822858Y-96089313D01*
X87831688Y-96044920D01*
X87917941Y-96279833D01*
X87968579Y-96374570D01*
X88199800Y-96430995D01*
X88923595Y-95707200D01*
X89282805Y-95707200D01*
X90006600Y-96430995D01*
X90237821Y-96374570D01*
X90346217Y-96140392D01*
X90372266Y-96032624D01*
X90383542Y-96089313D01*
X90482293Y-96327718D01*
X90625656Y-96542277D01*
X90808123Y-96724744D01*
X91022682Y-96868107D01*
X91261087Y-96966858D01*
X91514176Y-97017200D01*
X91772224Y-97017200D01*
X92025313Y-96966858D01*
X92263718Y-96868107D01*
X92478277Y-96724744D01*
X92660744Y-96542277D01*
X92804107Y-96327718D01*
X92902858Y-96089313D01*
X92953200Y-95836224D01*
X92953200Y-95578176D01*
X92902858Y-95325087D01*
X92804107Y-95086682D01*
X92660744Y-94872123D01*
X92478277Y-94689656D01*
X92263718Y-94546293D01*
X92025313Y-94447542D01*
X91772224Y-94397200D01*
X91514176Y-94397200D01*
X91261087Y-94447542D01*
X91022682Y-94546293D01*
X90808123Y-94689656D01*
X90625656Y-94872123D01*
X90482293Y-95086682D01*
X90383542Y-95325087D01*
X90374712Y-95369480D01*
X90288459Y-95134567D01*
X90237821Y-95039830D01*
X90006600Y-94983405D01*
X89282805Y-95707200D01*
X88923595Y-95707200D01*
X88199800Y-94983405D01*
X87968579Y-95039830D01*
X87860183Y-95274008D01*
X87834134Y-95381776D01*
X87822858Y-95325087D01*
X87724107Y-95086682D01*
X87580744Y-94872123D01*
X87512421Y-94803800D01*
X88379405Y-94803800D01*
X89103200Y-95527595D01*
X89826995Y-94803800D01*
X89770570Y-94572579D01*
X89536392Y-94464183D01*
X89285567Y-94403555D01*
X89027735Y-94393026D01*
X88772802Y-94433000D01*
X88530567Y-94521941D01*
X88435830Y-94572579D01*
X88379405Y-94803800D01*
X87512421Y-94803800D01*
X87398277Y-94689656D01*
X87183718Y-94546293D01*
X86945313Y-94447542D01*
X86692224Y-94397200D01*
X86434176Y-94397200D01*
X86181087Y-94447542D01*
X85942682Y-94546293D01*
X85728123Y-94689656D01*
X85545656Y-94872123D01*
X85402293Y-95086682D01*
X85303542Y-95325087D01*
X85253200Y-95578176D01*
X72263000Y-95578176D01*
X72263000Y-91465061D01*
X77095400Y-91465061D01*
X77095400Y-91668939D01*
X77135174Y-91868898D01*
X77213195Y-92057256D01*
X77326463Y-92226774D01*
X77470626Y-92370937D01*
X77640144Y-92484205D01*
X77828502Y-92562226D01*
X78028461Y-92602000D01*
X78232339Y-92602000D01*
X78432298Y-92562226D01*
X78549500Y-92513679D01*
X78666702Y-92562226D01*
X78866661Y-92602000D01*
X79070539Y-92602000D01*
X79270498Y-92562226D01*
X79458856Y-92484205D01*
X79586094Y-92399187D01*
X109418900Y-92399187D01*
X109418900Y-92665213D01*
X109470799Y-92926126D01*
X109572603Y-93171901D01*
X109720399Y-93393093D01*
X109908507Y-93581201D01*
X110129699Y-93728997D01*
X110258142Y-93782200D01*
X110129699Y-93835403D01*
X109908507Y-93983199D01*
X109720399Y-94171307D01*
X109572603Y-94392499D01*
X109470799Y-94638274D01*
X109418900Y-94899187D01*
X109418900Y-95165213D01*
X109470799Y-95426126D01*
X109572603Y-95671901D01*
X109720399Y-95893093D01*
X109908507Y-96081201D01*
X110129699Y-96228997D01*
X110375474Y-96330801D01*
X110636387Y-96382700D01*
X110902413Y-96382700D01*
X111163326Y-96330801D01*
X111409101Y-96228997D01*
X111630293Y-96081201D01*
X111818401Y-95893093D01*
X111966197Y-95671901D01*
X112068001Y-95426126D01*
X112119900Y-95165213D01*
X112119900Y-94899187D01*
X112618900Y-94899187D01*
X112618900Y-95165213D01*
X112670799Y-95426126D01*
X112772603Y-95671901D01*
X112920399Y-95893093D01*
X113108507Y-96081201D01*
X113329699Y-96228997D01*
X113575474Y-96330801D01*
X113836387Y-96382700D01*
X114102413Y-96382700D01*
X114363326Y-96330801D01*
X114609101Y-96228997D01*
X114830293Y-96081201D01*
X115018401Y-95893093D01*
X115166197Y-95671901D01*
X115268001Y-95426126D01*
X115319900Y-95165213D01*
X115319900Y-94899187D01*
X115268001Y-94638274D01*
X115166197Y-94392499D01*
X115018401Y-94171307D01*
X114830293Y-93983199D01*
X114609101Y-93835403D01*
X114482063Y-93782782D01*
X114556182Y-93755812D01*
X114660798Y-93699894D01*
X114722140Y-93464545D01*
X113969400Y-92711805D01*
X113216660Y-93464545D01*
X113278002Y-93699894D01*
X113456195Y-93783006D01*
X113329699Y-93835403D01*
X113108507Y-93983199D01*
X112920399Y-94171307D01*
X112772603Y-94392499D01*
X112670799Y-94638274D01*
X112618900Y-94899187D01*
X112119900Y-94899187D01*
X112068001Y-94638274D01*
X111966197Y-94392499D01*
X111818401Y-94171307D01*
X111630293Y-93983199D01*
X111409101Y-93835403D01*
X111280658Y-93782200D01*
X111409101Y-93728997D01*
X111630293Y-93581201D01*
X111818401Y-93393093D01*
X111966197Y-93171901D01*
X112068001Y-92926126D01*
X112119900Y-92665213D01*
X112119900Y-92606059D01*
X112614378Y-92606059D01*
X112654823Y-92868992D01*
X112745788Y-93118982D01*
X112801706Y-93223598D01*
X113037055Y-93284940D01*
X113789795Y-92532200D01*
X114149005Y-92532200D01*
X114901745Y-93284940D01*
X115062420Y-93243061D01*
X123450400Y-93243061D01*
X123450400Y-93446939D01*
X123490174Y-93646898D01*
X123568195Y-93835256D01*
X123681463Y-94004774D01*
X123825626Y-94148937D01*
X123995144Y-94262205D01*
X124183502Y-94340226D01*
X124383461Y-94380000D01*
X124587339Y-94380000D01*
X124787298Y-94340226D01*
X124975656Y-94262205D01*
X125145174Y-94148937D01*
X125289337Y-94004774D01*
X125402605Y-93835256D01*
X125480626Y-93646898D01*
X125520400Y-93446939D01*
X125520400Y-93243061D01*
X125480626Y-93043102D01*
X125402605Y-92854744D01*
X125289337Y-92685226D01*
X125145174Y-92541063D01*
X124975656Y-92427795D01*
X124787298Y-92349774D01*
X124587339Y-92310000D01*
X124383461Y-92310000D01*
X124183502Y-92349774D01*
X123995144Y-92427795D01*
X123825626Y-92541063D01*
X123681463Y-92685226D01*
X123568195Y-92854744D01*
X123490174Y-93043102D01*
X123450400Y-93243061D01*
X115062420Y-93243061D01*
X115137094Y-93223598D01*
X115249543Y-92982508D01*
X115312795Y-92724112D01*
X115324422Y-92458341D01*
X115283977Y-92195408D01*
X115193012Y-91945418D01*
X115137094Y-91840802D01*
X114901745Y-91779460D01*
X114149005Y-92532200D01*
X113789795Y-92532200D01*
X113037055Y-91779460D01*
X112801706Y-91840802D01*
X112689257Y-92081892D01*
X112626005Y-92340288D01*
X112614378Y-92606059D01*
X112119900Y-92606059D01*
X112119900Y-92399187D01*
X112068001Y-92138274D01*
X111966197Y-91892499D01*
X111818401Y-91671307D01*
X111746949Y-91599855D01*
X113216660Y-91599855D01*
X113969400Y-92352595D01*
X114722140Y-91599855D01*
X114660798Y-91364506D01*
X114419708Y-91252057D01*
X114161312Y-91188805D01*
X113895541Y-91177178D01*
X113632608Y-91217623D01*
X113382618Y-91308588D01*
X113278002Y-91364506D01*
X113216660Y-91599855D01*
X111746949Y-91599855D01*
X111630293Y-91483199D01*
X111409101Y-91335403D01*
X111163326Y-91233599D01*
X110902413Y-91181700D01*
X110636387Y-91181700D01*
X110375474Y-91233599D01*
X110129699Y-91335403D01*
X109908507Y-91483199D01*
X109720399Y-91671307D01*
X109572603Y-91892499D01*
X109470799Y-92138274D01*
X109418900Y-92399187D01*
X79586094Y-92399187D01*
X79628374Y-92370937D01*
X79772537Y-92226774D01*
X79885805Y-92057256D01*
X79963826Y-91868898D01*
X80003600Y-91668939D01*
X80003600Y-91465061D01*
X79963826Y-91265102D01*
X79885805Y-91076744D01*
X79772537Y-90907226D01*
X79628374Y-90763063D01*
X79458856Y-90649795D01*
X79270498Y-90571774D01*
X79070539Y-90532000D01*
X78866661Y-90532000D01*
X78666702Y-90571774D01*
X78549500Y-90620321D01*
X78432298Y-90571774D01*
X78232339Y-90532000D01*
X78028461Y-90532000D01*
X77828502Y-90571774D01*
X77640144Y-90649795D01*
X77470626Y-90763063D01*
X77326463Y-90907226D01*
X77213195Y-91076744D01*
X77135174Y-91265102D01*
X77095400Y-91465061D01*
X72263000Y-91465061D01*
X72263000Y-88391661D01*
X82251600Y-88391661D01*
X82251600Y-88595539D01*
X82291374Y-88795498D01*
X82369395Y-88983856D01*
X82482663Y-89153374D01*
X82626826Y-89297537D01*
X82796344Y-89410805D01*
X82984702Y-89488826D01*
X83184661Y-89528600D01*
X83388539Y-89528600D01*
X83588498Y-89488826D01*
X83769104Y-89414016D01*
X112007189Y-89414016D01*
X112190260Y-89752614D01*
X112603341Y-89965868D01*
X113050088Y-90094435D01*
X113513333Y-90133377D01*
X113975275Y-90081196D01*
X114418161Y-89939897D01*
X114768540Y-89752614D01*
X114951611Y-89414016D01*
X113479400Y-87941805D01*
X112007189Y-89414016D01*
X83769104Y-89414016D01*
X83776856Y-89410805D01*
X83946374Y-89297537D01*
X84090537Y-89153374D01*
X84203805Y-88983856D01*
X84281826Y-88795498D01*
X84321600Y-88595539D01*
X84321600Y-88391661D01*
X84281826Y-88191702D01*
X84203805Y-88003344D01*
X84090537Y-87833826D01*
X84052844Y-87796133D01*
X111108223Y-87796133D01*
X111160404Y-88258075D01*
X111301703Y-88700961D01*
X111488986Y-89051340D01*
X111827584Y-89234411D01*
X113299795Y-87762200D01*
X113659005Y-87762200D01*
X115131216Y-89234411D01*
X115469814Y-89051340D01*
X115683068Y-88638259D01*
X115811635Y-88191512D01*
X115850577Y-87728267D01*
X115798396Y-87266325D01*
X115657097Y-86823439D01*
X115469814Y-86473060D01*
X115131216Y-86289989D01*
X113659005Y-87762200D01*
X113299795Y-87762200D01*
X111827584Y-86289989D01*
X111488986Y-86473060D01*
X111275732Y-86886141D01*
X111147165Y-87332888D01*
X111108223Y-87796133D01*
X84052844Y-87796133D01*
X83946374Y-87689663D01*
X83776856Y-87576395D01*
X83588498Y-87498374D01*
X83388539Y-87458600D01*
X83184661Y-87458600D01*
X82984702Y-87498374D01*
X82796344Y-87576395D01*
X82626826Y-87689663D01*
X82482663Y-87833826D01*
X82369395Y-88003344D01*
X82291374Y-88191702D01*
X82251600Y-88391661D01*
X72263000Y-88391661D01*
X72263000Y-86110384D01*
X112007189Y-86110384D01*
X113479400Y-87582595D01*
X114951611Y-86110384D01*
X114768540Y-85771786D01*
X114355459Y-85558532D01*
X113908712Y-85429965D01*
X113445467Y-85391023D01*
X112983525Y-85443204D01*
X112540639Y-85584503D01*
X112190260Y-85771786D01*
X112007189Y-86110384D01*
X72263000Y-86110384D01*
X72263000Y-83159261D01*
X88906400Y-83159261D01*
X88906400Y-83363139D01*
X88946174Y-83563098D01*
X89024195Y-83751456D01*
X89137463Y-83920974D01*
X89281626Y-84065137D01*
X89451144Y-84178405D01*
X89639502Y-84256426D01*
X89839461Y-84296200D01*
X90043339Y-84296200D01*
X90243298Y-84256426D01*
X90431656Y-84178405D01*
X90601174Y-84065137D01*
X90745337Y-83920974D01*
X90858605Y-83751456D01*
X90936626Y-83563098D01*
X90976400Y-83363139D01*
X90976400Y-83159261D01*
X90936626Y-82959302D01*
X90858605Y-82770944D01*
X90745337Y-82601426D01*
X90601174Y-82457263D01*
X90431656Y-82343995D01*
X90243298Y-82265974D01*
X90043339Y-82226200D01*
X89839461Y-82226200D01*
X89639502Y-82265974D01*
X89451144Y-82343995D01*
X89281626Y-82457263D01*
X89137463Y-82601426D01*
X89024195Y-82770944D01*
X88946174Y-82959302D01*
X88906400Y-83159261D01*
X72263000Y-83159261D01*
X72263000Y-81482861D01*
X76308000Y-81482861D01*
X76308000Y-81686739D01*
X76347774Y-81886698D01*
X76425795Y-82075056D01*
X76539063Y-82244574D01*
X76683226Y-82388737D01*
X76852744Y-82502005D01*
X77041102Y-82580026D01*
X77241061Y-82619800D01*
X77444939Y-82619800D01*
X77644898Y-82580026D01*
X77833256Y-82502005D01*
X78002774Y-82388737D01*
X78146937Y-82244574D01*
X78260205Y-82075056D01*
X78338226Y-81886698D01*
X78378000Y-81686739D01*
X78378000Y-81482861D01*
X78338226Y-81282902D01*
X78260205Y-81094544D01*
X78146937Y-80925026D01*
X78002774Y-80780863D01*
X77833256Y-80667595D01*
X77644898Y-80589574D01*
X77444939Y-80549800D01*
X77241061Y-80549800D01*
X77041102Y-80589574D01*
X76852744Y-80667595D01*
X76683226Y-80780863D01*
X76539063Y-80925026D01*
X76425795Y-81094544D01*
X76347774Y-81282902D01*
X76308000Y-81482861D01*
X72263000Y-81482861D01*
X72263000Y-77215661D01*
X76460400Y-77215661D01*
X76460400Y-77419539D01*
X76500174Y-77619498D01*
X76578195Y-77807856D01*
X76691463Y-77977374D01*
X76835626Y-78121537D01*
X77005144Y-78234805D01*
X77193502Y-78312826D01*
X77393461Y-78352600D01*
X77597339Y-78352600D01*
X77797298Y-78312826D01*
X77985656Y-78234805D01*
X78155174Y-78121537D01*
X78299337Y-77977374D01*
X78412605Y-77807856D01*
X78490626Y-77619498D01*
X78530400Y-77419539D01*
X78530400Y-77215661D01*
X78490626Y-77015702D01*
X78412605Y-76827344D01*
X78299337Y-76657826D01*
X78155174Y-76513663D01*
X77985656Y-76400395D01*
X77797298Y-76322374D01*
X77597339Y-76282600D01*
X77393461Y-76282600D01*
X77193502Y-76322374D01*
X77005144Y-76400395D01*
X76835626Y-76513663D01*
X76691463Y-76657826D01*
X76578195Y-76827344D01*
X76500174Y-77015702D01*
X76460400Y-77215661D01*
X72263000Y-77215661D01*
X72263000Y-72613413D01*
X93066500Y-72613413D01*
X93066500Y-72869787D01*
X93116516Y-73121233D01*
X93214626Y-73358091D01*
X93357059Y-73571258D01*
X93538342Y-73752541D01*
X93751509Y-73894974D01*
X93988367Y-73993084D01*
X94239813Y-74043100D01*
X94496187Y-74043100D01*
X94747633Y-73993084D01*
X94984491Y-73894974D01*
X95197658Y-73752541D01*
X95378941Y-73571258D01*
X95521374Y-73358091D01*
X95619484Y-73121233D01*
X95669500Y-72869787D01*
X95669500Y-72613413D01*
X95619484Y-72361967D01*
X95521374Y-72125109D01*
X95378941Y-71911942D01*
X95197658Y-71730659D01*
X94984491Y-71588226D01*
X94747633Y-71490116D01*
X94496187Y-71440100D01*
X94239813Y-71440100D01*
X93988367Y-71490116D01*
X93751509Y-71588226D01*
X93538342Y-71730659D01*
X93357059Y-71911942D01*
X93214626Y-72125109D01*
X93116516Y-72361967D01*
X93066500Y-72613413D01*
X72263000Y-72613413D01*
X72263000Y-71246661D01*
X123120200Y-71246661D01*
X123120200Y-71450539D01*
X123159974Y-71650498D01*
X123237995Y-71838856D01*
X123351263Y-72008374D01*
X123495426Y-72152537D01*
X123664944Y-72265805D01*
X123853302Y-72343826D01*
X124053261Y-72383600D01*
X124257139Y-72383600D01*
X124457098Y-72343826D01*
X124645456Y-72265805D01*
X124814974Y-72152537D01*
X124959137Y-72008374D01*
X125072405Y-71838856D01*
X125150426Y-71650498D01*
X125190200Y-71450539D01*
X125190200Y-71246661D01*
X125150426Y-71046702D01*
X125072405Y-70858344D01*
X124959137Y-70688826D01*
X124814974Y-70544663D01*
X124645456Y-70431395D01*
X124457098Y-70353374D01*
X124257139Y-70313600D01*
X124053261Y-70313600D01*
X123853302Y-70353374D01*
X123664944Y-70431395D01*
X123495426Y-70544663D01*
X123351263Y-70688826D01*
X123237995Y-70858344D01*
X123159974Y-71046702D01*
X123120200Y-71246661D01*
X72263000Y-71246661D01*
X72263000Y-69537401D01*
X112011804Y-69537401D01*
X112118129Y-69810748D01*
X112422658Y-69960378D01*
X112750525Y-70047722D01*
X113089134Y-70069424D01*
X113425470Y-70024649D01*
X113746607Y-69915119D01*
X113941871Y-69810748D01*
X114048196Y-69537401D01*
X113030000Y-68519205D01*
X112011804Y-69537401D01*
X72263000Y-69537401D01*
X72263000Y-69157103D01*
X72291302Y-69168826D01*
X72491261Y-69208600D01*
X72695139Y-69208600D01*
X72895098Y-69168826D01*
X73083456Y-69090805D01*
X73252974Y-68977537D01*
X73397137Y-68833374D01*
X73510405Y-68663856D01*
X73588426Y-68475498D01*
X73603695Y-68398734D01*
X111300176Y-68398734D01*
X111344951Y-68735070D01*
X111454481Y-69056207D01*
X111558852Y-69251471D01*
X111832199Y-69357796D01*
X112850395Y-68339600D01*
X113209605Y-68339600D01*
X114227801Y-69357796D01*
X114501148Y-69251471D01*
X114650778Y-68946942D01*
X114738122Y-68619075D01*
X114759824Y-68280466D01*
X114715049Y-67944130D01*
X114605519Y-67622993D01*
X114501148Y-67427729D01*
X114227801Y-67321404D01*
X113209605Y-68339600D01*
X112850395Y-68339600D01*
X111832199Y-67321404D01*
X111558852Y-67427729D01*
X111409222Y-67732258D01*
X111321878Y-68060125D01*
X111300176Y-68398734D01*
X73603695Y-68398734D01*
X73628200Y-68275539D01*
X73628200Y-68071661D01*
X73588426Y-67871702D01*
X73510405Y-67683344D01*
X73397137Y-67513826D01*
X73252974Y-67369663D01*
X73083456Y-67256395D01*
X72895098Y-67178374D01*
X72695139Y-67138600D01*
X72491261Y-67138600D01*
X72291302Y-67178374D01*
X72102944Y-67256395D01*
X71933426Y-67369663D01*
X71789263Y-67513826D01*
X71675995Y-67683344D01*
X71645795Y-67756253D01*
X71628000Y-67754500D01*
X69278500Y-67754500D01*
X69278500Y-66103500D01*
X69269628Y-66013413D01*
X85566500Y-66013413D01*
X85566500Y-66269787D01*
X85616516Y-66521233D01*
X85714626Y-66758091D01*
X85857059Y-66971258D01*
X86038342Y-67152541D01*
X86251509Y-67294974D01*
X86488367Y-67393084D01*
X86739813Y-67443100D01*
X86996187Y-67443100D01*
X87247633Y-67393084D01*
X87484491Y-67294974D01*
X87697658Y-67152541D01*
X87708400Y-67141799D01*
X112011804Y-67141799D01*
X113030000Y-68159995D01*
X114048196Y-67141799D01*
X113941871Y-66868452D01*
X113637342Y-66718822D01*
X113309475Y-66631478D01*
X112970866Y-66609776D01*
X112634530Y-66654551D01*
X112313393Y-66764081D01*
X112118129Y-66868452D01*
X112011804Y-67141799D01*
X87708400Y-67141799D01*
X87878941Y-66971258D01*
X88021374Y-66758091D01*
X88119484Y-66521233D01*
X88169500Y-66269787D01*
X88169500Y-66013413D01*
X88119484Y-65761967D01*
X88021374Y-65525109D01*
X87878941Y-65311942D01*
X87697658Y-65130659D01*
X87484491Y-64988226D01*
X87247633Y-64890116D01*
X86996187Y-64840100D01*
X86739813Y-64840100D01*
X86488367Y-64890116D01*
X86251509Y-64988226D01*
X86038342Y-65130659D01*
X85857059Y-65311942D01*
X85714626Y-65525109D01*
X85616516Y-65761967D01*
X85566500Y-66013413D01*
X69269628Y-66013413D01*
X69266299Y-65979618D01*
X69230164Y-65860496D01*
X69171483Y-65750713D01*
X69092513Y-65654487D01*
X68996287Y-65575517D01*
X68886504Y-65516836D01*
X68767382Y-65480701D01*
X68643500Y-65468500D01*
X64770000Y-65468500D01*
X64770000Y-62386722D01*
X84295500Y-62386722D01*
X84295500Y-62696478D01*
X84355930Y-63000281D01*
X84474468Y-63286458D01*
X84646559Y-63544011D01*
X84865589Y-63763041D01*
X85123142Y-63935132D01*
X85409319Y-64053670D01*
X85713122Y-64114100D01*
X86022878Y-64114100D01*
X86326681Y-64053670D01*
X86612858Y-63935132D01*
X86870411Y-63763041D01*
X87089441Y-63544011D01*
X87261532Y-63286458D01*
X87380070Y-63000281D01*
X87440500Y-62696478D01*
X87440500Y-62386722D01*
X92295500Y-62386722D01*
X92295500Y-62696478D01*
X92355930Y-63000281D01*
X92474468Y-63286458D01*
X92646559Y-63544011D01*
X92865589Y-63763041D01*
X93123142Y-63935132D01*
X93380179Y-64041600D01*
X93123142Y-64148068D01*
X92865589Y-64320159D01*
X92646559Y-64539189D01*
X92474468Y-64796742D01*
X92355930Y-65082919D01*
X92295500Y-65386722D01*
X92295500Y-65696478D01*
X92355930Y-66000281D01*
X92474468Y-66286458D01*
X92646559Y-66544011D01*
X92865589Y-66763041D01*
X93123142Y-66935132D01*
X93409319Y-67053670D01*
X93713122Y-67114100D01*
X94022878Y-67114100D01*
X94326681Y-67053670D01*
X94612858Y-66935132D01*
X94870411Y-66763041D01*
X95089441Y-66544011D01*
X95261532Y-66286458D01*
X95380070Y-66000281D01*
X95440500Y-65696478D01*
X95440500Y-65386722D01*
X95380070Y-65082919D01*
X95261532Y-64796742D01*
X95089441Y-64539189D01*
X94870411Y-64320159D01*
X94612858Y-64148068D01*
X94355821Y-64041600D01*
X94612858Y-63935132D01*
X94870411Y-63763041D01*
X95089441Y-63544011D01*
X95261532Y-63286458D01*
X95380070Y-63000281D01*
X95440500Y-62696478D01*
X95440500Y-62386722D01*
X95389050Y-62128061D01*
X100692000Y-62128061D01*
X100692000Y-62331939D01*
X100731774Y-62531898D01*
X100809795Y-62720256D01*
X100923063Y-62889774D01*
X101067226Y-63033937D01*
X101236744Y-63147205D01*
X101425102Y-63225226D01*
X101625061Y-63265000D01*
X101828939Y-63265000D01*
X102028898Y-63225226D01*
X102217256Y-63147205D01*
X102386774Y-63033937D01*
X102530937Y-62889774D01*
X102644205Y-62720256D01*
X102722226Y-62531898D01*
X102762000Y-62331939D01*
X102762000Y-62128061D01*
X102722226Y-61928102D01*
X102649324Y-61752100D01*
X111304428Y-61752100D01*
X111304428Y-63927100D01*
X111316688Y-64051582D01*
X111352998Y-64171280D01*
X111411963Y-64281594D01*
X111491315Y-64378285D01*
X111588006Y-64457637D01*
X111698320Y-64516602D01*
X111818018Y-64552912D01*
X111942500Y-64565172D01*
X114117500Y-64565172D01*
X114241982Y-64552912D01*
X114361680Y-64516602D01*
X114471994Y-64457637D01*
X114568685Y-64378285D01*
X114648037Y-64281594D01*
X114707002Y-64171280D01*
X114743312Y-64051582D01*
X114755572Y-63927100D01*
X114755572Y-61752100D01*
X114743312Y-61627618D01*
X114707002Y-61507920D01*
X114648037Y-61397606D01*
X114568685Y-61300915D01*
X114471994Y-61221563D01*
X114361680Y-61162598D01*
X114241982Y-61126288D01*
X114117500Y-61114028D01*
X111942500Y-61114028D01*
X111818018Y-61126288D01*
X111698320Y-61162598D01*
X111588006Y-61221563D01*
X111491315Y-61300915D01*
X111411963Y-61397606D01*
X111352998Y-61507920D01*
X111316688Y-61627618D01*
X111304428Y-61752100D01*
X102649324Y-61752100D01*
X102644205Y-61739744D01*
X102530937Y-61570226D01*
X102386774Y-61426063D01*
X102217256Y-61312795D01*
X102028898Y-61234774D01*
X101828939Y-61195000D01*
X101625061Y-61195000D01*
X101425102Y-61234774D01*
X101236744Y-61312795D01*
X101067226Y-61426063D01*
X100923063Y-61570226D01*
X100809795Y-61739744D01*
X100731774Y-61928102D01*
X100692000Y-62128061D01*
X95389050Y-62128061D01*
X95380070Y-62082919D01*
X95261532Y-61796742D01*
X95089441Y-61539189D01*
X94870411Y-61320159D01*
X94612858Y-61148068D01*
X94326681Y-61029530D01*
X94022878Y-60969100D01*
X93713122Y-60969100D01*
X93409319Y-61029530D01*
X93123142Y-61148068D01*
X92865589Y-61320159D01*
X92646559Y-61539189D01*
X92474468Y-61796742D01*
X92355930Y-62082919D01*
X92295500Y-62386722D01*
X87440500Y-62386722D01*
X87380070Y-62082919D01*
X87261532Y-61796742D01*
X87089441Y-61539189D01*
X86870411Y-61320159D01*
X86612858Y-61148068D01*
X86326681Y-61029530D01*
X86022878Y-60969100D01*
X85713122Y-60969100D01*
X85409319Y-61029530D01*
X85123142Y-61148068D01*
X84865589Y-61320159D01*
X84646559Y-61539189D01*
X84474468Y-61796742D01*
X84355930Y-62082919D01*
X84295500Y-62386722D01*
X64770000Y-62386722D01*
X64770000Y-59143561D01*
X105137000Y-59143561D01*
X105137000Y-59347439D01*
X105176774Y-59547398D01*
X105254795Y-59735756D01*
X105368063Y-59905274D01*
X105512226Y-60049437D01*
X105681744Y-60162705D01*
X105870102Y-60240726D01*
X106070061Y-60280500D01*
X106273939Y-60280500D01*
X106473898Y-60240726D01*
X106662256Y-60162705D01*
X106831774Y-60049437D01*
X106975937Y-59905274D01*
X107089205Y-59735756D01*
X107167226Y-59547398D01*
X107207000Y-59347439D01*
X107207000Y-59143561D01*
X107804000Y-59143561D01*
X107804000Y-59347439D01*
X107843774Y-59547398D01*
X107921795Y-59735756D01*
X108035063Y-59905274D01*
X108179226Y-60049437D01*
X108348744Y-60162705D01*
X108537102Y-60240726D01*
X108737061Y-60280500D01*
X108940939Y-60280500D01*
X109140898Y-60240726D01*
X109329256Y-60162705D01*
X109498774Y-60049437D01*
X109642937Y-59905274D01*
X109756205Y-59735756D01*
X109834226Y-59547398D01*
X109874000Y-59347439D01*
X109874000Y-59143561D01*
X109834226Y-58943602D01*
X109756205Y-58755244D01*
X109642937Y-58585726D01*
X109502272Y-58445061D01*
X117837000Y-58445061D01*
X117837000Y-58648939D01*
X117876774Y-58848898D01*
X117954795Y-59037256D01*
X118068063Y-59206774D01*
X118212226Y-59350937D01*
X118381744Y-59464205D01*
X118570102Y-59542226D01*
X118770061Y-59582000D01*
X118973939Y-59582000D01*
X119173898Y-59542226D01*
X119362256Y-59464205D01*
X119531774Y-59350937D01*
X119675937Y-59206774D01*
X119789205Y-59037256D01*
X119867226Y-58848898D01*
X119907000Y-58648939D01*
X119907000Y-58445061D01*
X119867226Y-58245102D01*
X119789205Y-58056744D01*
X119675937Y-57887226D01*
X119531774Y-57743063D01*
X119362256Y-57629795D01*
X119173898Y-57551774D01*
X118973939Y-57512000D01*
X118770061Y-57512000D01*
X118570102Y-57551774D01*
X118381744Y-57629795D01*
X118212226Y-57743063D01*
X118068063Y-57887226D01*
X117954795Y-58056744D01*
X117876774Y-58245102D01*
X117837000Y-58445061D01*
X109502272Y-58445061D01*
X109498774Y-58441563D01*
X109329256Y-58328295D01*
X109140898Y-58250274D01*
X108940939Y-58210500D01*
X108737061Y-58210500D01*
X108537102Y-58250274D01*
X108348744Y-58328295D01*
X108179226Y-58441563D01*
X108035063Y-58585726D01*
X107921795Y-58755244D01*
X107843774Y-58943602D01*
X107804000Y-59143561D01*
X107207000Y-59143561D01*
X107167226Y-58943602D01*
X107089205Y-58755244D01*
X106975937Y-58585726D01*
X106831774Y-58441563D01*
X106662256Y-58328295D01*
X106473898Y-58250274D01*
X106273939Y-58210500D01*
X106070061Y-58210500D01*
X105870102Y-58250274D01*
X105681744Y-58328295D01*
X105512226Y-58441563D01*
X105368063Y-58585726D01*
X105254795Y-58755244D01*
X105176774Y-58943602D01*
X105137000Y-59143561D01*
X64770000Y-59143561D01*
X64770000Y-53843645D01*
X65032500Y-53843645D01*
X65032500Y-54156355D01*
X65093507Y-54463057D01*
X65213176Y-54751963D01*
X65386908Y-55011972D01*
X65608028Y-55233092D01*
X65868037Y-55406824D01*
X66156943Y-55526493D01*
X66463645Y-55587500D01*
X66776355Y-55587500D01*
X67083057Y-55526493D01*
X67371963Y-55406824D01*
X67631972Y-55233092D01*
X67853092Y-55011972D01*
X68026824Y-54751963D01*
X68146493Y-54463057D01*
X68207500Y-54156355D01*
X68207500Y-53843645D01*
X68532500Y-53843645D01*
X68532500Y-54156355D01*
X68593507Y-54463057D01*
X68713176Y-54751963D01*
X68886908Y-55011972D01*
X69108028Y-55233092D01*
X69368037Y-55406824D01*
X69656943Y-55526493D01*
X69963645Y-55587500D01*
X70276355Y-55587500D01*
X70583057Y-55526493D01*
X70871963Y-55406824D01*
X71131972Y-55233092D01*
X71353092Y-55011972D01*
X71526824Y-54751963D01*
X71646493Y-54463057D01*
X71707500Y-54156355D01*
X71707500Y-53843645D01*
X72032500Y-53843645D01*
X72032500Y-54156355D01*
X72093507Y-54463057D01*
X72213176Y-54751963D01*
X72386908Y-55011972D01*
X72608028Y-55233092D01*
X72868037Y-55406824D01*
X73156943Y-55526493D01*
X73463645Y-55587500D01*
X73776355Y-55587500D01*
X74083057Y-55526493D01*
X74371963Y-55406824D01*
X74631972Y-55233092D01*
X74853092Y-55011972D01*
X75026824Y-54751963D01*
X75146493Y-54463057D01*
X75207500Y-54156355D01*
X75207500Y-53843645D01*
X75532500Y-53843645D01*
X75532500Y-54156355D01*
X75593507Y-54463057D01*
X75713176Y-54751963D01*
X75886908Y-55011972D01*
X76108028Y-55233092D01*
X76368037Y-55406824D01*
X76656943Y-55526493D01*
X76963645Y-55587500D01*
X77276355Y-55587500D01*
X77583057Y-55526493D01*
X77871963Y-55406824D01*
X78131972Y-55233092D01*
X78353092Y-55011972D01*
X78526824Y-54751963D01*
X78646493Y-54463057D01*
X78707500Y-54156355D01*
X78707500Y-53843645D01*
X79032500Y-53843645D01*
X79032500Y-54156355D01*
X79093507Y-54463057D01*
X79213176Y-54751963D01*
X79386908Y-55011972D01*
X79608028Y-55233092D01*
X79868037Y-55406824D01*
X80156943Y-55526493D01*
X80463645Y-55587500D01*
X80776355Y-55587500D01*
X81083057Y-55526493D01*
X81371963Y-55406824D01*
X81631972Y-55233092D01*
X81763529Y-55101535D01*
X83198070Y-55101535D01*
X83288098Y-55361081D01*
X83569616Y-55497224D01*
X83872286Y-55575829D01*
X84184474Y-55593877D01*
X84494185Y-55550672D01*
X84789516Y-55447877D01*
X84951902Y-55361081D01*
X85041930Y-55101535D01*
X84120000Y-54179605D01*
X83198070Y-55101535D01*
X81763529Y-55101535D01*
X81853092Y-55011972D01*
X82026824Y-54751963D01*
X82146493Y-54463057D01*
X82207500Y-54156355D01*
X82207500Y-54064474D01*
X82526123Y-54064474D01*
X82569328Y-54374185D01*
X82672123Y-54669516D01*
X82758919Y-54831902D01*
X83018465Y-54921930D01*
X83940395Y-54000000D01*
X84299605Y-54000000D01*
X85221535Y-54921930D01*
X85481081Y-54831902D01*
X85617224Y-54550384D01*
X85695829Y-54247714D01*
X85713877Y-53935526D01*
X85670672Y-53625815D01*
X85567877Y-53330484D01*
X85481081Y-53168098D01*
X85221535Y-53078070D01*
X84299605Y-54000000D01*
X83940395Y-54000000D01*
X83018465Y-53078070D01*
X82758919Y-53168098D01*
X82622776Y-53449616D01*
X82544171Y-53752286D01*
X82526123Y-54064474D01*
X82207500Y-54064474D01*
X82207500Y-53843645D01*
X82146493Y-53536943D01*
X82026824Y-53248037D01*
X81853092Y-52988028D01*
X81763529Y-52898465D01*
X83198070Y-52898465D01*
X84120000Y-53820395D01*
X85041930Y-52898465D01*
X84951902Y-52638919D01*
X84670384Y-52502776D01*
X84367714Y-52424171D01*
X84055526Y-52406123D01*
X83745815Y-52449328D01*
X83450484Y-52552123D01*
X83288098Y-52638919D01*
X83198070Y-52898465D01*
X81763529Y-52898465D01*
X81631972Y-52766908D01*
X81371963Y-52593176D01*
X81083057Y-52473507D01*
X80776355Y-52412500D01*
X80463645Y-52412500D01*
X80156943Y-52473507D01*
X79868037Y-52593176D01*
X79608028Y-52766908D01*
X79386908Y-52988028D01*
X79213176Y-53248037D01*
X79093507Y-53536943D01*
X79032500Y-53843645D01*
X78707500Y-53843645D01*
X78646493Y-53536943D01*
X78526824Y-53248037D01*
X78353092Y-52988028D01*
X78131972Y-52766908D01*
X77871963Y-52593176D01*
X77583057Y-52473507D01*
X77276355Y-52412500D01*
X76963645Y-52412500D01*
X76656943Y-52473507D01*
X76368037Y-52593176D01*
X76108028Y-52766908D01*
X75886908Y-52988028D01*
X75713176Y-53248037D01*
X75593507Y-53536943D01*
X75532500Y-53843645D01*
X75207500Y-53843645D01*
X75146493Y-53536943D01*
X75026824Y-53248037D01*
X74853092Y-52988028D01*
X74631972Y-52766908D01*
X74371963Y-52593176D01*
X74083057Y-52473507D01*
X73776355Y-52412500D01*
X73463645Y-52412500D01*
X73156943Y-52473507D01*
X72868037Y-52593176D01*
X72608028Y-52766908D01*
X72386908Y-52988028D01*
X72213176Y-53248037D01*
X72093507Y-53536943D01*
X72032500Y-53843645D01*
X71707500Y-53843645D01*
X71646493Y-53536943D01*
X71526824Y-53248037D01*
X71353092Y-52988028D01*
X71131972Y-52766908D01*
X70871963Y-52593176D01*
X70583057Y-52473507D01*
X70276355Y-52412500D01*
X69963645Y-52412500D01*
X69656943Y-52473507D01*
X69368037Y-52593176D01*
X69108028Y-52766908D01*
X68886908Y-52988028D01*
X68713176Y-53248037D01*
X68593507Y-53536943D01*
X68532500Y-53843645D01*
X68207500Y-53843645D01*
X68146493Y-53536943D01*
X68026824Y-53248037D01*
X67853092Y-52988028D01*
X67631972Y-52766908D01*
X67371963Y-52593176D01*
X67083057Y-52473507D01*
X66776355Y-52412500D01*
X66463645Y-52412500D01*
X66156943Y-52473507D01*
X65868037Y-52593176D01*
X65608028Y-52766908D01*
X65386908Y-52988028D01*
X65213176Y-53248037D01*
X65093507Y-53536943D01*
X65032500Y-53843645D01*
X64770000Y-53843645D01*
X64770000Y-49843645D01*
X65032500Y-49843645D01*
X65032500Y-50156355D01*
X65093507Y-50463057D01*
X65213176Y-50751963D01*
X65386908Y-51011972D01*
X65608028Y-51233092D01*
X65868037Y-51406824D01*
X66156943Y-51526493D01*
X66463645Y-51587500D01*
X66776355Y-51587500D01*
X67083057Y-51526493D01*
X67371963Y-51406824D01*
X67631972Y-51233092D01*
X67853092Y-51011972D01*
X68026824Y-50751963D01*
X68146493Y-50463057D01*
X68207500Y-50156355D01*
X68207500Y-49843645D01*
X68532500Y-49843645D01*
X68532500Y-50156355D01*
X68593507Y-50463057D01*
X68713176Y-50751963D01*
X68886908Y-51011972D01*
X69108028Y-51233092D01*
X69368037Y-51406824D01*
X69656943Y-51526493D01*
X69963645Y-51587500D01*
X70276355Y-51587500D01*
X70583057Y-51526493D01*
X70871963Y-51406824D01*
X71131972Y-51233092D01*
X71353092Y-51011972D01*
X71526824Y-50751963D01*
X71646493Y-50463057D01*
X71707500Y-50156355D01*
X71707500Y-49843645D01*
X71646493Y-49536943D01*
X71526824Y-49248037D01*
X71353092Y-48988028D01*
X71131972Y-48766908D01*
X70871963Y-48593176D01*
X70583057Y-48473507D01*
X70276355Y-48412500D01*
X69963645Y-48412500D01*
X69656943Y-48473507D01*
X69368037Y-48593176D01*
X69108028Y-48766908D01*
X68886908Y-48988028D01*
X68713176Y-49248037D01*
X68593507Y-49536943D01*
X68532500Y-49843645D01*
X68207500Y-49843645D01*
X68146493Y-49536943D01*
X68026824Y-49248037D01*
X67853092Y-48988028D01*
X67631972Y-48766908D01*
X67371963Y-48593176D01*
X67083057Y-48473507D01*
X66776355Y-48412500D01*
X66463645Y-48412500D01*
X66156943Y-48473507D01*
X65868037Y-48593176D01*
X65608028Y-48766908D01*
X65386908Y-48988028D01*
X65213176Y-49248037D01*
X65093507Y-49536943D01*
X65032500Y-49843645D01*
X64770000Y-49843645D01*
X64770000Y-47879000D01*
X74930000Y-47879000D01*
X74930000Y-49103129D01*
X74853092Y-48988028D01*
X74631972Y-48766908D01*
X74371963Y-48593176D01*
X74083057Y-48473507D01*
X73776355Y-48412500D01*
X73463645Y-48412500D01*
X73156943Y-48473507D01*
X72868037Y-48593176D01*
X72608028Y-48766908D01*
X72386908Y-48988028D01*
X72213176Y-49248037D01*
X72093507Y-49536943D01*
X72032500Y-49843645D01*
X72032500Y-50156355D01*
X72093507Y-50463057D01*
X72213176Y-50751963D01*
X72386908Y-51011972D01*
X72608028Y-51233092D01*
X72868037Y-51406824D01*
X73156943Y-51526493D01*
X73463645Y-51587500D01*
X73776355Y-51587500D01*
X74083057Y-51526493D01*
X74371963Y-51406824D01*
X74631972Y-51233092D01*
X74853092Y-51011972D01*
X74930000Y-50896871D01*
X74930000Y-51308000D01*
X74942201Y-51431882D01*
X74978336Y-51551004D01*
X75037017Y-51660787D01*
X75115987Y-51757013D01*
X75212213Y-51835983D01*
X75321996Y-51894664D01*
X75441118Y-51930799D01*
X75565000Y-51943000D01*
X82423000Y-51943000D01*
X82546882Y-51930799D01*
X82666004Y-51894664D01*
X82775787Y-51835983D01*
X82872013Y-51757013D01*
X82950983Y-51660787D01*
X83009664Y-51551004D01*
X83045799Y-51431882D01*
X83058000Y-51308000D01*
X83058000Y-51183064D01*
X83108028Y-51233092D01*
X83368037Y-51406824D01*
X83656943Y-51526493D01*
X83963645Y-51587500D01*
X84276355Y-51587500D01*
X84583057Y-51526493D01*
X84871963Y-51406824D01*
X85131972Y-51233092D01*
X85353092Y-51011972D01*
X85526824Y-50751963D01*
X85646493Y-50463057D01*
X85707500Y-50156355D01*
X85707500Y-49843645D01*
X85681346Y-49712159D01*
X97077500Y-49712159D01*
X97077500Y-50287841D01*
X97189810Y-50852462D01*
X97410114Y-51384323D01*
X97729946Y-51862985D01*
X98137015Y-52270054D01*
X98615677Y-52589886D01*
X99147538Y-52810190D01*
X99712159Y-52922500D01*
X100287841Y-52922500D01*
X100852462Y-52810190D01*
X101384323Y-52589886D01*
X101862985Y-52270054D01*
X102270054Y-51862985D01*
X102589886Y-51384323D01*
X102810190Y-50852462D01*
X102922500Y-50287841D01*
X102922500Y-49712159D01*
X102810190Y-49147538D01*
X102589886Y-48615677D01*
X102270054Y-48137015D01*
X101862985Y-47729946D01*
X101384323Y-47410114D01*
X100852462Y-47189810D01*
X100287841Y-47077500D01*
X99712159Y-47077500D01*
X99147538Y-47189810D01*
X98615677Y-47410114D01*
X98137015Y-47729946D01*
X97729946Y-48137015D01*
X97410114Y-48615677D01*
X97189810Y-49147538D01*
X97077500Y-49712159D01*
X85681346Y-49712159D01*
X85646493Y-49536943D01*
X85526824Y-49248037D01*
X85353092Y-48988028D01*
X85131972Y-48766908D01*
X84871963Y-48593176D01*
X84583057Y-48473507D01*
X84276355Y-48412500D01*
X83963645Y-48412500D01*
X83656943Y-48473507D01*
X83368037Y-48593176D01*
X83108028Y-48766908D01*
X83058000Y-48816936D01*
X83058000Y-42605000D01*
X104013000Y-42605000D01*
X104013000Y-56261000D01*
G36*
X82296000Y-51181000D02*
G01*
X81684064Y-51181000D01*
X81853092Y-51011972D01*
X82026824Y-50751963D01*
X82146493Y-50463057D01*
X82207500Y-50156355D01*
X82207500Y-49843645D01*
X82146493Y-49536943D01*
X82026824Y-49248037D01*
X81853092Y-48988028D01*
X81631972Y-48766908D01*
X81371963Y-48593176D01*
X81083057Y-48473507D01*
X80776355Y-48412500D01*
X80463645Y-48412500D01*
X80156943Y-48473507D01*
X79868037Y-48593176D01*
X79608028Y-48766908D01*
X79386908Y-48988028D01*
X79213176Y-49248037D01*
X79093507Y-49536943D01*
X79032500Y-49843645D01*
X79032500Y-50156355D01*
X79093507Y-50463057D01*
X79213176Y-50751963D01*
X79386908Y-51011972D01*
X79555936Y-51181000D01*
X78184064Y-51181000D01*
X78353092Y-51011972D01*
X78526824Y-50751963D01*
X78646493Y-50463057D01*
X78707500Y-50156355D01*
X78707500Y-49843645D01*
X78646493Y-49536943D01*
X78526824Y-49248037D01*
X78353092Y-48988028D01*
X78131972Y-48766908D01*
X77871963Y-48593176D01*
X77583057Y-48473507D01*
X77276355Y-48412500D01*
X76963645Y-48412500D01*
X76656943Y-48473507D01*
X76368037Y-48593176D01*
X76108028Y-48766908D01*
X75886908Y-48988028D01*
X75713176Y-49248037D01*
X75692000Y-49299160D01*
X75692000Y-47244000D01*
X75689560Y-47219224D01*
X75682333Y-47195399D01*
X75670597Y-47173443D01*
X75654803Y-47154197D01*
X75635557Y-47138403D01*
X75613601Y-47126667D01*
X75589776Y-47119440D01*
X75565000Y-47117000D01*
X64135000Y-47117000D01*
X64110224Y-47119440D01*
X64086399Y-47126667D01*
X64064443Y-47138403D01*
X64045197Y-47154197D01*
X64029403Y-47173443D01*
X64017667Y-47195399D01*
X64010440Y-47219224D01*
X64008000Y-47244000D01*
X64008000Y-66103500D01*
X64010440Y-66128276D01*
X64017667Y-66152101D01*
X64029403Y-66174057D01*
X64045197Y-66193303D01*
X64064443Y-66209097D01*
X64086399Y-66220833D01*
X64110224Y-66228060D01*
X64135000Y-66230500D01*
X68516500Y-66230500D01*
X68516500Y-68389500D01*
X68518940Y-68414276D01*
X68526167Y-68438101D01*
X68537903Y-68460057D01*
X68553697Y-68479303D01*
X68572943Y-68495097D01*
X68594899Y-68506833D01*
X68618724Y-68514060D01*
X68643500Y-68516500D01*
X71501000Y-68516500D01*
X71501000Y-100361497D01*
X71416988Y-100339617D01*
X70664605Y-101092000D01*
X71416988Y-101844383D01*
X71501000Y-101822503D01*
X71501000Y-107587942D01*
X58135000Y-107576550D01*
X58135000Y-100959037D01*
X66595000Y-100959037D01*
X66595000Y-101224963D01*
X66646880Y-101485780D01*
X66748646Y-101731465D01*
X66896387Y-101952575D01*
X67084425Y-102140613D01*
X67305535Y-102288354D01*
X67551220Y-102390120D01*
X67812037Y-102442000D01*
X68077963Y-102442000D01*
X68338780Y-102390120D01*
X68584465Y-102288354D01*
X68805575Y-102140613D01*
X68922200Y-102023988D01*
X69732617Y-102023988D01*
X69793898Y-102259286D01*
X70034903Y-102371684D01*
X70293206Y-102434905D01*
X70558879Y-102446518D01*
X70821712Y-102406078D01*
X71071606Y-102315139D01*
X71176102Y-102259286D01*
X71237383Y-102023988D01*
X70485000Y-101271605D01*
X69732617Y-102023988D01*
X68922200Y-102023988D01*
X68993613Y-101952575D01*
X69141354Y-101731465D01*
X69215742Y-101551875D01*
X69261861Y-101678606D01*
X69317714Y-101783102D01*
X69553012Y-101844383D01*
X70305395Y-101092000D01*
X69553012Y-100339617D01*
X69317714Y-100400898D01*
X69212983Y-100625463D01*
X69141354Y-100452535D01*
X68993613Y-100231425D01*
X68922200Y-100160012D01*
X69732617Y-100160012D01*
X70485000Y-100912395D01*
X71237383Y-100160012D01*
X71176102Y-99924714D01*
X70935097Y-99812316D01*
X70676794Y-99749095D01*
X70411121Y-99737482D01*
X70148288Y-99777922D01*
X69898394Y-99868861D01*
X69793898Y-99924714D01*
X69732617Y-100160012D01*
X68922200Y-100160012D01*
X68805575Y-100043387D01*
X68584465Y-99895646D01*
X68338780Y-99793880D01*
X68077963Y-99742000D01*
X67812037Y-99742000D01*
X67551220Y-99793880D01*
X67305535Y-99895646D01*
X67084425Y-100043387D01*
X66896387Y-100231425D01*
X66748646Y-100452535D01*
X66646880Y-100698220D01*
X66595000Y-100959037D01*
X58135000Y-100959037D01*
X58135000Y-64343646D01*
X58138314Y-64310000D01*
X58125088Y-64175717D01*
X58085919Y-64046594D01*
X58022312Y-63927593D01*
X57936711Y-63823289D01*
X57832407Y-63737688D01*
X57713406Y-63674081D01*
X57584283Y-63634912D01*
X57483647Y-63625000D01*
X57450000Y-63621686D01*
X57416353Y-63625000D01*
X50685000Y-63625000D01*
X50685000Y-48680090D01*
X50894000Y-48680090D01*
X50894000Y-48939910D01*
X50944689Y-49194738D01*
X51044117Y-49434781D01*
X51188466Y-49650813D01*
X51372187Y-49834534D01*
X51588219Y-49978883D01*
X51828262Y-50078311D01*
X52083090Y-50129000D01*
X52342910Y-50129000D01*
X52597738Y-50078311D01*
X52837781Y-49978883D01*
X53010666Y-49863364D01*
X53077815Y-49945185D01*
X53174506Y-50024537D01*
X53284820Y-50083502D01*
X53404518Y-50119812D01*
X53529000Y-50132072D01*
X54897000Y-50132072D01*
X55021482Y-50119812D01*
X55141180Y-50083502D01*
X55251494Y-50024537D01*
X55348185Y-49945185D01*
X55427537Y-49848494D01*
X55486502Y-49738180D01*
X55522812Y-49618482D01*
X55535072Y-49494000D01*
X55535072Y-48126000D01*
X55522812Y-48001518D01*
X55486502Y-47881820D01*
X55427537Y-47771506D01*
X55348185Y-47674815D01*
X55251494Y-47595463D01*
X55141180Y-47536498D01*
X55021482Y-47500188D01*
X54897000Y-47487928D01*
X53529000Y-47487928D01*
X53404518Y-47500188D01*
X53284820Y-47536498D01*
X53174506Y-47595463D01*
X53077815Y-47674815D01*
X53010666Y-47756636D01*
X52837781Y-47641117D01*
X52597738Y-47541689D01*
X52342910Y-47491000D01*
X52083090Y-47491000D01*
X51828262Y-47541689D01*
X51588219Y-47641117D01*
X51372187Y-47785466D01*
X51188466Y-47969187D01*
X51044117Y-48185219D01*
X50944689Y-48425262D01*
X50894000Y-48680090D01*
X50685000Y-48680090D01*
X50685000Y-42605000D01*
X82296000Y-42605000D01*
X82296000Y-51181000D01*
G37*
X82296000Y-51181000D02*
X81684064Y-51181000D01*
X81853092Y-51011972D01*
X82026824Y-50751963D01*
X82146493Y-50463057D01*
X82207500Y-50156355D01*
X82207500Y-49843645D01*
X82146493Y-49536943D01*
X82026824Y-49248037D01*
X81853092Y-48988028D01*
X81631972Y-48766908D01*
X81371963Y-48593176D01*
X81083057Y-48473507D01*
X80776355Y-48412500D01*
X80463645Y-48412500D01*
X80156943Y-48473507D01*
X79868037Y-48593176D01*
X79608028Y-48766908D01*
X79386908Y-48988028D01*
X79213176Y-49248037D01*
X79093507Y-49536943D01*
X79032500Y-49843645D01*
X79032500Y-50156355D01*
X79093507Y-50463057D01*
X79213176Y-50751963D01*
X79386908Y-51011972D01*
X79555936Y-51181000D01*
X78184064Y-51181000D01*
X78353092Y-51011972D01*
X78526824Y-50751963D01*
X78646493Y-50463057D01*
X78707500Y-50156355D01*
X78707500Y-49843645D01*
X78646493Y-49536943D01*
X78526824Y-49248037D01*
X78353092Y-48988028D01*
X78131972Y-48766908D01*
X77871963Y-48593176D01*
X77583057Y-48473507D01*
X77276355Y-48412500D01*
X76963645Y-48412500D01*
X76656943Y-48473507D01*
X76368037Y-48593176D01*
X76108028Y-48766908D01*
X75886908Y-48988028D01*
X75713176Y-49248037D01*
X75692000Y-49299160D01*
X75692000Y-47244000D01*
X75689560Y-47219224D01*
X75682333Y-47195399D01*
X75670597Y-47173443D01*
X75654803Y-47154197D01*
X75635557Y-47138403D01*
X75613601Y-47126667D01*
X75589776Y-47119440D01*
X75565000Y-47117000D01*
X64135000Y-47117000D01*
X64110224Y-47119440D01*
X64086399Y-47126667D01*
X64064443Y-47138403D01*
X64045197Y-47154197D01*
X64029403Y-47173443D01*
X64017667Y-47195399D01*
X64010440Y-47219224D01*
X64008000Y-47244000D01*
X64008000Y-66103500D01*
X64010440Y-66128276D01*
X64017667Y-66152101D01*
X64029403Y-66174057D01*
X64045197Y-66193303D01*
X64064443Y-66209097D01*
X64086399Y-66220833D01*
X64110224Y-66228060D01*
X64135000Y-66230500D01*
X68516500Y-66230500D01*
X68516500Y-68389500D01*
X68518940Y-68414276D01*
X68526167Y-68438101D01*
X68537903Y-68460057D01*
X68553697Y-68479303D01*
X68572943Y-68495097D01*
X68594899Y-68506833D01*
X68618724Y-68514060D01*
X68643500Y-68516500D01*
X71501000Y-68516500D01*
X71501000Y-100361497D01*
X71416988Y-100339617D01*
X70664605Y-101092000D01*
X71416988Y-101844383D01*
X71501000Y-101822503D01*
X71501000Y-107587942D01*
X58135000Y-107576550D01*
X58135000Y-100959037D01*
X66595000Y-100959037D01*
X66595000Y-101224963D01*
X66646880Y-101485780D01*
X66748646Y-101731465D01*
X66896387Y-101952575D01*
X67084425Y-102140613D01*
X67305535Y-102288354D01*
X67551220Y-102390120D01*
X67812037Y-102442000D01*
X68077963Y-102442000D01*
X68338780Y-102390120D01*
X68584465Y-102288354D01*
X68805575Y-102140613D01*
X68922200Y-102023988D01*
X69732617Y-102023988D01*
X69793898Y-102259286D01*
X70034903Y-102371684D01*
X70293206Y-102434905D01*
X70558879Y-102446518D01*
X70821712Y-102406078D01*
X71071606Y-102315139D01*
X71176102Y-102259286D01*
X71237383Y-102023988D01*
X70485000Y-101271605D01*
X69732617Y-102023988D01*
X68922200Y-102023988D01*
X68993613Y-101952575D01*
X69141354Y-101731465D01*
X69215742Y-101551875D01*
X69261861Y-101678606D01*
X69317714Y-101783102D01*
X69553012Y-101844383D01*
X70305395Y-101092000D01*
X69553012Y-100339617D01*
X69317714Y-100400898D01*
X69212983Y-100625463D01*
X69141354Y-100452535D01*
X68993613Y-100231425D01*
X68922200Y-100160012D01*
X69732617Y-100160012D01*
X70485000Y-100912395D01*
X71237383Y-100160012D01*
X71176102Y-99924714D01*
X70935097Y-99812316D01*
X70676794Y-99749095D01*
X70411121Y-99737482D01*
X70148288Y-99777922D01*
X69898394Y-99868861D01*
X69793898Y-99924714D01*
X69732617Y-100160012D01*
X68922200Y-100160012D01*
X68805575Y-100043387D01*
X68584465Y-99895646D01*
X68338780Y-99793880D01*
X68077963Y-99742000D01*
X67812037Y-99742000D01*
X67551220Y-99793880D01*
X67305535Y-99895646D01*
X67084425Y-100043387D01*
X66896387Y-100231425D01*
X66748646Y-100452535D01*
X66646880Y-100698220D01*
X66595000Y-100959037D01*
X58135000Y-100959037D01*
X58135000Y-64343646D01*
X58138314Y-64310000D01*
X58125088Y-64175717D01*
X58085919Y-64046594D01*
X58022312Y-63927593D01*
X57936711Y-63823289D01*
X57832407Y-63737688D01*
X57713406Y-63674081D01*
X57584283Y-63634912D01*
X57483647Y-63625000D01*
X57450000Y-63621686D01*
X57416353Y-63625000D01*
X50685000Y-63625000D01*
X50685000Y-48680090D01*
X50894000Y-48680090D01*
X50894000Y-48939910D01*
X50944689Y-49194738D01*
X51044117Y-49434781D01*
X51188466Y-49650813D01*
X51372187Y-49834534D01*
X51588219Y-49978883D01*
X51828262Y-50078311D01*
X52083090Y-50129000D01*
X52342910Y-50129000D01*
X52597738Y-50078311D01*
X52837781Y-49978883D01*
X53010666Y-49863364D01*
X53077815Y-49945185D01*
X53174506Y-50024537D01*
X53284820Y-50083502D01*
X53404518Y-50119812D01*
X53529000Y-50132072D01*
X54897000Y-50132072D01*
X55021482Y-50119812D01*
X55141180Y-50083502D01*
X55251494Y-50024537D01*
X55348185Y-49945185D01*
X55427537Y-49848494D01*
X55486502Y-49738180D01*
X55522812Y-49618482D01*
X55535072Y-49494000D01*
X55535072Y-48126000D01*
X55522812Y-48001518D01*
X55486502Y-47881820D01*
X55427537Y-47771506D01*
X55348185Y-47674815D01*
X55251494Y-47595463D01*
X55141180Y-47536498D01*
X55021482Y-47500188D01*
X54897000Y-47487928D01*
X53529000Y-47487928D01*
X53404518Y-47500188D01*
X53284820Y-47536498D01*
X53174506Y-47595463D01*
X53077815Y-47674815D01*
X53010666Y-47756636D01*
X52837781Y-47641117D01*
X52597738Y-47541689D01*
X52342910Y-47491000D01*
X52083090Y-47491000D01*
X51828262Y-47541689D01*
X51588219Y-47641117D01*
X51372187Y-47785466D01*
X51188466Y-47969187D01*
X51044117Y-48185219D01*
X50944689Y-48425262D01*
X50894000Y-48680090D01*
X50685000Y-48680090D01*
X50685000Y-42605000D01*
X82296000Y-42605000D01*
X82296000Y-51181000D01*
G36*
X147335430Y-42676677D02*
G01*
X147105639Y-42830218D01*
X146910218Y-43025639D01*
X146756677Y-43255430D01*
X146650916Y-43510760D01*
X146597000Y-43781817D01*
X146597000Y-44058183D01*
X146650916Y-44329240D01*
X146756677Y-44584570D01*
X146910218Y-44814361D01*
X147105639Y-45009782D01*
X147335430Y-45163323D01*
X147590760Y-45269084D01*
X147861817Y-45323000D01*
X148138183Y-45323000D01*
X148409240Y-45269084D01*
X148664570Y-45163323D01*
X148894361Y-45009782D01*
X149089782Y-44814361D01*
X149243323Y-44584570D01*
X149315001Y-44411524D01*
X149315000Y-63625000D01*
X142583647Y-63625000D01*
X142550000Y-63621686D01*
X142516353Y-63625000D01*
X142415717Y-63634912D01*
X142286594Y-63674081D01*
X142167593Y-63737688D01*
X142063289Y-63823289D01*
X141977688Y-63927593D01*
X141914081Y-64046594D01*
X141874912Y-64175717D01*
X141861686Y-64310000D01*
X141865001Y-64343657D01*
X141865000Y-115186496D01*
X129032000Y-115182688D01*
X129032000Y-110456788D01*
X129397217Y-110456788D01*
X129458498Y-110692086D01*
X129699503Y-110804484D01*
X129957806Y-110867705D01*
X130223479Y-110879318D01*
X130486312Y-110838878D01*
X130736206Y-110747939D01*
X130840702Y-110692086D01*
X130901983Y-110456788D01*
X130149600Y-109704405D01*
X129397217Y-110456788D01*
X129032000Y-110456788D01*
X129032000Y-110228842D01*
X129217612Y-110277183D01*
X129969995Y-109524800D01*
X130329205Y-109524800D01*
X131081588Y-110277183D01*
X131316886Y-110215902D01*
X131421617Y-109991337D01*
X131493246Y-110164265D01*
X131640987Y-110385375D01*
X131829025Y-110573413D01*
X132050135Y-110721154D01*
X132295820Y-110822920D01*
X132556637Y-110874800D01*
X132822563Y-110874800D01*
X133083380Y-110822920D01*
X133329065Y-110721154D01*
X133550175Y-110573413D01*
X133738213Y-110385375D01*
X133885954Y-110164265D01*
X133987720Y-109918580D01*
X134039600Y-109657763D01*
X134039600Y-109391837D01*
X133987720Y-109131020D01*
X133885954Y-108885335D01*
X133738213Y-108664225D01*
X133550175Y-108476187D01*
X133329065Y-108328446D01*
X133083380Y-108226680D01*
X132822563Y-108174800D01*
X132556637Y-108174800D01*
X132295820Y-108226680D01*
X132050135Y-108328446D01*
X131829025Y-108476187D01*
X131640987Y-108664225D01*
X131493246Y-108885335D01*
X131418858Y-109064925D01*
X131372739Y-108938194D01*
X131316886Y-108833698D01*
X131081588Y-108772417D01*
X130329205Y-109524800D01*
X129969995Y-109524800D01*
X129217612Y-108772417D01*
X129032000Y-108820758D01*
X129032000Y-108592812D01*
X129397217Y-108592812D01*
X130149600Y-109345195D01*
X130901983Y-108592812D01*
X130840702Y-108357514D01*
X130599697Y-108245116D01*
X130341394Y-108181895D01*
X130075721Y-108170282D01*
X129812888Y-108210722D01*
X129562994Y-108301661D01*
X129458498Y-108357514D01*
X129397217Y-108592812D01*
X129032000Y-108592812D01*
X129032000Y-87255350D01*
X129029560Y-87230574D01*
X129022333Y-87206749D01*
X129010597Y-87184793D01*
X128994803Y-87165547D01*
X128975557Y-87149753D01*
X128953601Y-87138017D01*
X128929776Y-87130790D01*
X128904238Y-87128352D01*
X125857000Y-87146635D01*
X125857000Y-73787000D01*
X134112000Y-73787000D01*
X134136776Y-73784560D01*
X134160601Y-73777333D01*
X134182557Y-73765597D01*
X134201803Y-73749803D01*
X134217597Y-73730557D01*
X134229333Y-73708601D01*
X134236560Y-73684776D01*
X134239000Y-73660000D01*
X134239000Y-57487521D01*
X138276632Y-57518296D01*
X138301426Y-57516045D01*
X138325305Y-57509000D01*
X138347351Y-57497431D01*
X138366716Y-57481784D01*
X138382656Y-57462660D01*
X138394559Y-57440794D01*
X138401967Y-57417025D01*
X138404600Y-57391300D01*
X138404600Y-54491769D01*
X138416493Y-54463057D01*
X138477500Y-54156355D01*
X138477500Y-53862408D01*
X138993000Y-53862408D01*
X138993000Y-54137592D01*
X139046686Y-54407490D01*
X139151995Y-54661727D01*
X139304880Y-54890535D01*
X139499465Y-55085120D01*
X139728273Y-55238005D01*
X139982510Y-55343314D01*
X140252408Y-55397000D01*
X140527592Y-55397000D01*
X140797490Y-55343314D01*
X141051727Y-55238005D01*
X141280535Y-55085120D01*
X141475120Y-54890535D01*
X141628005Y-54661727D01*
X141733314Y-54407490D01*
X141787000Y-54137592D01*
X141787000Y-53862408D01*
X141733314Y-53592510D01*
X141628005Y-53338273D01*
X141475120Y-53109465D01*
X141280535Y-52914880D01*
X141051727Y-52761995D01*
X140797490Y-52656686D01*
X140527592Y-52603000D01*
X140252408Y-52603000D01*
X139982510Y-52656686D01*
X139728273Y-52761995D01*
X139499465Y-52914880D01*
X139304880Y-53109465D01*
X139151995Y-53338273D01*
X139046686Y-53592510D01*
X138993000Y-53862408D01*
X138477500Y-53862408D01*
X138477500Y-53843645D01*
X138416493Y-53536943D01*
X138404600Y-53508231D01*
X138404600Y-51790600D01*
X138402160Y-51765824D01*
X138394933Y-51741999D01*
X138383197Y-51720043D01*
X138367403Y-51700797D01*
X138348157Y-51685003D01*
X138326201Y-51673267D01*
X138302376Y-51666040D01*
X138277600Y-51663600D01*
X135255000Y-51663602D01*
X135255000Y-49843645D01*
X135302500Y-49843645D01*
X135302500Y-50156355D01*
X135363507Y-50463057D01*
X135483176Y-50751963D01*
X135656908Y-51011972D01*
X135878028Y-51233092D01*
X136138037Y-51406824D01*
X136426943Y-51526493D01*
X136733645Y-51587500D01*
X137046355Y-51587500D01*
X137353057Y-51526493D01*
X137641963Y-51406824D01*
X137901972Y-51233092D01*
X138123092Y-51011972D01*
X138296824Y-50751963D01*
X138416493Y-50463057D01*
X138477500Y-50156355D01*
X138477500Y-49843645D01*
X138802500Y-49843645D01*
X138802500Y-50156355D01*
X138863507Y-50463057D01*
X138983176Y-50751963D01*
X139156908Y-51011972D01*
X139378028Y-51233092D01*
X139638037Y-51406824D01*
X139926943Y-51526493D01*
X140233645Y-51587500D01*
X140546355Y-51587500D01*
X140853057Y-51526493D01*
X141141963Y-51406824D01*
X141401972Y-51233092D01*
X141623092Y-51011972D01*
X141796824Y-50751963D01*
X141916493Y-50463057D01*
X141977500Y-50156355D01*
X141977500Y-49843645D01*
X141916493Y-49536943D01*
X141796824Y-49248037D01*
X141623092Y-48988028D01*
X141401972Y-48766908D01*
X141141963Y-48593176D01*
X140853057Y-48473507D01*
X140546355Y-48412500D01*
X140233645Y-48412500D01*
X139926943Y-48473507D01*
X139638037Y-48593176D01*
X139378028Y-48766908D01*
X139156908Y-48988028D01*
X138983176Y-49248037D01*
X138863507Y-49536943D01*
X138802500Y-49843645D01*
X138477500Y-49843645D01*
X138416493Y-49536943D01*
X138296824Y-49248037D01*
X138123092Y-48988028D01*
X137901972Y-48766908D01*
X137641963Y-48593176D01*
X137353057Y-48473507D01*
X137046355Y-48412500D01*
X136733645Y-48412500D01*
X136426943Y-48473507D01*
X136138037Y-48593176D01*
X135878028Y-48766908D01*
X135656908Y-48988028D01*
X135483176Y-49248037D01*
X135363507Y-49536943D01*
X135302500Y-49843645D01*
X135255000Y-49843645D01*
X135255000Y-46799500D01*
X135252560Y-46774724D01*
X135245333Y-46750899D01*
X135233597Y-46728943D01*
X135217803Y-46709697D01*
X135198557Y-46693903D01*
X135176601Y-46682167D01*
X135152776Y-46674940D01*
X135128000Y-46672500D01*
X110426500Y-46672500D01*
X110401724Y-46674940D01*
X110377899Y-46682167D01*
X110355943Y-46693903D01*
X110336697Y-46709697D01*
X110320903Y-46728943D01*
X110309167Y-46750899D01*
X110301940Y-46774724D01*
X110299500Y-46799500D01*
X110299500Y-49254497D01*
X110296824Y-49248037D01*
X110123092Y-48988028D01*
X109901972Y-48766908D01*
X109641963Y-48593176D01*
X109353057Y-48473507D01*
X109046355Y-48412500D01*
X108733645Y-48412500D01*
X108426943Y-48473507D01*
X108138037Y-48593176D01*
X107878028Y-48766908D01*
X107656908Y-48988028D01*
X107483176Y-49248037D01*
X107363507Y-49536943D01*
X107302500Y-49843645D01*
X107302500Y-50156355D01*
X107363507Y-50463057D01*
X107483176Y-50751963D01*
X107656908Y-51011972D01*
X107878028Y-51233092D01*
X108138037Y-51406824D01*
X108426943Y-51526493D01*
X108733645Y-51587500D01*
X109046355Y-51587500D01*
X109353057Y-51526493D01*
X109641963Y-51406824D01*
X109901972Y-51233092D01*
X110123092Y-51011972D01*
X110296824Y-50751963D01*
X110299500Y-50745503D01*
X110299500Y-53254497D01*
X110296824Y-53248037D01*
X110123092Y-52988028D01*
X109901972Y-52766908D01*
X109641963Y-52593176D01*
X109353057Y-52473507D01*
X109046355Y-52412500D01*
X108733645Y-52412500D01*
X108426943Y-52473507D01*
X108138037Y-52593176D01*
X107878028Y-52766908D01*
X107656908Y-52988028D01*
X107483176Y-53248037D01*
X107363507Y-53536943D01*
X107302500Y-53843645D01*
X107302500Y-54156355D01*
X107363507Y-54463057D01*
X107483176Y-54751963D01*
X107656908Y-55011972D01*
X107878028Y-55233092D01*
X108138037Y-55406824D01*
X108426943Y-55526493D01*
X108733645Y-55587500D01*
X109046355Y-55587500D01*
X109353057Y-55526493D01*
X109641963Y-55406824D01*
X109901972Y-55233092D01*
X110123092Y-55011972D01*
X110296824Y-54751963D01*
X110299500Y-54745503D01*
X110299500Y-56134000D01*
X104775000Y-56134000D01*
X104775000Y-42605000D01*
X147508474Y-42605000D01*
X147335430Y-42676677D01*
G37*
X147335430Y-42676677D02*
X147105639Y-42830218D01*
X146910218Y-43025639D01*
X146756677Y-43255430D01*
X146650916Y-43510760D01*
X146597000Y-43781817D01*
X146597000Y-44058183D01*
X146650916Y-44329240D01*
X146756677Y-44584570D01*
X146910218Y-44814361D01*
X147105639Y-45009782D01*
X147335430Y-45163323D01*
X147590760Y-45269084D01*
X147861817Y-45323000D01*
X148138183Y-45323000D01*
X148409240Y-45269084D01*
X148664570Y-45163323D01*
X148894361Y-45009782D01*
X149089782Y-44814361D01*
X149243323Y-44584570D01*
X149315001Y-44411524D01*
X149315000Y-63625000D01*
X142583647Y-63625000D01*
X142550000Y-63621686D01*
X142516353Y-63625000D01*
X142415717Y-63634912D01*
X142286594Y-63674081D01*
X142167593Y-63737688D01*
X142063289Y-63823289D01*
X141977688Y-63927593D01*
X141914081Y-64046594D01*
X141874912Y-64175717D01*
X141861686Y-64310000D01*
X141865001Y-64343657D01*
X141865000Y-115186496D01*
X129032000Y-115182688D01*
X129032000Y-110456788D01*
X129397217Y-110456788D01*
X129458498Y-110692086D01*
X129699503Y-110804484D01*
X129957806Y-110867705D01*
X130223479Y-110879318D01*
X130486312Y-110838878D01*
X130736206Y-110747939D01*
X130840702Y-110692086D01*
X130901983Y-110456788D01*
X130149600Y-109704405D01*
X129397217Y-110456788D01*
X129032000Y-110456788D01*
X129032000Y-110228842D01*
X129217612Y-110277183D01*
X129969995Y-109524800D01*
X130329205Y-109524800D01*
X131081588Y-110277183D01*
X131316886Y-110215902D01*
X131421617Y-109991337D01*
X131493246Y-110164265D01*
X131640987Y-110385375D01*
X131829025Y-110573413D01*
X132050135Y-110721154D01*
X132295820Y-110822920D01*
X132556637Y-110874800D01*
X132822563Y-110874800D01*
X133083380Y-110822920D01*
X133329065Y-110721154D01*
X133550175Y-110573413D01*
X133738213Y-110385375D01*
X133885954Y-110164265D01*
X133987720Y-109918580D01*
X134039600Y-109657763D01*
X134039600Y-109391837D01*
X133987720Y-109131020D01*
X133885954Y-108885335D01*
X133738213Y-108664225D01*
X133550175Y-108476187D01*
X133329065Y-108328446D01*
X133083380Y-108226680D01*
X132822563Y-108174800D01*
X132556637Y-108174800D01*
X132295820Y-108226680D01*
X132050135Y-108328446D01*
X131829025Y-108476187D01*
X131640987Y-108664225D01*
X131493246Y-108885335D01*
X131418858Y-109064925D01*
X131372739Y-108938194D01*
X131316886Y-108833698D01*
X131081588Y-108772417D01*
X130329205Y-109524800D01*
X129969995Y-109524800D01*
X129217612Y-108772417D01*
X129032000Y-108820758D01*
X129032000Y-108592812D01*
X129397217Y-108592812D01*
X130149600Y-109345195D01*
X130901983Y-108592812D01*
X130840702Y-108357514D01*
X130599697Y-108245116D01*
X130341394Y-108181895D01*
X130075721Y-108170282D01*
X129812888Y-108210722D01*
X129562994Y-108301661D01*
X129458498Y-108357514D01*
X129397217Y-108592812D01*
X129032000Y-108592812D01*
X129032000Y-87255350D01*
X129029560Y-87230574D01*
X129022333Y-87206749D01*
X129010597Y-87184793D01*
X128994803Y-87165547D01*
X128975557Y-87149753D01*
X128953601Y-87138017D01*
X128929776Y-87130790D01*
X128904238Y-87128352D01*
X125857000Y-87146635D01*
X125857000Y-73787000D01*
X134112000Y-73787000D01*
X134136776Y-73784560D01*
X134160601Y-73777333D01*
X134182557Y-73765597D01*
X134201803Y-73749803D01*
X134217597Y-73730557D01*
X134229333Y-73708601D01*
X134236560Y-73684776D01*
X134239000Y-73660000D01*
X134239000Y-57487521D01*
X138276632Y-57518296D01*
X138301426Y-57516045D01*
X138325305Y-57509000D01*
X138347351Y-57497431D01*
X138366716Y-57481784D01*
X138382656Y-57462660D01*
X138394559Y-57440794D01*
X138401967Y-57417025D01*
X138404600Y-57391300D01*
X138404600Y-54491769D01*
X138416493Y-54463057D01*
X138477500Y-54156355D01*
X138477500Y-53862408D01*
X138993000Y-53862408D01*
X138993000Y-54137592D01*
X139046686Y-54407490D01*
X139151995Y-54661727D01*
X139304880Y-54890535D01*
X139499465Y-55085120D01*
X139728273Y-55238005D01*
X139982510Y-55343314D01*
X140252408Y-55397000D01*
X140527592Y-55397000D01*
X140797490Y-55343314D01*
X141051727Y-55238005D01*
X141280535Y-55085120D01*
X141475120Y-54890535D01*
X141628005Y-54661727D01*
X141733314Y-54407490D01*
X141787000Y-54137592D01*
X141787000Y-53862408D01*
X141733314Y-53592510D01*
X141628005Y-53338273D01*
X141475120Y-53109465D01*
X141280535Y-52914880D01*
X141051727Y-52761995D01*
X140797490Y-52656686D01*
X140527592Y-52603000D01*
X140252408Y-52603000D01*
X139982510Y-52656686D01*
X139728273Y-52761995D01*
X139499465Y-52914880D01*
X139304880Y-53109465D01*
X139151995Y-53338273D01*
X139046686Y-53592510D01*
X138993000Y-53862408D01*
X138477500Y-53862408D01*
X138477500Y-53843645D01*
X138416493Y-53536943D01*
X138404600Y-53508231D01*
X138404600Y-51790600D01*
X138402160Y-51765824D01*
X138394933Y-51741999D01*
X138383197Y-51720043D01*
X138367403Y-51700797D01*
X138348157Y-51685003D01*
X138326201Y-51673267D01*
X138302376Y-51666040D01*
X138277600Y-51663600D01*
X135255000Y-51663602D01*
X135255000Y-49843645D01*
X135302500Y-49843645D01*
X135302500Y-50156355D01*
X135363507Y-50463057D01*
X135483176Y-50751963D01*
X135656908Y-51011972D01*
X135878028Y-51233092D01*
X136138037Y-51406824D01*
X136426943Y-51526493D01*
X136733645Y-51587500D01*
X137046355Y-51587500D01*
X137353057Y-51526493D01*
X137641963Y-51406824D01*
X137901972Y-51233092D01*
X138123092Y-51011972D01*
X138296824Y-50751963D01*
X138416493Y-50463057D01*
X138477500Y-50156355D01*
X138477500Y-49843645D01*
X138802500Y-49843645D01*
X138802500Y-50156355D01*
X138863507Y-50463057D01*
X138983176Y-50751963D01*
X139156908Y-51011972D01*
X139378028Y-51233092D01*
X139638037Y-51406824D01*
X139926943Y-51526493D01*
X140233645Y-51587500D01*
X140546355Y-51587500D01*
X140853057Y-51526493D01*
X141141963Y-51406824D01*
X141401972Y-51233092D01*
X141623092Y-51011972D01*
X141796824Y-50751963D01*
X141916493Y-50463057D01*
X141977500Y-50156355D01*
X141977500Y-49843645D01*
X141916493Y-49536943D01*
X141796824Y-49248037D01*
X141623092Y-48988028D01*
X141401972Y-48766908D01*
X141141963Y-48593176D01*
X140853057Y-48473507D01*
X140546355Y-48412500D01*
X140233645Y-48412500D01*
X139926943Y-48473507D01*
X139638037Y-48593176D01*
X139378028Y-48766908D01*
X139156908Y-48988028D01*
X138983176Y-49248037D01*
X138863507Y-49536943D01*
X138802500Y-49843645D01*
X138477500Y-49843645D01*
X138416493Y-49536943D01*
X138296824Y-49248037D01*
X138123092Y-48988028D01*
X137901972Y-48766908D01*
X137641963Y-48593176D01*
X137353057Y-48473507D01*
X137046355Y-48412500D01*
X136733645Y-48412500D01*
X136426943Y-48473507D01*
X136138037Y-48593176D01*
X135878028Y-48766908D01*
X135656908Y-48988028D01*
X135483176Y-49248037D01*
X135363507Y-49536943D01*
X135302500Y-49843645D01*
X135255000Y-49843645D01*
X135255000Y-46799500D01*
X135252560Y-46774724D01*
X135245333Y-46750899D01*
X135233597Y-46728943D01*
X135217803Y-46709697D01*
X135198557Y-46693903D01*
X135176601Y-46682167D01*
X135152776Y-46674940D01*
X135128000Y-46672500D01*
X110426500Y-46672500D01*
X110401724Y-46674940D01*
X110377899Y-46682167D01*
X110355943Y-46693903D01*
X110336697Y-46709697D01*
X110320903Y-46728943D01*
X110309167Y-46750899D01*
X110301940Y-46774724D01*
X110299500Y-46799500D01*
X110299500Y-49254497D01*
X110296824Y-49248037D01*
X110123092Y-48988028D01*
X109901972Y-48766908D01*
X109641963Y-48593176D01*
X109353057Y-48473507D01*
X109046355Y-48412500D01*
X108733645Y-48412500D01*
X108426943Y-48473507D01*
X108138037Y-48593176D01*
X107878028Y-48766908D01*
X107656908Y-48988028D01*
X107483176Y-49248037D01*
X107363507Y-49536943D01*
X107302500Y-49843645D01*
X107302500Y-50156355D01*
X107363507Y-50463057D01*
X107483176Y-50751963D01*
X107656908Y-51011972D01*
X107878028Y-51233092D01*
X108138037Y-51406824D01*
X108426943Y-51526493D01*
X108733645Y-51587500D01*
X109046355Y-51587500D01*
X109353057Y-51526493D01*
X109641963Y-51406824D01*
X109901972Y-51233092D01*
X110123092Y-51011972D01*
X110296824Y-50751963D01*
X110299500Y-50745503D01*
X110299500Y-53254497D01*
X110296824Y-53248037D01*
X110123092Y-52988028D01*
X109901972Y-52766908D01*
X109641963Y-52593176D01*
X109353057Y-52473507D01*
X109046355Y-52412500D01*
X108733645Y-52412500D01*
X108426943Y-52473507D01*
X108138037Y-52593176D01*
X107878028Y-52766908D01*
X107656908Y-52988028D01*
X107483176Y-53248037D01*
X107363507Y-53536943D01*
X107302500Y-53843645D01*
X107302500Y-54156355D01*
X107363507Y-54463057D01*
X107483176Y-54751963D01*
X107656908Y-55011972D01*
X107878028Y-55233092D01*
X108138037Y-55406824D01*
X108426943Y-55526493D01*
X108733645Y-55587500D01*
X109046355Y-55587500D01*
X109353057Y-55526493D01*
X109641963Y-55406824D01*
X109901972Y-55233092D01*
X110123092Y-55011972D01*
X110296824Y-54751963D01*
X110299500Y-54745503D01*
X110299500Y-56134000D01*
X104775000Y-56134000D01*
X104775000Y-42605000D01*
X147508474Y-42605000D01*
X147335430Y-42676677D01*
M02*
