M48
; DRILL file {KiCad (5.1.6-0-10_14)} date Thursday, February 24, 2022 at 10:08:35 PM
; FORMAT={-:-/ absolute / metric / decimal}
; #@! TF.CreationDate,2022-02-24T22:08:35+01:00
; #@! TF.GenerationSoftware,Kicad,Pcbnew,(5.1.6-0-10_14)
; #@! TF.FileFunction,Plated,1,4,PTH
FMAT,2
METRIC
T1C0.400
T2C0.778
T3C0.850
T4C0.860
T5C0.880
T6C0.920
T7C1.250
T8C1.270
T9C1.450
T10C2.300
T11C3.050
%
G90
G05
T1
X51.816Y-62.484
X53.264Y-55.829
X54.673Y-52.451
X60.008Y-69.85
X60.008Y-83.418
X60.008Y-96.986
X60.008Y-110.553
X60.008Y-121.602
X60.008Y-132.651
X60.008Y-143.701
X63.309Y-148.018
X64.11Y-78.359
X68.263Y-68.834
X69.291Y-88.9
X71.12Y-61.468
X72.593Y-68.174
X72.593Y-92.405
X73.889Y-73.533
X74.27Y-85.014
X76.086Y-116.561
X77.102Y-118.593
X77.343Y-81.585
X77.394Y-148.018
X77.495Y-77.318
X78.13Y-91.567
X78.562Y-126.365
X78.892Y-110.642
X78.969Y-91.567
X79.184Y-124.206
X79.949Y-126.413
X81.204Y-117.043
X81.61Y-120.345
X81.915Y-132.994
X82.22Y-130.556
X82.271Y-114.706
X82.296Y-135.433
X83.007Y-128.803
X83.287Y-88.494
X84.938Y-141.63
X85.42Y-89.23
X86.208Y-111.379
X87.122Y-133.477
X87.185Y-117.475
X87.376Y-113.462
X88.773Y-44.577
X88.773Y-55.944
X88.837Y-118.999
X89.281Y-131.318
X89.941Y-81.966
X90.678Y-111.608
X91.338Y-131.318
X91.478Y-148.018
X91.821Y-81.966
X91.948Y-111.557
X92.481Y-102.997
X93.65Y-106.172
X94.158Y-140.056
X94.285Y-120.904
X94.564Y-108.915
X94.564Y-111.608
X94.615Y-116.484
X95.504Y-55.944
X96.19Y-135.026
X96.52Y-139.954
X97.001Y-116.38
X97.001Y-126.619
X97.091Y-44.577
X97.511Y-107.95
X97.511Y-110.693
X97.663Y-67.691
X98.781Y-104.546
X99.416Y-134.036
X100.389Y-116.369
X100.568Y-133.848
X100.584Y-94.691
X100.914Y-110.541
X101.473Y-140.64
X101.625Y-106.197
X101.727Y-62.23
X101.856Y-116.55
X102.413Y-100.457
X102.425Y-124.155
X103.099Y-67.589
X103.53Y-106.147
X103.81Y-110.49
X103.855Y-113.474
X105.562Y-148.018
X105.6Y-118.491
X105.689Y-128.93
X105.981Y-43.497
X106.172Y-54.991
X106.172Y-59.245
X107.569Y-111.303
X108.204Y-86.081
X108.306Y-108.966
X108.814Y-128.524
X108.839Y-59.245
X108.902Y-52.006
X109.677Y-116.738
X109.918Y-46.228
X110.617Y-118.745
X111.455Y-130.2
X111.506Y-124.155
X113.081Y-112.624
X114.554Y-129.87
X115.697Y-60.96
X118.872Y-58.547
X119.532Y-109.322
X119.647Y-148.018
X121.221Y-96.203
X121.336Y-110.973
X121.641Y-66.802
X122.276Y-79.502
X124.155Y-71.349
X124.155Y-72.898
X124.308Y-98.806
X124.485Y-93.345
X124.777Y-79.502
X124.841Y-61.087
X127.381Y-74.993
X127.724Y-105.524
X129.032Y-83.058
X131.445Y-93.726
X131.762Y-62.484
X133.731Y-148.018
X135.382Y-90.424
X138.633Y-60.191
X140.081Y-43.497
X140.081Y-69.85
X140.081Y-83.418
X140.081Y-96.986
X140.081Y-110.553
X140.462Y-121.602
X140.462Y-132.651
X140.462Y-143.701
X147.828Y-49.721
X147.828Y-62.484
T2
X86.868Y-66.142
X94.368Y-72.742
T3
X86.563Y-95.707
X89.103Y-95.707
X91.643Y-95.707
T4
X52.213Y-48.81
X54.213Y-48.81
T5
X67.945Y-101.092
X70.485Y-101.092
X73.025Y-101.092
X75.565Y-101.092
X125.07Y-109.525
X127.61Y-109.525
X130.15Y-109.525
X132.69Y-109.525
T6
X110.769Y-92.532
X110.769Y-95.032
X113.969Y-92.532
X113.969Y-95.032
T7
X85.868Y-62.542
X93.868Y-62.542
X93.868Y-65.542
T8
X66.62Y-50.0
X66.62Y-54.0
X70.12Y-50.0
X70.12Y-54.0
X73.62Y-50.0
X73.62Y-54.0
X77.12Y-50.0
X77.12Y-54.0
X80.62Y-50.0
X80.62Y-54.0
X84.12Y-50.0
X84.12Y-54.0
X108.89Y-50.0
X108.89Y-54.0
X112.39Y-50.0
X112.39Y-54.0
X115.89Y-50.0
X115.89Y-54.0
X119.39Y-50.0
X119.39Y-54.0
X122.89Y-50.0
X122.89Y-54.0
X126.39Y-50.0
X126.39Y-54.0
X129.89Y-50.0
X129.89Y-54.0
X133.39Y-50.0
X133.39Y-54.0
X136.89Y-50.0
X136.89Y-54.0
X140.39Y-50.0
X140.39Y-54.0
T9
X113.03Y-62.84
X113.03Y-68.34
T10
X113.479Y-87.762
X113.479Y-99.802
T11
X100.0Y-50.0
T0
M30
